<svg xmlns="http://www.w3.org/2000/svg" width="133.142" height="38.208" viewBox="0 0 133.142 38.208">
  <g id="App_Store_Badge" data-name="App Store Badge" transform="translate(-0.89 -0.89)">
    <g id="Group">
      <path id="Shape" d="M133.142,34.378a3.83,3.83,0,0,1-3.834,3.83H3.839A3.835,3.835,0,0,1,0,34.378V3.835A3.84,3.84,0,0,1,3.839,0H129.307a3.834,3.834,0,0,1,3.834,3.835V34.378Z" transform="translate(0.89 0.89)"/>
      <g id="Group-2" data-name="Group" transform="translate(12 6)">
        <path id="Shape-2" data-name="Shape" d="M17.336,7.413A5.8,5.8,0,0,1,20.1,2.549,5.937,5.937,0,0,0,15.421.021C13.454-.186,11.546,1.2,10.544,1.2,9.522,1.2,7.979.041,6.316.075a6.225,6.225,0,0,0-5.24,3.2C-1.19,7.194.5,12.959,2.671,16.13c1.086,1.553,2.355,3.287,4.016,3.226,1.625-.067,2.232-1.036,4.193-1.036,1.943,0,2.513,1.036,4.207,1,1.744-.028,2.842-1.56,3.89-3.127a12.832,12.832,0,0,0,1.779-3.623,5.6,5.6,0,0,1-3.42-5.154Z" transform="translate(0.792 6.371)" fill="#fff"/>
        <path id="Shape-3" data-name="Shape" d="M3.822,4.089A5.706,5.706,0,0,0,5.128,0,5.812,5.812,0,0,0,1.37,1.944,5.43,5.43,0,0,0,.03,5.882,4.8,4.8,0,0,0,3.822,4.089Z" transform="translate(11.106 0.217)" fill="#fff"/>
      </g>
      <g id="Group-3" data-name="Group" transform="translate(42 18)">
        <path id="Shape-4" data-name="Shape" d="M2.211,13.309H0L4.284,0H6.93l4.3,13.307H8.964L7.72,9.4H3.4l-1.184,3.91Zm3.3-11.532c-.126.545-.332,1.365-.632,2.507L3.772,7.759H7.345L6.22,4.284C6.1,3.93,5.882,3.11,5.549,1.777h-.04Z" transform="translate(0.41 0.196)" fill="#fff"/>
        <path id="Shape-5" data-name="Shape" d="M2.211,13.7H.079V3.356C.079,2.347.053,1.284,0,.2H1.875l.12,1.521h.04A3.568,3.568,0,0,1,5.272,0,3.574,3.574,0,0,1,8.105,1.342,5.314,5.314,0,0,1,9.241,4.877,5.476,5.476,0,0,1,7.918,8.746,3.887,3.887,0,0,1,4.976,10.01,2.955,2.955,0,0,1,2.251,8.648h-.04V13.7ZM4.581,1.7A2.22,2.22,0,0,0,3.15,2.22a2.432,2.432,0,0,0-.839,1.373,2.783,2.783,0,0,0-.1.65v1.6a2.58,2.58,0,0,0,.642,1.769,2.139,2.139,0,0,0,1.668.721A2.194,2.194,0,0,0,6.4,7.4a4.1,4.1,0,0,0,.671-2.449,3.968,3.968,0,0,0-.632-2.31A2.191,2.191,0,0,0,4.581,1.7Z" transform="translate(13.421 3.711)" fill="#fff"/>
        <path id="Shape-6" data-name="Shape" d="M2.211,13.7H.079V3.356C.079,2.347.053,1.284,0,.2H1.875l.12,1.521h.04A3.566,3.566,0,0,1,5.272,0,3.583,3.583,0,0,1,8.106,1.342,5.326,5.326,0,0,1,9.24,4.877,5.473,5.473,0,0,1,7.916,8.746,3.883,3.883,0,0,1,4.975,10.01,2.95,2.95,0,0,1,2.251,8.648h-.04V13.7ZM4.58,1.7a2.225,2.225,0,0,0-1.432.523A2.431,2.431,0,0,0,2.31,3.593a2.8,2.8,0,0,0-.1.65v1.6a2.583,2.583,0,0,0,.64,1.769,2.141,2.141,0,0,0,1.669.721A2.194,2.194,0,0,0,6.4,7.4a4.109,4.109,0,0,0,.671-2.449,3.967,3.967,0,0,0-.633-2.31A2.19,2.19,0,0,0,4.58,1.7Z" transform="translate(24.459 3.711)" fill="#fff"/>
        <path id="Shape-7" data-name="Shape" d="M8.256,9.771a3.547,3.547,0,0,1-1.182,2.764A5.239,5.239,0,0,1,3.449,13.7,6.345,6.345,0,0,1,0,12.871l.494-1.777a5.844,5.844,0,0,0,3.082.85A2.914,2.914,0,0,0,5.453,11.4a1.776,1.776,0,0,0,.67-1.454A1.854,1.854,0,0,0,5.57,8.582,5.141,5.141,0,0,0,3.734,7.553Q.239,6.25.24,3.737A3.377,3.377,0,0,1,1.465,1.048,4.829,4.829,0,0,1,4.723,0a6.459,6.459,0,0,1,3.02.632L7.21,2.37a5.24,5.24,0,0,0-2.547-.612,2.578,2.578,0,0,0-1.756.553,1.58,1.58,0,0,0-.533,1.2,1.627,1.627,0,0,0,.611,1.3A6.906,6.906,0,0,0,4.921,5.846,6.568,6.568,0,0,1,7.448,7.464a3.38,3.38,0,0,1,.808,2.307Z" transform="translate(37.783 0.001)" fill="#fff"/>
        <path id="Shape-8" data-name="Shape" d="M5.844,3.991H3.494V8.65q0,1.778,1.244,1.777a3.792,3.792,0,0,0,.947-.1l.059,1.619a4.83,4.83,0,0,1-1.658.236,2.558,2.558,0,0,1-1.975-.77A3.783,3.783,0,0,1,1.4,8.826V3.989H0v-1.6H1.4V.632L3.494,0V2.389h2.35v1.6Z" transform="translate(47.244 1.517)" fill="#fff"/>
        <path id="Shape-9" data-name="Shape" d="M4.619,10.009a4.31,4.31,0,0,1-3.365-1.4A5.119,5.119,0,0,1,0,5.074,5.234,5.234,0,0,1,1.293,1.422,4.492,4.492,0,0,1,4.777,0a4.4,4.4,0,0,1,3.4,1.4A5.067,5.067,0,0,1,9.4,4.915,5.288,5.288,0,0,1,8.135,8.548,4.534,4.534,0,0,1,4.619,10.009ZM4.7,1.559A2.148,2.148,0,0,0,2.746,2.707a4.426,4.426,0,0,0-.572,2.317A4.334,4.334,0,0,0,2.746,7.3,2.179,2.179,0,0,0,6.6,7.28a4.345,4.345,0,0,0,.591-2.3,4.333,4.333,0,0,0-.572-2.277A2.115,2.115,0,0,0,4.7,1.559Z" transform="translate(54.292 3.712)" fill="#fff"/>
        <path id="Shape-10" data-name="Shape" d="M5.134,2.072a3.7,3.7,0,0,0-.672-.059,2.014,2.014,0,0,0-1.738.85,3.2,3.2,0,0,0-.533,1.895V9.793H.06L.08,3.219Q.08,1.56,0,.2H1.857l.078,1.836h.059A3.282,3.282,0,0,1,3.06.514,2.578,2.578,0,0,1,4.6,0a3.423,3.423,0,0,1,.533.039V2.072Z" transform="translate(65.487 3.711)" fill="#fff"/>
        <path id="Shape-11" data-name="Shape" d="M4.779,9.989A4.684,4.684,0,0,1,1.273,8.676,4.87,4.87,0,0,1,0,5.152,5.521,5.521,0,0,1,1.186,1.539,4.1,4.1,0,0,1,4.541,0,3.591,3.591,0,0,1,7.682,1.539a5.215,5.215,0,0,1,.846,3.02,4.948,4.948,0,0,1-.078.967h-6.4A2.794,2.794,0,0,0,2.982,7.7a3.182,3.182,0,0,0,2.092.671,7.111,7.111,0,0,0,2.588-.454L8,9.4A8.032,8.032,0,0,1,4.779,9.989Zm-.4-8.511a2.029,2.029,0,0,0-1.7.869,3.194,3.194,0,0,0-.631,1.658H6.5a2.912,2.912,0,0,0-.414-1.638A1.87,1.87,0,0,0,4.382,1.478Z" transform="translate(71.628 3.693)" fill="#fff"/>
      </g>
      <g id="Group-4" data-name="Group" transform="translate(43 6)">
        <path id="Shape-12" data-name="Shape" d="M1.533,6.645A13.123,13.123,0,0,1,0,6.567V.136A11.38,11.38,0,0,1,1.805,0,3.907,3.907,0,0,1,4.395.747a3.031,3.031,0,0,1,.979,2.416A3.3,3.3,0,0,1,4.316,5.821,4.229,4.229,0,0,1,1.533,6.645ZM1.892.825a4.419,4.419,0,0,0-.844.067V5.782a5.393,5.393,0,0,0,.708.03,2.487,2.487,0,0,0,1.857-.67,2.685,2.685,0,0,0,.656-1.949,2.4,2.4,0,0,0-.606-1.756A2.4,2.4,0,0,0,1.892.825Z" transform="translate(0.676 0.846)" fill="#fff"/>
        <path id="Shape-13" data-name="Shape" d="M2.269,4.917A2.118,2.118,0,0,1,.615,4.228,2.522,2.522,0,0,1,0,2.492,2.565,2.565,0,0,1,.635.7,2.211,2.211,0,0,1,2.347,0,2.166,2.166,0,0,1,4.016.688a2.5,2.5,0,0,1,.6,1.726A2.6,2.6,0,0,1,4,4.2,2.227,2.227,0,0,1,2.269,4.917ZM2.309.765a1.055,1.055,0,0,0-.961.564,2.168,2.168,0,0,0-.281,1.138,2.137,2.137,0,0,0,.281,1.119,1.062,1.062,0,0,0,.95.564,1.049,1.049,0,0,0,.941-.574A2.131,2.131,0,0,0,3.53,2.448a2.137,2.137,0,0,0-.281-1.119A1.038,1.038,0,0,0,2.309.765Z" transform="translate(7.292 2.623)" fill="#fff"/>
        <path id="Shape-14" data-name="Shape" d="M6.83,0,5.355,4.714h-.96L3.784,2.667A15.32,15.32,0,0,1,3.4,1.144H3.386a11.15,11.15,0,0,1-.379,1.523L2.358,4.714H1.387L0,0H1.077L1.61,2.241q.193.795.32,1.513h.019q.117-.591.389-1.5L3.007,0h.854L4.5,2.2q.233.805.378,1.552h.029A14.828,14.828,0,0,1,5.229,2.2L5.8,0H6.83Z" transform="translate(12.935 2.719)" fill="#fff"/>
        <path id="Shape-15" data-name="Shape" d="M4.132,4.813H3.084v-2.7q0-1.248-.95-1.248a.946.946,0,0,0-.757.343,1.217,1.217,0,0,0-.291.808v2.8H.038V1.446Q.038.825,0,.1H.921L.97.834H1A1.514,1.514,0,0,1,1.542.265,1.771,1.771,0,0,1,2.492,0a1.5,1.5,0,0,1,1.1.427,2.075,2.075,0,0,1,.543,1.562V4.813Z" transform="translate(21.066 2.62)" fill="#fff"/>
        <path id="Shape-16" data-name="Shape" d="M1.047,6.877H0V0H1.047V6.877Z" transform="translate(27.041 0.556)" fill="#fff"/>
        <path id="Shape-17" data-name="Shape" d="M2.269,4.917A2.115,2.115,0,0,1,.615,4.228,2.522,2.522,0,0,1,0,2.492,2.565,2.565,0,0,1,.635.7,2.21,2.21,0,0,1,2.346,0,2.17,2.17,0,0,1,4.016.688a2.5,2.5,0,0,1,.6,1.726A2.6,2.6,0,0,1,4,4.2,2.227,2.227,0,0,1,2.269,4.917ZM2.309.765a1.053,1.053,0,0,0-.961.564,2.168,2.168,0,0,0-.281,1.138,2.137,2.137,0,0,0,.281,1.119,1.062,1.062,0,0,0,.95.564,1.048,1.048,0,0,0,.94-.574,2.124,2.124,0,0,0,.291-1.128,2.137,2.137,0,0,0-.281-1.119A1.036,1.036,0,0,0,2.309.765Z" transform="translate(29.641 2.623)" fill="#fff"/>
        <path id="Shape-18" data-name="Shape" d="M1.445,4.917A1.426,1.426,0,0,1,.369,4.49,1.345,1.345,0,0,1,0,3.53,1.47,1.47,0,0,1,.723,2.211,3.709,3.709,0,0,1,2.7,1.765h.06V1.677c0-.617-.329-.931-.979-.931A2.2,2.2,0,0,0,.548,1.1L.335.407A3.034,3.034,0,0,1,1.952,0C3.179,0,3.8.656,3.8,1.95V3.686A7.357,7.357,0,0,0,3.87,4.81H2.929l-.077-.543H2.822A1.621,1.621,0,0,1,1.445,4.917ZM2.677,2.462A2.492,2.492,0,0,0,1.455,2.7a.777.777,0,0,0-.408.712.707.707,0,0,0,.2.554.737.737,0,0,0,.512.184A1.061,1.061,0,0,0,2.4,3.932a.9.9,0,0,0,.38-.743V2.463Z" transform="translate(35.46 2.623)" fill="#fff"/>
        <path id="Shape-19" data-name="Shape" d="M1.978,6.984A1.783,1.783,0,0,1,.562,6.315,2.622,2.622,0,0,1,0,4.579,2.745,2.745,0,0,1,.611,2.726a1.888,1.888,0,0,1,1.455-.66,1.417,1.417,0,0,1,1.327.64h.02V0H4.463V5.607c0,.472.012.888.037,1.27H3.57L3.521,6.12H3.492A1.572,1.572,0,0,1,1.978,6.984Zm.327-4.1a1.081,1.081,0,0,0-.922.466A2,2,0,0,0,1.047,4.54a1.874,1.874,0,0,0,.322,1.136,1.082,1.082,0,0,0,.916.464,1.015,1.015,0,0,0,.828-.388,1.3,1.3,0,0,0,.3-.863V4.1a1.566,1.566,0,0,0-.029-.33,1.2,1.2,0,0,0-.379-.635A1.033,1.033,0,0,0,2.3,2.881Z" transform="translate(40.785 0.556)" fill="#fff"/>
        <path id="Shape-20" data-name="Shape" d="M2.269,4.917A2.12,2.12,0,0,1,.615,4.228,2.522,2.522,0,0,1,0,2.492,2.565,2.565,0,0,1,.635.7,2.212,2.212,0,0,1,2.348,0,2.159,2.159,0,0,1,4.016.688a2.5,2.5,0,0,1,.6,1.726A2.6,2.6,0,0,1,4,4.2,2.227,2.227,0,0,1,2.269,4.917ZM2.309.765a1.057,1.057,0,0,0-.961.564,2.168,2.168,0,0,0-.281,1.138,2.137,2.137,0,0,0,.281,1.119,1.062,1.062,0,0,0,.95.564,1.05,1.05,0,0,0,.941-.574,2.138,2.138,0,0,0,.291-1.128A2.137,2.137,0,0,0,3.25,1.329,1.041,1.041,0,0,0,2.309.765Z" transform="translate(49.631 2.623)" fill="#fff"/>
        <path id="Shape-21" data-name="Shape" d="M4.131,4.813H3.084v-2.7q0-1.248-.951-1.248a.942.942,0,0,0-.756.343,1.212,1.212,0,0,0-.291.808v2.8H.037V1.446Q.037.825,0,.1H.92L.969.834H1A1.53,1.53,0,0,1,1.541.265,1.775,1.775,0,0,1,2.492,0a1.5,1.5,0,0,1,1.1.427,2.071,2.071,0,0,1,.543,1.562V4.813Z" transform="translate(55.752 2.62)" fill="#fff"/>
        <path id="Shape-22" data-name="Shape" d="M2.871,1.959H1.717v2.29c0,.582.205.873.611.873A1.846,1.846,0,0,0,2.8,5.073l.027.8a2.355,2.355,0,0,1-.814.117,1.253,1.253,0,0,1-.969-.378,1.849,1.849,0,0,1-.35-1.271V1.959H0V1.174H.689V.31L1.716,0V1.173H2.87v.786Z" transform="translate(64.065 1.545)" fill="#fff"/>
        <path id="Shape-23" data-name="Shape" d="M4.094,6.877H3.045V4.2q0-1.268-.949-1.268a1,1,0,0,0-1,.735,1.317,1.317,0,0,0-.049.377V6.876H0V0H1.047V2.841h.02a1.584,1.584,0,0,1,1.416-.775,1.46,1.46,0,0,1,1.078.427,2.147,2.147,0,0,1,.533,1.581v2.8Z" transform="translate(68.39 0.556)" fill="#fff"/>
        <path id="Shape-24" data-name="Shape" d="M2.346,4.907A2.3,2.3,0,0,1,.625,4.262,2.39,2.39,0,0,1,0,2.531,2.705,2.705,0,0,1,.582.756,2.013,2.013,0,0,1,2.23,0,1.759,1.759,0,0,1,3.771.756a2.527,2.527,0,0,1,.42,1.483,2.527,2.527,0,0,1-.04.475H1.009a1.382,1.382,0,0,0,.455,1.067,1.564,1.564,0,0,0,1.029.33,3.476,3.476,0,0,0,1.271-.223l.164.728A3.971,3.971,0,0,1,2.346,4.907ZM2.154.726a1,1,0,0,0-.833.427,1.571,1.571,0,0,0-.311.815H3.191a1.424,1.424,0,0,0-.2-.805A.92.92,0,0,0,2.154.726Z" transform="translate(74.016 2.614)" fill="#fff"/>
      </g>
    </g>
  </g>
</svg>
