<svg xmlns="http://www.w3.org/2000/svg" xmlns:xlink="http://www.w3.org/1999/xlink" width="135" height="41.279" viewBox="0 0 135 41.279">
  <defs>
    <linearGradient id="linear-gradient" x1="0.601" y1="0.92" x2="0.335" y2="-0.592" gradientUnits="objectBoundingBox">
      <stop offset="0" stop-color="#d7e69d"/>
      <stop offset="0.446" stop-color="#94c4aa"/>
      <stop offset="1" stop-color="#01a4b6"/>
    </linearGradient>
    <linearGradient id="linear-gradient-2" x1="-0.32" y1="-1.288" x2="0.805" y2="1.143" gradientUnits="objectBoundingBox">
      <stop offset="0" stop-color="#ed277b"/>
      <stop offset="0.019" stop-color="#ee2f7c"/>
      <stop offset="0.704" stop-color="#f7bd81"/>
      <stop offset="1" stop-color="#feeb74"/>
    </linearGradient>
    <linearGradient id="linear-gradient-3" x1="0.509" y1="0.747" x2="0" y2="-0.294" gradientUnits="objectBoundingBox">
      <stop offset="0" stop-color="#89cfbd"/>
      <stop offset="0.091" stop-color="#7dbebb"/>
      <stop offset="0.54" stop-color="#457cac"/>
      <stop offset="0.852" stop-color="#1c5aa2"/>
      <stop offset="1" stop-color="#084d9f"/>
    </linearGradient>
    <linearGradient id="linear-gradient-4" x1="1.193" y1="0.357" x2="-0.23" y2="0.612" gradientUnits="objectBoundingBox">
      <stop offset="0" stop-color="#f04a2b"/>
      <stop offset="0.47" stop-color="#b54f6b"/>
      <stop offset="0.835" stop-color="#8b5191"/>
      <stop offset="1" stop-color="#7851a1"/>
    </linearGradient>
  </defs>
  <g id="Group_12333" data-name="Group 12333" transform="translate(-1668 -2876)">
    <g id="Google_play_button" data-name="Google play button" transform="translate(1668 2876)">
      <path id="Shape" d="M135,35.34c0,3.662-3.013,5.939-7.111,5.939H7.424c-4.1,0-7.424-2.97-7.424-6.633V6.631C0,2.969,3.324,0,7.424,0H127.889A6.778,6.778,0,0,1,135,6.631V35.34Z" transform="translate(0)" fill="#010101"/>
      <path id="Shape-2" data-name="Shape" d="M119.568,35.34c0,3.662-2.669,5.939-6.3,5.939H6.575A6.605,6.605,0,0,1,0,34.646V6.631A6.6,6.6,0,0,1,6.575,0H113.27a6.375,6.375,0,0,1,6.3,6.631V35.34Z" transform="translate(0)" fill="#010101"/>
      <g id="Group" transform="translate(31.389 14.597)">
        <g id="Group-2" data-name="Group" transform="translate(0 0)">
          <path id="Shape-3" data-name="Shape" d="M5,10.221a4.555,4.555,0,0,1-2.829-.829A5.532,5.532,0,0,1,0,4.911,4.7,4.7,0,0,1,1.615,1.22,5.056,5.056,0,0,1,4.872,0,4.145,4.145,0,0,1,7.06.6,3.55,3.55,0,0,1,8.544,2.681L8.55,2.7l-5,2.019-1.637.127A5.8,5.8,0,0,0,3.546,7.994,3.96,3.96,0,0,0,6.293,9.118a5.25,5.25,0,0,0,2.445-.668l.026-.012a.126.126,0,0,1,.04-.012s.007,0,.007,0-.009.023-.035.049l-1.018.959c-.081.044-.163.092-.242.138-.151.088-.307.178-.459.247A4.9,4.9,0,0,1,5,10.221ZM4.273.7a2.416,2.416,0,0,0-1.541.618,3.032,3.032,0,0,0-.9,2.34c0,.236.018.477.037.732.01.128.02.259.027.389L5.763,3.1c.409-.149.617-.278.617-.571A2.114,2.114,0,0,0,4.273.7Z" transform="translate(52.235 5.1)" fill="#fff"/>
          <path id="Shape-4" data-name="Shape" d="M3.685,13.412c0,.826.148.955.846,1.021.364.043.727.061,1.088.105L4.833,15H1.088c.491-.636.575-.7.575-1.123V13.4L1.655.767H0L1.591,0H4.63a1.469,1.469,0,0,0-.941,1.356l0,12.055Z" transform="translate(46.879)" fill="#fff"/>
          <path id="Shape-5" data-name="Shape" d="M4.57,16.2C1.413,16.2,0,14.67,0,13.158a3.045,3.045,0,0,1,1.637-2.593A9.1,9.1,0,0,1,5.67,9.591l.028,0-.045-.057a2.143,2.143,0,0,1-.6-1.391A1.75,1.75,0,0,1,5.235,7.4c.013-.029.025-.058.036-.086l-.038,0c-.216.021-.44.043-.642.043A3.362,3.362,0,0,1,1.061,4.02,3.839,3.839,0,0,1,2.423,1.171,5.8,5.8,0,0,1,6.226,0h4.381L9.247.769H7.927l0,0a3.568,3.568,0,0,1,1.5,2.866A3.592,3.592,0,0,1,7.651,6.655l-.035.035A1.452,1.452,0,0,0,7.056,7.7a1.157,1.157,0,0,0,.536.9l.017.014.769.592c.918.775,1.784,1.507,1.784,2.977C10.161,14.176,8.241,16.2,4.57,16.2Zm1.362-6.011a8.558,8.558,0,0,0-2.23.341,2.394,2.394,0,0,0-1.83,2.19,2.256,2.256,0,0,0,1.018,1.862,4.694,4.694,0,0,0,2.721.733,3.777,3.777,0,0,0,2.328-.654,2.01,2.01,0,0,0,.8-1.641c0-1.112-.753-1.7-2.316-2.809A3.431,3.431,0,0,0,5.932,10.184ZM4.887.7a1.992,1.992,0,0,0-1.488.7,2.442,2.442,0,0,0-.465,1.569c0,1.32.779,3.785,2.655,3.785a2.171,2.171,0,0,0,1.442-.6,2.169,2.169,0,0,0,.534-1.553C7.566,3.015,6.612.7,4.887.7Z" transform="translate(36.828 5.374)" fill="#fff"/>
          <path id="Shape-6" data-name="Shape" d="M5.186,10.179a5.048,5.048,0,0,1-3.86-1.613A5.1,5.1,0,0,1,0,5.166,5.017,5.017,0,0,1,1.54,1.539,5.635,5.635,0,0,1,5.5,0,5.032,5.032,0,0,1,9.217,1.544a5.1,5.1,0,0,1,1.369,3.471,5.2,5.2,0,0,1-1.4,3.522A5.3,5.3,0,0,1,5.186,10.179ZM4.954.66a2.98,2.98,0,0,0-1.915.722A3.216,3.216,0,0,0,2.06,3.976,8.31,8.31,0,0,0,2.9,7.545,3.213,3.213,0,0,0,5.676,9.54,2.7,2.7,0,0,0,7.845,8.459,3.749,3.749,0,0,0,8.483,6.1a8.3,8.3,0,0,0-.775-3.423A3.148,3.148,0,0,0,4.954.66Z" transform="translate(26.391 5.101)" fill="#fff"/>
          <path id="Shape-7" data-name="Shape" d="M5.184,10.179a5.045,5.045,0,0,1-3.86-1.613A5.1,5.1,0,0,1,0,5.166,5.017,5.017,0,0,1,1.541,1.539,5.635,5.635,0,0,1,5.5,0a5.026,5.026,0,0,1,3.71,1.544,5.105,5.105,0,0,1,1.368,3.471,5.206,5.206,0,0,1-1.4,3.522A5.294,5.294,0,0,1,5.184,10.179ZM4.952.66a2.938,2.938,0,0,0-1.912.722,3.215,3.215,0,0,0-.979,2.595A8.306,8.306,0,0,0,2.9,7.545,3.213,3.213,0,0,0,5.675,9.54,2.7,2.7,0,0,0,7.843,8.459,3.768,3.768,0,0,0,8.48,6.1,8.3,8.3,0,0,0,7.7,2.679,3.149,3.149,0,0,0,4.952.66Z" transform="translate(15.081 5.101)" fill="#fff"/>
          <path id="Shape-8" data-name="Shape" d="M13.73,13.67l-2.85.653a20.683,20.683,0,0,1-3.288.343C2.095,14.665,0,10.619,0,7.452,0,3.586,2.968,0,8.049,0A11.681,11.681,0,0,1,11.1.414,7.688,7.688,0,0,1,13.73,1.655L12.074,3.228l-.7.154.5-.792A5.682,5.682,0,0,0,7.609.716C4.465.716,2.093,3.105,2.093,6.6a7.044,7.044,0,0,0,7.051,7.272,5.936,5.936,0,0,0,2.529-.495V10.16l-3.009.161,1.6-.856h4.222l-.517.5a.454.454,0,0,0-.2.318c-.021.182-.04.758-.04.961V13.67Z" transform="translate(0 0.873)" fill="#fff"/>
        </g>
        <g id="Group-3" data-name="Group" transform="translate(66.064 1.502)">
          <path id="Shape-9" data-name="Shape" d="M1.075,14.026H0V.249H1.075V1.817A4.267,4.267,0,0,1,4.541,0,4.129,4.129,0,0,1,7.772,1.411,5.729,5.729,0,0,1,9,5.223,5.766,5.766,0,0,1,7.773,9.038a4.115,4.115,0,0,1-3.232,1.43H4.535A4.234,4.234,0,0,1,1.075,8.612v5.413ZM4.36.971A4.231,4.231,0,0,0,1.075,3.009v4.41A4.266,4.266,0,0,0,4.36,9.5a3.144,3.144,0,0,0,2.581-1.23,4.917,4.917,0,0,0,.908-3.043,4.879,4.879,0,0,0-.908-3.031A3.15,3.15,0,0,0,4.36.971Z" transform="translate(0 3.554)" fill="#fff"/>
          <path id="Shape-10" data-name="Shape" d="M0,13.776V0H1.077V13.776Z" transform="translate(10.472)" fill="#fff"/>
          <path id="Shape-11" data-name="Shape" d="M1.053,12.886a2.517,2.517,0,0,0,.87.166c.657,0,1.116-.27,1.526-1.22l.786-1.777L0,0H1.2L4.833,8.715,8.431,0H9.648L4.481,12.165a2.64,2.64,0,0,1-2.538,1.857,4.278,4.278,0,0,1-1.074-.145l.185-.992Z" transform="translate(22.559 3.803)" fill="#fff"/>
          <path id="Shape-12" data-name="Shape" d="M3.31,10.393a3.49,3.49,0,0,1-2.441-.78A2.732,2.732,0,0,1,0,7.487,2.517,2.517,0,0,1,1.261,5.314,5.762,5.762,0,0,1,4.532,4.48H7.04V3.239a2.092,2.092,0,0,0-.729-1.683A3.137,3.137,0,0,0,4.252.945,3.262,3.262,0,0,0,2.283,1.5a1.7,1.7,0,0,0-.747,1.4H.435L.414,2.841A2.316,2.316,0,0,1,1.452.856,4.517,4.517,0,0,1,4.313,0,4.476,4.476,0,0,1,7.148.845,2.893,2.893,0,0,1,8.221,3.262V8.181a7.791,7.791,0,0,0,.061,1.027A6.521,6.521,0,0,0,8.5,10.2l-1.242,0c-.064-.307-.118-.6-.165-.905a6.109,6.109,0,0,1-.051-.778A4.287,4.287,0,0,1,5.483,9.862,4.331,4.331,0,0,1,3.31,10.393ZM4.519,5.334a4.162,4.162,0,0,0-2.387.642,1.87,1.87,0,0,0-.947,1.551,1.725,1.725,0,0,0,.6,1.367,2.459,2.459,0,0,0,1.653.521,4.063,4.063,0,0,0,2.241-.608A3.081,3.081,0,0,0,7.038,7.249V5.334Z" transform="translate(13.216 3.548)" fill="#fff"/>
        </g>
      </g>
      <g id="Group-4" data-name="Group" transform="translate(31.434 6.647)">
        <path id="Shape-13" data-name="Shape" d="M0,3.479A3.382,3.382,0,0,1,3.529,0a3.145,3.145,0,0,1,2.7,1.391l-.957.554a2.175,2.175,0,0,0-1.745-.9A2.3,2.3,0,0,0,1.21,3.478a2.309,2.309,0,0,0,2.319,2.43,2.421,2.421,0,0,0,1.593-.6V4.265H3.106V3.226H6.291V5.737a3.633,3.633,0,0,1-2.763,1.23A3.4,3.4,0,0,1,0,3.479Z" transform="translate(0 0)" fill="#fff"/>
        <path id="Shape-14" data-name="Shape" d="M0,6.726V0H4.608V1.038H1.18V2.772H4.537V3.811H1.18V5.686H4.608V6.725Z" transform="translate(7.751 0.111)" fill="#fff"/>
        <path id="Shape-15" data-name="Shape" d="M2.036,6.725V1.038H0V0H5.252V1.038H3.216V6.725Z" transform="translate(13.587 0.112)" fill="#fff"/>
        <path id="Shape-16" data-name="Shape" d="M0,6.726V0H1.18V6.726Z" transform="translate(22.939 0.111)" fill="#fff"/>
        <path id="Shape-17" data-name="Shape" d="M2.036,6.725V1.038H0V0H5.252V1.038H3.216V6.725Z" transform="translate(25.366 0.112)" fill="#fff"/>
        <path id="Shape-18" data-name="Shape" d="M3.438,6.957A3.345,3.345,0,0,1,0,3.479,3.345,3.345,0,0,1,3.438,0,3.345,3.345,0,0,1,6.876,3.479,3.345,3.345,0,0,1,3.438,6.957Zm0-5.908A2.234,2.234,0,0,0,1.212,3.479a2.236,2.236,0,1,0,4.455,0A2.233,2.233,0,0,0,3.44,1.049Z" transform="translate(34.427 0)" fill="#fff"/>
        <path id="Shape-19" data-name="Shape" d="M4.687,6.726,1.179,1.917V6.726H0V0H1.21L4.646,4.657V0H5.827V6.726Z" transform="translate(42.681 0.111)" fill="#fff"/>
      </g>
      <g id="Group-5" data-name="Group" transform="translate(5.667 13.268)">
        <path id="Shape-20" data-name="Shape" d="M11.027,11.009l3.45-3.449h0l-3.449,3.449L.018,0h0L11.027,11.011,0,22.036,11.027,11.011l3.465,3.464h0Z" transform="translate(0.656 0.041)" fill="none"/>
        <path id="Shape-21" data-name="Shape" d="M14.457,7.6,1.017.21A1.322,1.322,0,0,0,0,.042L11.009,11.05,14.457,7.6Z" transform="translate(0.674 0)" fill="url(#linear-gradient)"/>
        <path id="Shape-22" data-name="Shape" d="M3.466,6.915,8.053,4.391c.931-.514.931-1.349,0-1.859L3.449,0,0,3.449,3.466,6.915Z" transform="translate(11.683 7.601)" fill="url(#linear-gradient-2)"/>
        <path id="Shape-23" data-name="Shape" d="M.673,0A1.106,1.106,0,0,0,0,1.168L0,20.874a1.114,1.114,0,0,0,.653,1.162L11.683,11.008.673,0Z" transform="translate(0 0.041)" fill="url(#linear-gradient-3)"/>
        <path id="Shape-24" data-name="Shape" d="M0,11.027a1.3,1.3,0,0,0,1.035-.162l13.457-7.4L11.027,0,0,11.027Z" transform="translate(0.656 11.051)" fill="url(#linear-gradient-4)"/>
      </g>
    </g>
  </g>
</svg>
