<svg xmlns="http://www.w3.org/2000/svg" xmlns:xlink="http://www.w3.org/1999/xlink" width="1096.772" height="744.072" viewBox="0 0 1096.772 744.072">
  <defs>
    <linearGradient id="linear-gradient" x1="55.289" y1="-23.087" x2="56.266" y2="-21.729" gradientUnits="objectBoundingBox">
      <stop offset="0.01" stop-color="#e56a93"/>
      <stop offset="0.38" stop-color="#b86c9c"/>
      <stop offset="1" stop-color="#1c75bc"/>
    </linearGradient>
    <linearGradient id="linear-gradient-2" x1="41.973" y1="-44.933" x2="41.62" y2="-43.81" gradientUnits="objectBoundingBox">
      <stop offset="0.01" stop-color="#48c4ef"/>
      <stop offset="1" stop-color="#27aae1"/>
    </linearGradient>
    <linearGradient id="linear-gradient-3" x1="21.871" y1="-75.496" x2="22.405" y2="-72.942" xlink:href="#linear-gradient"/>
    <linearGradient id="linear-gradient-4" x1="34.431" y1="-44.436" x2="33.942" y2="-43.639" xlink:href="#linear-gradient-2"/>
  </defs>
  <g id="Group_13050" data-name="Group 13050" transform="translate(-4948.96 6911.43)">
    <path id="Path_10957" data-name="Path 10957" d="M448.374,418.2c.245.073,1.1.465,1.1.073.232-.391.232-.391.709-.55h.306a3.667,3.667,0,0,0,1.223.159.9.9,0,0,0,.783-.086c.391-.391-1.1-1.565-1.333-1.883-2.03-2.116-8.315-6.041-10.749-7.692-2.9-1.969-5.87-3.852-9.012-5.576-4.084-2.592-8.156-5.1-12.326-7.606-17.56-10.761-34.349-22.231-51.53-33.53-11.531-7.618-22.83-15.628-34.117-23.564-4.781-3.289-9.783-6.75-14.747-9.783,1.8,1.651,3.669,3.387,5.491,5.111,25.68,21.045,51.848,40.439,79.142,59.356,10.2,6.995,21.18,14.295,31.928,20.336l1.015.477a51.553,51.553,0,0,0,5.491,2.666,42.467,42.467,0,0,0,4,1.651c.086,0,.086.073.159.073.55.159,1.027.4,1.577.55h.159c.232.086.7.232.624-.073a.073.073,0,0,0,.073-.073Z" transform="translate(4630.28 -6981.192)" fill="#fff"/>
    <path id="Path_10958" data-name="Path 10958" d="M817.891,568.955c.257,0,1.223,0,1.039-.391,0-.465,0-.465.391-.807l.281-.134a3.448,3.448,0,0,0,1.223-.4.88.88,0,0,0,.672-.4c.184-.526-1.675-.942-2.018-1.137-2.751-1.027-10.1-1.859-13.011-2.311-3.461-.514-6.958-.942-10.541-1.15-4.781-.575-9.55-1.088-14.393-1.565-20.483-2.14-40.561-5.258-60.922-8.059-13.684-1.908-27.33-4.268-40.928-6.567-5.735-.917-11.764-1.871-17.536-2.507,2.336.709,4.781,1.455,7.154,2.238,32.271,7.912,64.187,14.173,96.959,19.492,12.228,1.908,25.264,3.779,37.553,4.6h1.137a50.857,50.857,0,0,0,6.114,0,41.427,41.427,0,0,0,4.317-.232h.171c.563-.1,1.088-.086,1.663-.183h.134c.245,0,.734-.1.538-.343v-.11Z" transform="translate(4706.817 -6933.204)" fill="#fff"/>
    <path id="Path_10959" data-name="Path 10959" d="M972.641,531.754c.245-.086,1.162-.318.917-.624a.868.868,0,0,1,.208-.868l.245-.2a3.508,3.508,0,0,0,1.076-.648c.245-.086.55-.33.575-.55.061-.55-1.834-.55-2.213-.648-2.91-.4-10.272.428-13.194.636-3.5.269-7.007.636-10.529,1.223-4.806.5-9.562,1.064-14.38,1.687-20.446,2.446-40.72,3.913-61.2,5.723-13.757,1.223-27.575,1.932-41.356,2.727-5.8.391-11.874.807-17.646,1.467,2.446.171,4.989.355,7.472.587,33.224.526,65.727-.5,98.854-2.617,12.338-.856,25.472-1.969,37.639-3.9.355-.073.746-.2,1.1-.257a53.2,53.2,0,0,0,5.955-1.321,42.186,42.186,0,0,0,4.158-1.223c.061-.061.11,0,.183,0,.526-.22,1.039-.318,1.565-.538l.122-.1c.232-.086.7-.257.453-.452a.086.086,0,0,0,0-.11Z" transform="translate(4740.91 -6936.637)" fill="#fff"/>
    <path id="Path_10960" data-name="Path 10960" d="M1209.137,485.762c.147-.086.783-.4.465-.709a1.222,1.222,0,0,1-.073-.868c.073-.073.073-.159.159-.232a3.089,3.089,0,0,0,.624-.795c.074-.147.318-.391.232-.624-.159-.477-1.406-.232-1.81-.232-2.03,0-7.679,1.957-9.562,2.592a62.155,62.155,0,0,0-7.606,2.825c-3.534,1.223-7.056,2.592-10.59,4-15.775,6.114-31.61,11.385-47.458,17.12-11.446,4.158-22.977,7.936-34.508,11.862-4.891,1.724-10.2,3.607-15.139,5.65,2.275-.391,4.549-.856,6.823-1.223,27.526-7.068,54.429-14.833,81.575-23.393a268.813,268.813,0,0,0,27.844-10.052,6.647,6.647,0,0,0,.783-.391,45.237,45.237,0,0,0,6.823-3.925c.086-.086.086-.086.159-.086.318-.232.709-.465,1.015-.709l.086-.147c.159-.159.391-.391.159-.55V485.8Z" transform="translate(4800.792 -6946.858)" fill="#fff"/>
    <path id="Path_10961" data-name="Path 10961" d="M1124.827,475.137c.245-.159.465-.318.318-.636a1.5,1.5,0,0,1-.159-.856.256.256,0,0,1,.086-.159c.147-.232.379-.465.379-.709a1.662,1.662,0,0,0,.159-.624c-.232-.477-1.088-.391-1.479-.391-1.663-.159-5.491,1.223-7.141,1.639a39.464,39.464,0,0,0-5.49,2.054c-2.507.856-5.1,1.8-7.618,2.739-11.213,4.4-22.341,7.545-33.714,11.311-8.01,2.592-16.08,4.708-24.09,7.068-3.522,1.015-7.129,2.115-10.516,3.448,1.578-.073,3.143-.232,4.708-.306a559.772,559.772,0,0,0,57.9-12.73A140.17,140.17,0,0,0,1118.481,480l.55-.318a22.611,22.611,0,0,0,2.972-1.724,10.859,10.859,0,0,0,1.883-1.492h.085c.073-.086.783-.624.783-.624v-.122c.159-.159.318-.318.073-.477v-.073Z" transform="translate(4790.027 -6949.196)" fill="#fff"/>
    <path id="Path_10962" data-name="Path 10962" d="M409.039,220.725c-2.984.379-1.394.636-9.624.636s-24.567-.819-26.34-4.7c-4.048.575-28.125,3.241-28.125-5.124,0-2.666,13.17-8.438,21.656-8.5-2.788-11.6,7.973-20.788,19.113-15.212,3.485-5.76,10.516-9.7,18.685-9.7a22.732,22.732,0,0,1,16.019,6.334c4.3-5.7,11.9-9.428,20.446-9.428,13.451,0,24.371,9.183,24.371,20.654a14.141,14.141,0,0,1-.061,1.577h.061c24.567,0,44.438,4.255,44.438,9.514s-19.871,9.563-44.438,9.563h0c-.44,4.952-13.794,9-30.192,9-11.079,0-20.788-1.834-26.022-4.622Z" transform="translate(4636.135 -7015.313)" fill="#dbf0fc" fill-rule="evenodd"/>
    <path id="Path_10963" data-name="Path 10963" d="M651.845,145.88c-28.785,0-52.215,4.243-52.215,9.526s23.43,9.452,52.215,9.452h0c.575,5.038,16.178,9.049,35.377,9.049,17.866,0,32.638-3.436,35.083-7.924a79.619,79.619,0,0,0,9.037.477c11.666,0,21.155-2.446,21.155-5.527s-9.391-5.527-20.972-5.527a11.666,11.666,0,0,0,4.806-9.049c0-7.618-8.755-13.7-19.565-13.7a25.582,25.582,0,0,0-10.81,2.238c-4.806-6.652-14.393-11.3-25.5-11.3-15.811,0-28.6,9.294-28.6,20.666a8.956,8.956,0,0,0,.1,1.614Z" transform="translate(4692.887 -7026.775)" fill="#dbf0fc" fill-rule="evenodd"/>
    <path id="Path_10964" data-name="Path 10964" d="M995.636,166.564c-27.661,0-50.136,4.561-50.136,10.247s22.5,10.15,50.136,10.15h0c.55,5.429,15.542,9.783,33.982,9.783,17.12,0,31.378-3.669,33.726-8.56a68.2,68.2,0,0,0,8.67.514c11.214,0,20.336-2.666,20.336-5.943s-9.037-5.931-20.152-5.931a13.047,13.047,0,0,0,4.61-9.783c0-8.169-8.4-14.674-18.807-14.674a22.428,22.428,0,0,0-10.394,2.446c-4.61-7.154-13.83-12.143-24.456-12.143-15.188,0-27.477,9.991-27.477,22.207a10.169,10.169,0,0,0,.1,1.724Z" transform="translate(4769.959 -7022.525)" fill="#dbf0fc" fill-rule="evenodd"/>
    <path id="Path_10967" data-name="Path 10967" d="M1005.54,116.85l79.484,17.5,2.274,17.45-7.618-14.234Z" transform="translate(4783.338 -7028.28)" fill="#e4e5da" fill-rule="evenodd"/>
    <path id="Path_10968" data-name="Path 10968" d="M1061.59,138.669l5.6-4.879,7.618,14.234Z" transform="translate(4795.827 -7024.506)" fill="#cdcebe" fill-rule="evenodd"/>
    <path id="Path_10969" data-name="Path 10969" d="M1111.135,161.01l-.379-.147-.306-.147-.379-.147-.355-.073-.318-.159-.367-.135-.379-.147-.294-.086-.379-.135-.367-.147-.293-.1-.379-.135-.379-.147-.575,1.529.379.147.293.086.379.147.367.135.293.1.379.134.306.147.367.086.367.147.306.147.379.135.293.1.379.134.306.159Zm33.384,199.885.232-.293.22-.367.232-.293.22-.367.159-.281-1.467-.832-.159.281-.232.293-.22.367-.232.293-.22.355-.232.306Zm2.813-4.488.22-.355.22-.367.208-.416.22-.367.22-.355.135-.416.22-.367.22-.355.22-.416.208-.367.147-.416.11-.147-1.59-.685v.135l-.208.428-.22.355-.147.355-.208.416-.22.367-.22.355-.147.355-.208.428-.22.355-.22.367-.147.342h-.073Zm3.791-7.337.147-.416.208-.428.2-.428.147-.4.208-.428.134-.416.22-.428.135-.416.208-.416.122-.477.171-.293-1.638-.55-.086.281-.22.428-.134.416-.208.416-.135.416-.208.428-.147.416-.208.416-.135.416-.208.428-.159.355v.073Zm3.106-7.741.122-.477.208-.428.122-.477.147-.416.135-.477.2-.489.134-.416.122-.477.135-.477.134-.416-1.614-.416-.147.342-.122.489-.135.477-.208.416-.122.477-.147.416-.122.477-.208.428-.134.477-.135.416-.122.147Zm2.446-7.912.122-.477.122-.489.134-.477.135-.477.122-.477.122-.477.135-.477.122-.477.135-.489v-.2l-1.663-.342v.134l-.122.477-.122.477-.135.477-.11.55-.147.416-.135.477-.122.477-.135.477-.122.477-.1.269Zm1.969-7.777.122-.477.122-.538v-.477l.11-.538.134-.477.122-.55.061-.465.122-.477.122-.538v-.134l-1.663-.281v.147l-.122.477v.526l-.135.477-.122.477v.538l-.134.477-.122.477-.122.538v.611Zm1.626-8.12v-.526l.135-.477v-1.064l.122-.477v-.538l.122-.538v-1l-1.724-.208v1l-.134.477v1.064l-.135.477v.526l-.11.55v.734Zm1.223-8.3.061-.538v-.526l.122-.55v-.526l.061-.538v-1.724l-1.712-.135v2.25l-.122.55v2.054Zm.758-7.924v-4.561l-1.687-.086v3.974l-.061.538v.318Zm.453-8.01v-4.732h-1.749v4.806Zm0-8.01V280.4h-1.749v4.842h0Zm-.379-8.4v-1.052l-.085-.514v-1.039l-.086-.514v-.526l-.085-.5v-.4l-1.736.122v.465l.085.514v.526l.086.5v.991l.085.5V277l.061.318Zm-.844-8.217v-.526l-.1-.5-.073-.452-.085-.514-.086-.514-.085-.514v-.526l-.074-.44-.073-.452-1.712.257v.379l.1.514v.526l.086.514.085.452.073.5.1.514.086.514v.452l.074.452Zm-1.223-7.948-.085-.514-.074-.44-.159-.514-.085-.5-.073-.452-.159-.5-.073-.452-.086-.514-.147-.44v-.122l-1.7.318v.122l.159.5.073.452.085.514.147.44.085.5.073.452.147.44.085.514.086.514v.318Zm-1.859-8.059-.159-.5-.134-.44-.147-.44-.159-.44-.085-.514-.135-.44-.147-.428-.147-.44-.147-.44-.11-.245-1.6.489v.2l.147.44.147.44.147.428.135.44.147.452.085.5.147.44.147.44.147.44.073.452Zm-2.446-7.582-.147-.44-.208-.428-.147-.44-.2-.452-.22-.428-.122-.367-.22-.428-.147-.44-.2-.367-.146-.44-.11-.245-1.639.636.11.245.208.367.135.44.208.367.147.428.208.44.134.367.147.44.208.428.135.379.147.428.1.183Zm-3.326-7.594-.4-.721-.318-.673-.391-.66-.4-.673-.318-.673-.4-.66-.1-.183-1.541.819.1.183.391.6.391.66.33.673.391.66.318.673.391.673.11.183ZM1148.4,230.3l-.453-.6-.391-.6-.44-.587-.44-.526-.452-.6-.379-.526-.428-.465-1.37.99.342.4.452.526.453.6.367.538.452.587.367.538.453.587.1.183Zm-5.368-6.554-.5-.526-.44-.465-.489-.452-.452-.526-.489-.452-.489-.379-.489-.452-.183-.245-1.223,1.223.171.171.489.379.489.452.44.465.428.465.489.452.44.465.428.465.159.1Zm-6.3-5.711-.489-.391-.477-.391-.562-.379-.489-.379-.538-.318-.477-.318-.55-.379-.477-.33h-.073l-.966,1.321h.086l.477.33.464.318.551.318.477.33.477.318.489.391.465.318.489.391.159.11Zm-7.239-4.647-.526-.257-.55-.318-.526-.245-.538-.257-.526-.183-.526-.245-.538-.257-.513-.183-.465-.2-.648,1.541.44.135.464.2.526.245.526.183.538.257.526.245.465.269.538.245.526.257h.073Zm-8.058-3.289-.5-.122-.6-.171-.5-.122-.6-.183-.5-.122-.587-.11-.514-.122-.514-.122-.575-.11h-.208l-.293,1.553h.22l.513.135h.5l.5.122.514.122.514.122.514.122.587.171.514.122.526.2h0Zm-8.695-1.675h-5.172v1.639h.893l.514.061h3.583l.086.061Zm-8.878.122h-.55l-.477.073h-.477l-.55.086-.465.134-.477.073-.55.073-.477.135-.465.073-.477.134h-.061l.477,1.565h0l.465-.135.477-.073.465-.122.477-.073.477-.073.477-.135.477-.073.477-.073h1.174Zm-8.756,2.005-.4.122-.452.2-.465.2-.465.135-.452.2-.391.2-.452.2-.391.183-.453.269-.379.183-.2.1.856,1.382.135-.086.391-.183.453-.208.391-.183.379-.183.391-.2.465-.2.391-.122.465-.2.391-.122.465-.2.257-.11Zm-7.484,3.779-.379.257-.379.257-.379.245-.367.318-.306.245-.367.318-.379.245-.294.306-.379.318-.293.306-.294.306-.183.159,1.223,1.137.171-.159.306-.306.293-.306.318-.245.293-.306.306-.245.367-.318.306-.232.318-.245.379-.257.379-.257.306-.245h.073Zm-6.408,6.114-.281.367-.22.367-.293.367-.208.355-.22.367-.22.355-.22.367-.22.355-.208.428-.147.355-.208.416v.073l1.651.611v-.061l.22-.355.147-.355.22-.367.147-.342.22-.367.22-.355.159-.293.22-.355.22-.367.232-.293.281-.367.122-.147Zm-3.669,7.753-.134.416v.477l-.073.4v.465l-.073.4v.465l-.073.416v1.516l1.7.086v-.991l.073-.416v-.856l.073-.4.073-.4v-.4l.147-.416.073-.4.085-.342Zm-.514,8.156.1.514.073.44.085.514.073.452.1.514.147.5.086.452.147.5.159.5v.318l1.663-.514V240.3l-.135-.44-.147-.44-.085-.514-.147-.44-.085-.44-.086-.514-.073-.452-.073-.452-.086-.44v-.2Zm2.274,7.936.232.562.22.489.232.489.293.55.232.489.306.55.306.538.281.489.1.183,1.492-.746-.1-.183-.232-.489-.293-.55-.293-.477-.22-.489-.293-.489-.232-.489-.232-.562-.208-.428v-.2Zm4.195,7.337.379.526.367.538.44.526.44.526.44.526.452.6.44.514h0l1.37-.978h0l-.44-.526-.44-.526-.44-.526-.44-.526-.367-.538-.367-.538-.379-.538-.171-.171Zm5.454,6.481.514.587.6.563.5.514.587.575.587.575.587.562h.073l1.137-1.137h0l-.587-.575-.587-.514-.514-.575-.575-.514-.526-.575-.5-.514-.245-.232Zm6.579,6.114.66.563.734.611.721.55.721.55.5.452,1.113-1.284-.562-.44-.734-.55-.648-.55-.66-.562-.709-.489-.587-.575Zm6.444,4.965.636.428.562.44.636.428.636.44.624.367.636.428.159.11.966-1.321-.159-.11-.623-.367-.563-.44-.636-.428-.624-.379-.562-.44-.636-.428-.33-.281Zm7.337,4.891.636.367.612.306.55.379.611.294.624.379.538.306.306.159.893-1.382-.306-.147-.55-.318-.624-.367-.611-.306-.55-.379-.612-.306-.55-.379-.611-.293Zm7.117,3.876.6.245.611.306.538.245.6.245.526.245.611.245.587.232.538.257.66-1.48-.526-.245-.526-.183-.6-.245-.538-.257-.538-.245-.611-.306-.526-.245-.611-.306h-.159Zm7.985,3.289.6.245.526.183.587.183.526.183.575.11.526.2.587.171.514.122.44.135.44-1.577-.367-.073-.6-.183-.5-.122-.526-.183-.526-.183-.514-.122-.587-.183-.526-.183-.514-.183h-.147Zm8.743,2.446.514.122.5.061.514.122h.563l.514.122h1l.5.061.489.061h.159l.208-1.663h-.147l-.5-.061-.5-.061-.489-.061h-.5l-.5-.061-.514-.122-.44-.073-.5-.122h-.575l-.367-.135Zm8.646.966h2.861l.489-.073h.477l.489-.073h.624l-.208-1.614h-5.087Zm8.829-.77.477-.073.4-.122.489-.073.391-.122.465-.122.416-.061.4-.122.465-.134.391-.135.4-.122.4-.122-.55-1.565-.4.122-.4.134-.391.122-.4.122-.391.122-.4.122-.416.061-.465.135-.4.061-.4.122-.4.061-.416.061Zm8.315-2.654.379-.2.391-.183.391-.2.391-.183.391-.183.318-.183.367-.245.391-.2.379-.245.33-.183.367-.257.2-.086-1-1.37-.184.159-.318.183-.391.183-.306.245-.318.171-.391.2-.318.171-.391.2-.318.245-.391.122-.391.183-.318.183-.318.171Zm7.166-4.4.306-.245.293-.306.318-.245.293-.306.379-.245.306-.306.306-.245.293-.306.232-.294.293-.318.318-.245.294-.293V273.4l-1.321-1.125v.073l-.22.294-.294.318-.318.232-.232.306-.293.306-.306.232-.306.245-.306.306-.306.245-.245.232-.306.245-.294.306h-.073Zm6.114-6.273.232-.293.22-.355.293-.306.22-.367.22-.355.22-.367.281-.367.232-.306.22-.355.22-.355.208-.428v-.147l-1.541-.758v.147l-.22.355-.22.355-.22.367-.232.293-.22.367-.22.355-.22.293-.22.367-.232.294-.22.367-.232.294-.183.159Zm4.3-7.264.208-.355.147-.416.208-.416.147-.355.147-.416.2-.428.147-.416.147-.4.134-.428.135-.4.1-.281-1.626-.489-.086.281-.147.416-.134.416-.159.342-.134.416-.147.416-.147.355-.208.416-.147.355-.147.416-.208.355-.1.281Zm2.788-7.887.074-.4.122-.477.074-.4.134-.477v-.465l.073-.4.122-.477v-.477l.073-.465v-.4l-1.712-.22-.061.416-.073.465v.868l-.147.416v.477l-.073.4-.135.416v.465l-.073.4-.147.355Zm1.223-7.716.061-.477v-4.476h-1.663l-.073.073v3.754l-.073.465v.465h0Zm0-8.279v-1.039l-.073-.452v-.526l-.086-.5v-.526l-.1-.514-.073-.452-.085-.5v-.33l-1.712.257v.245l.085.514.1.514.073.452v.526l.086.44v.526l.085.514v.465l.086.5v.086Zm-1.113-8.168-.086-.514-.159-.5-.086-.514-.147-.5-.11-.575-.147-.5-.159-.5-.086-.514-.171-.562h0l-1.675.44h0l.159.5.086.514.147.5.171.5.085.5.147.514.1.514.147.5.086.514v.122Zm-2.226-8.144-.135-.367-.122-.318-.122-.306-.135-.379-.122-.306-.135-.379-.122-.306-.122-.306-.134-.379-.122-.306-.122-.318-.135-.367-.2-.306-1.577.624.135.306.122.318.122.306.122.318.208.355.122.318.122.306v.318l.122.318.134.367.122.318.122.306.122.306.135.379Zm-3.179-7.606-.147-.367-.184-.306-.122-.306-.2-.367-.2-.306-.122-.306-.208-.367-.122-.306-.2-.306-.184-.294-.208-.367-.122-.306-.171-.245-1.492.746.11.245.2.294.122.318.2.294.2.367.122.318.2.293.183.306.122.306.208.367.122.306.2.306.122.306.122.318Zm-3.876-7.1-.2-.306-.183-.293-.208-.367-.257-.293-.2-.306-.184-.293-.208-.367-.2-.293-.184-.306-.269-.294-.184-.293-.208-.367-.183-.306h-.085l-1.443.929h0l.2.355.2.306.2.293.257.293.2.306.183.294.2.306.184.294.208.367.2.306.183.293.2.306.2.293.073.061Zm-4.891-7.092-.2-.367-.269-.293-.184-.294-.257-.293-.257-.281-.281-.477-.257-.294-.257-.293-.2-.294-.257-.293-.281-.355-.257-.293h0l-1.37.99h0l.257.293.269.294.183.293.257.294.269.293.183.293.269.293.257.355.2.306.257.281.2.306.257.281.2.306Zm-5.124-6.273-.269-.281-.257-.306-.257-.281-.257-.293-.257-.293-.269-.281-.257-.293-.257-.294-.257-.22-.257-.293-.257-.293-.33-.269-.183-.245-1.223,1.039.183.245.318.281.257.281.269.293.257.293.257.294.269.281.245.232.257.281.269.293.245.293.269.293.257.281h0Zm-5.894-6.224-.318-.22-.269-.294-.318-.269-.257-.294-.269-.293-.318-.22-.257-.281-.33-.281-.257-.293-.318-.208-.257-.293-.33-.281h-.073l-1.223,1.162.085.061.318.281.269.281.318.22.257.293.257.293.318.208.257.293.33.281.244.22.257.293.342.281.257.293.159.11Zm-6.2-5.527-.257-.293-.33-.281-.318-.208-.257-.293-.318-.208-.33-.281-.318-.22-.33-.281-.244-.22-.33-.281-.318-.22-.318-.281-.159-.11-1.125,1.223.159.171.318.208.33.281.318.22.257.22.318.281.318.22.33.281.257.22.318.281.318.22.269.281.306.22.085.061Zm-6.811-5.429-.318-.281-.33-.22-.306-.22-.33-.269-.318-.22-.318-.22-.318-.208-.391-.269-.318-.22-.318-.22-.318-.208-.318-.22h0l-1.04,1.333h0l.318.208.33.281.379.208.318.22.318.208.33.22.306.208.33.294.318.208.318.22.244.22.33.281.306.159Zm-6.909-4.769-.318-.208-.306-.22-.318-.22-.391-.208-.318-.208-.318-.22-.318-.22-.379-.2-.318-.22-.318-.22-.379-.208-.318-.147-.232-.159-.881,1.37.147.11.391.208.318.22.318.208.379.208.306.159.318.208.318.22.318.208.391.208.306.22.318.22.318.208h.159Zm-7.422-4.488-.306-.22-.379-.134-.318-.22-.318-.22-.379-.134-.318-.22-.379-.208-.306-.147-.379-.208-.318-.147-.379-.208-.306-.159-.232-.1-.807,1.431.171.11.367.147.306.147.391.208.293.159.391.2.318.22.306.147.391.208.306.159.379.2.306.159.318.208.22.11Zm-7.594-3.938-.318-.159-.379-.208-.306-.147-.379-.147-.379-.134-.306-.22-.379-.147-.306-.147-.379-.147-.367-.135-.306-.147-.379-.147-.306-.159-.721,1.492.281.086.379.147.306.147.391.208.367.147.306.147.379.147.306.147.379.147.293.147.391.208.306.147.379.147.159.11Z" transform="translate(4799.269 -7018.819)" fill="#e2e2d3"/>
    <path id="Path_10970" data-name="Path 10970" d="M1136.283,399.768a3.253,3.253,0,1,0-2.152-4,3.082,3.082,0,0,0,2.152,4Z" transform="translate(4811.954 -6966.652)" fill="#fefefe"/>
    <path id="Path_10971" data-name="Path 10971" d="M1140.508,395.693l.1-.856a8.387,8.387,0,0,1,3.668-4.891c2.25-1.516,4.5-3.033,5.356-5.845.856-3.241-.636-6.811-5.564-8.217a14.2,14.2,0,0,0-6.75-.1l.22,3.889a8.463,8.463,0,0,1,4.39-.11c2.238.758,2.886,2.164,2.446,3.779s-1.822,2.7-3.852,4.109a9.5,9.5,0,0,0-4.182,5.955l-.208,1.076Z" transform="translate(4812.438 -6970.66)" fill="#fefefe"/>
    <path id="Path_10972" data-name="Path 10972" d="M1145.042,402.007a3.032,3.032,0,0,0,4.39-.868,3.277,3.277,0,0,0-.746-4.549,3.18,3.18,0,0,0-4.5.978,3.118,3.118,0,0,0,.856,4.439Z" transform="translate(4814.104 -6966.066)" fill="#fefefe"/>
    <path id="Path_10973" data-name="Path 10973" d="M1151.131,399.488l.416-.758a7.9,7.9,0,0,1,5.038-3.351c2.568-.66,5.246-1.406,6.958-3.9,1.822-2.7,1.6-6.481-2.678-9.4a12.78,12.78,0,0,0-6.31-2.384l-.978,3.791a7.2,7.2,0,0,1,4.072,1.3c1.932,1.406,2.14,2.923,1.223,4.439-.966,1.3-2.678,1.944-4.891,2.592-3,.856-4.891,2.262-5.894,4.207l-.526.978Z" transform="translate(4814.985 -6969.71)" fill="#fefefe"/>
    <path id="Path_10974" data-name="Path 10974" d="M535.672,398.711c6.885,39.705-6.346,78.262,23.161,114.494,19.859,23.98,61.142,49.121,91.615,45.184a105.745,105.745,0,0,0,10.9-2.446,252.959,252.959,0,0,0,12.4,25.1,396.4,396.4,0,0,0,22.1,36.93l9.991-8.059c-7.618-11.458-14.98-23.43-21.583-35.67-4.378-8.279-8.425-16.5-12.228-24.872a29.58,29.58,0,0,0,3.2-4.476,153.369,153.369,0,0,0,11.409-24.2,191.432,191.432,0,0,0,8.181-31.329c11.727-71.78-10.174-88.509-54.881-120.975-33.3-24.591-29.348-57.327-38.9-86.956-11.2-36.037-71.022-65.128-95.076-17.853a83.63,83.63,0,0,0,6.444,87.4c8.022,11.128,20.593,34.093,23.234,47.691Zm3.277-120.572A1933.287,1933.287,0,0,0,633,501.21C591.654,434.125,560.3,352.329,538.949,278.14Z" transform="translate(4669.925 -7001.069)" fill-rule="evenodd" fill="url(#linear-gradient)"/>
    <path id="Path_10975" data-name="Path 10975" d="M515.892,428.993c29.85,5.931,58.549-6.591,85.831,19.993,18.012,17.743,37.419,54.759,34.606,82.615a106.8,106.8,0,0,1-1.9,10.8c8.328,5.906,16.386,12.339,24.237,18.942,10.663,9.1,20.923,18.514,30.706,28.615l-8.56,9.917c-9.514-9.66-19.419-19-29.788-27.648-7.508-6.53-15.775-12.815-23.894-18.88l-.6.477a97.518,97.518,0,0,1-17.841,10.81,141.077,141.077,0,0,1-23.491,7.826c-53.4,11.287-66.315-8.413-91.224-48.84-18.416-29.776-32.136-18.5-54.331-26.67-22.011-7.961-43.777-52.851-26.9-75.266,3.143-4.1,8.01-7.863,12.412-10.932,20.959-13.207,46.113-11.323,65.409,5.111,8.487,7.1,15.029,10.712,25.337,13.084Zm-79.973,11.482a1382.861,1382.861,0,0,1,177.446,93.583c-52.986-40.72-118.163-72.025-177.409-93.571Z" transform="translate(4649.901 -6964.731)" fill-rule="evenodd" fill="url(#linear-gradient-2)"/>
    <path id="Path_10976" data-name="Path 10976" d="M1141.706,556.856c-32.784,4.83-64.236-6.848-94.623,16.68-20.14,15.9-41.662,49.231-39.057,74.422a88.915,88.915,0,0,0,1.761,9A210.747,210.747,0,0,0,988.9,666.63a330.534,330.534,0,0,0-30.84,17.425l6.432,8.376c9.575-6.029,19.565-11.837,29.776-17.01,6.9-3.424,13.732-6.591,20.7-9.563a24.69,24.69,0,0,0,3.669,2.727,126.511,126.511,0,0,0,19.688,9.954,156.227,156.227,0,0,0,25.594,7.337c58.769,11.14,72.979-6.53,100.6-42.628,20.923-26.9,47.752-22.965,72.319-30.2,29.849-8.462,55.027-57.07,16.643-77.834a68.8,68.8,0,0,0-72,3.5c-9.318,6.371-28.468,16.227-39.73,18.122Zm99.05,5.185a1588.536,1588.536,0,0,0-185.37,72.734C1111.392,602.163,1179.308,578.06,1240.755,562.041Z" transform="translate(4772.757 -6936.952)" fill-rule="evenodd" fill="url(#linear-gradient-3)"/>
    <path id="Path_10977" data-name="Path 10977" d="M1157.631,514.956c-6.677,29.691,5.124,58.7-22.146,85.305-18.184,17.56-55.676,36.037-83.446,32.515a107.051,107.051,0,0,1-10.749-2.152c-6.114,8.169-12.742,16.068-19.565,23.747-9.355,10.443-19.027,20.446-29.348,30l-9.7-8.768c9.893-9.269,19.48-18.942,28.394-29.091,6.713-7.337,13.194-15.444,19.455-23.417l-.453-.611a96.749,96.749,0,0,1-10.406-18.2,141.862,141.862,0,0,1-7.239-23.686c-9.929-53.67,10.089-66.033,51.115-89.976,30.229-17.658,19.309-31.659,28.04-53.646,8.56-21.852,53.915-42.445,75.9-24.97,4.011,3.24,7.655,8.193,10.6,12.669,12.681,21.29,10.162,46.394-6.738,65.275-7.337,8.3-11.091,14.76-13.72,25.007Zm-9.477-80.206a1386.2,1386.2,0,0,1-97.974,175.025c42.029-51.958,74.948-116.341,97.974-175.024Z" transform="translate(4778.244 -6963.971)" fill-rule="evenodd" fill="url(#linear-gradient-4)"/>
    <path id="Path_10978" data-name="Path 10978" d="M908.676,655.33c249.141,0,450.994,19.223,450.994,42.8s-201.854,42.8-450.994,42.8-451.006-19.223-451.006-42.8c0-6.75,16.679-13.158,46.187-18.881-9.294-.9-15.665-2.813-15.665-4.891,0-3.045,12.84-5.515,28.773-5.515,13.317,0,24.457,1.688,27.8,4.048C626.825,662.263,759.283,655.33,908.676,655.33Z" transform="translate(4661.252 -6908.287)" fill="#875a3f" fill-rule="evenodd" opacity="0.1"/>
    <rect id="Rectangle_24651" data-name="Rectangle 24651" width="617.85" height="487.08" transform="translate(5253.532 -6713.355)" fill="#dfe4f7"/>
    <path id="Path_10979" data-name="Path 10979" d="M640.668,312.17h452.364a28.969,28.969,0,0,1,28.688,28.969V464.817a28.969,28.969,0,0,1-28.688,28.981H640.668a28.993,28.993,0,0,1-28.8-28.981V341.139a28.994,28.994,0,0,1,28.8-28.969Z" transform="translate(4695.613 -6984.756)" fill="#fff" fill-rule="evenodd"/>
    <path id="Path_10980" data-name="Path 10980" d="M587.768,215.084h577.827c10.92,0,20.018,9.306,20.018,20.788v57.192H567.75V235.848c0-11.458,9-20.788,20.018-20.788Z" transform="translate(4685.782 -7006.396)" fill="#274072" fill-rule="evenodd"/>
    <path id="Path_10981" data-name="Path 10981" d="M629.212,240.55A10.211,10.211,0,1,1,622,243.58,10.272,10.272,0,0,1,629.212,240.55Zm81.355,0A10.272,10.272,0,1,1,700.3,250.822a10.272,10.272,0,0,1,10.272-10.272Zm-40.672,0a10.272,10.272,0,1,1-10.272,10.272A10.272,10.272,0,0,1,669.9,240.55Z" transform="translate(4697.214 -7000.716)" fill="#fff" fill-rule="evenodd"/>
    <path id="Path_10982" data-name="Path 10982" d="M678.012,483.007a49.953,49.953,0,0,1,49.659,50.136c0,27.783-22.256,50.271-49.659,50.271a50.222,50.222,0,1,1,0-100.444Z" transform="translate(4699.21 -6946.97)" fill="#fff" fill-rule="evenodd"/>
    <path id="Path_10983" data-name="Path 10983" d="M828.662,483.007a49.953,49.953,0,0,1,49.672,50.136c0,27.783-22.268,50.271-49.672,50.271a50.222,50.222,0,0,1,0-100.444Z" transform="translate(4732.731 -6946.695)" fill="#fff" fill-rule="evenodd"/>
    <path id="Path_10984" data-name="Path 10984" d="M979.212,483a50.222,50.222,0,1,1,0,100.444c-27.4,0-49.672-22.488-49.672-50.271a49.953,49.953,0,0,1,49.672-50.136Z" transform="translate(4766.402 -6946.688)" fill="#fff" fill-rule="evenodd"/>
    <rect id="Rectangle_24652" data-name="Rectangle 24652" width="141.299" height="8.535" transform="translate(5307.484 -6297.945)" fill="#b7c0e2"/>
    <rect id="Rectangle_24653" data-name="Rectangle 24653" width="96.873" height="8.535" transform="translate(5307.484 -6281.731)" fill="#b7c0e2"/>
    <rect id="Rectangle_24654" data-name="Rectangle 24654" width="141.299" height="8.535" transform="translate(5307.484 -6315.029)" fill="#b7c0e2"/>
    <rect id="Rectangle_24655" data-name="Rectangle 24655" width="141.286" height="8.535" transform="translate(5491.814 -6297.945)" fill="#b7c0e2"/>
    <rect id="Rectangle_24656" data-name="Rectangle 24656" width="96.763" height="8.535" transform="translate(5491.814 -6281.731)" fill="#b7c0e2"/>
    <rect id="Rectangle_24657" data-name="Rectangle 24657" width="141.286" height="8.535" transform="translate(5491.814 -6315.029)" fill="#b7c0e2"/>
    <rect id="Rectangle_24658" data-name="Rectangle 24658" width="141.299" height="8.535" transform="translate(5676.034 -6297.945)" fill="#b7c0e2"/>
    <rect id="Rectangle_24659" data-name="Rectangle 24659" width="96.775" height="8.535" transform="translate(5676.034 -6281.731)" fill="#b7c0e2"/>
    <rect id="Rectangle_24660" data-name="Rectangle 24660" width="141.299" height="8.535" transform="translate(5676.034 -6315.029)" fill="#b7c0e2"/>
    <path id="Path_10985" data-name="Path 10985" d="M630.852,576.27l2.47,7.679h7.912l-6.42,4.647,2.458,7.68-6.42-4.757-6.42,4.757,2.458-7.68-6.53-4.647h8.034Z" transform="translate(4697.506 -6925.904)" fill="#c5c924" fill-rule="evenodd"/>
    <path id="Path_10986" data-name="Path 10986" d="M650.462,576.27l2.458,7.679h7.924l-6.42,4.647,2.458,7.68-6.42-4.757-6.53,4.757,2.568-7.68-6.53-4.647H648Z" transform="translate(4701.876 -6925.904)" fill="#c5c924" fill-rule="evenodd"/>
    <path id="Path_10987" data-name="Path 10987" d="M701.024,583.949h0L694.6,588.6l2.458,7.68-6.42-4.757-6.53,4.757,2.568-7.68-6.53-4.647h8.034l2.458-7.679,2.458,7.679Z" transform="translate(4710.829 -6925.904)" fill="#ccd4ed" fill-rule="evenodd"/>
    <path id="Path_10988" data-name="Path 10988" d="M710.68,576.27l2.47,7.679h7.912l-6.42,4.647,2.47,7.68-6.432-4.757-6.518,4.757,2.568-7.68-6.53-4.647h8.022Z" transform="translate(4715.297 -6925.904)" fill="#ccd4ed" fill-rule="evenodd"/>
    <path id="Path_10989" data-name="Path 10989" d="M670.592,576.27l2.47,7.679h7.912l-6.42,4.647,2.47,7.68-6.432-4.757-6.53,4.757,2.568-7.68-6.53-4.647h8.034Z" transform="translate(4706.361 -6925.904)" fill="#c5c924" fill-rule="evenodd"/>
    <path id="Path_10990" data-name="Path 10990" d="M781.5,576.27l2.47,7.679h8.022l-6.53,4.647,2.47,7.68-6.432-4.757-6.42,4.757,2.458-7.68-6.53-4.647h8.034Z" transform="translate(4731.075 -6925.904)" fill="#c5c924" fill-rule="evenodd"/>
    <path id="Path_10991" data-name="Path 10991" d="M801.112,576.27l2.458,7.679h7.924l-6.42,4.647,2.47,7.68-6.432-4.757-6.42,4.757,2.458-7.68-6.53-4.647h8.034Z" transform="translate(4735.446 -6925.904)" fill="#c5c924" fill-rule="evenodd"/>
    <path id="Path_10992" data-name="Path 10992" d="M851.674,583.949h0l-6.42,4.647,2.458,7.68-6.42-4.757-6.42,4.757,2.458-7.68-6.53-4.647h8.034l2.458-7.679,2.458,7.679Z" transform="translate(4744.399 -6925.904)" fill="#c5c924" fill-rule="evenodd"/>
    <path id="Path_10993" data-name="Path 10993" d="M861.33,576.27l2.47,7.679h7.924L865.3,588.6l2.458,7.68-6.432-4.757-6.42,4.757,2.458-7.68-6.518-4.647h8.022Z" transform="translate(4748.867 -6925.904)" fill="#ccd4ed" fill-rule="evenodd"/>
    <path id="Path_10994" data-name="Path 10994" d="M821.254,576.27l2.458,7.679h7.912L825.2,588.6l2.47,7.68-6.42-4.757-6.432,4.757,2.47-7.68-6.542-4.647h8.034Z" transform="translate(4739.932 -6925.904)" fill="#c5c924" fill-rule="evenodd"/>
    <path id="Path_10995" data-name="Path 10995" d="M932.132,576.27l2.47,7.679h8.022l-6.53,4.647,2.568,7.68-6.53-4.757-6.42,4.757,2.458-7.68-6.42-4.647h7.924Z" transform="translate(4764.666 -6925.904)" fill="#c5c924" fill-rule="evenodd"/>
    <path id="Path_10996" data-name="Path 10996" d="M951.742,576.27l2.458,7.679h8.034L955.7,588.6l2.458,7.68-6.42-4.757-6.42,4.757,2.47-7.68-6.432-4.647h7.924Z" transform="translate(4769.036 -6925.904)" fill="#c5c924" fill-rule="evenodd"/>
    <path id="Path_10997" data-name="Path 10997" d="M1002.434,583.949h0L995.9,588.6l2.458,7.68-6.42-4.757-6.42,4.757,2.458-7.68-6.53-4.647h8.034l2.458-7.679,2.458,7.679Z" transform="translate(4777.97 -6925.904)" fill="#ccd4ed" fill-rule="evenodd"/>
    <path id="Path_10998" data-name="Path 10998" d="M1011.992,576.27l2.458,7.679h8.022l-6.518,4.647,2.458,7.68-6.42-4.757-6.432,4.757,2.458-7.68-6.518-4.647h8.022Z" transform="translate(4782.438 -6925.904)" fill="#ccd4ed" fill-rule="evenodd"/>
    <path id="Path_10999" data-name="Path 10999" d="M971.892,576.27l2.47,7.679h8.022l-6.518,4.647,2.446,7.68-6.42-4.757-6.42,4.757,2.47-7.68-6.542-4.647h8.034Z" transform="translate(4773.502 -6925.904)" fill="#c5c924" fill-rule="evenodd"/>
    <path id="Path_11000" data-name="Path 11000" d="M689.97,409.014c0,20.213-7.068,26.156-19.064,26.156a46.077,46.077,0,0,1-14.882-2.446l-3.094,23.026c5.772,2.274,14.552,3.351,20.972,3.351,27.4,0,42.4-14.588,42.4-49.195V334.213H689.97ZM811.679,459.15c36.281,0,60.787-26.267,60.787-64.443,0-35.89-22.366-62.6-59.075-62.6-35.646,0-60.164,27.135-60.164,64.81,0,35.352,22.586,62.267,58.329,62.267Zm1.064-22.6c-19.272,0-31.476-17.841-31.476-40.537,0-22.928,11.776-41.307,31.586-41.307s31.684,18.709,31.684,40.867c0,23.466-12,40.977-31.684,40.977Zm97.521,19.785a185.877,185.877,0,0,0,29.642,2.054c23.332,0,37.578-3.779,46.358-10.7a34.008,34.008,0,0,0,12.73-26.817c0-16.325-10.382-26.707-23.014-30.375v-.33c13.06-5.087,19.052-15.139,19.052-25.839,0-12.228-6.42-20.544-14.882-24.762-8.34-4.537-17.548-6.371-34.667-6.371a234.572,234.572,0,0,0-35.217,2.7Zm26.108-101.3c2.36-.538,5.784-.868,12.424-.868,12.3,0,19.565,4.109,19.565,13.622,0,8.866-7.337,14.588-22.6,14.588h-9.416Zm0,47.9h9.966c13.9,0,24.726,4.317,24.726,16.753,0,12.864-10.932,17.413-23.454,17.413a64.073,64.073,0,0,1-11.238-.55Zm119.838,13.83,4.011-82.554h-26.9l3.95,82.492Zm-9.367,42.384c9.428,0,15.518-7.337,15.518-17.12-.1-10.052-6.114-17.193-15.518-17.193s-15.53,7.141-15.53,17.193c0,9.783,6.114,17.12,15.322,17.12Z" transform="translate(4704.763 -6980.313)" fill="#c6c6cc"/>
    <path id="Path_11003" data-name="Path 11003" d="M782.107,398.844A49.684,49.684,0,0,1,851.894,410.3a51.041,51.041,0,0,1,8.78,37.627,50.3,50.3,0,0,1-20.128,32.87,49.562,49.562,0,0,1-69.7-11.47,50.49,50.49,0,0,1-8.866-37.6,51.115,51.115,0,0,1,20.128-32.87Zm36.5-4.439a45.245,45.245,0,0,0-33.934,8.107A46.3,46.3,0,0,0,774.4,466.736a45.453,45.453,0,0,0,81.93-19.565,46.26,46.26,0,0,0-7.924-34.239,45.4,45.4,0,0,0-29.752-18.489Z" transform="translate(4728.918 -6967.563)" fill="#3f3f56"/>
    <path id="Path_11004" data-name="Path 11004" d="M822.49,482.41,794.768,394.72a42.409,42.409,0,0,0-13.06,6.591,49.4,49.4,0,0,0-7.068,6.383l24.09,75.9c.746.11,1.6.318,2.348.428a45.244,45.244,0,0,0,21.412-1.614Z" transform="translate(4731.885 -6966.36)" fill="#fff" fill-rule="evenodd" opacity="0.2"/>
    <path id="Path_11005" data-name="Path 11005" d="M795.3,393.813l27.5,87.029a48.231,48.231,0,0,0,7.606-4.537l.966-.648-26.12-82.652a44.019,44.019,0,0,0-9.954.758Z" transform="translate(4736.488 -6966.75)" fill="#fff" fill-rule="evenodd" opacity="0.2"/>
    <path id="Path_11007" data-name="Path 11007" d="M954.21,680.006l12.3-1.186,1.186,9.844-12.424,1.186Z" transform="translate(4771.899 -6903.054)" fill="#ffc8b7" fill-rule="evenodd"/>
    <path id="Path_11009" data-name="Path 11009" d="M917.576,678.38l12.314,1.3-.746,9.844-12.314-1.309Z" transform="translate(4763.569 -6903.15)" fill="#ffc8b7" fill-rule="evenodd"/>
    <path id="Path_11013" data-name="Path 11013" d="M932.326,440.007a12.486,12.486,0,0,1-6.958,2.446c-.11-.648-.22-1.3-.318-1.944a15.494,15.494,0,0,0,7.337-.538Z" transform="translate(4765.401 -6956.277)" fill="#ff9d81" fill-rule="evenodd"/>
    <path id="Path_11018" data-name="Path 11018" d="M939.134,473.69c-9.416,24.334-17.878,38.6-27.294,43.142V512.3C916.658,509.372,935.5,479.743,939.134,473.69Z" transform="translate(4762.457 -6948.763)" fill="#cca01a" fill-rule="evenodd"/>
    <path id="Path_11019" data-name="Path 11019" d="M1097.026,677.76l12.632,1.3-.856,9.954L1096.28,687.7Z" transform="translate(4803.558 -6903.289)" fill="#ffc8b7" fill-rule="evenodd"/>
    <path id="Path_11020" data-name="Path 11020" d="M1113.5,684.39a124.817,124.817,0,0,1,.636,16.435s-2.568-.11-8.022.11a23.251,23.251,0,0,1-.318-4.537,33.012,33.012,0,0,1-8.89,4.537s-3.742,0-18.514.11a3.569,3.569,0,0,1-1.284-2.7,3.667,3.667,0,0,1,1.284-2.812c12.95-1.944,17.878-5.4,22.158-10.7,3.962,1.394,8.78.856,12.95-.44Z" transform="translate(4799.285 -6901.812)" fill="#3d3938" fill-rule="evenodd"/>
    <path id="Path_11021" data-name="Path 11021" d="M1138.12,680.9l12.632-1.186,1.186,9.942-12.644,1.186Z" transform="translate(4812.882 -6902.854)" fill="#ffc8b7" fill-rule="evenodd"/>
    <path id="Path_11022" data-name="Path 11022" d="M1156.056,685.36a137.135,137.135,0,0,1,.526,16.435s-2.446-.1-8.034.11a36.356,36.356,0,0,1-.208-4.647,31.492,31.492,0,0,1-8.878,4.647h-18.636a3.668,3.668,0,0,1,0-5.4c13.06-1.944,17.988-5.515,22.158-10.7a22.526,22.526,0,0,0,13.072-.44Z" transform="translate(4808.763 -6901.596)" fill="#3d3938" fill-rule="evenodd"/>
    <path id="Path_11023" data-name="Path 11023" d="M1125.849,595.826l-9.208-70.056h-15.518l-5.454,188.879H1111.4Z" transform="translate(4803.422 -6937.157)" fill="#ededed" fill-rule="evenodd"/>
    <path id="Path_11024" data-name="Path 11024" d="M1148.751,525.77H1110.11l33.4,190.506,14.992-.758-1.712-163.579h-9.538Z" transform="translate(4806.64 -6937.157)" fill="#fff" fill-rule="evenodd"/>
    <path id="Path_11025" data-name="Path 11025" d="M1152.347,545.758l-9-.538c-.1,1.626-.208,3.033-.318,4.109a15.9,15.9,0,0,0-4.708,6.053c-.746,2.274-1.6,4.439-.746,4.549.636.11,1.223-.868,1.822-2.054.636-1.626,2.666-3.033,2.983-.978l-.1.538c-.758,3.669-2.14,6.383-3.962,11.25a1.1,1.1,0,0,0,.428,1.3.893.893,0,0,0,1.223-.428,32.485,32.485,0,0,0,3.424-7.337.526.526,0,0,1,.538,0,.489.489,0,0,1,.11.55,77.972,77.972,0,0,1-3.106,8.755,1.052,1.052,0,0,0,.428,1.3.893.893,0,0,0,1.223-.428,59.556,59.556,0,0,0,3.546-8.328.379.379,0,0,1,.526-.22c.208,0,.33.22.33.428a37.163,37.163,0,0,1-2.9,8.12.941.941,0,0,0,.636.966.783.783,0,0,0,.966-.428,24.98,24.98,0,0,0,3.216-7.789.391.391,0,0,1,.526-.22.477.477,0,0,1,.33.648,23.748,23.748,0,0,1-1.92,5.515.722.722,0,0,0,.636.33.5.5,0,0,0,.636-.33c4.61-7.459,3.216-12.864,2.9-20.788,0,0,.22-1.737.428-4.549Z" transform="translate(4812.681 -6932.825)" fill="#ffc8b7" fill-rule="evenodd"/>
    <path id="Path_11026" data-name="Path 11026" d="M1104.461,547.266H1155.2l-1.223,23.356h9.538l4.488.11q9.147-46.223,9.11-64.333c-1.406-11.678-9.11-57.632-22.378-61.142-18.342-4.891-33.726-4.219-46.358.868-4.6,1.834-9.783,13.451-26.9,43.57-7.337,24.334,14.332,28.981,23.968,8.107-1.223,19.247-.856,30.167-.856,49.525Z" transform="translate(4799.926 -6955.842)" fill="#0b456f" fill-rule="evenodd"/>
    <path id="Path_11027" data-name="Path 11027" d="M1152.357,511.4c-1.284,15.249-2.9,29.837-3.534,35.462h4.891l2.042-35.242-5.466-31.146Zm-30.937-61.851c-6.114,14.063-11.458,31.243-17.56,47.788l18.954-47.458-3-1.736Zm-34.68,37.737s8.56-16.753,25.154-43.239c.1,0,.1-.122.208-.22a2.445,2.445,0,0,0-2.446.758c-4.072,3.669-11.776,17.939-22.9,42.7Z" transform="translate(4801.432 -6955.436)" fill="#113c56" fill-rule="evenodd"/>
    <path id="Path_11028" data-name="Path 11028" d="M1115.865,411.54c-4.06,16.973-3.669,27.453,1.284,31.354l-1.712,8.425a10.732,10.732,0,0,0,3.216,2.274c.1.11.954,4.329,1.064,4.329.428,0,2.9-2.923,3.216-3.033h0a17.915,17.915,0,0,0,12.522-2.923,51.721,51.721,0,0,1,.22-8c.1-1.724.635-3.571.856-5.625,6.2.44,8.34-3.889,7.912-7.569a3.6,3.6,0,0,0-3.2-1.944,3.754,3.754,0,0,0-3.216,1.944c-1.223-.428-1.223-2.812,0-7.239a9.1,9.1,0,0,1-4.708-7.887C1125.708,413.912,1119.4,413.264,1115.865,411.54Z" transform="translate(4807.305 -6962.613)" fill="#ffc8b7" fill-rule="evenodd"/>
    <path id="Path_11029" data-name="Path 11029" d="M1115.815,414.969c3.534,1.724,9.208,3.461,16.814,5.185a9.221,9.221,0,0,0,4.708,7.887c-1.394,4.329-1.394,6.811,0,7.141a3.669,3.669,0,0,1,6.42.11c.428,3.668-2.14,5.723-7.606,6.371-.208,2.054-.208,2.054-.428,3.791,15.64-3.669,16.374-25.411,13.6-27.893-1.394-13.194-26.01-15.249-31.684-21.412C1117.637,396.15,1109.285,411.289,1115.815,414.969Z" transform="translate(4807.354 -6966.041)" fill="#42445c" fill-rule="evenodd"/>
    <path id="Path_11030" data-name="Path 11030" d="M1116,439.682c5.356,2.274,9.954,1.406,14.026-2.592-6.114,2.372-10.6,2.372-13.451.11Z" transform="translate(4807.952 -6956.92)" fill="#ff9d81" fill-rule="evenodd"/>
    <path id="Path_11031" data-name="Path 11031" d="M1107.22,446.5c4.708,2.446,8.034,4.427,8.034,4.427a24.586,24.586,0,0,1,2.568-4.965c1.6-.868,2.03-3.24,2.776-6.273,3.742-2.164,2.568-7.9.11-8.327-3.106-.538-5.674.868-7.814,4.109-2.348,3.351-3.534,5.845-3.754,7.251a30.745,30.745,0,0,1-1.92,3.779Z" transform="translate(4805.996 -6958.221)" fill="#ffc8b7" fill-rule="evenodd"/>
    <path id="Path_11032" data-name="Path 11032" d="M1117.966,453.639l-.428-4,4.17.33-.966,3.571,1.712,65.948-3.742,6.053-3.962-6.053Z" transform="translate(4807.674 -6954.123)" fill="#c6553e" fill-rule="evenodd"/>
    <path id="Path_11033" data-name="Path 11033" d="M1119.308,450.259c-.11,0-.966-4.219-1.064-4.329l-3.314,5.515,2.348-2.054.22,1.076,4.17.33.428-.648,1.382,2.054-.954-4.977c-.318.11-2.788,3.033-3.216,3.033Z" transform="translate(4807.714 -6954.949)" fill="#113c56" fill-rule="evenodd"/>
    <rect id="Rectangle_24661" data-name="Rectangle 24661" width="9.526" height="4.219" transform="translate(5201.195 -6227.938)" fill="#f8cebc"/>
    <path id="Path_11034" data-name="Path 11034" d="M535.885,682.081c-.1-2.274-.1-3.461-.1-3.461-7.337.208-10.81.208-10.81.208a54.948,54.948,0,0,1-2.446,12.008,23.546,23.546,0,0,0,.22,5.4h20.226v-4.219c-2.348-3.033-4.488-6.273-7.068-9.942Z" transform="translate(4675.691 -6903.098)" fill="#e8460c" fill-rule="evenodd"/>
    <rect id="Rectangle_24662" data-name="Rectangle 24662" width="6.102" height="0.868" transform="translate(5202.699 -6215.832)" fill="#070202"/>
    <rect id="Rectangle_24663" data-name="Rectangle 24663" width="5.564" height="0.758" transform="translate(5202.381 -6218.314)" fill="#070202"/>
    <path id="Path_11035" data-name="Path 11035" d="M522.506,690.3h20.446v3.314H522.726a11.913,11.913,0,0,1-.22-3.351Z" transform="translate(4675.692 -6900.504)" fill="#070202" fill-rule="evenodd"/>
    <rect id="Rectangle_24664" data-name="Rectangle 24664" width="9.526" height="4.219" transform="translate(5161.697 -6227.938)" fill="#f8cebc"/>
    <path id="Path_11036" data-name="Path 11036" d="M493.279,682.081c.22-2.274.22-3.461.22-3.461,7.166.208,10.81.208,10.81.208a68.969,68.969,0,0,0,2.36,12.008,23.506,23.506,0,0,1,0,5.4H486.26v-4.219c2.25-3.033,4.61-6.273,6.958-9.942Z" transform="translate(4667.623 -6903.098)" fill="#e8460c" fill-rule="evenodd"/>
    <rect id="Rectangle_24665" data-name="Rectangle 24665" width="5.992" height="0.966" transform="translate(5161.697 -6217.128)" fill="#070202"/>
    <rect id="Rectangle_24666" data-name="Rectangle 24666" width="5.674" height="1.088" transform="translate(5162.553 -6219.721)" fill="#070202"/>
    <path id="Path_11037" data-name="Path 11037" d="M506.816,690.3H486.26v3.314h20.348c0-1.223.208-2.164.208-3.351Z" transform="translate(4667.623 -6900.504)" fill="#070202" fill-rule="evenodd"/>
    <path id="Path_11038" data-name="Path 11038" d="M545.929,532.38c-18.086,4-37.676,4-58.439.318,1.284,94.391,4.488,175.159,4.488,175.159,9.783.1,13.39.1,13.39.1,5.674-89.732,11.984-149.846,11.984-149.846L531.7,708.823l12.84-.318c2.446-104.773,2.152-175.807,1.394-176.088Z" transform="translate(4667.897 -6935.685)" fill="#383a48" fill-rule="evenodd"/>
    <path id="Path_11039" data-name="Path 11039" d="M488.626,538.8c.856-.318,2.9.966,3.106,1.3.966,2.592-1.064,7.79-1.92,9.514h-.11c-5.356-.966-7.276-5.405-10.712-15.029l7.4-2.446c.648,3.461,1.382,5.943,2.238,6.7Z" transform="translate(4666.003 -6935.739)" fill="#f8cebc" fill-rule="evenodd"/>
    <path id="Path_11040" data-name="Path 11040" d="M492.131,475.948l.318,31.146-1.223,23.454c-.636,13.842-2.03,27.355.538,33.09,22.9,3.779,35.462,4.757,58.439-.33,3.669-7.129,4.72-78.164,5.674-92.654,7.068-9.514,34.044-61.631,18.343-66.278-12.632-3.791-41.576-7.251-43.46-6.921-5.454.868-2.788,4.427-1.223,7.251.318-.22.746-.44,1.064-.66a31.355,31.355,0,0,1,.868,3.033c5.992,2.7,30.571,8.976,30.5,9.086-.11-.66-8.988,27.453-19.908,28.431-3.106.318-6.212.428-9.208.538l.428,2.164a11.47,11.47,0,0,1-8.132,4.439,1.223,1.223,0,0,0,.636-.11c-.636.856-2.25,4-2.568,4a39.625,39.625,0,0,1-2.666-4.109,15,15,0,0,1-7.814-4.109,13.562,13.562,0,0,0-.11-2.164c-8.78,0-17.242.648-25.264,3.461-5.564,2.054-7.178,3.669-8.988,8.976-3.534,9.783-10.284,42.7-10.284,54.49,4.072,24,14.882,62.059,15.9,61.741,3.522-1.516,3.852-2.7,7.056-6.114.33-.33-6.31-54.282-5.882-54.392.22-5.295,6.42-27.465,6.958-37.407Z" transform="translate(4663.574 -6965.756)" fill="#fd5126" fill-rule="evenodd"/>
    <path id="Path_11041" data-name="Path 11041" d="M490.11,536.71a17.328,17.328,0,0,1-2.36,12.583c.856-2.054,2.678-8.315,2.03-10.162l-.746-.538Z" transform="translate(4667.955 -6934.72)" fill="#252738" fill-rule="evenodd"/>
    <path id="Path_11042" data-name="Path 11042" d="M498.484,541c1.492,5.943-.648,10.92-5.564,13.182A16.581,16.581,0,0,0,498.484,541Z" transform="translate(4669.107 -6933.765)" fill="#252738" fill-rule="evenodd"/>
    <path id="Path_11043" data-name="Path 11043" d="M524.528,402.84c5.576,17.951,5.894,29.189.966,33.518l1.712,9.783a11,11,0,0,1-7.5,4.329c-.636.856-2.25,4-2.568,4a39.6,39.6,0,0,1-2.666-4.109,15,15,0,0,1-7.814-4.109,38.22,38.22,0,0,0-.856-7.337c-.33-1.846-.966-3.571-1.394-5.735-6.432.758-9-3.668-8.78-7.459a3.669,3.669,0,0,1,3.2-2.385,4.194,4.194,0,0,1,3.534,1.736c1.394-.538,1.223-2.923-.526-7.569a9.966,9.966,0,0,0,4.488-8.866c7.924-2.274,14.564-3.461,18.2-5.735Z" transform="translate(4669.709 -6964.551)" fill="#f8cebc" fill-rule="evenodd"/>
    <path id="Path_11044" data-name="Path 11044" d="M526.177,405.783c-3.669,2.274-9.416,4.439-17.438,6.921a9.783,9.783,0,0,1-4.5,8.658c1.712,4.647,1.932,7.129.538,7.777a3.925,3.925,0,0,0-3.534-1.944,4.5,4.5,0,0,0-3.326,2.372c-.11,4.011,2.678,6.114,8.67,6.273.22,2.274.538,4.109.868,5.955a12.143,12.143,0,0,1-12.962-7.141,7.337,7.337,0,0,1-2.446-11.568,7.337,7.337,0,0,1-1.394-11.9,8.658,8.658,0,0,1,1.394-8.327,8.132,8.132,0,0,1,7.594-3.351,6.615,6.615,0,0,1,3.436-6.909,6.823,6.823,0,0,1,7.5,1.3,7.52,7.52,0,0,1,7.594-4.219,7.692,7.692,0,0,1,6.31,5.723,4.72,4.72,0,0,1,6.114,1.846,4.989,4.989,0,0,1-1.308,6.285,10.686,10.686,0,0,1-3.106,2.262Z" transform="translate(4668.061 -6967.494)" fill="#40415b" fill-rule="evenodd"/>
    <path id="Path_11045" data-name="Path 11045" d="M523.092,433.063c-5.564,2.812-10.272,2.164-14.772-1.736,6.64,1.957,11.348,1.626,14.344-1.076Z" transform="translate(4672.539 -6958.443)" fill="#f2a080" fill-rule="evenodd"/>
    <path id="Path_11046" data-name="Path 11046" d="M512.392,450.087l-1.5-4.219,3.326-.11,3-.208-1.284,4.427,2.25,83.691-4.818,7.777-5.038-7.667Z" transform="translate(4672.539 -6955.034)" fill="#474849" fill-rule="evenodd"/>
    <path id="Path_11047" data-name="Path 11047" d="M514.39,445.827c-.318,0-2.776-4.537-3-4.537L507.97,447.4l2.568-2.054.428,1.406,3.326-.11,3-.208.526-.868,3.008,3.033-3.669-6.921c-.428,0-2.36,4.109-2.788,4.109Z" transform="translate(4672.461 -6955.983)" fill="#d63c1e" fill-rule="evenodd"/>
    <g id="Group_13039" data-name="Group 13039" transform="translate(1513 983)">
      <path id="Path_11053" data-name="Path 11053" d="M193.286,9.28A45.166,45.166,0,1,1,148.17,54.4,45.166,45.166,0,0,1,193.286,9.28Z" transform="translate(3855 -7451)" fill="#78c9d5" fill-rule="evenodd"/>
      <path id="Path_11054" data-name="Path 11054" d="M230.162,66.555c-.562-1.024-1.124-2.136-1.586-3.16A74.107,74.107,0,0,0,206.093,57c-10.954,2.96-18.948,1.661-28.041,0a74.944,74.944,0,0,0-22.845,6.4l-1.486,3.248a45.116,45.116,0,0,0,76.417-.087Zm-39.37,0a17.723,17.723,0,0,0,1.4,2.136,12.582,12.582,0,0,0,1.386-2.223c.187-.187.275-.287.375-.375-.562.187-1.112.375-1.761.55-.662-.275-1.249-.462-1.861-.737.1.187.275.375.462.649Z" transform="translate(3856.382 -7439.115)" fill="#393b47" fill-rule="evenodd"/>
      <path id="Path_11055" data-name="Path 11055" d="M176.27,61.133c1.849,4.172,5.846,9.468,10.3,9.468s8.444-5.571,10.117-9.755l-.375-7.694a7.994,7.994,0,0,1-.65,1.112,11.618,11.618,0,0,1-2.036,2.223,5.621,5.621,0,0,1-2.136,1.4,30.256,30.256,0,0,1-3.16.55,7.045,7.045,0,0,1-2.785.1,9.993,9.993,0,0,1-4.734-2.236,12.38,12.38,0,0,1-1.761-1.474,16.49,16.49,0,0,1-1.874-2.323c-.187-.187-.275-.375-.462-.562Z" transform="translate(3861.999 -7440.375)" fill="#fbccba" fill-rule="evenodd"/>
      <path id="Path_11056" data-name="Path 11056" d="M194.754,22.24c-10.4-10.117-27.479,3.747-24.044,14.989.462,1.249-1.124,4.447,1.949,9.193a8.343,8.343,0,0,1,1.249,2.411c.187.837.275,1.761.462,2.411a8.869,8.869,0,0,0,.837,1.861,6,6,0,0,1,.55,1.849v2.136a5.471,5.471,0,0,0,.662,1.949,13.878,13.878,0,0,0,1.574,2.323,29.057,29.057,0,0,0,1.936,2.286,14.661,14.661,0,0,0,1.824,1.636,11.942,11.942,0,0,0,1.924,1.336,9.306,9.306,0,0,0,2.885.924,10.18,10.18,0,0,0,2.873-.087,17.75,17.75,0,0,0,3.248-.562,7.682,7.682,0,0,0,2.236-1.249,16.114,16.114,0,0,0,2.123-2.223,17.2,17.2,0,0,0,1.312-2.236c.362-.837.824-1.949,1.249-2.785,2.323-3.747.087-5.571,2.6-9.368,1.674-2.6.837-4.734,1.861-6.87s0-1.761.55-3.747c2.885-9.38-5.671-15.776-9.93-16.15Z" transform="translate(3860.502 -7448.646)" fill="#37383f" fill-rule="evenodd"/>
      <path id="Path_11057" data-name="Path 11057" d="M174.4,35.819c1.674-.824,17.487.662,18.948-4.909,2.411,5.371,4.734,5.1,6.6,5.933.362.187.462.562.55,1.949a32.468,32.468,0,0,1,.087,5.3c0,2.7-3.248,12.166-7.045,8.631a23.294,23.294,0,0,0-2.7-2.223,11.142,11.142,0,0,0-3.06-1.112c-4-.562-5.571,3.522-7.981,3.984a2.635,2.635,0,0,1-1.774-.362,1.936,1.936,0,0,1-.737-.749,18.381,18.381,0,0,0-1.112-1.574,32.774,32.774,0,0,1-2.785-7.894c-.1-1.024-.1-2.323-.1-3.622S173.2,36.381,174.4,35.819Z" transform="translate(3861.256 -7445.613)" fill="#fbccba" fill-rule="evenodd"/>
      <path id="Path_11058" data-name="Path 11058" d="M200.924,85.586l.287-28.491c-1.249-.187-2.6-.287-3.91-.475l.1,3.06a15.888,15.888,0,0,1-8.356,6.508c-.1.087-.187.187-.375.375-.462.824-1.112,2.223-1.386,2.223s-.837-1.249-1.4-2.136c-.187-.275-.55-.65-.65-.837a21.4,21.4,0,0,1-8.256-5.846l.187-3.347c-1.249.1-2.611.287-3.747.375l.4,28.828A47.888,47.888,0,0,0,187,87.771a43.267,43.267,0,0,0,13.927-2.236Z" transform="translate(3861.289 -7439.209)" fill="#fff" fill-rule="evenodd"/>
      <path id="Path_11059" data-name="Path 11059" d="M183.842,70.1,182.73,67l4.272.1-.837,2.873.65,15.163a15.2,15.2,0,0,1-2.136.1h-1.386Z" transform="translate(3863.607 -7436.625)" fill="#093b5e" fill-rule="evenodd"/>
      <path id="Path_11060" data-name="Path 11060" d="M185.354,66.953c-.1,0-1.861-2.973-2.048-2.973l-2.136,4.184,1.674-1.4.275.924,4.272.1.275-1.024,2.136,2.048-2.6-4.646C186.928,64.255,185.629,66.953,185.354,66.953Z" transform="translate(3863.219 -7437.377)" fill="#dbdcdc" fill-rule="evenodd"/>
    </g>
    <g id="Group_13038" data-name="Group 13038" transform="translate(1462.84 982.72)">
      <path id="Path_11051" data-name="Path 11051" d="M59.16,9.28a45.049,45.049,0,1,1-45,45,45.049,45.049,0,0,1,45-45Z" transform="translate(3855 -7451)" fill="#78c9d5" fill-rule="evenodd"/>
      <path id="Path_11052" data-name="Path 11052" d="M27.892,71.49v2.691c-.374-.287-.648-.561-1.022-.847Z" transform="translate(3858.125 -7435.707)" fill="#df2e03" fill-rule="evenodd"/>
      <path id="Path_11068" data-name="Path 11068" d="M95.765,66.531c-.548-1.022-1.109-2.13-1.669-3.152A72.259,72.259,0,0,0,71.7,57c-10.926,2.953-18.8,1.657-27.907,0A74.077,74.077,0,0,0,21,63.379L19.52,66.618a44.987,44.987,0,0,0,76.208-.087Zm-39.356,0c.648.835,1.4,2.13,1.483,2.13a10.627,10.627,0,0,0,1.383-2.218c.1-.187.287-.287.287-.374-.461.187-1.109.374-1.669.548-.648-.274-1.246-.461-1.856-.735A3.425,3.425,0,0,1,56.409,66.531Z" transform="translate(3856.318 -7439.269)" fill="#393b47" fill-rule="evenodd"/>
      <path id="Path_11069" data-name="Path 11069" d="M43.807,66.353c1.669,3.9,5.93,10.465,9.967,10.378s7.313-6.665,8.982-10.652l-.287-6.1c3.152-3.9,5.469-10.565,6.491-19.821-9.73.922-17.13-1.483-22.226-7.313C44.7,39.318,41.913,42.931,38.4,43.679c1.246,6.653,3.239,11.661,5.731,15.087Z" transform="translate(3860.959 -7445.208)" fill="#fbccba" fill-rule="evenodd"/>
      <path id="Path_11070" data-name="Path 11070" d="M47.305,35.79c5.1,5.831,12.458,8.235,22.226,7.313a16.2,16.2,0,0,0-5.282-18.152c-5.469-4.261-14.813-6.229-20.469-.835C34.8,26.023,34.7,38.743,38.971,46.629,42.484,45.882,45.275,42.269,47.305,35.79Z" transform="translate(3860.426 -7448.158)" fill="#37383f" fill-rule="evenodd"/>
      <path id="Path_11071" data-name="Path 11071" d="M66.7,85.528l.274-28.417c-1.246-.187-3.239-.374-4.535-.473l.087,3.052a13.766,13.766,0,0,1-7.774,6.491c0,.087-.187.187-.287.374a10.626,10.626,0,0,1-1.383,2.218c-.087,0-.835-1.246-1.483-2.13a6.928,6.928,0,0,0-.548-.835c-3.987-1.669-5.282-3.613-7.413-5.93l.187-3.326c-1.246.087-3.426.374-4.722.461l.548,28.754A47.927,47.927,0,0,0,52.8,87.758,43.268,43.268,0,0,0,66.7,85.528Z" transform="translate(3861.131 -7439.379)" fill="#fff" fill-rule="evenodd"/>
      <path id="Path_11072" data-name="Path 11072" d="M49.649,70.09,48.54,67h4.311l-.835,2.865.648,15.187a15.339,15.339,0,0,1-2.13.1h-1.42Z" transform="translate(3863.452 -7436.811)" fill="#093b5e" fill-rule="evenodd"/>
      <path id="Path_11073" data-name="Path 11073" d="M51.161,66.945c-.087,0-1.856-2.965-2.031-2.965L46.9,68.154l1.769-1.4.274.922,4.311.062.274-1.022,2.043,2.043L53.079,64.13c-.287.087-1.582,2.778-1.856,2.778Z" transform="translate(3863.049 -7437.553)" fill="#dbdcdc" fill-rule="evenodd"/>
    </g>
    <g id="Group_13040" data-name="Group 13040" transform="translate(1564 983)">
      <path id="Path_11061" data-name="Path 11061" d="M327.163,9.28A45.033,45.033,0,1,1,282.18,54.263,45.033,45.033,0,0,1,327.163,9.28Z" transform="translate(3855 -7451)" fill="#78c9d5" fill-rule="evenodd"/>
      <path id="Path_11062" data-name="Path 11062" d="M363.918,66.527c-.548-1.021-1.1-2.13-1.656-3.151A72.443,72.443,0,0,0,339.845,57c-10.922,2.952-18.793,1.656-27.859,0a73.877,73.877,0,0,0-22.691,6.376L287.8,66.614a44.971,44.971,0,0,0,76.18-.087Zm-39.329,0c.648.834,1.382,2.13,1.482,2.13a10.622,10.622,0,0,0,1.382-2.217c.1-.187.274-.286.274-.374-.461.187-1.108.374-1.656.548-.648-.274-1.245-.461-1.856-.735a5.659,5.659,0,0,1,.374.648Z" transform="translate(3856.379 -7439.29)" fill="#393b47" fill-rule="evenodd"/>
      <path id="Path_11063" data-name="Path 11063" d="M312.063,66.341c1.656,3.9,5.916,10.461,9.963,10.374s7.31-6.663,8.979-10.648l-.274-6.1c3.151-3.9,5.455-10.561,6.476-19.814-9.714.922-17.124-1.482-22.218-7.31q-3.039,9.714-8.319,10.835c1.245,6.65,3.138,11.657,5.729,15.082Z" transform="translate(3861.01 -7445.219)" fill="#fbccba" fill-rule="evenodd"/>
      <path id="Path_11064" data-name="Path 11064" d="M315.5,35.785c5.094,5.828,12.454,8.232,22.218,7.31a16.19,16.19,0,0,0-5.28-18.145c-5.455-4.259-14.808-6.227-20.449-.834-8.979,1.943-9.066,14.621-4.807,22.5Q312.447,45.5,315.5,35.785Z" transform="translate(3860.463 -7448.164)" fill="#37383f" fill-rule="evenodd"/>
      <path id="Path_11065" data-name="Path 11065" d="M334.885,85.518l.274-28.407c-1.245-.187-3.238-.374-4.533-.473l.1,3.051a13.8,13.8,0,0,1-7.784,6.488c0,.087-.174.187-.274.374a10.624,10.624,0,0,1-1.382,2.217c-.1,0-.834-1.245-1.482-2.13a6.915,6.915,0,0,0-.56-.834c-3.973-1.669-5.28-3.612-7.4-5.928l.187-3.325c-1.308.087-3.437.374-4.732.461l.56,28.743A47.823,47.823,0,0,0,321,87.747,43.14,43.14,0,0,0,334.885,85.518Z" transform="translate(3861.164 -7439.401)" fill="#fff" fill-rule="evenodd"/>
      <path id="Path_11066" data-name="Path 11066" d="M317.848,70.089,316.74,67l4.259.1-.834,2.864.635,15.119a15.155,15.155,0,0,1-2.13.1h-1.382Z" transform="translate(3863.48 -7436.836)" fill="#093b5e" fill-rule="evenodd"/>
      <path id="Path_11067" data-name="Path 11067" d="M319.369,66.944c-.1,0-1.856-2.964-2.042-2.964l-2.217,4.172,1.756-1.395.274.922,4.259.1.286-1.021,2.005,2.042L321.2,64.167c-.274.087-1.569,2.777-1.843,2.777Z" transform="translate(3863.08 -7437.578)" fill="#dbdcdc" fill-rule="evenodd"/>
    </g>
    <path id="Path_11015" data-name="Path 11015" d="M933.63,622.586l23.992-88.766L938.338,637.614Z" transform="translate(4767.313 -6935.363)" fill="#102962" fill-rule="evenodd"/>
    <g id="Group_13049" data-name="Group 13049" transform="translate(2 1)">
      <path id="Path_11001" data-name="Path 11001" d="M823.14,464.867l5.136-3.669a1.9,1.9,0,0,1,2.678.428l15.261,21.424a1.908,1.908,0,0,1-.428,2.7l-5.026,3.791a1.993,1.993,0,0,1-2.69-.44l-15.408-21.51a2.164,2.164,0,0,1,.428-2.7Z" transform="translate(4742.521 -6951.631)" fill="#585656" fill-rule="evenodd"/>
      <path id="Path_11002" data-name="Path 11002" d="M835.517,484.378l7.337-5.295a2.6,2.6,0,0,1,3.754.538L881.08,527.85a2.886,2.886,0,0,1-.648,3.889l-7.337,5.295a2.715,2.715,0,0,1-3.864-.538l-34.362-48.216a2.886,2.886,0,0,1,.648-3.9Z" transform="translate(4745.197 -6947.688)" fill="#3f3f56" fill-rule="evenodd"/>
      <g id="Group_13048" data-name="Group 13048">
        <path id="Path_11008" data-name="Path 11008" d="M971.756,684.4a124.311,124.311,0,0,1,.636,16.215s-2.446-.1-7.912.11a22.38,22.38,0,0,1-.355-4.573,32.821,32.821,0,0,1-8.67,4.537H937.223a3.521,3.521,0,0,1-1.223-2.7,3.484,3.484,0,0,1,1.223-2.592c12.742-1.944,17.658-5.405,21.84-10.59,3.95,1.394,8.67.856,12.742-.44Z" transform="translate(4767.841 -6901.818)" fill="#3d3938" fill-rule="evenodd"/>
        <path id="Path_11010" data-name="Path 11010" d="M933.783,684.92a132.507,132.507,0,0,1,.538,16.227s-2.446-.11-7.912,0a33.653,33.653,0,0,1-.22-4.549,27.259,27.259,0,0,1-8.78,4.549s-3.669,0-18.342.1a3.668,3.668,0,0,1,0-5.4c12.852-1.834,17.67-5.405,21.84-10.48a21.742,21.742,0,0,0,12.84-.44Z" transform="translate(4759.347 -6901.693)" fill="#3d3938" fill-rule="evenodd"/>
        <path id="Path_11011" data-name="Path 11011" d="M928.4,457.051c-.208-1.944-.526-9.4-.954-11.458-7.716-1.516-12.852-10.492-13.072-28.223a21.289,21.289,0,0,0,11.36,1.736,7.484,7.484,0,0,1,1.492,8.866c-.318.648,2.36,2.7,3,0,.11-.33.22-.758.33-1.088,3.522-6.7,9.306.868,3.314,3.351-.11,9.844,3.852,14.173,11.776,12.766-.22,3.02-.11,11.458.11,14.368-4.5.758-10.6,3.9-17.352-.428Z" transform="translate(4763.021 -6961.313)" fill="#ffc8b7" fill-rule="evenodd"/>
        <path id="Path_11012" data-name="Path 11012" d="M946.455,447.163c-7.924,1.406-11.886-2.923-11.776-12.767,5.992-2.446.208-10.052-3.314-3.35-.11.33-.22.758-.33,1.088-.636,2.7-3.314.648-3,0a7.484,7.484,0,0,0-1.492-8.866,21.289,21.289,0,0,1-11.36-1.737c-17.976-14.381,22.916-37.627,37.37-9.844,5.564,10.712,1.382,25.093-5.992,35.462Z" transform="translate(4762.204 -6965.476)" fill="#3d3938" fill-rule="evenodd"/>
        <path id="Path_11014" data-name="Path 11014" d="M933.55,622.256l24.09-88.436,1.81,78.494,14.234,102.058-15.726.44Z" transform="translate(4767.296 -6935.363)" fill="#1b4299" fill-rule="evenodd"/>
        <path id="Path_11006" data-name="Path 11006" d="M871.968,510.4l-5.674.636c-1.92,1.737-6.738,6.114-9.624,4.977-9.636-5.613-8.462-7.019-8.462-13.622.746-1.614,3.754-2.446,8.242-2.592.966-2.7,4.28-1.834,9.783,2.164l5.466-.44Z" transform="translate(4748.268 -6943.295)" fill="#ffc8b7" fill-rule="evenodd"/>
        <path id="Path_11017" data-name="Path 11017" d="M922.18,518.855c-7.337,4.537-26.768,7.019-55.994,5.943l-.746-12c28.48-6.713,44.964-10.822,46.468-15.787a179.533,179.533,0,0,0,17.548-31.464c6.31-12.766,9.416-21.3,24.518-21.3,13.806.966,20.984,39.461,19.37,112.342l-47.63-1.847-3.864-.11Z" transform="translate(4752.118 -6955.323)" fill="#edc138" fill-rule="evenodd"/>
        <path id="Path_11016" data-name="Path 11016" d="M912.01,620.494l-.44-88.974,50.968,2.813L939.512,625.8l-6.848,90.062-15.946-.22Z" transform="translate(4762.397 -6935.877)" fill="#1b4299" fill-rule="evenodd"/>
      </g>
    </g>
  </g>
</svg>
