<svg xmlns="http://www.w3.org/2000/svg" xmlns:xlink="http://www.w3.org/1999/xlink" width="229.304" height="233.042" viewBox="0 0 229.304 233.042">
  <defs>
    <linearGradient id="linear-gradient" x1="0.5" y1="1" x2="0.5" gradientUnits="objectBoundingBox">
      <stop offset="0" stop-color="#46089e"/>
      <stop offset="0.05" stop-color="#560caa"/>
      <stop offset="0.17" stop-color="#7815c4"/>
      <stop offset="0.3" stop-color="#951cd9"/>
      <stop offset="0.44" stop-color="#ab22ea"/>
      <stop offset="0.59" stop-color="#bb26f6"/>
      <stop offset="0.76" stop-color="#c428fd"/>
      <stop offset="1" stop-color="#c729ff"/>
    </linearGradient>
    <linearGradient id="linear-gradient-2" x1="-0.177" y1="0.5" x2="1.081" y2="0.5" gradientUnits="objectBoundingBox">
      <stop offset="0" stop-color="#7dc3ff"/>
      <stop offset="0.25" stop-color="#a6d6ff"/>
      <stop offset="0.59" stop-color="#d6ecff"/>
      <stop offset="0.85" stop-color="#f4faff"/>
      <stop offset="1" stop-color="#fff"/>
    </linearGradient>
    <linearGradient id="linear-gradient-3" y1="0.5" x2="1" y2="0.5" gradientUnits="objectBoundingBox">
      <stop offset="0" stop-color="#0d66bd"/>
      <stop offset="0.02" stop-color="#0d6ebd"/>
      <stop offset="0.15" stop-color="#0d90be"/>
      <stop offset="0.28" stop-color="#0dadbf"/>
      <stop offset="0.42" stop-color="#0dc3c0"/>
      <stop offset="0.58" stop-color="#0dd3c1"/>
      <stop offset="0.75" stop-color="#0ddcc1"/>
      <stop offset="1" stop-color="#0ddfc1"/>
    </linearGradient>
  </defs>
  <g id="Group_12999" data-name="Group 12999" transform="translate(-142 -1766)">
    <path id="Path_10210" data-name="Path 10210" d="M36.19,191.282S-6.036,158.837,8.324,128.094,57.475,97.967,45.215,44.41C31.011-17.637,70.993-5.7,91.35,26.013c10.577,16.488,26.044,21.6,54.278,8.973,36.1-16.147,91.585-8.074,72.519,37.266-16.949,40.305-45.813,63.384-32.2,77.156s51.372-4.556,9.573,37.658-90.968,22.4-90.968,22.4" transform="translate(139.739 1765.99)" fill="#99cbff"/>
    <path id="Path_10211" data-name="Path 10211" d="M110.221,64.569V61.282a3.1,3.1,0,0,0-3.085-3.091,3.062,3.062,0,0,0-2.307,1.073v-.231a6.54,6.54,0,0,0-6.534-6.522h0a6.54,6.54,0,0,0-6.522,6.522v-.15a3.091,3.091,0,0,0-6.182,0v4.562a5.559,5.559,0,0,0,2.468,10.548h18.166a5.582,5.582,0,0,0,5.565-5.571,5.519,5.519,0,0,0-1.569-3.852Z" transform="translate(107.086 1743.767)" fill="#f5fcff"/>
    <path id="Path_10212" data-name="Path 10212" d="M205.473,93.149V91.16a1.863,1.863,0,0,0-3.27-1.217V89.8a3.956,3.956,0,0,0-3.945-3.945h0a3.956,3.956,0,0,0-3.945,3.945v-.092a1.868,1.868,0,1,0-3.731,0v2.757a3.362,3.362,0,0,0,1.488,6.378h10.957a3.362,3.362,0,0,0,2.422-5.7Z" transform="translate(62.122 1729.65)" fill="#f5fcff"/>
    <path id="Path_10213" data-name="Path 10213" d="M301.423,157.3v-3a2.808,2.808,0,0,0-4.936-1.845v-.2a5.963,5.963,0,0,0-5.946-5.952h0a5.969,5.969,0,0,0-5.951,5.952v-.144a2.82,2.82,0,1,0-5.64,0v4.164a5.069,5.069,0,0,0,2.249,9.619h16.574a5.063,5.063,0,0,0,3.65-8.593Z" transform="translate(25.122 1704.065)" fill="#f5fcff"/>
    <path id="Path_10214" data-name="Path 10214" d="M360.709,105.395v-5.259a4.913,4.913,0,0,0-8.65-3.229v-.363A10.461,10.461,0,0,0,341.626,86.11h0a10.467,10.467,0,0,0-10.438,10.432V96.3a4.942,4.942,0,1,0-9.879,0v7.3a8.893,8.893,0,0,0,3.939,16.868h29.06a8.881,8.881,0,0,0,6.4-15.069Z" transform="translate(8.09 1729.544)" fill="#f5fcff"/>
    <path id="Path_10215" data-name="Path 10215" d="M69.987,155.915v-4.037a3.777,3.777,0,0,0-7.549,0v-2.883a5.652,5.652,0,0,0-10.767-2.4V144.5a7.134,7.134,0,0,0-7.116-7.116h0a7.134,7.134,0,0,0-7.116,7.116v.1A3.766,3.766,0,0,0,34.2,142.72h0a3.789,3.789,0,0,0-3.772,3.772v1.915a3.743,3.743,0,0,0-2.751-1.217,3.783,3.783,0,0,0-3.777,3.772v3.581a6.788,6.788,0,0,0,3.01,12.878H65.1a6.788,6.788,0,0,0,4.885-11.505Z" transform="translate(133.491 1707.841)" fill="#f5fcff"/>
    <path id="Path_10216" data-name="Path 10216" d="M296.765,230.817v-2.007a1.886,1.886,0,1,0-3.772,0v-1.453a2.826,2.826,0,0,0-5.381-1.205v-1.044a3.57,3.57,0,0,0-3.558-3.558h0a3.564,3.564,0,0,0-3.558,3.558v.046a1.9,1.9,0,0,0-1.62-.934h0a1.892,1.892,0,0,0-1.886,1.886v.957a1.88,1.88,0,0,0-3.264,1.275v1.794a3.391,3.391,0,0,0,1.505,6.436h19.094a3.408,3.408,0,0,0,3.4-3.4A3.368,3.368,0,0,0,296.765,230.817Z" transform="translate(26.937 1672.211)" fill="#f5fcff"/>
    <path id="Path_10217" data-name="Path 10217" stroke="#feffff" d="M237.979,123.45s-10.04,5.957.825,14.925,33.789,13.449,27.578,24.14c-8,13.771-43.546-.254-53.085,19.031s1.949,21.465-16.217,22.687" fill="none" transform="translate(58.577 1713.737)" stroke-linecap="round" stroke-linejoin="round" stroke-width="0.75" stroke-dasharray="3"/>
    <path id="Path_10218" data-name="Path 10218" d="M260.175,306.481s-5.409-3.022-3.4-13.633l1.92,2.676s-3.46-9.1,3.293-19.763l1.92,2.128s.513-4.037,5.83-8.9Z" transform="translate(33.498 1652.13)" fill="#1bceae"/>
    <path id="Path_10219" data-name="Path 10219" d="M263,306.481s6.2-.063,9.515-10.34l-2.97,1.43a8.685,8.685,0,0,0,4.5-7.422l-3.593,1.09s5.548-2.964,5.675-12.6l-2.7.952s1.482-3.795-.859-10.605Z" transform="translate(30.673 1652.13)" fill="#02ada2"/>
    <path id="Path_10220" data-name="Path 10220" d="M280.693,316.5c-11.015,12.549-26.9,16.615-26.9,16.615s1.972-16.28,12.987-28.835S293.7,287.67,293.7,287.67,291.708,303.95,280.693,316.5Z" transform="translate(34.571 1644.222)" fill="#023742"/>
    <path id="Path_10221" data-name="Path 10221" d="M259.461,331.52a.352.352,0,0,1-.035-.5l33.408-38.062a.346.346,0,0,1,.5-.029.352.352,0,0,1,.035.5l-33.408,38.062a.346.346,0,0,1-.5.029Z" transform="translate(32.222 1642.033)" fill="#1bceae"/>
    <path id="Path_10222" data-name="Path 10222" d="M271.183,341.224a.358.358,0,0,1,.173-.617c.063,0,6.459-1.107,14.417-6.586a.346.346,0,0,1,.49.087.352.352,0,0,1-.092.49c-8.074,5.577-14.637,6.7-14.7,6.707A.357.357,0,0,1,271.183,341.224Z" transform="translate(27.259 1624.629)" fill="#1bceae"/>
    <path id="Path_10223" data-name="Path 10223" d="M287.315,340.12l-.04-.035a.363.363,0,0,1-.029-.5.352.352,0,0,1,.5-.029l.04.035a6.581,6.581,0,0,0,2.543,1.349.352.352,0,0,1-.156.686A7.118,7.118,0,0,1,287.315,340.12Z" transform="translate(20.446 1622.296)" fill="#1bceae"/>
    <path id="Path_10224" data-name="Path 10224" d="M291.582,319.161a.352.352,0,0,1-.11-.185.346.346,0,0,1,.265-.421c.064,0,6.551-1.569,10.507-4.965a.358.358,0,0,1,.5.04.352.352,0,0,1-.035.5c-4.089,3.506-10.536,5.052-10.807,5.115A.369.369,0,0,1,291.582,319.161Z" transform="translate(18.624 1633.284)" fill="#1bceae"/>
    <path id="Path_10225" data-name="Path 10225" d="M299.164,320.36a.353.353,0,0,1,.444-.548l2.664,1.949a.375.375,0,0,1,.075.5.352.352,0,0,1-.49.075l-2.664-1.949Z" transform="translate(15.419 1630.65)" fill="#1bceae"/>
    <path id="Path_10226" data-name="Path 10226" d="M281.968,324.207a.335.335,0,0,1-.115-.248c0-.3-.357-7.37,3.195-13.212a.352.352,0,1,1,.577.369c-3.46,5.652-3.1,12.733-3.091,12.808a.352.352,0,0,1-.334.369.357.357,0,0,1-.231-.087Z" transform="translate(22.696 1634.553)" fill="#1bceae"/>
    <path id="Path_10227" data-name="Path 10227" d="M282.271,317.539a.239.239,0,0,1-.052-.058l-2.111-2.843a.352.352,0,0,1,.075-.5.358.358,0,0,1,.49.075l2.111,2.843a.352.352,0,0,1-.513.479Z" transform="translate(23.46 1633.044)" fill="#1bceae"/>
    <path id="Path_10228" data-name="Path 10228" d="M265.553,345.607a.392.392,0,0,1-.115-.208,13.945,13.945,0,0,1,2.07-9.521.346.346,0,0,1,.49-.086.352.352,0,0,1,.086.49,13.412,13.412,0,0,0-1.949,9,.363.363,0,0,1-.288.409A.375.375,0,0,1,265.553,345.607Z" transform="translate(29.699 1623.88)" fill="#1bceae"/>
    <path id="Path_10229" data-name="Path 10229" d="M288.384,346.193c-16.724,6.3-33.754,2.145-33.754,2.145s10.052-14.377,26.764-20.68,33.76-2.145,33.76-2.145S305.1,339.889,288.384,346.193Z" transform="translate(34.216 1628.773)" fill="#025f6a"/>
    <path id="Path_10230" data-name="Path 10230" d="M263.342,348.386a.381.381,0,0,1,.219-.49l50.691-19.117a.381.381,0,0,1,.271.709l-50.7,19.117a.375.375,0,0,1-.484-.219Z" transform="translate(30.539 1626.828)" fill="#1bceae"/>
    <path id="Path_10231" data-name="Path 10231" d="M281.134,355.706a.382.382,0,0,1,.479-.49c.069,0,6.655,2.2,16.926,1.032a.377.377,0,1,1,.087.75c-10.455,1.188-17.186-1.044-17.255-1.067a.386.386,0,0,1-.236-.225Z" transform="translate(23.006 1615.638)" fill="#1bceae"/>
    <path id="Path_10232" data-name="Path 10232" d="M299.393,358.175v-.058a.378.378,0,1,1,.709-.26.2.2,0,0,0,0,.046,6.921,6.921,0,0,0,1.73,2.555.378.378,0,1,1-.49.577A7.664,7.664,0,0,1,299.393,358.175Z" transform="translate(15.277 1614.616)" fill="#1bceae"/>
    <path id="Path_10233" data-name="Path 10233" d="M312.1,344.026a.445.445,0,0,1,0-.231.375.375,0,0,1,.461-.265c.069,0,6.978,1.817,12.422.577a.386.386,0,0,1,.45.283.375.375,0,0,1-.288.45c-5.623,1.257-12.485-.531-12.774-.611A.363.363,0,0,1,312.1,344.026Z" transform="translate(9.895 1620.582)" fill="#1bceae"/>
    <path id="Path_10234" data-name="Path 10234" d="M320.508,345.486a.376.376,0,0,1,.692-.294l1.534,3.183a.392.392,0,0,1-.173.5.381.381,0,0,1-.507-.173l-1.534-3.183A.08.08,0,0,0,320.508,345.486Z" transform="translate(6.342 1619.969)" fill="#1bceae"/>
    <path id="Path_10235" data-name="Path 10235" d="M297.508,341.671a.375.375,0,0,1,0-.294c.133-.288,3.374-7.14,9.665-10.865a.379.379,0,1,1,.386.652c-6.1,3.61-9.337,10.467-9.371,10.536a.369.369,0,0,1-.5.179.363.363,0,0,1-.185-.208Z" transform="translate(16.078 1626.109)" fill="#1bceae"/>
    <path id="Path_10236" data-name="Path 10236" d="M305.984,334.314a.331.331,0,0,1,0-.081l-.577-3.749a.381.381,0,0,1,.317-.427.392.392,0,0,1,.432.317l.577,3.749a.39.39,0,0,1-.75.19Z" transform="translate(12.723 1626.28)" fill="#1bceae"/>
    <path id="Path_10237" data-name="Path 10237" d="M272.744,353.175a.364.364,0,0,1,0-.248,14.908,14.908,0,0,1,6.742-7.947.381.381,0,1,1,.352.669c-4.66,2.4-6.344,7.462-6.378,7.5a.375.375,0,0,1-.709,0Z" transform="translate(26.557 1619.99)" fill="#1bceae"/>
    <path id="Path_10238" data-name="Path 10238" d="M103.772,306.481s5.409-3.022,3.4-13.633l-1.92,2.676s3.46-9.1-3.293-19.763l-1.92,2.128s-.513-4.037-5.83-8.9Z" transform="translate(102.123 1652.13)" fill="#1bceae"/>
    <path id="Path_10239" data-name="Path 10239" d="M101.156,306.451s-6.223-.086-9.515-10.38l2.97,1.43a8.685,8.685,0,0,1-4.5-7.422l3.593,1.09s-5.548-2.964-5.675-12.6l2.7.952s-1.482-3.795.859-10.605Z" transform="translate(104.738 1652.159)" fill="#02ada2"/>
    <path id="Path_10240" data-name="Path 10240" d="M63.833,316.495c11.015,12.549,26.891,16.615,26.891,16.615s-1.972-16.28-12.987-28.835-26.9-16.615-26.9-16.615S52.818,303.946,63.833,316.495Z" transform="translate(120.481 1644.226)" fill="#023742"/>
    <path id="Path_10241" data-name="Path 10241" d="M89.311,331.52a.352.352,0,0,0,.035-.5L55.937,292.962a.346.346,0,0,0-.5-.029.352.352,0,0,0-.035.5l33.408,38.062a.346.346,0,0,0,.5.029Z" transform="translate(118.585 1642.033)" fill="#1bceae"/>
    <path id="Path_10242" data-name="Path 10242" d="M91.425,341.224a.358.358,0,0,0-.173-.617c-.063,0-6.459-1.107-14.417-6.586a.346.346,0,0,0-.49.087.352.352,0,0,0,.092.49c8.074,5.577,14.636,6.7,14.7,6.707A.357.357,0,0,0,91.425,341.224Z" transform="translate(109.711 1624.629)" fill="#1bceae"/>
    <path id="Path_10243" data-name="Path 10243" d="M83.969,340.12l.04-.035a.363.363,0,0,0,0-.5.352.352,0,0,0-.5-.029l-.04.035a6.581,6.581,0,0,1-2.514,1.338.352.352,0,1,0,.156.686A7.116,7.116,0,0,0,83.969,340.12Z" transform="translate(107.848 1622.296)" fill="#1bceae"/>
    <path id="Path_10244" data-name="Path 10244" d="M73.886,319.161a.352.352,0,0,0,.11-.185.346.346,0,0,0-.265-.421c-.063,0-6.551-1.569-10.507-4.965a.358.358,0,0,0-.5.04.352.352,0,0,0,.035.5c4.089,3.506,10.536,5.052,10.807,5.115A.369.369,0,0,0,73.886,319.161Z" transform="translate(115.486 1633.284)" fill="#1bceae"/>
    <path id="Path_10245" data-name="Path 10245" d="M72.168,320.36a.353.353,0,0,0-.444-.548l-2.664,1.949a.375.375,0,0,0-.075.5.352.352,0,0,0,.49.075l2.664-1.949Z" transform="translate(112.827 1630.65)" fill="#1bceae"/>
    <path id="Path_10246" data-name="Path 10246" d="M89.052,324.307a.334.334,0,0,0,.115-.248c0-.3.358-7.37-3.195-13.212a.352.352,0,0,0-.577.369c3.46,5.652,3.1,12.733,3.091,12.808a.352.352,0,0,0,.334.369A.357.357,0,0,0,89.052,324.307Z" transform="translate(105.862 1634.453)" fill="#1bceae"/>
    <path id="Path_10247" data-name="Path 10247" d="M89.462,317.547a.237.237,0,0,0,.058-.046l2.111-2.843a.352.352,0,0,0-.075-.5.358.358,0,0,0-.49.075l-2.122,2.832a.352.352,0,0,0,.513.479Z" transform="translate(104.385 1633.036)" fill="#1bceae"/>
    <path id="Path_10248" data-name="Path 10248" d="M106.165,345.607a.392.392,0,0,0,.115-.208,13.944,13.944,0,0,0-2.07-9.521.346.346,0,0,0-.49-.086.352.352,0,0,0-.087.49,13.413,13.413,0,0,1,1.949,9,.363.363,0,0,0,.288.409.375.375,0,0,0,.294-.081Z" transform="translate(98.161 1623.88)" fill="#1bceae"/>
    <path id="Path_10249" data-name="Path 10249" d="M41,346.193c16.724,6.3,33.754,2.145,33.754,2.145S64.7,333.961,47.99,327.658s-33.76-2.145-33.76-2.145S24.282,339.889,41,346.193Z" transform="translate(135.979 1628.773)" fill="#025f6a"/>
    <path id="Path_10250" data-name="Path 10250" d="M72.749,348.393a.381.381,0,0,0-.219-.49L21.838,328.785a.381.381,0,0,0-.271.7l50.7,19.117A.375.375,0,0,0,72.749,348.393Z" transform="translate(132.949 1626.821)" fill="#1bceae"/>
    <path id="Path_10251" data-name="Path 10251" d="M79.576,355.706a.382.382,0,0,0-.479-.49c-.063,0-6.655,2.2-16.926,1.032a.377.377,0,1,0-.087.75c10.455,1.188,17.185-1.044,17.255-1.067a.387.387,0,0,0,.236-.225Z" transform="translate(115.863 1615.638)" fill="#1bceae"/>
    <path id="Path_10252" data-name="Path 10252" d="M72.512,358.175v-.058a.378.378,0,0,0-.709-.26.2.2,0,0,1,0,.046,6.921,6.921,0,0,1-1.73,2.555.378.378,0,1,0,.49.577,7.664,7.664,0,0,0,1.949-2.86Z" transform="translate(112.397 1614.616)" fill="#1bceae"/>
    <path id="Path_10253" data-name="Path 10253" d="M51.906,344.026a.392.392,0,0,0,0-.231.375.375,0,0,0-.461-.265c-.069,0-6.978,1.817-12.422.577a.386.386,0,0,0-.45.283.375.375,0,0,0,.288.45c5.623,1.257,12.485-.531,12.774-.611A.363.363,0,0,0,51.906,344.026Z" transform="translate(125.678 1620.582)" fill="#1bceae"/>
    <path id="Path_10254" data-name="Path 10254" d="M51.622,345.486a.376.376,0,0,0-.692-.294L49.4,348.375a.392.392,0,0,0,.173.5.381.381,0,0,0,.508-.173l1.534-3.183A.227.227,0,0,1,51.622,345.486Z" transform="translate(121.107 1619.969)" fill="#1bceae"/>
    <path id="Path_10255" data-name="Path 10255" d="M68.766,341.671a.375.375,0,0,0,0-.294c-.133-.288-3.374-7.14-9.665-10.865a.379.379,0,1,0-.386.652c6.084,3.61,9.314,10.467,9.36,10.565a.369.369,0,0,0,.5.179A.346.346,0,0,0,68.766,341.671Z" transform="translate(117.226 1626.109)" fill="#1bceae"/>
    <path id="Path_10256" data-name="Path 10256" d="M66.847,334.314a.328.328,0,0,0,0-.081l.577-3.749a.381.381,0,0,0-.317-.427.392.392,0,0,0-.433.317l-.577,3.749a.391.391,0,0,0,.75.19Z" transform="translate(114.025 1626.28)" fill="#1bceae"/>
    <path id="Path_10257" data-name="Path 10257" d="M95.7,353.194a.363.363,0,0,0,0-.248A14.908,14.908,0,0,0,88.957,345a.377.377,0,0,0-.346.669,14.225,14.225,0,0,1,6.344,7.5.375.375,0,0,0,.709,0Z" transform="translate(104.579 1619.972)" fill="#1bceae"/>
    <path id="Path_10258" data-name="Path 10258" d="M256.265,176.988h-1.707l-.7-13.558h1.672Z" transform="translate(34.541 1696.814)" fill="#bbd0ff"/>
    <path id="Path_10259" data-name="Path 10259" d="M185.593,126.25H119.481c-3.022,0-5.582,2.14-5.7,4.787L107.4,265.983a6.251,6.251,0,0,0,6.2,6.678h78.632a6.217,6.217,0,0,0,6.165-6.678L191.36,131.037C191.2,128.413,188.638,126.25,185.593,126.25Zm-68,4.787a1.667,1.667,0,0,1,1.73-1.465h66.447a1.678,1.678,0,0,1,1.73,1.465l6.384,134.946A1.892,1.892,0,0,1,192.006,268H113.789a1.9,1.9,0,0,1-1.886-2.018Z" transform="translate(96.546 1712.552)" fill="#001f4f"/>
    <path id="Path_10260" data-name="Path 10260" d="M185.593,119.5H119.481c-3.022,0-5.582,2.14-5.7,4.787L107.4,259.233a6.246,6.246,0,0,0,6.2,6.678h78.632a6.211,6.211,0,0,0,6.165-6.678L191.36,124.287C191.2,121.64,188.638,119.5,185.593,119.5Zm-68,4.787a1.667,1.667,0,0,1,1.73-1.459h66.447a1.672,1.672,0,0,1,1.73,1.459l6.384,134.946a1.886,1.886,0,0,1-1.874,2.018H113.789a1.9,1.9,0,0,1-1.886-2.018Z" transform="translate(96.546 1715.41)" fill="#003075"/>
    <path id="Path_10261" data-name="Path 10261" d="M192.668,265.609H114.1a5.629,5.629,0,0,1-5.588-6.009L114.8,124.654c.11-2.387,2.411-4.314,5.138-4.314H186.1c2.728,0,5.04,1.926,5.19,4.314L198.256,259.6a5.594,5.594,0,0,1-5.588,6.009Z" transform="translate(96.074 1715.054)" fill="#132878"/>
    <ellipse id="Ellipse_383" data-name="Ellipse 383" cx="12.243" cy="8.276" rx="12.243" ry="8.276" transform="translate(236.914 1898.398)" fill="#154ec5"/>
    <ellipse id="Ellipse_384" data-name="Ellipse 384" cx="7.958" cy="5.381" rx="7.958" ry="5.381" transform="translate(241.199 1900.583)" fill="#156af7"/>
    <path id="Path_10262" data-name="Path 10262" d="M186.943,239.553c0,1.592-1.909,2.883-4.262,2.883s-4.262-1.286-4.262-2.883,1.909-2.883,4.262-2.883S186.943,237.962,186.943,239.553Z" transform="translate(66.476 1665.811)" fill="#2f9af7"/>
    <ellipse id="Ellipse_385" data-name="Ellipse 385" cx="2.682" cy="1.811" rx="2.682" ry="1.811" transform="translate(246.857 1956.776)" fill="#13214f"/>
    <path id="Path_10263" data-name="Path 10263" d="M186.214,122.7a2.226,2.226,0,0,1,2.307,1.938L195,259.58a2.509,2.509,0,0,1-2.491,2.682h-78.28a2.52,2.52,0,0,1-2.5-2.682l5.807-134.946a2.209,2.209,0,0,1,2.307-1.938H186.22m-.11-2.376H119.935c-2.728,0-5.029,1.926-5.138,4.314L108.511,259.58a5.628,5.628,0,0,0,5.588,6.009h78.569a5.594,5.594,0,0,0,5.559-6.009l-6.972-134.946c-.121-2.388-2.434-4.314-5.19-4.314Z" transform="translate(96.074 1715.062)" fill="#2f9af7"/>
    <path id="Path_10264" data-name="Path 10264" d="M114.723,176.129h0a1.615,1.615,0,0,1-1.615-1.7l.231-4.763a1.62,1.62,0,0,1,1.615-1.54h.144Z" transform="translate(94.124 1694.824)" fill="#bbd0ff"/>
    <path id="Path_10265" data-name="Path 10265" d="M115.61,157.7h0a1.6,1.6,0,0,1-1.592-1.678l.225-4.614a1.6,1.6,0,0,1,1.6-1.517h.138Z" transform="translate(93.738 1702.545)" fill="#bbd0ff"/>
    <path id="Path_10266" data-name="Path 10266" d="M117.329,139.184h-.669l.15-3.074h.663Z" transform="translate(92.619 1708.378)" fill="#bbd0ff"/>
    <path id="Path_10267" data-name="Path 10267" d="M224.263,133.417h-10.04a3.212,3.212,0,0,1-3.374-2.883h0a3.026,3.026,0,0,1,3.229-2.883h9.96a3.274,3.274,0,0,1,3.414,2.883h0A2.972,2.972,0,0,1,224.263,133.417Z" transform="translate(52.748 1711.96)" fill="#2f9af7"/>
    <path id="Path_10268" data-name="Path 10268" d="M234.366,131.477a1.58,1.58,0,0,1-1.69,1.54,1.73,1.73,0,0,1-1.817-1.54,1.586,1.586,0,0,1,1.7-1.54A1.73,1.73,0,0,1,234.366,131.477Z" transform="translate(44.278 1710.993)" fill="#003075"/>
    <path id="Path_10269" data-name="Path 10269" d="M234.209,131.824a1.1,1.1,0,0,1-1.182,1.067,1.205,1.205,0,0,1-1.257-1.067,1.1,1.1,0,0,1,1.153-1.067A1.205,1.205,0,0,1,234.209,131.824Z" transform="translate(43.893 1710.645)"/>
    <path id="Path_10270" data-name="Path 10270" d="M234.032,132.288a.444.444,0,0,1-.479.433.5.5,0,0,1-.513-.433.456.456,0,0,1,.484-.438.484.484,0,0,1,.507.438Z" transform="translate(43.355 1710.182)" fill="#151025"/>
    <path id="Path_10271" data-name="Path 10271" d="M226.585,131.825a1.1,1.1,0,0,1-1.153,1.067,1.194,1.194,0,0,1-1.251-1.067,1.107,1.107,0,0,1,1.182-1.067A1.188,1.188,0,0,1,226.585,131.825Z" transform="translate(47.105 1710.645)" fill="#003075"/>
    <path id="Path_10272" data-name="Path 10272" d="M226.484,132.016a.825.825,0,0,1-.888.8.9.9,0,0,1-.946-.8.842.842,0,0,1,.894-.807A.9.9,0,0,1,226.484,132.016Z" transform="translate(46.907 1710.454)"/>
    <path id="Path_10273" data-name="Path 10273" d="M226.309,132.44a.236.236,0,0,1-.254.225.26.26,0,0,1-.265-.225.242.242,0,0,1,.254-.231A.254.254,0,0,1,226.309,132.44Z" transform="translate(46.424 1710.029)" fill="#151025"/>
    <path id="Path_10274" data-name="Path 10274" d="M219.894,131.825a1.113,1.113,0,0,1-1.188,1.067,1.182,1.182,0,0,1-1.246-1.067,1.107,1.107,0,0,1,1.188-1.067,1.188,1.188,0,0,1,1.246,1.067Z" transform="translate(49.95 1710.645)" fill="#003075"/>
    <path id="Path_10275" data-name="Path 10275" d="M219.81,132.016a.836.836,0,0,1-.9.8.894.894,0,0,1-.94-.8.842.842,0,0,1,.9-.807A.9.9,0,0,1,219.81,132.016Z" transform="translate(49.734 1710.454)"/>
    <path id="Path_10276" data-name="Path 10276" d="M219.619,132.44a.242.242,0,0,1-.254.225.254.254,0,0,1-.265-.225.236.236,0,0,1,.254-.231A.26.26,0,0,1,219.619,132.44Z" transform="translate(49.256 1710.029)" fill="#151025"/>
    <ellipse id="Ellipse_386" data-name="Ellipse 386" cx="10.663" cy="10.663" rx="10.663" ry="10.663" transform="translate(212.443 1885.732) rotate(-53.81)" fill="#1350d7"/>
    <path id="Path_10277" data-name="Path 10277" d="M177.788,225.182h0a5.219,5.219,0,0,1-7.278-1.032l-8.489-11.257a5.19,5.19,0,0,1,1.027-7.278h0a5.19,5.19,0,0,1,7.272,1.032l8.495,11.286A5.19,5.19,0,0,1,177.788,225.182Z" transform="translate(73.861 1679.398)" fill="#131139"/>
    <path id="Path_10278" data-name="Path 10278" d="M155.232,136.34c-4.037,12.237-21.684,25.5-21.684,25.5-4.227,3.183-3.639,11.1,1.315,17.681s12.4,9.342,16.626,6.165c0,0,17.624-13.264,30.507-13.766-8.725-12.895-16.147-15.726-16.147-15.726S165.2,148.3,155.232,136.34Z" transform="translate(86.665 1708.281)" fill="#1395f3"/>
    <ellipse id="Ellipse_387" data-name="Ellipse 387" cx="16.938" cy="24.89" rx="16.938" ry="24.89" transform="translate(231.185 1849.393) rotate(-36.95)" fill="#1323be"/>
    <ellipse id="Ellipse_388" data-name="Ellipse 388" cx="15.98" cy="24.89" rx="15.98" ry="24.89" transform="translate(233.257 1847.831) rotate(-36.95)" fill="#1350d7"/>
    <ellipse id="Ellipse_389" data-name="Ellipse 389" cx="12.941" cy="20.155" rx="12.941" ry="20.155" transform="translate(240.421 1848.368) rotate(-36.95)" fill="#132571"/>
    <path id="Path_10279" data-name="Path 10279" d="M182.39,146.158a29.3,29.3,0,0,0,15.444,20.53l8.385-10.819-4.273-8.351-6.84-6.419Z" transform="translate(64.795 1706.266)" fill="#131139"/>
    <path id="Path_10280" data-name="Path 10280" d="M213.451,144.315c3.068,4.083,3.46,8.985.819,10.957s-7.232.26-10.3-3.818-3.431-8.979-.813-10.957S210.4,140.237,213.451,144.315Z" transform="translate(56.745 1706.869)" fill="#ffeb68"/>
    <path id="Path_10281" data-name="Path 10281" d="M215.567,149.413c.905,1.2,1.009,2.641.242,3.218s-2.122.075-3.022-1.119-1.009-2.641-.242-3.218S214.667,148.219,215.567,149.413Z" transform="translate(52.247 1703.322)" fill="#2f9af7"/>
    <ellipse id="Ellipse_390" data-name="Ellipse 390" cx="9.712" cy="15.127" rx="9.712" ry="15.127" transform="translate(249.842 1847.253) rotate(-36.95)" fill="none" stroke="#ffeb68" stroke-miterlimit="10" stroke-width="1"/>
    <ellipse id="Ellipse_391" data-name="Ellipse 391" cx="13.57" cy="21.142" rx="13.57" ry="21.142" transform="translate(243.776 1844.13) rotate(-36.95)" fill="none" stroke="#ffeb68" stroke-miterlimit="10" stroke-width="1"/>
    <path id="Path_10282" data-name="Path 10282" d="M237.072,367.5s-6.188-1.361-6.8-10.352l2.6,1.782s-5.767-6.672-1.592-16.655l2.451,1.344s-.484-3.379,3.656-8.368Z" transform="translate(44.744 1624.082)" fill="#1bceae"/>
    <path id="Path_10283" data-name="Path 10283" d="M242.44,367.473s6.211-1.286,7-10.265l-2.63,1.73s3.887-2.63,2.676-6.92l-3.339,1.6s4.838-3.5,2.578-11.326l-2.48,1.309s.577-3.368-3.495-8.408Z" transform="translate(39.376 1624.107)" fill="#02ada2"/>
    <path id="Path_10284" data-name="Path 10284" d="M247.081,380.544s-2.664-2.572-.219-7.237l.75,1.678a9.543,9.543,0,0,1,4.3-8.783l.813,1.419s.79-1.834,4.383-3.051Z" transform="translate(37.941 1611.67)" fill="#1bceae"/>
    <path id="Path_10285" data-name="Path 10285" d="M248,380.544s3.489,1.263,6.632-2.976l-1.845.069a3.882,3.882,0,0,0,3.46-2.618l-2.157-.231s3.46-.265,4.752-4.856l-1.638-.1s1.309-1.511.836-5.259Z" transform="translate(37.022 1611.67)" fill="#02ada2"/>
    <path id="Path_10286" data-name="Path 10286" d="M135.351,377.375a4.187,4.187,0,0,1-3.368-3.806l1.286.657a4.833,4.833,0,0,1-.773-6.119l1.217.5s-.242-1.24,1.811-3.074Z" transform="translate(86.235 1611.264)" fill="#02ada2"/>
    <path id="Path_10287" data-name="Path 10287" d="M138,377.371a4.285,4.285,0,0,0,3.46-3.772l-1.3.64s1.932-.963,1.332-2.532l-1.661.577a3.206,3.206,0,0,0,1.28-4.158l-1.228.484s.271-1.24-1.73-3.091Z" transform="translate(83.586 1611.268)" fill="#1bceae"/>
    <path id="Path_10288" data-name="Path 10288" d="M127.516,377.723s2.422-2.341.2-6.58l-.68,1.528a8.685,8.685,0,0,0-3.91-7.987l-.738,1.28s-.721-1.667-3.979-2.774Z" transform="translate(91.879 1612.254)" fill="#1bceae"/>
    <path id="Path_10289" data-name="Path 10289" d="M126.978,377.731s-3.166,1.153-6.021-2.7l1.678.063A3.511,3.511,0,0,1,119.5,372.7l1.961-.2s-3.172-.242-4.319-4.412l1.488-.1s-1.188-1.373-.755-4.781Z" transform="translate(92.416 1612.246)" fill="#02ada2"/>
    <path id="Path_10290" data-name="Path 10290" d="M350.554,174.334c-7.739,4.383-25.1,27.8-19.729,34.336s16.834.7,24.711-10.479S364.078,166.669,350.554,174.334Z" transform="translate(2.391 1692.911)" fill="#99cbff"/>
    <path id="Path_10291" data-name="Path 10291" d="M12.27,154.039c9.227-2.63,20.484-14.348,24.619-24.469,3.351-8.218.623-13.95-8.425-13.61s-26.39,6.747-28.091,19S2.743,156.72,12.27,154.039Z" transform="translate(142.004 1716.914)" fill="#99cbff"/>
    <path id="Path_10292" data-name="Path 10292" d="M47.595,87.82c.675,4.6,4.216,9.948,9.59,8.218s6.344-10.842.848-17.243C53.921,74.014,46.383,79.5,47.595,87.82Z" transform="translate(121.91 1733.393)" fill="#99cbff"/>
    <path id="Path_10293" data-name="Path 10293" d="M341.127,248.941c1.153-5.917-10.957-6.384-10.081-2.439S340.158,254.016,341.127,248.941Z" transform="translate(1.887 1662.732)" fill="#99cbff"/>
    <rect id="Rectangle_24617" data-name="Rectangle 24617" width="11.782" height="11.782" transform="translate(241.209 1950.252) rotate(-45)" fill="#fe9327"/>
    <path id="Path_10294" data-name="Path 10294" d="M182.235,300.52H142.719a12.929,12.929,0,0,1-12.929-12.935h0a12.929,12.929,0,0,1,12.929-12.935h39.515a12.935,12.935,0,0,1,12.935,12.935h0A12.935,12.935,0,0,1,182.235,300.52Z" transform="translate(87.061 1649.734)" fill="#fec43d"/>
    <text id="ASK_A_" data-name="ASK A " transform="translate(237.132 1934.331)" fill="#fff" font-size="8" font-family="Roboto-Black, Roboto" font-weight="800" letter-spacing="0.039em"><tspan x="0" y="0">ASK A </tspan></text>
    <text id="Question" transform="translate(226.88 1944.883)" fill="#fff" font-size="8" font-family="Montserrat-Bold, Montserrat" font-weight="700" letter-spacing="0.12em"><tspan x="0" y="0">Question</tspan></text>
    <path id="Path_10295" data-name="Path 10295" d="M147.228,256.374h0a2.134,2.134,0,0,1-2.128-2.151v-7.1a2.134,2.134,0,0,1,2.128-2.128h0a2.134,2.134,0,0,1,2.122,2.128v7.1a2.134,2.134,0,0,1-2.122,2.151Z" transform="translate(80.581 1662.289)" fill="#fec43d"/>
    <path id="Path_10296" data-name="Path 10296" d="M155.092,264.147h0a2.128,2.128,0,0,1,0-3.01l5.04-5.04a2.134,2.134,0,0,1,3,0h0a2.128,2.128,0,0,1,0,3.01l-5.04,5.04A2.134,2.134,0,0,1,155.092,264.147Z" transform="translate(76.615 1657.849)" fill="#fec43d"/>
    <path id="Path_10297" data-name="Path 10297" d="M134.066,264.147h0a2.139,2.139,0,0,0,0-3.01l-5.046-5.04a2.134,2.134,0,0,0-3,0h0a2.14,2.14,0,0,0,0,3.01l5.04,5.04A2.139,2.139,0,0,0,134.066,264.147Z" transform="translate(88.921 1657.849)" fill="#fec43d"/>
    <path id="Path_10298" data-name="Path 10298" d="M72.927,297.034l-.577-6.274,4.988,5.294a27.5,27.5,0,0,1-4.412.98Z" transform="translate(111.376 1642.914)" fill="#ffb500"/>
    <path id="Path_10299" data-name="Path 10299" d="M104.338,294.012l-4.988,9.141,8.512.029,4.821-8.887a.456.456,0,0,0-.4-.675H105.03a.784.784,0,0,0-.692.392Z" transform="translate(99.947 1641.704)" fill="#000d57"/>
    <path id="Path_10300" data-name="Path 10300" d="M105.463,294.67l-4.533,8.3,7.4.023,4.51-8.31Z" transform="translate(99.278 1641.259)" fill="#ffbf1c"/>
    <ellipse id="Ellipse_392" data-name="Ellipse 392" cx="2.514" cy="1.499" rx="2.514" ry="1.499" transform="matrix(0.698, -0.716, 0.716, 0.698, 202.886, 1941.609)" fill="#ff861c"/>
    <path id="Path_10301" data-name="Path 10301" d="M110.289,301.654a2.336,2.336,0,0,1-1.805,1.361c-.652,0-.894-.606-.542-1.35a2.307,2.307,0,0,1,1.811-1.355C110.4,300.3,110.635,300.9,110.289,301.654Z" transform="translate(96.379 1638.871)" fill="#ff9c1c"/>
    <path id="Path_10302" data-name="Path 10302" d="M101.55,293.031a2,2,0,1,1-1.322-.783,2.007,2.007,0,0,1,1.322.783Z" transform="translate(100.544 1642.292)" fill="#1350d7"/>
    <path id="Path_10303" data-name="Path 10303" d="M107.031,299.761h0a.98.98,0,0,1-1.367-.19l-1.6-2.128a.98.98,0,0,1,.19-1.367h0a.986.986,0,0,1,1.373.19l1.6,2.128a.975.975,0,0,1-.2,1.367Z" transform="translate(98.033 1640.747)" fill="#131139"/>
    <path id="Path_10304" data-name="Path 10304" d="M102.787,283c-.761,2.307-4.077,4.8-4.077,4.8-.8.577-.686,2.088.242,3.327s2.307,1.759,3.131,1.153c0,0,3.316-2.5,5.767-2.589a7.742,7.742,0,0,0-3.039-2.964A8.147,8.147,0,0,0,102.787,283Z" transform="translate(100.443 1646.198)" fill="#fff"/>
    <ellipse id="Ellipse_393" data-name="Ellipse 393" cx="3.189" cy="4.683" rx="3.189" ry="4.683" transform="translate(201.214 1930.131) rotate(-36.95)" fill="#1323be"/>
    <path id="Path_10305" data-name="Path 10305" d="M112.094,282.588c1.557,2.07,1.73,4.556.415,5.554s-3.668.133-5.219-1.938-1.73-4.55-.415-5.548S110.543,280.523,112.094,282.588Z" transform="translate(97.134 1647.367)" fill="#1350d7"/>
    <path id="Path_10306" data-name="Path 10306" d="M112.76,283.052c1.263,1.672,1.413,3.685.334,4.492s-2.964.11-4.227-1.569-1.407-3.685-.335-4.492S111.5,281.374,112.76,283.052Z" transform="translate(96.364 1646.983)" fill="#132571"/>
    <path id="Path_10307" data-name="Path 10307" d="M107.9,284.892a5.236,5.236,0,0,0,1,2.266,5.143,5.143,0,0,0,1.9,1.6l1.58-2.036-.807-1.569-1.286-1.211Z" transform="translate(96.328 1645.801)" fill="#131139"/>
    <path id="Path_10308" data-name="Path 10308" d="M113.743,284.549c.577.767.646,1.69.156,2.059s-1.361.052-1.943-.715-.646-1.7-.15-2.065S113.166,283.782,113.743,284.549Z" transform="translate(94.816 1645.913)" fill="#ffeb68"/>
    <path id="Path_10309" data-name="Path 10309" d="M114.135,285.5c.173.225.19.5.046.605s-.4,0-.577-.208-.19-.5-.04-.605S113.967,285.279,114.135,285.5Z" transform="translate(93.974 1645.246)" fill="#fff"/>
    <path id="Path_10310" data-name="Path 10310" d="M56.45,393.146c0,2.451,5.346,4.441,11.943,4.441s11.943-1.99,11.943-4.441S74.985,388.7,68.393,388.7,56.45,390.69,56.45,393.146Z" transform="translate(118.106 1601.455)" fill="#017abf" opacity="0.09"/>
    <path id="Path_10311" data-name="Path 10311" d="M81.98,280.71l.144.957-.894.1-.34-.657Z" transform="translate(107.761 1647.168)" fill="#fff"/>
    <path id="Path_10312" data-name="Path 10312" d="M76.407,281.682v-1.436a4.318,4.318,0,0,0,2.226-.4v-1.309l-.173-1.546-.427-2.474-.1-1.2-.755.513-.363,2.186-.4-.859s-.709-.386-.969.311a.929.929,0,0,0,.969,1.269L75.254,279.1l-2.624.144v2.422Z" transform="translate(111.257 1650.297)" fill="#ffcda9"/>
    <path id="Path_10313" data-name="Path 10313" d="M71.231,287.444s1.943-1.153,5.133,0l.744,1.419L71,288.545Z" transform="translate(111.947 1644.535)" fill="#14afff"/>
    <path id="Path_10314" data-name="Path 10314" d="M63.469,292A63.961,63.961,0,0,0,59,303.078l2.883,9.983,4.037-11.194Z" transform="translate(117.027 1642.389)" fill="#14afff"/>
    <path id="Path_10315" data-name="Path 10315" d="M65.529,290.687s3.379-3.524,10.38-.681l1.153,21.759H63.943S63.331,299.3,65.529,290.687Z" transform="translate(114.968 1643.702)" fill="#003ade"/>
    <path id="Path_10316" data-name="Path 10316" d="M109.6,307.843l2.065-1.972.04,1.009,2.2-1.88a4.931,4.931,0,0,1-3.114,4.181Z" transform="translate(95.608 1636.886)" fill="#ffcda9"/>
    <path id="Path_10317" data-name="Path 10317" d="M110.49,307.209l1.119-1.275,1.119-1.274a.629.629,0,0,1,.1.807l-.75,1.269" transform="translate(95.231 1637.03)" fill="#ffcda9"/>
    <path id="Path_10318" data-name="Path 10318" d="M82.7,290.79s1.586,6.188,6.044,9.8a8.6,8.6,0,0,0,7.134,1.638l1.7,1.943a13.4,13.4,0,0,1-11.124.323,11.071,11.071,0,0,1-6.453-7.059S79.177,291.661,82.7,290.79Z" transform="translate(108.176 1642.901)" fill="#14afff"/>
    <rect id="Rectangle_24618" data-name="Rectangle 24618" width="1.448" height="2.578" transform="translate(206.832 1946.155) rotate(138.84)" fill="#3bfaff"/>
    <path id="Path_10319" data-name="Path 10319" d="M79.87,394.478V395a.386.386,0,0,0,.386.386h7.837s-1.09-2.013-4.885-2.14A10.627,10.627,0,0,0,79.87,394.478Z" transform="translate(108.193 1599.53)" fill="#000f1f"/>
    <path id="Path_10320" data-name="Path 10320" d="M59.51,393.149v.779a.473.473,0,0,0,.473.473h1.061a1.469,1.469,0,0,0,.5-.087l4.319-1.632s-1.153-1.344-3.731-.49Z" transform="translate(116.811 1600.097)" fill="#000f1f"/>
    <path id="Path_10321" data-name="Path 10321" d="M62.053,328.52l-.629,20.761a31.137,31.137,0,0,0-.975,3.16c-1.234,4.688-1.038,14.019-1.038,14.019a1.968,1.968,0,0,0,2.67-.15l4.037-18.079,2.532-12.174,1.649,11.77a17.663,17.663,0,0,0-.577,7.376c.283,2.883,1.482,11.874,1.482,11.874s2.209-.156,3.143-1.188l.825-21.563V328.52Z" transform="translate(116.857 1626.93)" fill="#001f5e"/>
    <path id="Path_10322" data-name="Path 10322" d="M71.717,338.631l-1.032-1.874-3.985-2.2,3.679,3.818-1.794,15.144Z" transform="translate(113.768 1624.373)" fill="#00143e"/>
    <path id="Path_10323" data-name="Path 10323" d="M77.1,328.52,63.95,330.014,64,328.52Z" transform="translate(114.932 1626.93)" fill="#001f5f"/>
    <path id="Path_10324" data-name="Path 10324" d="M69.651,267.73,69.143,266a6.432,6.432,0,0,0-.358,3.114s-3.264,3.922,1.765,7.059l.865.819,1.73-.963,1.153-2.365a1.026,1.026,0,0,1-1.009-.871.675.675,0,0,1,1.009-.709l.4,1.1.346-2.4s2.7,0,2.7-3.725C77.788,267.044,73.37,265.008,69.651,267.73Z" transform="translate(113.326 1653.395)" fill="#131139"/>
    <path id="Path_10325" data-name="Path 10325" d="M261.24,393.075c0,1.534,3.345,2.78,7.468,2.78s7.5-1.246,7.5-2.78-3.345-2.785-7.5-2.785S261.24,391.536,261.24,393.075Z" transform="translate(31.418 1600.783)" fill="#017abf" opacity="0.09"/>
    <path id="Path_10326" data-name="Path 10326" d="M308.9,393.922c0,.9,1.961,1.632,4.383,1.632s4.383-.732,4.383-1.632-1.961-1.632-4.383-1.632S308.9,393.017,308.9,393.922Z" transform="translate(11.243 1599.936)" fill="#017abf" opacity="0.09"/>
    <path id="Path_10327" data-name="Path 10327" d="M285.5,269.666a6.961,6.961,0,0,1-1.874,5.461,11.288,11.288,0,0,1-4.227-2.543l-1.378-1.759-.369-2.808,2.884-.727" transform="translate(24.472 1652.849)" fill="#131139"/>
    <path id="Path_10328" data-name="Path 10328" d="M270.928,290.373s-11.984,2.411-18.662-3.033l-1.436,1.834a31.378,31.378,0,0,0,22.445,5.767S273.829,292.87,270.928,290.373Z" transform="translate(35.824 1644.362)" fill="#ffcda9"/>
    <path id="Path_10329" data-name="Path 10329" d="M275.583,293.51l-.813,3.91,1.113.15Z" transform="translate(25.69 1641.75)" fill="#ffbd95"/>
    <path id="Path_10330" data-name="Path 10330" d="M276.09,291.613l.363,5.029h3.927l.634-5.8Z" transform="translate(25.132 1642.88)" fill="#14afff"/>
    <path id="Path_10331" data-name="Path 10331" d="M247.5,285.08l-2.111-2.122L239.577,282s-.484,1.153,3.622,1.7l-.456,1.194,1.032,1.8,2.307.2,1.436,1.015Z" transform="translate(40.595 1646.622)" fill="#ffcda9"/>
    <path id="Path_10332" data-name="Path 10332" d="M287.659,284.925s.363-.288.49-.167a9.879,9.879,0,0,1,3.627,5.605c.854,4.083,3.841,19.129,3.841,19.129L285.2,311.327l-2.883-15.807s-1.073-4.089.577-7.024" transform="translate(22.64 1645.467)" fill="#003ade"/>
    <path id="Path_10333" data-name="Path 10333" d="M283.757,307.617c9.227-3.668,7.5-14.417,7.5-14.417L282.8,303.7Z" transform="translate(22.291 1641.881)" opacity="0.49" fill="url(#linear-gradient)"/>
    <path id="Path_10334" data-name="Path 10334" d="M275.947,271.41a14.407,14.407,0,0,0,1.027,8.189,3.622,3.622,0,0,0,2.543-.133l1.361,2.555,3.489-2.982-.934-2.739s-1.788.133-2.036-1.027c0,0,1.286-1.776,0-2.041s-1.4,2.238-1.4,2.238l-.715-2.261-1.471-.45-.969-1.349Z" transform="translate(25.275 1651.105)" fill="#ffcda9"/>
    <path id="Path_10335" data-name="Path 10335" d="M288.832,283.789l-1.557-1.35-3.685,5.087" transform="translate(21.957 1646.436)" fill="url(#linear-gradient-2)"/>
    <path id="Path_10336" data-name="Path 10336" d="M279.508,263.17c-3.581,0-4.758,2.843-4.758,5.473h9.631C284.392,264.739,282.143,263.17,279.508,263.17Z" transform="translate(25.699 1654.593)" fill="#14afff"/>
    <path id="Path_10337" data-name="Path 10337" d="M280.053,263.205a5.245,5.245,0,0,0-.525,0c-3.581,0-4.758,2.843-4.758,5.473h2.768C277.411,266.544,278.034,264.376,280.053,263.205Z" transform="translate(25.69 1654.581)" fill="#003ade"/>
    <path id="Path_10338" data-name="Path 10338" d="M272.469,272l-7.059.525a24.358,24.358,0,0,1,5.571-1.424Z" transform="translate(29.653 1651.236)" fill="#151231"/>
    <path id="Path_10339" data-name="Path 10339" d="M299.116,332.1l-.358,15.513s5.767.658,9,15.271c0,0,.9.577-1.153.577L294.566,349.43l-3.656-10.092Z" transform="translate(18.859 1625.414)" fill="#00143e"/>
    <path id="Path_10340" data-name="Path 10340" d="M315.9,385.46l1.724,1.43-3.466,4.429H310.15l3.051-1.88,1.528-3.4Z" transform="translate(10.714 1602.827)" fill="#000f1f"/>
    <path id="Path_10341" data-name="Path 10341" d="M282.575,329.411l-5.306,15.271-1.5,20.184s.075.577,1.69,0c0,0,6.3-11.909,4.244-18.593l8.962-11.9s3.137-3.045,2.307-6.92Z" transform="translate(25.267 1627.383)" fill="#001f5e"/>
    <path id="Path_10342" data-name="Path 10342" d="M272.689,392.36v1.88H264.5l6.494-1.88Z" transform="translate(30.038 1599.906)" fill="#000f1f"/>
    <path id="Path_10343" data-name="Path 10343" d="M280.5,288.99c-.715.046-1.77-.64-2.145,1.286a22.578,22.578,0,0,1-3.552,8.65c-2.664,2.883-10.086,3.6-10.086,3.6l-1.28.444-.127,1.153a26.861,26.861,0,0,0,12.163-.611c4.337-1.338,6.874-9.527,6.874-9.527S282.739,289.861,280.5,288.99Z" transform="translate(30.541 1643.698)" fill="#ffcda9"/>
    <path id="Path_10344" data-name="Path 10344" d="M285.69,301.98l3.114,3.789,1.13-1.84Z" transform="translate(21.068 1638.164)" fill="#ffbd95"/>
    <path id="Path_10345" data-name="Path 10345" d="M285.06,295.679l5.444,2.364s4-7.1.231-9.931S285.06,295.679,285.06,295.679Z" transform="translate(21.335 1644.241)" fill="#14afff"/>
    <path id="Path_10346" data-name="Path 10346" d="M287.57,329.411l10.519-.473a2.469,2.469,0,0,0-.144-1.488Z" transform="translate(20.272 1627.383)" fill="url(#linear-gradient-3)"/>
    <path id="Path_10347" data-name="Path 10347" d="M258.916,307.131l-1.5-1.28-.075-.456-1.009-.952-.842-1.984,1.926.231.744,2" transform="translate(33.852 1637.961)" fill="#151231"/>
    <path id="Path_10348" data-name="Path 10348" d="M261.417,309.135l-1.3-1.488-1.321-1.5a.738.738,0,0,0-.127.946l.882,1.494-1.5-1.28-.075-.456L257,305.9v.479a5.8,5.8,0,0,0,3.662,4.925l1.407-1.574Z" transform="translate(33.213 1636.505)" fill="#ffcda9"/>
    <path id="Path_10349" data-name="Path 10349" d="M282.063,107.505l-11.643,7.272,3.714-9.417Z" transform="translate(27.532 1721.395)" fill="#95b4db"/>
    <path id="Path_10350" data-name="Path 10350" d="M310.285,79.1,276.86,94.244l9.429,6.857Z" transform="translate(24.806 1732.511)" fill="#f5fcff"/>
    <path id="Path_10351" data-name="Path 10351" d="M300.845,79.1,263.706,91.389l-9.146-6.142Z" transform="translate(34.246 1732.511)" fill="#f5fcff"/>
    <path id="Path_10352" data-name="Path 10352" d="M270.42,91.389v12.272l3.714-9.417L307.559,79.1Z" transform="translate(27.532 1732.511)" fill="#cce0ff"/>
    <path id="Path_10353" data-name="Path 10353" d="M70.17,219.933l7.878,4.913-2.509-6.367Z" transform="translate(112.299 1673.511)" fill="#95b4db"/>
    <path id="Path_10354" data-name="Path 10354" d="M40.27,200.73l22.612,10.236L56.5,215.609Z" transform="translate(124.956 1681.025)" fill="#f5fcff"/>
    <path id="Path_10355" data-name="Path 10355" d="M40.27,200.73l25.121,8.3,6.188-4.152Z" transform="translate(124.956 1681.025)" fill="#f5fcff"/>
    <path id="Path_10356" data-name="Path 10356" d="M65.391,209.034v8.3l-2.509-6.367L40.27,200.73Z" transform="translate(124.956 1681.025)" fill="#cce0ff"/>
    <path id="Path_10357" data-name="Path 10357" stroke="#feffff" d="M61.879,228.208s6.58,5.19,9.469-1.1c1.99-4.314-7.941-5.94-4.227,4.083s-5.242,16.517-17.993,11.724-23.443-1.257-22.808,15.744" fill="none" transform="translate(130.872 1671.285)" stroke-linecap="round" stroke-linejoin="round" stroke-width="0.75" stroke-dasharray="3"/>
    <path id="Path_10358" data-name="Path 10358" d="M140.871,102.6a4.435,4.435,0,0,0-4.423-4.423H121.563a4.423,4.423,0,1,0,0,8.846h11.851a3.818,3.818,0,0,0,4.614,2.566,2.932,2.932,0,0,1-.94-2.618A4.429,4.429,0,0,0,140.871,102.6Z" transform="translate(92.416 1724.434)" fill="#1395f3"/>
    <ellipse id="Ellipse_394" data-name="Ellipse 394" cx="1.494" cy="1.494" rx="1.494" ry="1.494" transform="translate(212.295 1825.699)" fill="#f5fcff"/>
    <ellipse id="Ellipse_395" data-name="Ellipse 395" cx="1.494" cy="1.494" rx="1.494" ry="1.494" transform="translate(216.776 1825.699)" fill="#f5fcff"/>
    <ellipse id="Ellipse_396" data-name="Ellipse 396" cx="1.494" cy="1.494" rx="1.494" ry="1.494" transform="translate(221.597 1825.699)" fill="#f5fcff"/>
  </g>
</svg>
