<svg id="Layer_2" data-name="Layer 2" xmlns="http://www.w3.org/2000/svg" width="304.59" height="229" viewBox="0 0 304.59 229">
  <g id="object" transform="translate(0 0)">
    <path id="Path_3313" data-name="Path 3313" d="M172.432,648.183c18.733-.107,37.465-.323,56.175-.507q14.04-.136,28.083-.226c8.778-.052,18.51-1.1,27.188.168a15.12,15.12,0,0,1,7.916,3.333,7.125,7.125,0,0,1,2.429,7.248c-.95,3.039-4.228,4.816-7.293,5.972-8.937,3.372-18.959,3.459-28.677,3.443-43.6-.071-86.793.265-130.321-1.857-15.542-.756-30.876-.513-46.447-.533-19.2-.029-39.18-2.261-58.417-1.886A133.328,133.328,0,0,1,8.648,663.1c-2.3-.2-4.69-.568-6.511-1.831s-2.813-3.692-1.615-5.439c.811-1.176,2.348-1.757,3.8-2.238,38.134-12.625,80.156-6.246,119.775-5.613C140.212,648.241,156.319,648.274,172.432,648.183Z" transform="translate(0.002 -438.614)" opacity="0.08"/>
    <path id="Path_3314" data-name="Path 3314" d="M230.11,202.65H191.779V320.094a33.531,33.531,0,0,0-10.125-1.544c-14.915,0-27,9.486-27,21.19s12.089,21.19,27,21.19a34.608,34.608,0,0,0,3.745-.2,29.743,29.743,0,0,0,15.692-6.279,21.912,21.912,0,0,0,5.025-5.7c1.043-1.747,2.548-4.738,2.548-6.973V270.443h99.215v49.651a28.531,28.531,0,0,0-9.308-1.544c-13.7,0-24.814,9.486-24.814,21.19s11.11,21.19,24.814,21.19a29.3,29.3,0,0,0,3.488-.207c10.19-1.227,21.316-8.468,21.316-22.608V202.65ZM208.655,254V242.709h99.225v11.285Z" transform="translate(-104.701 -138.582)" fill="#3acce1"/>
    <path id="Path_3315" data-name="Path 3315" d="M163.494,573.569a19.384,19.384,0,0,1,8.969-7.48,96.661,96.661,0,0,1,11.243-3.772,4.491,4.491,0,0,0,1.854-.917,1.585,1.585,0,0,0,.384-1.893c-.426-.691-1.4-.743-2.206-.694a49.416,49.416,0,0,0-14.159,2.958,20.362,20.362,0,0,0-5.972,3.152,19.137,19.137,0,0,0-4.977,6.9c-1.663,3.553-5.568,16,2.158,14.569C161.394,581.963,161.158,577.6,163.494,573.569Z" transform="translate(-105.722 -379.703)" opacity="0.15"/>
    <path id="Path_3316" data-name="Path 3316" d="M116.17,480.13l1.311,1.983,2.025.388.145.478-.568.2,1.6.811.6,1.347-.956,1.68-1.838.736-1.55-1.166-.924-2.135L114.1,481.81Z" transform="translate(-77.248 -326.024)" fill="#eac5b0"/>
    <path id="Path_3317" data-name="Path 3317" d="M75.042,414.251l-13.675-19.23.995-11.162L51.126,383.2l-.036,14.492,1.544,3.814,18.791,16.917Z" transform="translate(-34.589 -260.315)" fill="#3b3387"/>
    <path id="Path_3318" data-name="Path 3318" d="M136.77,433.94l2.093,1.024,1.97-.717.352.336-.41.462,1.793-.132,1.163.843-.048,1.938-1.269,1.583-1.919-.2-1.825-1.35-2.929-1.272Z" transform="translate(-91.899 -294.651)" fill="#eac5b0"/>
    <path id="Path_3319" data-name="Path 3319" d="M75.8,399.024c-3.259-1.45-7-2.038-10.361-3.178-3.1-1.056-5.878-2.148-9.014-3.1a4.368,4.368,0,0,1-1.686-.82c-2.435-2.167-2.193-6.137-5.526-7.687-1.789-.84-4.309-.3-5.087,1.521-.623,1.46.016,3.123.646,4.58q1.7,3.9,3.4,7.787c.807,1.854,3.249,1.844,5.025,2.19l6.782,1.318,13.294,2.584,1.292.255Z" transform="translate(-29.701 -260.7)" fill="#3b3387"/>
    <path id="Path_3320" data-name="Path 3320" d="M92.878,660.7l1.5,1.437a1.949,1.949,0,0,1-.465,3.156c-.714.323-1.715.268-3.1-.707l-3.185-3.733.517-1.208,3.33-.52Z" transform="translate(-59.32 -447.623)" fill="#292949"/>
    <path id="Path_3321" data-name="Path 3321" d="M54.552,468l7.409,31.186-4.87,31.277-4.622-.1-1.686-27.524s-16.029-30.156-15.112-30.812S54.552,468,54.552,468Z" transform="translate(-24.123 -318.23)" fill="#babcbe"/>
    <path id="Path_3322" data-name="Path 3322" d="M20.835,659.767l.992,1.847a1.922,1.922,0,0,1-1.386,2.849c-.775.078-1.712-.287-2.739-1.66l-1.912-4.564.853-.969,3.323.559Z" transform="translate(-10.69 -446.371)" fill="#292949"/>
    <path id="Path_3323" data-name="Path 3323" d="M36.2,492.888l-2.1,29.265-12.812,24.8-4.367-1.567,6.64-26.716s-4.935-26.206-3.876-26.536S36.2,492.888,36.2,492.888Z" transform="translate(-11.455 -334.53)" fill="#babcbe"/>
    <path id="Path_3324" data-name="Path 3324" d="M59.9,328.06c-2.749.914-5.678-1.092-8.33.236a6.794,6.794,0,0,0-3.178,5.223,5.949,5.949,0,0,0,.278,2.981,4.612,4.612,0,0,0,1.017,1.476,5.551,5.551,0,0,0,1.876,1.227,14.7,14.7,0,0,1-.969,2.116l4.079.775q.265-1.386.526-2.765a5.684,5.684,0,0,0,1.121-.484,8.623,8.623,0,0,0,3.944-6.85A17.29,17.29,0,0,0,59.9,328.06Z" transform="translate(-32.707 -222.627)" fill="#eac5b0"/>
    <path id="Path_3325" data-name="Path 3325" d="M37.949,318.449c-.116-.2-.226-.4-.323-.6-1.221-2.516-1.873-5.465-.071-7.89a8.566,8.566,0,0,1,8.465-2.813c1.583.417,3.252.943,4.812.433a2.147,2.147,0,0,0,1.176-.82c.245-.384.307-.859.559-1.237a1.515,1.515,0,0,1,2.545.323,5.451,5.451,0,0,0,.262.891c.323.6,1.169.627,1.851.714a.888.888,0,0,1,.594.255c.255.323,0,.8-.323,1-.484.278-1.324.2-1.615.74-.22.391.119,1.143.061,1.592a4.739,4.739,0,0,1-3,3.553c-1.379.517-2.616-.045-4-.4-.391-.1-.807-.342-1.192-.4a4.093,4.093,0,0,0-1.418.271,5.848,5.848,0,0,1-1.76,0,3.824,3.824,0,0,0-1.744.152,1.47,1.47,0,0,0-.969,1.34c.039.714.759,1.266.743,1.98,0,.62-.562,1.082-.795,1.654-.184.442-.187.969-.52,1.324-.149.152-.349.252-.481.417-.174.216-.229.533-.462.685a.665.665,0,0,1-.824-.2,2.445,2.445,0,0,1-.378-.833,11.8,11.8,0,0,0-1.2-2.135Z" transform="translate(-24.671 -207.107)" fill="#292949"/>
    <path id="Path_3326" data-name="Path 3326" d="M13.8,379.131a63.076,63.076,0,0,0-1.4,9.411c-.252,2.907-.946,5.688-.946,8.614,0,6.718-1.912,13.106-2.826,19.7-.51,3.695,3.763,2.387,6.627,2.319l11-.258a40.2,40.2,0,0,0,8.9-.875c2.584-.646,7.167-2.458,7.141-5.245,0-1.637-1.076-3.692-1.415-5.332-.371-1.8-.646-3.611-.882-5.426-.927-7.315-.969-14.724-2.442-21.978-.891-4.447-2.736-8.494-7.164-10.774A11.409,11.409,0,0,0,20.4,368.9c-3.6,1.789-5.4,5.675-6.379,9.382C13.942,378.565,13.871,378.846,13.8,379.131Z" transform="translate(-5.815 -250.009)" fill="#3b3387"/>
    <path id="Path_3327" data-name="Path 3327" d="M815.931,98.786c-1.767-1.189-3.672-2.451-5.633-3.633a27.127,27.127,0,0,1-3.876-2.816,31.546,31.546,0,0,1-5.452-6.485c-1.964-2.968-4.028-9.87-4.27-11.185a1.587,1.587,0,0,0-.178-.746,1.547,1.547,0,0,0-1.663-.807h-.023l-8.565,1.705a1.76,1.76,0,0,0-1.366,2.08l13.565,68.061a1.683,1.683,0,0,1-1.46,2.025,23.645,23.645,0,0,0-10.859,3.934c-8.972,5.972-12.567,16.514-8.016,23.5,3.162,4.845,9.434,6.728,15.974,5.423a23.944,23.944,0,0,0,8.556-3.591c6.805-4.522,10.749-11.892,9.883-18.393a1.543,1.543,0,0,0-.032-.323l-10.432-52.322a7.14,7.14,0,0,1,.8.055,17.29,17.29,0,0,1,5.058,1.528,24.129,24.129,0,0,1,5.025,3.185c12.186,9.86,10.067,34.122,10.045,34.368h0a1.57,1.57,0,0,0,1.4,1.715,1.614,1.614,0,0,0,1.263-.484,1.484,1.484,0,0,0,.375-.895h.019a13.524,13.524,0,0,1,.446-1.292,56.15,56.15,0,0,0,2.971-11.01,40.762,40.762,0,0,0,.394-10.716,32.782,32.782,0,0,0-4.493-13.752C822.833,103.637,819.316,101.059,815.931,98.786ZM795.7,76.113l-.048.016h0Z" transform="translate(-525.482 -49.486)" fill="#d67086"/>
    <path id="Path_3328" data-name="Path 3328" d="M797.52,326.23a17.543,17.543,0,0,0,11.068,1.147,23.945,23.945,0,0,0,8.556-3.592c6.805-4.522,10.749-11.892,9.883-18.393a1.535,1.535,0,0,0-.032-.323L824.191,291C818.284,312.749,805.75,322.229,797.52,326.23Z" transform="translate(-539.94 -197.689)" fill="#d67086" opacity="0.07"/>
    <path id="Path_3329" data-name="Path 3329" d="M198.932,347.588a41.352,41.352,0,0,0-.494,5.878,23.929,23.929,0,0,1-.807,4.425,38.363,38.363,0,0,0,5.723.8,11.921,11.921,0,0,1,1.615-12.112,1.166,1.166,0,0,0,.378-.827,1.1,1.1,0,0,0-.265-.507c-.969-1.247-2.183-2.681-3.75-1.566A6.634,6.634,0,0,0,198.932,347.588Z" transform="translate(-133.8 -233.125)" fill="#d67086"/>
    <path id="Path_3330" data-name="Path 3330" d="M216.124,351.811c-2.6-4.922-10.335-5.42-10.981.969a12.635,12.635,0,0,0,.514,5.71,6.143,6.143,0,0,0,3.924,3.876h.032l.058,1.486a.449.449,0,0,0,.084.3.423.423,0,0,0,.323.087l1.728-.042a1.786,1.786,0,0,0,.833-.155,1.645,1.645,0,0,0,.585-1.7c-.019-.152-.048-.307-.078-.459C216.279,360.1,217.819,355.031,216.124,351.811Z" transform="translate(-138.816 -236.368)" fill="#eac5b0"/>
    <path id="Path_3331" data-name="Path 3331" d="M215.766,349.788c.323.191.7.41.8.785a1.521,1.521,0,0,1-.045.74q-.417,1.786-.83,3.575c1.654.155,4.741.388,6.4.542-.556-3.7.555-7.105-.368-10.551a8.885,8.885,0,0,0-4.363-5.575,7.428,7.428,0,0,0-6.908.029,3.947,3.947,0,0,0-1.893,2.019c-.646,1.789.969,3.375,2.09,4.5A23.81,23.81,0,0,0,215.766,349.788Z" transform="translate(-141.1 -229.862)" fill="#d67086"/>
    <path id="Path_3332" data-name="Path 3332" d="M115,636l2.761.226a24.5,24.5,0,0,0,1.292-5.249,15.43,15.43,0,0,0-3.23-.733C115.678,630.65,115.2,636.015,115,636Z" transform="translate(-77.857 -428.071)" fill="#eac5b0"/>
    <path id="Path_3333" data-name="Path 3333" d="M105.477,647.8a1.481,1.481,0,0,0-.4-.1,1.321,1.321,0,0,0-.526.133,18.084,18.084,0,0,1-3.3.969,1.086,1.086,0,0,0-.475.168,1.014,1.014,0,0,0-.287.61,1.516,1.516,0,0,0,.278,1.505,1.56,1.56,0,0,0,1.117.207q2.387-.165,4.761-.5a3.6,3.6,0,0,0,1.092-.281,1.272,1.272,0,0,0,.714-.833,1.938,1.938,0,0,0-.1-.872c-.058-.2-.12-.817-.281-.969s-.581.065-.785.09A4.713,4.713,0,0,1,105.477,647.8Z" transform="translate(-67.982 -439.891)" fill="#292949"/>
    <path id="Path_3334" data-name="Path 3334" d="M122.429,509.9c-3.785,3.488-8.271,22.608-8.459,31.358,1.938.575,3.317.126,5.248.7a40.381,40.381,0,0,1,21.449-28.984c4-1.909,8.284-3.2,12.118-5.429,1.072-.617,2.261-1.718,1.812-2.871a2.66,2.66,0,0,0-.943-1.072,34.909,34.909,0,0,0-8.569-4.9c-3.365-1.334-3.365-1.334-6.747.323a67.227,67.227,0,0,0-15.91,10.868Z" transform="translate(-77.16 -338.37)" fill="#5d66d3"/>
    <path id="Path_3335" data-name="Path 3335" d="M175.173,511.943a8.947,8.947,0,0,0-2.3-1.47,10.041,10.041,0,0,0-2.338-.623c-3.385-.614-5.187-.362-8,1.786a69.207,69.207,0,0,1-8.323,5.626,30.086,30.086,0,0,0-7.751,6.263,14.856,14.856,0,0,0-2.79,4.308,19.239,19.239,0,0,0-.94,7.073q0,6.714.588,13.416c.126,1.434.362,5.071.362,5.071s4.26-.049,5.242-.023a.7.7,0,0,0,.546-.142,1.037,1.037,0,0,0,.2-.675q.284-4.661.911-9.282c.371-2.742.862-5.565,2.261-7.839,1.957-3.2,5.345-4.748,8.623-5.613,2.858-.759,5.684-1.634,8.536-2.419,2.432-.672,6.153-.862,7.454-3.427a7.987,7.987,0,0,0,.646-2.8C178.454,517.705,177.731,514.224,175.173,511.943Z" transform="translate(-96.631 -346.367)" fill="#5d66d3"/>
    <path id="Path_3336" data-name="Path 3336" d="M149.9,650.372l2.742-.413a25.018,25.018,0,0,0,.061-5.407,15.5,15.5,0,0,0-3.327.029C149.346,645.007,150.111,650.339,149.9,650.372Z" transform="translate(-101.131 -437.709)" fill="#eac5b0"/>
    <path id="Path_3337" data-name="Path 3337" d="M142.7,661.177a1.479,1.479,0,0,0-.413,0,1.291,1.291,0,0,0-.481.252,18.244,18.244,0,0,1-3,1.7,1.056,1.056,0,0,0-.42.275,1,1,0,0,0-.142.646c.016.536.129,1.169.614,1.4a1.579,1.579,0,0,0,1.137-.055q2.287-.707,4.522-1.583a3.529,3.529,0,0,0,1-.523,1.256,1.256,0,0,0,.5-.969,1.893,1.893,0,0,0-.3-.827c-.1-.181-.3-.769-.491-.862s-.552.194-.743.268A4.747,4.747,0,0,1,142.7,661.177Z" transform="translate(-93.59 -448.633)" fill="#292949"/>
    <path id="Path_3338" data-name="Path 3338" d="M145.394,414.026H135.3a.384.384,0,0,1-.394-.371V397.981a.384.384,0,0,1,.394-.371h10.09a.381.381,0,0,1,.394.371v15.674A.384.384,0,0,1,145.394,414.026Z" transform="translate(-91.337 -270.024)" fill="#292949"/>
    <rect id="Rectangle_1944" data-name="Rectangle 1944" width="9.731" height="14.02" transform="translate(44.135 128.458)" fill="#fff"/>
    <rect id="Rectangle_1945" data-name="Rectangle 1945" width="7.874" height="4.945" transform="translate(45.059 129.93)" fill="#d67086" opacity="0.87"/>
    <rect id="Rectangle_1946" data-name="Rectangle 1946" width="1.647" height="0.549" rx="0.275" transform="translate(48.302 142.883)" fill="#fff"/>
    <path id="Path_3339" data-name="Path 3339" d="M149.05,408.994v2.167a.1.1,0,0,0,.158.081l2.009-1.347a.094.094,0,0,0-.019-.168l-2.009-.824a.1.1,0,0,0-.139.09Z" transform="translate(-100.91 -277.636)" fill="#f7f7f7"/>
    <g id="Group_12618" data-name="Group 12618" transform="translate(45.059 135.992)" opacity="0.48">
      <rect id="Rectangle_1947" data-name="Rectangle 1947" width="6.107" height="0.242" fill="#3b455a" opacity="0.87"/>
      <rect id="Rectangle_1948" data-name="Rectangle 1948" width="1.353" height="0.242" transform="translate(6.424)" fill="#3b455a" opacity="0.87"/>
      <rect id="Rectangle_1949" data-name="Rectangle 1949" width="6.107" height="0.242" transform="translate(0 0.814)" fill="#3b455a" opacity="0.87"/>
      <rect id="Rectangle_1950" data-name="Rectangle 1950" width="1.353" height="0.242" transform="translate(6.424 0.814)" fill="#3b455a" opacity="0.87"/>
      <rect id="Rectangle_1951" data-name="Rectangle 1951" width="6.107" height="0.242" transform="translate(0 1.625)" fill="#3b455a" opacity="0.87"/>
      <rect id="Rectangle_1952" data-name="Rectangle 1952" width="1.353" height="0.242" transform="translate(6.424 1.625)" fill="#3b455a" opacity="0.87"/>
      <rect id="Rectangle_1953" data-name="Rectangle 1953" width="6.107" height="0.242" transform="translate(0 2.438)" fill="#3b455a" opacity="0.87"/>
      <rect id="Rectangle_1954" data-name="Rectangle 1954" width="1.353" height="0.242" transform="translate(6.424 2.438)" fill="#3b455a" opacity="0.87"/>
      <rect id="Rectangle_1955" data-name="Rectangle 1955" width="6.107" height="0.242" transform="translate(0 3.252)" fill="#3b455a" opacity="0.87"/>
      <rect id="Rectangle_1956" data-name="Rectangle 1956" width="1.353" height="0.242" transform="translate(6.424 3.252)" fill="#3b455a" opacity="0.87"/>
      <rect id="Rectangle_1957" data-name="Rectangle 1957" width="6.107" height="0.242" transform="translate(0 4.063)" fill="#3b455a" opacity="0.87"/>
      <rect id="Rectangle_1958" data-name="Rectangle 1958" width="1.353" height="0.242" transform="translate(6.424 4.063)" fill="#3b455a" opacity="0.87"/>
    </g>
    <path id="Path_3340" data-name="Path 3340" d="M120.572,359.177c-5.368,2.907-11.511,3.172-17.37,4.425-4.373.937-9.2,2.561-11.472,6.573-.026-.171-.048-.342-.077-.51-1.066-6.534-3.73-12.919-9.25-16.9-.368-.262-.72.346-.355.607a21.615,21.615,0,0,1,7.687,11.181A38.28,38.28,0,0,1,91.11,371.5c-.029.078-.061.155-.087.233a.294.294,0,0,0,.165.384c.239,1.938.462,3.876.856,5.785.685,3.34,2.351,6.76,5.675,8.129,2.2.911,6.657,1.5,7.428-1.554a.35.35,0,0,0-.675-.187,2.86,2.86,0,0,1-2.332,1.673,8.164,8.164,0,0,1-1.292.029,7.719,7.719,0,0,1-7.051-4.864c-1.434-3-1.537-6.417-1.912-9.705,2.261-5.491,9.173-6.783,14.437-7.7,5-.859,10.074-1.486,14.6-3.94C121.331,359.58,120.973,358.964,120.572,359.177Z" transform="translate(-55.443 -239.593)" fill="#8cabef"/>
    <path id="Path_3341" data-name="Path 3341" d="M823.94,407.133l2.245.165,1.5-1.308.439.171-.2.546,1.557-.736,1.347.333.659,1.705-.562,1.818-1.789.491-2.122-.546-3.084-.094Z" transform="translate(-557.82 -275.656)" fill="#7b4f34"/>
    <path id="Path_3342" data-name="Path 3342" d="M749.807,389.972l-22.334-.866-5.91-6.556-8.213,4.06,9.906,11.831,3.73,1.056L750.7,395.14Z" transform="translate(-482.955 -259.799)" fill="#dddae8"/>
    <path id="Path_3343" data-name="Path 3343" d="M713.166,319.754a3.985,3.985,0,0,0-.9-1.511c-.119-.113-.249-.207-.362-.323-3.908-3.927-11.243-2.335-11.873,4.7a8.37,8.37,0,0,0,5.888,8.5,25.185,25.185,0,0,0,.291,2.926.667.667,0,0,0,.136.433.572.572,0,0,0,.365.142,5.05,5.05,0,0,0,3.552-.908.594.594,0,0,0,.2-.194.725.725,0,0,0,.045-.342,16.332,16.332,0,0,0-.3-2.413,6.779,6.779,0,0,0,3.63-4.987A10.981,10.981,0,0,0,713.166,319.754Z" transform="translate(-473.918 -214.488)" fill="#7b4f34"/>
    <path id="Path_3344" data-name="Path 3344" d="M727.912,350.465a.974.974,0,0,0,.2.365c.262.287.727.2,1.095.077a6.78,6.78,0,0,0,1.938-.908,2.713,2.713,0,0,0,1.134-1.757,1.02,1.02,0,0,0-.142-.743.514.514,0,0,0-.681-.145,1.211,1.211,0,0,0-.252.352,1.716,1.716,0,0,1-.969.646,1.509,1.509,0,0,1-1.263-.048c-.462-.294-.565-.908-.72-1.434-.268-.9-1.441-1.369-1.512-.184C726.663,347.778,727.564,349.434,727.912,350.465Z" transform="translate(-492.017 -234.924)" fill="#292949"/>
    <path id="Path_3345" data-name="Path 3345" d="M780.441,642.418l1.812,1.554a2.17,2.17,0,0,1-.391,3.585c-.814.4-1.983.391-3.646-.646l-3.876-4.056.543-1.392,3.853-.753Z" transform="translate(-524.246 -435.159)" fill="#292949"/>
    <path id="Path_3346" data-name="Path 3346" d="M728.553,498.05l13.22,23.5-5.591,23.387-5.387.12-3.23-17.315s-18.529-21.245-17.492-22.027S728.553,498.05,728.553,498.05Z" transform="translate(-480.707 -338.575)" fill="#292949"/>
    <path id="Path_3347" data-name="Path 3347" d="M693.5,663.227l1.266,2.019a2.17,2.17,0,0,1-1.44,3.307c-.895.139-2.012-.216-3.288-1.7l-2.5-5.035.934-1.166,3.888.436Z" transform="translate(-465.474 -448.659)" fill="#292949"/>
    <path id="Path_3348" data-name="Path 3348" d="M698.723,525.117l-4.874,25.935-9.793,18.6-5.167-1.5,2.089-17.483s-7.855-26.122-6.631-26.561S698.723,525.117,698.723,525.117Z" transform="translate(-456.462 -356.165)" fill="#292949"/>
    <path id="Path_3349" data-name="Path 3349" d="M667.62,372.5c-4.887,4.867-6.2,12.441-6.805,19.5a167.08,167.08,0,0,0-.533,18.817c.061,2.232.242,4.651,1.65,6.317a8.682,8.682,0,0,0,3.569,2.216,60.16,60.16,0,0,0,30.731,3.685,5.986,5.986,0,0,0,3.23-1.172,6.2,6.2,0,0,0,1.444-2.261c3.6-8.291,3.081-17.886,1.615-26.868-1.056-6.46-2.661-13.068-6.489-18.245A18.664,18.664,0,0,0,667.62,372.5Z" transform="translate(-446.982 -249.326)" fill="#dddae8"/>
    <path id="Path_3350" data-name="Path 3350" d="M798.61,344.331l1.825-1.318.307-1.967.446-.152.2.543.717-1.563,1.244-.614,1.6.882.74,1.757-1.053,1.524-1.976.95-2.422,1.915Z" transform="translate(-540.678 -230.369)" fill="#7b4f34"/>
    <path id="Path_3351" data-name="Path 3351" d="M734.709,350.4l-17.651,13.714-8.743-1.218-3.675,8.391,15.2,2.684,3.537-1.592,15.344-18.594Z" transform="translate(-477.058 -237.989)" fill="#dddae8"/>
    <path id="Path_3352" data-name="Path 3352" d="M712.163,309.8a4.674,4.674,0,0,0-2.584-.888,28.722,28.722,0,0,1-1.292-5.248,2.427,2.427,0,0,1,.365-2.1,1.646,1.646,0,0,1,2.209.142,3.672,3.672,0,0,1,.94,2.212,1.4,1.4,0,0,0,.245.733,1.293,1.293,0,0,0,.491.3l1.176.484q-.3-1.541-.594-3.088a4.249,4.249,0,0,0-.707-1.909c-.82-1-2.319-1.03-3.614-.969a3.93,3.93,0,0,0-1.967.439,2.542,2.542,0,0,0-.837.946,6.857,6.857,0,0,0-.258,4.4c.216,1.263.323,2.923.672,4.347a3.162,3.162,0,0,0-1.654,2.216c-.5,2.942,2.807,4.816,5.442,4.367a3.886,3.886,0,0,0,2.962-1.977,3.436,3.436,0,0,0,.275-1.2A3.831,3.831,0,0,0,712.163,309.8Z" transform="translate(-477.101 -203.364)" fill="#8cabef"/>
    <path id="Path_3353" data-name="Path 3353" d="M188.908,394.213a4.061,4.061,0,0,1,.885.646c1.9,1.828,2.726,4.506,3.256,7.015a78.952,78.952,0,0,1,1.34,19.3c-.132,3.388-.407,6.783-.736,10.148-.262,2.71-.969,5.239-.2,7.851.371,1.237.723,2.645.077,3.763h-.417a5.53,5.53,0,0,0-2.09-3.1,16.271,16.271,0,0,0-3.317-1.873c-3.792-1.773-7.6-3.491-11.55-4.887-2.513-.885-6.185-2.945-8.846-1.589-.646.323-1.224.8-1.886,1.111-.168-1.641.614-3.21,1.292-4.722,3.136-7.105,4.037-14.96,5.969-22.482a24.888,24.888,0,0,1,2.3-6.224,10.381,10.381,0,0,1,4.741-4.5,12.8,12.8,0,0,1,2.726-.766C184.406,393.516,187.042,393.2,188.908,394.213Z" transform="translate(-111.978 -267.404)" fill="#8cabef"/>
    <path id="Path_3354" data-name="Path 3354" d="M132.826,466.139a9.553,9.553,0,0,1-2.907.174,1.6,1.6,0,0,1-1.2-.662,1.789,1.789,0,0,1-.087-1.092.8.8,0,0,1,.216-.549.683.683,0,0,1,.307-.126,7.929,7.929,0,0,0,2.513-.488c-.207-.323-.4-.646-.581-.991-.045-.084-.09-.191-.036-.268s.239-.052.352,0a10.812,10.812,0,0,0,1.993.84c.5.152,1.347.155,1.589.575a6.474,6.474,0,0,1,.168,2c.019.22-1.87.53-2.132.559Z" transform="translate(-87.053 -313.76)" fill="#eac5b0"/>
    <path id="Path_3355" data-name="Path 3355" d="M174.618,412.922a3.462,3.462,0,0,0-3.23-.514,7.428,7.428,0,0,0-2.978,2.51,30.308,30.308,0,0,0-1.9,3.446c-.64,1.156-1,2.3-1.747,3.443-.346.533-2.07,3.075-2.652,3.2l-17.483,3.83.565,4.254,22.153-.165c.985-.782,1.747-2.8,2.426-3.876,2.332-3.675,4.69-6.782,5.668-11.114a8.149,8.149,0,0,0,.262-2.871,3.259,3.259,0,0,0-1.085-2.148Z" transform="translate(-97.917 -279.962)" fill="#8cabef"/>
    <path id="Path_3356" data-name="Path 3356" d="M549.838,201.068a5.594,5.594,0,0,0,2.761,2.17l9.043,4.392a3.068,3.068,0,0,1,1.347,1,2.718,2.718,0,0,1,.323,1.25,25.446,25.446,0,0,0,.233,3.944,3.445,3.445,0,0,0,2.471,2.8c1.657.291,3.033-1.153,4.357-2.2,4.521-3.553,10.862-3.007,16.569-3.653,1.615-.184,3.685-1.13,3.314-2.707-.113-.472-.446-.869-.555-1.34a8.116,8.116,0,0,1-.323-2.235l.126-2.639c.135-2.8-3.495-1.809-5.332-1.728-2.8.12-5.588.323-8.378.481-5.258.287-10.629.423-15.774-.878-1.2-.3-2.38-.694-3.6-.937C554.877,198.481,547.91,197.3,549.838,201.068Z" transform="translate(-372.027 -134.725)" opacity="0.15"/>
    <path id="Path_3357" data-name="Path 3357" d="M598.069,183.082a6.831,6.831,0,0,0-4.118-5.594,20.454,20.454,0,0,0-6.237-1.208,82.6,82.6,0,0,0-13.949-.614c-3.789.258-6.03,3.553-7.713,6.805-1.059,2.041-.723,2.978.733,4.619a17.05,17.05,0,0,0,4.748,3.74c3.553,1.88,8.882,1.234,12.706.694a29.545,29.545,0,0,0,10.306-3.475C596.593,186.9,598.43,185.569,598.069,183.082Z" transform="translate(-382.811 -119.23)" fill="#292949"/>
    <path id="Path_3358" data-name="Path 3358" d="M610.109,44.291l3.992.271a25.219,25.219,0,0,0,.258-3.553c1.15-.233,2.5-.646,2.858-1.9a4.121,4.121,0,0,0,.1-1.231q-.055-2.584-.1-5.139a5.117,5.117,0,0,0-.242-1.751,3.553,3.553,0,0,0-2.154-1.841,7.413,7.413,0,0,0-6.837.614,3.771,3.771,0,0,0-1.334,1.447,6.128,6.128,0,0,0-.258,3.2l.291,3c.11,1.15.323,2.471,1.208,3.055.475.323,1.079.355,1.492.762C610.106,41.933,609.819,43.261,610.109,44.291Z" transform="translate(-410.481 -19.367)" fill="#eac5b0"/>
    <path id="Path_3359" data-name="Path 3359" d="M625.423,23.868a1.858,1.858,0,0,1,.149.287c.207.523.113,1.127.323,1.654.323.83,1.334,1.292,1.525,2.164.155.714-.3,1.421-.323,2.151,0,.8.536,1.528.494,2.316a5.261,5.261,0,0,1-.807,2.232c.12-.178,1.263-.171,1.55-.365a1.2,1.2,0,0,0,.6-.969,11.212,11.212,0,0,1,.174-1.424c.226-.6.733-1.059.888-1.7.213-.872-.287-1.757-.294-2.652,0-1.357,1.1-2.687.617-3.953-.284-.743-1.04-1.192-1.486-1.851a10.229,10.229,0,0,1-.724-1.657,2.025,2.025,0,0,0-1.23-1.243,9.371,9.371,0,0,0-1-.071,11.34,11.34,0,0,1-1.615-.61,3.044,3.044,0,0,0-2.584,1.318c-.439.688-.168,1.234.323,1.8C622.83,22.244,624.732,22.793,625.423,23.868Z" transform="translate(-420.74 -12.289)" fill="#292949"/>
    <path id="Path_3360" data-name="Path 3360" d="M593.1,18.6a15.582,15.582,0,0,0-1.434,1.066,4.425,4.425,0,0,0-.878,3.23,21.576,21.576,0,0,0-.223,3.017,2.61,2.61,0,0,0,1.05,1.815c.75.494,1.893.526,2.261,1.347.4.891-.491,2.08.116,2.842.323.42.969.455,1.421.727a3.964,3.964,0,0,1,1.134,1.373,1.781,1.781,0,0,0,1.418.969,5.008,5.008,0,0,0-.455-2.451c-.249-.475-.969-1.337-.471-1.889.3-.452,1.063-.646,1.056-1.172a1.244,1.244,0,0,0-.342-.672,3.136,3.136,0,0,1-.362-2.832A4.053,4.053,0,0,1,599.3,23.8c1.021-.552.84-.8,1.095-1.812.236-.933.746-1.172,1.56-1.547a1.7,1.7,0,0,0,1.2-1.24,2.024,2.024,0,0,0,.077-1.692,3.437,3.437,0,0,0-1.1-1.03,4.447,4.447,0,0,0-2.907-1.108c-.585.071-1.124.371-1.708.433-.391.039-.785-.029-1.176-.023a3.094,3.094,0,0,0-1.886.669c-.53.426-.494.846-.769,1.428A2.022,2.022,0,0,1,593.1,18.6Z" transform="translate(-399.797 -10.398)" fill="#292949"/>
    <path id="Path_3361" data-name="Path 3361" d="M582.711,4.363c.071-.646-.032-1.463-.646-1.65-.323-.1-.7.045-1.053,0-.743-.113-1.037-.995-1.453-1.615a.563.563,0,0,0-.239-.229.924.924,0,0,0-.475.036c-.743.107-1.321-.588-2.035-.82a1.731,1.731,0,0,0-2.132,1.189c-.09.365-.055.753-.136,1.117-.323,1.486-2.451,2.212-2.435,3.734,0,1.027,1.063,1.964.717,2.933-.22.62-.985,1.072-.862,1.718a.9.9,0,0,0,.969.646,1.827,1.827,0,0,0,1.108-.568c.485-.465.837-1.046,1.292-1.537a2.278,2.278,0,0,1,1.754-.846c.672.052,1.253.523,1.889.388.51-.11.869-.588,1.366-.74a4.453,4.453,0,0,1,1.45.026c.481.006,1.072-.275,1.063-.759a1.178,1.178,0,0,1,0-.352c.087-.323.623-.323.711-.646-.271-.378-.623-.22-.827-.723A2.634,2.634,0,0,1,582.711,4.363Z" transform="translate(-387.223 -0.019)" fill="#292949"/>
    <path id="Path_3362" data-name="Path 3362" d="M590.816,72.351c1.78-.287,3.582-.665,5.1-.058,1.292.517,1.292,2.119,1.615,3.32,1.053,3.973,1.877,8,2.545,12.06a43.627,43.627,0,0,1,.882,5.975c.039,1.579-.323,3.123-.145,4.728a3.535,3.535,0,0,0,1.841,3.023c.575.239,1.231.233,1.809.465s1.085.895.814,1.457a1.549,1.549,0,0,1-.646.585l-4.163,2.484a22.937,22.937,0,0,1-3.285,1.718,17.854,17.854,0,0,1-5.126,1.03,42.475,42.475,0,0,1-13.452-1.082c-2.361-.578-4.66-1.66-4.166-4.328a35.724,35.724,0,0,1,2.7-8.036c1.392-3.068,1.721-6.724,2.677-9.948s1.993-6.514,3.03-9.757v-.039a8.081,8.081,0,0,1,1.4-3.33c1.208-1.337,1.838-.323,3.259-.1A10.712,10.712,0,0,0,590.816,72.351Z" transform="translate(-388.862 -48.712)" fill="#8cabef"/>
    <path id="Path_3363" data-name="Path 3363" d="M655.634,51.273a.139.139,0,0,0-.026-.1,7.067,7.067,0,0,0-1.654-2.778.426.426,0,0,0-.126-.1.443.443,0,0,0-.174,0,3.7,3.7,0,0,0-1.589.365c-.139.081-.284.21-.268.371a.5.5,0,0,0,.168.278c.123.123.5.394.514.575s-.229.233-.368.281c.032.249.068.5.1.749.019.142,0,.585.094.7l1.5,1.718,1.657-.413A6.009,6.009,0,0,0,655.634,51.273Z" transform="translate(-441.281 -32.702)" fill="#eac5b0"/>
    <path id="Path_3364" data-name="Path 3364" d="M646.355,77.43c.607-.442,1.195-.911,1.78-1.379,1.121-.895,3.553-2.122,3.827-3.591.3-1.563-1-3.055-1.46-4.457l-1.638-5-.591-1.8-3.369.029a20.368,20.368,0,0,1,.5,3.256c.245,1.667.769,3.436.055,5.051a3.953,3.953,0,0,1-2.881-2.261,4.4,4.4,0,0,0-.685-1.008,1.163,1.163,0,0,0-1.108-.349c-.743.226-.8,1.237-.717,2.009l.969,8.623a3.08,3.08,0,0,0,2.209,2.519,1.234,1.234,0,0,0,.62-.152A14.636,14.636,0,0,0,646.355,77.43Z" transform="translate(-433.319 -41.44)" fill="#8cabef"/>
    <path id="Path_3365" data-name="Path 3365" d="M574.41,149.63v.1a7.023,7.023,0,0,0,1.033,3.062.381.381,0,0,0,.1.123.374.374,0,0,0,.168.048,3.7,3.7,0,0,0,1.615-.019c.152-.052.323-.149.323-.323a.462.462,0,0,0-.106-.323c-.091-.145-.41-.491-.381-.669s.274-.181.42-.2l.058-.753c0-.145.126-.575.055-.7l-1.085-2-1.7.055A7.364,7.364,0,0,0,574.41,149.63Z" transform="translate(-388.889 -100.477)" fill="#eac5b0"/>
    <path id="Path_3366" data-name="Path 3366" d="M635.636,219.863l1.221.029a1.794,1.794,0,0,0,1.257-.3,1.151,1.151,0,0,0,0-1.476,2.649,2.649,0,0,0-1.386-.785,14.447,14.447,0,0,0-3.876-.459.909.909,0,0,0-.384.048.8.8,0,0,0-.388.536C631.4,219.721,634.054,219.818,635.636,219.863Z" transform="translate(-427.859 -147.256)" fill="#eacdb0"/>
    <path id="Path_3367" data-name="Path 3367" d="M595.2,227.717a1,1,0,0,0,.052.536.716.716,0,0,0,.281.275c.853.51,1.964-.1,2.584-.875a11.346,11.346,0,0,1,1.828-2.338c1.838-1.344.052-3.659-1.889-3.059C595.785,222.953,595.385,225.715,595.2,227.717Z" transform="translate(-402.952 -150.854)" fill="#eacdb0"/>
    <path id="Path_3368" data-name="Path 3368" d="M624.285,176.3c1.583-1.234,3.165-2.629,3.7-4.651a5.427,5.427,0,0,0-2.5-5.917c-2.584-1.334-5.035.468-6.805,2.154-3.621,3.453-7.587,6.524-11.459,9.689-1.308,1.072-5.843,5.009-5.843,5.009-.11.539,2.526,5.319,3.185,5.122C611.728,185.588,618.62,180.718,624.285,176.3Z" transform="translate(-407.141 -112.248)" fill="#292949"/>
    <path id="Path_3369" data-name="Path 3369" d="M551.171,186.036c-1.615-.727-3.23-1.615-3.908-3.443a6.77,6.77,0,0,1,1.857-6.656c2.332-2.138,4.809-1.124,6.628,0,3.727,2.261,7.751,4.069,11.692,5.991,1.334.646,5.969,3.123,5.969,3.123.155.5-1.938,6.069-2.568,6.082C563.867,191.281,556.917,188.629,551.171,186.036Z" transform="translate(-370.33 -118.635)" fill="#292949"/>
    <path id="Path_3370" data-name="Path 3370" d="M590.287,221.153a42.845,42.845,0,0,0-1.444,4.347,7.371,7.371,0,0,0-.355,2.39c.126,1.889,2.261,3.2,3.595,1.408a9.4,9.4,0,0,0,1.353-2.584c.469-1.363-.575-.546-1.489-.933-1.05-.446-1.034-.817-.623-1.8.533-1.266,1.179-2.1,1.056-3.553-.032-.394-.158-.853-.53-1a.808.808,0,0,0-.827.226,2.265,2.265,0,0,0-.452.778C590.474,220.684,590.38,220.917,590.287,221.153Z" transform="translate(-398.419 -148.985)" fill="#292949"/>
    <path id="Path_3371" data-name="Path 3371" d="M644.932,213.91c-.5.323-1,.646-1.528.914a7.029,7.029,0,0,1-.646.323c.213.233.226.568.055,1.169-.275.969-1.563,1.25-.213,1.744a9.491,9.491,0,0,0,2.855.572c2.225.1,2.558-2.393,1.169-3.679A6.262,6.262,0,0,0,644.932,213.91Z" transform="translate(-434.645 -145.25)" fill="#292949"/>
    <path id="Path_3372" data-name="Path 3372" d="M563.236,84.748a7.968,7.968,0,0,0-1.679,3.637,7.59,7.59,0,0,0,.394,2.862,60.653,60.653,0,0,0,3.03,7.729,14.817,14.817,0,0,1,3.963-1.5c-.365-2.823-.594-5.668-.688-8.514a2.2,2.2,0,0,1,.081-.837,2.328,2.328,0,0,1,.63-.814,44.943,44.943,0,0,0,5.814-7.506c.946-1.428,1.938-3.046,1.78-4.845a1.6,1.6,0,0,0-2.326-1.444c-1.385.484-2.651,1.967-3.7,2.942a48.323,48.323,0,0,0-3.663,3.74A53.451,53.451,0,0,0,563.236,84.748Z" transform="translate(-380.179 -49.685)" fill="#8cabef"/>
    <path id="Path_3373" data-name="Path 3373" d="M614.677,63.4a7.655,7.655,0,0,0-3.9-8.213c-.4-.213-.778.378-.381.591a6.934,6.934,0,0,1,3.553,4.673,7.18,7.18,0,0,1-1.938,6.363c-2.064,2.438-4.884,4.612-5.216,7.861a11.213,11.213,0,0,0-3.5-3.039c-2.752-1.615-5.814-2.929-7.07-6.12A8.668,8.668,0,0,1,598.3,56.1a.352.352,0,0,0-.475-.52,9.284,9.284,0,0,0,.294,13.678c2.393,1.983,5.642,2.849,7.716,5.229a6.727,6.727,0,0,1,.969,1.46v.1a.277.277,0,0,0,.142.229c1.453,3.362.465,7.861-.685,11.055-.155.426.517.646.668.216a19.227,19.227,0,0,0,1.172-9.783,7.765,7.765,0,0,0-.617-1.938C606.955,70.477,613.634,68.265,614.677,63.4Z" transform="translate(-402.804 -37.336)" fill="#f7f7f7"/>
    <path id="Path_3374" data-name="Path 3374" d="M607.1,139.088a.481.481,0,0,0-.472-.488l-19.6.129a.481.481,0,0,0-.462.5l.094,12.628a.481.481,0,0,0,.472.491l19.614-.145a.478.478,0,0,0,.462-.5Z" transform="translate(-397.121 -94.126)" fill="#f7f7f7"/>
  </g>
</svg>
