<svg xmlns="http://www.w3.org/2000/svg" width="50.363" height="47.104" viewBox="0 0 50.363 47.104">
  <g id="Group_1926" data-name="Group 1926" transform="translate(0 0)">
    <path id="Path_1" data-name="Path 1" d="M6672.741,6370.8v1.089c1.461,2.391.917,2.1,6.328,2.038.964,8.229,3.16,19.149,4.609,27.888.34,2.056.754,3.415,2.937,3.563,4.384.3,20.438,0,26.192,0,2.185,0,4.193.244,4.855-1.661.78-2.245-.86-3.526-2.83-3.566-8.619-.182-17.533.325-26.108-.013l-.487-2.571c2.39-.32,23-.08,27.256-.077,5.7,0,4.721-.716,5.768-7.867.31-2.112,1.266-10.818,1.844-12.082v-1.635c-1.749-2.634-2.732-1.917-8.283-1.917h-27.979c-.445,0-2.188.111-2.479-.22-1.3-2.98.418-5.02-4.226-5.006C6673.823,6368.785,6674.39,6368.189,6672.741,6370.8Z" transform="translate(-6672.741 -6368.72)" fill-rule="evenodd"/>
    <path id="Path_2" data-name="Path 2" d="M10771.327,7612.415l9.242-.015.8-5.212-10.064-.038Z" transform="translate(-10736.629 -7596.673)" fill="#eee" fill-rule="evenodd"/>
    <path id="Path_3" data-name="Path 3" d="M8301.215,11008.46a3.894,3.894,0,1,0,2.411,7.4C8308.264,11014.437,8306.177,11006.825,8301.215,11008.46Z" transform="translate(-8284.687 -10968.981)" fill-rule="evenodd"/>
    <path id="Path_4" data-name="Path 4" d="M11083.814,11009.29a3.889,3.889,0,1,0,2.389,7.4C11090.939,11015.3,11088.74,11007.612,11083.814,11009.29Z" transform="translate(-11043.746 -10969.794)" fill-rule="evenodd"/>
    <path id="Path_5" data-name="Path 5" d="M10772.31,8539.454l8.156-.015.766-5.229-8.934-.041Z" transform="translate(-10737.615 -8515.851)" fill="#eee" fill-rule="evenodd"/>
    <path id="Path_6" data-name="Path 6" d="M8146.681,7611.827c1.383.5,6.42.181,8.244.188l-.02-5.146-9.024,0Z" transform="translate(-8133.418 -7596.394)" fill="#eee" fill-rule="evenodd"/>
    <path id="Path_7" data-name="Path 7" d="M9533.95,8538.8l7.762.01.1-5.283-7.865.012Z" transform="translate(-9509.742 -8515.218)" fill="#eee" fill-rule="evenodd"/>
    <path id="Path_8" data-name="Path 8" d="M9533.033,7612.014l7.723.008.141-5.262-7.877.01Z" transform="translate(-9508.823 -7596.286)" fill="#eee" fill-rule="evenodd"/>
    <path id="Path_9" data-name="Path 9" d="M8301.663,8539.428c1.442.482,5.126.158,6.874.2l-.058-5.166-7.64-.006Z" transform="translate(-8287.066 -8516.138)" fill="#eee" fill-rule="evenodd"/>
  </g>
</svg>
