<svg viewBox="0 0 14.885 15.194">
  <g id="earth-globe-with-continents-maps" transform="translate(-0.468)">
    <path id="Path_3797" data-name="Path 3797" d="M13.691,5.4l.132.095h.123V5.258l.388-.038L14.7,5.5h.606l.043-.039q-.091-.307-.206-.6l-.4.007-.2-.218-.038-.35-.2.111-.109.428-.294-.312-.012-.3-.283-.244-.1-.1H13.18l.1.293.4.221.069.073-.086.043,0,.232-.193.081-.164-.036-.1-.146.268.014.072-.1-.593-.4-.046-.17-.241.218-.244-.05-.372.483-.073.189-.238.021-.352,0-.21-.1-.062-.418.076-.2.358-.078.39.078.048-.216-.166-.039.056-.337.393-.061.275-.388.284-.048.256.038h.094l-.052-.365-.311.126-.11-.272-.181-.025-.034-.187L12.64,2.2l.35-.137.09-.161A7.575,7.575,0,0,0,3.6,1.455l.383,0,.171.094.322.069.025.127.512.019L4.945,1.6,4.49,1.584l.107-.1-.037-.12H4.149L4.6,1.029h.429l.2.278.335.019.2-.2.152.076-.278.272-.366.007a1.273,1.273,0,0,1,.032.265l.467-.013.051-.126.322-.019L6.181,1.4l-.189-.032.063-.17L6.2,1.155l.505.025-.278.253.045.2.29.044-.019-.353.278-.145.492-.057.713.316V1.7l.227.057-.114.215H8.018l-.1.246-.735-.173.578-.308-.22-.187-.5.063L7,1.661H7l-.008.011-.144.149-.237.019.019.118.083.034,0,.039-.193.027L6.5,2.171l-.185.01-.033-.223-.331.1-.677.4.076.279.189.124.379.052v.43L6.1,3.312l.161-.336.4-.127V2.332l.224-.169.541.128-.038.341h.145l.4-.2.019.448.29.177-.012.266-.277.094.019.088.335.152L8.3,3.844l-.1.008a.026.026,0,0,0,0,0l-.422-.13-.018-.135h0L7.882,3.5V3.374L7.749,3.34l-.033.114-.233.036L7.46,3.483v.012l-.081.012-.066-.133L7.237,3.34H7.072L7,3.4V3.54l.142.047.14.02-.031.014-.128.142-.056-.071-.124-.033L6.6,3.975l.044.036-.5.275-.467.486-.032.216L5.182,5.3,4.95,5.53,4.976,6l-.322-.15,0-.273h-.9L3.3,5.81l-.2.372-.08.295.13.286.366.045.581-.388.051.193-.177.335.442.076.044.683.606.1.385-.445.467.1.164.228.448-.026.013-.132.246.12.278.435.48.007.177.31.025.379.53.2.669.007.2.321.3.1-.057.266-.325.413-.095.915-.294.232-.435-.013-.145.252.108.474-.474.606-.151.278-.452.217-.3.045-.012.126.208.06-.025.136-.187.18.113.143.225.006-.013.173-.06.171-.019.139.332.28-.044.145-.452-.009-.45-.392-.35-.616.049-.595-.265-.354.107-.6-.158-.044v-1.3s-.442-.335-.467-.335-.234-.057-.234-.057L5.071,10.1,4.5,9.377l.057-.259L4.572,8.7l.4-.278-.057-.474L4.332,7.9l-.454-.518-.322-.089-.208-.038.025-.189-.265-.038v.107L2.444,6.97l-.267-.408.109-.2-.42-.613L1.794,5.3h-.17l.056.435.29.448-.032.177-.246-.038-.3-.516v-.6l-.316-.152V4.624a7.594,7.594,0,0,0,12.883,7.762h-.251v-.505l-.29-.39v-.607l-.221-.221-.019-.253.281-.537-.533-.941.062-.638-.48-.05-.177-.177h-.322l-.164.151h-.568l-.019.051h-.316l-.725-.827.006-.644.12-.044.045-.246h-.17l-.07-.259.839-.606V5.214l.411-.228L11.562,5H11.9l.265-.142.852-.066V5.23ZM11.56,2.692l.069-.107.25-.051.062.3.133.214.088.1.161.063-.152.18-.294.028h-.221l.025-.262.184-.038L11.851,3l-.171-.107-.12-.082v-.12Zm-.41.474.152-.243.2-.048.145.063-.013.164-.312.221H11.15V3.166ZM7.023,4.1l-.158.013L6.873,4l.071-.088.1.075Zm.555-.194-.108.009-.022.1-.083.052-.133.011c0-.031-.007-.055-.007-.055H7.172V3.915h.218L7.434,3.8l.087,0,.1.02Z" fill="#d3d5d6"/>
  </g>
</svg>
