<svg xmlns="http://www.w3.org/2000/svg" width="19.066" height="13" viewBox="0 0 19.066 13">
  <g id="Group_12613" data-name="Group 12613" transform="translate(-467 -750)">
    <path id="Exclusion_124" data-name="Exclusion 124" d="M9.534,13A10.169,10.169,0,0,1,3.7,11.177,10.257,10.257,0,0,1,0,6.5a10.243,10.243,0,0,1,19.066,0,10.257,10.257,0,0,1-3.7,4.677A10.167,10.167,0,0,1,9.534,13Zm0-10.833A4.334,4.334,0,1,0,13.866,6.5,4.338,4.338,0,0,0,9.534,2.166Z" transform="translate(467 750)" fill="#032f3e" opacity="0.2"/>
    <path id="Path" d="M2.6,0A2.6,2.6,0,1,0,5.2,2.6,2.6,2.6,0,0,0,2.6,0Z" transform="translate(473.933 753.9)" fill="#032f3e" opacity="0.2"/>
  </g>
</svg>
