<svg viewBox="0 0 37.44 37.44"> <path id="path" d="M36.018,36.374a5.277,5.277,0,0,1-9.984,0H4.283a1.783,1.783,0,1,1,0-3.566H26.034a5.277,5.277,0,0,1,9.984,0h2.139a1.783,1.783,0,1,1,0,3.566Zm-6.775-1.783a1.783,1.783,0,1,0,1.783-1.783,1.684,1.684,0,0,0-1.783,1.783ZM26.212,9.631a5.277,5.277,0,0,1-9.984,0H4.283A1.684,1.684,0,0,1,2.5,7.849,1.684,1.684,0,0,1,4.283,6.066H16.228a5.277,5.277,0,0,1,9.984,0H38.157A1.684,1.684,0,0,1,39.94,7.849a1.684,1.684,0,0,1-1.783,1.783ZM19.437,7.849a1.783,1.783,0,1,0,3.566,0,1.783,1.783,0,1,0-3.566,0ZM38.157,23H16.406a5.193,5.193,0,0,1-4.992,3.566A5.193,5.193,0,0,1,6.422,23H4.283a1.783,1.783,0,1,1,0-3.566H6.422a5.193,5.193,0,0,1,4.992-3.566,5.193,5.193,0,0,1,4.992,3.566H38.157a1.783,1.783,0,0,1,0,3.566ZM9.631,21.22A1.684,1.684,0,0,0,11.414,23a1.783,1.783,0,1,0,0-3.566A1.684,1.684,0,0,0,9.631,21.22Z" transform="translate(-2.5 -2.5)" fill="#354052"/></svg>