<svg xmlns="http://www.w3.org/2000/svg" width="1919" height="491.453" viewBox="0 0 1919 491.453">
  <g id="Group_13082" data-name="Group 13082" transform="translate(0 -5938)">
    <path id="skyline-2730410" d="M512.663,40.905c.91-.16,1.819-.334,2.739-.507.029,15.058.1,30.117.019,45.163-.272,5.331,1.022,10.476,1.06,15.74a105.425,105.425,0,0,0-.75,22.234c4.155.227,8.178,1.737,12.211,3.073.291,3.006.488,6.012.722,9.032,1.885,1.283,3.77,2.538,5.655,3.862.863,22.741-2.377,249.6,2.56,271.3,2.71,10.61,1.013,22.114,1.3,33.137l3.573-.041c.542-12.752,2.753.506,2.579-50.24,2.494-.334,4.989-.642,7.493-1q.3-3.607.675-7.175,3.742.08,7.493.053c.694,4.489,2.9,7.59,6.049,8.552.281,11.077-.178,22.167.31,33.244.628-.014,1.9-.041,2.532-.067q-.043-44.756.187-89.51a235.6,235.6,0,0,1,30.723.2c.378,25.545-1.727,24.644,4.624,30.037,1.445-157.985-3.678-122.9,7.484-136.253.74-11.665-.553-23.463.432-35.115,1.435-4.783,3.676-9.046,4.989-13.95.994,2.686,1.979,5.4,2.982,8.1,5.57-.267,11.142-.094,16.712.053.131,2.245.262,4.5.4,6.748l2.438-.041q.393-3.548.854-7.1c1.341-.027,2.7-.041,4.061-.08.588,14.831-.349,85.619.178,114.97,2.457.094,4.924.053,7.39-.013.122,24.172-.432,48.357.244,72.5,2.954.067,5.909,0,8.872-.067.122,4.356.225,8.712.337,13.068,2.56.133,5.13.187,7.7.24-3.278-14.819-.167-1.537-1.773-73.009,1.341-30.892-.863-61.891.516-92.744,14.1-.32,28.2-.08,42.306-.254,1.06,18.706-.422,37.453.094,56.173,3.958.642,7.69-1.309,11.488-2.458,16.828,5.44,12.822,1.9,12.923,28.768a143.608,143.608,0,0,1,20.341.454c.056,1.991.131,3.982.206,5.973,8.686,8.231,4.087,6.055,13.148,7.229.124,53.961-1.088,55.518,2.185,56.267.694-26.59-.187-53.22.253-79.809,6.687-1.2,12.68-6.48,19.375-7.335,7.605,2.245,15.38,1.537,23.089,1.684.337,22.248-.206,44.508.319,66.742,5.28-1.254.243-97.689,2.438-125.147.75-.254,19.8-6.736,22.067-8.9,1.013-2.618,1.725-5.438,2.569-8.177,1.013,2.044,2.035,4.075,3.086,6.106,11.573-1.469,23.155-.227,34.747-.067.657,36.464-.281,72.982.225,109.449,3.029.174,6.068.281,9.106.494.178,2.552.356,5.117.553,7.684,7.025.254,14.058.308,21.092.013-.019-9.006-.4-18.011.056-27A115.2,115.2,0,0,0,923.5,313c.085-6.908-.4-13.95.835-20.711,1.426-7.723,1.2-15.928,3.029-23.53,2.006-5.316,1.974.127,9.791-27.685,1.922-6.347,1-13.456,2.054-20.069q.9-5.651,1.463-11.4a18.03,18.03,0,0,1,2.147,9.553c-.778,20.983,7.718,37.576,11.076,47.567,3.414,16.2,2.856,11.9,2.758,99.652q2.842.04,5.721.041c.262-26.4.244-52.805.235-79.208-.122-5.425,1.707-10.435,1.8-15.834.131-5.224-.16-10.569.929-15.647,1.7-7.522.891-15.5,1.285-23.236-.075-3.287,2.035-5.291,3.142-7.857,2.6-4.877,1.585-11.878,4.361-16.568,3.648-6.12,3.095-14.738,4.52-22.087,1.97-9.006.854-18.532,1-27.792l.76.053c-.7,46.644,2.234,33.6-3.564,47.127a63.916,63.916,0,0,0,8.759,1.777c.816,4.756,1.6,9.514,2.494,14.244.788,4.009,3.976,6.56,3.714,11.063a59.513,59.513,0,0,0,1.369,13.4c8.506-2.766,17.369-2.312,26.015-1.377,5.017,11.144,12,20.2,19.291,28.327.034.562.074,92.969.075,93.532,3.667.133,7.493-.868,11.028,1.042,5.327,2.926,11.132.895,16.694,1.643,1.4-2.606,2.841-5.144,4.4-7.59,2.41,2.686,5.008,5.438,8.253,5.117.3-90.419-3.4-105.581,13.279-110.25-.009-3.06-.028-6.12-.019-9.18a33.078,33.078,0,0,1,5.017-4.089c2.448,3.22.638,8.632,1.819,12.641.722,2.271,1.679,4.369,2.419,6.641,1.182,3.34,1.341,8.111,4.558,8.578,1.031-1.871,1.407-5.4,3.517-5.318,14.794-1.306,5.522,1.65,22.733,5.318.009,6.868-.009,13.749.019,20.617,3.789.427,7.587.575,11.394.628.376,19.268-.085,38.549.2,57.83q2.771,1.583,5.552,3.246c.441,9.046.262,18.119.5,27.191,1.06-.014,2.129-.027,3.207-.027,4.758-29.357,4.562-24.547,26.672-24.211,1.3.2,3.1-.133,3.686,2.044,3.311,11.625,7.343,23.236,7.5,36.077-.085,4.61,3.714,7.162,3.413,11.865.047,28.635-.356,57.282.206,85.916q4.755.181,9.538,0c.188-12.479-.262-24.987.216-37.453,3.629-.24,7.268-.308,10.907-.388.122-4.249.272-8.484.488-12.721,4.126.041,8.253.027,12.389.107.4,64.962-1.208,66.207,2.372,66.742.738-20,.142-153.7.16-153.842,2.354-5.986,7.756-3.474,11.629-4.863,9.293-4.321,18.636-1.806,21.458.922,2.176,1.711,3.395,4.917,4.633,7.857,9.556-.868,19.113.668,28.678.374,1.4,7.011.77,44.081.74,45.15,6.171-.441,12.352-.027,18.531-.334.478-4.356,1-8.7,1.754-12.974,3.114,5.345,2.513,13.349,6.067,18.279,4.8,9.018,3.021-5.448,3.573,77.886,5.364.841,10.1-3.634,15.428-3.474.486-20.745-.744-97.405-.066-130.348a63.466,63.466,0,0,1,16.431.868c1.829-3.26,3.6-6.615,5.271-10.075a15.3,15.3,0,0,0,11.385,4.409c.272,1.75.563,3.5.881,5.265a107.9,107.9,0,0,1,12.417.909c.478,7.51.422,15.046.225,22.568,6.63.053,12.361,5.719,18.963,6.36a14.949,14.949,0,0,0,4.914,5.839c.994,9.541.459,19.161.478,28.754,8.159-.534,16.318-1.4,24.5-.669.462-18.3-.3-102.144.225-144.369,5.524-.334,11.066-.24,16.609-.281-.056-7.963.638-15.887.5-23.838,6.03-.334,12.07-.053,18.109-.174,2.27-10.946-.209-9.069,9.256-10.69.15-21.54-.544-43.211,1.06-64.658,2.056,6.228,1.491,43.069,1.594,64.19,3.338.628,6.077,3.328,8.44,6.588,2.129,3.033,5.768,3.447,7.6,6.588.81,8.685.241,126.012.384,252.782q5.656.221,11.338.013c.147-13.364-.409-104.4.469-117.65,3.161-.174,6.33-.414,9.5-.8.178-7.857-.91-16.115,1.416-23.543,5.392-.094,10.795-.121,16.2.2a192.037,192.037,0,0,1,.253,22.755c6.94,6.466,5.171-4.2,5.28,46.2a117.254,117.254,0,0,1,17.19.187c.694,9.527.028,19.08.225,28.608,3.02,1.43,6.2,2.058,9.266,3.328-.009,6.133-.281,12.266,0,18.413,3.864.121,7.737.107,11.61.2-.089-8.575-.614-97.686.422-106.32,5.984.281,12.041-.481,18.006.681,4.858,1.871,9.669,4.262,14.771,4.477.075,2.552.15,5.1.281,7.67,2.71-.094,5.439-.214,8.177-.32,0-4.155-.009-8.311.029-12.453a33.473,33.473,0,0,1,11.986-.308c.216,1.884.459,3.755.741,5.626q5.585.08,11.2.08c.15-2.739.281-5.491.413-8.231,4.07,0,8.15-.187,12.229-.24,0,0,.636,89.786.281,134.1,1.313-.053,2.635-.094,3.986-.121.588-17.63-.187-189.947.131-195.522a86.4,86.4,0,0,1,13.017-.121c-.235-13.6-.338-96,.066-106.774,7.474-.761,14.968-.267,22.452.121.178-4.623.056-9.26.075-13.883-.141-3.488,2.054-6.04,2.2-9.42-.507-15.085-.357-30.184-.647-45.3.244-4.142-.769-9.313,1.716-12.426,10.226-14.917,4.307-6.112,6.3-71.165,1-1.1,2.035-2.205,3.086-3.3.244,21.419-.544,42.864.085,64.27-.459,6.828,5.88,9.246,5.758,15.847.094,16.983.206,33.992-.525,50.948-.4,4.6,3.891,6.16,3.789,10.542.122,7.563-.328,15.112-.281,22.689,1.632-.267,3.292-.534,4.961-.775.094-4.971-.235-9.994.357-14.912,1.388-4.249,5-4.9,7.7-6.707,4.2-1.907,6.777-7.863,19.151-4.57,9.37,4.772.988-4.231,3.939,258.56,9.922-.08,19.863-.281,29.786.4.328,17.718-.272,35.449.094,53.18.966.214,1.941.441,2.945.668-.206-9.046-.169-18.105-.169-27.151.694.027,2.072.067,2.757.08.038,9.66-.2,19.308.066,28.955,14.293,1.041,6.668.137,17.537-3.527,1.284-29.228-2.187-147.893,2.26-150.883,4.07-.842,8.234-.481,12.352-.855.253-1.523.525-3.06.825-4.583,3.123-.361,5.88-2.392,7.953-5.759,1.181,1.764,2.363,3.527,3.583,5.278,17.7-1.758,17.589,2.017,25.368-2.485a66.033,66.033,0,0,0,6.593,3.154,43.066,43.066,0,0,0,1.951,4.7c2.326.975,2.654-3.18,3.658-5.211q1.013-.1,2.11-.2c.291,1.576.6,3.166.929,4.744,1.707.294,3.423.588,5.167.895.409,10.088.244,91.492.1,103.861,1.238-.014,2.494-.041,3.779-.08.544-6.882-1.567-15.5,2.5-20.8,2.785-4.5,7.653-6.707,8.619-13.162.393-7.1.872-14.617-1.031-21.365a44.667,44.667,0,0,0,2.87-5.318c.544-4.489-.206-9.233.817-13.575,2.251-3.408,5.589-4.557,8.337-6.962,1.8-8.484-1.116-17.344.488-25.935.994-5.959-2.11-10.743-3.451-15.981.919-3.821,2.129-8.1,4.577-10.423,6.2-.2,4.463,2.3,4.492,216.186H0v-239.8c1.416,1.764,2.795,3.781,4.614,4.7a35.024,35.024,0,0,0,4.155-3.234c.975,1.924,1.9,3.915,2.964,5.759,2.991-.615,4.774-4.783,7.034-7.255,3.338,5.185,7.578,8.712,11.891,11.972,1.172,3.915.563,8.484.947,12.667,1.388-.494,2.945-.909,3.536-3.033,3.207-8.632,7.137-17.3,7.09-27.445.375.4,1.135,1.2,1.519,1.6,1.031,9.674,4.061,18.52,7.381,26.991,14.706,38.126,9.232,20.429,10.579,37.881,1.2.361,2.41.708,3.61,1.042.586,9.941.286,66.781.187,76.43,1.6.361,3.207.708,4.811,1.082.666,1.457.938,3.447,2.035,4.423,3.451.414,6.931.214,10.391.307.066-4.128-.028-8.271.235-12.4.3-4.489,1.81-8.659,1.848-13.2.337-8.472-1.031-17.451,1.707-25.387.788-3.768,3.536-5.144,5.749-6.748-1.37-26.5,7.889-38.731,10.851-37.841,5.214.948,9.444,6.48,12.079,12.707,1.96,5.037,5.458,8.191,7.869,12.694.806,5.051.534,10.315.938,15.446,4.07-.735,7.719-4.249,11.9-3.781,9.856-.16,19.732.32,29.56-.561.609-10.048-1.313-21.205,2.5-30.278a21.369,21.369,0,0,1,4.389-2.191c.571-22.272,2.343-3.572,2.513-34.46,1.163-1.323,2.336-2.632,3.5-3.942-.319-7.924,3.254-15.259,1.416-23.142h2.382c-1.782,7.883,1.7,15.259,1.4,23.169,1.144,1.323,2.3,2.632,3.451,3.956.019,6.521-.713,13.308.919,19.588.966,3.875,1,8.057,1.875,11.958,1.276,3.7,2.9,7.175,3.723,11.17,1.932,7.522.441,15.647,1.285,23.4,2.558,6.407,1.527,3.854,22.761,3.808.037-36.5-.244-73.009.122-109.5,1.763-.24,3.527-.468,5.289-.708q.3-3.567.591-7.108a75.369,75.369,0,0,1,8.722-2.846c.366-1.5.722-2.993,1.079-4.477,1.679-1.576,4.182-2.538,4.586-5.745,3.011-14.689,5.876-5.725,12.323-6.213,6.067-.254,12.286,1.483,18.166-1.443,3.967-1.777,5.215,5.452,5.627,9.567,2.964.281,5.946.414,8.928.454,2.523,4.477,2.026,10.261,1.97,15.606,1.866,0,3.733,0,5.6-.013.272-1.684.534-3.354.8-5.037,4.9.4,9.922-.668,14.771.507,2.617,2.618,5.233,5.492,8.638,5.278-.546,33.841-.586,170.672-.2,186.6,1.641.32,3.3.628,4.961.935.516,1.2,1.031,2.4,1.557,3.607,4.314,1.777,8.609,4.57,13.223,3.287-.066-47.755.356-95.51-.047-143.269a84.5,84.5,0,0,0,8.928-8.244c3.048,3.634,6.649,6.04,10.072,8.845.724,1.794.286,72.671.281,73.744a138.664,138.664,0,0,1,15.455-.16c.085,4.516-.262,9.126.356,13.6,1.041,2.339,3.2,3.968,3.095,7.068.206,5.546.019,11.1.262,16.649,6.03.361,12.061.534,18.091.427-.15-25.9.1-51.79-.15-77.685,3.629-.094,7.268-.121,10.907-.107.253-7.136-.3-14.27-.056-21.406,1.378-.388,2.767-.788,4.164-1.19-1.267-121.826,1.233-52.384,2.185-110.485,7.127-4.048,15.549-4.489,22.536.347.91,7.429.15,15.019.478,22.515.131,3.675,1.65,6.882,1.857,10.542.337,7.6-.1,15.232.112,22.849.112,5.866,2.129,11.264,2.195,17.157.347,12.654-.1,25.321.122,37.974,1.416-.067,2.832-.133,4.257-.227.122-5.946.206-11.9.178-17.851,2.373-.2,4.745-.374,7.118-.562a80.671,80.671,0,0,1,.609-9.42c4.6-12.777,2.988,18.516,3.2-123.684,2.8-1.309,5.487-3.127,8.347-4.182,2.045-.094,4.014,1.136,6.077.948,5.514-1.2,11.029.948,16.571.053q.309,4.149.788,8.258,1.322-2.686,2.476-5.558c2.9-.094,5.805-.053,8.721-.121.131-14.176-.788-28.367.122-42.53,1.819-1.055,3.648-2.085,5.5-3.073.3-2.432.591-4.863.929-7.269,3.967-1.176,7.878-2.686,11.816-4.022.977-27.192-.129-54.477.771-81.681Z" transform="translate(0.002 5897.602)" fill="#eee" opacity="0.05"/>
    <path id="Path_3411" data-name="Path 3411" d="M136.658,134.864c27.961-71.735,62.8-54.5,99.8-22.583,9.528,7.634,5.524,16.134-1.457,10.2C196.26,90,165.6,97.814,141.757,142.392,138.005,151.236,131.964,147.059,136.658,134.864Z" transform="translate(82.105 5857.492)" fill="#eee" opacity="0.05"/>
  </g>
</svg>
