<svg xmlns="http://www.w3.org/2000/svg" width="1919" height="357.636" viewBox="0 0 1919 357.636">
  <g id="Group_13082" data-name="Group 13082" transform="translate(-9 -6182)">
    <path id="skyline-2730410" d="M512.663,40.767c.91-.117,1.819-.243,2.739-.369.029,10.958.1,21.916.019,32.865-.272,3.879,1.022,7.624,1.06,11.454a56.052,56.052,0,0,0-.75,16.18c4.155.166,8.178,1.264,12.211,2.237.291,2.188.488,4.375.722,6.573,1.885.933,3.77,1.847,5.655,2.81.863,16.549-2.377,181.637,2.56,197.428,2.71,7.721,1.013,16.093,1.3,24.114l3.573-.03c.542-9.28,2.753.368,2.579-36.561,2.494-.243,4.989-.467,7.493-.729q.3-2.625.675-5.221,3.742.058,7.493.039a7.735,7.735,0,0,0,6.049,6.223c.281,8.061-.178,16.132.31,24.192.628-.01,1.9-.03,2.532-.049q-.043-32.569.187-65.138c10.232-.448,20.492-.379,30.723.146.378,18.59-1.727,17.934,4.624,21.858,1.445-114.968-3.678-89.439,7.484-99.153.74-8.489-.553-17.074.432-25.553,1.435-3.481,3.676-6.583,4.989-10.152.994,1.954,1.979,3.928,2.982,5.892,5.57-.194,11.142-.068,16.712.039.131,1.634.262,3.277.4,4.911l2.438-.03q.393-2.582.854-5.163c1.341-.019,2.7-.03,4.061-.058.588,10.793-.349,62.306.178,83.665,2.457.068,4.924.039,7.39-.009.122,17.59-.432,35.19.244,52.76,2.954.049,5.909,0,8.872-.049.122,3.17.225,6.34.337,9.51,2.56.1,5.13.136,7.7.175-3.278-10.784-.167-1.118-1.773-53.13,1.341-22.481-.863-45.039.516-67.491,14.1-.233,28.2-.058,42.306-.185,1.06,13.613-.422,27.255.094,40.877,3.958.467,7.69-.953,11.488-1.789,16.828,3.959,12.822,1.379,12.923,20.935a197.154,197.154,0,0,1,20.341.33c.056,1.449.131,2.9.206,4.346,8.686,5.99,4.087,4.406,13.148,5.26.124,39.268-1.088,40.4,2.185,40.946.694-19.35-.187-38.729.253-58.078,6.687-.875,12.68-4.716,19.375-5.338,7.605,1.634,15.38,1.118,23.089,1.226.337,16.19-.206,32.389.319,48.569,5.28-.912.243-71.09,2.438-91.071.75-.185,19.8-4.9,22.067-6.476,1.013-1.906,1.725-3.957,2.569-5.95,1.013,1.487,2.035,2.965,3.086,4.444,11.573-1.069,23.155-.166,34.747-.049.657,26.536-.281,53.11.225,79.647,3.029.127,6.068.2,9.106.36.178,1.857.356,3.724.553,5.591,7.025.185,14.058.224,21.092.009-.019-6.553-.4-13.107.056-19.651,4.52.088,9.06.166,13.589-.136.085-5.027-.4-10.152.835-15.072,1.426-5.62,1.2-11.591,3.029-17.123,2.006-3.869,1.974.092,9.791-20.147,1.922-4.618,1-9.792,2.054-14.6q.9-4.113,1.463-8.294a10.315,10.315,0,0,1,2.147,6.952c-.778,15.27,7.718,27.345,11.076,34.615,3.414,11.787,2.856,8.662,2.758,72.518q2.842.029,5.721.03c.262-19.214.244-38.427.235-57.641-.122-3.948,1.707-7.594,1.8-11.522.131-3.8-.16-7.691.929-11.386,1.7-5.474.891-11.279,1.285-16.909-.075-2.392,2.035-3.851,3.142-5.717,2.6-3.549,1.585-8.644,4.361-12.057,3.648-4.454,3.095-10.725,4.52-16.073,1.97-6.553.854-13.486,1-20.225l.76.039c-.7,33.943,2.234,24.448-3.564,34.3a85.351,85.351,0,0,0,8.759,1.293c.816,3.461,1.6,6.923,2.494,10.365.788,2.917,3.976,4.774,3.714,8.051a32.04,32.04,0,0,0,1.369,9.753c8.506-2.013,17.369-1.682,26.015-1,5.017,8.109,12,14.7,19.291,20.614.034.409.074,67.655.075,68.064,3.667.1,7.493-.632,11.028.758,5.327,2.129,11.132.651,16.694,1.2,1.4-1.9,2.841-3.743,4.4-5.523,2.41,1.954,5.008,3.957,8.253,3.724.3-65.8-3.4-76.833,13.279-80.23-.009-2.226-.028-4.454-.019-6.68a33.265,33.265,0,0,1,5.017-2.976c2.448,2.343.638,6.281,1.819,9.2.722,1.653,1.679,3.179,2.419,4.833,1.182,2.431,1.341,5.9,4.558,6.243,1.031-1.362,1.407-3.928,3.517-3.87,14.794-.95,5.522,1.2,22.733,3.87.009,5-.009,10.005.019,15,3.789.311,7.587.418,11.394.457.376,14.022-.085,28.053.2,42.084q2.771,1.152,5.552,2.362c.441,6.583.262,13.185.5,19.787,1.06-.01,2.129-.019,3.207-.019,4.758-21.363,4.562-17.863,26.672-17.619,1.3.146,3.1-.1,3.686,1.487,3.311,8.46,7.343,16.909,7.5,26.254-.085,3.355,3.714,5.212,3.413,8.635.047,20.838-.356,41.685.206,62.522q4.755.132,9.538,0c.188-9.081-.262-18.183.216-27.255,3.629-.175,7.268-.224,10.907-.282.122-3.092.272-6.174.488-9.257,4.126.03,8.253.019,12.389.078.4,47.274-1.208,48.179,2.372,48.569.738-14.556.142-111.851.16-111.952,2.354-4.356,7.756-2.528,11.629-3.539,9.293-3.144,18.636-1.314,21.458.671,2.176,1.245,3.395,3.578,4.633,5.717,9.556-.632,19.113.486,28.678.272,1.4,5.1.77,32.078.74,32.856,6.171-.321,12.352-.019,18.531-.243.478-3.17,1-6.33,1.754-9.441,3.114,3.89,2.513,9.714,6.067,13.3,4.8,6.563,3.021-3.965,3.573,56.679,5.364.612,10.1-2.645,15.428-2.528.486-15.1-.744-70.883-.066-94.856a86.871,86.871,0,0,1,16.431.632c1.829-2.373,3.6-4.814,5.271-7.331a18.828,18.828,0,0,0,11.385,3.209c.272,1.274.563,2.547.881,3.831q6.2.073,12.417.661a133.249,133.249,0,0,1,.225,16.423c6.63.039,12.361,4.161,18.963,4.629a12.7,12.7,0,0,0,4.914,4.249c.994,6.943.459,13.944.478,20.925,8.159-.389,16.318-1.021,24.5-.486.462-13.317-.3-74.331.225-105.059,5.524-.243,11.066-.175,16.609-.2-.056-5.795.638-11.561.5-17.347,6.03-.243,12.07-.039,18.109-.127,2.27-7.965-.209-6.6,9.256-7.779.15-15.675-.544-31.445,1.06-47.052,2.056,4.532,1.491,31.342,1.594,46.712,3.338.457,6.077,2.422,8.44,4.794,2.129,2.207,5.768,2.509,7.6,4.794.81,6.32.241,91.7.384,183.953q5.656.161,11.338.009c.147-9.725-.409-75.97.469-85.616,3.161-.127,6.33-.3,9.5-.584.178-5.717-.91-11.727,1.416-17.132,5.392-.068,10.795-.088,16.2.146a101.792,101.792,0,0,1,.253,16.559c6.94,4.705,5.171-3.057,5.28,33.624a161.014,161.014,0,0,1,17.19.136c.694,6.933.028,13.885.225,20.818,3.02,1.041,6.2,1.5,9.266,2.422-.009,4.463-.281,8.926,0,13.4,3.864.088,7.737.078,11.61.146-.089-6.24-.614-71.087.422-77.37,5.984.2,12.041-.35,18.006.5,4.858,1.362,9.669,3.1,14.771,3.258.075,1.857.15,3.715.281,5.581,2.71-.068,5.439-.155,8.177-.233,0-3.024-.009-6.048.029-9.062a45.8,45.8,0,0,1,11.986-.224c.216,1.371.459,2.732.741,4.094q5.585.058,11.2.058c.15-1.993.281-4,.413-5.99,4.07,0,8.15-.136,12.229-.175,0,0,.636,65.338.281,97.583,1.313-.039,2.635-.068,3.986-.088.588-12.83-.187-138.227.131-142.283a118.645,118.645,0,0,1,13.017-.088c-.235-9.9-.338-69.863.066-77.7a201.114,201.114,0,0,1,22.452.088c.178-3.364.056-6.738.075-10.1-.141-2.538,2.054-4.4,2.2-6.855-.507-10.978-.357-21.965-.647-32.962.244-3.014-.769-6.777,1.716-9.043,10.226-10.856,4.307-4.447,6.3-51.787,1-.8,2.035-1.6,3.086-2.4.244,15.587-.544,31.193.085,46.77-.459,4.969,5.88,6.728,5.758,11.532.094,12.359.206,24.737-.525,37.076-.4,3.345,3.891,4.482,3.789,7.672.122,5.5-.328,11-.281,16.511,1.632-.194,3.292-.389,4.961-.564.094-3.618-.235-7.273.357-10.852,1.388-3.092,5-3.569,7.7-4.881,4.2-1.388,6.777-5.722,19.151-3.325,9.37,3.473.988-3.079,3.939,188.157,9.922-.058,19.863-.2,29.786.291.328,12.893-.272,25.8.094,38.7.966.155,1.941.321,2.945.486-.206-6.583-.169-13.175-.169-19.758.694.019,2.072.049,2.757.058.038,7.03-.2,14.05.066,21.071,14.293.758,6.668.1,17.537-2.567,1.284-21.27-2.187-107.624,2.26-109.8,4.07-.612,8.234-.35,12.352-.622.253-1.108.525-2.226.825-3.335a11.561,11.561,0,0,0,7.953-4.191c1.181,1.284,2.363,2.567,3.583,3.841,17.7-1.279,17.589,1.468,25.368-1.808,2.147.866,4.352,1.614,6.593,2.295a27.422,27.422,0,0,0,1.951,3.422c2.326.71,2.654-2.314,3.658-3.792q1.013-.073,2.11-.146c.291,1.147.6,2.3.929,3.452,1.707.214,3.423.428,5.167.651.409,7.341.244,66.58.1,75.581,1.238-.01,2.494-.03,3.779-.058.544-5.008-1.567-11.279,2.5-15.14,2.785-3.277,7.653-4.881,8.619-9.578.393-5.163.872-10.637-1.031-15.548a31.124,31.124,0,0,0,2.87-3.87c.544-3.267-.206-6.719.817-9.879,2.251-2.48,5.589-3.316,8.337-5.066,1.8-6.174-1.116-12.621.488-18.873.994-4.336-2.11-7.818-3.451-11.63.919-2.781,2.129-5.892,4.577-7.585,6.2-.146,4.463,1.674,4.492,157.321H0v-174.5c1.416,1.284,2.795,2.752,4.614,3.422A35.9,35.9,0,0,0,8.767,224.6c.975,1.4,1.9,2.849,2.964,4.191,2.991-.448,4.774-3.481,7.034-5.28,3.338,3.773,7.578,6.34,11.891,8.712,1.172,2.849.563,6.174.947,9.218,1.388-.36,2.945-.661,3.536-2.207,3.207-6.281,7.137-12.592,7.09-19.972.375.291,1.135.875,1.519,1.166,1.031,7.04,4.061,13.477,7.381,19.642,14.706,27.745,9.232,14.866,10.579,27.566,1.2.263,2.41.515,3.61.758.586,7.234.286,48.6.187,55.619,1.6.263,3.207.515,4.811.787.666,1.06.938,2.509,2.035,3.219,3.451.3,6.931.155,10.391.224.066-3-.028-6.019.235-9.023.3-3.267,1.81-6.3,1.848-9.607.337-6.165-1.031-12.7,1.707-18.475.788-2.742,3.536-3.743,5.749-4.911-1.37-19.287,7.889-28.185,10.851-27.537,5.214.69,9.444,4.716,12.079,9.247,1.96,3.666,5.458,5.961,7.869,9.238.806,3.676.534,7.506.938,11.24,4.07-.535,7.719-3.092,11.9-2.752,9.856-.117,19.732.233,29.56-.408.609-7.312-1.313-15.431,2.5-22.034a25.3,25.3,0,0,1,4.389-1.595c.571-16.208,2.343-2.6,2.513-25.077,1.163-.963,2.336-1.916,3.5-2.868-.319-5.766,3.254-11.1,1.416-16.841h2.382c-1.782,5.737,1.7,11.1,1.4,16.86,1.144.963,2.3,1.916,3.451,2.878.019,4.745-.713,9.685.919,14.255.966,2.82,1,5.863,1.875,8.7,1.276,2.693,2.9,5.221,3.723,8.129,1.932,5.474.441,11.386,1.285,17.026,2.558,4.663,1.527,2.8,22.761,2.771.037-26.564-.244-53.13.122-79.686,1.763-.175,3.527-.34,5.289-.515q.3-2.6.591-5.173c2.889-.787,5.777-1.556,8.722-2.071.366-1.089.722-2.178,1.079-3.258,1.679-1.147,4.182-1.847,4.586-4.181,3.011-10.689,5.876-4.166,12.323-4.521,6.067-.185,12.286,1.079,18.166-1.05,3.967-1.293,5.215,3.967,5.627,6.962,2.964.2,5.946.3,8.928.33,2.523,3.258,2.026,7.467,1.97,11.357q2.8,0,5.6-.009c.272-1.226.534-2.441.8-3.666,4.9.291,9.922-.486,14.771.369,2.617,1.906,5.233,4,8.638,3.841-.546,24.626-.586,124.2-.2,135.794,1.641.233,3.3.457,4.961.681.516.875,1.031,1.75,1.557,2.625,4.314,1.293,8.609,3.325,13.223,2.392-.066-34.752.356-69.5-.047-104.259a80.523,80.523,0,0,0,8.928-6c3.048,2.645,6.649,4.4,10.072,6.437.724,1.306.286,52.883.281,53.664,5.14-.36,10.3-.175,15.455-.117.085,3.286-.262,6.641.356,9.9,1.041,1.7,3.2,2.888,3.095,5.144.206,4.036.019,8.081.262,12.115,6.03.263,12.061.389,18.091.311-.15-18.844.1-37.688-.15-56.533,3.629-.068,7.268-.088,10.907-.078.253-5.193-.3-10.385-.056-15.577,1.378-.282,2.767-.574,4.164-.866-1.267-88.654,1.233-38.12,2.185-80.4,7.127-2.946,15.549-3.267,22.536.253.91,5.406.15,10.929.478,16.384.131,2.674,1.65,5.008,1.857,7.672.337,5.532-.1,11.085.112,16.627.112,4.269,2.129,8.2,2.195,12.485.347,9.208-.1,18.426.122,27.634,1.416-.049,2.832-.1,4.257-.166.122-4.327.206-8.663.178-12.99,2.373-.146,4.745-.272,7.118-.409a42.99,42.99,0,0,1,.609-6.855c4.6-9.3,2.988,13.475,3.2-90.006,2.8-.953,5.487-2.275,8.347-3.043,2.045-.068,4.014.827,6.077.69,5.514-.875,11.029.69,16.571.039q.309,3.019.788,6.009,1.322-1.955,2.476-4.045c2.9-.068,5.805-.039,8.721-.088.131-10.316-.788-20.643.122-30.95q2.729-1.152,5.5-2.237c.3-1.77.591-3.539.929-5.29,3.967-.856,7.878-1.954,11.816-2.927.977-19.788-.129-39.643.771-59.441Z" transform="translate(9.002 6141.602)" fill="#eee" opacity="0.05"/>
    <path id="Path_3411" data-name="Path 3411" d="M136.658,134.864c27.961-71.735,62.8-54.5,99.8-22.583,9.528,7.634,5.524,16.134-1.457,10.2C196.26,90,165.6,97.814,141.757,142.392,138.005,151.236,131.964,147.059,136.658,134.864Z" transform="translate(91.105 6104.492)" fill="#eee" opacity="0.05"/>
  </g>
</svg>
