<svg xmlns="http://www.w3.org/2000/svg" xmlns:xlink="http://www.w3.org/1999/xlink" width="919.786" height="811.651" viewBox="0 0 919.786 811.651">
  <defs>
    <linearGradient id="linear-gradient" x1="0.601" y1="0.92" x2="0.335" y2="-0.592" gradientUnits="objectBoundingBox">
      <stop offset="0" stop-color="#d7e69d"/>
      <stop offset="0.446" stop-color="#94c4aa"/>
      <stop offset="1" stop-color="#01a4b6"/>
    </linearGradient>
    <linearGradient id="linear-gradient-2" x1="-0.32" y1="-1.288" x2="0.805" y2="1.143" gradientUnits="objectBoundingBox">
      <stop offset="0" stop-color="#ed277b"/>
      <stop offset="0.019" stop-color="#ee2f7c"/>
      <stop offset="0.704" stop-color="#f7bd81"/>
      <stop offset="1" stop-color="#feeb74"/>
    </linearGradient>
    <linearGradient id="linear-gradient-3" x1="0.509" y1="0.747" x2="0" y2="-0.294" gradientUnits="objectBoundingBox">
      <stop offset="0" stop-color="#89cfbd"/>
      <stop offset="0.091" stop-color="#7dbebb"/>
      <stop offset="0.54" stop-color="#457cac"/>
      <stop offset="0.852" stop-color="#1c5aa2"/>
      <stop offset="1" stop-color="#084d9f"/>
    </linearGradient>
    <linearGradient id="linear-gradient-4" x1="1.193" y1="0.357" x2="-0.23" y2="0.612" gradientUnits="objectBoundingBox">
      <stop offset="0" stop-color="#f04a2b"/>
      <stop offset="0.47" stop-color="#b54f6b"/>
      <stop offset="0.835" stop-color="#8b5191"/>
      <stop offset="1" stop-color="#7851a1"/>
    </linearGradient>
  </defs>
  <g id="Group_13088" data-name="Group 13088" transform="translate(-858.215 -2939.791)">
    <path id="Shape" d="M118.348,30.558a3.4,3.4,0,0,1-3.408,3.4H3.412A3.409,3.409,0,0,1,0,30.558V3.409A3.413,3.413,0,0,1,3.412,0H114.94a3.408,3.408,0,0,1,3.408,3.409V30.558Z" transform="translate(1658.791 2939.791)"/>
    <g id="Group" transform="translate(1669.371 2944.526)">
      <path id="Shape-2" data-name="Shape" d="M15.41,6.589a5.153,5.153,0,0,1,2.454-4.324A5.278,5.278,0,0,0,13.708.019c-1.748-.184-3.444,1.046-4.335,1.046-.908,0-2.28-1.028-3.758-1A5.534,5.534,0,0,0,.957,2.908c-2.014,3.487-.512,8.612,1.418,11.43.965,1.38,2.093,2.922,3.57,2.868,1.444-.06,1.984-.921,3.727-.921,1.727,0,2.234.921,3.74.886,1.55-.025,2.526-1.387,3.458-2.78a11.407,11.407,0,0,0,1.581-3.22,4.981,4.981,0,0,1-3.04-4.581Z" transform="translate(0 5.47)" fill="#fff"/>
      <path id="Shape-3" data-name="Shape" d="M3.4,3.635A5.072,5.072,0,0,0,4.558,0a5.166,5.166,0,0,0-3.34,1.728,4.827,4.827,0,0,0-1.191,3.5A4.267,4.267,0,0,0,3.4,3.635Z" transform="translate(9.168 0)" fill="#fff"/>
    </g>
    <g id="Group-2" data-name="Group" transform="translate(1695.698 2955.001)">
      <path id="Shape-4" data-name="Shape" d="M1.965,11.83H0L3.808,0H6.16L9.986,11.828H7.968L6.862,8.354H3.018L1.966,11.83ZM4.9,1.579c-.112.485-.3,1.214-.562,2.229L3.353,6.9H6.529l-1-3.089c-.105-.314-.3-1.043-.6-2.229H4.9Z" transform="translate(0 0.173)" fill="#fff"/>
      <path id="Shape-5" data-name="Shape" d="M1.966,12.181H.07v-9.2c0-.9-.024-1.841-.07-2.808H1.666l.106,1.352h.035A3.171,3.171,0,0,1,4.686,0,3.177,3.177,0,0,1,7.2,1.193a4.724,4.724,0,0,1,1.01,3.142A4.867,4.867,0,0,1,7.038,7.774,3.455,3.455,0,0,1,4.423,8.9,2.627,2.627,0,0,1,2,7.687H1.966V12.18ZM4.072,1.509A1.974,1.974,0,0,0,2.8,1.974a2.162,2.162,0,0,0-.746,1.22,2.474,2.474,0,0,0-.088.578V5.194a2.293,2.293,0,0,0,.57,1.572,1.9,1.9,0,0,0,1.482.641,1.95,1.95,0,0,0,1.667-.825,3.647,3.647,0,0,0,.6-2.177,3.527,3.527,0,0,0-.562-2.054A1.947,1.947,0,0,0,4.072,1.509Z" transform="translate(11.565 3.298)" fill="#fff"/>
      <path id="Shape-6" data-name="Shape" d="M1.966,12.181H.07v-9.2c0-.9-.024-1.841-.07-2.808H1.666l.106,1.352h.035A3.17,3.17,0,0,1,4.686,0,3.185,3.185,0,0,1,7.206,1.193,4.734,4.734,0,0,1,8.214,4.335,4.864,4.864,0,0,1,7.037,7.774,3.452,3.452,0,0,1,4.422,8.9,2.623,2.623,0,0,1,2,7.687H1.966V12.18ZM4.071,1.509A1.978,1.978,0,0,0,2.8,1.974a2.161,2.161,0,0,0-.745,1.22,2.485,2.485,0,0,0-.088.578V5.194a2.3,2.3,0,0,0,.569,1.572,1.9,1.9,0,0,0,1.484.641,1.95,1.95,0,0,0,1.667-.825,3.652,3.652,0,0,0,.6-2.177A3.527,3.527,0,0,0,5.72,2.351,1.947,1.947,0,0,0,4.071,1.509Z" transform="translate(21.377 3.298)" fill="#fff"/>
      <path id="Shape-7" data-name="Shape" d="M7.339,8.685a3.153,3.153,0,0,1-1.051,2.457,4.657,4.657,0,0,1-3.222,1.036A5.64,5.64,0,0,1,0,11.441l.439-1.58a5.2,5.2,0,0,0,2.74.756,2.59,2.59,0,0,0,1.668-.484,1.579,1.579,0,0,0,.6-1.292,1.648,1.648,0,0,0-.492-1.212,4.57,4.57,0,0,0-1.632-.915Q.212,5.555.213,3.322A3,3,0,0,1,1.3.932,4.293,4.293,0,0,1,4.2,0,5.742,5.742,0,0,1,6.883.562L6.409,2.107a4.658,4.658,0,0,0-2.264-.544,2.292,2.292,0,0,0-1.561.492A1.4,1.4,0,0,0,2.11,3.125a1.446,1.446,0,0,0,.543,1.158A6.138,6.138,0,0,0,4.374,5.2,5.839,5.839,0,0,1,6.62,6.635a3,3,0,0,1,.718,2.051Z" transform="translate(33.22 0)" fill="#fff"/>
      <path id="Shape-8" data-name="Shape" d="M5.195,3.548H3.106V7.689q0,1.58,1.106,1.58a3.37,3.37,0,0,0,.842-.088l.052,1.439a4.294,4.294,0,0,1-1.474.21,2.274,2.274,0,0,1-1.756-.684,3.362,3.362,0,0,1-.632-2.3v-4.3H0V2.124H1.244V.562L3.106,0V2.124H5.195V3.548Z" transform="translate(41.63 1.348)" fill="#fff"/>
      <path id="Shape-9" data-name="Shape" d="M4.106,8.9A3.831,3.831,0,0,1,1.114,7.651,4.551,4.551,0,0,1,0,4.51,4.652,4.652,0,0,1,1.15,1.264,3.993,3.993,0,0,1,4.246,0,3.91,3.91,0,0,1,7.265,1.246a4.5,4.5,0,0,1,1.09,3.122A4.7,4.7,0,0,1,7.231,7.6,4.03,4.03,0,0,1,4.106,8.9Zm.073-7.511A1.909,1.909,0,0,0,2.441,2.406a3.934,3.934,0,0,0-.508,2.059,3.853,3.853,0,0,0,.508,2.023,1.937,1.937,0,0,0,3.422-.018A3.862,3.862,0,0,0,6.389,4.43,3.851,3.851,0,0,0,5.88,2.406,1.88,1.88,0,0,0,4.178,1.386Z" transform="translate(47.895 3.299)" fill="#fff"/>
      <path id="Shape-10" data-name="Shape" d="M4.564,1.842a3.291,3.291,0,0,0-.6-.052,1.791,1.791,0,0,0-1.545.756,2.84,2.84,0,0,0-.474,1.684V8.7H.053L.071,2.861Q.071,1.387,0,.176H1.651L1.72,1.808h.052A2.917,2.917,0,0,1,2.72.457,2.291,2.291,0,0,1,4.09,0a3.043,3.043,0,0,1,.474.035V1.842Z" transform="translate(57.846 3.298)" fill="#fff"/>
      <path id="Shape-11" data-name="Shape" d="M4.248,8.879A4.163,4.163,0,0,1,1.131,7.712,4.329,4.329,0,0,1,0,4.579,4.907,4.907,0,0,1,1.054,1.368,3.647,3.647,0,0,1,4.037,0,3.192,3.192,0,0,1,6.829,1.368a4.636,4.636,0,0,1,.752,2.685,4.4,4.4,0,0,1-.07.859H1.826A2.484,2.484,0,0,0,2.65,6.843a2.829,2.829,0,0,0,1.86.6,6.32,6.32,0,0,0,2.3-.4l.3,1.315A7.14,7.14,0,0,1,4.248,8.879ZM3.9,1.314a1.8,1.8,0,0,0-1.509.773A2.839,2.839,0,0,0,1.826,3.56H5.774A2.588,2.588,0,0,0,5.406,2.1,1.662,1.662,0,0,0,3.9,1.314Z" transform="translate(63.305 3.282)" fill="#fff"/>
    </g>
    <g id="Group-3" data-name="Group" transform="translate(1696.823 2944.828)">
      <path id="Shape-12" data-name="Shape" d="M1.362,5.906A11.665,11.665,0,0,1,0,5.838V.121A10.115,10.115,0,0,1,1.6,0a3.473,3.473,0,0,1,2.3.664,2.694,2.694,0,0,1,.87,2.147,2.931,2.931,0,0,1-.94,2.363A3.759,3.759,0,0,1,1.362,5.906ZM1.682.734a3.928,3.928,0,0,0-.75.06V5.139a4.794,4.794,0,0,0,.63.026,2.21,2.21,0,0,0,1.65-.6,2.387,2.387,0,0,0,.583-1.733,2.133,2.133,0,0,0-.538-1.561A2.131,2.131,0,0,0,1.682.734Z" transform="translate(0 0.258)" fill="#fff"/>
      <path id="Shape-13" data-name="Shape" d="M2.017,4.37a1.883,1.883,0,0,1-1.47-.612A2.242,2.242,0,0,1,0,2.215,2.28,2.28,0,0,1,.565.621,1.966,1.966,0,0,1,2.086,0,1.925,1.925,0,0,1,3.57.611,2.22,2.22,0,0,1,4.1,2.146a2.311,2.311,0,0,1-.552,1.587A1.98,1.98,0,0,1,2.017,4.37ZM2.053.68a.938.938,0,0,0-.854.5,1.927,1.927,0,0,0-.25,1.011,1.9,1.9,0,0,0,.25.994.944.944,0,0,0,.845.5.933.933,0,0,0,.836-.51,1.894,1.894,0,0,0,.258-1,1.9,1.9,0,0,0-.25-.994A.923.923,0,0,0,2.053.68Z" transform="translate(5.881 1.837)" fill="#fff"/>
      <path id="Shape-14" data-name="Shape" d="M6.071,0,4.76,4.19H3.907l-.543-1.82a13.618,13.618,0,0,1-.337-1.354H3.01a9.911,9.911,0,0,1-.337,1.354L2.1,4.19H1.233L0,0H.957l.474,1.992q.172.707.284,1.345h.017q.1-.525.346-1.336l.595-2h.759L4,1.958q.207.716.336,1.38h.026a13.181,13.181,0,0,1,.284-1.38L5.156,0h.915Z" transform="translate(10.897 1.923)" fill="#fff"/>
      <path id="Shape-15" data-name="Shape" d="M3.673,4.278H2.741v-2.4Q2.741.769,1.9.769a.841.841,0,0,0-.673.3,1.082,1.082,0,0,0-.259.718V4.277H.034V1.285Q.034.733,0,.086H.819L.862.741H.888A1.346,1.346,0,0,1,1.371.236,1.574,1.574,0,0,1,2.215,0,1.337,1.337,0,0,1,3.19.38a1.844,1.844,0,0,1,.483,1.388v2.51Z" transform="translate(18.124 1.835)" fill="#fff"/>
      <path id="Shape-16" data-name="Shape" d="M.931,6.113H0V0H.931V6.113Z" transform="translate(23.436 0)" fill="#fff"/>
      <path id="Shape-17" data-name="Shape" d="M2.017,4.37a1.88,1.88,0,0,1-1.47-.612A2.242,2.242,0,0,1,0,2.215,2.28,2.28,0,0,1,.565.621,1.965,1.965,0,0,1,2.086,0,1.928,1.928,0,0,1,3.57.611,2.22,2.22,0,0,1,4.1,2.146a2.311,2.311,0,0,1-.552,1.587A1.98,1.98,0,0,1,2.017,4.37ZM2.053.68a.936.936,0,0,0-.854.5,1.927,1.927,0,0,0-.25,1.011,1.9,1.9,0,0,0,.25.994.944.944,0,0,0,.845.5.932.932,0,0,0,.835-.51,1.888,1.888,0,0,0,.258-1,1.9,1.9,0,0,0-.25-.994A.921.921,0,0,0,2.053.68Z" transform="translate(25.747 1.837)" fill="#fff"/>
      <path id="Shape-18" data-name="Shape" d="M1.285,4.37a1.268,1.268,0,0,1-.957-.379A1.2,1.2,0,0,1,0,3.138,1.307,1.307,0,0,1,.642,1.966a3.3,3.3,0,0,1,1.754-.4H2.45V1.49c0-.549-.293-.827-.87-.827A1.953,1.953,0,0,0,.487.974L.3.362A2.7,2.7,0,0,1,1.735,0C2.826,0,3.379.583,3.379,1.734V3.277a6.54,6.54,0,0,0,.061,1H2.6l-.069-.482H2.509A1.441,1.441,0,0,1,1.285,4.37Zm1.1-2.182A2.215,2.215,0,0,0,1.294,2.4a.69.69,0,0,0-.362.633.628.628,0,0,0,.179.492.655.655,0,0,0,.455.163.943.943,0,0,0,.57-.194.8.8,0,0,0,.338-.66V2.19Z" transform="translate(30.919 1.837)" fill="#fff"/>
      <path id="Shape-19" data-name="Shape" d="M1.758,6.208A1.585,1.585,0,0,1,.5,5.614,2.331,2.331,0,0,1,0,4.07,2.44,2.44,0,0,1,.543,2.423a1.678,1.678,0,0,1,1.294-.586,1.26,1.26,0,0,1,1.18.569h.018V0h.933V4.984c0,.42.011.789.033,1.129H3.174L3.13,5.44H3.1A1.4,1.4,0,0,1,1.758,6.208Zm.29-3.647a.961.961,0,0,0-.819.414,1.779,1.779,0,0,0-.3,1.06,1.666,1.666,0,0,0,.286,1.01.962.962,0,0,0,.814.413.9.9,0,0,0,.736-.345,1.154,1.154,0,0,0,.267-.767v-.7a1.392,1.392,0,0,0-.026-.294,1.062,1.062,0,0,0-.337-.564A.919.919,0,0,0,2.049,2.561Z" transform="translate(35.652 0)" fill="#fff"/>
      <path id="Shape-20" data-name="Shape" d="M2.017,4.37a1.885,1.885,0,0,1-1.47-.612A2.242,2.242,0,0,1,0,2.215,2.28,2.28,0,0,1,.565.621,1.967,1.967,0,0,1,2.087,0,1.92,1.92,0,0,1,3.57.611,2.22,2.22,0,0,1,4.1,2.146a2.311,2.311,0,0,1-.552,1.587A1.98,1.98,0,0,1,2.017,4.37ZM2.053.68a.939.939,0,0,0-.854.5,1.927,1.927,0,0,0-.25,1.011,1.9,1.9,0,0,0,.25.994.944.944,0,0,0,.845.5.933.933,0,0,0,.837-.51,1.9,1.9,0,0,0,.258-1,1.9,1.9,0,0,0-.25-.994A.925.925,0,0,0,2.053.68Z" transform="translate(43.516 1.837)" fill="#fff"/>
      <path id="Shape-21" data-name="Shape" d="M3.672,4.278H2.741v-2.4Q2.741.769,1.9.769a.838.838,0,0,0-.672.3,1.077,1.077,0,0,0-.259.718V4.277H.033V1.285Q.033.733,0,.086H.818L.861.741H.887A1.36,1.36,0,0,1,1.37.236,1.578,1.578,0,0,1,2.215,0a1.337,1.337,0,0,1,.974.38,1.841,1.841,0,0,1,.483,1.388v2.51Z" transform="translate(48.956 1.835)" fill="#fff"/>
      <path id="Shape-22" data-name="Shape" d="M2.552,1.741H1.526V3.777c0,.517.182.776.543.776a1.641,1.641,0,0,0,.415-.044l.024.707a2.093,2.093,0,0,1-.724.1,1.114,1.114,0,0,1-.861-.336,1.643,1.643,0,0,1-.311-1.13V1.741H0v-.7H.612V.276L1.525,0V1.043H2.551v.7Z" transform="translate(56.346 0.879)" fill="#fff"/>
      <path id="Shape-23" data-name="Shape" d="M3.639,6.113H2.707V3.731q0-1.127-.844-1.127a.889.889,0,0,0-.889.653,1.171,1.171,0,0,0-.044.335v2.52H0V0H.931V2.525H.948a1.408,1.408,0,0,1,1.259-.689,1.3,1.3,0,0,1,.958.38,1.908,1.908,0,0,1,.474,1.405V6.113Z" transform="translate(60.19 0)" fill="#fff"/>
      <path id="Shape-24" data-name="Shape" d="M2.086,4.362a2.042,2.042,0,0,1-1.53-.573A2.125,2.125,0,0,1,0,2.25,2.4,2.4,0,0,1,.518.672,1.789,1.789,0,0,1,1.982,0a1.564,1.564,0,0,1,1.37.672A2.247,2.247,0,0,1,3.726,1.99a2.246,2.246,0,0,1-.035.422H.9a1.228,1.228,0,0,0,.4.948,1.39,1.39,0,0,0,.914.294,3.09,3.09,0,0,0,1.13-.2l.146.647A3.529,3.529,0,0,1,2.086,4.362ZM1.914.646a.885.885,0,0,0-.741.379A1.4,1.4,0,0,0,.9,1.75h1.94a1.265,1.265,0,0,0-.181-.716A.818.818,0,0,0,1.914.646Z" transform="translate(65.191 1.829)" fill="#fff"/>
    </g>
    <path id="Shape-25" data-name="Shape" d="M120,31.414c0,3.255-2.679,5.279-6.321,5.279H6.6c-3.644,0-6.6-2.64-6.6-5.9V5.894C0,2.639,2.955,0,6.6,0h107.08A6.025,6.025,0,0,1,120,5.894v25.52Z" transform="translate(1658 2982.556)" fill="#010101"/>
    <g id="Group-4" data-name="Group" transform="translate(1685.901 2995.531)">
      <g id="Group-5" data-name="Group" transform="translate(0 0)">
        <path id="Shape-26" data-name="Shape" d="M4.442,9.085a4.049,4.049,0,0,1-2.515-.737A4.917,4.917,0,0,1,0,4.366,4.177,4.177,0,0,1,1.436,1.084,4.494,4.494,0,0,1,4.33,0,3.684,3.684,0,0,1,6.276.529,3.156,3.156,0,0,1,7.595,2.383L7.6,2.4,3.158,4.194,1.7,4.307a5.151,5.151,0,0,0,1.45,2.8,3.52,3.52,0,0,0,2.442,1A4.667,4.667,0,0,0,7.768,7.51L7.791,7.5a.112.112,0,0,1,.036-.011s.006,0,.007,0-.008.02-.031.043L6.9,8.387c-.072.039-.145.081-.215.122-.134.078-.273.158-.408.22A4.354,4.354,0,0,1,4.442,9.085ZM3.8.625a2.148,2.148,0,0,0-1.369.549,2.7,2.7,0,0,0-.8,2.08c0,.21.016.424.033.651.009.113.017.23.024.346L5.122,2.758c.364-.132.548-.247.548-.508A1.879,1.879,0,0,0,3.8.625Z" transform="translate(46.431 4.534)" fill="#fff"/>
        <path id="Shape-27" data-name="Shape" d="M3.276,11.921c0,.734.131.849.752.907.324.038.646.054.967.094l-.7.415H.967c.436-.566.511-.622.511-1v-.424L1.471.682H0L1.414,0h2.7a1.306,1.306,0,0,0-.836,1.206l0,10.716Z" transform="translate(41.67)" fill="#fff"/>
        <path id="Shape-28" data-name="Shape" d="M4.062,14.4C1.256,14.4,0,13.04,0,11.7A2.707,2.707,0,0,1,1.455,9.391,8.093,8.093,0,0,1,5.04,8.525h.025l-.04-.051A1.905,1.905,0,0,1,4.5,7.237a1.556,1.556,0,0,1,.157-.661c.012-.026.022-.051.032-.077l-.033,0c-.192.019-.391.038-.571.038A2.988,2.988,0,0,1,.943,3.573a3.412,3.412,0,0,1,1.21-2.532A5.155,5.155,0,0,1,5.534,0H9.428L8.22.683H7.05A3.172,3.172,0,0,1,8.385,3.232,3.193,3.193,0,0,1,6.8,5.916l-.031.031a1.291,1.291,0,0,0-.5.895,1.028,1.028,0,0,0,.476.8l.015.012.683.526a3.308,3.308,0,0,1,1.586,2.647C9.032,12.6,7.325,14.4,4.062,14.4ZM5.273,9.053a7.607,7.607,0,0,0-1.982.3A2.128,2.128,0,0,0,1.664,11.3a2.005,2.005,0,0,0,.905,1.655,4.173,4.173,0,0,0,2.418.651,3.358,3.358,0,0,0,2.069-.581,1.787,1.787,0,0,0,.708-1.459c0-.988-.669-1.507-2.058-2.5A3.05,3.05,0,0,0,5.273,9.053ZM4.344.626a1.77,1.77,0,0,0-1.323.626,2.171,2.171,0,0,0-.413,1.395c0,1.173.692,3.364,2.36,3.364A1.93,1.93,0,0,0,6.25,5.482,1.928,1.928,0,0,0,6.725,4.1C6.725,2.68,5.877.626,4.344.626Z" transform="translate(32.736 4.777)" fill="#fff"/>
        <path id="Shape-29" data-name="Shape" d="M4.61,9.048A4.487,4.487,0,0,1,1.179,7.614,4.53,4.53,0,0,1,0,4.592,4.46,4.46,0,0,1,1.369,1.368,5.009,5.009,0,0,1,4.893,0a4.473,4.473,0,0,1,3.3,1.372A4.535,4.535,0,0,1,9.41,4.458,4.626,4.626,0,0,1,8.165,7.589,4.709,4.709,0,0,1,4.61,9.048ZM4.4.586a2.649,2.649,0,0,0-1.7.642,2.859,2.859,0,0,0-.87,2.307,7.387,7.387,0,0,0,.748,3.173A2.856,2.856,0,0,0,5.045,8.48a2.4,2.4,0,0,0,1.928-.961,3.333,3.333,0,0,0,.567-2.1,7.379,7.379,0,0,0-.689-3.043A2.8,2.8,0,0,0,4.4.586Z" transform="translate(23.459 4.534)" fill="#fff"/>
        <path id="Shape-30" data-name="Shape" d="M4.608,9.048A4.484,4.484,0,0,1,1.177,7.614,4.532,4.532,0,0,1,0,4.592,4.459,4.459,0,0,1,1.37,1.368,5.009,5.009,0,0,1,4.893,0a4.467,4.467,0,0,1,3.3,1.372A4.538,4.538,0,0,1,9.406,4.458,4.628,4.628,0,0,1,8.163,7.589,4.706,4.706,0,0,1,4.608,9.048ZM4.4.586a2.611,2.611,0,0,0-1.7.642,2.858,2.858,0,0,0-.87,2.307,7.383,7.383,0,0,0,.749,3.173A2.856,2.856,0,0,0,5.045,8.48a2.4,2.4,0,0,0,1.927-.961,3.349,3.349,0,0,0,.567-2.1,7.374,7.374,0,0,0-.69-3.043A2.8,2.8,0,0,0,4.4.586Z" transform="translate(13.405 4.534)" fill="#fff"/>
        <path id="Shape-31" data-name="Shape" d="M12.2,12.151l-2.534.58a18.384,18.384,0,0,1-2.923.305C1.862,13.036,0,9.439,0,6.624,0,3.187,2.638,0,7.155,0A10.383,10.383,0,0,1,9.868.368a6.833,6.833,0,0,1,2.336,1.1l-1.472,1.4-.621.137.442-.7A5.05,5.05,0,0,0,6.764.636a4.89,4.89,0,0,0-4.9,5.226,6.261,6.261,0,0,0,6.267,6.464,5.276,5.276,0,0,0,2.248-.44V9.031L7.7,9.174l1.418-.761h3.753l-.46.442a.4.4,0,0,0-.174.283c-.019.162-.036.674-.036.854v2.159Z" transform="translate(0 0.776)" fill="#fff"/>
      </g>
      <g id="Group-6" data-name="Group" transform="translate(58.724 1.335)">
        <path id="Shape-32" data-name="Shape" d="M.956,12.468H0V.221H.956V1.615A3.793,3.793,0,0,1,4.036,0,3.67,3.67,0,0,1,6.908,1.255,5.092,5.092,0,0,1,8,4.643,5.125,5.125,0,0,1,6.909,8.034,3.658,3.658,0,0,1,4.036,9.3H4.031A3.763,3.763,0,0,1,.956,7.655v4.812ZM3.876.863A3.761,3.761,0,0,0,.956,2.674v3.92a3.792,3.792,0,0,0,2.92,1.848A2.8,2.8,0,0,0,6.17,7.349a4.371,4.371,0,0,0,.807-2.705A4.337,4.337,0,0,0,6.17,1.949,2.8,2.8,0,0,0,3.876.863Z" transform="translate(0 3.159)" fill="#fff"/>
        <path id="Shape-33" data-name="Shape" d="M0,12.246V0H.957V12.246Z" transform="translate(9.309)" fill="#fff"/>
        <path id="Shape-34" data-name="Shape" d="M.936,11.454a2.237,2.237,0,0,0,.774.148c.584,0,.992-.24,1.356-1.084l.7-1.579L0,0H1.066L4.3,7.746,7.494,0H8.576L3.983,10.814a2.347,2.347,0,0,1-2.256,1.651,3.8,3.8,0,0,1-.955-.129l.164-.881Z" transform="translate(20.052 3.381)" fill="#fff"/>
        <path id="Shape-35" data-name="Shape" d="M2.942,9.238a3.1,3.1,0,0,1-2.17-.694A2.428,2.428,0,0,1,0,6.656,2.237,2.237,0,0,1,1.121,4.724a5.122,5.122,0,0,1,2.908-.742H6.258v-1.1a1.859,1.859,0,0,0-.648-1.5A2.788,2.788,0,0,0,3.779.84a2.9,2.9,0,0,0-1.75.492,1.511,1.511,0,0,0-.664,1.241H.387L.368,2.525A2.059,2.059,0,0,1,1.291.761,4.015,4.015,0,0,1,3.834,0a3.979,3.979,0,0,1,2.52.751A2.571,2.571,0,0,1,7.307,2.9V7.272a6.925,6.925,0,0,0,.054.913,5.8,5.8,0,0,0,.192.878l-1.1,0c-.057-.273-.1-.536-.147-.8a5.43,5.43,0,0,1-.045-.692,3.811,3.811,0,0,1-1.384,1.2A3.85,3.85,0,0,1,2.942,9.238Zm1.074-4.5A3.7,3.7,0,0,0,1.9,5.313a1.662,1.662,0,0,0-.842,1.379,1.533,1.533,0,0,0,.535,1.215,2.186,2.186,0,0,0,1.47.463A3.612,3.612,0,0,0,5.05,7.829,2.739,2.739,0,0,0,6.256,6.444v-1.7Z" transform="translate(11.747 3.154)" fill="#fff"/>
      </g>
    </g>
    <g id="Group-7" data-name="Group" transform="translate(1685.941 2988.464)">
      <path id="Shape-36" data-name="Shape" d="M0,3.092A3.006,3.006,0,0,1,3.137,0a2.8,2.8,0,0,1,2.4,1.236l-.851.493a1.933,1.933,0,0,0-1.551-.8A2.043,2.043,0,0,0,1.076,3.091a2.053,2.053,0,0,0,2.061,2.16,2.152,2.152,0,0,0,1.416-.536V3.791H2.761V2.868H5.592V5.1A3.229,3.229,0,0,1,3.136,6.194,3.018,3.018,0,0,1,0,3.092Z" transform="translate(0 0)" fill="#fff"/>
      <path id="Shape-37" data-name="Shape" d="M0,5.979V0H4.1V.923H1.049V2.464H4.033v.923H1.049V5.054H4.1v.924Z" transform="translate(6.89 0.099)" fill="#fff"/>
      <path id="Shape-38" data-name="Shape" d="M1.81,5.978V.923H0V0H4.669V.923H2.859V5.978Z" transform="translate(12.077 0.099)" fill="#fff"/>
      <path id="Shape-39" data-name="Shape" d="M0,5.979V0H1.049V5.979Z" transform="translate(20.39 0.099)" fill="#fff"/>
      <path id="Shape-40" data-name="Shape" d="M1.81,5.978V.923H0V0H4.669V.923H2.859V5.978Z" transform="translate(22.548 0.099)" fill="#fff"/>
      <path id="Shape-41" data-name="Shape" d="M3.056,6.184A2.973,2.973,0,0,1,0,3.092,2.973,2.973,0,0,1,3.056,0,2.973,2.973,0,0,1,6.112,3.092,2.973,2.973,0,0,1,3.056,6.184Zm0-5.251A1.986,1.986,0,0,0,1.077,3.092a1.987,1.987,0,1,0,3.96,0A1.985,1.985,0,0,0,3.058.933Z" transform="translate(30.601 0)" fill="#fff"/>
      <path id="Shape-42" data-name="Shape" d="M4.166,5.979,1.048,1.7V5.979H0V0H1.076L4.13,4.14V0H5.18V5.979Z" transform="translate(37.939 0.099)" fill="#fff"/>
    </g>
    <g id="Group-8" data-name="Group" transform="translate(1663.037 2994.349)">
      <path id="Shape-43" data-name="Shape" d="M9.8,9.786,12.868,6.72h0L9.8,9.786.016,0h0L9.8,9.787,0,19.588l9.8-9.8,3.08,3.079h0Z" transform="translate(0.583 0.036)" fill="none"/>
      <path id="Shape-44" data-name="Shape" d="M12.851,6.756.9.187A1.175,1.175,0,0,0,0,.037L9.786,9.822l3.065-3.066Z" transform="translate(0.599 0)" fill="url(#linear-gradient)"/>
      <path id="Shape-45" data-name="Shape" d="M3.081,6.146,7.159,3.9c.827-.457.827-1.2,0-1.653L3.066,0,0,3.066,3.081,6.146Z" transform="translate(10.385 6.756)" fill="url(#linear-gradient-2)"/>
      <path id="Shape-46" data-name="Shape" d="M.6,0A.983.983,0,0,0,0,1.039L0,18.554a.99.99,0,0,0,.581,1.033l9.8-9.8L.6,0Z" transform="translate(0 0.036)" fill="url(#linear-gradient-3)"/>
      <path id="Shape-47" data-name="Shape" d="M0,9.8a1.158,1.158,0,0,0,.92-.144L12.882,3.08,9.8,0,0,9.8Z" transform="translate(0.583 9.823)" fill="url(#linear-gradient-4)"/>
    </g>
    <g id="Group_12685" data-name="Group 12685" transform="translate(858.215 3166)">
      <g id="OBJECTS" transform="translate(0)">
        <path id="Path_3412" data-name="Path 3412" d="M559.772,265.888a197.336,197.336,0,0,1-82.561-33.621c-42.445-30.262,46.849-19.947,119.556,4.461l-28.1,24.979Z" transform="translate(-326.863 84.151)" fill="#012a33" fill-rule="evenodd"/>
        <path id="Path_3413" data-name="Path 3413" d="M472.982,229.166c14.371,13.73,51.951,41.092,88.388,70.225l39.949,15.654,7.862-24.449c-27.878-45.023-65.235-91.162-97.8-114.7C454.262,134.589,422.564,181.007,472.982,229.166Z" transform="translate(-313.574 62.997)" fill="#077053" fill-rule="evenodd"/>
        <path id="Path_3414" data-name="Path 3414" d="M588.172,308.087C542.285,234.572,455.486,175,455.179,174.774a1.269,1.269,0,0,0-1.826.418,1.477,1.477,0,0,0,.418,1.952c.321.223,85.725,58.851,131.4,131.125l2.607,1.018Z" transform="translate(-300.037 68.756)" fill="#012a33" fill-rule="evenodd"/>
        <path id="Path_3415" data-name="Path 3415" d="M530.28,155.881c6.886,19.612,16.964,65.667,29.021,113.311a88.458,88.458,0,0,1-35.085,46.668C495.85,270.7,471.15,218.872,462.563,178.239,445.823,98.73,504.06,81.209,530.28,155.881Z" transform="translate(-280.142 42.654)" fill="#a3c869" fill-rule="evenodd"/>
        <path id="Path_3416" data-name="Path 3416" d="M527.8,294.3c-39.7-76.066-56.872-167.757-56.941-168.133A1.575,1.575,0,0,1,472,124.3a1.478,1.478,0,0,1,1.742,1.227c.07.376,17.047,90.994,56.119,166.335C529.179,292.682,528.5,293.5,527.8,294.3Z" transform="translate(-266.357 48.951)" fill="#5c964d" fill-rule="evenodd"/>
        <path id="Path_3417" data-name="Path 3417" d="M134.271,411.682H83.825A71.828,71.828,0,0,0,12.22,483.287h0a71.814,71.814,0,0,0,71.605,71.605H679.847A116.294,116.294,0,0,0,795.807,438.947h0A116.294,116.294,0,0,0,679.847,323h0a49.177,49.177,0,0,1-49.024-49.038h0a49.177,49.177,0,0,1,49.024-49.024h59a51.129,51.129,0,0,0,50.975-50.975h0a51.129,51.129,0,0,0-50.975-51.017h-74.6A19.905,19.905,0,0,1,644.4,103.154h0A19.9,19.9,0,0,1,664.25,83.3h13.145a13.744,13.744,0,0,0,13.7-13.688h0a13.744,13.744,0,0,0-13.7-13.7H591.083c-18.121,0-20.2,21.48-66.113,21.48H392.688a17.926,17.926,0,0,0-17.87,17.856h0a17.926,17.926,0,0,0,17.87,17.94h17.159a25.969,25.969,0,0,1,25.9,25.885h0a25.969,25.969,0,0,1-25.9,25.9H384.018c-69.7,0-79.592,18.232-91.817,54.488s-75.648,39.169-75.648,39.169H129.824A39.141,39.141,0,0,0,90.795,297.66h0a39.141,39.141,0,0,0,39.03,39.03H134.3a37.636,37.636,0,0,1,37.524,37.538h0A37.636,37.636,0,0,1,134.3,411.751ZM715.824,83.3a13.688,13.688,0,1,1,9.688-4A13.7,13.7,0,0,1,715.824,83.3Z" transform="translate(106.945 22.02)" fill="#fbe3d5" fill-rule="evenodd"/>
        <path id="Path_3418" data-name="Path 3418" d="M543.336,400.365c17.549,9.757,61.067,26.93,104.125,46.124H692.22l1.171-20.463c-39.029-37.245-87.691-73.18-125.842-88.039C500.641,311.907,481.279,365.81,543.336,400.365Z" transform="translate(-478.533 130.422)" fill="#077053" fill-rule="evenodd"/>
        <path id="Path_3419" data-name="Path 3419" d="M672.463,440.177c-64.2-58.1-160.3-92.848-160.593-92.974a1.3,1.3,0,0,0-1.7.864,1.547,1.547,0,0,0,.92,1.826c.362.125,93.727,33.914,157.359,90.284Z" transform="translate(-463.739 136.735)" fill="#012a33" fill-rule="evenodd"/>
        <path id="Path_3420" data-name="Path 3420" d="M529.96,416.729c8.168-11.054,44.4-15.64,96.779,0Z" transform="translate(-445.67 160.182)" fill="#012a33" fill-rule="evenodd"/>
        <path id="Path_3421" data-name="Path 3421" d="M545.945,448.216c-13.939-11.681-28.2-26.777-37.761-44.912-24.7-46.794-32.38-61.541-44.41-65.514-10.4-3.4,79.453-42.124,164.481,48.787-2.969,20.909-14.385,43.211-43.211,61.653Z" transform="translate(-353.781 128.696)" fill="#498f73" fill-rule="evenodd"/>
        <path id="Path_3422" data-name="Path 3422" d="M479.351,329.39c48.884,17.9,97.7,55.255,137.621,92.249-.7.934-1.394,1.868-2.174,2.788-40.911-37.928-91.162-76.233-141.078-93.169A56.648,56.648,0,0,1,479.351,329.39Z" transform="translate(-357.51 129.75)" fill="#077053" fill-rule="evenodd"/>
        <path id="Path_3423" data-name="Path 3423" d="M549.621,271.734c14.371,14.4,40.131,46.7,69.6,82.7,0,0,30,48.076,5.45,92.821-53.68-34.067-106.676-77-136.771-116.21C428.546,253.655,482.518,204.464,549.621,271.734Z" transform="translate(-359.046 94.544)" fill="#a3c869" fill-rule="evenodd"/>
        <path id="Path_3424" data-name="Path 3424" d="M608.511,412.431C527.664,350.736,463.265,262.753,462.987,262.39a1.9,1.9,0,0,1,.265-2.621,1.77,1.77,0,0,1,2.523.418c.265.376,63.6,86.924,143.182,148.117C608.845,409.671,608.692,411.051,608.511,412.431Z" transform="translate(-333.966 102.187)" fill="#5c964d" fill-rule="evenodd"/>
        <path id="Path_3425" data-name="Path 3425" d="M612.363,426.622A206.536,206.536,0,0,0,572.8,389.739c-38.82-26.93-77.376-11.82-81.056,2.788-1.505,5.938-.181,19.975,6.663,36.73H608.446C609.84,428.393,611.094,427.514,612.363,426.622Z" transform="translate(-377.252 147.669)" fill="#a3c869" fill-rule="evenodd"/>
        <path id="Path_3426" data-name="Path 3426" d="M599.7,427.86c-3.443-8.628-9.66-23.432-14.748-31.461-.432-.683-1.129-.934-1.547-.558a1.575,1.575,0,0,0,0,1.924c4.781,7.555,10.691,21.536,14.12,30.094Zm-4.753,0h-8.921c-2.885-1.715-5.84-3.415-8.865-5.074-1.268,1.018-3.318,2.788-5.854,5.074h-4.182c2.941-2.871,5.492-5.1,7.262-6.579a255.573,255.573,0,0,0-33.315-14.943A45.191,45.191,0,0,0,526.9,418.883c-.334.488-1.031.39-1.533-.223a1.784,1.784,0,0,1-.279-1.993,45.525,45.525,0,0,1,12.406-11.625,222.647,222.647,0,0,0-23.362-6.691,3.778,3.778,0,0,1-2.453-3.29c-.139-1.547.725-2.579,1.924-2.3a238.278,238.278,0,0,1,46.389,15.9,188.6,188.6,0,0,0-16.518-28.032,1.715,1.715,0,0,1-.2-1.979c.376-.46,1.073-.307,1.547.335A195.823,195.823,0,0,1,562.831,410a288.674,288.674,0,0,1,32.116,17.856Z" transform="translate(-393.123 149.052)" fill="#5c964d" fill-rule="evenodd"/>
        <path id="Path_3427" data-name="Path 3427" d="M229.075,0h81.153a10.761,10.761,0,0,1,10.733,10.719v75.7a1.185,1.185,0,0,1-.739,1.1,1.157,1.157,0,0,1-1.31-.265L300.638,68.985H229.019A10.747,10.747,0,0,1,218.3,58.265V10.719A10.747,10.747,0,0,1,229.075,0Z" transform="translate(294.534 0)" fill="#e8685b" fill-rule="evenodd"/>
        <path id="Path_3428" data-name="Path 3428" d="M241.582,12.832a17.131,17.131,0,0,0,21.536,26.484l4.265,4.265a4.586,4.586,0,0,0,1.394,2.955l12.085,12.029a4.6,4.6,0,1,0,6.51-6.51l-12.085-12.1a4.6,4.6,0,0,0-2.969-1.394L268.053,34.3a17.131,17.131,0,0,0-26.484-21.522Zm1.882,12.057a10.231,10.231,0,1,1,3,7.234,10.231,10.231,0,0,1-3-7.234Z" transform="translate(301.597 2.989)" fill="#fff" fill-rule="evenodd"/>
        <path id="Path_3429" data-name="Path 3429" d="M89.784,261.726a221.785,221.785,0,0,0,67.883-73.877c28.715-51.1-57.22,2.2-119.458,61.917l40.577,11.96Z" transform="translate(703.156 65.912)" fill="#012a33" fill-rule="evenodd"/>
        <path id="Path_3430" data-name="Path 3430" d="M150.065,342.926c-13.34,17.94-49.818,55.408-84.708,94.647L24.028,462.509,10.66,436.875C33.1,381.634,65.72,323.4,97.375,291.114,152.895,234.479,196.859,279.949,150.065,342.926Z" transform="translate(735.11 104.52)" fill="#077053" fill-rule="evenodd"/>
        <path id="Path_3431" data-name="Path 3431" d="M26.222,454.9C63.175,364.676,148.148,282.143,148.51,281.85a1.394,1.394,0,0,1,2.091.1,1.687,1.687,0,0,1-.1,2.258c-.307.293-83.913,81.516-120.866,170.336l-2.69,1.631Z" transform="translate(732.246 110.856)" fill="#012a33" fill-rule="evenodd"/>
        <path id="Path_3432" data-name="Path 3432" d="M71.709,447.238a253.789,253.789,0,0,0,77.669-84.471c32.827-58.544-65.514,2.467-136.771,70.8l46.417,13.674Z" transform="translate(746.321 133.632)" fill="#012a33" fill-rule="evenodd"/>
        <path id="Path_3433" data-name="Path 3433" d="M83.032,126.537c-8.252,21.884-20.769,73.417-35.559,126.706a99.706,99.706,0,0,0,38.263,53.4c33.008-50.083,62.2-107.749,72.888-153.233C179.547,64.41,114.451,43.209,83.032,126.537Z" transform="translate(690.923 29.191)" fill="#a3c869" fill-rule="evenodd"/>
        <path id="Path_3434" data-name="Path 3434" d="M69.566,281.936C116.137,197.4,137.854,94.748,137.938,94.274a1.77,1.77,0,0,0-1.241-2.133,1.631,1.631,0,0,0-1.979,1.394c-.1.418-21.522,101.937-67.4,185.669C68.047,280.138,68.744,281.016,69.566,281.936Z" transform="translate(687.954 36.28)" fill="#5c964d" fill-rule="evenodd"/>
        <path id="Path_3435" data-name="Path 3435" d="M47.666,429.192a162.447,162.447,0,0,1,16.657-40.2c18.929-31.544,51.129-33.217,58.433-23.989,5.227,6.579,12.239,33.761,1.394,65.514H62.484a82.369,82.369,0,0,1-14.817-1.324Z" transform="translate(723.487 141.851)" fill="#a3c869" fill-rule="evenodd"/>
        <path id="Path_3436" data-name="Path 3436" d="M53.786,428.449q1.84-3.192,3.847-6.44c-.307-5.729-1.018-21.857.209-30.6.1-.627.516-1.031.934-.906a1.241,1.241,0,0,1,.6,1.394c-1.059,7.555-.613,20.992-.293,27.809a226.074,226.074,0,0,1,18.818-25.7,151.185,151.185,0,0,1,2.871-27.781c.125-.6.572-.934.99-.739a1.394,1.394,0,0,1,.488,1.464,148.132,148.132,0,0,0-2.788,25.2A184.747,184.747,0,0,1,107.34,366c.781-.585,1.715-.125,2.119,1.018a2.9,2.9,0,0,1-.7,3.108,176.719,176.719,0,0,0-14.441,12.239,35.655,35.655,0,0,1,12.545,4.279,1.394,1.394,0,0,1,.432,1.505c-.153.6-.613.892-1.018.655A34.932,34.932,0,0,0,92.2,384.429,200.179,200.179,0,0,0,73.328,405.7a99.665,99.665,0,0,1,31.1,14.887,1.491,1.491,0,0,1,.348,1.561c-.2.572-.669.795-1.045.516a98.105,98.105,0,0,0-31.893-15.012,234.258,234.258,0,0,0-13.939,20.8Z" transform="translate(735.167 143.947)" fill="#5c964d" fill-rule="evenodd"/>
        <path id="Path_3437" data-name="Path 3437" d="M647.794,142.14H130.333A47.393,47.393,0,0,0,82.94,189.533V473.584a47.393,47.393,0,0,0,47.393,47.393H647.794a47.393,47.393,0,0,0,47.393-47.393V189.491A47.393,47.393,0,0,0,647.794,142.14Z" transform="translate(108.987 55.99)" fill="#1b191b"/>
        <rect id="Rectangle_2017" data-name="Rectangle 2017" width="612.15" height="378.781" rx="33.97" transform="translate(210.676 198.13)" fill="#1b191b"/>
        <rect id="Rectangle_2018" data-name="Rectangle 2018" width="597.095" height="363.727" rx="28.57" transform="translate(218.203 205.658)" fill="#3d3b3c"/>
        <path id="Path_3438" data-name="Path 3438" d="M581.535,160.63H140.5a9.632,9.632,0,0,0-9.632,9.632V478.316a9.646,9.646,0,0,0,9.646,9.646H581.535a9.632,9.632,0,0,0,9.632-9.632V170.262a9.632,9.632,0,0,0-9.632-9.632Z" transform="translate(146.198 63.274)" fill="#fff"/>
        <path id="Path_3439" data-name="Path 3439" d="M479.066,230.32h0a5.576,5.576,0,0,0-5.576,5.576V357.737a5.576,5.576,0,0,0,5.576,5.576h0a5.576,5.576,0,0,0,5.576-5.576V235.882A5.576,5.576,0,0,0,479.066,230.32Z" transform="translate(-224.858 90.726)" fill="#bdb9bb"/>
        <path id="Path_3440" data-name="Path 3440" d="M479.066,170.634h0a5.576,5.576,0,0,0-5.576,5.576v.516a5.576,5.576,0,0,0,5.576,5.576h0a5.576,5.576,0,0,0,5.576-5.576v-.53a5.576,5.576,0,0,0-5.576-5.576Z" transform="translate(-224.858 67.209)" fill="#bdb9bb"/>
        <path id="Path_3441" data-name="Path 3441" d="M110.322,259h0A25.341,25.341,0,0,0,85.05,284.258v2.411a25.341,25.341,0,0,0,25.272,25.3h0a25.327,25.327,0,0,0,25.258-25.258V284.3A25.327,25.327,0,0,0,110.322,259Z" transform="translate(665.654 102.023)" fill="#bdb9bb" fill-rule="evenodd"/>
        <path id="Path_3442" data-name="Path 3442" d="M288.928,323.05H175.057a2.787,2.787,0,0,0-2.786,2.788h0a2.787,2.787,0,0,0,2.786,2.788H288.928a2.787,2.787,0,0,0,2.787-2.788h0A2.787,2.787,0,0,0,288.928,323.05Z" transform="translate(387.887 127.253)" fill="#c9c4d1" fill-rule="evenodd"/>
        <path id="Path_3443" data-name="Path 3443" d="M288.928,331.5H175.057a2.787,2.787,0,0,0-2.786,2.788h0a2.787,2.787,0,0,0,2.786,2.788H288.928a2.787,2.787,0,0,0,2.787-2.788h0A2.787,2.787,0,0,0,288.928,331.5Z" transform="translate(387.887 130.581)" fill="#c9c4d1" fill-rule="evenodd"/>
        <rect id="Rectangle_2019" data-name="Rectangle 2019" width="119.444" height="5.464" rx="1.96" transform="translate(560.157 473.846)" fill="#c9c4d1"/>
        <path id="Path_3444" data-name="Path 3444" d="M288.982,348.39H175.058a2.788,2.788,0,0,0-2.788,2.788h0a2.788,2.788,0,0,0,2.788,2.788H288.982a2.788,2.788,0,0,0,2.788-2.788h0A2.788,2.788,0,0,0,288.982,348.39Z" transform="translate(387.887 137.235)" fill="#c9c4d1" fill-rule="evenodd"/>
        <path id="Path_3445" data-name="Path 3445" d="M288.982,356.84H175.058a2.788,2.788,0,0,0-2.788,2.788h0a2.788,2.788,0,0,0,2.788,2.788H288.982a2.788,2.788,0,0,0,2.788-2.788h0A2.788,2.788,0,0,0,288.982,356.84Z" transform="translate(387.887 140.563)" fill="#c9c4d1" fill-rule="evenodd"/>
        <path id="Path_3446" data-name="Path 3446" d="M288.982,365.29H175.058a2.788,2.788,0,0,0-2.788,2.788h0a2.788,2.788,0,0,0,2.788,2.788H288.982a2.788,2.788,0,0,0,2.788-2.788h0A2.788,2.788,0,0,0,288.982,365.29Z" transform="translate(387.887 143.892)" fill="#c9c4d1" fill-rule="evenodd"/>
        <path id="Path_3447" data-name="Path 3447" d="M350.858,373.74h-175.8a2.788,2.788,0,0,0-2.788,2.788h0a2.788,2.788,0,0,0,2.788,2.788h175.8a2.788,2.788,0,0,0,2.788-2.788h0A2.788,2.788,0,0,0,350.858,373.74Z" transform="translate(326.011 147.22)" fill="#c9c4d1" fill-rule="evenodd"/>
        <rect id="Rectangle_2020" data-name="Rectangle 2020" width="345.662" height="52.578" rx="4.33" transform="translate(334.566 376.844)" fill="#f8cfbe"/>
        <rect id="Rectangle_2021" data-name="Rectangle 2021" width="63.353" height="52.578" rx="4.33" transform="translate(617.58 376.844)" fill="#322a25"/>
        <path id="Path_3448" data-name="Path 3448" d="M386.766,278.9a12.936,12.936,0,0,0,16.253,19.947l3.22,3.22a3.5,3.5,0,0,0,1,2.23l9.13,9.13a3.474,3.474,0,0,0,4.92-4.907l-9.13-9.13a3.485,3.485,0,0,0-2.244-1.018l-3.22-3.22A12.922,12.922,0,0,0,386.766,278.9Zm1.394,9.144a3.193,3.193,0,1,0,.028,0Z" transform="translate(246.607 108.358)" fill="#fff" fill-rule="evenodd"/>
        <path id="Path_3449" data-name="Path 3449" d="M210.98,329.2l-12.949,24.6a1.115,1.115,0,0,1-1.241.585,1.129,1.129,0,0,1-.92-1.031l-4.53-56.091a1.157,1.157,0,0,1,.572-1.087,1.115,1.115,0,0,1,1.227,0l46.32,32.018a1.143,1.143,0,0,1-.7,2.091Z" transform="translate(268.115 172.597)" fill="#d54944" fill-rule="evenodd"/>
        <path id="Path_3450" data-name="Path 3450" d="M191.337,296.182a1.115,1.115,0,0,1,1.227,0l46.32,32.018a1.143,1.143,0,0,1-.7,2.091L210.405,329.2Z" transform="translate(268.69 172.597)" fill="#e8685b" fill-rule="evenodd"/>
        <rect id="Rectangle_2022" data-name="Rectangle 2022" width="154.571" height="113.13" rx="6.64" transform="translate(334.58 248.632)" fill="#5bb9bd"/>
        <path id="Path_3451" data-name="Path 3451" d="M308.94,247.17H463.525v7.959a9.283,9.283,0,0,1-9.256,9.256H318.2a9.283,9.283,0,0,1-9.256-9.256Z" transform="translate(25.626 97.363)" fill="#1b191b" fill-rule="evenodd"/>
        <path id="Path_3452" data-name="Path 3452" d="M370.584,198.346a8.6,8.6,0,1,0,.028-.056Zm-13.939,8.447a8.164,8.164,0,1,1-.028,0Z" transform="translate(41.275 78.109)" fill="#322a25" fill-rule="evenodd"/>
        <path id="Path_3453" data-name="Path 3453" d="M361.1,230.764v-24.9a1.375,1.375,0,0,1,2.286-1.031l14.3,12.448a1.268,1.268,0,0,1,.474,1.032,1.394,1.394,0,0,1-.474,1.045L363.456,231.8a1.436,1.436,0,0,1-2.356-1.032Z" transform="translate(44.283 80.553)" fill="#322a25" fill-rule="evenodd"/>
        <path id="Path_3454" data-name="Path 3454" d="M318.691,250.19h-1.018a.544.544,0,0,0-.544.544v7.708a.558.558,0,0,0,.558.558h1.018a.544.544,0,0,0,.544-.544v-7.708a.544.544,0,0,0-.558-.558Z" transform="translate(158.486 98.552)" fill="#fff"/>
        <path id="Path_3455" data-name="Path 3455" d="M321.631,250.19h-1.018a.544.544,0,0,0-.544.544v7.708a.558.558,0,0,0,.558.558h1.018a.544.544,0,0,0,.544-.544v-7.708a.544.544,0,0,0-.558-.558Z" transform="translate(151.448 98.552)" fill="#fff"/>
        <rect id="Rectangle_2023" data-name="Rectangle 2023" width="1.575" height="1.394" rx="0.26" transform="translate(468.312 351.265)" fill="#fff"/>
        <rect id="Rectangle_2024" data-name="Rectangle 2024" width="1.575" height="1.394" rx="0.26" transform="translate(468.312 353.621)" fill="#fff"/>
        <path id="Path_3456" data-name="Path 3456" d="M442.045,251.37H326.964a1.394,1.394,0,0,0-1.394,1.394v2.648a1.394,1.394,0,0,0,1.394,1.394H442.045a1.394,1.394,0,0,0,1.394-1.394v-2.648A1.394,1.394,0,0,0,442.045,251.37Z" transform="translate(22.531 99.017)" fill="#fff"/>
        <path id="Path_3457" data-name="Path 3457" d="M401.352,316.68a42.5,42.5,0,1,0,30.053,12.448A42.5,42.5,0,0,0,401.352,316.68Zm-40.159,43.657h20.184a85.17,85.17,0,0,0,1.7,16.2l-.7.153a51.493,51.493,0,0,0-14.106,5.283,39.839,39.839,0,0,1-7.081-21.634Zm22.512,0h16.476v14.3a84,84,0,0,0-14.817,1.394A82.7,82.7,0,0,1,383.706,360.337Zm18.8,0h16.476a83.885,83.885,0,0,1-1.645,15.737,84.155,84.155,0,0,0-14.831-1.394Zm18.832,0H441.5a39.838,39.838,0,0,1-7.081,21.633,51.31,51.31,0,0,0-14.106-5.283l-.7-.153A86.269,86.269,0,0,0,421.341,360.337ZM441.511,358h-20.17a87.535,87.535,0,0,0-1.3-14.065l.279-.07a50.179,50.179,0,0,0,15.054-5.84l.1-.07A39.838,39.838,0,0,1,441.511,358ZM419,358H402.523V345.924a85.472,85.472,0,0,0,15.235-1.519A83.639,83.639,0,0,1,419,358Zm-18.8,0h-16.49a83.625,83.625,0,0,1,1.241-13.591,85.6,85.6,0,0,0,15.235,1.519V358Zm-18.8,0H361.208a39.977,39.977,0,0,1,6.022-19.961l.1.07a50.182,50.182,0,0,0,15.054,5.841l.293.07a85.969,85.969,0,0,0-1.3,14.065Zm18.8-38.918V343.61a81.935,81.935,0,0,1-14.789-1.464,56.689,56.689,0,0,1,3.708-11.709c2.941-6.468,6.83-10.663,11.082-11.333Zm0,57.889v22.3c-4.251-.655-8.14-4.865-11.082-11.332a53.492,53.492,0,0,1-3.234-9.576,85.3,85.3,0,0,1,14.315-1.394Zm2.328,22.3v-22.3a85.149,85.149,0,0,1,14.315,1.394,53.485,53.485,0,0,1-3.234,9.576c-2.941,6.468-6.83,10.677-11.082,11.332Zm0-55.659V319.091c4.251.669,8.14,4.865,11.082,11.332a56.676,56.676,0,0,1,3.722,11.709,81.961,81.961,0,0,1-14.817,1.478Zm31.67-7.569h0a47.477,47.477,0,0,1-14.343,5.576h-.209a58.891,58.891,0,0,0-3.875-12.2,27.878,27.878,0,0,0-6.844-9.757,40.145,40.145,0,0,1,25.313,16.323Zm-51.073,5.576h-.209a47.477,47.477,0,0,1-14.343-5.576h0A40.311,40.311,0,0,1,393.9,319.719a27.739,27.739,0,0,0-6.858,9.757,59.746,59.746,0,0,0-3.875,12.2Zm-13.451,42.208a50.292,50.292,0,0,1,13.242-4.893l.7-.153A56.9,56.9,0,0,0,387,388.857a27.737,27.737,0,0,0,6.858,9.757,40.2,40.2,0,0,1-20.909-11.068,39.722,39.722,0,0,1-3.29-3.722Zm49.456-5.046.683.153a50.291,50.291,0,0,1,13.242,4.893,41.7,41.7,0,0,1-3.276,3.722,40.256,40.256,0,0,1-20.909,11.068,27.877,27.877,0,0,0,6.844-9.757,56.885,56.885,0,0,0,3.4-10.036Z" transform="translate(-24.272 124.744)" fill="#5bb9bd" fill-rule="evenodd"/>
        <path id="Path_3458" data-name="Path 3458" d="M289.292,326.824a1.157,1.157,0,0,1-.251-2.286h2.579a1.157,1.157,0,0,1,.251,2.286h-2.579Zm93.95,56.76a1.157,1.157,0,0,1-2.286.251,1.389,1.389,0,0,1,0-.251V381.27a1.157,1.157,0,0,1,2.286-.251,1.392,1.392,0,0,1,0,.251Zm0-9.27a1.157,1.157,0,0,1-2.286.251,1.4,1.4,0,0,1,0-.251V372a1.157,1.157,0,0,1,2.286-.265,1.713,1.713,0,0,1,0,.265Zm0-9.283a1.157,1.157,0,0,1-2.286.265,1.716,1.716,0,0,1,0-.265v-2.314a1.157,1.157,0,0,1,2.286-.251,1.392,1.392,0,0,1,0,.251Zm0-9.27a1.157,1.157,0,0,1-2.286.265,1.717,1.717,0,0,1,0-.265v-2.314a1.157,1.157,0,0,1,2.286-.251,1.392,1.392,0,0,1,0,.251Zm0-9.27a1.157,1.157,0,0,1-2.286.251,1.4,1.4,0,0,1,0-.251v-2.314a1.157,1.157,0,0,1,2.286-.265,1.713,1.713,0,0,1,0,.265Zm0-9.27a1.157,1.157,0,0,1-2.286.251,1.538,1.538,0,0,1,0-.251V334.95a1.157,1.157,0,0,1,2.286-.251,1.392,1.392,0,0,1,0,.251v2.328Zm0-9.283a1.157,1.157,0,0,1-2.286.251,1.4,1.4,0,0,1,0-.251V325.96a1.129,1.129,0,0,1,.864-1.394h.251a1.115,1.115,0,0,1,1.143,1.143v2.272Zm-8.154-3.429a1.157,1.157,0,0,1,.251,2.286h-2.579a1.157,1.157,0,0,1-.251-2.286h2.579Zm-9.283,0a1.157,1.157,0,0,1,.265,2.286h-2.579a1.157,1.157,0,0,1-.251-2.286H365.8Zm-9.27,0a1.157,1.157,0,0,1,.251,2.286h-2.621a1.157,1.157,0,0,1-.265-2.286h2.634Zm-9.27,0a1.157,1.157,0,0,1,.251,2.286h-2.579a1.157,1.157,0,0,1-.251-2.286h2.579Zm-9.283,0a1.157,1.157,0,0,1,.265,2.286h-2.579a1.157,1.157,0,0,1-.251-2.286h2.565Zm-9.27,0a1.157,1.157,0,0,1,.251,2.286H326.4a1.157,1.157,0,0,1-.265-2.286h2.579Zm-9.27,0a1.157,1.157,0,0,1,.251,2.286h-2.579a1.157,1.157,0,0,1-.251-2.286h2.579Zm-9.283,0a1.157,1.157,0,0,1,.265,2.286h-2.579a1.157,1.157,0,0,1-.251-2.286h2.565Zm-9.27,0a1.157,1.157,0,0,1,.251,2.286h-2.565a1.157,1.157,0,0,1-.265-2.286h2.579Z" transform="translate(134.903 127.828)" fill="#acabbb" fill-rule="evenodd"/>
        <path id="Path_3461" data-name="Path 3461" d="M333.211,386.167,336,384.62s49.163,1.742,64.566,3.959,17.786,5.436,33.328,7.541,45.414,7.471,49.121,7.806,2.927,7.137,1.324,8.935-53.582-2.788-61.332-4.321a96.066,96.066,0,0,0-25.759-.6c-7.179.822-46.877,6.412-57.234,5.1S333.211,386.167,333.211,386.167Z" transform="translate(-29.534 151.506)" fill="#1b191b" fill-rule="evenodd"/>
        <path id="Path_3462" data-name="Path 3462" d="M411.494,339.41l1.756-.572a11.291,11.291,0,0,1,2.077-3.471c1.129-1.045,3.122-2.718,3.29-5.088s-8.74-3.638-8.74-3.15-3.722,4.112-3.387,5.576a24.25,24.25,0,0,0,1.561,3.945Z" transform="translate(-65.414 128.819)" fill="#ec7962" fill-rule="evenodd"/>
        <path id="Path_3463" data-name="Path 3463" d="M428.266,336.937s11.151,25.773,13.326,28.436,11.779-25.857,13.869-31c0,0,4.028.209,5.325,1.492,0,0-6.482,34.29-9.492,41.162s-9.618,7.82-15.626,5.283-21.494-29.746-24.742-34.778S416.195,325.075,428.266,336.937Z" transform="translate(-112.824 131.124)" fill="#077053" fill-rule="evenodd"/>
        <path id="Path_3464" data-name="Path 3464" d="M415.86,308.862s1.394.39,1.478,1.394-3.262,24.031-3.68,24.937-.822,2.356-10.468,1.324c0,0-1.673-.321-2.049-1.2s1.951-21.452,2.077-23.85a2.788,2.788,0,0,1,3-2.983C407.594,308.36,415.86,308.862,415.86,308.862Z" transform="translate(-56.649 121.508)" fill="#1b191b" fill-rule="evenodd"/>
        <path id="Path_3465" data-name="Path 3465" d="M368.891,399a5.186,5.186,0,0,1,.362,2.69,29.6,29.6,0,0,0-.083,3.819,5.784,5.784,0,0,0,.307,1.394c.544,1.394,2.356,3.331,8.586,4.614a65.837,65.837,0,0,0,16.978.739c3.68-.265,1.631-2.161,0-3.011s-12.866-5.213-15.793-8.475-2.565-3.722-2.788-4.251S369.937,396.245,368.891,399Z" transform="translate(8.482 156.106)" fill="#f6cccf" fill-rule="evenodd"/>
        <path id="Path_3466" data-name="Path 3466" d="M406.3,431.834a1.7,1.7,0,0,0,.739.362l1.965.2h0c38.263,2.983,41.483-48.787,52.495-56.23,1.9-1.268,14.58,41.678,15.57,42.932s10.733,0,11.806-1.589-10.608-53.582-17.814-65.416c0,0-5.7-7.485-18.33-.335s-33.733,40.3-36.381,42.542-5.91,5.924-10.482,4.474a1.241,1.241,0,0,0-.5,0h0l-22.484,1.6C382.223,423.4,399.452,430.092,406.3,431.834Z" transform="translate(-102.828 137.341)" fill="#282627" fill-rule="evenodd"/>
        <path id="Path_3467" data-name="Path 3467" d="M386.643,398.566c1.7,1.938,8.963,6.663,14.218,6.7s3.4,4.349,3.4,4.349,1.073,1.924-.125,2.788-12.016,2.635-17.34,1.756-11.5-2.119-15.946-1.282-3.805-4.8-2.788-6.091c0,0-.641-5.771.139-7.4s3.178-1.31,4.614,0,5.576,1.2,7.123.2C379.869,396.154,384.4,396.015,386.643,398.566Z" transform="translate(3.066 156.308)" fill="#d54944" fill-rule="evenodd"/>
        <path id="Path_3468" data-name="Path 3468" d="M376.6,403.448c0-.878-.1-1.924-.07-2.885a17.368,17.368,0,0,1,10.691,1.3c7.987,3.527,9.869,2.342,9.869,2.342l3.443,2.565s-4.934,1.687-13.047-1.742C382,402.7,378.9,402.7,376.6,403.448Z" transform="translate(-5.602 157.657)" fill="#fff" fill-rule="evenodd"/>
        <path id="Path_3469" data-name="Path 3469" d="M404.262,406.8s1.073,1.924-.125,2.788-12.015,2.635-17.34,1.756-11.5-2.119-15.946-1.282-3.805-4.8-2.788-6.091c9.047.1,10.97,3.805,22.094,4.53S404.262,406.8,404.262,406.8Z" transform="translate(3.066 159.128)" fill="#fff" fill-rule="evenodd"/>
        <path id="Path_3470" data-name="Path 3470" d="M469.5,407.694s-5.576,7.5-20.56,8c0,0-10.872-.2-12.824,2.356,0,0-1.492-.5-1.84-1.547s-11.346-78.491,15.249-101.853l15.472,7.1s4.725,3.387,5.924,6.593,2.9,24.324,3.011,26.833-4.907,38.054-3.917,40.856S472.8,403.5,472.8,403.5Z" transform="translate(-155.938 123.944)" fill="#498f73" fill-rule="evenodd"/>
        <path id="Path_3471" data-name="Path 3471" d="M444.813,294.381s.655,7.9.655,9.381-1.115,2.621-1.394,4.684.39,6.231.335,7.29-2.3.767-2.871,1.394-.362,1.617-.627,2.2-.99.488-1.143.892,0,1.031-.125,1.394-1.213.432-1.645,1.715-1.394,3.582-6.064,1.868-8.168-8.559-8.879-12.057a49.16,49.16,0,0,1-.181-10.97c.139-1.533,2.272-10.315,3.638-11.151S442.834,288.931,444.813,294.381Z" transform="translate(-114.819 114.342)" fill="#f4ad85" fill-rule="evenodd"/>
        <path id="Path_3472" data-name="Path 3472" d="M454.332,318.978l.864,3.345c-6.175-2.565-5.924,4.182-6.217,7.6-.139,1.505-13.033-2.7-14.859-7.081,2.161-2.788,1.492-3.234,5.06-10.97,1.1-2.384,3.582-4.182,4.182-6.4,0,0-1.547-8.893-.2-10.733s6.147-.558,6.4,1.756S454.332,318.978,454.332,318.978Z" transform="translate(-140.535 115.755)" fill="#f4ad85" fill-rule="evenodd"/>
        <path id="Path_3473" data-name="Path 3473" d="M454.29,300.3s6.523-2.788,8.363-7.75-1.728-2.439-2.174-1.742c0-6.97-3.025-10.58-6.677-12.043-6.036-2.411-13.855,1.171-13.1,5.952-4.391,4.725-17.605-12.057-18.372,6.356,0,0-4.1-1.547-5.38.516s2.37,2.3,2.37,2.3a12.838,12.838,0,0,0,.07,12.336c3.6,6.607,3.861,9.493,3.206,12.225a4.53,4.53,0,0,0,3.722-1.924,12.852,12.852,0,0,0,1.6-5.367,14.008,14.008,0,0,1,.084-6.119c.864-2.23,3.819-1.519,4.015,1.3a17.518,17.518,0,0,1-.07,4.182,1.115,1.115,0,0,0,.181,1.059s0,1.282.558,1.673c0,0,.432.223.544-.516a26.9,26.9,0,0,1,1.882-6.022s5.84-2.244,6.328-6.9c0,0,1.505,2.467,2.537,2.049s.209-1.868.209-1.868S450.945,301.168,454.29,300.3Z" transform="translate(-124.198 109.506)" fill="#1b191b" fill-rule="evenodd"/>
        <path id="Path_3474" data-name="Path 3474" d="M418.526,279.873a.2.2,0,0,0-.251,0,.181.181,0,0,0,0,.251s5.06,7.471.4,12.949a.183.183,0,0,0,.279.237C423.794,287.567,418.526,279.9,418.526,279.873Z" transform="translate(-84.182 110.227)" fill="#1b191b" fill-rule="evenodd"/>
        <path id="Path_3475" data-name="Path 3475" d="M446.521,291.923a.182.182,0,1,0,.307-.2,10.984,10.984,0,0,1-.362-9.618.2.2,0,0,0-.112-.237.167.167,0,0,0-.223.111A11.346,11.346,0,0,0,446.521,291.923Z" transform="translate(-147.596 111.028)" fill="#1b191b" fill-rule="evenodd"/>
        <path id="Path_3476" data-name="Path 3476" d="M422.294,292.814a.181.181,0,0,0-.251,0,.167.167,0,0,0,0,.251s6.356,4.656,13.549,1.519a.167.167,0,0,0,.1-.237.181.181,0,0,0-.237-.084C428.483,297.344,422.308,292.828,422.294,292.814Z" transform="translate(-104.134 115.323)" fill="#1b191b" fill-rule="evenodd"/>
        <path id="Path_3477" data-name="Path 3477" d="M444.716,300.96c.46,4.307,2.161,5.032,2.161,5.032s.6.237.321,1.324-.07,2.676,3.22,7.583c.209.335.418.627.613.934a43.551,43.551,0,0,0,4.182,5.394v.084c-6.022-2.5-5.924,3.889-6.2,7.332v.265c-.139,1.505-13.033-2.7-14.859-7.081.2-.265.376-.5.53-.739a23.78,23.78,0,0,0,2.425-5.394c.46-1.143,1.073-2.593,1.965-4.53a4.5,4.5,0,0,0,3.568-1.924,12.852,12.852,0,0,0,1.6-5.367,14.009,14.009,0,0,1,.084-6.119,1.9,1.9,0,0,1,1.645-1.324S444.27,296.653,444.716,300.96Z" transform="translate(-140.593 116.767)" fill="#ec7962" fill-rule="evenodd"/>
        <path id="Path_3478" data-name="Path 3478" d="M433.8,329.4s6.077,26.693,7.862,30.178,19.417-21.146,22.986-26.387c0,0,4.433,1.227,5.576,2.955,0,0-15.584,36.534-20.6,43.462s-12.615,6.342-18.664,2.035-16.643-38.333-19.027-44.7S423.266,313.343,433.8,329.4Z" transform="translate(-124.258 127.132)" fill="#498f73" fill-rule="evenodd"/>
        <path id="Path_3479" data-name="Path 3479" d="M407.673,338.695a23.6,23.6,0,0,1,4.739-3.067c3.248-1.756,6.022-3.262,6.468-4.433a2.3,2.3,0,0,0-.5-2.7c-.613-.376-2.244.084-2.941-.139s1.087-1.227,2.23-1.394a17.157,17.157,0,0,0,3.025-.516A.948.948,0,0,0,421,325.3c-.112-.209-1.059-.237-2.3-.335a6.579,6.579,0,0,0-3.136.209,8.362,8.362,0,0,1-2.481.516,1.687,1.687,0,0,1,0-1.742,12,12,0,0,1,2.607-2.523c.558-.4,2.384-.237,3.234-.544a.778.778,0,0,0-.223-1.533,17.367,17.367,0,0,0-3.666,0c-1.478,0-2.091.962-3.987,2.188s-5.353,3.527-6.342,5.952-1.268,5.576-2.119,7.234S403.589,338.151,407.673,338.695Z" transform="translate(-62.178 125.756)" fill="#f4ad85" fill-rule="evenodd"/>
        <path id="Path_3480" data-name="Path 3480" d="M327.581,399c1.91-1.659,6.537-8.782,6.565-13.939s4.265-3.345,4.265-3.345,1.882-1.031,2.788.125,2.579,11.779,1.715,17.006-2.077,11.263-1.255,15.612-4.7,3.736-5.966,2.7c0,0-5.659.627-7.262-.139s-1.268-3.108,0-4.53,1.171-5.492.181-6.97C325.169,405.695,325.03,401.262,327.581,399Z" transform="translate(122.457 150.197)" fill="#d54944" fill-rule="evenodd"/>
        <path id="Path_3481" data-name="Path 3481" d="M333.111,413.82c-.864,0-1.882.1-2.788.084a17.047,17.047,0,0,1,1.254-10.482c3.457-7.834,2.3-9.674,2.3-9.674l2.523-3.387s1.659,4.851-1.715,12.8C332.358,408.537,332.3,411.575,333.111,413.82Z" transform="translate(122.991 153.767)" fill="#fff" fill-rule="evenodd"/>
        <path id="Path_3482" data-name="Path 3482" d="M328.585,381.77s1.882-1.031,2.788.125,2.579,11.779,1.715,17.006-2.077,11.263-1.255,15.612-4.7,3.736-5.966,2.7c.1-8.879,3.722-10.747,4.433-21.647S328.585,381.77,328.585,381.77Z" transform="translate(132.227 150.216)" fill="#fff" fill-rule="evenodd"/>
        <path id="Path_3483" data-name="Path 3483" d="M846.424,423.687H23.934a6.552,6.552,0,0,1-6.523-6.524h0a6.537,6.537,0,0,1,6.523-6.524H846.424a6.537,6.537,0,0,1,6.523,6.523h0a6.551,6.551,0,0,1-6.524,6.523Z" transform="translate(42.57 161.755)" fill="#1b191b" fill-rule="evenodd"/>
        <path id="Path_3484" data-name="Path 3484" d="M636.307,423.687h28.882a6.538,6.538,0,0,0,6.524-6.523h0a6.537,6.537,0,0,0-6.523-6.524H636.307a6.537,6.537,0,0,0-6.537,6.523h0a6.551,6.551,0,0,0,6.537,6.523Z" transform="translate(-629.77 161.755)" fill="#1b191b" fill-rule="evenodd"/>
        <path id="Path_3485" data-name="Path 3485" d="M351.954,84.409a21.076,21.076,0,1,1-1.818,27.725,21.076,21.076,0,0,1,1.818-27.725Zm7.583-2.788a19.362,19.362,0,0,0-6.2,4.182,19.1,19.1,0,0,0,0,27.042,19.361,19.361,0,0,0,6.2,4.182,19.1,19.1,0,0,0,20.909-4.182,18.8,18.8,0,0,0,4.182-6.2,19.1,19.1,0,0,0-4.182-20.909,19.023,19.023,0,0,0-20.853-4.182Zm-2.328-15.514A34.851,34.851,0,0,0,353.32,67.5a35.581,35.581,0,0,0-3.722,1.854,37.634,37.634,0,0,0-3.527,2.328,35.744,35.744,0,0,0-3.206,2.788,2.2,2.2,0,0,1-1.268.6,2.161,2.161,0,0,1-1.394-.279c-3.094-1.784-6.356-3.554-9.381-5.422a1.938,1.938,0,0,0-.46-.139,1.589,1.589,0,0,0-.516,0,1.171,1.171,0,0,0-.474.237,1.185,1.185,0,0,0-.348.39c-2.258,3.415-4.516,7.82-6.607,11.444a1.267,1.267,0,0,0-.167.488,1.157,1.157,0,0,0,0,.53,1.476,1.476,0,0,0,.223.474,1.561,1.561,0,0,0,.39.348c2.788,1.84,6.384,3.68,9.325,5.381a2.244,2.244,0,0,1,.934,1.045,1.939,1.939,0,0,1,.139.46h.2l-.223.864c-.167.683-.307,1.394-.432,2.049s-.237,1.394-.321,2.077-.153,1.394-.2,2.1,0,1.394,0,2.119v2.119a17.62,17.62,0,0,0,.2,2.1c.084.711.2,1.394.321,2.077s.265,1.394.446,2.049a2.23,2.23,0,0,1-.139,1.394,2.272,2.272,0,0,1-1,1.045l-8.266,4.767h0l-.976.558a1.561,1.561,0,0,0-.39.348,1.48,1.48,0,0,0-.223.474,1.157,1.157,0,0,0,0,.53,1.269,1.269,0,0,0,.167.488l6.105,10.594h0l.488.85a1.185,1.185,0,0,0,.349.39,1.171,1.171,0,0,0,.474.237,1.589,1.589,0,0,0,1.018-.167c2.955-1.854,6.287-3.638,9.339-5.394a2.216,2.216,0,0,1,2.635.321h0a35.735,35.735,0,0,0,3.206,2.788,37.643,37.643,0,0,0,3.527,2.328,32.4,32.4,0,0,0,3.75,1.868,33.248,33.248,0,0,0,3.959,1.394,2.188,2.188,0,0,1,1.157.781,2.272,2.272,0,0,1,.446,1.394v10.775a1.548,1.548,0,0,0,.1.516,1.406,1.406,0,0,0,1.241.822h13.214a1.3,1.3,0,0,0,.934-.39,1.255,1.255,0,0,0,.293-.432,1.268,1.268,0,0,0,.112-.516V134.576a2.216,2.216,0,0,1,.474-1.394,2.188,2.188,0,0,1,1.227-.781,35.717,35.717,0,0,0,3.875-1.394,34.486,34.486,0,0,0,3.736-1.854,37.386,37.386,0,0,0,3.513-2.328,38,38,0,0,0,3.22-2.788,2.244,2.244,0,0,1,1.324-.613,2.272,2.272,0,0,1,1.394.362l9.228,5.325a1.561,1.561,0,0,0,.488.167,1.742,1.742,0,0,0,.53,0,1.269,1.269,0,0,0,.474-.237,1.184,1.184,0,0,0,.348-.39c2.188-3.819,4.4-7.625,6.607-11.444a1.563,1.563,0,0,0,.167-.488,1.741,1.741,0,0,0,0-.53,1.171,1.171,0,0,0-.237-.474,1.3,1.3,0,0,0-.376-.348l-9.339-5.381a2.216,2.216,0,0,1-.92-1.045,1.589,1.589,0,0,1-.125-.362h-.237l.237-.99c.167-.683.321-1.394.446-2.049s.223-1.394.321-2.077.139-1.394.181-2.1,0-1.394,0-2.119V97.122a17.144,17.144,0,0,0-.181-2.091c-.084-.7-.2-1.394-.321-2.091s-.279-1.394-.446-2.049A2.23,2.23,0,0,1,400.5,89.5a2.188,2.188,0,0,1,1-1.032l9.242-5.339a1.3,1.3,0,0,0,.376-.348,1.267,1.267,0,0,0,.237-.474,1.741,1.741,0,0,0,0-.53,1.561,1.561,0,0,0-.167-.488c-2.258-3.359-4.516-7.834-6.607-11.444a1.185,1.185,0,0,0-.348-.39,1.269,1.269,0,0,0-.474-.237,1.743,1.743,0,0,0-.53,0,1.561,1.561,0,0,0-.488.167l-9.339,5.394a2.2,2.2,0,0,1-1.394.279,2.244,2.244,0,0,1-1.254-.627,34.852,34.852,0,0,0-3.206-2.718,33.876,33.876,0,0,0-3.5-2.328A32.4,32.4,0,0,0,380.39,67.5a34.143,34.143,0,0,0-3.959-1.394,2.188,2.188,0,0,1-1.157-.781,2.272,2.272,0,0,1-.446-1.394V53.2a1.38,1.38,0,0,0-.4-.948,1.184,1.184,0,0,0-.432-.293,1.394,1.394,0,0,0-.5-.1H360.262a1.338,1.338,0,0,0-1.338,1.338V63.975a2.216,2.216,0,0,1-.474,1.394,2.188,2.188,0,0,1-1.227.781Zm-4.642-.4a35.849,35.849,0,0,0-3.945,1.965,37.417,37.417,0,0,0-3.722,2.467,37.027,37.027,0,0,0-3.387,2.885.2.2,0,0,1-.153,0,.2.2,0,0,1-.153,0c-3.136-1.812-6.287-3.61-9.423-5.436a3.22,3.22,0,0,0-2.411-.279,3.332,3.332,0,0,0-1.157.572,3.15,3.15,0,0,0-.85.962c-2.272,3.68-4.433,7.68-6.607,11.444a3.22,3.22,0,0,0-.418,1.213A3.471,3.471,0,0,0,321,83.935a3.514,3.514,0,0,0,.962.85c3.011,1.854,6.273,3.61,9.339,5.381a.335.335,0,0,1,.111.125.349.349,0,0,1,0,.167l-.223.864h0c-.1.432-.181.864-.265,1.3-.125.753-.251,1.478-.334,2.2s-.153,1.394-.2,2.216,0,1.505,0,2.23v2.23a18.974,18.974,0,0,0,.2,2.216c.084.711.209,1.394.334,2.2a20.814,20.814,0,0,0,.474,2.161.223.223,0,0,1,0,.167.167.167,0,0,1-.111.125c-3.429,1.84-6.97,3.987-10.3,5.952l.125.153L321,114.6a3.471,3.471,0,0,0-.655,2.439,3.22,3.22,0,0,0,.418,1.213l7.109,12.308.125-.084.223.181a3.109,3.109,0,0,0,1.157.572,3.3,3.3,0,0,0,2.453-.307c3.108-1.645,6.314-3.638,9.381-5.408a.2.2,0,0,1,.153,0,.2.2,0,0,1,.153,0A37.015,37.015,0,0,0,344.9,128.4a37.412,37.412,0,0,0,3.722,2.467,36.162,36.162,0,0,0,3.959,1.979,37.232,37.232,0,0,0,4.182,1.478.175.175,0,0,1,.139.251v10.775a3.149,3.149,0,0,0,.251,1.255,3.319,3.319,0,0,0,.725,1.073,3.08,3.08,0,0,0,1.059.711,3.15,3.15,0,0,0,1.254.251h13.228a3.206,3.206,0,0,0,1.254-.251,3.373,3.373,0,0,0,1.059-.711,3.316,3.316,0,0,0,.725-1.073,3.413,3.413,0,0,0,.251-1.255V134.576a.293.293,0,0,1,0-.167.335.335,0,0,1,.153-.084h0a36.607,36.607,0,0,0,4.182-1.478,38.519,38.519,0,0,0,3.945-1.965,37.415,37.415,0,0,0,3.722-2.467,37.023,37.023,0,0,0,3.387-2.885.237.237,0,0,1,.153-.084.377.377,0,0,1,.167,0l9.325,5.394a3.331,3.331,0,0,0,2.5.321,3.109,3.109,0,0,0,1.157-.571,2.969,2.969,0,0,0,.822-.934c2.453-3.931,4.767-8.252,7.109-12.308H413.2a2.888,2.888,0,0,0,0-.307,3.276,3.276,0,0,0-.084-1.282,3.332,3.332,0,0,0-.572-1.157,3.276,3.276,0,0,0-.948-.85l-9.339-5.38a.251.251,0,0,1-.111-.125.349.349,0,0,1,0-.167l.4-.892h0c.084-.39.153-.781.223-1.171.139-.739.251-1.478.348-2.2s.153-1.394.2-2.216.07-1.505.07-2.23,0-1.478-.07-2.23-.111-1.505-.2-2.216-.209-1.394-.348-2.2-.293-1.394-.46-2.161a.4.4,0,0,1,0-.181.251.251,0,0,1,.125-.112l9.325-5.38a3.47,3.47,0,0,0,.962-.836,3.554,3.554,0,0,0,.558-1.157,3.22,3.22,0,0,0,.084-1.268,3.108,3.108,0,0,0-.39-1.2c-2.216-4.182-4.767-8.266-7.123-12.336l-.125.084-.223-.181a3.332,3.332,0,0,0-1.157-.572,3.29,3.29,0,0,0-1.282-.084,3.206,3.206,0,0,0-1.213.4l-.683.39h0l-8.656,4.99a.237.237,0,0,1-.167,0,.223.223,0,0,1-.153,0h0a33.621,33.621,0,0,0-3.443-2.983,35.8,35.8,0,0,0-7.667-4.433,35.368,35.368,0,0,0-4.182-1.478.32.32,0,0,1-.139-.1.2.2,0,0,1,0-.153V53.2a3.415,3.415,0,0,0-.251-1.255,3.317,3.317,0,0,0-.725-1.073,3.373,3.373,0,0,0-1.059-.711,3.206,3.206,0,0,0-1.255-.251H360.248a3.15,3.15,0,0,0-1.254.251,3.276,3.276,0,0,0-1.073.711,3.332,3.332,0,0,0-.962,2.328V63.975a.349.349,0,0,1,0,.167.237.237,0,0,1-.139.084h0a35.673,35.673,0,0,0-4.307,1.492Z" transform="translate(59.89 19.66)" fill="#f8cfbe" fill-rule="evenodd"/>
        <path id="Path_3486" data-name="Path 3486" d="M395.415,16.552a8.949,8.949,0,1,1-2.621,6.328,8.949,8.949,0,0,1,2.621-6.328Zm1.938-8.865a16.336,16.336,0,0,0-3.513,1.547,16.726,16.726,0,0,0-3.081,2.328.544.544,0,0,1-.655,0l-4.182-2.4h0a1.018,1.018,0,0,0-.753-.084,1.059,1.059,0,0,0-.627.474h0l-2.927,5.074a1.017,1.017,0,0,0-.1.781,1.059,1.059,0,0,0,.474.627h0l4.182,2.384a.544.544,0,0,1,.265.6h0a16.533,16.533,0,0,0-.474,3.819,14.744,14.744,0,0,0,.125,1.938,13.936,13.936,0,0,0,.348,1.882.558.558,0,0,1-.293.627l-4.182,2.384h0a1.059,1.059,0,0,0-.474.627,1.031,1.031,0,0,0,.1.781l2.941,5.1h0a1.06,1.06,0,0,0,.627.474,1.031,1.031,0,0,0,.781-.1h0l4.182-2.384a.53.53,0,0,1,.641.07,16.727,16.727,0,0,0,3.081,2.328,15.764,15.764,0,0,0,3.527,1.491.544.544,0,0,1,.4.53v4.8a1.045,1.045,0,0,0,1.031,1.031h5.882a.962.962,0,0,0,.725-.307.989.989,0,0,0,.307-.725V38.617a.544.544,0,0,1,.418-.53,16.045,16.045,0,0,0,3.513-1.492,16.725,16.725,0,0,0,3.081-2.272.544.544,0,0,1,.683,0l4.182,2.384a1.045,1.045,0,0,0,1.394-.376h0l2.927-5.074h0a1.031,1.031,0,0,0,.1-.781,1.017,1.017,0,0,0-.474-.627l-4.182-2.4a.544.544,0,0,1-.251-.613h0a16.576,16.576,0,0,0,.335-1.882,14.744,14.744,0,0,0,.125-1.938,14.554,14.554,0,0,0-.125-1.924,17.389,17.389,0,0,0-.334-1.9.53.53,0,0,1,.279-.613l4.182-2.384a1.017,1.017,0,0,0,.474-.627,1.031,1.031,0,0,0-.1-.781h0l-2.927-5.074h0a1.045,1.045,0,0,0-1.394-.376h0l-4.182,2.4a.544.544,0,0,1-.669-.084,15.541,15.541,0,0,0-3.122-2.425,15.766,15.766,0,0,0-3.527-1.491.544.544,0,0,1-.4-.53V2.362a1.018,1.018,0,0,0-.307-.739,1,1,0,0,0-.725-.293H398.8a1.032,1.032,0,0,0-.725.293,1.017,1.017,0,0,0-.307.739v4.8a.558.558,0,0,1-.418.53Z" transform="translate(-34.002 0.524)" fill="#f8cfbe" fill-rule="evenodd"/>
        <path id="Path_3487" data-name="Path 3487" d="M629.185,237.11a8.949,8.949,0,1,1-2.621,6.328A8.949,8.949,0,0,1,629.185,237.11Zm1.979-8.865a14.8,14.8,0,0,0-3.513,1.491,16.044,16.044,0,0,0-3.081,2.314.544.544,0,0,1-.655.084l-4.182-2.4h0a1.087,1.087,0,0,0-.753-.084,1.031,1.031,0,0,0-.627.488h0l-2.927,5.06a1.045,1.045,0,0,0,.376,1.394h0l4.182,2.37a.558.558,0,0,1,.265.613h0a13.8,13.8,0,0,0-.348,1.9,14.819,14.819,0,0,0,0,3.847,13.8,13.8,0,0,0,.348,1.9.558.558,0,0,1-.293.613l-4.182,2.384h0a1.059,1.059,0,0,0-.474.627,1.017,1.017,0,0,0,.1.781l2.913,5.2h0a1.017,1.017,0,0,0,.627.474,1.031,1.031,0,0,0,.781-.1h0l4.182-2.384a.53.53,0,0,1,.641.084,16.043,16.043,0,0,0,3.081,2.314,16.486,16.486,0,0,0,3.527,1.505.53.53,0,0,1,.4.53v4.8a1.017,1.017,0,0,0,.307.725,1.032,1.032,0,0,0,.725.293h5.882a1.032,1.032,0,0,0,.725-.293,1.017,1.017,0,0,0,.307-.725v-4.8a.558.558,0,0,1,.418-.544,16.045,16.045,0,0,0,3.513-1.491,15.63,15.63,0,0,0,3.081-2.314.544.544,0,0,1,.683,0l4.182,2.384a1.031,1.031,0,0,0,.781.1,1.017,1.017,0,0,0,.627-.474h0l2.927-5.074h0a1.045,1.045,0,0,0-.376-1.394l-4.182-2.4a.53.53,0,0,1-.251-.6h0a13.788,13.788,0,0,0,.348-1.9,14.533,14.533,0,0,0,.125-1.924,14.9,14.9,0,0,0-.125-1.938,13.935,13.935,0,0,0-.349-1.882.572.572,0,0,1,.293-.627l4.182-2.384a.975.975,0,0,0,.474-.627,1.031,1.031,0,0,0-.1-.781h0l-2.927-5.06h0a1.032,1.032,0,0,0-1.394-.39h0l-4.182,2.4a.543.543,0,0,1-.669-.1,16.031,16.031,0,0,0-3.067-2.3,15.806,15.806,0,0,0-3.527-1.505.544.544,0,0,1-.4-.53v-4.8a1.045,1.045,0,0,0-1.031-1.031h-5.994a1.046,1.046,0,0,0-1.032,1.031v4.8A.572.572,0,0,1,631.164,228.245Z" transform="translate(-593.724 87.476)" fill="#f8cfbe" fill-rule="evenodd"/>
        <path id="Path_3488" data-name="Path 3488" d="M434.184,116.553a1.533,1.533,0,1,1,3.067,0v3.61h3.61a1.533,1.533,0,1,1,0,3.067h-3.61v3.61a1.533,1.533,0,1,1-3.067,0v-3.61h-3.61a1.533,1.533,0,1,1,0-3.067h3.61Z" transform="translate(-120.651 45.308)" fill="#f8cfbe" fill-rule="evenodd"/>
        <path id="Path_3489" data-name="Path 3489" d="M322.964,11.523a1.533,1.533,0,1,1,3.067,0v3.61h3.652a1.547,1.547,0,0,1,0,3.081h-3.61v3.61a1.533,1.533,0,0,1-3.067,0v-3.61H319.4a1.547,1.547,0,0,1,0-3.081h3.61Z" transform="translate(145.445 3.935)" fill="#f8cfbe" fill-rule="evenodd"/>
        <path id="Path_3490" data-name="Path 3490" d="M465.254,4.946a1.547,1.547,0,0,1,3.081,0v3.61h3.6a1.533,1.533,0,0,1,0,3.067h-3.6v3.61a1.547,1.547,0,0,1-3.081,0v-3.61h-3.61a1.533,1.533,0,0,1,0-3.067h3.61Z" transform="translate(-195.03 1.397)" fill="#f8cfbe" fill-rule="evenodd"/>
        <path id="Path_3491" data-name="Path 3491" d="M615.763,184.486a1.547,1.547,0,0,1,3.081,0v3.61h3.6a1.533,1.533,0,1,1,0,3.067h-3.6v3.61a1.547,1.547,0,0,1-3.081,0v-3.61h-3.61a1.533,1.533,0,0,1,0-3.067h3.61Z" transform="translate(-555.338 72.119)" fill="#f8cfbe" fill-rule="evenodd"/>
        <path id="Path_3492" data-name="Path 3492" d="M14.346,49.5a1.533,1.533,0,0,1,3.067,0v3.61h3.61a1.547,1.547,0,0,1,0,3.081h-3.61V59.8a1.533,1.533,0,1,1-3.067,0v-3.61h-3.61a1.547,1.547,0,0,1,0-3.081h3.61Z" transform="translate(884.35 18.896)" fill="#fff" fill-rule="evenodd"/>
        <path id="Path_3493" data-name="Path 3493" d="M651,299.173a1.533,1.533,0,0,1,3.067,0v3.61h3.652a1.533,1.533,0,0,1,0,3.067h-3.61v3.61a1.533,1.533,0,0,1-3.067,0v-3.61h-3.61a1.533,1.533,0,0,1,0-3.067h3.61Z" transform="translate(-639.795 117.244)" fill="#f8cfbe" fill-rule="evenodd"/>
        <path id="Path_3494" data-name="Path 3494" d="M122.02,21.233a1.533,1.533,0,1,1,3.067,0v3.61h3.6a1.547,1.547,0,0,1,0,3.081h-3.61v3.61a1.533,1.533,0,1,1-3.067,0v-3.61H118.4a1.547,1.547,0,0,1,0-3.081h3.61Z" transform="translate(626.621 7.76)" fill="#fff" fill-rule="evenodd"/>
        <path id="Path_3495" data-name="Path 3495" d="M254.814,95.113a1.533,1.533,0,0,1,3.067,0v3.61h3.61a1.533,1.533,0,1,1,0,3.067h-3.61v3.61a1.533,1.533,0,0,1-3.067,0v-3.61H251.2a1.533,1.533,0,1,1,0-3.067h3.61Z" transform="translate(308.744 36.862)" fill="#fff" fill-rule="evenodd"/>
        <path id="Path_3496" data-name="Path 3496" d="M23.806,226.953a1.533,1.533,0,1,1,3.067,0v3.61h3.61a1.547,1.547,0,0,1,0,3.081h-3.61v3.61a1.533,1.533,0,0,1-3.067,0v-3.61H20.2a1.547,1.547,0,0,1,0-3.081h3.61Z" transform="translate(861.703 88.795)" fill="#fff" fill-rule="evenodd"/>
        <path id="Path_3497" data-name="Path 3497" d="M5.144,365.353a1.533,1.533,0,1,1,3.067,0v3.61h3.61a1.533,1.533,0,0,1,0,3.067H8.21v3.61a1.533,1.533,0,0,1-3.067,0v-3.61H1.533a1.533,1.533,0,0,1,0-3.067h3.61Z" transform="translate(906.432 143.313)" fill="#fff" fill-rule="evenodd"/>
        <path id="Path_3498" data-name="Path 3498" d="M457.165,383.721c-8.81,1.143-17.257-2.788-20.741-16.546a83.817,83.817,0,0,1-1.728-26.275c4.307,12.545,10.9,30.541,15.208,33.593a16.56,16.56,0,0,0,7.667,3.122C457.346,380.069,457.193,382.257,457.165,383.721Z" transform="translate(-143.214 134.284)" fill="#077053" fill-rule="evenodd"/>
        <path id="Path_3500" data-name="Path 3500" d="M204.823,227.55c-1.018,5.255,3.373,6.482,6.161,6.064,3.192-.474,6.259-1.394,8.363-7.736s4.53-12.155,5.882-15.417a9.256,9.256,0,0,0,.46-4.461s-2.955,7.541-5.088,12.671-3.694,11.151-7.708,11.416C209.521,230.338,206.552,229.543,204.823,227.55Z" transform="translate(408.706 81.146)" fill="#fff" fill-rule="evenodd"/>
        <path id="Path_3501" data-name="Path 3501" d="M211.726,113.58l-5.464,5.576s-7.527,7.639-15.751,8.712c-5.729.753-17.981,1.268-23.7,18.33-3.791,11.36-1.951,95.817-1.91,95.9,2.147,3.22,12.545,2.147,12.545-10.719s6.077-66.824,7.137-72.483,29.035,3.875,46.25-5.269c8.015-4.265,7.416-16.267,4.474-27.878a33.536,33.536,0,0,1-5.157-2.9,86.631,86.631,0,0,0-18.414-9.214Z" transform="translate(453.281 44.74)" fill="#1b191b" fill-rule="evenodd"/>
        <path id="Path_3502" data-name="Path 3502" d="M153.757,209.36a38.416,38.416,0,0,0,2.314,17.494c3.011,7.3-2.23,8.963-5.422,8.489s-6.245-1.394-8.294-7.736-4.53-12.155-5.9-15.417-.167-10.426,4.182-10.58c0,0,3.15,6.774,6.44,6.3a5.9,5.9,0,0,0,4.433-2.69S153.716,204.788,153.757,209.36Z" transform="translate(573.348 79.416)" fill="#d54944" fill-rule="evenodd"/>
        <path id="Path_3503" data-name="Path 3503" d="M156.868,227.55c1.018,5.255-3.373,6.482-6.175,6.064-3.178-.474-6.245-1.394-8.294-7.736s-4.53-12.155-5.9-15.417a9.451,9.451,0,0,1-.544-4.461s2.941,7.541,5.088,12.671,3.68,11.151,7.708,11.416C152.114,230.338,155.083,229.543,156.868,227.55Z" transform="translate(573.346 81.146)" fill="#fff" fill-rule="evenodd"/>
        <path id="Path_3504" data-name="Path 3504" d="M164.672,113.588l5.464,5.576a16.058,16.058,0,0,0,7.179,6.788,33.9,33.9,0,0,0,8.573,1.924c5.729.753,17.981,1.268,23.7,18.33,3.778,11.36,1.951,95.817,1.9,95.9-2.133,3.22-12.545,2.147-12.545-10.719s-6.077-66.824-7.151-72.483-29.021,3.875-46.236-5.269c-8.015-4.265-7.416-16.267-4.474-27.878a33.454,33.454,0,0,0,5.143-2.9,87.286,87.286,0,0,1,18.455-9.3Z" transform="translate(513.967 44.733)" fill="#1b191b" fill-rule="evenodd"/>
        <path id="Path_3505" data-name="Path 3505" d="M218.185,70.65s-5.576,2.23-12.768,16.406-13.186,31.475-13.479,35.377,3.15,6.551,6.468,4.321,19.807-35.726,19.807-35.726l3.4-2.37S221.307,73.842,218.185,70.65Z" transform="translate(430.653 27.83)" fill="#f4ad85" fill-rule="evenodd"/>
        <path id="Path_3506" data-name="Path 3506" d="M147.9,70.65s5.576,2.23,12.754,16.406,13.242,31.5,13.493,35.377-3.164,6.551-6.468,4.321-19.807-35.726-19.807-35.726l-3.4-2.37S144.777,73.842,147.9,70.65Z" transform="translate(544.247 27.83)" fill="#f4ad85" fill-rule="evenodd"/>
        <path id="Path_3507" data-name="Path 3507" d="M197.087,69.212a81.181,81.181,0,0,1,11.36,3.053s2.411,22.3,2.509,25.8c.167,6.105-8.071,29.662-2.5,46.71-16.462,8.363-38.151,4.809-45.023,1.84a1.924,1.924,0,0,1-1.185-1.394c-.251-4.642,2.049-9.158,2.049-13.618,0-10.385-2.941-31.224-2.788-32.841.474-3.485,3.527-26.484,3.527-26.484a78.813,78.813,0,0,1,11.151-3.011l7.332-2.718h6.119Z" transform="translate(483.699 26.215)" fill="#077053" fill-rule="evenodd"/>
        <path id="Path_3508" data-name="Path 3508" d="M198.208,70.427l-.85,1.059c-5.98,7.443-22.414,7.443-28.394,0l-.864-1.073c2.648-.7,4.656-1.185,4.656-1.185l7.332-2.718h6.119l7.318,2.718S195.56,69.716,198.208,70.427Z" transform="translate(487.261 26.199)" fill="#fff" fill-rule="evenodd"/>
        <path id="Path_3509" data-name="Path 3509" d="M192.209,72.6s-3.568-3.053-3.568-6.565V58.52l-6.816,1.394-6.83-1.394v7.513c0,3.513-3.554,6.565-3.554,6.565C175.441,77.589,188.195,77.589,192.209,72.6Z" transform="translate(488.604 23.052)" fill="#ec7962" fill-rule="evenodd"/>
        <rect id="Rectangle_2025" data-name="Rectangle 2025" width="33.705" height="16.1" rx="1.44" transform="translate(653.577 117.493)" fill="#1b191b"/>
        <rect id="Rectangle_2026" data-name="Rectangle 2026" width="33.705" height="16.1" rx="1.44" transform="translate(653.577 118.705)" fill="#3d3b3c"/>
        <path id="Path_3510" data-name="Path 3510" d="M185.684,86.39h4.474a1.394,1.394,0,0,1,1.394,1.394h0a1.394,1.394,0,0,1-1.394,1.394h-4.474a1.394,1.394,0,0,1-1.394-1.394h0A1.394,1.394,0,0,1,185.684,86.39Z" transform="translate(471.35 34.03)" fill="#fff" fill-rule="evenodd"/>
        <path id="Path_3511" data-name="Path 3511" d="M188.694,88.481a.85.85,0,1,1,.836-.85.85.85,0,0,1-.836.85Z" transform="translate(468.437 34.184)" fill="#e2e1e7" fill-rule="evenodd"/>
        <path id="Path_3512" data-name="Path 3512" d="M187.154,88.481a.85.85,0,1,1,.836-.85.85.85,0,0,1-.836.85Z" transform="translate(472.124 34.184)" fill="#1b191b" fill-rule="evenodd"/>
        <path id="Path_3513" data-name="Path 3513" d="M185.554,88.481a.85.85,0,1,1,.836-.85.85.85,0,0,1-.836.85Z" transform="translate(475.954 34.184)" fill="#0e1632" fill-rule="evenodd"/>
        <path id="Path_3514" data-name="Path 3514" d="M173.105,118.183l-25.355-19.6.7-6.175L175.015,107Z" transform="translate(538.821 36.401)" fill="#f4ad85" fill-rule="evenodd"/>
        <path id="Path_3515" data-name="Path 3515" d="M152.387,96.051l5.185,9.674s6.537-4.879,12.545-5.576c0,0-8.893-25.09-19.417-29.509C150.644,70.654,146.755,77.54,152.387,96.051Z" transform="translate(541.502 27.826)" fill="#077053" fill-rule="evenodd"/>
        <path id="Path_3516" data-name="Path 3516" d="M192.34,118.613l25.286-20.044-.432-7.248L190.43,107.434Z" transform="translate(436.718 35.972)" fill="#f4ad85" fill-rule="evenodd"/>
        <path id="Path_3517" data-name="Path 3517" d="M211.175,96.051l-5.185,9.674s-6.537-4.879-12.545-5.576c0,0,8.893-25.09,19.417-29.509C212.917,70.654,216.806,77.54,211.175,96.051Z" transform="translate(435.92 27.826)" fill="#077053" fill-rule="evenodd"/>
        <path id="Path_3518" data-name="Path 3518" d="M189.057,53.051a3.108,3.108,0,1,0,3.29,2.913,3.108,3.108,0,0,0-3.29-2.913Z" transform="translate(467.976 20.896)" fill="#e8685b" fill-rule="evenodd"/>
        <path id="Path_3519" data-name="Path 3519" d="M169.811,51.881a3.122,3.122,0,1,0,2.258.795A3.108,3.108,0,0,0,169.811,51.881Z" transform="translate(514.055 20.435)" fill="#e8685b" fill-rule="evenodd"/>
        <path id="Path_3520" data-name="Path 3520" d="M181.792,39.7h0c-7.443,0-13.326,6.97-12.88,14.762l.6,10.217c.446,7.764,5.9,15.445,13.758,15.431,8.252,0,13.409-11.542,13.3-14.078l-.585-12.838A13.939,13.939,0,0,0,181.792,39.7Z" transform="translate(487.8 15.638)" fill="#f4ad85" fill-rule="evenodd"/>
        <path id="Path_3521" data-name="Path 3521" d="M181.833,39.7h0c-7.443,0-13.326,6.97-12.88,14.762l.6,10.217a19.057,19.057,0,0,0,.279,2.356l.962-7.318,1.965-2.551.962-5.8s2.356,2.969,9.381,3.108,9.757-3.178,9.757-3.178l2.077,7.457c.362,3.9.822,7.318,1.227,9.242a6.274,6.274,0,0,0,.39-1.965l-.585-12.838A13.939,13.939,0,0,0,181.833,39.7Z" transform="translate(487.759 15.638)" fill="#ec7962" fill-rule="evenodd"/>
        <path id="Path_3522" data-name="Path 3522" d="M168.484,94.21c-.348,2.913-3.764,4.642-3.764,4.739V91.98Z" transform="translate(521.697 36.232)" fill="#ec7962" fill-rule="evenodd"/>
        <path id="Path_3523" data-name="Path 3523" d="M166.278,83.752c1.241-.446,2.314-.53,1.951.878a20.907,20.907,0,0,0,.1,4.962l-2.788-.265S164.953,84.282,166.278,83.752Z" transform="translate(520.892 32.877)" fill="#ec7962" fill-rule="evenodd"/>
        <path id="Path_3524" data-name="Path 3524" d="M173.571,87.607c.53.808.348,9.618-.446,10.273s-5.9,1.018-5.938,0,2.035-1.993,2.035-1.993-3.206.39-3.819-1,1.073-1.9,3.331-2.021c.92,0-1.882-.725-3.025-1.171a1.784,1.784,0,0,1-.781-1.951c.209-1.227,3.527-.39,4.7-.474a24.226,24.226,0,0,1-4.265-1.1c-.99-.46-1.742-2.147.781-2.174a41.653,41.653,0,0,1,4.767.39A2.453,2.453,0,0,1,173.571,87.607Z" transform="translate(516.707 33.872)" fill="#f4ad85" fill-rule="evenodd"/>
        <path id="Path_3525" data-name="Path 3525" d="M190.309,94.2a5.715,5.715,0,0,0,3.178,4.767c.976.307,0-6.97,0-6.97Z" transform="translate(460.592 36.24)" fill="#ec7962" fill-rule="evenodd"/>
        <path id="Path_3526" data-name="Path 3526" d="M192.147,83.752c-1.241-.446-2.3-.53-1.951.878a21.117,21.117,0,0,1-.084,4.962l2.788-.265S193.471,84.282,192.147,83.752Z" transform="translate(461.764 32.877)" fill="#ec7962" fill-rule="evenodd"/>
        <path id="Path_3527" data-name="Path 3527" d="M186.758,87.607c-.544.808-.362,9.618.432,10.273s5.9,1.018,5.938,0-2.035-1.993-2.035-1.993,3.206.39,3.833-1-1.087-1.9-3.345-2.021c-.92,0,1.882-.725,3.025-1.171a1.784,1.784,0,0,0,.781-1.951c-.209-1.227-3.527-.39-4.7-.474a24.225,24.225,0,0,0,4.265-1.1c1-.46,1.756-2.147-.767-2.174a41.684,41.684,0,0,0-4.781.39,2.439,2.439,0,0,0-2.648,1.227Z" transform="translate(464.003 33.872)" fill="#f4ad85" fill-rule="evenodd"/>
        <path id="Path_3528" data-name="Path 3528" d="M195.78,57.761c.613,6.621,1.519,11.862,1.924,10.747s1.659-9.925,1.659-9.925,4.279-2.342,2.788-5.241-2.481-2.481-2.481-2.481c4.419-7.053-.265-10.078-3.666-9.98h0A6.37,6.37,0,0,0,184.28,37.41a6.412,6.412,0,0,0-11.625,1.018h0a4.488,4.488,0,0,0-4.488,4.488,4.433,4.433,0,0,0,.53,2.091,4.182,4.182,0,0,0-3.136,3.15c-1.589,4.753,3.582,6.677,2.481,6.816s-2.69,2.969-1.31,4.488,2.2,1.394,2.2,1.394l1.519,6.816,1.171-8.963,1.924-2.467.962-5.785s2.356,2.969,9.381,3.094,9.757-3.164,9.757-3.164Z" transform="translate(486.972 13.454)" fill="#1b191b" fill-rule="evenodd"/>
        <path id="Path_3499" data-name="Path 3499" d="M207.895,209.36c.139,3.666.725,10.189-2.3,17.494s2.23,8.963,5.408,8.489,6.259-1.394,8.363-7.736,4.53-12.155,5.882-15.417.181-10.426-4.182-10.58c0,0-3.15,6.774-6.44,6.3a5.854,5.854,0,0,1-4.433-2.69S207.951,204.788,207.895,209.36Z" transform="translate(408.687 79.416)" fill="#d54944" fill-rule="evenodd"/>
      </g>
      <g id="Group_12684" data-name="Group 12684" transform="translate(504.173 235.625)">
        <ellipse id="Ellipse_364" data-name="Ellipse 364" cx="79.788" cy="4.658" rx="79.788" ry="4.658" transform="translate(0 129.227)" fill="#f0f6ff"/>
        <path id="Path_3750" data-name="Path 3750" d="M157.39,334.054l-2.42,2.165-4.6-4.794,2.416-2.165Z" transform="translate(-36.603 -208.555)" fill="#ce7a63"/>
        <path id="Path_3751" data-name="Path 3751" d="M173.948,341.756H170.9l-.4-7.066h3.053Z" transform="translate(-61.445 -211.75)" fill="#ce7a63"/>
        <path id="Path_3752" data-name="Path 3752" d="M176.273,351h3.416a.218.218,0,0,1,.226.206l.165,2.712a.539.539,0,0,1-.535.543c-1.193-.021-1.761-.09-3.292-.09-.926,0-4.868.1-6.148.1s-1.235-1.267-.7-1.383c2.436-.514,5.453-1.235,6.313-1.9a.872.872,0,0,1,.56-.185Z" transform="translate(-66.979 -221.348)" fill="#0f264c"/>
        <path id="Path_3753" data-name="Path 3753" d="M149.558,341.148l2.942-1.979a.272.272,0,0,1,.333,0l2.247,2.267a.449.449,0,0,1-.107.687,30.726,30.726,0,0,0-4.3,3.737c-1.235,1.4-1.905,1.6-4.786,1.6-1.333,0-2.086-1.123-1.543-1.3,4.8-1.518,3.518-2.181,4.683-4.407a1.671,1.671,0,0,1,.527-.613Z" transform="translate(-31.858 -214.354)" fill="#0f264c"/>
        <path id="Path_3758" data-name="Path 3758" d="M243.154,110.844,242.1,107.49l-2.724,2s1.49,2.992,2.5,2.72Z" transform="translate(-158.995 -78.045)" fill="#ce7a63"/>
        <path id="Path_3759" data-name="Path 3759" d="M243.465,104.37l-1.535,1.881,1.679,1.4,2.724-2Z" transform="translate(-163.224 -76.211)" fill="#ce7a63"/>
        <path id="Path_3760" data-name="Path 3760" d="M155.78,331.425l2.374,2.473,2.42-2.169L158.2,329.26Z" transform="translate(-42.013 -208.555)" fill="#bc6753"/>
        <path id="Path_3761" data-name="Path 3761" d="M174.013,334.69H170.96l.206,3.642h3.053Z" transform="translate(-61.905 -211.75)" fill="#bc6753"/>
        <path id="Path_3766" data-name="Path 3766" d="M161.175,328.027l-4.56,4.288-1.465-1.576,5.21-4.749Z" transform="translate(-42.354 -206.629)" fill="#9fc6ff"/>
        <path id="Path_3768" data-name="Path 3768" d="M173.094,338.373h-6.037l-.337-2.123,6.667.333Z" transform="translate(-59.327 -212.668)" fill="#9fc6ff"/>
        <path id="Path_3785" data-name="Path 3785" d="M179.453,351.187a3.638,3.638,0,0,0,.823-.111.07.07,0,0,0,.058-.053.066.066,0,0,0-.033-.07c-.095-.07-.963-.658-1.333-.514a.259.259,0,0,0-.165.2.412.412,0,0,0,.091.387A.823.823,0,0,0,179.453,351.187Zm.617-.214c-.547.111-.946.095-1.09-.049a.255.255,0,0,1-.049-.251.132.132,0,0,1,.078-.1C179.21,350.5,179.716,350.75,180.07,350.973Z" transform="translate(-71.241 -221.004)" fill="#407bff"/>
        <path id="Path_3786" data-name="Path 3786" d="M179.549,350.04h.033a.078.078,0,0,0,.037-.058c0-.037.07-.914-.239-1.21a.342.342,0,0,0-.3-.1.276.276,0,0,0-.259.214c-.07.333.387.971.691,1.152Zm-.412-1.235a.193.193,0,0,1,.152.066,1.572,1.572,0,0,1,.2.967c-.263-.222-.568-.708-.523-.926,0-.041.033-.091.136-.1Z" transform="translate(-70.544 -219.977)" fill="#407bff"/>
        <path id="Path_3787" data-name="Path 3787" d="M159.331,347.025a3.8,3.8,0,0,0,1.523-.588.071.071,0,0,0-.029-.132c-.165,0-1.609-.111-1.889.222a.222.222,0,0,0-.041.2.346.346,0,0,0,.214.255A.547.547,0,0,0,159.331,347.025Zm1.235-.593c-.658.362-1.177.519-1.407.412a.218.218,0,0,1-.136-.156.078.078,0,0,1,0-.078,3.271,3.271,0,0,1,1.551-.177Z" transform="translate(-43.605 -218.574)" fill="#407bff"/>
        <path id="Path_3788" data-name="Path 3788" d="M160.311,345.257a.064.064,0,0,0,.062-.1c-.025-.049-.576-1.169-1.28-.823-.193.09-.214.206-.2.288.074.329.992.634,1.411.642Zm-.951-.848c.374,0,.7.473.823.7-.44-.053-1.107-.325-1.148-.523,0-.041.033-.086.119-.128a.461.461,0,0,1,.206-.045Z" transform="translate(-43.1 -217.387)" fill="#407bff"/>
        <path id="Path_3791" data-name="Path 3791" d="M179.338,179.413h0a4.856,4.856,0,0,0-4.35-3.053H138.709a3.261,3.261,0,0,0-3.292,3.938l11.465,68.517a4.844,4.844,0,0,0,4.609,3.938H242.46a3.243,3.243,0,0,0,3.292-3.938l-9.757-58.328a4.852,4.852,0,0,0-4.6-3.938H189.5A11.351,11.351,0,0,1,179.338,179.413Z" transform="translate(-118.866 -118.576)" fill="#9fc6ff" opacity="0.9"/>
        <path id="Path_3792" data-name="Path 3792" d="M257.933,35.94l27.452,95.389-62.8,18.07L195.14,54.01Z" transform="translate(-183.021 -35.939)" fill="#dce9ff" opacity="0.9"/>
        <ellipse id="Ellipse_365" data-name="Ellipse 365" cx="11.321" cy="11.321" rx="11.321" ry="11.321" transform="matrix(-0.658, -0.753, 0.753, -0.658, 61.344, 38.575)" fill="#407bff"/>
        <path id="Path_3793" data-name="Path 3793" d="M281.886,86.622a8.967,8.967,0,1,0-6.829-.765A8.971,8.971,0,0,0,281.886,86.622Z" transform="translate(-216.986 -55.412)" fill="#fff"/>
        <rect id="Rectangle_2055" data-name="Rectangle 2055" width="20.798" height="4.675" transform="matrix(-0.961, 0.276, -0.276, -0.961, 79.328, 39.395)" fill="#407bff"/>
        <rect id="Rectangle_2056" data-name="Rectangle 2056" width="11.465" height="18.172" transform="matrix(-0.961, 0.276, -0.276, -0.961, 93.939, 90.175)" fill="#407bff"/>
        <rect id="Rectangle_2057" data-name="Rectangle 2057" width="11.465" height="18.172" transform="matrix(-0.961, 0.276, -0.276, -0.961, 54.952, 101.394)" fill="#407bff"/>
        <rect id="Rectangle_2058" data-name="Rectangle 2058" width="11.465" height="18.172" transform="matrix(-0.961, 0.276, -0.276, -0.961, 74.444, 95.782)" fill="#407bff"/>
        <rect id="Rectangle_2059" data-name="Rectangle 2059" width="14.07" height="4.675" transform="matrix(-0.961, 0.276, -0.276, -0.961, 56.717, 45.903)" fill="#407bff"/>
        <rect id="Rectangle_2060" data-name="Rectangle 2060" width="51.485" height="1.926" transform="matrix(-0.961, 0.276, -0.276, -0.961, 81.381, 46.509)" fill="#fff"/>
        <rect id="Rectangle_2061" data-name="Rectangle 2061" width="25.6" height="1.926" transform="matrix(-0.961, 0.276, -0.276, -0.961, 82.508, 50.441)" fill="#fff"/>
        <rect id="Rectangle_2062" data-name="Rectangle 2062" width="17.123" height="1.926" transform="matrix(-0.961, 0.276, -0.276, -0.961, 53.7, 58.73)" fill="#fff"/>
        <rect id="Rectangle_2063" data-name="Rectangle 2063" width="41.156" height="1.926" transform="matrix(-0.961, 0.276, -0.276, -0.961, 83.64, 54.378)" fill="#fff"/>
        <rect id="Rectangle_2064" data-name="Rectangle 2064" width="47.308" height="1.926" transform="translate(85.154 58.575) rotate(163.74)" fill="#fff"/>
        <rect id="Rectangle_2065" data-name="Rectangle 2065" width="5.465" height="1.926" transform="matrix(-0.961, 0.276, -0.276, -0.961, 85.905, 62.247)" fill="#fff"/>
        <rect id="Rectangle_2066" data-name="Rectangle 2066" width="24.148" height="1.926" transform="matrix(-0.961, 0.276, -0.276, -0.961, 76.442, 64.968)" fill="#fff"/>
        <rect id="Rectangle_2067" data-name="Rectangle 2067" width="51.485" height="1.926" transform="matrix(-0.961, 0.276, -0.276, -0.961, 87.039, 66.181)" fill="#fff"/>
        <path id="Path_3794" data-name="Path 3794" d="M254.155,46.21l26.234,91.163-60.661,17.456L195.14,60.477Z" transform="translate(-178.025 -41.984)" fill="#dce9ff" opacity="0.9"/>
        <path id="Path_3795" data-name="Path 3795" d="M248.809,44l24.135,96.294-63.373,15.884L185.44,59.884Z" transform="translate(-166.589 -40.684)" fill="#dce9ff" opacity="0.9"/>
        <circle id="Ellipse_366" data-name="Ellipse 366" cx="11.321" cy="11.321" r="11.321" transform="translate(74.226 40.575) rotate(-154.22)" fill="#407bff"/>
        <ellipse id="Ellipse_367" data-name="Ellipse 367" cx="8.971" cy="8.971" rx="8.971" ry="8.971" transform="matrix(-0.18, -0.984, 0.984, -0.18, 61.75, 35.905)" fill="#fff"/>
        <rect id="Rectangle_2068" data-name="Rectangle 2068" width="20.798" height="4.675" transform="matrix(-0.97, 0.243, -0.243, -0.97, 85.273, 42.853)" fill="#407bff"/>
        <rect id="Rectangle_2069" data-name="Rectangle 2069" width="11.465" height="18.172" transform="matrix(-0.97, 0.243, -0.243, -0.97, 98.121, 94.106)" fill="#407bff"/>
        <rect id="Rectangle_2070" data-name="Rectangle 2070" width="11.465" height="18.172" transform="matrix(-0.97, 0.243, -0.243, -0.97, 58.77, 103.967)" fill="#407bff"/>
        <rect id="Rectangle_2071" data-name="Rectangle 2071" width="11.465" height="18.172" transform="matrix(-0.97, 0.243, -0.243, -0.97, 78.446, 99.035)" fill="#407bff"/>
        <rect id="Rectangle_2072" data-name="Rectangle 2072" width="14.07" height="4.675" transform="matrix(-0.97, 0.243, -0.243, -0.97, 62.45, 48.572)" fill="#407bff"/>
        <rect id="Rectangle_2073" data-name="Rectangle 2073" width="51.485" height="1.926" transform="matrix(-0.97, 0.243, -0.243, -0.97, 87.076, 50.032)" fill="#fff"/>
        <rect id="Rectangle_2074" data-name="Rectangle 2074" width="25.6" height="1.926" transform="matrix(-0.97, 0.243, -0.243, -0.97, 88.069, 54.005)" fill="#fff"/>
        <rect id="Rectangle_2075" data-name="Rectangle 2075" width="17.123" height="1.926" transform="matrix(-0.97, 0.243, -0.243, -0.97, 58.99, 61.296)" fill="#fff"/>
        <rect id="Rectangle_2076" data-name="Rectangle 2076" width="41.156" height="1.926" transform="matrix(-0.97, 0.243, -0.243, -0.97, 89.066, 57.972)" fill="#fff"/>
        <rect id="Rectangle_2077" data-name="Rectangle 2077" width="47.308" height="1.926" transform="matrix(-0.97, 0.243, -0.243, -0.97, 90.057, 61.946)" fill="#fff"/>
        <rect id="Rectangle_2078" data-name="Rectangle 2078" width="5.465" height="1.926" transform="matrix(-0.97, 0.243, -0.243, -0.97, 91.055, 65.917)" fill="#fff"/>
        <rect id="Rectangle_2079" data-name="Rectangle 2079" width="24.148" height="1.926" transform="matrix(-0.97, 0.243, -0.243, -0.97, 81.5, 68.31)" fill="#fff"/>
        <rect id="Rectangle_2080" data-name="Rectangle 2080" width="51.485" height="1.926" transform="matrix(-0.97, 0.243, -0.243, -0.97, 92.049, 69.884)" fill="#fff"/>
        <path id="Path_3796" data-name="Path 3796" d="M165.017,214.768h0c-.078-1.543-1.428-2.638-3.263-2.638H125.471a4.839,4.839,0,0,0-4.679,3.4L109.9,270.409c-.412,1.876,1.021,3.395,3.193,3.395h90.982a4.837,4.837,0,0,0,4.683-3.395l8.959-46.085c.412-1.876-1.021-3.4-3.2-3.4H172.634C168.334,220.924,165.19,218.373,165.017,214.768Z" transform="translate(-80.316 -139.625)" fill="#9fc6ff" opacity="0.7"/>
      </g>
    </g>
    <g id="Group_13076" data-name="Group 13076">
      <path id="Shape-48" data-name="Shape" d="M114,29.077c0,3.013-2.545,4.886-6,4.886H6.269C2.808,33.963,0,31.519,0,28.506V5.455C0,2.443,2.807,0,6.269,0H108c3.46,0,6,2.443,6,5.455V29.077Z" transform="translate(1530 2939.791)" fill="#010101"/>
      <g id="Group_13066" data-name="Group 13066" transform="translate(1533.603 2940.285)">
        <g id="Group_13065" data-name="Group 13065">
          <path id="Path_11273" data-name="Path 11273" d="M22.035,9.371V8.648a6.606,6.606,0,0,0-2.121-4.971,6.93,6.93,0,0,1,1.042,3.7V9.371H19.875V7.38c0-3.411-2.33-6.176-5.2-6.176s-5.2,2.765-5.2,6.176V9.371H1V31.088A2.191,2.191,0,0,0,2.982,33.44H26.361a2.191,2.191,0,0,0,1.982-2.352V9.371ZM10.546,7.38c0-2.7,1.847-4.9,4.125-4.9,2.258.058,4.076,2.216,4.125,4.9V9.371h-6.09V8.648c0-2.7,1.846-4.9,4.125-4.9a3.309,3.309,0,0,1,.567.05,3.428,3.428,0,0,0-1.646-.43,3.962,3.962,0,0,0-3.359,2.055,7.017,7.017,0,0,0-.766,3.22v.724H10.546Z" transform="translate(-1 -1.205)" fill="#fff"/>
          <g id="Group_13064" data-name="Group 13064" transform="translate(7.529 14.345)">
            <rect id="Rectangle_24674" data-name="Rectangle 24674" width="5.67" height="5.67" fill="#f25022"/>
            <rect id="Rectangle_24675" data-name="Rectangle 24675" width="5.67" height="5.67" transform="translate(6.615)" fill="#7fba00"/>
            <rect id="Rectangle_24676" data-name="Rectangle 24676" width="5.67" height="5.67" transform="translate(0 6.615)" fill="#00a4ef"/>
            <rect id="Rectangle_24677" data-name="Rectangle 24677" width="5.67" height="5.67" transform="translate(6.615 6.615)" fill="#ffb900"/>
          </g>
        </g>
      </g>
      <text id="Get_it_from_" data-name="Get it from " transform="translate(1566 2953)" fill="#fff" font-size="8" font-family="ArialMT, Arial" letter-spacing="0.03em"><tspan x="0" y="0">Get it from </tspan></text>
      <text id="Microsoft_Store" data-name="Microsoft Store" transform="translate(1566 2966)" fill="#fff" font-size="10" font-family="Arial-BoldMT, Arial" font-weight="700" letter-spacing="-0.01em"><tspan x="0" y="0">Microsoft Store</tspan></text>
      <path id="Shape-49" data-name="Shape" d="M114,31.414c0,3.255-2.545,5.279-6,5.279H6.269A6.092,6.092,0,0,1,0,30.8V5.894A6.091,6.091,0,0,1,6.269,0H108a5.861,5.861,0,0,1,6,5.894v25.52Z" transform="translate(1530 2982.556)" fill="#010101"/>
      <text id="Available_on_the_" data-name="Available on the " transform="translate(1566 2997)" fill="#fff" font-size="8" font-family="ArialMT, Arial" letter-spacing="0.03em"><tspan x="0" y="0">Available on the </tspan></text>
      <text id="Mac_App_Store" data-name="Mac App Store" transform="translate(1566 3010)" fill="#fff" font-size="10" font-family="Arial-BoldMT, Arial" font-weight="700" letter-spacing="-0.01em"><tspan x="0" y="0">Mac App Store</tspan></text>
      <g id="Group_13067" data-name="Group 13067" transform="translate(-6727.031 8268)">
        <path id="Path_11274" data-name="Path 11274" d="M20.924,0H5.3A5.294,5.294,0,0,0,0,5.3V20.927A5.294,5.294,0,0,0,5.3,26.22H20.927a5.3,5.3,0,0,0,5.3-5.3V5.3A5.3,5.3,0,0,0,20.924,0Z" transform="translate(8261 -5280)" fill="#fff"/>
        <path id="Path_11275" data-name="Path 11275" d="M116.1,138.959l.531-.918a1.2,1.2,0,0,1,2.071,1.193l-5.116,8.856h3.7a1.637,1.637,0,0,1,1.35,2.386H107.793a1.193,1.193,0,1,1,0-2.386h3.042l3.894-6.748-1.216-2.111a1.2,1.2,0,0,1,2.071-1.193l.521.921Zm-4.6,12.746-1.147,1.989a1.2,1.2,0,1,1-2.071-1.193l.852-1.475a2.043,2.043,0,0,1,2.366.678Zm9.879-3.609h3.1a1.193,1.193,0,0,1,0,2.386h-1.724l1.164,2.019a1.2,1.2,0,1,1-2.071,1.193q-2.94-5.1-4.408-7.637a3.3,3.3,0,0,1,.42-4.041q1.175,2.016,3.517,6.08Z" transform="translate(8157.894 -5412.936)" fill="#032f3e"/>
      </g>
    </g>
  </g>
</svg>
