<svg xmlns="http://www.w3.org/2000/svg" width="73.4" height="73.4" viewBox="0 0 73.4 73.4">
  <path id="hiring_1_" data-name="hiring (1)" d="M65.6,35.516l7.8,7.8V73.4H40.252V66.3H0V54.842a8.275,8.275,0,0,1,5.666-7.861L17.759,42.95V39.634a13.042,13.042,0,0,1-4.249-6.556,5.906,5.906,0,0,1-5.222-5.848V17.758a17.758,17.758,0,0,1,35.516,0v9.471a5.906,5.906,0,0,1-5.222,5.848,13.042,13.042,0,0,1-4.249,6.556V42.95l5.919,1.973V35.517Zm.694,7.1h3.061L66.3,39.558ZM33.469,45.158l-5.6,5.6L33.53,54.8l1.8-9.019Zm7.967-17.929A3.547,3.547,0,0,0,39.068,23.9v5.7c0,.331-.025.656-.05.982a3.546,3.546,0,0,0,2.417-3.349ZM13.073,30.579c-.025-.325-.05-.65-.05-.982V23.9a3.53,3.53,0,0,0,.05,6.683Zm6.462-14a6.551,6.551,0,0,1,3.908,1.3l2.6,1.952,2.6-1.952a6.5,6.5,0,0,1,10.191,3.529,5.856,5.856,0,0,1,2.595,1.117V17.758a15.39,15.39,0,0,0-30.781,0v4.766a5.856,5.856,0,0,1,2.595-1.117,6.519,6.519,0,0,1,6.284-4.833Zm6.511,23.677A10.666,10.666,0,0,0,36.7,29.6V23.086a4.143,4.143,0,0,0-6.63-3.315L26.046,22.79l-4.024-3.019a4.144,4.144,0,0,0-6.631,3.315V29.6A10.666,10.666,0,0,0,26.046,40.252Zm-5.919.931v2.131l5.919,5.919,5.919-5.919V41.183a12.91,12.91,0,0,1-11.839,0Zm-3.37,4.6,1.8,9.019,5.659-4.043-5.6-5.6Zm23.5,18.15V47.418L37.6,46.534,35.134,58.853l-9.088-6.491-9.09,6.492L14.493,46.535,6.415,49.227a5.913,5.913,0,0,0-4.046,5.615v9.087h7.1v-7.1h2.368v7.1Zm30.781,7.1V44.987h-7.1v-7.1H42.62V71.033ZM56.826,56.826H68.665V68.665H56.826ZM59.194,66.3h7.1v-7.1h-7.1ZM44.988,68.665h9.471V66.3H44.988Zm0-4.735h9.471V61.562H44.988Zm0-4.735h9.471V56.826H44.988Zm2.368-18.942H44.988V42.62h2.368Zm14.206,0H49.723V42.62H61.562Zm0,4.735H44.988v2.368H61.562Zm4.735,7.1h2.368V49.723H66.3ZM63.93,49.723H44.988v2.368H63.93Zm7.043-37.142a13.031,13.031,0,1,1-1.554-1.809l1.926-2.1,1.746,1.6Zm-1.641,1.79L59.32,25.294l-6.784-5.427,1.48-1.849,5.055,4.044,8.751-9.547a10.731,10.731,0,1,0,1.509,1.857Zm0,0" transform="translate(0 0)" fill="#358ed7"/>
</svg>
