<svg xmlns="http://www.w3.org/2000/svg" width="73" height="73" viewBox="0 0 73 73">
  <path id="recruitment" d="M47.846,41.032A14.129,14.129,0,1,0,61.891,55.161,14.1,14.1,0,0,0,47.846,41.032Zm0,25.9a11.774,11.774,0,1,1,11.7-11.774A11.752,11.752,0,0,1,47.846,66.935Zm2.027-5.008.674,2.255a9.337,9.337,0,0,1-2.7.4V62.226a7,7,0,0,0,2.027-.3Zm7.336-6.767a9.419,9.419,0,0,1-4.2,7.858l-1.292-1.963A7.074,7.074,0,0,0,47.846,48.1V45.742A9.4,9.4,0,0,1,57.209,55.161ZM41.994,24.548A9.428,9.428,0,0,0,36.5,15.98a5.852,5.852,0,1,0-7.736,0,9.428,9.428,0,0,0-5.495,8.568V26.9H41.994ZM29.12,11.6a3.511,3.511,0,1,1,3.511,3.532A3.526,3.526,0,0,1,29.12,11.6ZM25.609,24.548a7.022,7.022,0,1,1,14.044,0ZM56.039,1H18.587V8.346L.813,12.147,8.658,49.274H6.884a5.887,5.887,0,0,0,0,11.774H24.439V58.694h5.023a18.722,18.722,0,1,0,36.357-8.776l7.994-37.77-17.774-3.8ZM53.7,3.355V37.277a18.321,18.321,0,0,0-2.341-.611V29.258H23.269V46.919h7.765a18.755,18.755,0,0,0-1.572,4.71H24.439V49.274H20.928V3.355ZM32.376,44.565H25.609V31.613H49.017v4.77c-.389-.025-.775-.06-1.17-.06A18.684,18.684,0,0,0,32.376,44.565Zm-16.538,4.71L14.01,40.621l4.577-.978v9.631ZM13.529,28.4a6.976,6.976,0,0,1,4.43-3.062c.2-.044.417-.067.628-.091v7.179l-6.037,1.292a7.055,7.055,0,0,1,.978-5.317Zm1.3-5.858a3.538,3.538,0,0,1,1.182-6.418,3.438,3.438,0,0,1,2.576.5V22.53a3.323,3.323,0,0,1-1.115.5A3.476,3.476,0,0,1,14.829,22.537ZM3.591,13.96l15-3.206V14a5.716,5.716,0,0,0-3.063-.188,5.812,5.812,0,0,0-3.69,2.551,5.908,5.908,0,0,0,1.722,8.143c.1.062.2.108.3.165A9.415,9.415,0,0,0,10.261,34.2l.485,2.305,7.841-1.678v2.408l-7.355,1.573,2.211,10.466H11.051ZM22.1,58.694H6.884a3.532,3.532,0,0,1,0-7.065H22.1Zm2.341-2.355V53.984H29.18c-.025.391-.06.779-.06,1.177s.035.787.06,1.177ZM47.846,71.645A16.484,16.484,0,1,1,64.231,55.161,16.453,16.453,0,0,1,47.846,71.645ZM71.035,13.96,64.248,46.088a18.878,18.878,0,0,0-8.209-7.84V10.754Zm-19.677-5.9H44.335V5.71h7.022Zm0,4.71H44.335V10.419h7.022Zm0,4.71H44.335V15.129h7.022Zm0,4.71H44.335V19.839h7.022Zm0,4.71H44.335V24.548h7.022Zm16.415-8.826L60.9,16.608l.487-2.3,6.869,1.469ZM66.8,22.685,59.93,21.215l.487-2.3,6.869,1.469Zm-.974,4.607-6.868-1.469.487-2.3,6.868,1.469ZM64.853,31.9l-6.869-1.469.487-2.3,6.869,1.469ZM57.01,35.036l.487-2.3L64.366,34.2l-.487,2.3Z" transform="translate(-0.813 -1)" fill="#358ed7"/>
</svg>
