<svg xmlns="http://www.w3.org/2000/svg" width="67.829" height="64.06" viewBox="0 0 67.829 64.06">
  <g id="identification-parade" transform="translate(1.251 0.75)">
    <path id="Path_2088" data-name="Path 2088" d="M328.859,282.523a7.473,7.473,0,0,1,.695.614,7.327,7.327,0,0,1,1.721,2.716h13.159a4.4,4.4,0,0,0,4.258-3.329Zm0,0" transform="translate(-286.898 -246.039)" fill="none" stroke="#358ed7" stroke-width="2.5"/>
    <path id="Path_2089" data-name="Path 2089" d="M206.259,34.9c.141-.141.289-.274.439-.4v-7.02a4.4,4.4,0,0,0-3.4,4.276v6.112Zm0,0" transform="translate(-177.354 -23.535)" fill="none" stroke="#358ed7" stroke-width="2.5"/>
    <path id="Path_2090" data-name="Path 2090" d="M290.529.5H263.322a2.415,2.415,0,0,0-2.415,2.415V9.253a7.594,7.594,0,0,1,.827-.047,7.371,7.371,0,0,1,5.211,12.583l-3.734,3.734a7.336,7.336,0,0,1,1.776,4.24,7.432,7.432,0,0,1,2.841,2.775h22.7a2.416,2.416,0,0,0,2.415-2.415V2.915A2.415,2.415,0,0,0,290.529.5Zm-13.6,4.438a4.453,4.453,0,1,1-4.453,4.453,4.453,4.453,0,0,1,4.453-4.453Zm7.78,21.188a1.974,1.974,0,0,1-1.973,1.973H271.119a1.973,1.973,0,0,1-1.973-1.973V18.9a3.9,3.9,0,0,1,3.9-3.9H280.8a3.9,3.9,0,0,1,3.9,3.9Zm0,0" transform="translate(-227.616)" fill="none" stroke="#358ed7" stroke-width="2.5"/>
    <path id="Path_2091" data-name="Path 2091" d="M36.255,120.318a3.425,3.425,0,0,0-4.844,0l1.038-1.037a3.425,3.425,0,0,0-4.844-4.843l8.933-8.933a3.425,3.425,0,0,0-4.843-4.843L17.223,115.134l-6.317,6.317-.092-.118,4.423-7.12a4.661,4.661,0,0,0-.631-5.474,2.67,2.67,0,0,0-4.343.5L4.59,118.373C1.051,123.222.206,129.338.009,132.345a3.942,3.942,0,0,0,1.148,3.044l12,12a3.946,3.946,0,0,0,3.589,1.075l1.783-.369a19.219,19.219,0,0,0,9.7-5.23l11.633-11.629a3.425,3.425,0,1,0-4.843-4.843l1.234-1.234a3.425,3.425,0,0,0,0-4.844Zm0,0" transform="translate(0 -86.507)" fill="none" stroke="#358ed7" stroke-width="2.5"/>
  </g>
</svg>
