<svg xmlns="http://www.w3.org/2000/svg" width="70.721" height="69.011" viewBox="0 0 70.721 69.011">
  <g id="template" transform="translate(0 0)">
    <path id="Path_2092" data-name="Path 2092" d="M64,128h2.355v2.355H64Zm0,0" transform="translate(-54.581 -110.225)" fill="#358ed7"/>
    <path id="Path_2093" data-name="Path 2093" d="M96,128h2.355v2.355H96Zm0,0" transform="translate(-82.327 -110.225)" fill="#358ed7"/>
    <path id="Path_2094" data-name="Path 2094" d="M128,128h2.355v2.355H128Zm0,0" transform="translate(-109.769 -110.225)" fill="#358ed7"/>
    <path id="Path_2095" data-name="Path 2095" d="M67.4,51.018l1.541-2.632-.849-.828a33.55,33.55,0,0,0,2.628-13.051,34.023,34.023,0,0,0-7.985-21.832V9.681l-5.7-8.348-2.76,4.041A35.8,35.8,0,0,0,35.36,0,35.394,35.394,0,0,0,7.432,13.357H4.562v4.2A33.86,33.86,0,0,0,0,34.506C0,53.532,15.861,69.012,35.36,69.012a35.855,35.855,0,0,0,13.373-2.566l.847.828,2.7-1.5c.259.116.519.223.78.318l.819,2.922h6.3L61,66.09q.392-.143.78-.318l2.7,1.5,4.456-4.35L67.4,60.292c.119-.252.228-.507.326-.763l3-.8V52.579l-2.994-.8c-.1-.256-.208-.511-.326-.763Zm1.039-16.512a31.386,31.386,0,0,1-2.1,11.341l-1.857-1.812-1.748.973V16.414a31.766,31.766,0,0,1,5.7,18.092ZM46.665,51.018c-.119.252-.228.507-.326.763l-2.994.8v.849H8.585q-.932-1.252-1.742-2.592V24.488H51.33v20.52l-1.748-.973-4.456,4.35Zm6.945-39.886h2.281V42.3H53.88l-.269.961Zm4.563,0h2.281V43.259l-.269-.961H58.173ZM59.464,8.9H54.6l2.431-3.558ZM35.36,2.226a33.487,33.487,0,0,1,17.647,5L51.329,9.681v3.677H10.378A33.134,33.134,0,0,1,35.36,2.226ZM51.329,15.583v6.679H6.844V15.583ZM4.562,22.75V46.262a31.433,31.433,0,0,1,0-23.513Zm30.8,44.036A33.349,33.349,0,0,1,10.4,55.655H43.345V58.73l2.994.8c.1.256.208.511.326.763l-1.541,2.632,1.858,1.814A33.62,33.62,0,0,1,35.36,66.786Zm33.079-9.754-2.5.668-.184.584a8.793,8.793,0,0,1-.652,1.524l-.295.541,1.289,2.2-2,1.948-2.257-1.257-.553.285a9.274,9.274,0,0,1-1.564.636l-.6.18-.687,2.441h-2.82l-.686-2.441-.6-.18a9.275,9.275,0,0,1-1.564-.636l-.553-.285L49.964,64.5l-2-1.948,1.289-2.2-.295-.541a8.708,8.708,0,0,1-.652-1.524l-.184-.584-2.5-.668V54.278l2.5-.668.184-.584a8.793,8.793,0,0,1,.652-1.524l.295-.541-1.289-2.2,2-1.948,2.257,1.257.553-.285a9.275,9.275,0,0,1,1.564-.636l.6-.18.687-2.441h2.82l.686,2.441.6.18a9.276,9.276,0,0,1,1.564.636l.553.285L64.1,46.81l2,1.948-1.289,2.2.295.541a8.708,8.708,0,0,1,.652,1.524l.184.584,2.5.668Zm0,0" transform="translate(0 0)" fill="#358ed7"/>
    <path id="Path_2096" data-name="Path 2096" d="M359.065,352a7.065,7.065,0,1,0,7.065,7.065A7.071,7.071,0,0,0,359.065,352Zm0,11.774a4.71,4.71,0,1,1,4.71-4.71A4.714,4.714,0,0,1,359.065,363.774Zm0,0" transform="translate(-302.473 -304.182)" fill="#358ed7"/>
    <path id="Path_2097" data-name="Path 2097" d="M87.548,192H64v11.774H87.548Zm-2.355,9.419H66.355v-7.064H85.193Zm0,0" transform="translate(-54.581 -165.583)" fill="#358ed7"/>
    <path id="Path_2098" data-name="Path 2098" d="M240,192h15.306v2.355H240Zm0,0" transform="translate(-206.073 -165.337)" fill="#358ed7"/>
    <path id="Path_2099" data-name="Path 2099" d="M240,224h15.306v2.355H240Zm0,0" transform="translate(-206.073 -192.893)" fill="#358ed7"/>
    <path id="Path_2100" data-name="Path 2100" d="M328,256h2.355v2.355H328Zm0,0" transform="translate(-281.283 -220.45)" fill="#358ed7"/>
    <path id="Path_2101" data-name="Path 2101" d="M240,256h10.6v2.355H240Zm0,0" transform="translate(-205.968 -220.45)" fill="#358ed7"/>
    <path id="Path_2102" data-name="Path 2102" d="M64,299.774H80.484V288H64Zm2.355-9.419H78.129v7.065H66.355Zm0,0" transform="translate(-54.581 -248.374)" fill="#358ed7"/>
    <path id="Path_2103" data-name="Path 2103" d="M192,299.774h16.484V288H192Zm2.355-9.419h11.774v7.065H194.355Zm0,0" transform="translate(-164.882 -248.374)" fill="#358ed7"/>
  </g>
</svg>
