<svg xmlns="http://www.w3.org/2000/svg" width="18.458" height="18.824" viewBox="0 0 18.458 18.824">
  <path id="Instagram" d="M16.264,18.823H2.194A2.216,2.216,0,0,1,0,16.591V2.232A2.216,2.216,0,0,1,2.194,0h14.07a2.216,2.216,0,0,1,2.194,2.232V16.591A2.216,2.216,0,0,1,16.264,18.823ZM1.731,7.647v8.824a.583.583,0,0,0,.577.588H16.151a.583.583,0,0,0,.577-.588V7.647H14.421a3.084,3.084,0,0,1,.445,1.786A5.671,5.671,0,0,1,9.25,15.146,5.671,5.671,0,0,1,3.635,9.434a3.628,3.628,0,0,1,.4-1.786ZM9.25,5.822A3.612,3.612,0,1,0,12.8,9.434,3.585,3.585,0,0,0,9.25,5.822Zm4.594-3.469a.583.583,0,0,0-.577.589V4.706a.583.583,0,0,0,.577.588h1.73a.583.583,0,0,0,.577-.588V2.941a.583.583,0,0,0-.577-.589Z" fill="#d3d5d6"/>
</svg>
