<svg viewBox="0 0 38.118 45.297">
  <path id="ic_rotate_left_24px" d="M11.344,19.018,7.97,15.62a18.956,18.956,0,0,0-3.9,9.308H8.9A14.2,14.2,0,0,1,11.344,19.018ZM8.9,29.714H4.07a18.918,18.918,0,0,0,3.876,9.308l3.374-3.4A14.346,14.346,0,0,1,8.9,29.714Zm2.417,12.73A18.961,18.961,0,0,0,20.653,46.3V41.439a14.151,14.151,0,0,1-5.886-2.465l-3.446,3.47Zm14.118-34.1V1L14.551,11.888,25.438,22.536V13.18a14.34,14.34,0,0,1,0,28.284V46.3a19.123,19.123,0,0,0,0-37.951Z" transform="translate(-4.07 -1)" fill="#fff"/>
</svg>
