<svg id="Layer_2" data-name="Layer 2" xmlns="http://www.w3.org/2000/svg" xmlns:xlink="http://www.w3.org/1999/xlink" width="429.532" height="210.063" viewBox="0 0 429.532 210.063">
  <defs>
    <linearGradient id="linear-gradient" x1="0.501" y1="1.189" x2="0.499" y2="-0.386" gradientUnits="objectBoundingBox">
      <stop offset="0" stop-color="#510394"/>
      <stop offset="0.12" stop-color="#4a0388"/>
      <stop offset="0.34" stop-color="#380367"/>
      <stop offset="0.63" stop-color="#1b0433"/>
      <stop offset="0.85" stop-color="#030408"/>
    </linearGradient>
    <linearGradient id="linear-gradient-2" x1="0.98" y1="0.319" x2="0.108" y2="0.567" gradientUnits="objectBoundingBox">
      <stop offset="0" stop-color="#4e9cff"/>
      <stop offset="1" stop-color="#176ad4"/>
    </linearGradient>
    <linearGradient id="linear-gradient-3" x1="-1.357" y1="0.299" x2="-1.525" y2="1.028" gradientUnits="objectBoundingBox">
      <stop offset="0" stop-color="#f2be3c"/>
      <stop offset="1" stop-color="#ffac00"/>
    </linearGradient>
    <linearGradient id="linear-gradient-4" x1="-2.607" y1="0.318" x2="-3.479" y2="0.567" xlink:href="#linear-gradient-2"/>
    <linearGradient id="linear-gradient-5" x1="-5.738" y1="0.299" x2="-5.907" y2="1.028" xlink:href="#linear-gradient-3"/>
    <linearGradient id="linear-gradient-6" x1="0.473" y1="0.289" x2="0.612" y2="1.377" gradientUnits="objectBoundingBox">
      <stop offset="0" stop-color="#510394"/>
      <stop offset="0.14" stop-color="#4a0388"/>
      <stop offset="0.4" stop-color="#380367"/>
      <stop offset="0.75" stop-color="#1b0433"/>
      <stop offset="1" stop-color="#030408"/>
    </linearGradient>
    <linearGradient id="linear-gradient-7" x1="0.297" y1="-0.265" x2="0.623" y2="0.645" xlink:href="#linear-gradient-2"/>
    <linearGradient id="linear-gradient-8" x1="0.429" y1="-0.856" x2="0.495" y2="0.407" xlink:href="#linear-gradient-3"/>
    <linearGradient id="linear-gradient-9" x1="0.396" y1="-0.503" x2="0.49" y2="0.424" xlink:href="#linear-gradient-2"/>
    <linearGradient id="linear-gradient-10" x1="0.734" y1="1.094" x2="0.279" y2="0.303" xlink:href="#linear-gradient-2"/>
    <linearGradient id="linear-gradient-11" x1="0.481" y1="-0.35" x2="0.506" y2="0.537" xlink:href="#linear-gradient-2"/>
    <linearGradient id="linear-gradient-12" x1="0.562" y1="0.22" x2="0.467" y2="1.072" xlink:href="#linear-gradient-2"/>
    <linearGradient id="linear-gradient-13" x1="0.179" y1="0.68" x2="0.963" y2="0.193" gradientUnits="objectBoundingBox">
      <stop offset="0" stop-color="#f2bfad"/>
      <stop offset="0.75" stop-color="#f2dad4"/>
    </linearGradient>
    <linearGradient id="linear-gradient-14" x1="0.183" y1="0.359" x2="0.897" y2="0.887" gradientUnits="objectBoundingBox">
      <stop offset="0" stop-color="#4e9cff"/>
      <stop offset="0.8" stop-color="#176ad4"/>
    </linearGradient>
    <linearGradient id="linear-gradient-15" x1="0.249" y1="0.49" x2="0.802" y2="0.514" gradientUnits="objectBoundingBox">
      <stop offset="0" stop-color="#4e9cff"/>
      <stop offset="0.99" stop-color="#176ad4"/>
    </linearGradient>
    <linearGradient id="linear-gradient-16" y1="0.5" x2="0.997" y2="0.5" gradientUnits="objectBoundingBox">
      <stop offset="0" stop-color="#f2bfad"/>
      <stop offset="1" stop-color="#f2dad4"/>
    </linearGradient>
  </defs>
  <g id="Layer_2-2" data-name="Layer 2" transform="translate(0 0)">
    <path id="Path_30478" data-name="Path 30478" d="M501.022,470.35c0,3.509-75.035,6.355-167.586,6.355S165.85,473.86,165.85,470.35,240.864,464,333.423,464,501.022,466.837,501.022,470.35Z" transform="translate(-95.307 -266.643)" opacity="0.1" fill="url(#linear-gradient)"/>
    <path id="Path_30479" data-name="Path 30479" d="M78.324,184.4c45.912,7.941,60.118-44.636,122.682-51.748,72.849-8.281,103.754,57.307,153.494,42.441,55.814-16.674,95.277-122.674,63.959-161.631-38.307-47.677-148.922,46.886-349.438,43.6C47.533,56.719,14.658,55.073,3.9,73.35-13.079,102.185,27.891,175.672,78.324,184.4Z" transform="translate(-0.001 -0.007)" fill="#f9edff"/>
    <path id="Path_30480" data-name="Path 30480" d="M226.552,349.2c-1.735.451-8.315.187-7.056-3.058,1.4-3.611,5.1-.455,6.725,1.544a44.7,44.7,0,0,1-.681-8.179c-1.182-1.425-3.679-10.451,1.238-10,6.448.587.736,9.132-.749,10.1a41.242,41.242,0,0,0,1.085,9.783c.2-2.276,2.467-8.745,5.483-6.461,4.372,3.309-3.994,7.3-5.266,7.231a12.361,12.361,0,0,0,1.591,3.471c.485.693,1.021,1.5,1.574,2.369l.03.03c.281-2.395,2.518-8.545,5.47-6.312,4.083,3.092-2.939,6.78-4.925,7.2a56.727,56.727,0,0,1,3.479,6.495c.136-2.165,4.381-6.584,6.065-4.058.94,1.412-4.032,6.006-5.674,4.977a13.162,13.162,0,0,1,1.306,5.955c-.072.574-.179,1.276-.3,1.986,1.165-1.276,5.364-5.593,6.614-2.258,1.034,2.765-2.429,4.368-3.883,4.368a4.824,4.824,0,0,1-2.824-1.548c-.064.4-.136.808-.208,1.225-.587,3.4-1.276,7.5-1.08,9.962.991-1.922,5.419-9.936,8-4.781,1.319,2.637-2.429,4.853-3.883,5.338a10.01,10.01,0,0,1-4.062-.1,4.3,4.3,0,0,0,.166.753,28.594,28.594,0,0,0,2.884,5.768.247.247,0,0,1-.068.336.233.233,0,0,1-.136.043.238.238,0,0,1-.2-.111,31.237,31.237,0,0,1-2.463-4.615c-1.144-.145-5.53-.744-6.806-1.587-1.459-.97-4.066-4.16-1.944-5.338,3.284-1.825,6.729,3.024,8.235,5.53-.561-1.884-.064-5.649.519-9.183-1.174.353-4.994-.332-6.325-1.221-1.455-.97-3.968-3.484-2.429-4.853,3.862-3.428,7.937,3.828,8.839,5.58.089-.549.183-1.093.276-1.616.242-1.412.472-2.744.6-3.752a12.985,12.985,0,0,0-1.319-5.861,14.888,14.888,0,0,1-6.206.553c-3.4-.485-5.1-3.131-3.883-4.368,2.127-2.127,8.333,2.254,9.94,3.445a53.59,53.59,0,0,0-3.862-7.231c-1.978.455-9.868.289-8.8-2.846s5.1-1.025,7.478.812l-.587-.851A14.418,14.418,0,0,1,226.552,349.2Z" transform="translate(-126.043 -189.341)" fill="url(#linear-gradient-2)"/>
    <path id="Path_30481" data-name="Path 30481" d="M266.378,406.468c4.075-1.633,5.07,4.606,5.287,6.648a23.935,23.935,0,0,0,.851-9.566,12.13,12.13,0,0,1-4.679-.966c-1.944-.974-3.143-4.862-1.459-5.342,2.828-.808,5.317,4.1,6.074,5.763-.064-.374-.145-.74-.238-1.089a42.957,42.957,0,0,1-1.276-8.082,16.353,16.353,0,0,1-4.088-.481c-1.455-.485-3.922-4.287-1.94-4.853,2.726-.783,5.142,3.135,5.989,4.708a27.949,27.949,0,0,1,.468-7.86,19.23,19.23,0,0,1-.634-4.13c0-1.944,2.254-5.763,4.368-3.883,3.866,3.433-1.927,7.448-3.313,8.333a28.318,28.318,0,0,0-.4,7.656c.851-2.186,4.373-10.047,8.575-6.265,1.612,1.455-1.944,4.857-4.368,5.827a13.877,13.877,0,0,1-4.173.97,42.813,42.813,0,0,0,1.25,7.945,12.784,12.784,0,0,1,.272,1.276c.919-1.854,5.2-9.749,9.932-6.312,1.961,1.429-1.944,4.853-3.883,5.827-1.667.829-5.062.876-5.989.872a24.539,24.539,0,0,1-.851,9.566c1.429-2.156,5.6-7.694,8.766-4.13,1.88,2.127-2.977,3.909-4.368,4.368a21.1,21.1,0,0,1-4.645.557,10.568,10.568,0,0,1-2.727,4.73.25.25,0,0,1-.153.055.238.238,0,0,1-.187-.089.243.243,0,0,1,.03-.34,10.036,10.036,0,0,0,2.6-4.517,24.512,24.512,0,0,1-3.658-1.85C266.378,410.836,264.123,407.365,266.378,406.468Z" transform="translate(-151.807 -216.55)" fill="url(#linear-gradient-3)"/>
    <path id="Path_30482" data-name="Path 30482" d="M244.492,474.345h22.088a.243.243,0,0,0,.242-.243.238.238,0,0,0-.242-.242H244.492a.242.242,0,0,0-.242.242A.247.247,0,0,0,244.492,474.345Z" transform="translate(-140.36 -272.309)" fill="#7500b2"/>
    <path id="Path_30483" data-name="Path 30483" d="M226.232,474.345h5.1a.247.247,0,0,0,.242-.242.243.243,0,0,0-.242-.242h-5.1a.242.242,0,0,0-.242.242A.247.247,0,0,0,226.232,474.345Z" transform="translate(-129.867 -272.309)" fill="#7500b2"/>
    <path id="Path_30484" data-name="Path 30484" d="M815.14,337.34c-1.9.493-9.1.2-7.724-3.347,1.531-3.947,5.61-.5,7.363,1.7a48.843,48.843,0,0,1-.749-8.954c-1.276-1.557-4.028-11.433,1.357-10.944,7.056.642.808,9.991-.817,11.059a45.091,45.091,0,0,0,1.182,10.71c.217-2.493,2.7-9.57,6-7.074,4.785,3.62-4.372,7.992-5.759,7.92a13.573,13.573,0,0,0,1.735,3.8c.532.757,1.119,1.638,1.727,2.59l.03.034c.31-2.62,2.756-9.358,5.985-6.908,4.47,3.382-3.216,7.418-5.389,7.877a62.233,62.233,0,0,1,3.828,7.1c.149-2.365,4.794-7.205,6.64-4.436,1.029,1.544-4.415,6.572-6.21,5.444,1.025,2.5,1.638,4.836,1.425,6.542-.077.63-.192,1.37-.323,2.174,1.276-1.408,5.865-6.121,7.231-2.471,1.136,3.024-2.654,4.781-4.253,4.781-1.246,0-2.552-1.182-3.084-1.7-.077.425-.153.885-.23,1.34-.642,3.722-1.412,8.2-1.187,10.9,1.084-2.105,5.955-10.872,8.749-5.236,1.446,2.892-2.654,5.313-4.253,5.844a11.109,11.109,0,0,1-4.445-.111,4.97,4.97,0,0,0,.183.825,31.5,31.5,0,0,0,3.156,6.312.268.268,0,0,1-.072.366.281.281,0,0,1-.149.047.268.268,0,0,1-.221-.119,34.184,34.184,0,0,1-2.714-5.062c-1.25-.157-6.061-.812-7.444-1.735-1.6-1.063-4.449-4.551-2.127-5.844,3.594-1.995,7.362,3.313,9.013,6.07-.617-2.059-.072-6.18.566-10.047-1.276.383-5.466-.362-6.92-1.336-1.6-1.059-4.343-3.828-2.658-5.308,4.224-3.756,8.685,4.2,9.668,6.1.1-.6.2-1.2.306-1.769.264-1.544.515-2.977.651-4.1.2-1.582-.392-3.862-1.442-6.414a16.163,16.163,0,0,1-6.806.6c-3.718-.532-5.6-3.424-4.253-4.781,2.305-2.305,9.115,2.471,10.876,3.773a58.633,58.633,0,0,0-4.2-7.911c-2.165.5-10.8.315-9.63-3.113s5.585-1.119,8.184.889l-.642-.94A15.83,15.83,0,0,1,815.14,337.34Z" transform="translate(-463.886 -181.467)" fill="url(#linear-gradient-4)"/>
    <path id="Path_30485" data-name="Path 30485" d="M858.754,400c4.458-1.782,5.529,5.045,5.785,7.282a26.214,26.214,0,0,0,.953-10.472,13.446,13.446,0,0,1-5.142-1.059c-2.127-1.059-3.437-5.317-1.6-5.84,3.092-.885,5.819,4.479,6.648,6.308-.072-.425-.162-.812-.264-1.2a47.154,47.154,0,0,1-1.382-8.839,17.77,17.77,0,0,1-4.47-.527c-1.6-.532-4.292-4.679-2.127-5.312,2.978-.851,5.632,3.432,6.555,5.155a30.739,30.739,0,0,1,.515-8.6,20.978,20.978,0,0,1-.693-4.521c0-2.127,2.467-6.308,4.781-4.253,4.228,3.76-2.127,8.154-3.628,9.119a30.331,30.331,0,0,0-.425,8.358c.949-2.39,4.785-10.991,9.383-6.852,1.765,1.587-2.127,5.312-4.781,6.38a15.109,15.109,0,0,1-4.568,1.063,47.443,47.443,0,0,0,1.37,8.7,12.5,12.5,0,0,1,.3,1.4c1.008-2.033,5.7-10.672,10.867-6.908,2.127,1.561-2.127,5.313-4.253,6.38-1.825.914-5.529.961-6.55.957a26.9,26.9,0,0,1-.915,10.472c1.561-2.361,6.121-8.422,9.592-4.521,2.055,2.314-3.271,4.275-4.781,4.781a25.834,25.834,0,0,1-5.1.608,11.708,11.708,0,0,1-2.978,5.172.263.263,0,0,1-.17.064.268.268,0,0,1-.17-.472,11.093,11.093,0,0,0,2.846-4.943,27.508,27.508,0,0,1-4-2.025C858.754,404.784,856.282,400.986,858.754,400Z" transform="translate(-492.106 -211.229)" fill="url(#linear-gradient-5)"/>
    <path id="Path_30486" data-name="Path 30486" d="M834.733,474.279h24.185a.268.268,0,1,0,0-.532H834.733a.268.268,0,1,0,0,.532Z" transform="translate(-479.51 -272.243)" fill="#7500b2"/>
    <path id="Path_30487" data-name="Path 30487" d="M814.834,474.282h5.58a.268.268,0,0,0,0-.532h-5.58a.268.268,0,0,0,0,.532Z" transform="translate(-468.114 -272.246)" fill="#7500b2"/>
    <path id="Path_30488" data-name="Path 30488" d="M507.223,101.316a5.819,5.819,0,0,1-5.814-5.819V71.877a31.654,31.654,0,0,0-63.308,0V95.5a5.819,5.819,0,1,1-11.633,0V71.877a43.286,43.286,0,1,1,86.573,0l0,23.619A5.819,5.819,0,0,1,507.223,101.316Z" transform="translate(-245.071 -16.432)" fill="#d7bfdd"/>
    <rect id="Rectangle_24649" data-name="Rectangle 24649" width="125.962" height="125.962" rx="52.63" transform="translate(161.975 76.091)" fill="url(#linear-gradient-6)"/>
    <path id="Path_30489" data-name="Path 30489" d="M515.93,316.179H498.491A2.629,2.629,0,0,1,495.9,313.1l3.509-20.187a16.061,16.061,0,1,1,15.61,0l3.492,20.17a2.629,2.629,0,0,1-2.586,3.075Z" transform="translate(-282.246 -151.033)" fill="#fff"/>
    <path id="Path_30490" data-name="Path 30490" d="M350.414,267.722l-35.542-8.562-35.542,8.562s-3.7,35.231,4.253,51.1,26.588,32.148,31.288,32.148,23.373-16.3,31.305-32.165S350.414,267.722,350.414,267.722Z" transform="translate(-160.026 -148.93)" fill="url(#linear-gradient-7)"/>
    <path id="Path_30491" data-name="Path 30491" d="M320.3,352.829c-1.157,0-2.977-.851-5.389-2.552a64.662,64.662,0,0,1-7.656-6.461c-6.333-6.142-11.74-13.207-14.823-19.379-2.914-5.823-4.428-15.155-4.509-27.741-.055-9.358.744-17.082.753-17.158a.626.626,0,0,1,.476-.544l30.986-7.465a.706.706,0,0,1,.3,0l30.986,7.465a.625.625,0,0,1,.476.544c0,.077.808,7.822.753,17.158-.081,12.586-1.595,21.918-4.509,27.741-3.084,6.172-8.507,13.237-14.823,19.379a64.654,64.654,0,0,1-7.656,6.461C323.26,351.97,321.46,352.829,320.3,352.829ZM289.9,280.095c-.166,1.761-.753,8.588-.7,16.588.076,12.212,1.591,21.608,4.377,27.175,3.024,6.053,8.337,12.99,14.572,19.043,5.861,5.683,10.553,8.656,12.161,8.656s6.3-2.977,12.161-8.656c6.236-6.053,11.548-12.99,14.572-19.043,2.786-5.568,4.3-14.964,4.377-27.175.051-8.005-.536-14.832-.7-16.588L320.3,272.783Z" transform="translate(-165.457 -156.029)" fill="#fff"/>
    <rect id="Rectangle_24650" data-name="Rectangle 24650" width="109.454" height="44.644" rx="22.322" transform="translate(245.377 157.409)" fill="url(#linear-gradient-8)"/>
    <path id="Path_30492" data-name="Path 30492" d="M740.553,414.18H699.8a2.565,2.565,0,0,1,0-5.13h40.748a2.565,2.565,0,1,1,0,5.13Z" transform="translate(-400.673 -235.065)" fill="#fff"/>
    <path id="Path_30493" data-name="Path 30493" d="M740.553,439.9H699.8a2.565,2.565,0,0,1,0-5.13h40.748a2.565,2.565,0,1,1,0,5.13Z" transform="translate(-400.673 -249.845)" fill="#fff"/>
    <path id="Path_30494" data-name="Path 30494" d="M610.987,425.057a6.219,6.219,0,1,1,6.21-6.219A6.218,6.218,0,0,1,610.987,425.057Zm0-8.754a2.552,2.552,0,1,0,2.552,2.552A2.552,2.552,0,0,0,610.987,416.3Z" transform="translate(-347.529 -237.117)" fill="#fff"/>
    <path id="Path_30495" data-name="Path 30495" d="M651.6,425.057a6.219,6.219,0,1,1,6.219-6.219A6.218,6.218,0,0,1,651.6,425.057Zm0-8.754a2.552,2.552,0,1,0,2.552,2.552A2.552,2.552,0,0,0,651.6,416.3Z" transform="translate(-370.871 -237.117)" fill="#fff"/>
    <path id="Path_30496" data-name="Path 30496" d="M754.307,418.711c-.328-.047.225.638-.081.987s-2.071,1.251-2.978.778-.493-1.663-.425-1.991a21.316,21.316,0,0,1,4.1-2.786,3.945,3.945,0,0,1,1.557.425c.2.213.208,0,.3.277s.187,1.391-.077,1.557A6.132,6.132,0,0,1,754.307,418.711Z" transform="translate(-431.377 -238.887)" fill="url(#linear-gradient-9)"/>
    <path id="Path_30497" data-name="Path 30497" d="M747.878,406.218a4.965,4.965,0,0,0,.425,2.79c.472.634.745,3.322.766,3.547s1.888-1.183,2.45-1.659,2-1.527,2.658-1.37.991.681.991.383a1.833,1.833,0,0,0-1.421-1.2c-.766-.089-.817.676-1.11.272a4.522,4.522,0,0,1-.766-2.012c-.089-.851.068-2.509-.476-2.6S747.878,406.218,747.878,406.218Z" transform="translate(-429.771 -232.378)" fill="url(#linear-gradient-10)"/>
    <path id="Path_30498" data-name="Path 30498" d="M672.683,421c-.5.825-.132,1.582.477,1.7s3.5.259,3.5.345-.17.268,0,.3,2.977.2,3.326.187.37-.272.37-.506.068-.608.068-1.344S672.683,421,672.683,421Z" transform="translate(-386.426 -241.932)" fill="url(#linear-gradient-11)"/>
    <path id="Path_30499" data-name="Path 30499" d="M676.747,410.25a8.115,8.115,0,0,1-.885,2.888,3.9,3.9,0,0,1-1.068,1.2c-.157.025-1.561-.285-1.821.472s4.007,1.871,4.449,1.7.532-.625,1.74-.625,1.446.064,1.548-.37-.306-3.564-.272-4.338S676.747,410.25,676.747,410.25Z" transform="translate(-386.722 -235.755)" fill="url(#linear-gradient-12)"/>
    <path id="Path_30500" data-name="Path 30500" d="M689.97,353.187c-.655.723-6.555,3.02-7.69,5.142s-1.212,6.614-1.182,8.63-.5,9.647,0,10.634,3.786,1.4,4.1,1.255.672-5.019.732-6.21-.3-8.056.8-9.6,2.735-2.829,3.526-2.829h13.59s2.8,1.548,2.977,2.186.425,5.44.774,7.231,1.153,7.039,1.582,7.418,3.951-.379,4-1.838-.591-5.806-.591-7.928.03-6.763-1.353-8.728-6.805-5.032-7.954-5.364S689.97,353.187,689.97,353.187Z" transform="translate(-391.272 -202.877)" fill="#192b59"/>
    <path id="Path_30501" data-name="Path 30501" d="M669.788,248.025a.94.94,0,0,0-.689.651,5.975,5.975,0,0,0-.378,1,9.4,9.4,0,0,0,2.008,2.748c.51.272,5.593,8.762,6.172,9.634s6.491,10.208,7,10.425,3.445-1.378,3.445-1.378-4.364-5.908-5.321-7.095-5.389-6.886-5.836-7.656-3.684-4.709-3.722-5.1-.026-2-.1-2.3a3.182,3.182,0,0,0-.978-1.433c-.426-.234-1.191-.476-1.489-.289S669.788,248.025,669.788,248.025Z" transform="translate(-384.283 -142.036)" fill="#f2dad4"/>
    <path id="Path_30502" data-name="Path 30502" d="M672.572,249.24c-.225.14.2.353.247.506a2.863,2.863,0,0,0,.319.851.426.426,0,0,0,.391.157c.153,0,.264-.566.153-.851S672.874,249.053,672.572,249.24Z" transform="translate(-386.459 -143.208)" fill="url(#linear-gradient-13)"/>
    <path id="Path_30503" data-name="Path 30503" d="M707.5,297.9c-1.7.715-5.9,3.348-5.9,3.8s1.025,0,1.37,1,.974,7.758.4,9.732-2.778,8.97-2.276,9.136a49.29,49.29,0,0,0,7.7.97c1.6-.1,5.1-.668,5.725-1.17s1.323-10.077,2.284-10.442,2.722-.672,2.8-1.217.7-5.989-.132-6.895a11.058,11.058,0,0,0-3.756-2.514c-.778-.128-1.412-1.608-1.757-1.812a12.959,12.959,0,0,0-4.1-.974A10.851,10.851,0,0,0,707.5,297.9Z" transform="translate(-402.843 -170.971)" fill="url(#linear-gradient-14)"/>
    <path id="Path_30504" data-name="Path 30504" d="M737.924,321.88s-2.978,1.888-2.795,2.331a2.127,2.127,0,0,0,1.059.944.494.494,0,0,1,.208-.225c.957-.362,2.722-.672,2.8-1.216A3.134,3.134,0,0,0,737.924,321.88Z" transform="translate(-422.441 -184.973)" fill="url(#linear-gradient-15)"/>
    <path id="Path_30505" data-name="Path 30505" d="M717.18,298.1a8.4,8.4,0,0,1,2.127,2.9,6.526,6.526,0,0,1,.243,3.169c-.3.74-.553,1.276-.315,1.425a2.519,2.519,0,0,0,1.612.111c.481-.183,1.11-1.982,1.446-3.241s.459-3.981-.391-4.628-1.221-1.055-1.7-1.055A18.632,18.632,0,0,0,717.18,298.1Z" transform="translate(-412.131 -170.549)" fill="url(#linear-gradient-16)"/>
    <path id="Path_30506" data-name="Path 30506" d="M705.9,276.348c-1.072-.166-2.305,1.421-2.709,2.875a24.716,24.716,0,0,1-1.948,4.879,3.1,3.1,0,0,0,2.327,4.551c3.02.489,4.39-3.3,5.138-3.437s2.743,1.514,3.994.659,1.821-2.875.5-4.874-2-3.522-2.684-4.279a3.453,3.453,0,0,0-2.552-1.353A2.146,2.146,0,0,0,705.9,276.348Z" transform="translate(-402.769 -158.245)" fill="#e64d4e"/>
    <path id="Path_30507" data-name="Path 30507" d="M710.956,280.656c-.272,3.611-1.54,3-.71,4.772.455.97,1.838,3.432,4.313,3.828s2.727-3.828,2.6-4.585-1.735-4.211-2.6-4.462S711.019,279.75,710.956,280.656Z" transform="translate(-407.987 -160.903)" fill="#f2dad4"/>
    <path id="Path_30508" data-name="Path 30508" d="M727.519,322.831a50.083,50.083,0,0,0-2.352,7.316c0,.868-.162,8.179-.251,8.983s-.192,1.612-.659,1.808a2,2,0,0,0-1.586,1.833,4.435,4.435,0,0,0,1.642,3.143c.442.111,1.3.157,1.548-.294s0-1.476.536-1.476.94-.493.9-1.378-.6-1.433-.425-2.552,2.229-11.28,2.322-12.437a8.511,8.511,0,0,1,1.323-3.734c.553-.6.821-1.506.425-2.012s-.719.455-1.514.481S727.736,322.325,727.519,322.831Z" transform="translate(-415.286 -184.975)" fill="#f2dad4"/>
    <path id="Path_30509" data-name="Path 30509" d="M389.915,101.457h-2.552a1.063,1.063,0,0,1,0-2.127h2.552a1.063,1.063,0,0,1,0,2.127Z" transform="translate(-221.99 -57.083)" fill="#7500b2"/>
    <path id="Path_30510" data-name="Path 30510" d="M353.6,101.457h-5.279a1.063,1.063,0,0,1,0-2.127H353.6a1.063,1.063,0,1,1,0,2.127Zm-10.549,0h-5.27a1.063,1.063,0,1,1,0-2.127h5.27a1.063,1.063,0,0,1,0,2.127Z" transform="translate(-193.498 -57.083)" fill="#7500b2"/>
    <path id="Path_30511" data-name="Path 30511" d="M319.383,104.009a1.063,1.063,0,0,1-1.063-1.063v-2.552a1.063,1.063,0,0,1,1.063-1.063h2.552a1.063,1.063,0,1,1,0,2.127h-1.489v1.489A1.063,1.063,0,0,1,319.383,104.009Z" transform="translate(-182.925 -57.083)" fill="#7500b2"/>
    <path id="Path_30512" data-name="Path 30512" d="M319.383,161.314a1.063,1.063,0,0,1-1.063-1.063V155.5a1.063,1.063,0,1,1,2.127,0v4.747A1.063,1.063,0,0,1,319.383,161.314Zm0-9.489a1.063,1.063,0,0,1-1.063-1.063v-4.743a1.063,1.063,0,1,1,2.127,0v4.743A1.063,1.063,0,0,1,319.383,151.825Zm0-9.489a1.059,1.059,0,0,1-1.063-1.063V136.53a1.063,1.063,0,1,1,2.127,0v4.743a1.059,1.059,0,0,1-1.063,1.063Zm0-9.485a1.063,1.063,0,0,1-1.063-1.063v-4.743a1.063,1.063,0,0,1,2.127,0v4.743A1.063,1.063,0,0,1,319.383,132.85Zm0-9.489a1.063,1.063,0,0,1-1.063-1.063v-4.734a1.063,1.063,0,1,1,2.127,0v4.743A1.063,1.063,0,0,1,319.383,123.361Z" transform="translate(-182.925 -66.95)" fill="#7500b2"/>
    <path id="Path_30513" data-name="Path 30513" d="M319.383,232.679a1.063,1.063,0,0,1-1.063-1.063v-2.552a1.063,1.063,0,1,1,2.127,0v2.552A1.063,1.063,0,0,1,319.383,232.679Z" transform="translate(-182.925 -131.024)" fill="#7500b2"/>
    <path id="Path_30514" data-name="Path 30514" d="M707.411,198.04a1.059,1.059,0,0,1-1.063-1.063v-5.1a1.063,1.063,0,1,1,2.127,0v5.1A1.063,1.063,0,0,1,707.411,198.04Zm0-10.208a1.059,1.059,0,0,1-1.063-1.063v-5.1a1.063,1.063,0,1,1,2.127,0v5.1A1.063,1.063,0,0,1,707.411,187.832Zm0-10.208a1.059,1.059,0,0,1-1.063-1.063v-5.1a1.063,1.063,0,1,1,2.127,0v5.1A1.063,1.063,0,0,1,707.411,177.623Zm0-10.208a1.059,1.059,0,0,1-1.063-1.063v-5.1a1.063,1.063,0,1,1,2.127,0v5.1A1.063,1.063,0,0,1,707.411,167.415Zm0-10.208a1.059,1.059,0,0,1-1.063-1.063v-5.1a1.063,1.063,0,1,1,2.127,0v5.1A1.063,1.063,0,0,1,707.411,157.207Zm0-10.208a1.059,1.059,0,0,1-1.063-1.063v-5.1a1.063,1.063,0,1,1,2.127,0v5.1A1.063,1.063,0,0,1,707.411,147Zm0-10.208a1.059,1.059,0,0,1-1.063-1.063v-5.1a1.063,1.063,0,1,1,2.127,0v5.1A1.063,1.063,0,0,1,707.411,136.79Zm0-10.208a1.059,1.059,0,0,1-1.063-1.063v-5.1a1.063,1.063,0,1,1,2.127,0v5.1A1.063,1.063,0,0,1,707.411,126.582Zm0-10.208a1.059,1.059,0,0,1-1.063-1.063v-5.1a1.063,1.063,0,1,1,2.127,0v5.1A1.063,1.063,0,0,1,707.411,116.374Zm0-10.208a1.059,1.059,0,0,1-1.063-1.063v-3.883a1.063,1.063,0,0,1,.668-1.889h.4a1.063,1.063,0,0,1,1.063,1.063V105.1A1.063,1.063,0,0,1,707.411,106.165Zm-5.5-4.709h-5.1a1.063,1.063,0,0,1,0-2.127h5.1a1.063,1.063,0,0,1,0,2.127Zm-10.208,0h-5.1a1.063,1.063,0,0,1,0-2.127h5.1a1.063,1.063,0,1,1,0,2.127Zm-10.208,0h-5.1a1.063,1.063,0,0,1,0-2.127h5.1a1.063,1.063,0,0,1,0,2.127Zm-10.208,0h-5.1a1.063,1.063,0,0,1,0-2.127h5.1a1.063,1.063,0,0,1,0,2.127Zm-10.209,0h-5.1a1.063,1.063,0,0,1,0-2.127h5.1a1.063,1.063,0,1,1,0,2.127Z" transform="translate(-376.348 -57.083)" fill="#7500b2"/>
  </g>
</svg>
