<svg viewBox="0 0 53.443 53.442">
  <path id="Path_5061" data-name="Path 5061" d="M26.72,0A26.721,26.721,0,1,0,53.441,26.721,26.721,26.721,0,0,0,26.72,0Zm5.562,41.412q-2.063.814-3.291,1.24a8.683,8.683,0,0,1-2.855.428,5.689,5.689,0,0,1-3.884-1.219,3.934,3.934,0,0,1-1.382-3.092,11.232,11.232,0,0,1,.1-1.491c.07-.507.181-1.077.333-1.717l1.721-6.08c.152-.584.283-1.138.387-1.654a7.332,7.332,0,0,0,.154-1.432,2.205,2.205,0,0,0-.48-1.622,2.724,2.724,0,0,0-1.839-.455,4.826,4.826,0,0,0-1.369.2c-.464.143-.866.271-1.2.4l.455-1.873q1.69-.689,3.235-1.179a9.557,9.557,0,0,1,2.918-.493,5.583,5.583,0,0,1,3.827,1.2,3.983,3.983,0,0,1,1.344,3.113q0,.4-.093,1.4a9.339,9.339,0,0,1-.344,1.835l-1.712,6.062c-.14.486-.265,1.043-.378,1.665a8.8,8.8,0,0,0-.165,1.416,2.034,2.034,0,0,0,.541,1.647,3.026,3.026,0,0,0,1.871.439,5.426,5.426,0,0,0,1.416-.219,8.052,8.052,0,0,0,1.145-.385Zm-.3-24.607A4.087,4.087,0,0,1,29.1,17.918,4.129,4.129,0,0,1,26.2,16.8a3.553,3.553,0,0,1-1.206-2.7A3.589,3.589,0,0,1,26.2,11.4a4.1,4.1,0,0,1,2.9-1.124A4.054,4.054,0,0,1,31.979,11.4a3.644,3.644,0,0,1,0,5.4Z" transform="translate(0.002)" fill="#1468a7"/>
</svg>
