<svg xmlns="http://www.w3.org/2000/svg" xmlns:xlink="http://www.w3.org/1999/xlink" width="421.687" height="105.001" viewBox="0 0 421.687 105.001">
  <defs>
    <linearGradient id="linear-gradient" x1="0.5" x2="0.5" y2="1" gradientUnits="objectBoundingBox">
      <stop offset="0" stop-color="#f4f4f4"/>
      <stop offset="0.29" stop-color="#f9f9f9"/>
      <stop offset="1" stop-color="#fdfdfd"/>
    </linearGradient>
  </defs>
  <g id="Group_13088" data-name="Group 13088" transform="translate(-749.562 -633.562)">
    <path id="Path_1373" data-name="Path 1373" d="M462.441,137.3H45.246A2.253,2.253,0,0,1,43,135.055V34.546A2.253,2.253,0,0,1,45.246,32.3h417.2a2.253,2.253,0,0,1,2.246,2.246V135.055A2.253,2.253,0,0,1,462.441,137.3Z" transform="translate(706.562 601.262)" fill="url(#linear-gradient)"/>
    <path id="Path_1375" data-name="Path 1375" d="M386.5,55.373A20.762,20.762,0,0,0,370.1,47.4V57.619a10.287,10.287,0,0,1,8.984,5.166l-5.952,5.952h18.417V50.32Z" transform="translate(746.796 603.117)" fill="#1c3aa9"/>
    <path id="Path_1376" data-name="Path 1376" d="M381.921,71.178a10.525,10.525,0,0,1-8.984,5.166,10.248,10.248,0,0,1-8.647-4.6l5.84-5.84H351.6V84.317l5.278-5.278A20.705,20.705,0,0,0,389,78.815Z" transform="translate(744.52 605.395)" fill="#b3b3b3"/>
    <path id="Path_1377" data-name="Path 1377" d="M353.958,47.512l4.941,4.941a20.537,20.537,0,0,0-7.3,15.722h10.219a10.428,10.428,0,0,1,4.38-8.535l6.177,6.177V47.4l-18.417.112Z" transform="translate(744.52 603.117)" fill="#4388f2"/>
    <g id="Group_5275" data-name="Group 5275" transform="translate(1079.836 701.502)">
      <path id="Path_1378" data-name="Path 1378" d="M337.212,98.083a15.069,15.069,0,0,0-.112-2.358h1.235v1.46h.112a2.26,2.26,0,0,1,2.134-1.685h.337v1.348h-.449a2.035,2.035,0,0,0-1.909,1.8c0,.225-.112.449-.112.674v4.043H337.1V98.083h.112Z" transform="translate(-337.1 -92.468)" fill="#b3b3b3"/>
      <path id="Path_1379" data-name="Path 1379" d="M342.448,99.755a2.445,2.445,0,0,0,2.583,2.7,8.441,8.441,0,0,0,2.134-.337l.225,1.011a6.224,6.224,0,0,1-2.583.449,3.509,3.509,0,0,1-3.706-3.818c0-2.246,1.348-4.155,3.594-4.155,2.471,0,3.144,2.134,3.144,3.594v.674l-5.39-.112Zm4.043-.9c0-.9-.337-2.246-1.909-2.246a2.307,2.307,0,0,0-2.134,2.246Z" transform="translate(-336.608 -92.456)" fill="#b3b3b3"/>
      <path id="Path_1380" data-name="Path 1380" d="M356.186,103.356a7.11,7.11,0,0,1-2.807.449,4.982,4.982,0,0,1-5.278-5.39,5.276,5.276,0,0,1,5.5-5.615,6.67,6.67,0,0,1,2.471.449l-.337,1.123a5.483,5.483,0,0,0-2.134-.449c-2.471,0-4.155,1.572-4.155,4.38,0,2.583,1.46,4.267,4.043,4.267a6.645,6.645,0,0,0,2.246-.449Z" transform="translate(-335.747 -92.8)" fill="#b3b3b3"/>
      <path id="Path_1381" data-name="Path 1381" d="M358.683,100.287l-1.123,3.369H356.1L359.694,93.1h1.685l3.594,10.556h-1.46l-1.123-3.369Zm3.481-1.011-1.011-3.032a17.322,17.322,0,0,1-.561-1.909h0a12.267,12.267,0,0,1-.562,1.909l-1.011,3.032Z" transform="translate(-334.763 -92.763)" fill="#b3b3b3"/>
      <path id="Path_1382" data-name="Path 1382" d="M365.412,93.225A15.769,15.769,0,0,1,368,93a4.117,4.117,0,0,1,2.92.9,2.787,2.787,0,0,1,.9,2.246,3.382,3.382,0,0,1-.786,2.246,4.263,4.263,0,0,1-3.257,1.123,3.462,3.462,0,0,1-1.123-.112v4.267H365.3V93.225h.112Zm1.46,5.054A3.462,3.462,0,0,0,368,98.39c1.685,0,2.7-.786,2.7-2.246,0-1.348-1.011-2.021-2.471-2.021a3.493,3.493,0,0,0-1.235.112v4.043h-.112Z" transform="translate(-333.631 -92.775)" fill="#b3b3b3"/>
      <path id="Path_1383" data-name="Path 1383" d="M375.057,94.223H371.8V93.1h7.861v1.123H376.4v9.433h-1.348V94.223Z" transform="translate(-332.832 -92.763)" fill="#b3b3b3"/>
      <path id="Path_1384" data-name="Path 1384" d="M386.886,103.356a7.11,7.11,0,0,1-2.808.449,4.982,4.982,0,0,1-5.278-5.39,5.276,5.276,0,0,1,5.5-5.615,6.67,6.67,0,0,1,2.471.449l-.337,1.123a5.483,5.483,0,0,0-2.134-.449c-2.471,0-4.155,1.572-4.155,4.38,0,2.583,1.46,4.267,4.043,4.267a6.644,6.644,0,0,0,2.246-.449Z" transform="translate(-331.971 -92.8)" fill="#b3b3b3"/>
      <path id="Path_1385" data-name="Path 1385" d="M388.948,93.1v4.38h5.166V93.1h1.348v10.556h-1.348V98.715h-5.166v4.941H387.6V93.1Z" transform="translate(-330.888 -92.763)" fill="#b3b3b3"/>
      <path id="Path_1386" data-name="Path 1386" d="M398.471,100.287l-1.123,3.369H396L399.594,93.1h1.684l3.594,10.556h-1.46l-1.123-3.369Zm3.481-1.011-1.011-3.032a17.322,17.322,0,0,1-.561-1.909h0a12.27,12.27,0,0,1-.561,1.909l-1.011,3.032Z" transform="translate(-329.855 -92.763)" fill="#b3b3b3"/>
    </g>
    <g id="Group_5276" data-name="Group 5276" transform="translate(1078.039 721.717)">
      <path id="Path_1387" data-name="Path 1387" d="M335.5,110.912a11.587,11.587,0,0,1,2.134-.112,3.288,3.288,0,0,1,2.358.674,2.443,2.443,0,0,1,.786,1.8,2.371,2.371,0,0,1-.674,1.8,3.318,3.318,0,0,1-2.583.9,2.189,2.189,0,0,1-.9-.112v3.369H335.5v-8.31Zm1.011,4.155a2.189,2.189,0,0,0,.9.112c1.348,0,2.134-.674,2.134-1.8s-.786-1.685-2.021-1.685a2.217,2.217,0,0,0-1.011.112Z" transform="translate(-335.5 -110.8)" fill="#b3b3b3"/>
      <path id="Path_1388" data-name="Path 1388" d="M341.2,114.921v-1.909h1.011v1.235h0A1.789,1.789,0,0,1,343.9,112.9h.337v1.011H343.9a1.483,1.483,0,0,0-1.46,1.46v3.818h-1.123v-4.267Z" transform="translate(-334.799 -110.542)" fill="#b3b3b3"/>
      <path id="Path_1389" data-name="Path 1389" d="M346.248,111.576a.647.647,0,0,1-.674.674.674.674,0,0,1,0-1.348C345.911,110.79,346.248,111.127,346.248,111.576Zm-1.235,7.749v-6.064h1.123v6.064Z" transform="translate(-334.344 -110.79)" fill="#b3b3b3"/>
      <path id="Path_1390" data-name="Path 1390" d="M348.135,113l1.235,3.481a8.271,8.271,0,0,1,.449,1.572h0a13.619,13.619,0,0,1,.561-1.572L351.617,113h1.123l-2.358,6.064h-1.123L346.9,113Z" transform="translate(-334.098 -110.529)" fill="#b3b3b3"/>
      <path id="Path_1391" data-name="Path 1391" d="M356.431,119.1l-.112-.786h0a2.394,2.394,0,0,1-1.909.9,1.8,1.8,0,0,1-1.909-1.8c0-1.46,1.348-2.246,3.706-2.246v-.112a1.287,1.287,0,0,0-1.348-1.46,3.655,3.655,0,0,0-1.572.449l-.225-.786a3.878,3.878,0,0,1,2.021-.562c1.909,0,2.358,1.235,2.358,2.471v2.246a5.933,5.933,0,0,0,.112,1.46H356.43v.225Zm-.225-3.032c-1.235,0-2.583.225-2.583,1.348a.943.943,0,0,0,1.011,1.011,1.392,1.392,0,0,0,1.46-1.011c0-.112.112-.225.112-.337Z" transform="translate(-333.409 -110.566)" fill="#b3b3b3"/>
      <path id="Path_1392" data-name="Path 1392" d="M362.829,118.864a5.006,5.006,0,0,1-1.8.337A2.919,2.919,0,0,1,358,116.057a3.065,3.065,0,0,1,3.257-3.257,2.974,2.974,0,0,1,1.572.337l-.225.9a2.731,2.731,0,0,0-1.235-.337,2.128,2.128,0,0,0-2.134,2.358,2.036,2.036,0,0,0,2.134,2.246,2.159,2.159,0,0,0,1.348-.337Z" transform="translate(-332.732 -110.554)" fill="#b3b3b3"/>
      <path id="Path_1393" data-name="Path 1393" d="M364.148,113l1.348,3.594a6.905,6.905,0,0,1,.337,1.235h0c.112-.337.225-.786.337-1.235L367.4,113h1.123l-1.685,4.38c-.786,2.134-1.348,3.144-2.134,3.818a2.878,2.878,0,0,1-1.348.674l-.225-.9a3.113,3.113,0,0,0,1.011-.562,2.718,2.718,0,0,0,.9-1.235.392.392,0,0,1,.112-.225c0-.112,0-.112-.112-.337L362.8,113Z" transform="translate(-332.142 -110.529)" fill="#b3b3b3"/>
      <path id="Path_1394" data-name="Path 1394" d="M373.944,115v.786H370.8V115Z" transform="translate(-331.158 -110.283)" fill="#b3b3b3"/>
      <path id="Path_1395" data-name="Path 1395" d="M378.483,111.8H375.9v-.9h6.289v.9h-2.583v7.524h-1.123V111.8Z" transform="translate(-330.531 -110.788)" fill="#b3b3b3"/>
      <path id="Path_1396" data-name="Path 1396" d="M382.111,116.269a2,2,0,0,0,2.134,2.134,3.437,3.437,0,0,0,1.685-.337l.225.786a4.059,4.059,0,0,1-2.021.337,2.83,2.83,0,0,1-3.032-3.032,2.988,2.988,0,0,1,2.92-3.257c2.021,0,2.471,1.8,2.471,2.92v.561l-4.38-.112Zm3.257-.786a1.632,1.632,0,0,0-1.572-1.8c-1.123,0-1.572,1.011-1.685,1.8Z" transform="translate(-329.891 -110.542)" fill="#b3b3b3"/>
      <path id="Path_1397" data-name="Path 1397" d="M387.1,114.921v-1.909h1.011v1.235h0A1.789,1.789,0,0,1,389.8,112.9h.337v1.011H389.8a1.483,1.483,0,0,0-1.46,1.46v3.818h-1.123v-4.267Z" transform="translate(-329.153 -110.542)" fill="#b3b3b3"/>
      <path id="Path_1398" data-name="Path 1398" d="M390.825,114.7v-1.685h1.011v1.011h0a2.118,2.118,0,0,1,1.909-1.123,1.687,1.687,0,0,1,1.684,1.235h0a4.882,4.882,0,0,1,.674-.786,2.408,2.408,0,0,1,1.348-.449c.786,0,2.021.562,2.021,2.7v3.594h-1.123v-3.481c0-1.123-.449-1.909-1.348-1.909a1.451,1.451,0,0,0-1.348,1.011,4.863,4.863,0,0,0-.112.561v3.818h-1.123v-3.706c0-1.011-.449-1.685-1.235-1.685a1.444,1.444,0,0,0-1.348,1.123.842.842,0,0,0-.112.562v3.706H390.6V114.7Z" transform="translate(-328.723 -110.542)" fill="#b3b3b3"/>
      <path id="Path_1399" data-name="Path 1399" d="M400.112,117.954a2.809,2.809,0,0,0,1.46.449c.786,0,1.235-.449,1.235-.9,0-.561-.337-.786-1.123-1.123-1.123-.337-1.572-1.011-1.572-1.684,0-1.011.786-1.8,2.134-1.8a3.984,3.984,0,0,1,1.46.337l-.225.786a2.731,2.731,0,0,0-1.235-.337c-.674,0-1.011.337-1.011.786s.337.786,1.123,1.011c1.011.449,1.572.9,1.572,1.8,0,1.123-.786,1.8-2.246,1.8a2.706,2.706,0,0,1-1.685-.449Z" transform="translate(-327.566 -110.542)" fill="#b3b3b3"/>
    </g>
    <g id="Group_5277" data-name="Group 5277" transform="translate(825.926 677.92)">
      <path id="Path_1400" data-name="Path 1400" d="M112.685,72.4V85.764H111V72.4Z" transform="translate(-111 -71.726)" fill="#4c4a4b"/>
      <path id="Path_1401" data-name="Path 1401" d="M117.332,72.2a21.482,21.482,0,0,1-1.909,4.717l-1.123.112a26.433,26.433,0,0,0,1.123-4.717Z" transform="translate(-110.594 -71.751)" fill="#4c4a4b"/>
      <path id="Path_1402" data-name="Path 1402" d="M118.012,78.408a18.221,18.221,0,0,0-.112-2.583h1.572l.112,1.572h.112a3.435,3.435,0,0,1,3.032-1.8,2.7,2.7,0,0,1,2.7,1.909h0a4,4,0,0,1,1.123-1.235,3.238,3.238,0,0,1,2.134-.674c1.235,0,3.144.786,3.144,4.155V85.37h-1.684v-5.5c0-1.8-.674-2.92-2.134-2.92a2.308,2.308,0,0,0-2.134,2.471V85.37h-1.685V79.643c0-1.572-.674-2.7-2.021-2.7a2.285,2.285,0,0,0-2.134,1.8,2.189,2.189,0,0,0-.112.9v5.84h-1.909Z" transform="translate(-110.151 -71.333)" fill="#4c4a4b"/>
      <path id="Path_1403" data-name="Path 1403" d="M136.525,78.408a18.218,18.218,0,0,0-.112-2.583h1.572L138.1,77.4h0a3.487,3.487,0,0,1,3.144-1.8c1.348,0,3.369.786,3.369,4.043V85.37h-1.8v-5.5c0-1.572-.562-2.808-2.246-2.808a2.528,2.528,0,0,0-2.358,1.8,1.911,1.911,0,0,0-.112.786v5.84h-1.8V78.407h.225Z" transform="translate(-107.888 -71.333)" fill="#4c4a4b"/>
      <path id="Path_1404" data-name="Path 1404" d="M155.133,80.541c0,3.594-2.471,5.054-4.829,5.054-2.583,0-4.6-1.909-4.6-4.941,0-3.257,2.134-5.054,4.717-5.054A4.6,4.6,0,0,1,155.133,80.541Zm-7.636.112c0,2.134,1.235,3.706,2.92,3.706s2.92-1.572,2.92-3.706c0-1.685-.786-3.706-2.92-3.706S147.5,78.744,147.5,80.654Z" transform="translate(-106.732 -71.333)" fill="#4c4a4b"/>
      <path id="Path_1405" data-name="Path 1405" d="M158.244,73.3v2.808h2.471v1.348h-2.471v5.166c0,1.235.337,1.909,1.348,1.909.449,0,.786-.112,1.011-.112l.112,1.348a5.206,5.206,0,0,1-1.572.225,2.313,2.313,0,0,1-1.909-.786,3.816,3.816,0,0,1-.674-2.471V77.455H155.1V76.108h1.46V73.749Z" transform="translate(-105.576 -71.616)" fill="#4c4a4b"/>
      <path id="Path_1406" data-name="Path 1406" d="M171.064,85.395l-.112-1.235h-.112a3.546,3.546,0,0,1-2.92,1.46A2.741,2.741,0,0,1,165,82.812c0-2.358,2.021-3.594,5.84-3.594v-.225a1.988,1.988,0,0,0-2.134-2.246,4.528,4.528,0,0,0-2.471.674l-.449-1.123a5.478,5.478,0,0,1,3.144-.9c2.92,0,3.706,2.021,3.706,3.931v3.594a15.815,15.815,0,0,0,.112,2.358l-1.685.112Zm-.225-4.829c-1.909,0-4.043.337-4.043,2.134a1.589,1.589,0,0,0,1.685,1.685,2.527,2.527,0,0,0,2.358-1.572,1.012,1.012,0,0,0,.112-.562l-.112-1.685Z" transform="translate(-104.358 -71.357)" fill="#4c4a4b"/>
      <path id="Path_1407" data-name="Path 1407" d="M178.012,78.757a25.4,25.4,0,0,0-.112-3.032h1.572l.112,1.909h.112a2.835,2.835,0,0,1,2.7-2.134c.225,0,.337,0,.449.112V77.3c-.225,0-.337-.112-.562-.112a2.424,2.424,0,0,0-2.358,2.246c0,.225-.112.562-.112.786v5.166h-1.8Z" transform="translate(-102.771 -71.345)" fill="#4c4a4b"/>
      <path id="Path_1408" data-name="Path 1408" d="M192.333,80.541c0,3.594-2.471,5.054-4.829,5.054-2.583,0-4.6-1.909-4.6-4.941,0-3.257,2.134-5.054,4.717-5.054A4.6,4.6,0,0,1,192.333,80.541Zm-7.636.112c0,2.134,1.235,3.706,2.92,3.706s2.92-1.572,2.92-3.706c0-1.685-.786-3.706-2.92-3.706S184.7,78.744,184.7,80.654Z" transform="translate(-102.156 -71.333)" fill="#4c4a4b"/>
      <path id="Path_1409" data-name="Path 1409" d="M193.2,85.838c0-.674.112-1.685.112-2.471V71.8H195v6.064h0a3.4,3.4,0,0,1,3.257-1.8c2.358,0,4.043,2.021,4.043,4.941,0,3.481-2.134,5.166-4.267,5.166a3.661,3.661,0,0,1-3.257-1.8h-.112l-.112,1.572H193.2Zm1.8-3.818a1.424,1.424,0,0,0,.112.674,2.635,2.635,0,0,0,2.583,2.021c1.8,0,2.92-1.46,2.92-3.706,0-1.909-1.011-3.594-2.808-3.594a2.741,2.741,0,0,0-2.7,2.134c0,.225-.112.449-.112.674v1.8Z" transform="translate(-100.889 -71.8)" fill="#4c4a4b"/>
      <path id="Path_1410" data-name="Path 1410" d="M212.133,80.541c0,3.594-2.471,5.054-4.829,5.054-2.583,0-4.6-1.909-4.6-4.941,0-3.257,2.134-5.054,4.717-5.054A4.6,4.6,0,0,1,212.133,80.541Zm-7.636.112c0,2.134,1.235,3.706,2.92,3.706s2.92-1.572,2.92-3.706c0-1.685-.786-3.706-2.92-3.706S204.5,78.744,204.5,80.654Z" transform="translate(-99.721 -71.333)" fill="#4c4a4b"/>
      <path id="Path_1411" data-name="Path 1411" d="M215.244,73.3v2.808h2.471v1.348h-2.471v5.166c0,1.235.337,1.909,1.348,1.909.449,0,.786-.112,1.011-.112l.112,1.348a5.206,5.206,0,0,1-1.572.225,2.313,2.313,0,0,1-1.909-.786,3.816,3.816,0,0,1-.674-2.471V77.455H212.1V76.108h1.46V73.749Z" transform="translate(-98.564 -71.616)" fill="#4c4a4b"/>
    </g>
    <path id="Path_1413" data-name="Path 1413" d="M93,59.6H63.354A5.181,5.181,0,0,0,58.3,64.654V94.3a5.181,5.181,0,0,0,5.054,5.054H93A4.9,4.9,0,0,0,98.054,94.3V64.654A5.181,5.181,0,0,0,93,59.6Zm2.808,34.7A2.78,2.78,0,0,1,93,97.108H63.354A2.78,2.78,0,0,1,60.546,94.3V64.654a2.78,2.78,0,0,1,2.808-2.808H93a2.78,2.78,0,0,1,2.808,2.808Z" transform="translate(708.443 604.619)" fill="#b3b3b3"/>
  </g>
</svg>
