<svg xmlns="http://www.w3.org/2000/svg" xmlns:xlink="http://www.w3.org/1999/xlink" width="2187.46" height="464.032" viewBox="0 0 2187.46 464.032">
  <defs>
    <linearGradient id="linear-gradient" y1="0.5" x2="1" y2="0.5" gradientUnits="objectBoundingBox">
      <stop offset="0.06" stop-color="#0071bb"/>
      <stop offset="0.1" stop-color="#066db8"/>
      <stop offset="0.16" stop-color="#1762b1"/>
      <stop offset="0.23" stop-color="#334fa5"/>
      <stop offset="0.3" stop-color="#5a3595"/>
      <stop offset="0.32" stop-color="#662d90"/>
      <stop offset="0.35" stop-color="#6e3096"/>
      <stop offset="0.39" stop-color="#8339a8"/>
      <stop offset="0.45" stop-color="#a548c4"/>
      <stop offset="0.49" stop-color="#c857e1"/>
      <stop offset="0.52" stop-color="#cb57d4"/>
      <stop offset="0.57" stop-color="#d258b2"/>
      <stop offset="0.64" stop-color="#dd597c"/>
      <stop offset="0.72" stop-color="#ed5a31"/>
      <stop offset="0.73" stop-color="#f05a24"/>
      <stop offset="0.89" stop-color="#ff0"/>
    </linearGradient>
    <linearGradient id="linear-gradient-4" x1="0" y1="0.5" x2="1" y2="0.5" xlink:href="#linear-gradient"/>
    <linearGradient id="linear-gradient-7" x1="0" y1="0.5" x2="1" y2="0.5" xlink:href="#linear-gradient"/>
  </defs>
  <g id="Group_13054" data-name="Group 13054" transform="translate(-6271.66 5416.942)" opacity="0.2">
    <path id="Path_11106" data-name="Path 11106" d="M1153.82,525.09c-26.62,0-45-4.4-56.47-13.25-16.67-12.92-17.8-33.65-19.12-57.65-2.53-46.11-5.67-103.5-127-131.49-57.47-13.26-108.27-28-153.08-41.08-150.29-43.72-241-70.11-327.18,34.66C421.45,376.5,370.1,423.76,318.34,456.74c-41.43,26.41-83.2,43.79-124.17,51.65-69.81,13.4-113.67-5.79-114.11-6l.58-1.19c.43.2,44,19.23,113.38,5.88,64.1-12.33,164-55.59,275.9-191.62,86.75-105.46,177.8-79,328.63-35.1,44.8,13,95.58,27.8,153,41.05,122.31,28.23,125.48,86.16,128,132.7,1.29,23.69,2.42,44.15,18.61,56.7,19.18,14.86,58.75,16.9,124.55,6.41,127.57-20.34,136.65-102.31,144.67-174.64,4.85-43.77,9.44-85.11,40.67-105.74,28.56-18.86,75.72-18.84,148.4.07,91.83,23.88,168,45.71,229.12,63.25C1943.1,345.32,2015,365.93,2056.11,338l.78,1.06c-13,8.86-29.1,12.92-49.82,12.92-45.44,0-113.39-19.48-221.84-50.58-61.16-17.53-137.28-39.36-229.09-63.24-72.27-18.8-119.07-18.87-147.28-.25-30.72,20.29-35.27,61.34-40.09,104.8C1360.7,415.52,1351.56,498,1223,518.52,1195.55,522.89,1172.64,525.09,1153.82,525.09Z" transform="translate(6271.66 -5478)" fill="url(#linear-gradient)"/>
    <path id="Path_11107" data-name="Path 11107" d="M1164.25,521.23c-31.34,0-52.72-5-65.75-15-17-13.15-19-33.28-21.25-56.59-4.27-43.94-9.58-98.62-127.54-127.56-15.6-3.83-30.35-8-44-11.93-28-8.08-53.88-16-79-23.68C706.3,249.6,619.24,223,545.23,256.29c-26.81,12-51.1,31-74.27,58.17-48.95,57.36-99.77,102.45-151.06,134C278.65,473.82,237,490.57,196,498.23c-68.92,12.89-113.53-4.34-118.39-6.34l.33-1.28.2.07c4.82,2,49.08,19.08,117.6,6.27,63.9-12,163.34-53.46,274.16-183.32,23.3-27.31,47.74-46.45,74.74-58.53,74.48-33.52,161.76-6.83,282.54,30.1,25.07,7.67,51,15.6,78.94,23.67,13.6,3.94,28.33,8.1,43.91,11.92,118.88,29.17,124.24,84.36,128.55,128.7,2.23,23,4.16,42.89,20.75,55.7,19.63,15.16,58.79,18.52,123.22,10.59,117.7-14.31,133.1-93.1,146.69-162.62,1.69-8.63,3.28-16.78,5.06-24.74l1.36-6.12c8.11-36.65,15.77-71.26,45.38-89.17,28.44-17.2,73.85-17.62,142.9-1.32,122.43,28.91,213.62,56.24,286.89,78.19,116.58,34.94,175.1,52.48,209.46,29.16l.79,1.07c-11,7.47-24.42,10.84-41.26,10.84-36.53,0-89.31-15.82-169.39-39.82C1777.19,289.3,1686,262,1563.64,233.08c-68.67-16.21-113.75-15.84-141.86,1.16-29.12,17.61-36.73,52-44.77,88.33l-1.36,6.12c-1.78,7.95-3.37,16.09-5.05,24.71-6.55,33.49-14,71.45-34.42,102-23.46,35.06-60.56,55.23-113.44,61.65C1200.29,519.84,1180.87,521.23,1164.25,521.23Z" transform="translate(6271.66 -5478)" fill="url(#linear-gradient)"/>
    <path id="Path_11108" data-name="Path 11108" d="M1177.33,517.76c-90.73,0-95.39-32.66-101.11-72.68-6-41.79-13.41-93.79-128-123.65-14.73-3.84-28.82-8.32-43.16-12.95q-22-7.12-42.77-13.94C726.61,250.12,628.6,218,546,255.56c-27.52,12.5-52.06,31.17-75,57.07C422.18,367.68,371.46,410.88,320.2,441c-41.3,24.29-83.11,40.26-124.26,47.45-67.94,11.9-112.52-3.81-120.77-7.08l-.21-.09.42-1.24a.621.621,0,0,1,.31.12c8.19,3.24,52.47,18.84,120,7C289,470.9,381.24,411.88,469.91,311.78c23.08-26,47.76-44.82,75.47-57.4,38.43-17.46,82.33-21.15,138.16-11.64,51.64,8.81,110.73,28.16,179.15,50.56q20.71,6.78,42.77,13.94c14.32,4.63,28.39,9.09,43.08,12.92,115.49,30.09,123,82.57,129,124.74,3.29,23,6.13,42.93,24.73,56,20.54,14.41,58.7,18.68,120.1,13.45,108.54-8.88,129.89-88,147-151.5,3.4-12.58,6.61-24.46,10.31-35.42,2.26-6.67,4.33-13.35,6.33-19.81,9.43-30.43,18.34-59.18,43.56-75.67,27.83-18.19,72.88-19.85,141.79-5.22C1714.13,257,1817,290.15,1892.1,314.36c92.08,29.68,142.81,46,172.42,25.94l.78,1.07c-9.27,6.29-20.52,9.1-34.33,9.1-31.11,0-75.24-14.22-139.3-34.87-75.08-24.2-177.9-57.34-320.54-87.62-68.52-14.55-113.24-12.95-140.73,5-24.83,16.23-33.67,44.76-43,75-2,6.46-4.08,13.15-6.34,19.83-3.69,10.93-6.89,22.79-10.28,35.35-8.67,32.09-18.49,68.47-39.64,97.3-24.32,33.14-59.84,51.19-108.6,55.18C1205.46,517.08,1190.49,517.76,1177.33,517.76Z" transform="translate(6271.66 -5478)" fill="url(#linear-gradient)"/>
    <path id="Path_11109" data-name="Path 11109" d="M1196,514.78c-106.49,0-112.88-33.18-120.84-74.41-8-41.63-17.14-88.82-128.46-119.58-14.94-4.13-29.5-9.35-42.35-14-153.53-55-264.45-94.81-357.64-52-28.25,13-53,31.29-75.75,56C264.11,535.49,91.69,478.12,72.71,470.84l-.32-.12.4-1.25.42.15c18.89,7.25,190.5,64.34,396.7-159.68,22.85-24.83,47.77-43.24,76.19-56.29,43.18-19.84,92.6-23.4,155.52-11.2,58.85,11.42,125.73,35.39,203.17,63.16,12.83,4.6,27.37,9.81,42.25,13.92,49.91,13.79,83.85,32.29,103.77,56.56,17.39,21.2,21.78,44,25.66,64,8.44,43.76,15.13,78.33,145.74,72.74,100.46-4.29,125.92-80.57,146.38-141.86,5.41-16.19,10.51-31.48,16.58-44.64,4.71-10.2,8.59-20.4,12.34-30.26,10.45-27.5,20.32-53.46,45.23-68.46,27.39-16.49,70.66-18.41,136.15-6.06,156.82,29.59,264,67.26,342.19,94.76,78.42,27.57,121.62,42.76,147.64,25.09l.79,1.07c-26.62,18.06-70.05,2.79-148.89-24.93-78.19-27.49-185.28-65.14-342-94.7-141.68-26.73-158.52,17.58-179.85,73.68-3.76,9.88-7.64,20.1-12.37,30.35-6,13.09-11.13,28.34-16.53,44.5-10.33,31-22.05,66.06-43.63,93.32-24.8,31.34-58.81,47.52-104,49.45Q1208.2,514.78,1196,514.78Z" transform="translate(6271.66 -5478)" fill="url(#linear-gradient-4)"/>
    <path id="Path_11110" data-name="Path 11110" d="M1223.26,512.74H1222c-59.06-.4-96.64-7.78-118.29-23.21-19.68-14-24.54-33.55-29.69-54.22-9.75-39.14-20.8-83.5-128.91-115.15-14.28-4.18-27.85-9.55-41-14.74l-.56-.22c-147.39-58.33-259.22-96.14-356.2-51.09A249.939,249.939,0,0,0,470.91,309c-48.5,50.67-99.15,90.26-150.55,117.67-41.49,22.13-83.64,36.46-125.29,42.58-67.14,9.88-112.52-4.34-124.83-8.93-.23-.08-.37-.14-.43-.15l.39-1.26.53.19c12.23,4.57,57.33,18.69,124.14,8.86,94.24-13.86,186.78-67.64,275-159.84a251.05,251.05,0,0,1,76.91-55.18c44.83-20.83,94.77-25.17,157.15-13.69C760.7,249.68,825,272.67,904.12,304l.56.22c13.09,5.18,26.64,10.54,40.86,14.7,48.48,14.19,81.87,32.32,102.07,55.43,17.69,20.22,23,41.71,27.76,60.66,10.51,42.22,18.82,75.56,146.67,76.43h1.24c92.44,0,119.79-70.87,144-133.43,7.56-19.58,14.7-38.07,23.38-52.64,7.76-13.05,13.44-26.12,18.92-38.75,22.5-51.78,40.28-92.68,176.83-70.13,167,27.58,281.16,71.61,356.72,100.75,66.5,25.64,106.63,41.12,129.85,25.36l.78,1.06c-23.82,16.17-64.21.6-131.13-25.21-75.51-29.11-189.62-73.11-356.45-100.67-135.5-22.37-153.08,18.1-175.34,69.35-5.51,12.67-11.2,25.77-19,38.89-8.62,14.48-15.74,32.92-23.28,52.45-11.67,30.23-24.9,64.49-46.72,90.42C1297,498.38,1264.72,512.74,1223.26,512.74Z" transform="translate(6271.66 -5478)" fill="url(#linear-gradient)"/>
    <path id="Path_11111" data-name="Path 11111" d="M1228.8,511.44q-3.46,0-7-.16c-57.72-2.59-94.87-11.11-116.94-26.81-20-14.22-25.8-33.08-31.94-53.05-11.45-37.22-24.43-79.41-129.3-111.9-13.84-4.29-26.93-10-39.59-15.49l-1.14-.49c-148-64.33-258.95-95.16-354.76-50.17C518.22,267.42,493,285,470.89,307.16c-48.37,48.54-99,86.36-150.49,112.41-41.61,21.05-84,34.54-125.88,40.1-67.64,9-114.12-5.31-126.75-9.9l-.54-.2.39-1.25.63.22c12.55,4.57,58.76,18.77,126.08,9.84,94.82-12.59,187.54-63.77,275.58-152.13,22.18-22.26,47.57-39.94,77.63-54.05,46.47-21.83,96.92-27,158.79-16.16,52.22,9.12,111.17,29,197.12,66.3l1.14.5c12.62,5.49,25.68,11.17,39.44,15.43,105.56,32.7,118.64,75.24,130.19,112.78,6.08,19.75,11.81,38.4,31.45,52.37,21.84,15.54,58.76,24,116.19,26.55,87.45,3.9,117.48-65.43,144-126.62,9.72-22.48,18.91-43.71,30.22-59s18.75-30.9,25.87-45.89c22.74-47.87,40.7-85.69,171.91-67.08,174.45,24.75,290.3,73.75,367,106.18,59.51,25.18,95.44,40.38,116.36,26.18l.78,1.07c-5.78,3.92-12.61,5.69-20.67,5.69-22,0-53.14-13.18-97-31.74-76.59-32.4-192.34-81.36-366.61-106.08-130.2-18.47-148,19-170.47,66.33-7.15,15-14.54,30.6-26,46.1-11.22,15.18-20.38,36.35-30.08,58.76-12.78,29.53-27.27,63-49.23,87.79C1294.14,498.38,1265,511.44,1228.8,511.44Z" transform="translate(6271.66 -5478)" fill="url(#linear-gradient)"/>
    <path id="Path_11112" data-name="Path 11112" d="M1234.08,510.42c-4,0-8.21-.19-12.52-.59-123.06-11.34-135.44-44.45-149.77-82.79-13.11-35.08-28-74.83-129.7-108.16-13.5-4.42-26.2-10.47-38.49-16.31l-1.43-.68C740,224.78,637.65,210.51,548.86,252.64c-31.32,14.86-56.1,31.6-78,52.69C422.64,351.78,372,387.86,320.42,412.55c-41.73,20-84.29,32.61-126.5,37.6-68.15,8.06-115.69-6.32-128.63-10.92l-.65-.23.39-1.25.73.25c12.87,4.57,60.14,18.87,128,10.85C289.19,437.58,382.1,389,469.91,304.41c22-21.2,46.9-38,78.35-52.94,47.44-22.51,99.91-28.6,160.43-18.6,53.75,8.88,115.42,30.44,194.08,67.85l1.43.67c12.25,5.83,24.91,11.86,38.33,16.25,102.35,33.53,117.32,73.6,130.54,109,14.17,37.92,26.41,70.67,148.62,81.93C1304,516.12,1336.08,448,1364.43,387.9c11.9-25.22,23.13-49,37.06-64.56,15.57-17.37,24.43-35,33-52,22.48-44.72,40.24-80.05,166.8-65,180,21.36,297,75.5,374.35,111.33,54.09,25,86.73,40.14,105.7,27.27l.78,1.07c-19.62,13.32-52.53-1.92-107.06-27.17-77.3-35.78-194.12-89.87-373.94-111.21-125.6-14.89-143.17,20.06-165.41,64.31-8.21,16.32-17.51,34.83-33.2,52.32-13.79,15.39-25,39.12-36.84,64.25C1338.61,445.8,1308.11,510.41,1234.08,510.42Z" transform="translate(6271.66 -5478)" fill="url(#linear-gradient-7)"/>
    <path id="Path_11113" data-name="Path 11113" d="M1238,509.6a119.386,119.386,0,0,1-16.71-1.22c-120-17-134.19-48.82-150.65-85.64-14.74-33-31.44-70.34-130.1-104.5C927.33,313.66,915,307.24,903,301l-1.52-.79c-150.4-78-258.92-92.88-351.88-48.33-22.13,10.61-51.08,26.07-78.73,51.6-48.08,44.39-98.68,78.73-150.4,102.07-41.85,18.88-84.63,30.68-127.16,35.08-66.82,6.92-113.52-6.07-130.49-12l-.74-.25.39-1.25.81.27c13.17,4.59,61.48,19,129.89,11.91,96.1-9.94,189.21-56,276.76-136.8,27.78-25.65,56.85-41.17,79.07-51.82,93.39-44.76,202.3-29.85,353.12,48.35l1.52.79c11.93,6.18,24.26,12.58,37.41,17.13,99.21,34.35,116,72,130.88,105.21,16.3,36.46,30.38,67.95,149.6,84.86,77.69,11,111.67-56.13,141.65-115.38,14-27.75,27.31-53.95,43.77-69.36,20.27-19,30.85-39.37,40.19-57.37,21.88-42.19,39.15-75.52,161.63-63.81,184.24,17.61,302,77,379.83,116.36,49.69,25.09,79.68,40.23,97,28.49l.78,1.07c-18,12.2-48.24-3.09-98.38-28.4-77.79-39.28-195.35-98.63-379.33-116.22-121.53-11.61-138.64,21.35-160.29,63.1-9.38,18.09-20,38.59-40.45,57.72-16.3,15.25-29.51,41.35-43.5,69C1336.43,447.52,1305,509.6,1238,509.6Z" transform="translate(6271.66 -5478)" fill="url(#linear-gradient-4)"/>
    <path id="Path_11114" data-name="Path 11114" d="M1241.11,508.93a105.18,105.18,0,0,1-20-2c-116.78-22.7-132.87-53.14-151.5-88.39-16.33-30.91-34.84-65.94-130.53-100.92-13-4.77-25.11-11.59-36.8-18.18l-1.5-.84c-141.33-79.67-252.68-94.73-350.43-47.41-25.67,12.43-53.07,27.15-79.49,50.5-47.9,42.36-98.48,75-150.33,97-42,17.8-85,28.76-127.83,32.56-67.36,6-115-7.15-132.36-13.07l-.83-.28.39-1.25.89.29c17.28,5.9,64.69,19,131.79,13,96.8-8.58,190.12-52,277.37-129.18,26.53-23.46,54-38.24,79.79-50.71,98.2-47.53,210-32.46,351.73,47.45l1.49.84c11.65,6.57,23.69,13.36,36.6,18.08,96.18,35.17,114.82,70.44,131.26,101.55,18.47,34.95,34.42,65.14,150.56,87.71C1295,520,1330.58,453.55,1362,395c16.16-30.13,31.43-58.59,50.37-73.64,25.45-20.22,37.06-42.4,47.31-62,21.06-40.21,37.69-72,156.53-63.33,187.41,13.62,310.43,81.07,383.93,121.37,44.44,24.36,73.8,40.46,89.61,29.74l.78,1.07c-16.52,11.2-44.58-4.19-91.06-29.68-73.4-40.24-196.25-107.6-383.36-121.19-117.94-8.57-134.39,22.84-155.22,62.61-10.31,19.68-22,42-47.66,62.38-18.72,14.88-33.93,43.22-50,73.23C1334.54,449,1302.39,508.92,1241.11,508.93Z" transform="translate(6271.66 -5478)" fill="url(#linear-gradient-4)"/>
    <path id="Path_11115" data-name="Path 11115" d="M1243.53,508.39a93.587,93.587,0,0,1-22.7-2.92c-113.44-28.34-132.31-58.8-152.29-91-17.9-28.89-38.19-61.63-131-97.46-12.83-5-24.66-12.19-36.11-19.19l-1.38-.85c-132.78-81.15-246.94-96.36-349-46.48-26.14,12.78-53.86,27.12-80.23,49.41C272.36,467.62,92,419,57.8,407.59l-.91-.3.39-1.26,1,.32c34,11.4,213.79,59.81,411.67-107.48,26.48-22.39,54.29-36.77,80.51-49.58,102.52-50.11,217.12-34.89,350.33,46.54l1.39.85c11.39,7,23.17,14.17,35.88,19.07,93.26,36,113.67,68.94,131.68,98,19.84,32,38.57,62.23,151.47,90.44,69.93,17.46,107-48.3,139.75-106.31,18.29-32.41,35.56-63,56.9-77.53,31-21.11,43.39-44.91,54.28-65.9,20.08-38.71,36-69.27,151.58-63.52,189.8,9.45,313.27,82.66,387,126.4,41.42,24.55,68.78,40.78,83.25,31l.78,1.07c-15.2,10.31-41.37-5.21-84.74-30.92-73.66-43.67-196.94-116.77-386.39-126.2-114.75-5.71-130.43,24.52-150.3,62.79-11,21.14-23.39,45.09-54.71,66.39-21.09,14.33-38.28,44.81-56.49,77.08C1332.85,450.38,1300.12,508.38,1243.53,508.39Z" transform="translate(6271.66 -5478)" fill="url(#linear-gradient)"/>
    <path id="Path_11116" data-name="Path 11116" d="M1245.64,508a84.839,84.839,0,0,1-25.05-4c-109.9-33.9-130.81-62.86-152.95-93.53-20.39-28.23-41.48-57.43-131.65-94.15-12.67-5.16-23.74-12.49-35.47-20.25l-1.21-.8c-124.7-82.48-241.63-97.81-347.55-45.55l-1.54.75c-24.74,12.21-52.79,26-79.44,47.55C273.24,457.5,90,408.48,55.29,397l-1-.32.39-1.25,1,.34C90.33,407.2,272.93,456.05,469.91,297c26.77-21.61,54.89-35.48,79.7-47.71l1.53-.76c106.4-52.49,223.8-37.13,348.94,45.64l1.21.8c11.67,7.72,22.69,15,35.23,20.13,90.53,36.87,111.73,66.22,132.23,94.61,22,30.47,42.8,59.26,152.25,93,29.72,9.17,56.28,2.26,81.2-21.13,22.1-20.74,40.18-51.42,57.67-81.09,20.4-34.61,39.66-67.29,63.39-81.17,36.89-21.57,49.9-49.51,61.38-74.16,9.35-20.08,18.18-39.05,38.52-50.65,22.39-12.76,56.72-15.53,108.06-8.72C1810,209.59,1933,277,2006.43,317.25c46.36,25.42,77,42.2,91.74,32.19l.78,1.07c-15.46,10.49-44.71-5.55-93.19-32.12-73.37-40.22-196.17-107.54-374.72-131.25-111-14.74-126.08,17.63-145.16,58.6-11.57,24.83-24.67,53-61.92,74.75-23.42,13.7-42.6,46.24-62.91,80.69-17.53,29.75-35.67,60.51-57.91,81.39C1285,499.56,1266.05,508,1245.64,508Z" transform="translate(6271.66 -5478)" fill="url(#linear-gradient-4)"/>
    <path id="Path_11117" data-name="Path 11117" d="M1247.29,507.68a77.281,77.281,0,0,1-27-5.14c-106-39.29-129-66.73-153.36-95.77-22-26.23-44.72-53.36-132.52-91.08-12.52-5.38-23.38-13.14-34.88-21.36l-1-.7C779.86,208.79,663.41,193.77,552.49,249l-7.9,3.91c-23,11.35-49.05,24.22-73.83,43.3-196.54,151.27-382.67,101.73-418,90.27l-1.06-.34.39-1.25,1.1.35C88.4,396.67,273.92,446,469.91,295.19c24.89-19.16,51-32.07,74.06-43.45q4-2,7.89-3.91c54.44-27.1,111.17-37.32,168.61-30.38,58.93,7.12,119.14,32.4,178.94,75.13l1,.7c11.44,8.17,22.24,15.9,34.63,21.22,88.09,37.84,110.93,65.09,133,91.45,24.22,28.9,47.1,56.2,152.79,95.37,63.37,23.49,101.3-38.43,138-98.31,22.52-36.74,43.78-71.45,69.88-84.62,42.93-21.65,56.07-51.29,67.66-77.43,8.71-19.66,16.94-38.22,36.64-49.88,21.7-12.85,55.28-16.14,105.69-10.34,181.68,20.88,305.15,93.54,378.92,137,43,25.29,71.35,42,84.76,32.88l.79,1.07c-14.15,9.6-41.29-6.37-86.26-32.83-73.67-43.36-197-115.94-378.37-136.79-109-12.52-123.1,19.23-140.92,59.44-11.69,26.35-24.93,56.21-68.28,78.08-25.76,13-46.93,47.55-69.34,84.12-18.17,29.67-37,60.34-59.21,80.59C1283.6,499.91,1265.93,507.68,1247.29,507.68Z" transform="translate(6271.66 -5478)" fill="url(#linear-gradient)"/>
    <path id="Path_11118" data-name="Path 11118" d="M1248.84,507.53a71.47,71.47,0,0,1-28.74-6.45c-101.59-44.36-127.85-71.44-153.25-97.62-23.59-24.33-48-49.48-133.91-88.41-12.39-5.61-23.06-13.83-34.35-22.53l-.7-.55c-111.43-85.87-230.62-101-344.68-43.7q-6.62,3.31-13.52,6.68c-21.46,10.53-45.78,22.46-69,39.43C275.27,437.57,86.16,387.43,50.24,375.92l-1.11-.35.39-1.25,1.15.36C86.48,386.15,275,436.13,469.91,293.34c23.27-17,47.65-29,69.16-39.55,4.6-2.26,9.11-4.47,13.51-6.68C608.51,219,665.78,208,722.8,214.45c59.57,6.7,118.77,32.44,175.93,76.5l.71.55c11.23,8.65,21.83,16.82,34.07,22.37,86.18,39,110.66,64.28,134.33,88.69,25.31,26.1,51.47,53.08,152.82,97.33,60.4,26.37,99.39-35.1,137.09-94.54,24.63-38.84,47.9-75.52,76.39-87.93,49.13-21.4,62.13-52.62,73.6-80.17,16.1-38.65,30-72,138.42-61.62,184.17,17.7,308,95.87,382,142.58,39.86,25.16,66.2,41.79,78.39,33.52l.78,1.07c-12.94,8.78-38.15-7.13-79.92-33.5-73.89-46.64-197.57-124.7-381.42-142.37-49.3-4.74-82-.94-102.78,11.95-18.72,11.6-26.26,29.7-34.24,48.86-11.56,27.78-24.68,59.26-74.3,80.87-28.11,12.24-51.27,48.76-75.79,87.42C1327.18,456.07,1294.54,507.53,1248.84,507.53Z" transform="translate(6271.66 -5478)" fill="url(#linear-gradient)"/>
    <path id="Path_11119" data-name="Path 11119" d="M1249.78,507.35c-9.45,0-19.39-2.4-29.92-7.74-95.95-48.62-124.4-74.05-151.92-98.63-26.41-23.6-51.35-45.88-136.53-86.57-12.29-5.87-22.77-14.57-33.86-23.78l-.38-.31c-106-88-224.71-102.82-343.23-42.78-6,3-12.13,6-18.6,9.13-21.08,10.21-42.88,20.75-64.63,35.89-46.75,32.53-97.08,56.8-149.6,72.12a495.81,495.81,0,0,1-131.5,19.74c-70.33,1.05-122.67-13-141.9-19.06L46.54,365l.39-1.25,1.2.37c36.44,11.53,228,62.2,421.79-72.62,21.83-15.2,43.68-25.77,64.81-36,6.47-3.14,12.58-6.1,18.58-9.13,119.05-60.31,238.27-45.46,344.75,42.95l.37.31c11,9.16,21.45,17.81,33.58,23.6,85.35,40.77,110.37,63.12,136.85,86.78,27.45,24.53,55.84,49.89,151.63,98.44,57.61,29.19,97.54-31.85,136.16-90.88,26.75-40.9,52-79.52,82.93-91.13,55.43-20.82,68.07-53.53,79.22-82.4,14.86-38.47,27.7-71.7,134.83-63.53,186.34,14.22,310.47,98.13,384.63,148.27,37,25,61.49,41.57,72.53,34.08l.78,1.07c-11.83,8-35.26-7.83-74.09-34.08-74-50.06-198-133.85-384-148-106.11-8.09-118.78,24.71-133.45,62.69-11.25,29.12-24,62.13-80,83.16-30.49,11.45-55.65,49.9-82.27,90.61C1325.84,457.13,1293,507.35,1249.78,507.35Z" transform="translate(6271.66 -5478)" fill="url(#linear-gradient)"/>
    <path id="Path_11120" data-name="Path 11120" d="M1250.5,507.24c-9.81,0-20.07-2.8-30.88-9.09-86.78-50.48-118.68-75.3-146.83-97.21-30.9-24.05-55.31-43.05-142.91-87.17-12.19-6.14-22.5-15.35-33.41-25.1-100.83-90.11-219-104.58-341.81-41.86-7.44,3.8-15.13,7.45-23.27,11.32-19.79,9.39-40.24,19.11-60.7,32.6A508.39,508.39,0,0,1,321.34,358a515.545,515.545,0,0,1-132.28,17.15h-.31c-70.82,0-124-14.24-143.58-20.37-.58-.18-1-.31-1.21-.37l.39-1.26,1.24.39c37.08,11.6,231.84,63.06,424.33-63.91,20.54-13.54,41-23.28,60.87-32.69,8.13-3.87,15.81-7.52,23.24-11.31C612.86,215.6,671.2,203.1,727.4,208.52c60.53,5.83,117.72,32.48,170,79.18,10.85,9.7,21.1,18.85,33.13,24.91,87.72,44.18,112.17,63.21,143.14,87.31,28.11,21.88,60,46.68,146.67,97.11,25,14.51,48.14,11.61,73-9.12,22-18.36,42.43-48.78,62.22-78.19,27.6-41,56.15-83.47,89.51-94.24,62.35-20.13,73.79-49.28,84.85-77.46,13.31-33.9,25.88-65.91,131.15-72.61,194.77-12.38,324.54,95.18,394.27,153C2085.7,343.6,2105.8,360.25,2115,354l.78,1.07c-10.06,6.83-29.37-9.18-61.38-35.71-69.57-57.66-199.06-165-393.29-152.65-47.73,3-79.25,11.17-99.19,25.61-17.69,12.82-24.05,29-30.78,46.15-11.18,28.47-22.73,57.91-85.69,78.24-32.91,10.63-61.32,52.87-88.8,93.72C1324.52,458.18,1291.51,507.23,1250.5,507.24Z" transform="translate(6271.66 -5478)" fill="url(#linear-gradient)"/>
    <path id="Path_11121" data-name="Path 11121" d="M1251.21,507.31c-10.58,0-21.07-3.52-31.84-10.63-59.71-39.51-94.3-63.73-119.55-81.42-50.21-35.17-65.36-45.78-171.46-102.13-12.12-6.43-22.54-16.44-32.61-26.12-121.06-116.37-251.91-86.49-340.36-40.93-8.77,4.51-18,8.78-27.69,13.29-18.58,8.62-37.78,17.53-57,29.54C386.4,341.47,291.49,367.4,188.55,366c-71.63-1-125.91-15.53-145.92-21.73l-1.26-.38.39-1.26L43,343c37.75,11.71,235.76,64,426.88-55.18,19.33-12.06,38.58-21,57.19-29.62,9.72-4.5,18.9-8.76,27.64-13.26,60.27-31.05,119.12-44.28,174.93-39.34,60.87,5.39,117.07,32.47,167,80.49,10,9.62,20.35,19.56,32.3,25.91,106.18,56.38,121.35,67,171.61,102.21,25.24,17.69,59.82,41.9,119.52,81.4,13.5,8.93,26.54,12.06,39.86,9.58,34.28-6.4,63.44-48.65,94.3-93.39,29.64-43,60.29-87.37,96.14-97.28,68.82-19,79.62-49.27,90.07-78.52,12.25-34.3,23.81-66.7,128-75.68,195-16.82,325,97.36,394.81,158.7,28.65,25.17,47.59,41.79,55.91,36.14l.78,1.08a8.07,8.07,0,0,1-4.63,1.35c-10.17,0-27.21-15-53-37.6-69.68-61.2-199.39-175.12-393.77-158.37-103.28,8.91-114.71,40.91-126.81,74.8-10.56,29.57-21.47,60.15-91,79.36-35.37,9.78-65.88,54-95.39,96.75-31,45-60.33,87.44-95.18,93.94a48.693,48.693,0,0,1-8.95.84Z" transform="translate(6271.66 -5478)" fill="url(#linear-gradient)"/>
    <path id="Path_11122" data-name="Path 11122" d="M1251.69,507.36c-10.94,0-21.65-4-32.55-12.16C1094.3,402,1078.3,393.55,1018.77,362.26c-22.32-11.74-50.1-26.34-91.94-49.77-12.05-6.75-22.09-17.11-31.79-27.14-115-118.81-247.77-87.33-338.93-40-10,5.2-20.65,10-31.93,15.09-17.42,7.86-35.43,16-53.55,26.64-83.62,49.2-178.69,72.65-282.56,69.73-72.3-2-127.58-16.86-148-23.13l-1.29-.4.39-1.25,1.32.4C78.93,344.25,280.27,397.54,469.93,286c18.17-10.7,36.22-18.84,53.68-26.72,11.25-5.08,21.89-9.87,31.86-15.05,61.69-32,121.06-46,176.46-41.53,61.15,4.94,116.36,32.46,164.1,81.79,9.64,10,19.6,20.25,31.48,26.9,41.82,23.42,69.59,38,91.91,49.75,59.61,31.33,75.63,39.75,200.55,133.06,12.89,9.63,25.46,13.35,38.46,11.37,33.45-5.11,63.17-47.19,94.63-91.75,31.68-44.85,64.43-91.23,102.81-100.24,75.27-17.68,85.32-49,95-79.29,11.19-34.87,21.76-67.81,125-79.06C1871,134,2001.21,254.87,2071.15,319.82c26.95,25,44.76,41.57,52.26,36.48l.78,1.07c-8.42,5.71-25.57-10.22-54-36.61-69.79-64.8-199.66-185.42-394.12-164.26-102.39,11.15-112.83,43.69-123.89,78.14-9.83,30.64-20,62.32-96,80.18-37.87,8.9-70.48,55.06-102,99.71s-61.52,87.11-95.55,92.3a46.767,46.767,0,0,1-6.94.53Z" transform="translate(6271.66 -5478)" fill="url(#linear-gradient)"/>
    <path id="Path_11123" data-name="Path 11123" d="M1252,507.47c-11.25,0-22.14-4.53-33.12-13.74-106-88.88-136.54-102.89-182.8-124.08-25.73-11.79-57.76-26.47-110.8-57.8-11.11-6.56-20.22-16.22-31-28.16-109.11-121.17-243.75-88.12-337.49-39.07-11.2,5.86-23.3,11.15-36.1,16.75-16.3,7.13-33.15,14.49-50.13,23.89-82.94,45.87-178.14,66.89-283,62.43-70.36-3-124.25-16.68-150.11-24.57l-1.35-.41.39-1.25,1.37.41c39.13,11.95,243.89,66.28,432-37.75,17-9.42,33.92-16.8,50.25-23.94,12.78-5.59,24.85-10.87,36-16.71,63.1-33,123-47.72,178-43.7,61.37,4.49,115.61,32.44,161.19,83.07,10.68,11.85,19.71,21.43,30.66,27.9,53,31.29,85,45.95,110.67,57.73,46.36,21.24,77,35.27,183.11,124.28,12.33,10.34,24.49,14.64,37.2,13.11,32.6-3.91,62.81-45.79,94.79-90.13,33.71-46.73,68.56-95.05,109.52-103.15,81.67-16.14,90.88-48.5,99.79-79.78,9.69-34,19.7-69.2,122.32-82.7,84.22-11.08,166.8,6,245.43,50.76,66,37.55,116.57,87.15,150,120,25.3,24.8,42,41.16,48.72,36.62l.78,1.07c-7.66,5.19-23.77-10.6-50.47-36.77C2008.05,253.27,1878,125.81,1683.59,151.4c-45.71,6-76.83,16.82-95.14,33-16.29,14.43-21.25,31.86-26,48.71-9,31.67-18.34,64.42-100.83,80.73-40.43,8-75.12,56.09-108.67,102.6-32.17,44.59-62.54,86.71-95.75,90.69a44.137,44.137,0,0,1-5.2.34Z" transform="translate(6271.66 -5478)" fill="url(#linear-gradient)"/>
    <path id="Path_11124" data-name="Path 11124" d="M1252.23,507.62c-11.55,0-22.57-5.05-33.57-15.36-98.15-92-134-105.88-179.3-123.44-28.69-11.12-61.21-23.72-115.59-57.61-11.06-6.9-19.83-16.86-30.15-29.17-103.43-123.46-239.84-88.89-336.06-38.15-12.37,6.52-25.92,12.25-40.28,18.3-15.17,6.41-30.85,13-46.7,21.24-82.2,42.61-177.51,61.18-283.27,55.2-71-4-125.9-18.06-152.29-26.07l-1.41-.42.39-1.25,1.42.42c39.86,12.1,248.13,67.57,434.52-29,15.89-8.24,31.61-14.87,46.8-21.28,14.33-6.05,27.86-11.76,40.17-18.26,96.67-51,233.74-85.68,337.77,38.47,10.23,12.22,18.93,22.11,29.83,28.9,54.26,33.82,86.72,46.4,115.36,57.49,45.48,17.62,81.4,31.54,179.74,123.72,11.82,11.08,23.6,15.94,36.05,14.84,31.73-2.81,62.37-44.46,94.8-88.56,35.74-48.58,72.68-98.82,116.26-106,88-14.45,96-46.32,104.36-80.05,8.68-34.81,17.66-70.81,119.79-86.57,84.15-13,166.89,4.28,246,51.35C2003,235.74,2053.26,287.67,2086.55,322c22.82,23.57,39.32,40.59,45.27,36.55l.78,1.07a4.93,4.93,0,0,1-2.83.84c-7.84,0-22.18-14.81-44.21-37.56-65-67.08-200.13-206.65-394.47-176.64-101.24,15.63-110.11,51.19-118.69,85.58-4.08,16.38-8.3,33.32-22.56,47.61-15.92,15.95-43,26.89-82.89,33.43-43,7.07-79.81,57.08-115.38,105.45-32.62,44.35-63.43,86.24-95.78,89.1A32.936,32.936,0,0,1,1252.23,507.62Z" transform="translate(6271.66 -5478)" fill="url(#linear-gradient)"/>
    <path id="Path_11125" data-name="Path 11125" d="M1252.31,507.81c-11.82,0-22.92-5.59-33.88-17-92.84-96.9-132.66-109.69-178.76-124.49-30-9.63-64-20.54-117.42-55.72-11-7.25-19.8-18-29.34-30.19-97.95-125.66-236-89.6-334.62-37.22-13.54,7.2-28.62,13.32-44.58,19.79-14,5.69-28.5,11.57-43.16,18.66C389.13,321,293.74,337.14,187,329.63,115.37,324.58,59.45,310.15,32.5,302l-1.5-.43.39-1.26,1.48.45C73.5,313,285.35,369.71,470,280.44c14.7-7.11,29.2-13,43.24-18.69,15.92-6.47,31-12.57,44.44-19.73,99.06-52.64,237.83-88.84,336.37,37.57,9.46,12.14,18.17,22.77,29,29.9,53.31,35.08,87.19,46,117.09,55.56,46.28,14.86,86.25,27.7,179.33,124.85,11.34,11.84,22.79,17.27,35,16.54,30.85-1.8,61.85-43.2,94.67-87,37.76-50.42,76.8-102.56,123-108.75,94.27-12.62,101.31-45.4,108.77-80.11,7.67-35.7,15.61-72.61,117.42-90.66,195-34.57,330.63,112.78,395.81,183.59,21.27,23.11,36.65,39.8,41.87,36.25l.78,1.07c-6.22,4.22-20.32-11.09-43.67-36.46-65-70.63-200.29-217.6-394.54-183.16-100.92,17.89-108.76,54.36-116.34,89.63s-14.7,68.4-109.92,81.15c-45.66,6.11-84.53,58-122.12,108.22-33,44.09-64.19,85.73-95.69,87.56C1253.78,507.79,1253,507.81,1252.31,507.81Z" transform="translate(6271.66 -5478)" fill="url(#linear-gradient)"/>
    <path id="Path_11126" data-name="Path 11126" d="M1252.28,508c-12,0-23.21-6.13-34.08-18.72-88.47-102.52-130.58-113.47-179.35-126.15-31.11-8.09-66.36-17.25-118.13-53.23-11-7.62-19.75-19.11-28.51-31.21-92.65-127.8-232.33-90.27-333.2-36.29-14.75,7.9-31.43,14.38-49.09,21.24-12.79,5-26,10.09-39.39,16.11-80.6,36.21-176,50-283.66,40.9C114.54,314.59,57.54,299.76,30,291.46L28.44,291l.39-1.26,1.58.47C88.49,307.72,291.86,358.6,470,278.59c13.43-6,26.66-11.17,39.46-16.14,17.62-6.84,34.27-13.31,48.94-21.16,67.28-36,128.63-52.89,182.34-50.16,61.77,3.13,113.12,32.35,152.63,86.84,8.7,12,17.4,23.39,28.19,30.89,51.57,35.84,85.19,44.58,117.7,53,49,12.73,91.29,23.73,180,126.57,10.89,12.63,22,18.62,34,18.24,30-.88,61.29-42,94.44-85.55,37.92-49.81,80.9-106.26,129.84-111.46,100.46-10.67,106.58-44.34,113.06-80,3.28-18,6.67-36.66,22-53.38,17.29-18.86,47.77-32.44,93.19-41.54,84-16.82,167.07,1,247,53.05,66.53,43.29,116.09,99.88,148.88,137.32,19.72,22.52,34,38.79,38.52,35.71l.78,1.07a3.52,3.52,0,0,1-2,.6c-6.3,0-18.29-13.68-38.3-36.53-65-74.28-200.4-228.83-394.59-189.94-100.72,20.17-107.53,57.63-114.11,93.86S1579.2,300.22,1477.72,311c-48.35,5.14-91.14,61.35-128.89,110.94-33.35,43.8-64.85,85.18-95.5,86.08Z" transform="translate(6271.66 -5478)" fill="url(#linear-gradient-4)"/>
    <path id="Path_11127" data-name="Path 11127" d="M1252.15,508.29c-12.27,0-23.45-6.69-34.18-20.46-84.53-108.51-131.14-118-180.49-128.06-33.71-6.86-68.58-14-118.29-50.49-10.93-8-19.67-20.32-27.69-32.22-37.33-55.4-87.38-84.84-148.75-87.5-53-2.3-114.58,15.25-183,52.14-16,8.64-34.45,15.46-54,22.67C494.32,268.6,482.49,273,470.5,278c-79.72,33-175.16,44.43-283.66,33.81-73-7.14-131.13-22.41-159.3-30.88l-1.68-.51.39-1.25,1.69.51c59.17,17.79,265.91,70.16,442-2.93,12-5,23.87-9.37,35.32-13.6,19.47-7.2,37.86-14,53.8-22.59,68.65-37,130.45-54.62,183.73-52.31,61.84,2.68,112.24,32.32,149.83,88.1,8,11.8,16.62,24,27.37,31.89,49.47,36.35,84.18,43.41,117.75,50.25,49.61,10.11,96.46,19.65,181.3,128.56,10.45,13.41,21.27,19.93,33.09,19.93h.06c29.12-.05,60.69-40.88,94.12-84.12,39.84-51.53,85-109.93,136.66-114.12,48.75-3.95,79.44-13.21,96.58-29.15,15.2-14.14,17.86-31.83,20.67-50.56,5.39-35.93,11.5-76.66,113-99.34,83.9-18.74,167.22-.51,247.66,54.2,66.73,45.38,117.81,106.64,148.33,143.24,18.16,21.78,31.28,37.54,35.17,34.88l.79,1.07c-4.94,3.35-16.33-10.32-37-35.13-65.06-78-200.43-240.37-394.62-197-45,10.06-75,24.44-91.74,44-14.69,17.17-17.52,36.05-20.26,54.3-5.56,37.08-10.82,72.1-118.48,80.82-51.06,4.14-96,62.29-135.68,113.6-33.64,43.51-65.41,84.6-95.21,84.65Z" transform="translate(6271.66 -5478)" fill="url(#linear-gradient)"/>
    <path id="Path_11128" data-name="Path 11128" d="M1251.93,508.58h-.78c-12.16-.3-23.08-7.56-33.4-22.21-80.83-114.76-130-122.21-182-130.1-34.73-5.27-70.63-10.71-118.12-47.62-9.84-7.65-17.57-18.39-26.87-33.24-35.46-56.66-84.55-86.51-145.93-88.71-52.53-1.89-114.58,16.38-184.4,54.29-17.39,9.44-37.78,16.57-59.37,24.11-9.94,3.48-20.22,7.07-30.62,11-78.8,30-174.19,39.06-283.53,26.89-54.55-6.07-112-17.65-161.82-32.62l-1.85-.55.39-1.25,1.86.55C85.79,287.26,296,341.2,470,274.91c10.42-4,20.71-7.57,30.66-11,21.53-7.53,41.87-14.64,59.17-24,70-38,132.31-56.36,185.11-54.46,61.86,2.22,111.33,32.28,147.05,89.35,9.21,14.72,16.87,25.36,26.55,32.89,47.21,36.69,82.93,42.11,117.48,47.35,52.31,7.93,101.73,15.43,182.88,130.65,10.05,14.28,20.62,21.35,32.32,21.64h.75c28.06,0,58.16-38.38,93-82.77,41.75-53.23,89.06-113.57,143.5-116.72,112.64-6.52,116.67-40.24,121.35-79.28,4.42-37,9.44-78.87,111-103.92,83.86-20.68,167.43-2,248.39,55.58,66.95,47.6,117.48,111.22,147.67,149.23,16,20.1,28.58,36,31.84,33.76l.78,1.07c-4.15,2.82-13.33-8.4-33.69-34-60-75.48-200.37-252.26-394.66-204.33-100.63,24.83-105.59,66.25-110,102.8-2.35,19.55-4.56,38-20.5,52.46-17.75,16.08-50.2,25-102.12,28-53.81,3.11-100.93,63.19-142.5,116.2C1311,470,1280.67,508.58,1251.93,508.58Z" transform="translate(6271.66 -5478)" fill="url(#linear-gradient-7)"/>
    <path id="Path_11129" data-name="Path 11129" d="M1250.74,508.3h-1.33c-11.76-.54-22.19-8.19-31.88-23.39-77.26-121.18-129-126.53-183.68-132.2-35.65-3.69-72.53-7.5-117.72-44.7-9.79-8.05-17.49-19.52-26-34.25-25.82-44.47-60.31-72.78-102.52-84.15-59.46-16-135.63,1-226.38,50.66-18.93,10.35-41.58,17.77-65.55,25.62-8.19,2.69-16.66,5.46-25.2,8.43-172.2,59.75-386.2,4.08-447.69-14.4l-2.06-.62.38-1.25c.44.12,1.14.33,2.09.62,61.38,18.45,275,74,446.82,14.42,8.55-3,17-5.75,25.23-8.44,23.91-7.83,46.49-15.23,65.31-25.52,91.08-49.8,167.6-66.88,227.42-50.78,42.56,11.46,77.33,40,103.33,84.78,8.48,14.6,16.11,26,25.74,33.89,44.87,36.93,81.53,40.72,117,44.39,55.07,5.7,107.08,11.09,184.68,132.81,9.44,14.81,19.51,22.26,30.8,22.77,27,1.22,56.91-37.1,91.56-81.48,44.3-56.74,94.54-121,152.84-118.67,118.68,4.86,121.63-29.22,125.33-72.37,1.69-19.7,3.61-42,17.78-62.33,16.19-23.21,46-40.43,91.21-52.64,83.88-22.66,167.74-3.4,249.29,57.22,67.18,50,117.07,115.89,146.88,155.28,14.42,19.07,25.82,34.11,28.48,32.32l.78,1.07c-3.62,2.44-11.43-7.6-30.36-32.62-59.9-79.16-200.19-264.56-394.7-212-100.57,27.17-104.52,73.2-108,113.81-1.81,21.16-3.53,41.14-19.87,54.82-18,15.05-51.93,21-106.87,18.76-57.6-2.38-107.6,61.66-151.7,118.14C1307.8,470.24,1278.08,508.3,1250.74,508.3Z" transform="translate(6271.66 -5478)" fill="url(#linear-gradient)"/>
    <path id="Path_11130" data-name="Path 11130" d="M1250.47,508.69a17.6,17.6,0,0,1-1.92-.07c-11.7-.82-21.92-9.06-31.25-25.21-73.76-127.74-128-130.93-185.52-134.3-36.54-2.15-74.32-4.36-117.18-41.76-10.35-9-18.23-22.29-25.22-35.26-24.09-44.78-57.06-73.39-98-85-58.71-16.7-135.91.95-229.47,52.46-20.69,11.39-46,19.08-72.8,27.21-6.14,1.87-12.39,3.76-18.7,5.74-169.88,53.18-387.35-4.2-449.95-23.06l-2.36-.7.39-1.26,2.37.71C83.37,267,300.49,324.29,470,271.23q9.48-3,18.71-5.74c26.73-8.12,52-15.79,72.54-27.11C655.13,186.69,732.69,169,791.76,185.8c41.31,11.75,74.56,40.58,98.83,85.68,6.92,12.87,14.73,26,24.92,34.9,42.51,37.09,80,39.29,116.35,41.42,27.72,1.63,56.38,3.31,86.75,20.63,34,19.37,66.63,56.77,99.88,114.35,9.08,15.73,19,23.75,30.15,24.53,26.28,1.89,56.42-36.21,91.34-80.27,46.1-58.18,98.35-124.11,159.31-121.18,124.42,6,126.55-28.6,129.24-72.44,1.22-20,2.61-42.67,16.41-63.62,15.79-24,45.47-42.12,90.73-55.42,83.95-24.66,168.18-4.75,250.36,59.18C2053.46,226,2102.6,294.2,2132,335c12.55,17.41,21.62,30,24.76,30.53a.37.37,0,0,0,.33,0l.79,1.07a1.8,1.8,0,0,1-1.36.26c-3.53-.6-10.81-10.51-25.63-31.08-29.32-40.68-78.39-108.77-145.67-161.11-81.81-63.64-165.62-83.47-249.11-59-100.78,29.6-103.65,76.49-106.19,117.87-1.32,21.6-2.58,42-19.31,55.73-18.34,15-53.72,20.74-111.35,17.94-60.26-2.97-112.26,62.7-158.21,120.62C1306.74,471.14,1277,508.69,1250.47,508.69Z" transform="translate(6271.66 -5478)" fill="url(#linear-gradient)"/>
    <path id="Path_11131" data-name="Path 11131" d="M1250.12,509.1a16.284,16.284,0,0,1-2.42-.12c-11.65-1.08-21.66-9.92-30.62-27-70.31-134.44-129.89-135.44-187.5-136.41-37.35-.63-76-1.28-116.51-38.83-10.36-9.6-18.14-23.73-24.39-36.27-22.47-45.15-54-74.07-93.78-86-58.67-17.56-134.64.21-232.26,54.32-22.79,12.63-51.4,20.54-81.7,28.92l-10.57,2.93C302.93,317.39,82,258.21,18.26,239c-1.27-.39-2.19-.66-2.75-.82l.39-1.26,2.76.83C82.3,256.93,302.92,316,470,269.39c3.55-1,7.08-2,10.57-2.94,30.21-8.35,58.74-16.24,81.39-28.8,98-54.29,174.29-72.1,233.34-54.43,40.14,12,72,41.16,94.6,86.64,6.2,12.44,13.9,26.44,24.11,35.9,40.16,37.19,76.8,37.81,115.59,38.46,58,1,118,2,188.69,137.13,8.73,16.68,18.39,25.3,29.54,26.33,25.53,2.39,55.91-35.39,91.05-79.12,47.89-59.61,102.18-127.2,165.82-123.65,61.51,3.4,98.5-2.35,116.43-18.09,15.18-13.33,15.89-32.34,16.71-54.35,1.52-40.47,3.41-90.83,105.3-123.19,196.56-62.43,341.79,149.33,396.46,229,11.07,16.14,19.06,27.81,21.56,28.26l.88,1.07a1.51,1.51,0,0,1-1.13.22c-2.94-.54-9-9.23-22.44-28.82-54.47-79.45-199.33-290.6-394.91-228.49-101,32.08-102.86,81.93-104.36,122-.84,22.3-1.56,41.57-17.16,55.27-18.21,16-55.52,21.84-117.42,18.42-62.88-3.44-117,63.8-164.67,123.15C1305.65,472.05,1275.88,509.09,1250.12,509.1Z" transform="translate(6271.66 -5478)" fill="url(#linear-gradient)"/>
    <path id="Path_11132" data-name="Path 11132" d="M1249.71,509.53a24.5,24.5,0,0,1-2.85-.16c-11.61-1.34-21.42-10.79-30-28.9C1150,339.23,1087.61,340.62,1027.29,342c-39.87.89-77.51,1.73-115.75-35.93-8.23-8.11-15.28-19.26-23.56-37.28C867,223.2,836.82,194,798.16,181.82c-57.71-18.1-134.51.29-234.8,56.24-25.38,14.16-58.23,22.22-93,30.75-74.69,18.32-169.28,18.34-281.17,0a1366.25,1366.25,0,0,1-173-40.31l-3.24-1,.39-1.25,3.26,1c64.74,19.69,288.84,80.67,453.4,40.3,34.7-8.55,67.46-16.55,92.68-30.62,100.64-56.15,177.8-74.58,235.9-56.35,39,12.24,69.53,41.74,90.64,87.66,8.1,17.63,15.29,29,23.29,36.9,37.82,37.25,75.19,36.41,114.75,35.53,60.75-1.37,123.58-2.77,190.84,139.25,8.36,17.67,17.82,26.87,28.92,28.15,24.88,2.87,55.39-34.62,90.72-78,23.74-29.14,50.63-62.18,79.34-86.78,33-28.29,63.42-41.15,93-39.33,64.89,4,103.51-1.63,121.53-17.71,14.93-13.32,15.21-32.47,15.53-54.64.59-41.23,1.33-92.54,103.43-127.42,84.39-28.83,169.62-7.2,253.33,64.31,68,58.09,117,133.29,143.36,173.69,8.88,13.62,16.54,25.38,18.28,25.51l.68,1.1a1.21,1.21,0,0,1-.95.18c-2.37-.46-7.28-7.87-19.16-26.09-26.29-40.35-75.24-115.44-143.11-173.42-83.31-71.16-168.08-92.71-252-64.05-101.22,34.58-102,85.38-102.54,126.2-.32,22.48-.6,41.89-16,55.59-18.31,16.34-57.25,22.07-122.54,18.05-65.59-4-124.17,67.85-171.21,125.62C1304.54,473,1274.76,509.53,1249.71,509.53Z" transform="translate(6271.66 -5478)" fill="url(#linear-gradient)"/>
    <path id="Path_11133" data-name="Path 11133" d="M1249.62,510.32a24.18,24.18,0,0,1-3.3-.22c-11.69-1.61-21.39-11.79-29.67-31.1C1153.18,330.85,1088,334.72,1024.94,338.46c-40.61,2.4-79,4.68-114.92-33.06-8.12-8.51-15.13-20.32-22.74-38.29-19.5-46-48.47-75.65-86.09-88-56.69-18.59-134.24.45-237.1,58.21-25.92,14.55-59.15,22.33-93.78,29.65C312.43,300.37,98.77,244,14.23,218.17L10.34,217l.39-1.25c.74.21,2.06.62,3.91,1.18C99.07,242.69,312.46,299,470,265.71c34.52-7.3,67.64-15,93.39-29.51,103.22-58,181.14-77,238.21-58.31,38,12.46,67.26,42.32,86.91,88.73,7.55,17.81,14.48,29.5,22.48,37.9,35.53,37.28,73.57,35,113.84,32.63,31.33-1.85,63.72-3.78,96.19,13.44,36.63,19.42,68.31,61.26,96.86,127.91,8.08,18.85,17.44,28.76,28.62,30.3,24.38,3.38,55.32-33.81,91.12-76.85,48.64-58.49,109.18-131.31,177.85-129s109.1-4.51,127.15-21.48c14.43-13.57,14.25-32.29,14-54-.39-40.56-.89-91,101.4-128.47,84.83-31,170.76-8.26,255.42,67.71,68.37,61.35,117.81,141.36,141.57,179.81,7.52,12.17,13.46,21.77,14.88,22.21a.31.31,0,0,0-.27.06l.78,1.07a1,1,0,0,1-.8.14c-1.8-.37-5.45-6.15-15.75-22.81-23.73-38.4-73.11-118.3-141.34-179.52-84.25-75.61-169.71-98.3-254-67.45-101.4,37.11-100.91,87.08-100.52,127.24.22,22,.4,41-14.45,54.91-18.33,17.23-59,24.18-128.14,21.85-68-2.3-128.29,70.21-176.74,128.46C1304.2,474.25,1274.2,510.32,1249.62,510.32Z" transform="translate(6271.66 -5478)" fill="url(#linear-gradient-4)"/>
    <path id="Path_11134" data-name="Path 11134" d="M1249,510.72a22.24,22.24,0,0,1-3.57-.28c-11.63-1.82-21.11-12.59-29-32.91-26.88-69.45-58-112.55-95.28-131.78-32.84-17-66.28-13.81-98.62-10.76-41.29,3.88-80.3,7.55-114-30.24-8-8.95-15-21.44-21.91-39.29-18.16-46.66-46-76.67-82.78-89.21-55.77-19-133.94.73-239,60.35-26.86,15.11-61.31,22.66-94.53,28.55C315,292.72,98.37,234.26,12.45,207.85c-2.25-.7-3.84-1.18-4.69-1.43l.39-1.25c.86.25,2.45.74,4.71,1.43C98.69,233,315,291.38,470,263.87c33.11-5.88,67.42-13.39,94.1-28.4,105.41-59.82,184-79.6,240.12-60.45,37.16,12.67,65.29,42.94,83.6,90,6.89,17.7,13.77,30.06,21.67,38.9,33.28,37.28,72,33.64,112.88,29.78,32.54-3.06,66.19-6.23,99.39,10.92,37.54,19.38,68.92,62.71,95.91,132.47,7.69,19.84,16.82,30.34,27.93,32.08,23.7,3.73,54.69-33.15,90.55-75.85,50.4-60,113.08-134.71,184.72-131.27,73.06,3.53,113.82-2.63,132.16-20,14.25-13.47,13.64-32.45,13-54.43-1.33-41.72-3-93.63,99.53-133.65,85.48-33.38,172.32-9.17,258.12,72,68.78,65,118.18,149.63,139.27,185.75,5.78,9.9,10.34,17.72,11.4,18.27a.519.519,0,0,0-.45.06l.78,1.07a.92.92,0,0,1-.69.13c-1.31-.29-4-4.77-12.22-18.88-21.07-36.08-70.39-120.56-139-185.46C1937.34,86.14,1851,62,1766.05,95.19c-101.63,39.68-100,91.09-98.69,132.4.71,22.28,1.32,41.53-13.35,55.4-18.63,17.62-59.7,23.9-133.18,20.35-70.87-3.45-133.39,71-183.6,130.78C1302.84,475.08,1272.91,510.72,1249,510.72Z" transform="translate(6271.66 -5478)" fill="url(#linear-gradient)"/>
    <path id="Path_11135" data-name="Path 11135" d="M1248.38,511.16a22.568,22.568,0,0,1-4-.34c-11.57-2-20.79-13.41-28.21-34.76-25.42-72.53-56.33-117.1-94.48-136.25-33.57-16.86-68.23-12.46-101.75-8.21-41.89,5.32-81.45,10.34-113-27.49-7.88-9.44-14.77-22.63-21.08-40.31-16.84-47.21-43.55-77.59-79.38-90.31-55.34-19.64-131.9.18-241,62.38-22.5,12.76-51.89,21.22-95.3,27.45-71.28,10.23-164.47,3.92-277-18.75a1860.949,1860.949,0,0,1-182.38-47c-2.78-.86-4.71-1.46-5.71-1.75l.39-1.25c1,.29,2.94.89,5.74,1.75C98.47,223.38,317.67,283.9,470,262c43.23-6.2,72.47-14.62,94.81-27.28C674.29,172.33,751.22,152.48,807,172.26c36.23,12.86,63.21,43.52,80.19,91.11,6.26,17.54,13.08,30.6,20.86,39.91,31.09,37.26,70.29,32.29,111.79,27,33.73-4.28,68.61-8.7,102.56,8.35,38.48,19.32,69.6,64.13,95.13,137,7.25,20.86,16.14,31.95,27.17,33.9,23,4,54-32.52,89.95-74.88,52.19-61.58,117.16-138.2,191.69-133.59,76.49,4.74,118.79-.93,137.15-18.4,14.06-13.37,13-32.61,11.88-54.89-2.25-42.89-5-96.26,97.67-138.91,86.48-35.9,174.57-9.83,261.81,77.5,69.29,69.35,117.82,157.9,136.1,191.23,4,7.26,7.12,13,7.8,13.53a.59.59,0,0,0-.64,0l.79,1.07-.62.11c-.85-.19-2-2.13-8.53-14.12-159.7-291.25-303.6-306.55-396.21-268.1-101.84,42.28-99.07,95.15-96.84,137.63,1.18,22.6,2.2,42.11-12.29,55.9-18.66,17.74-61.27,23.54-138.18,18.77-73.81-4.57-138.56,71.77-190.56,133.1C1300.05,477.5,1271.51,511.16,1248.38,511.16Z" transform="translate(6271.66 -5478)" fill="url(#linear-gradient)"/>
    <path id="Path_11136" data-name="Path 11136" d="M1247.68,511.57a21.814,21.814,0,0,1-4.13-.39C1232,509,1223,497,1216,474.59c-23.82-75.7-54.38-121.76-93.45-140.82-34.31-16.73-70.25-11-105-5.54-42.51,6.73-82.66,13.09-112.13-24.78-7.86-10.1-14.49-23.61-20.25-41.31C869.6,214.33,844,183.55,809,170.67c-54.08-19.93-131.22.55-242.77,64.47-23.07,13.18-54.49,21.8-96.05,26.35C325.62,277.32,119.53,221.88,9.56,187.43c-3.45-1.08-5.81-1.82-7-2.15L3,184c1.18.34,3.55,1.09,7,2.17,109.87,34.42,315.74,89.8,460.08,74,41.37-4.53,72.61-13.09,95.51-26.17C677.5,169.88,755,149.36,809.52,169.45c35.35,13,61.25,44.09,77,92.3,5.72,17.55,12.28,30.94,20,40.92,29,37.23,68.73,30.94,110.82,24.27,68.6-10.86,146.35-23.18,200,147.27,6.86,21.89,15.53,33.56,26.51,35.69,22.45,4.34,53.46-32,89.39-74,53.93-63.07,121-141.57,198.53-135.78,79.91,6,123.73.8,142.1-16.77,13.89-13.29,12.48-32.78,10.86-55.36-3.18-44.07-7.13-98.91,95.78-144.21,48.12-21.19,97.49-22.06,146.77-2.6,40.32,15.93,80.92,45.57,120.67,88.11,46.41,49.67,90.54,115.4,131.16,195.37,2.16,4.25,3.72,7.32,4,7.69l-.49.4.45.62-.58.1c-.49-.13-.53-.13-4.64-8.23-40.56-79.86-84.62-145.5-130.95-195.08C1958.05,75.08,1868.61,46.41,1781,85c-102.06,44.92-98.15,99.27-95,142.93,1.65,22.9,3.07,42.67-11.25,56.38-18.68,17.86-62.83,23.14-143.17,17.14-76.76-5.74-143.64,72.47-197.37,135.31C1298.75,478.26,1270.27,511.57,1247.68,511.57Z" transform="translate(6271.66 -5478)" fill="url(#linear-gradient)"/>
    <path id="Path_11137" data-name="Path 11137" d="M1247,512a21,21,0,0,1-4.28-.43c-11.49-2.41-20.28-15-26.88-38.44-49.68-176.62-129.9-161.51-200.67-148.19-27.84,5.24-54.14,10.19-76.74,3.31-25.36-7.72-42.49-29.25-53.9-67.75C869.92,211.34,846,181,811.41,167.81c-53.51-20.45-128.9.1-244.42,66.6-56.66,32.62-159.65,35.3-306.12,8-76.24-14.23-161.14-36.1-252.35-65C4.2,176,1.35,175.1,0,174.71l.39-1.26c1.37.4,4.23,1.3,8.55,2.68,91.16,28.88,176,50.74,252.18,65,146.14,27.27,248.81,24.65,305.17-7.8,53.16-30.6,97.15-51.08,134.5-62.62,45.33-14,81.67-15.33,111.12-4.08,34.54,13.19,59.39,44.66,73.87,93.54,24.65,83.17,73,74.06,129.08,63.52,71.35-13.44,152.23-28.66,202.24,149.13,6.46,22.94,14.91,35.2,25.85,37.5,21.85,4.57,52.89-31.45,88.84-73.17,55.65-64.57,124.89-144.92,205.35-137.95,83.33,7.23,128.68,2.58,147-15.09,13.71-13.19,11.93-32.94,9.85-55.81-2-22.33-4.31-47.64,6.8-73.5,12.84-29.89,41.33-54.78,87.1-76.09s92.6-23.3,139.54-6.11c79.73,29.21,146.19,109.56,187.9,171.81,45.18,67.42,71.87,128.74,72.13,129.35l-1.25.5c-.26-.61-26.92-61.83-72-129.15C2072.63,183,2006.37,102.86,1927,73.79c-46.58-17.07-93.17-15-138.47,6.06-102.25,47.61-97.2,103.44-93.13,148.3,2.1,23.19,3.91,43.22-10.25,56.85-18.68,18-64.37,22.73-148.13,15.46-79.74-6.93-148.74,73.15-204.18,137.48C1297.44,479,1269,512,1247,512Z" transform="translate(6271.66 -5478)" fill="url(#linear-gradient)"/>
  </g>
</svg>
