<svg viewBox="0 0 13.602 19.092">
  <path id="sec1" d="M1185.264,139.54H1177.8a3.446,3.446,0,0,1-.151-1.02,3.511,3.511,0,0,1,3.506-3.508,3.243,3.243,0,0,1,3.256,1.863.961.961,0,0,0,1.725-.845,5.123,5.123,0,0,0-4.981-2.939,5.43,5.43,0,0,0-5.227,6.9,2.9,2.9,0,0,0-1.367,2.458v6.844a2.911,2.911,0,0,0,2.9,2.89h7.8a2.911,2.911,0,0,0,2.9-2.9v-6.844A2.911,2.911,0,0,0,1185.264,139.54Zm-2.708,8.964H1180.3a.392.392,0,0,1-.369-.528l.748-2.018a.709.709,0,0,0-.181-.774,1.389,1.389,0,1,1,1.854,0,.705.705,0,0,0-.177.772l.746,2.018a.392.392,0,0,1-.369.524Z" transform="translate(-1174.56 -133.09)" fill="#fff"/>
</svg>
