<svg viewBox="0 0 26.998 36.808">
  <g id="Group_13027" data-name="Group 13027" transform="translate(0 0)">
    <path id="Path_10929" data-name="Path 10929" d="M99.726,316H76.152a1.649,1.649,0,0,0-1.712,1.578v20.444a1.649,1.649,0,0,0,1.712,1.578H99.726a1.65,1.65,0,0,0,1.712-1.578v-20.59A1.666,1.666,0,0,0,99.726,316ZM89.572,327.525v5.983H86.625v-6.129a2.747,2.747,0,0,1-1.5-3.18,3.138,3.138,0,0,1,5.941,0,2.747,2.747,0,0,1-1.5,3.18Z" transform="translate(-74.44 -302.792)" fill="#ced0da"/>
    <path id="Path_10930" data-name="Path 10930" d="M81.336,329.28a7.654,7.654,0,0,1-3.6-6.386c0-4.4,3.927-7.965,8.772-7.965s8.772,3.566,8.772,7.965a7.654,7.654,0,0,1-3.6,6.386h3.84A9.747,9.747,0,0,0,94.3,315.171a12.349,12.349,0,0,0-15.587,0A9.747,9.747,0,0,0,77.5,329.28Z" transform="translate(-72.865 -312.401)" fill="#ced0da"/>
  </g>
</svg>
