<svg xmlns="http://www.w3.org/2000/svg" width="19.66" height="23.03" viewBox="0 0 19.66 23.03">
  <g id="add-documents" transform="translate(-5.188)">
    <g id="Group_12712" data-name="Group 12712" transform="translate(5.188)">
      <path id="Path_3798" data-name="Path 3798" d="M24.841,7.523a.685.685,0,0,0-.036-.178l-.021-.057a.659.659,0,0,0-.136-.2L17.759.2A.693.693,0,0,0,17.551.06L17.5.041a.665.665,0,0,0-.186-.036L17.28,0H12.729A2.971,2.971,0,0,0,9.761,2.968v.4H8.155A2.971,2.971,0,0,0,5.188,6.335V20.062A2.971,2.971,0,0,0,8.155,23.03h9.151a2.971,2.971,0,0,0,2.967-2.968v-.4H21.88a2.971,2.971,0,0,0,2.968-2.968V7.568Zm-6.882-5.2,4.567,4.568H19.567A1.61,1.61,0,0,1,17.959,5.28V2.321Zm.955,17.741a1.61,1.61,0,0,1-1.608,1.608H8.155a1.61,1.61,0,0,1-1.608-1.608V6.334A1.61,1.61,0,0,1,8.155,4.726h3.871v3.92a2.971,2.971,0,0,0,2.968,2.968h3.92ZM13.386,8.647V5.688l4.567,4.567H14.994A1.61,1.61,0,0,1,13.386,8.647Zm10.1,8.047A1.61,1.61,0,0,1,21.88,18.3H20.274V10.935l-.006-.044a.69.69,0,0,0-.036-.178l-.023-.061a.667.667,0,0,0-.133-.2l-6.889-6.89A.65.65,0,0,0,13,3.435a.5.5,0,0,0-.067-.026.655.655,0,0,0-.178-.036h0l-.045-.007H11.121v-.4A1.61,1.61,0,0,1,12.729,1.36H16.6V5.28a2.971,2.971,0,0,0,2.967,2.968h3.92Z" transform="translate(-5.188)" fill="#358ed7"/>
      <path id="Path_3799" data-name="Path 3799" d="M20.756,37.4a.65.65,0,0,0-1.3,0v2.33h-2.33a.65.65,0,1,0,0,1.3h2.33v2.33a.65.65,0,0,0,1.3,0v-2.33h2.33a.65.65,0,1,0,0-1.3h-2.33Z" transform="translate(-12.811 -24.811)" fill="#358ed7"/>
    </g>
  </g>
</svg>
