<svg xmlns="http://www.w3.org/2000/svg" width="26.41" height="26.404" viewBox="0 0 26.41 26.404">
  <g id="padlock" transform="translate(-11 -11)">
    <g id="Group_12640" data-name="Group 12640" transform="translate(11 11)">
      <path id="Path_3408" data-name="Path 3408" d="M36.31,211.8H12.1a1.1,1.1,0,0,0-.517,2.07v12.413a1.1,1.1,0,0,0,1.1,1.1H35.723a1.1,1.1,0,0,0,1.1-1.1V213.875a1.1,1.1,0,0,0-.512-2.075Zm-1.687,13.388H13.786V214H34.629v11.184Z" transform="translate(-11 -200.977)" fill="#358ed7"/>
      <path id="Path_3409" data-name="Path 3409" d="M225.666,322.959v2.1a1.1,1.1,0,1,0,2.2,0v-2.1a1.1,1.1,0,0,0-.534-2.059H226.2a1.1,1.1,0,0,0-.534,2.059Z" transform="translate(-213.561 -304.197)" fill="#358ed7"/>
      <path id="Path_3410" data-name="Path 3410" d="M12.1,19.349H36.31a1.1,1.1,0,1,0,0-2.2H36v-2.8A3.356,3.356,0,0,0,32.651,11H15.484a3.356,3.356,0,0,0-3.352,3.352v2.8H12.1a1.1,1.1,0,1,0,0,2.2Zm2.231-5A1.155,1.155,0,0,1,15.484,13.2H32.645A1.155,1.155,0,0,1,33.8,14.352v2.8H14.331v-2.8Z" transform="translate(-11 -11)" fill="#358ed7"/>
    </g>
  </g>
</svg>
