<svg xmlns="http://www.w3.org/2000/svg" width="30.477" height="30.477" viewBox="0 0 30.477 30.477">
  <g id="Icon" transform="translate(0.25 0.25)">
    <path id="Shape" d="M9.992,17.486a.617.617,0,0,1-.239-.047.624.624,0,0,1-.385-.577V12.49H7.494a.625.625,0,0,1,0-1.249h2.5a.624.624,0,0,1,.625.625v3.489l3.93-3.93a.622.622,0,0,1,.442-.183h3.747V1.249H1.249V5.621A.625.625,0,0,1,0,5.621v-5A.624.624,0,0,1,.625,0H19.36a.624.624,0,0,1,.625.625V11.866a.624.624,0,0,1-.625.625H15.247L10.434,17.3a.625.625,0,0,1-.442.183Z" transform="translate(9.992)" fill="#358ed7" stroke="#358ed7" stroke-width="0.5"/>
    <path id="Shape-2" data-name="Shape" d="M19.984,9.886H0V7.4A3.589,3.589,0,0,1,2.379,4.028L6.9,2.412V.17H8.152V3.292L2.8,5.2A2.339,2.339,0,0,0,1.249,7.4V8.637H18.735V7.4a2.34,2.34,0,0,0-1.548-2.2L11.833,3.292V0h1.249V2.412l4.525,1.616A3.59,3.59,0,0,1,19.984,7.4V9.886Z" transform="translate(0 20.091)" fill="#358ed7" stroke="#358ed7" stroke-width="0.5"/>
    <path id="Shape-3" data-name="Shape" d="M5.555,13.082C2.492,13.082,0,10.148,0,6.54S2.492,0,5.555,0,11.11,2.934,11.11,6.54,8.618,13.082,5.555,13.082Zm0-11.833c-2.374,0-4.306,2.374-4.306,5.291s1.932,5.293,4.306,5.293S9.861,9.46,9.861,6.541,7.929,1.25,5.555,1.25Z" transform="translate(4.314 8.513)" fill="#358ed7" stroke="#358ed7" stroke-width="0.5"/>
    <path id="Shape-4" data-name="Shape" d="M8.762,3.916a3.458,3.458,0,0,1-2.9-1.546A5.607,5.607,0,0,1,2.2,3.83,4.567,4.567,0,0,1,0,3.3L.58,2.193A3.317,3.317,0,0,0,2.2,2.58,3.992,3.992,0,0,0,5.358,1.013L5.887,0l.567.992c.819,1.434,1.64,1.865,3.022,1.6a2,2,0,0,1,.387-.027,1.018,1.018,0,0,0,.13,0L10.144,3.8a2.124,2.124,0,0,1-.293.013.6.6,0,0,0-.141,0,5.047,5.047,0,0,1-.949.1Z" transform="translate(4.712 11.355)" fill="#358ed7" stroke="#358ed7" stroke-width="0.5"/>
    <path id="Shape-5" data-name="Shape" d="M.625,0a.625.625,0,1,0,.625.625A.624.624,0,0,0,.625,0Z" transform="translate(22.482 6.245)" fill="#358ed7" stroke="#358ed7" stroke-width="0.5"/>
    <path id="Shape-6" data-name="Shape" d="M.625,0a.625.625,0,1,0,.625.625A.624.624,0,0,0,.625,0Z" transform="translate(19.36 6.245)" fill="#358ed7" stroke="#358ed7" stroke-width="0.5"/>
    <path id="Shape-7" data-name="Shape" d="M.625,0a.625.625,0,1,0,.625.625A.624.624,0,0,0,.625,0Z" transform="translate(16.237 6.245)" fill="#358ed7" stroke="#358ed7" stroke-width="0.5"/>
  </g>
</svg>
