<svg xmlns="http://www.w3.org/2000/svg" width="26" height="27" viewBox="0 0 26 27">
  <path id="Icon_64x64" data-name="Icon 64x64" d="M20.922,27H.852A.849.849,0,0,1,0,26.156V14.05a.849.849,0,0,1,.852-.844H4.226V.844A.849.849,0,0,1,5.078,0h12.1a.859.859,0,0,1,.62.265l3.75,3.929a.835.835,0,0,1,.232.579V9.9h3.373a.849.849,0,0,1,.852.844v9.9a.849.849,0,0,1-.852.844H21.775v4.659A.849.849,0,0,1,20.922,27ZM5.931,1.687V13.206H8.247a.849.849,0,0,1,.852.844V25.313H20.07V21.5h-7.6a.849.849,0,0,1-.852-.844v-9.9a.849.849,0,0,1,.852-.844h7.6V7.19H15.641a.849.849,0,0,1-.852-.844V1.687ZM1.7,14.894V25.313h5.69V14.894Zm11.619-2.382v7.3H24.3V13.244l-4.5,3.944a.859.859,0,0,1-1.13,0Zm1.523-.92,4.381,3.837,4.381-3.837Zm1.647-9.9V5.5H20.07V5.108L16.805,1.687Z" fill="#358ed7"/>
</svg>
