<svg xmlns="http://www.w3.org/2000/svg" width="20.736" height="17.832" viewBox="0 0 20.736 17.832">
  <path id="Twitter" d="M20.164.33a8.213,8.213,0,0,1-2.7,1.091A4.139,4.139,0,0,0,14.356,0,4.383,4.383,0,0,0,10.1,4.5a4.726,4.726,0,0,0,.11,1.025A11.867,11.867,0,0,1,1.443.822,4.7,4.7,0,0,0,.868,3.088,4.572,4.572,0,0,0,2.761,6.834,4.08,4.08,0,0,1,.832,6.273v.055a4.446,4.446,0,0,0,3.414,4.414,3.938,3.938,0,0,1-1.121.159,4.021,4.021,0,0,1-.8-.08A4.293,4.293,0,0,0,6.3,13.945,8.229,8.229,0,0,1,0,15.811a11.582,11.582,0,0,0,6.522,2.021c7.826,0,12.1-6.858,12.1-12.808,0-.2,0-.391-.011-.583a8.9,8.9,0,0,0,2.121-2.33,8.135,8.135,0,0,1-2.443.708A4.475,4.475,0,0,0,20.164.33" fill="#d3d5d6"/>
</svg>
