<svg viewBox="0 0 26.214 26.988">
  <g id="two-straight-arrows-square-shape-of-exchange" transform="translate(-1.75)">
    <path id="Path_10038" data-name="Path 10038" d="M1.75,4.6A4.592,4.592,0,0,0,4.759,8.937v14.2a.873.873,0,0,0,.774.8H12.28l-1.04.841a1.123,1.123,0,0,0-.42.863,1.308,1.308,0,0,0,.42.951,1.386,1.386,0,0,0,1,.4,1.406,1.406,0,0,0,1-.42C16.7,23.1,16.7,23.073,16.7,23.073a1.431,1.431,0,0,0,.376-1.062,1.4,1.4,0,0,0-.465-.951c0-.022-3.385-3.385-3.385-3.385a1.416,1.416,0,0,0-2.411,1,1.511,1.511,0,0,0,.42,1.039l1.04,1.106H8.762a.675.675,0,0,1-.686-.686V8.849a4.806,4.806,0,0,0,2.9-4.269A4.579,4.579,0,0,0,6.373,0,4.631,4.631,0,0,0,1.75,4.6ZM6.373,2.809A1.792,1.792,0,1,1,4.582,4.6,1.784,1.784,0,0,1,6.373,2.809Z" fill="#fff"/>
    <path id="Path_10039" data-name="Path 10039" d="M66.505,22.465a4.652,4.652,0,0,0-3.075-4.336V3.927a.692.692,0,0,0-.641-.73H56.02l1.04-.863a1.168,1.168,0,0,0,.42-.885A1.308,1.308,0,0,0,57.06.5a1.387,1.387,0,0,0-1-.4,1.407,1.407,0,0,0-1,.42L51.618,3.971a1.431,1.431,0,0,0-.376,1.062,1.4,1.4,0,0,0,.465.951l3.385,3.385a1.407,1.407,0,0,0,1,.42,1.387,1.387,0,0,0,1-.4,1.408,1.408,0,0,0,.42-1,1.46,1.46,0,0,0-.42-1.018L56.02,6.294h3.54c.376,0,.553.243.553.619V18.2a4.746,4.746,0,0,0-2.831,4.269,4.579,4.579,0,0,0,4.6,4.579A4.626,4.626,0,0,0,66.505,22.465Zm-4.557,1.792a1.792,1.792,0,1,1,1.792-1.792A1.785,1.785,0,0,1,61.948,24.257Z" transform="translate(-38.542 -0.078)" fill="#fff"/>
  </g>
</svg>
