<svg viewBox="0 0 33.572 33.572">
  <path id="User_Icon" data-name="User Icon" d="M946.474,278.572H917.1a2.1,2.1,0,0,1-2.1-2.1v-6.295c0-3.911,3.458-7.285,8.536-9.088a8.144,8.144,0,0,1-.143-1.4v-6.295a8.393,8.393,0,0,1,16.786,0v6.295a8.156,8.156,0,0,1-.143,1.4c5.078,1.8,8.536,5.177,8.536,9.088v6.295A2.1,2.1,0,0,1,946.474,278.572Zm-10.491-25.179a4.2,4.2,0,0,0-8.393,0v6.295a4.2,4.2,0,1,0,8.393,0Zm8.393,16.786c0-2.266-2.415-4.234-6.005-5.342a8.3,8.3,0,0,1-13.168,0c-3.59,1.108-6.005,3.076-6.005,5.342v4.2h25.179Z" transform="translate(-915 -245)" fill="#ced0da"/>
</svg>
