<svg xmlns="http://www.w3.org/2000/svg" width="27.21" height="19.852" viewBox="0 0 27.21 19.852">
  <path id="_190-1908859_play-youtube-svg-png-icon-free-download-music" data-name="190-1908859_play-youtube-svg-png-icon-free-download-music" d="M49.076,64.884c-4.22-.118-6.629-.4-7.8-.919a3.823,3.823,0,0,1-1.729-1.848,13.034,13.034,0,0,1-1.087-3.955,21.612,21.612,0,0,1,0-6.192c.462-3.369,1.444-5.444,2.858-6.035a19.568,19.568,0,0,1,5.717-.848c1-.061,8.479-.061,9.531,0,4.4.256,6.265.691,7.018,1.639,1.024,1.289,1.61,3.381,1.821,6.5.056.821.056,3.09,0,3.812-.258,3.37-1.027,5.611-2.234,6.517-.948.712-2.875,1.062-7.048,1.28-.654.034-6.17.07-7.046.045Zm5.906-1.17a37.941,37.941,0,0,0,5.242-.344c1.566-.237,2.146-.491,2.7-1.185,1.1-1.388,1.653-5.394,1.3-9.5-.233-2.718-.812-4.6-1.648-5.347-.618-.554-2.115-.866-5.108-1.067-1.866-.125-8.6-.149-10.6-.037-3.369.187-4.854.464-5.539,1.03-.9.746-1.51,2.61-1.85,5.679A27.965,27.965,0,0,0,39.51,57.5c.339,2.864.962,4.545,1.942,5.243.656.467,1.86.7,4.766.9,1.134.081,5.638.115,8.766.066ZM50.47,59.361a1.109,1.109,0,0,1-.743-.615c-.071-.154-.072-.167-.072-3.746V51.409l.082-.166a1.266,1.266,0,0,1,.59-.568,1.991,1.991,0,0,1,.877.047c.149.073.947.633,2.23,1.565,2.351,1.709,2.761,2.044,2.838,2.321a1.89,1.89,0,0,1,.038.391.816.816,0,0,1-.321.769c-.476.469-4.621,3.484-4.882,3.551a1.859,1.859,0,0,1-.636.041Zm1.4-1.93c.837-.6,3.055-2.22,3.26-2.38.06-.046.061-.055.012-.094-.294-.232-3.045-2.232-4.154-3.02-.089-.063-.172-.1-.185-.091-.035.035-.058,4.428-.028,5.446.02.7.034.874.069.861s.486-.334,1.026-.722Z" transform="translate(-38.236 -45.041)" fill="#d3d5d6"/>
</svg>
