<svg xmlns="http://www.w3.org/2000/svg" width="414.503" height="182.352" viewBox="0 0 414.503 182.352">
  <g id="Group_13968" data-name="Group 13968" transform="translate(7641.85 18190)">
    <path id="Path_14588" data-name="Path 14588" d="M309,313.39a70.625,70.625,0,0,1,28.34-56.563l-264.91,0L49.8,370H337.37A70.63,70.63,0,0,1,309,313.39Z" transform="translate(-7691.65 -18405.609)" fill="#32a742"/>
    <circle id="Ellipse_477" data-name="Ellipse 477" cx="56.57" cy="56.57" r="56.57" transform="translate(-7368.5 -18149.789)" fill="#32a742"/>
    <path id="Subtraction_2" data-name="Subtraction 2" d="M404.406,182.351H142.5v-6.22H404.09A78.161,78.161,0,0,0,459.6,42.941a79.848,79.848,0,0,0-56.159-23.51H126.35a16.324,16.324,0,0,1-16.007,13.21c-.52,0-1.05-.026-1.576-.076a16.32,16.32,0,0,1,0-32.49c.524-.05,1.054-.075,1.576-.075A16.322,16.322,0,0,1,126.35,13.21H403.443A84.982,84.982,0,0,1,464,38.564a84.241,84.241,0,0,1-59.6,143.787ZM110.262,6.21a10.09,10.09,0,0,0,0,20.181h.021a10.09,10.09,0,0,0-.008-20.181h-.013Z" transform="translate(-7716 -18190)" fill="#32a742"/>
    <g id="Group" transform="translate(-410 -357.613)">
      <text id="What_are_our_" data-name="What are our " transform="translate(-7178.756 -17743.338)" fill="#fff" font-size="30" font-family="Lato-Regular, Lato"><tspan x="0" y="0">What are our </tspan></text>
      <text id="values_" data-name="values?" transform="translate(-7136.021 -17707.338)" fill="#fff" font-size="30" font-family="Lato-Regular, Lato"><tspan x="0" y="0">values?</tspan></text>
    </g>
    <g id="Group_13410" data-name="Group 13410" transform="translate(-260 -5766.613)">
      <path id="Path_15683" data-name="Path 15683" d="M223.117,210.988q-2.148-1.864-4.259-3.754l-1.789.79a5.222,5.222,0,0,1-5.9-1.4s-1.409.674-3.517,1.662l.1,1.563A5.221,5.221,0,0,1,204.4,214.9s.3,3.162.631,7.2l1.784.264a5.217,5.217,0,0,1,4.241,4.337s2.212.259,5.287.651l.5-.991a5.226,5.226,0,0,1,5.432-2.7s1.171-2.558,2.754-5.91l-.849-.785a5.229,5.229,0,0,1-1.063-5.978Z" transform="translate(-7266.645 -12543.493)" fill="none"/>
      <path id="Path_15684" data-name="Path 15684" d="M100.272,20.77a4.2,4.2,0,0,1,1.908-.6,19.842,19.842,0,0,1-1.693-1.983c-.55-.763-1.046-1.568-1.528-2.376-1.028-1.72-1.983-3.481-2.929-5.249q-1.43-2.7-2.809-5.426a40.63,40.63,0,0,1,12.427-.81A42.956,42.956,0,0,1,117.426,6.97l.021-.055.144.055,1.487-3.856A48.37,48.37,0,0,0,94.884.609,43.465,43.465,0,0,0,83.843,3.966a46.756,46.756,0,0,0-9.388,5.783,46.685,46.685,0,0,0-4.875,4.263l2.878,2.8.083.081a41.268,41.268,0,0,1,3.868-3.418,49.3,49.3,0,0,1,4.368-3.159q1.632-1.033,3.364-1.907c2.067,3.356,4.153,6.7,6.326,9.982.95,1.432,1.9,2.9,2.984,4.226h0a31.562,31.562,0,0,0,2.521,2.67c.8-2.5,3.139-3.881,4.3-4.52Z" transform="translate(-7154.099 -12371.059)" fill="#45737e"/>
      <path id="Path_15685" data-name="Path 15685" d="M297.851,186.76l-2.9,1.279-1.793.788-1.247.55q2.121,1.885,4.259,3.754a5.225,5.225,0,0,0,1.056,5.974l.849.785,1.586,1.469,1.437,1.332,2.326,2.148a2.265,2.265,0,0,0,2.379.289,1.062,1.062,0,0,0,.653-.719,6.014,6.014,0,0,0,.053-.975c.012-.244.053-.411.3-.5.3-.1.61-.15.9-.271a1.391,1.391,0,0,0,.838-.743,4.329,4.329,0,0,0,.066-1.067c.073-.818.991-.636,1.541-.9a1,1,0,0,0,.593-.747,6.013,6.013,0,0,0,.056-.976c0-.213,0-.5.2-.633a4.862,4.862,0,0,1,.727-.213,1.534,1.534,0,0,0,.839-1.865,2.381,2.381,0,0,0-.648-1.178l-1.505-1.388c.729-.071.623-.952.42-1.437a6.139,6.139,0,0,0-1.259-1.768,8.507,8.507,0,0,0-3.914-2.392,6.857,6.857,0,0,0-1.257-.218c.012-.018.022-.038.033-.058a6.854,6.854,0,0,0-2.756.471l-.5-.43h0c-.464-.4-1.228-1.064-2.174-1.9a2.215,2.215,0,0,1-1.158,1.539Z" transform="translate(-7339.696 -12525.638)" fill="#45737e"/>
      <path id="Path_15686" data-name="Path 15686" d="M21.817,123.421a5.475,5.475,0,0,1,.086-2.288,25.731,25.731,0,0,1-4.429,1.427c-1.5.294-3.025.459-4.537.625-2.68.281-5.368.482-8.058.661a39.8,39.8,0,0,1,7.534-16.916L9.13,104.42a44.088,44.088,0,0,0-4.839,45.53q.8,1.7,1.745,3.324l3.57-2.075a39.9,39.9,0,0,1-4.342-10.955,40.57,40.57,0,0,1-.991-6.939c3.8-.558,7.59-1.133,11.359-1.85,1.252-.24,2.511-.479,3.737-.826a41.449,41.449,0,0,0,4.576-1.741l.121-.05c-1.548-1.067-1.878-2.447-2.244-5.421C21.685,122.343,22.182,126.4,21.817,123.421Z" transform="translate(-7096.089 -12458.178)" fill="#8b6a37"/>
      <path id="Path_15687" data-name="Path 15687" d="M218.423,133.12l.126,1.953.112,1.75c2.108-.991,3.517-1.662,3.517-1.662a5.236,5.236,0,0,0,5.9,1.4l1.789-.79,1.247-.55,1.793-.79,2.9-1.279a2.256,2.256,0,0,0,1.209-2.1,1.043,1.043,0,0,0-.459-.889,8.3,8.3,0,0,0-.826-.4c-.231-.112-.355-.221-.33-.5a5.856,5.856,0,0,0,.1-1.188,1.111,1.111,0,0,0-.532-.924c-.263-.152-.565-.226-.826-.385-.661-.41-.083-1.251-.154-1.849-.086-.714-.788-.914-1.348-1.18-.183-.088-.43-.19-.469-.415a3.5,3.5,0,0,1,.091-.7,1.487,1.487,0,0,0-1.138-1.507,2.416,2.416,0,0,0-1.578.071l-2.5,1.105c.188-.583-.415-1.031-.917-1.125a3.672,3.672,0,0,0-2.328.585,10.787,10.787,0,0,0-2.99,2.288,6.156,6.156,0,0,0-1.563,3.843s-.623.3-1.652.8a2.075,2.075,0,0,1,.623,1.269Z" transform="translate(-7277.655 -12472.033)" fill="#8b6a37"/>
      <path id="Path_15688" data-name="Path 15688" d="M164.683,376.286l-.173-.026v.221a1.022,1.022,0,0,1,.173-.2Z" transform="translate(-7233.345 -12685.105)" fill="#ea7128"/>
      <path id="Path_15689" data-name="Path 15689" d="M137.345,185.078l3.139.466,1.935.291,1.5.223c-.33-4.038-.631-7.2-.631-7.2a5.221,5.221,0,0,0,3.351-5.057l-.1-1.563-.112-1.75-.126-1.953-.2-3.166a2.243,2.243,0,0,0-1.664-1.887.991.991,0,0,0-.952.2c-.246.2-.441.461-.686.661a.435.435,0,0,1-.567.015,5.157,5.157,0,0,0-.9-.433A1.221,1.221,0,0,0,140.3,164a5.027,5.027,0,0,0-.661.639.7.7,0,0,1-.712.215,4.774,4.774,0,0,1-.772-.454,1.226,1.226,0,0,0-.962-.149,2.264,2.264,0,0,0-.772.6,1.845,1.845,0,0,1-.629.535c-.19.059-.373-.084-.522-.178a1.487,1.487,0,0,0-1.789.088,2.374,2.374,0,0,0-.762,1.817l.154,2.389a1.183,1.183,0,0,0-.889.056,1.886,1.886,0,0,0-.775,1.624,12.23,12.23,0,0,0,.216,2.686,11.564,11.564,0,0,0,.464,2.085,4.2,4.2,0,0,0,1.049,1.687,7.821,7.821,0,0,0,2.521,1.451s.281,2.723.577,6.278A2.055,2.055,0,0,1,137.345,185.078Z" transform="translate(-7205.532 -12507.444)" fill="#ea7128"/>
      <path id="Path_15690" data-name="Path 15690" d="M71.444,384.568c-3.159-.2-4.377-.8-4.74-1.378a23.3,23.3,0,0,1-.633,3.691c-.406,1.793-.876,3.569-1.363,5.34q-.808,2.929-1.679,5.84A39.88,39.88,0,0,1,50.8,386.582l-.111.078L47.4,388.941A44,44,0,0,0,92.418,407l-.826-4.046-.165.031v-.031a39.487,39.487,0,0,1-19.618-.963c.773-3.674,1.527-7.355,2.182-11.053a39.469,39.469,0,0,0,.826-6.6,11.312,11.312,0,0,1-3.379.228Z" transform="translate(-7135.583 -12690.892)" fill="#ea7128"/>
      <path id="Path_15691" data-name="Path 15691" d="M169.453,304.31l.869-1.755.981-1.983c-3.075-.392-5.287-.651-5.287-.651a5.23,5.23,0,0,0-4.244-4.334l-1.784-.264-1.5-.22-1.936-.288-3.139-.466a2.249,2.249,0,0,0-2.182,1.208,1,1,0,0,0-.025.971c.147.292.363.54.515.826a.425.425,0,0,1-.086.545,6.145,6.145,0,0,0-.578.729,1.321,1.321,0,0,0-.225,1.026,3.6,3.6,0,0,0,.509.846.7.7,0,0,1,.053.776,4.8,4.8,0,0,1-.588.633,1.261,1.261,0,0,0-.359.882,2.093,2.093,0,0,0,.41.881,2.121,2.121,0,0,1,.41.74c.033.2-.135.35-.261.477a1.5,1.5,0,0,0-.3,1.8,2.376,2.376,0,0,0,1.614,1.109l.444.066.173.026a.857.857,0,0,0-.21,1.132,1.322,1.322,0,0,0,.273.3,3.4,3.4,0,0,0,1.135.552,11.407,11.407,0,0,0,2.131.415,18.094,18.094,0,0,0,2.624.131,8.5,8.5,0,0,0,3.26-.709,5.948,5.948,0,0,0,2.455-2.075s1.3.142,3.261.378a1.837,1.837,0,0,1,.165-.864Z" transform="translate(-7221.604 -12616.714)" fill="#b545aa"/>
      <path id="Path_15692" data-name="Path 15692" d="M372.263,59.613a5.851,5.851,0,0,1,1.826,2.6,16.566,16.566,0,0,1,1.133-1.67c.393-.5.808-.975,1.231-1.446,1.148-1.277,2.354-2.5,3.57-3.717,1.875-1.874,3.79-3.709,5.718-5.528a40.189,40.189,0,0,1,4.831,18.132l4.13-.1A43.975,43.975,0,0,0,371.018,29.85l-1.913,3.66a40.044,40.044,0,0,1,11.015,8.447c-2.478,2.746-4.927,5.507-7.319,8.322a43.531,43.531,0,0,0-4.844,6.4c-.145.251-.286.506-.426.758a8.154,8.154,0,0,1,4.733,2.171C373.445,60.74,371.442,58.82,372.263,59.613Z" transform="translate(-7402.823 -12395.929)" fill="#ffc811"/>
      <path id="Path_15693" data-name="Path 15693" d="M272.593,291.3a20.4,20.4,0,0,0,.762-3.508,5.98,5.98,0,0,0-1.185-4.14s.8-1.773,1.958-4.263a1.853,1.853,0,0,1-.758-.4l-2.326-2.148-1.437-1.332-1.586-1.469c-1.583,3.352-2.754,5.91-2.754,5.91a5.216,5.216,0,0,0-5.432,2.7l-.5.991-.981,1.983-.869,1.755-1.4,2.827a2.262,2.262,0,0,0,.4,2.369,1.057,1.057,0,0,0,.877.416,6.522,6.522,0,0,0,.966-.23c.235-.055.395-.048.539.157.165.235.292.5.468.729a1.566,1.566,0,0,0,.869.636,2.523,2.523,0,0,0,1.047-.2.721.721,0,0,1,.811.183,6.8,6.8,0,0,1,.441.79,1.173,1.173,0,0,0,.772.58,2.522,2.522,0,0,0,.975-.152,1.6,1.6,0,0,1,.8-.131c.208.061.287.314.382.484a1.487,1.487,0,0,0,1.888.644,2.427,2.427,0,0,0,1.237-1.1l1.117-2.255a.928.928,0,0,0,.836.471,1.572,1.572,0,0,0,1.049-.388,3.575,3.575,0,0,0,1.042-1.921C272.889,290.114,272.3,292.5,272.593,291.3Z" transform="translate(-7309.642 -12599.783)" fill="#ffc811"/>
      <path id="Path_15694" data-name="Path 15694" d="M359.738,277.74v.008l-.165-.008a38.627,38.627,0,0,1-5.518,17.843c-3.479-1.543-6.969-3.071-10.5-4.487-1.252-.5-2.511-.991-3.8-1.414a31.648,31.648,0,0,0-4.382-.973,8.832,8.832,0,0,1-.3,4.71c-.3,1.076-.516,2.478-1.591,3.076a21.781,21.781,0,0,1,2.358.618c.565.192,1.118.42,1.667.661,1.555.672,3.076,1.426,4.586,2.192,2.065,1.049,4.111,2.148,6.144,3.245a42.481,42.481,0,0,1-17.8,11.069l1.224,3.945.15-.048.015.048a45.647,45.647,0,0,0,9.987-4.486,46.745,46.745,0,0,0,15.813-15.771,44.036,44.036,0,0,0,4.7-10.724,40.983,40.983,0,0,0,1.537-9.312Z" transform="translate(-7371.852 -12602.862)" fill="#b545aa"/>
    </g>
  </g>
</svg>
