<svg xmlns="http://www.w3.org/2000/svg" xmlns:xlink="http://www.w3.org/1999/xlink" width="414.504" height="182.352" viewBox="0 0 414.504 182.352">
  <defs>
    <linearGradient id="linear-gradient" x1="0.479" y1="1.434" x2="0.515" y2="0.046" gradientUnits="objectBoundingBox">
      <stop offset="0" stop-color="#f8ffac"/>
      <stop offset="0.12" stop-color="#e0f18f"/>
      <stop offset="0.37" stop-color="#a2cf46"/>
      <stop offset="0.4" stop-color="#9aca3c"/>
      <stop offset="0.58" stop-color="#64a836"/>
      <stop offset="0.77" stop-color="#2e8630"/>
      <stop offset="0.92" stop-color="#0d712c"/>
      <stop offset="1" stop-color="#00692b"/>
    </linearGradient>
    <linearGradient id="linear-gradient-2" x1="0.475" y1="1.451" x2="0.512" y2="0.063" xlink:href="#linear-gradient"/>
    <radialGradient id="radial-gradient" cx="0.717" cy="0.25" r="1.615" gradientTransform="translate(0.232) scale(0.536 1)" gradientUnits="objectBoundingBox">
      <stop offset="0" stop-color="#f1f2f2"/>
      <stop offset="0.99" stop-color="#bfe861"/>
    </radialGradient>
    <radialGradient id="radial-gradient-2" cx="3.849" cy="-5.198" r="9.201" gradientTransform="translate(-0.364) scale(1.729 1)" xlink:href="#linear-gradient"/>
    <radialGradient id="radial-gradient-3" cx="5.913" cy="-0.511" r="2.16" gradientTransform="translate(-0.661) scale(2.322 1)" xlink:href="#linear-gradient"/>
    <radialGradient id="radial-gradient-4" cx="1.828" cy="-1.851" r="7.82" gradientTransform="translate(0.134) scale(0.733 1)" xlink:href="#linear-gradient"/>
    <radialGradient id="radial-gradient-5" cx="1.227" cy="-0.424" r="1.79" gradientTransform="translate(0.099) scale(0.803 1)" xlink:href="#linear-gradient"/>
    <radialGradient id="radial-gradient-6" cx="14.121" cy="-10.644" r="44.965" gradientTransform="translate(-1.87) scale(4.739 1)" xlink:href="#linear-gradient"/>
    <linearGradient id="linear-gradient-3" x1="0.5" y1="1.082" x2="0.5" y2="-0.126" gradientUnits="objectBoundingBox">
      <stop offset="0" stop-color="#fff"/>
      <stop offset="0.21" stop-color="#f8fdff"/>
      <stop offset="0.53" stop-color="#e3f8fe"/>
      <stop offset="0.91" stop-color="#c2f0fd"/>
      <stop offset="1" stop-color="#b9eefd"/>
    </linearGradient>
    <linearGradient id="linear-gradient-4" y1="1.2" y2="-0.409" xlink:href="#linear-gradient-3"/>
    <linearGradient id="linear-gradient-5" x1="-0.22" y1="1.064" x2="1.951" y2="-0.638" gradientUnits="objectBoundingBox">
      <stop offset="0.01" stop-color="#ff0"/>
      <stop offset="0.21" stop-color="#ffe200"/>
      <stop offset="0.65" stop-color="#f90"/>
      <stop offset="1" stop-color="#ff5a00"/>
    </linearGradient>
    <linearGradient id="linear-gradient-6" x1="-11.969" y1="2.665" x2="12.441" y2="-1.576" xlink:href="#linear-gradient-5"/>
    <linearGradient id="linear-gradient-7" x1="-3.343" y1="1.168" x2="21.065" y2="-3.065" xlink:href="#linear-gradient-5"/>
    <linearGradient id="linear-gradient-8" x1="-2.504" y1="11.193" x2="2.855" y2="-7.924" xlink:href="#linear-gradient-5"/>
    <linearGradient id="linear-gradient-9" x1="-0.095" y1="2.586" x2="5.345" y2="-16.595" xlink:href="#linear-gradient-5"/>
    <linearGradient id="linear-gradient-10" x1="-3.834" y1="3.893" x2="3.176" y2="-1.593" xlink:href="#linear-gradient-5"/>
    <linearGradient id="linear-gradient-11" x1="0.151" y1="0.773" x2="7.151" y2="-4.713" xlink:href="#linear-gradient-5"/>
    <linearGradient id="linear-gradient-12" x1="-2.091" y1="2.528" x2="4.937" y2="-2.982" xlink:href="#linear-gradient-5"/>
    <linearGradient id="linear-gradient-13" x1="-1.597" y1="2.145" x2="5.399" y2="-3.343" xlink:href="#linear-gradient-5"/>
    <linearGradient id="linear-gradient-14" x1="0.247" y1="0.395" x2="2.07" y2="1.601" xlink:href="#linear-gradient"/>
    <linearGradient id="linear-gradient-15" x1="0.248" y1="0.394" x2="2.068" y2="1.598" xlink:href="#linear-gradient"/>
    <linearGradient id="linear-gradient-16" x1="0.286" y1="0.42" x2="2.108" y2="1.625" xlink:href="#linear-gradient"/>
    <linearGradient id="linear-gradient-17" x1="-0.124" y1="0.059" x2="1.708" y2="1.708" xlink:href="#linear-gradient"/>
    <linearGradient id="linear-gradient-18" x1="-0.168" y1="0.147" x2="1.399" y2="1.184" xlink:href="#linear-gradient"/>
    <linearGradient id="linear-gradient-19" x1="-0.174" y1="-0.026" x2="1.262" y2="1.372" xlink:href="#linear-gradient"/>
    <linearGradient id="linear-gradient-20" x1="-0.477" y1="-0.382" x2="1.003" y2="1.067" xlink:href="#linear-gradient"/>
    <linearGradient id="linear-gradient-21" x1="-0.421" y1="-0.232" x2="0.666" y2="0.778" gradientUnits="objectBoundingBox">
      <stop offset="0" stop-color="#e2e41a"/>
      <stop offset="0.13" stop-color="#c5da28"/>
      <stop offset="0.3" stop-color="#9aca3c"/>
      <stop offset="0.5" stop-color="#64a836"/>
      <stop offset="0.73" stop-color="#2e8630"/>
      <stop offset="0.91" stop-color="#0d712c"/>
      <stop offset="1" stop-color="#00692b"/>
    </linearGradient>
    <linearGradient id="linear-gradient-22" x1="0.326" y1="-0.232" x2="1.412" y2="0.778" xlink:href="#linear-gradient-21"/>
  </defs>
  <g id="Group_13970" data-name="Group 13970" transform="translate(6946.85 18202)">
    <g id="Group_13969" data-name="Group 13969" transform="translate(695 -314)">
      <path id="Path_14588" data-name="Path 14588" d="M309,313.39a70.625,70.625,0,0,1,28.34-56.563l-264.91,0L49.8,370H337.37A70.63,70.63,0,0,1,309,313.39Z" transform="translate(-7691.65 -18103.609)" fill="#b545aa"/>
      <path id="Path_15682" data-name="Path 15682" d="M56.57,0A56.57,56.57,0,1,1,0,56.57,56.57,56.57,0,0,1,56.57,0Z" transform="translate(-7368.5 -17846.789)" fill="#b545aa"/>
      <g id="Group" transform="translate(268 -55.613)">
        <text id="What_are_our_" data-name="What are our " transform="translate(-7856.756 -17743.338)" fill="#fff" font-size="30" font-family="Lato-Regular, Lato"><tspan x="0" y="0">What are our </tspan></text>
        <text id="vision_" data-name="vision?" transform="translate(-7810.811 -17707.338)" fill="#fff" font-size="30" font-family="Lato-Regular, Lato"><tspan x="0" y="0">vision?</tspan></text>
      </g>
      <g id="Layer_2" data-name="Layer 2" transform="translate(-7345.993 -17840.607)">
        <g id="Layer_16" data-name="Layer 16" transform="translate(-0.007 63.57)">
          <path id="Path_15738" data-name="Path 15738" d="M16.569,557.54c-7.828-1.842-10.038-7.783-12.986-7.321S5.352,554.464,6,555.154c1.758,1.9,4.108,7.838,8.227,8.335,0,0-3.066.653-7.548-6.311a21.527,21.527,0,0,0-3.595-3.757c-1.777-2.253-1.7-3.72.489-4.162,0,0-.152-1.938-.17-3.83-.024-2.541-.633-6.328-2.052-6.329C.172,539.1.3,540.633.226,542.992c-.057,1.853-.7,8.479.455,11.265,1.045,2.521,2.458,7.333,6.746,8.977,5.815,2.229,7.854,7.194,7.854,9.64v3.709h8.7V567.9S24.4,559.382,16.569,557.54Z" transform="translate(0.007 -539.098)" fill="url(#linear-gradient)"/>
          <path id="Path_15739" data-name="Path 15739" d="M339.44,542.972c-.072-2.35.054-3.892-1.125-3.892-1.415,0-2.028,3.788-2.052,6.329-.018,1.893-.17,3.83-.17,3.83,2.191.438,2.267,1.909.487,4.162a21.627,21.627,0,0,0-3.6,3.757c-4.481,6.964-7.548,6.311-7.548,6.311,4.121-.5,6.469-6.432,8.227-8.335.64-.7,5.359-4.474,2.412-4.935s-5.149,5.482-12.983,7.324-7.413,10.36-7.413,10.36v8.682h8.7v-3.709c0-2.44,2.039-7.411,7.854-9.64,4.29-1.644,5.7-6.456,6.748-8.977C340.138,551.454,339.5,544.827,339.44,542.972Z" transform="translate(-271.457 -539.08)" fill="url(#linear-gradient-2)"/>
        </g>
        <g id="Layer_1" data-name="Layer 1" transform="translate(0.188 -0.006)">
          <path id="Path_15740" data-name="Path 15740" d="M14.383,441.3q-.082,1.024-.083,2.065C14.3,459.4,28.865,472.4,46.831,472.4s32.531-13,32.531-29.034q0-1.041-.083-2.065Z" transform="translate(-12.808 -389.256)" fill="url(#radial-gradient)"/>
          <path id="Path_15741" data-name="Path 15741" d="M429.667,588.528a5.033,5.033,0,0,0,.7-2.458c-.1.839-.875,1.4-1.4,2.058-.847,1.061-1.1,2.477-1.861,3.6a6.171,6.171,0,0,0,2.561-3.2Z" transform="translate(-369.935 -516.953)" fill="url(#radial-gradient-2)"/>
          <path id="Path_15742" data-name="Path 15742" d="M23.511,461.177c-.083-1.052-1.061-1.769-1.841-2.468a19.67,19.67,0,0,1-1.386-1.415l-1.69-1.859a4.986,4.986,0,0,1-.649-.826c-.577-.99-.429-2.3-1.094-3.234a7.174,7.174,0,0,0-.616-.684,8.69,8.69,0,0,1-1.932-4.8,26.114,26.114,0,0,1-.192-4.6h-.2c-.041.419-.064.826-.066,1.158A31.812,31.812,0,0,0,16,454.123a27.734,27.734,0,0,0,8.219,11.254c-.042-1.061-.774-2-.772-3.066C23.445,461.933,23.54,461.555,23.511,461.177Z" transform="translate(-12.406 -389.247)" fill="url(#radial-gradient-3)"/>
          <path id="Path_15743" data-name="Path 15743" d="M396.719,445.281a8.576,8.576,0,0,1,1.893,2.691c.78-1.443,1.958-2.637,2.763-4.065a6.02,6.02,0,0,0,.8-2.587H393.09l.02.022Z" transform="translate(-339.936 -389.273)" fill="url(#radial-gradient-4)"/>
          <path id="Path_15744" data-name="Path 15744" d="M190.9,448.969q-3.7-3.7-7.131-7.649H177c-.008.021-.017.042-.027.064a.722.722,0,0,1-.382.309,2.518,2.518,0,0,1-1.98-.373H162.244c-.035.018-.071.038-.107.054a1.108,1.108,0,0,0-.422.236c-.108.118-.118.354.027.422.215.514-.193,1.114-.62,1.473s-.958.574-1.385.933a4.483,4.483,0,0,0-.975,1.285c-1.451,2.6-2.071,5.891-.7,8.528a9.194,9.194,0,0,0,3.9,3.65,5.81,5.81,0,0,0,1.9.708c2.311.335,4.672-1.606,6.854-.774.56.215,1.107.611,1.7.5a1.861,1.861,0,0,1,.61-.1c.472.079.559.739.4,1.194s-.436.924-.278,1.377c.118.354.472.56.767.784a4.127,4.127,0,0,1,1.546,3.853,5.6,5.6,0,0,0-.164,1.188,3.311,3.311,0,0,0,.59,1.471l1.048,1.742a1.132,1.132,0,0,0,.4.456,1.184,1.184,0,0,0,.789,0c3.222-.837,6.478-2.431,8.137-5.314a7.509,7.509,0,0,1,.6-.972,10.875,10.875,0,0,1,1.038-.979,4.814,4.814,0,0,0,1.351-2.368,23.034,23.034,0,0,0,.265-2.322c.538-4.2,4.253-7.72,3.952-11.947a8.047,8.047,0,0,1-2.567,2.571Z" transform="translate(-131.951 -389.273)" fill="url(#radial-gradient-5)"/>
          <path id="Path_15745" data-name="Path 15745" d="M504.61,441.32a8.815,8.815,0,0,1,.244,1.157q-.073-.577-.139-1.157Z" transform="translate(-438.304 -389.273)" fill="url(#radial-gradient-6)"/>
          <path id="Path_15746" data-name="Path 15746" d="M100.42,10.529a5.562,5.562,0,0,0-5.85-5.258,5.5,5.5,0,0,0-.8.106,8.2,8.2,0,0,0-15.418.055,5.559,5.559,0,1,0,2.685,9.223,8.193,8.193,0,0,0,9.917.118,5.556,5.556,0,0,0,9.462-4.246Z" transform="translate(-63.219 0.006)" fill="url(#linear-gradient-3)"/>
          <path id="Path_15747" data-name="Path 15747" d="M357.5,91.764a3.761,3.761,0,0,0-3.955-3.556h-.018a4.491,4.491,0,0,0-7.569,1.493,3.08,3.08,0,0,0-.735-.092,3.049,3.049,0,1,0,2.2,5.148,4.488,4.488,0,0,0,4.6.552,3.759,3.759,0,0,0,5.469-3.546Z" transform="translate(-295.023 -76.493)" fill="url(#linear-gradient-4)"/>
          <path id="Path_15748" data-name="Path 15748" d="M331.375,187.432c.05-.21.316-.934-.2-.984-.472-.045-1.08.882-1.369,1.061-.014-.208-.039-.377-.079-.377s-.065.17-.079.377c-.289-.175-.9-1.1-1.369-1.061-.52.05-.254.774-.2.984a.767.767,0,0,0,.777.659s-.9.323-.526.959c.327.56.961.284,1.15-.209a.328.328,0,0,1,.188-.217c.017.17.038.308.064.308s.047-.138.064-.308a.328.328,0,0,1,.188.217c.189.493.826.769,1.15.209.369-.636-.526-.959-.526-.959A.769.769,0,0,0,331.375,187.432Z" transform="translate(-284.815 -164.458)" fill="#00751e"/>
          <path id="Path_15749" data-name="Path 15749" d="M486.192,195.325c.078-.086.394-.354.163-.518-.21-.145-.741.131-.922.136.047-.1.08-.188.063-.2s-.076.063-.137.157c-.091-.159-.132-.756-.366-.859-.257-.118-.323.3-.354.408a.414.414,0,0,0,.192.515s-.507-.085-.5.313c.006.354.376.388.6.205a.177.177,0,0,1,.146-.052c-.038.084-.064.155-.052.162s.059-.052.112-.129a.178.178,0,0,1,.029.152c-.041.282.185.579.486.4.342-.2.007-.59.007-.59a.415.415,0,0,0,.533-.1Z" transform="translate(-420.415 -171.14)" fill="#4ea000"/>
          <path id="Path_15750" data-name="Path 15750" d="M78.144,203.854c-.052-.132-.177-.624-.472-.458-.274.151-.257.881-.354,1.084-.085-.107-.162-.19-.183-.176s.028.118.1.236c-.222.013-.9-.263-1.137-.064-.263.222.151.514.256.611a.507.507,0,0,0,.667.067s-.366.509.072.716c.386.183.627-.2.546-.541a.218.218,0,0,1,.02-.188c.073.086.136.153.15.144s-.025-.093-.08-.191a.213.213,0,0,1,.183.048c.287.2.734.11.708-.316-.037-.482-.643-.324-.643-.324a.508.508,0,0,0,.167-.648Z" transform="translate(-67.241 -179.379)" fill="#377500"/>
          <path id="Path_15751" data-name="Path 15751" d="M24.248,172.73c.106-.118.535-.515.2-.729-.3-.193-1.028.216-1.283.236.063-.143.1-.265.079-.28s-.1.092-.184.225c-.133-.217-.218-1.048-.55-1.179-.364-.146-.438.429-.478.59a.579.579,0,0,0,.291.708s-.708-.094-.684.46c.024.488.544.524.841.259a.245.245,0,0,1,.2-.081c-.048.118-.081.221-.064.229s.079-.075.15-.184a.247.247,0,0,1,.05.21c-.045.4.283.8.7.539.472-.3-.02-.826-.02-.826a.579.579,0,0,0,.749-.177Z" transform="translate(-19.287 -150.815)" fill="#cff297"/>
          <path id="Path_15752" data-name="Path 15752" d="M383.126,107.793c.083-.118.43-.519.111-.679-.29-.144-.907.3-1.133.34.041-.136.067-.251.041-.261s-.083.093-.143.222c-.143-.182-.3-.923-.616-1.011-.344-.1-.354.432-.371.578a.527.527,0,0,0,.335.612s-.651-.013-.571.484c.071.438.544.417.785.149a.224.224,0,0,1,.172-.093c-.031.118-.051.206-.034.212s.064-.075.118-.18a.223.223,0,0,1,.066.184c0,.362.337.693.683.415.392-.315-.1-.741-.1-.741a.528.528,0,0,0,.657-.231Z" transform="translate(-330.731 -93.845)" fill="#4ea000"/>
          <path id="Path_15753" data-name="Path 15753" d="M206.6,16.568a.93.93,0,0,1,1.041.4,1.031,1.031,0,0,0,.491.322,1.109,1.109,0,0,1,.186-.067.415.415,0,0,1,.354-.127.641.641,0,0,1,.282-.11.439.439,0,0,0-.192.185.315.315,0,0,1-.073.29.581.581,0,0,1-.026.067,2.114,2.114,0,0,0,.657.013.721.721,0,0,1,.9.4,2.6,2.6,0,0,1,.387,1.347,3.942,3.942,0,0,0-.708-1.1,1.166,1.166,0,0,0-.59-.278,3.052,3.052,0,0,0-.507-.13.416.416,0,0,0-.313.044h0a1.187,1.187,0,0,1-.883.387.228.228,0,0,0-.139.1.809.809,0,0,1-.236.274.516.516,0,0,1-.341-.254.9.9,0,0,1,.4-.21.418.418,0,0,0,.19-.188c.007-.017.015-.032.022-.048a1.571,1.571,0,0,0-.118-.419,1.2,1.2,0,0,0-.78-.633,6.176,6.176,0,0,0-1.939.118S206.006,16.646,206.6,16.568Z" transform="translate(-177.7 -14.595)" fill="#215a59"/>
          <path id="Path_15754" data-name="Path 15754" d="M319.665,80.063a.671.671,0,0,1,.751.287.741.741,0,0,0,.354.236.729.729,0,0,1,.136-.048.3.3,0,0,1,.252-.092.454.454,0,0,1,.2-.079.31.31,0,0,0-.138.133.236.236,0,0,1-.053.21c-.006.017-.012.032-.019.048a1.524,1.524,0,0,0,.472.008.524.524,0,0,1,.649.291,1.858,1.858,0,0,1,.278.972,2.817,2.817,0,0,0-.513-.794.837.837,0,0,0-.425-.2,2.134,2.134,0,0,0-.361-.1.3.3,0,0,0-.225.032h0a.859.859,0,0,1-.637.279.163.163,0,0,0-.1.074.567.567,0,0,1-.164.193.37.37,0,0,1-.252-.178.662.662,0,0,1,.289-.151.3.3,0,0,0,.137-.134l.017-.035a1.125,1.125,0,0,0-.087-.3.857.857,0,0,0-.56-.456,4.384,4.384,0,0,0-1.4.083S319.231,80.118,319.665,80.063Z" transform="translate(-276.347 -70.606)" fill="#215a59"/>
          <path id="Path_15755" data-name="Path 15755" d="M390.456,15.423a.669.669,0,0,1,.75.287.752.752,0,0,0,.354.236.86.86,0,0,1,.136-.048.3.3,0,0,1,.252-.091.461.461,0,0,1,.2-.08.32.32,0,0,0-.139.133.229.229,0,0,1-.052.21.13.13,0,0,1-.019.048,1.512,1.512,0,0,0,.472.009.522.522,0,0,1,.649.291,1.861,1.861,0,0,1,.278.971,2.8,2.8,0,0,0-.514-.794.848.848,0,0,0-.423-.2,2.121,2.121,0,0,0-.362-.094.3.3,0,0,0-.225.031h0a.849.849,0,0,1-.637.279.167.167,0,0,0-.1.074.575.575,0,0,1-.17.2.37.37,0,0,1-.245-.184.661.661,0,0,1,.29-.159.3.3,0,0,0,.137-.134l.017-.035a1.164,1.164,0,0,0-.087-.3.862.862,0,0,0-.56-.458,4.382,4.382,0,0,0-1.4.084S390.022,15.477,390.456,15.423Z" transform="translate(-337.764 -13.59)" fill="#215a59"/>
          <path id="Path_15756" data-name="Path 15756" d="M294.571,30.618V30.61l-.006.007a1.523,1.523,0,0,1-.5.4c-.088.053-.19.118-.31.192a1.02,1.02,0,0,0-.453.646l-.019.008-.092.047a2.82,2.82,0,0,1-.673-.59,1.279,1.279,0,0,0-.56-.377,2.1,2.1,0,0,0-.675-.139h-.118c-.079.006-.151.008-.218.007a1.63,1.63,0,0,1-.428-.065l-.112-.026h-.021l.015.013a1.864,1.864,0,0,0,.834.37,1.924,1.924,0,0,1,1.086.644,6.985,6.985,0,0,1,.412.57.528.528,0,0,1-.086.065.906.906,0,0,1-.63.134h-.066v.008s.1.244.315.259h0a1.179,1.179,0,0,1,.461-.188,1.447,1.447,0,0,0,.928-.485.5.5,0,0,1,.2-.038.448.448,0,0,1,.068.006h.013l-.007-.009a.215.215,0,0,0-.167-.081.236.236,0,0,0-.2-.191,1.817,1.817,0,0,1,.439-.531C294.618,30.743,294.573,30.623,294.571,30.618Z" transform="translate(-252.166 -26.999)" fill="#215a59"/>
          <circle id="Ellipse_484" data-name="Ellipse 484" cx="3.037" cy="3.037" r="3.037" transform="translate(4.592 7.14)" fill="url(#linear-gradient-5)"/>
          <path id="Path_15757" data-name="Path 15757" d="M64.32,37.148a.271.271,0,0,0,.27-.27v-1.9a.27.27,0,0,0-.54,0v1.9A.271.271,0,0,0,64.32,37.148Z" transform="translate(-56.691 -30.616)" fill="url(#linear-gradient-6)"/>
          <path id="Path_15758" data-name="Path 15758" d="M64.32,116a.27.27,0,0,0-.27.27v1.9a.27.27,0,0,0,.54,0v-1.9a.27.27,0,0,0-.27-.274Z" transform="translate(-56.691 -102.319)" fill="url(#linear-gradient-7)"/>
          <path id="Path_15759" data-name="Path 15759" d="M98.876,83.42h-1.9a.27.27,0,0,0,0,.54h1.9a.27.27,0,1,0,0-.539Z" transform="translate(-84.166 -73.581)" fill="url(#linear-gradient-8)"/>
          <path id="Path_15760" data-name="Path 15760" d="M17.875,83.689a.269.269,0,0,0-.269-.269H15.7a.27.27,0,0,0,0,.539h1.9a.269.269,0,0,0,.275-.27Z" transform="translate(-13.824 -73.581)" fill="url(#linear-gradient-9)"/>
          <path id="Path_15761" data-name="Path 15761" d="M87.387,50.835a.27.27,0,0,0,.189-.079L88.92,49.41a.269.269,0,0,0-.381-.381L87.2,50.372a.27.27,0,0,0,.191.46Z" transform="translate(-77.039 -43.177)" fill="url(#linear-gradient-10)"/>
          <path id="Path_15762" data-name="Path 15762" d="M31.012,106.56l-1.344,1.34a.27.27,0,1,0,.381.382l1.344-1.346a.269.269,0,0,0-.381-.381Z" transform="translate(-26.293 -93.923)" fill="url(#linear-gradient-11)"/>
          <path id="Path_15763" data-name="Path 15763" d="M87.618,106.622a.27.27,0,0,0-.382.381l1.346,1.346a.27.27,0,0,0,.381-.382Z" transform="translate(-77.08 -93.984)" fill="url(#linear-gradient-12)"/>
          <path id="Path_15764" data-name="Path 15764" d="M31.014,50.756a.271.271,0,1,0,.381-.384L30.051,49.03a.269.269,0,0,0-.381.381Z" transform="translate(-26.296 -43.177)" fill="url(#linear-gradient-13)"/>
          <path id="Path_15765" data-name="Path 15765" d="M101.872,337.671a1.29,1.29,0,0,0-1.244-1.289,1.533,1.533,0,0,0-2.31-1.9,1.721,1.721,0,0,0-3.217.853,1.7,1.7,0,0,0,.034.34,1.533,1.533,0,0,0-.472,2.913A1.434,1.434,0,1,0,97.1,339.6v-.018a1.638,1.638,0,0,0,1.382-.153,1.391,1.391,0,0,0-.011.173,1.436,1.436,0,1,0,2.657-.763A1.289,1.289,0,0,0,101.872,337.671Z" transform="translate(-81.482 -294.264)" fill="url(#linear-gradient-14)"/>
          <path id="Path_15766" data-name="Path 15766" d="M116.685,375c-.037.4-.066,2.982-.091,3.381-.006.1-.012.2-.018.289h.679c-.007-.1-.014-.193-.022-.291a19.357,19.357,0,0,1,.2-4.246,1.622,1.622,0,0,1,.856,0l.027-.075a1.768,1.768,0,0,0-.735-.142,2.2,2.2,0,0,1,.323-.331,1.828,1.828,0,0,1,.451-.275l-.031-.1a1.99,1.99,0,0,0-.524.223,2.344,2.344,0,0,0-.454.354,2.194,2.194,0,0,0-.19.213q0-.2.011-.4a7.62,7.62,0,0,1,.149-1.277l-.124-.037a8,8,0,0,0-.318,1.283c-.006.038-.012.076-.019.118a2.837,2.837,0,0,0-.167-.3c-.019-.031-.04-.06-.06-.09a1.959,1.959,0,0,1-.047-.341,2.055,2.055,0,0,1,.028-.471l-.125-.03a2.13,2.13,0,0,0-.09.491V373l-.109-.118a2.07,2.07,0,0,0-.515-.379l-.072.133a1.869,1.869,0,0,1,.44.383,5.374,5.374,0,0,1,.33.487,2.623,2.623,0,0,1,.216.54,2.179,2.179,0,0,1,.068.354v.029a4.263,4.263,0,0,0-.354-.331c-.077-.18-.153-.366-.236-.546a3.68,3.68,0,0,0-.383-.63l-.087.059a3.533,3.533,0,0,1,.3.643c.026.073.05.147.073.222a3.867,3.867,0,0,0-.634-.331l-.077.155a3.656,3.656,0,0,1,1.331,1.33Z" transform="translate(-100.331 -328.384)" fill="#ba997e"/>
          <path id="Path_15767" data-name="Path 15767" d="M157.707,310.675a1.8,1.8,0,0,0-1.732-1.8,2.123,2.123,0,0,0-3.215-2.651,2.4,2.4,0,0,0-4.428,1.664,2.123,2.123,0,0,0-.65,4.053,2,2,0,1,0,3.4,1.415v-.024a2.28,2.28,0,0,0,1.923-.214,2.03,2.03,0,0,0-.015.236,2,2,0,1,0,3.689-1.07A1.8,1.8,0,0,0,157.707,310.675Z" transform="translate(-126.956 -269.051)" fill="url(#linear-gradient-15)"/>
          <path id="Path_15768" data-name="Path 15768" d="M178.514,362.551c-.052.555-.092,1.111-.127,1.666-.007.118-.014,2.419-.021,2.531h.943c-.009-.118-.017-2.416-.027-2.533a5.439,5.439,0,0,1,.274-2.876,2.285,2.285,0,0,1,1.192,0l.037-.1a2.453,2.453,0,0,0-1.021-.2,2.954,2.954,0,0,1,.449-.46,2.541,2.541,0,0,1,.627-.383l-.042-.132a2.727,2.727,0,0,0-.73.309,3.39,3.39,0,0,0-.631.494,3.172,3.172,0,0,0-.264.3c0-.184.006-.368.014-.551a10.616,10.616,0,0,1,.2-1.781l-.172-.05a10.827,10.827,0,0,0-.447,1.8c-.009.053-.018.1-.027.158a3.994,3.994,0,0,0-.236-.416,1.369,1.369,0,0,0-.084-.118,2.677,2.677,0,0,1-.019-1.12l-.175-.041a3.068,3.068,0,0,0-.125.683v.07c-.048-.055-.1-.107-.151-.159a2.884,2.884,0,0,0-.717-.528l-.1.186a2.589,2.589,0,0,1,.612.534,7.135,7.135,0,0,1,.46.677,3.713,3.713,0,0,1,.3.752,3.09,3.09,0,0,1,.094.492v.041a5.5,5.5,0,0,0-.493-.46c-.106-.254-.213-.509-.336-.762a5.071,5.071,0,0,0-.533-.876l-.118.081a4.862,4.862,0,0,1,.415.9c.035.1.068.2.1.308a5.454,5.454,0,0,0-.872-.472l-.106.216a5.091,5.091,0,0,1,1.857,1.825Z" transform="translate(-153.492 -316.468)" fill="#ba997e"/>
          <path id="Path_15769" data-name="Path 15769" d="M248.963,293.265a2.253,2.253,0,0,0-2.17-2.251,2.668,2.668,0,0,0-4.035-3.328,3,3,0,0,0-5.553,2.087,2.668,2.668,0,0,0-.815,5.085,2.5,2.5,0,1,0,4.264,1.78v-.029a2.873,2.873,0,0,0,2.414-.269,2.331,2.331,0,0,0-.019.3,2.508,2.508,0,1,0,4.626-1.342A2.254,2.254,0,0,0,248.963,293.265Z" transform="translate(-203.236 -252.424)" fill="url(#linear-gradient-16)"/>
          <path id="Path_15770" data-name="Path 15770" d="M274.957,358.4c-.052.553-.093,3.292-.13,3.845h1.055a20.434,20.434,0,0,1,.374-5.365,2.852,2.852,0,0,1,1.5.007l.046-.131a3.085,3.085,0,0,0-1.281-.249,3.663,3.663,0,0,1,.563-.577,3.157,3.157,0,0,1,.787-.481l-.053-.166a3.44,3.44,0,0,0-.915.388,4.129,4.129,0,0,0-.791.62,4.007,4.007,0,0,0-.333.369c0-.236.009-.461.018-.692a13.377,13.377,0,0,1,.252-2.232l-.216-.062a13.687,13.687,0,0,0-.555,2.241c-.011.066-.021.132-.033.2a5.129,5.129,0,0,0-.292-.521c-.034-.053-.07-.1-.1-.155a3.415,3.415,0,0,1-.084-.6,3.61,3.61,0,0,1,.059-.808l-.219-.052a3.85,3.85,0,0,0-.156.857v.086c-.061-.068-.125-.134-.19-.2a3.583,3.583,0,0,0-.9-.662l-.125.236a3.29,3.29,0,0,1,.768.67,9.089,9.089,0,0,1,.575.849,4.669,4.669,0,0,1,.379.943,3.865,3.865,0,0,1,.118.617v.052a7.117,7.117,0,0,0-.617-.578c-.134-.316-.268-.638-.422-.954a6.366,6.366,0,0,0-.67-1.1l-.151.1a6.133,6.133,0,0,1,.52,1.123c.045.127.086.257.127.387a6.754,6.754,0,0,0-1.093-.59l-.133.27a6.4,6.4,0,0,1,2.318,2.315Z" transform="translate(-236.683 -311.96)" fill="#ba997e"/>
          <path id="Path_15771" data-name="Path 15771" d="M375.272,319.548a2.455,2.455,0,0,0,.146-.837,2.356,2.356,0,0,0-2.021-2.366,2.222,2.222,0,0,0-2.183-2.2,2.193,2.193,0,0,0-2.071,1.544h-.112a2.058,2.058,0,0,0-2.02,2.092,2.13,2.13,0,0,0,.382,1.224c-.018.034-.033.07-.047.1a2.1,2.1,0,0,0-1.137,1.887,2.015,2.015,0,1,0,4.025.2,1.928,1.928,0,0,0,.209-.236h.145a2.446,2.446,0,0,0,1.187-.308,2.191,2.191,0,0,0,.354.214v.118a1.878,1.878,0,1,0,3.754,0,1.972,1.972,0,0,0-.611-1.432Z" transform="translate(-316.225 -277.092)" fill="url(#linear-gradient-17)"/>
          <path id="Path_15772" data-name="Path 15772" d="M391.9,363.848a2.265,2.265,0,0,0-.934.182l.034.1a2.072,2.072,0,0,1,1.09,0,1.724,1.724,0,0,1,.338.982c-.009.254-.034,3.333-.071,4.3h.724c-.034-.8-.058-3.753-.044-4.176a4.653,4.653,0,0,1,1.7-1.683l-.1-.2a4.848,4.848,0,0,0-.8.429c.029-.1.059-.189.092-.282a4.485,4.485,0,0,1,.38-.818l-.111-.076a4.668,4.668,0,0,0-.488.8c-.112.23-.21.465-.307.7a4.874,4.874,0,0,0-.451.42v-.038a2.843,2.843,0,0,1,.086-.449,3.378,3.378,0,0,1,.275-.688,3.3,3.3,0,0,1,.421-.619,2.745,2.745,0,0,1,.559-.488l-.091-.17a2.6,2.6,0,0,0-.656.482c-.048.047-.094.1-.139.145v-.063a2.822,2.822,0,0,0-.118-.625l-.16.039a2.462,2.462,0,0,1-.018,1.024c-.026.037-.052.074-.077.112a3.88,3.88,0,0,0-.213.381c-.008-.048-.015-.1-.024-.145a9.971,9.971,0,0,0-.406-1.632l-.157.046a9.756,9.756,0,0,1,.184,1.627c.007.167.011.335.013.5a3.112,3.112,0,0,0-.236-.271,3,3,0,0,0-.578-.452,2.478,2.478,0,0,0-.666-.283l-.039.118a2.281,2.281,0,0,1,.573.354A2.718,2.718,0,0,1,391.9,363.848Z" transform="translate(-339.424 -319.123)" fill="#946d00"/>
          <path id="Path_15773" data-name="Path 15773" d="M102.915,187.5a4.91,4.91,0,0,0-4-6.6,4.655,4.655,0,0,0-9.067-1.36q-.118-.007-.236-.007a4.306,4.306,0,0,0-3.5,6.825c-.035.072-.068.144-.1.217a4.307,4.307,0,1,0,6.168,4.307,3.986,3.986,0,0,0,.445-.491c.1.006.206.009.311.009a5.365,5.365,0,0,0,2.532-.636,4.794,4.794,0,0,0,.75.44c0,.08-.008.16-.008.236a4,4,0,1,0,6.7-2.948Z" transform="translate(-72.264 -155.572)" fill="url(#linear-gradient-18)"/>
          <path id="Path_15774" data-name="Path 15774" d="M142.42,278.53a4.632,4.632,0,0,0-1.921.373l.07.2a4.288,4.288,0,0,1,2.241-.011,3.538,3.538,0,0,1,.7,2.023c-.029.854-.061,7.929-.142,11.1h1.9c-.165-3.045-.432-10.087-.5-10.85a9.584,9.584,0,0,1,3.511-3.461l-.2-.4a10.09,10.09,0,0,0-1.64.882c.061-.2.118-.388.191-.579a9.207,9.207,0,0,1,.78-1.685l-.226-.155a9.486,9.486,0,0,0-1,1.651c-.236.472-.432.956-.632,1.432a10.2,10.2,0,0,0-.927.863.221.221,0,0,0-.009-.078,5.852,5.852,0,0,1,.177-.926,6.923,6.923,0,0,1,.566-1.415,6.8,6.8,0,0,1,.866-1.274,5.7,5.7,0,0,1,1.151-1l-.188-.354a5.374,5.374,0,0,0-1.349.993c-.1.1-.193.2-.285.3a.956.956,0,0,0-.006-.13,5.761,5.761,0,0,0-.236-1.285l-.329.078a5.334,5.334,0,0,1,.087,1.212,5.24,5.24,0,0,1-.118.9c-.053.077-.107.153-.158.236a8.056,8.056,0,0,0-.44.782c-.015-.1-.032-.2-.048-.3a20.65,20.65,0,0,0-.834-3.361l-.324.094a19.93,19.93,0,0,1,.379,3.349c.014.346.022.691.027,1.038a6.286,6.286,0,0,0-1.686-1.488,5.152,5.152,0,0,0-1.372-.584l-.08.25a4.763,4.763,0,0,1,1.179.722A5.569,5.569,0,0,1,142.42,278.53Z" transform="translate(-121.893 -241.933)" fill="#724500"/>
          <path id="Path_15775" data-name="Path 15775" d="M308.494,182.9a4.6,4.6,0,0,0-3.743-6.177,4.363,4.363,0,0,0-8.491-1.274c-.076,0-.15-.007-.226-.007a4.032,4.032,0,0,0-3.27,6.393c-.033.066-.065.133-.094.2a4.033,4.033,0,1,0,5.779,4.033,3.572,3.572,0,0,0,.416-.46c.1,0,.193.009.291.009a5.015,5.015,0,0,0,2.37-.59,4.638,4.638,0,0,0,.708.413c0,.074-.007.149-.007.225A3.748,3.748,0,1,0,308.5,182.9Z" transform="translate(-249.357 -152.152)" fill="url(#linear-gradient-19)"/>
          <path id="Path_15776" data-name="Path 15776" d="M345.435,268.081a4.363,4.363,0,0,0-1.8.354l.066.185a4.021,4.021,0,0,1,2.1-.011,3.315,3.315,0,0,1,.651,1.894c-.029.876-.018,9.133-.132,12.745h1.742c-.255-3.612-.464-11.439-.434-12.5a8.982,8.982,0,0,1,3.284-3.244l-.187-.38a9.651,9.651,0,0,0-1.533.826c.057-.182.118-.363.178-.542a8.66,8.66,0,0,1,.731-1.578l-.214-.145a8.977,8.977,0,0,0-.943,1.546c-.217.443-.4.9-.59,1.34a9.872,9.872,0,0,0-.867.811c0-.024-.006-.048-.008-.072a5.262,5.262,0,0,1,.165-.867,6.508,6.508,0,0,1,.531-1.327,6.367,6.367,0,0,1,.809-1.193,5.406,5.406,0,0,1,1.079-.943l-.176-.328a5.058,5.058,0,0,0-1.264.931c-.092.091-.18.185-.267.281a.763.763,0,0,0-.006-.118,5.314,5.314,0,0,0-.219-1.2l-.308.073a4.993,4.993,0,0,1,.083,1.134,4.782,4.782,0,0,1-.118.839c-.049.073-.1.144-.147.218a7.424,7.424,0,0,0-.412.732l-.046-.277a19.355,19.355,0,0,0-.781-3.149l-.3.09a18.758,18.758,0,0,1,.354,3.137q.019.484.025.971a5.782,5.782,0,0,0-.466-.522,5.851,5.851,0,0,0-1.113-.872,4.816,4.816,0,0,0-1.284-.546l-.076.236a4.459,4.459,0,0,1,1.106.676,5.237,5.237,0,0,1,.787.8Z" transform="translate(-297.987 -232.962)" fill="#724500"/>
          <path id="Path_15777" data-name="Path 15777" d="M18.124,258.538a2.624,2.624,0,0,0-2.53-2.623,3.108,3.108,0,0,0-4.7-3.875,3.5,3.5,0,0,0-6.471,2.432A3.108,3.108,0,0,0,3.48,260.4a2.916,2.916,0,1,0,4.968,2.073v-.035a3.341,3.341,0,0,0,2.812-.311,2.888,2.888,0,0,0-.022.354,2.922,2.922,0,1,0,5.391-1.564,2.625,2.625,0,0,0,1.495-2.375Z" transform="translate(-1.649 -220.762)" fill="url(#linear-gradient-20)"/>
          <path id="Path_15778" data-name="Path 15778" d="M48.283,334.466c-.053.561-.079,4.562-.111,5.989h1.442c-.175-1.781-.362-6.68.183-7.759a3.32,3.32,0,0,1,1.742.008l.054-.153a3.594,3.594,0,0,0-1.492-.289,4.355,4.355,0,0,1,.655-.672,3.724,3.724,0,0,1,.918-.56l-.062-.2a4.027,4.027,0,0,0-1.061.453,4.88,4.88,0,0,0-.928.722,4.983,4.983,0,0,0-.386.434c0-.269.009-.537.02-.8a15.513,15.513,0,0,1,.294-2.6l-.251-.073a15.927,15.927,0,0,0-.647,2.61c-.013.077-.025.153-.038.23a6.118,6.118,0,0,0-.342-.607c-.039-.061-.081-.118-.118-.18a3.945,3.945,0,0,1-.027-1.637l-.256-.06a4.471,4.471,0,0,0-.182,1v.1c-.072-.08-.145-.157-.222-.236a4.154,4.154,0,0,0-1.047-.771l-.154.264a3.839,3.839,0,0,1,.9.781,10.7,10.7,0,0,1,.671.989,5.434,5.434,0,0,1,.44,1.1,4.481,4.481,0,0,1,.137.718l-.007.061a7.914,7.914,0,0,0-.719-.673c-.156-.369-.311-.743-.491-1.111a7.4,7.4,0,0,0-.781-1.275l-.176.118a7.162,7.162,0,0,1,.606,1.309c.052.147.1.3.147.449a7.852,7.852,0,0,0-1.274-.685l-.154.314A7.447,7.447,0,0,1,48.283,334.466Z" transform="translate(-40.381 -290.173)" fill="#3f1e00"/>
          <path id="Path_15779" data-name="Path 15779" d="M154.109,87.374a6.625,6.625,0,0,0-5.4-8.9,6.282,6.282,0,0,0-12.239-1.836c-.107,0-.216-.009-.326-.009a5.812,5.812,0,0,0-4.717,9.213c-.048.1-.094.195-.136.294a5.814,5.814,0,1,0,8.326,5.813,5.15,5.15,0,0,0,.6-.663c.139.008.28.013.421.013a7.215,7.215,0,0,0,3.42-.854,6.582,6.582,0,0,0,1.012.6c-.007.107-.011.216-.011.324a5.4,5.4,0,1,0,9.047-3.987Z" transform="translate(-109.999 -63.81)" fill="url(#linear-gradient-21)"/>
          <path id="Path_15780" data-name="Path 15780" d="M207.447,210.377a6.25,6.25,0,0,0-2.6.5l.094.265a5.792,5.792,0,0,1,3.03-.014,4.774,4.774,0,0,1,.938,2.73c-.048,1.438-.187,13.011-.333,16.934h2.8c-.156-2.99-.655-15.3-.774-16.586a12.947,12.947,0,0,1,4.734-4.677l-.269-.546a13.734,13.734,0,0,0-2.215,1.191c.083-.262.166-.524.258-.782a12.354,12.354,0,0,1,1.053-2.275l-.307-.209a12.916,12.916,0,0,0-1.356,2.228c-.311.64-.583,1.291-.854,1.933a13.923,13.923,0,0,0-1.25,1.169.82.82,0,0,0-.013-.1,7.8,7.8,0,0,1,.236-1.249,9.37,9.37,0,0,1,.765-1.912,9.12,9.12,0,0,1,1.166-1.719,7.614,7.614,0,0,1,1.556-1.356l-.254-.472a7.286,7.286,0,0,0-1.822,1.341q-.2.2-.384.4a1.224,1.224,0,0,0-.008-.175,7.743,7.743,0,0,0-.315-1.736l-.445.106A7.241,7.241,0,0,1,211,207a7.108,7.108,0,0,1-.169,1.209c-.072.1-.144.208-.212.314a10.893,10.893,0,0,0-.59,1.061c-.021-.134-.044-.268-.066-.4a27.7,27.7,0,0,0-1.125-4.537l-.433.121a27.031,27.031,0,0,1,.512,4.522q.026.7.035,1.4a8.546,8.546,0,0,0-2.276-2,6.9,6.9,0,0,0-1.853-.788l-.107.337a6.441,6.441,0,0,1,1.593.974,7.513,7.513,0,0,1,1.138,1.164Z" transform="translate(-177.464 -180.514)" fill="#3f1e00"/>
          <path id="Path_15781" data-name="Path 15781" d="M422.134,280.768a2.8,2.8,0,0,1,2.276-3.753,2.648,2.648,0,0,1,5.158-.774h.137a2.449,2.449,0,0,1,1.987,3.883q.029.06.057.124a2.449,2.449,0,1,1-3.509,2.449,2.2,2.2,0,0,1-.254-.28c-.058,0-.118.006-.177.006a3.039,3.039,0,0,1-1.44-.36,2.747,2.747,0,0,1-.426.251v.137a2.277,2.277,0,1,1-3.814-1.681Z" transform="translate(-364.898 -242.066)" fill="url(#linear-gradient-22)"/>
          <path id="Path_15782" data-name="Path 15782" d="M452.688,334.229c-.041.443-.189,5.566-.277,7.312h1.1c-.049-1.887-.094-6.947-.111-7.457a2,2,0,0,1,.4-1.15,2.431,2.431,0,0,1,1.277.006l.039-.112a2.6,2.6,0,0,0-1.093-.212,3.214,3.214,0,0,1,.48-.493,2.7,2.7,0,0,1,.672-.41l-.046-.143a2.943,2.943,0,0,0-.781.333,3.538,3.538,0,0,0-.676.528,3.638,3.638,0,0,0-.283.318c0-.2.007-.394.015-.59a11.449,11.449,0,0,1,.215-1.9l-.184-.054a11.732,11.732,0,0,0-.472,1.912l-.028.169a4.2,4.2,0,0,0-.25-.445c-.028-.045-.059-.088-.09-.132a2.858,2.858,0,0,1-.02-1.2l-.187-.044a3.216,3.216,0,0,0-.133.731v.073c-.052-.058-.106-.118-.162-.17a3.078,3.078,0,0,0-.768-.565l-.107.2a3.27,3.27,0,0,1,.656.571,4.054,4.054,0,0,1,.814,1.533,3.28,3.28,0,0,1,.1.527v.044a5.935,5.935,0,0,0-.527-.493c-.118-.27-.229-.545-.36-.814a5.438,5.438,0,0,0-.572-.943l-.13.087a5.2,5.2,0,0,1,.445.959c.039.109.074.219.108.33a5.65,5.65,0,0,0-.933-.5l-.118.23a5.458,5.458,0,0,1,1.987,1.964Z" transform="translate(-390.752 -291.258)" fill="#3f1e00"/>
        </g>
      </g>
      <path id="Subtraction_3" data-name="Subtraction 3" d="M404.406,182.351H142.5v-6.22h261.59A78.16,78.16,0,0,0,459.6,42.941a79.848,79.848,0,0,0-56.159-23.51H126.349a16.339,16.339,0,0,1-16.007,13.21c-.52,0-1.05-.026-1.576-.076a16.32,16.32,0,0,1,0-32.49c.524-.05,1.054-.075,1.576-.075a16.322,16.322,0,0,1,16.007,13.21H403.444A84.994,84.994,0,0,1,464,38.561a84.241,84.241,0,0,1-59.595,143.789ZM110.262,6.21a10.09,10.09,0,0,0,0,20.181h.021a10.09,10.09,0,0,0-.008-20.181h-.013Z" transform="translate(-7716 -17888)" fill="#b545aa"/>
    </g>
  </g>
</svg>
