<svg xmlns="http://www.w3.org/2000/svg" width="414.503" height="182.352" viewBox="0 0 414.503 182.352">
  <g id="Group_13967" data-name="Group 13967" transform="translate(7641.85 18405)">
    <path id="Path_14588" data-name="Path 14588" d="M309,313.39a70.625,70.625,0,0,1,28.34-56.563l-264.91,0L49.8,370H337.37A70.63,70.63,0,0,1,309,313.39Z" transform="translate(-7691.65 -18620.609)" fill="#605282"/>
    <circle id="Ellipse_477" data-name="Ellipse 477" cx="56.57" cy="56.57" r="56.57" transform="translate(-7368.5 -18363.789)" fill="#605282"/>
    <path id="Subtraction_1" data-name="Subtraction 1" d="M368.406,182.351H106.5v-6.22H368.09A78.16,78.16,0,0,0,423.6,42.941a79.848,79.848,0,0,0-56.159-23.51H90.35a16.324,16.324,0,0,1-16.007,13.21c-.519,0-1.049-.026-1.576-.076a16.32,16.32,0,0,1,0-32.49C73.291.025,73.821,0,74.343,0A16.322,16.322,0,0,1,90.35,13.21H367.443A84.983,84.983,0,0,1,428,38.564a84.241,84.241,0,0,1-59.6,143.787ZM74.262,6.21a10.09,10.09,0,0,0,0,20.181h.021A10.09,10.09,0,0,0,74.274,6.21h-.013Z" transform="translate(-7680 -18405)" fill="#605282"/>
    <g id="Group" transform="translate(-911 -572.613)">
      <text id="What_are_our_" data-name="What are our " transform="translate(-6677.756 -17743.338)" fill="#fff" font-size="30" font-family="Lato-Regular, Lato"><tspan x="0" y="0">What are our </tspan></text>
      <text id="goals_" data-name="goals?" transform="translate(-6627.349 -17707.338)" fill="#fff" font-size="30" font-family="Lato-Regular, Lato"><tspan x="0" y="0">goals?</tspan></text>
    </g>
    <g id="Group_13411" data-name="Group 13411" transform="translate(261 -5658.613)">
      <path id="Path_15695" data-name="Path 15695" d="M76.681,3.466a3.354,3.354,0,0,0-.549.048V3.466a3.451,3.451,0,0,0-6.752-1,3.451,3.451,0,0,0-6.752,1v.117a3.451,3.451,0,1,0,.039,6.656,3.448,3.448,0,0,0,6.709.471,3.448,3.448,0,0,0,6.7-.4,3.448,3.448,0,1,0,.6-6.844Z" transform="translate(-7666.521 -12683.02)" fill="#fff"/>
      <path id="Path_15696" data-name="Path 15696" d="M241.975,45.586a3.382,3.382,0,0,0,6.206,1.864,3.38,3.38,0,0,0,5.625.082,3.38,3.38,0,0,0,6.069-1.072h.11a3.384,3.384,0,1,0-2.632-5.5,3.38,3.38,0,0,0-5.568-3.316,5.191,5.191,0,1,0-8.648,5.4,3.368,3.368,0,0,0-1.162,2.543Z" transform="translate(-7812.137 -12715.197)" fill="#fff"/>
      <ellipse id="Ellipse_482" data-name="Ellipse 482" cx="37.743" cy="4.624" rx="37.743" ry="4.624" transform="translate(-7610.687 -12629.812)" fill="#afa515"/>
      <path id="Path_15719" data-name="Path 15719" d="M62.442,240.2H29.551a6.26,6.26,0,0,0,0,12.521H62.442Z" transform="translate(-7627.621 -12878.341)" fill="#7f58a5"/>
      <path id="Path_15720" data-name="Path 15720" d="M71.637,249.06H39.249a4.235,4.235,0,0,0,0,8.461H71.637Z" transform="translate(-7636.815 -12885.175)" fill="#fff6ed"/>
      <path id="Path_15721" data-name="Path 15721" d="M37.936,249.29a4.228,4.228,0,0,0,0,8.362Z" transform="translate(-7636.141 -12885.353)" fill="#a380b1"/>
      <line id="Line_296" data-name="Line 296" x2="30.762" transform="translate(-7597.373 -12634.379)" fill="none" stroke="#e8d9d1" stroke-miterlimit="10" stroke-width="1.2"/>
      <line id="Line_297" data-name="Line 297" x2="30.762" transform="translate(-7597.373 -12632.715)" fill="none" stroke="#e8d9d1" stroke-miterlimit="10" stroke-width="1.2"/>
      <line id="Line_298" data-name="Line 298" x2="30.762" transform="translate(-7597.373 -12631.05)" fill="none" stroke="#e8d9d1" stroke-miterlimit="10" stroke-width="1.2"/>
      <line id="Line_299" data-name="Line 299" x2="30.762" transform="translate(-7597.373 -12629.385)" fill="none" stroke="#e8d9d1" stroke-miterlimit="10" stroke-width="1.2"/>
      <path id="Path_15722" data-name="Path 15722" d="M39.15,185.48H6.259a6.259,6.259,0,1,0,0,12.518H39.15Z" transform="translate(-7609.656 -12836.133)" fill="#477bbe"/>
      <path id="Path_15723" data-name="Path 15723" d="M47.219,194.332H14.833a4.233,4.233,0,1,0,0,8.461H47.219Z" transform="translate(-7617.726 -12842.96)" fill="#fff6ed"/>
      <path id="Path_15724" data-name="Path 15724" d="M14.671,194.57a4.228,4.228,0,0,0,0,8.36Z" transform="translate(-7618.202 -12843.145)" fill="#4c5a9c"/>
      <line id="Line_300" data-name="Line 300" x2="30.76" transform="translate(-7602.698 -12646.892)" fill="none" stroke="#e8d9d1" stroke-miterlimit="10" stroke-width="1.2"/>
      <line id="Line_301" data-name="Line 301" x2="30.76" transform="translate(-7602.698 -12645.227)" fill="none" stroke="#e8d9d1" stroke-miterlimit="10" stroke-width="1.2"/>
      <line id="Line_302" data-name="Line 302" x2="30.76" transform="translate(-7602.698 -12643.563)" fill="none" stroke="#e8d9d1" stroke-miterlimit="10" stroke-width="1.2"/>
      <line id="Line_303" data-name="Line 303" x2="30.76" transform="translate(-7602.698 -12641.896)" fill="none" stroke="#e8d9d1" stroke-miterlimit="10" stroke-width="1.2"/>
      <path id="Path_15725" data-name="Path 15725" d="M42.22,130.77H75.111a6.259,6.259,0,1,1,0,12.518H42.22Z" transform="translate(-7642.222 -12793.934)" fill="#5f4da0"/>
      <path id="Path_15726" data-name="Path 15726" d="M42.22,139.62H74.608a4.235,4.235,0,0,1,0,8.461H42.22Z" transform="translate(-7642.222 -12800.76)" fill="#fff6ed"/>
      <path id="Path_15727" data-name="Path 15727" d="M186.64,139.86a4.228,4.228,0,0,1,0,8.36Z" transform="translate(-7753.618 -12800.945)" fill="#4a397f"/>
      <line id="Line_304" data-name="Line 304" x1="30.762" transform="translate(-7598.571 -12659.401)" fill="none" stroke="#e8d9d1" stroke-miterlimit="10" stroke-width="1.2"/>
      <line id="Line_305" data-name="Line 305" x1="30.762" transform="translate(-7598.571 -12657.737)" fill="none" stroke="#e8d9d1" stroke-miterlimit="10" stroke-width="1.2"/>
      <line id="Line_306" data-name="Line 306" x1="30.762" transform="translate(-7598.571 -12656.072)" fill="none" stroke="#e8d9d1" stroke-miterlimit="10" stroke-width="1.2"/>
      <line id="Line_307" data-name="Line 307" x1="30.762" transform="translate(-7598.571 -12654.407)" fill="none" stroke="#e8d9d1" stroke-miterlimit="10" stroke-width="1.2"/>
      <path id="Path_15728" data-name="Path 15728" d="M141.76,157.343a17.765,17.765,0,1,0,17.764-17.763,17.765,17.765,0,0,0-17.764,17.763Z" transform="translate(-7719.001 -12800.729)" fill="#f04e4f"/>
      <circle id="Ellipse_483" data-name="Ellipse 483" cx="15.19" cy="15.19" r="15.19" transform="translate(-7577.754 -12654.678) rotate(-13.28)" fill="#df3b47"/>
      <path id="Path_15729" data-name="Path 15729" d="M162.76,173.541a12.961,12.961,0,1,0,12.961-12.961A12.961,12.961,0,0,0,162.76,173.541Z" transform="translate(-7735.199 -12816.927)" fill="#fff"/>
      <path id="Path_15730" data-name="Path 15730" d="M177.4,184.864a9.6,9.6,0,1,0,9.6-9.6A9.6,9.6,0,0,0,177.4,184.864Z" transform="translate(-7746.491 -12828.25)" fill="#c3dae6"/>
      <path id="Path_15731" data-name="Path 15731" d="M186.32,191.713a7.573,7.573,0,1,0,7.573-7.573A7.573,7.573,0,0,0,186.32,191.713Z" transform="translate(-7753.372 -12835.1)" fill="#f04e4f"/>
      <path id="Path_15732" data-name="Path 15732" d="M196.43,199.519a5.259,5.259,0,1,0,5.259-5.259A5.259,5.259,0,0,0,196.43,199.519Z" transform="translate(-7761.17 -12842.905)" fill="#df3b47"/>
      <path id="Path_15733" data-name="Path 15733" d="M204.4,205.69a3.43,3.43,0,1,0,3.43-3.43,3.43,3.43,0,0,0-3.43,3.43Z" transform="translate(-7767.317 -12849.075)" fill="#fff"/>
      <line id="Line_308" data-name="Line 308" x1="13.16" y1="13.157" transform="translate(-7575.29 -12658.46)" fill="none" stroke="#214ba0" stroke-miterlimit="10" stroke-width="4.77"/>
      <path id="Path_15734" data-name="Path 15734" d="M122.639,140.217l-4.857-4.857-4.9.32L118.3,141.1Z" transform="translate(-7696.725 -12797.474)" fill="#214ba0"/>
      <path id="Path_15735" data-name="Path 15735" d="M139.177,123.679l-4.857-4.857.32-4.9,5.415,5.415Z" transform="translate(-7713.262 -12780.937)" fill="#16347a"/>
      <path id="Path_15736" data-name="Path 15736" d="M201.3,202.346l-5.378-1.875,3.5-3.5Z" transform="translate(-7760.776 -12844.996)" fill="#214ba0"/>
      <path id="Path_15737" data-name="Path 15737" d="M201.3,208.247l-5.378-1.875,1.752-1.752Z" transform="translate(-7760.776 -12850.896)" fill="#16347a"/>
    </g>
  </g>
</svg>
