<svg xmlns="http://www.w3.org/2000/svg" width="414.171" height="250.757" viewBox="0 0 414.171 250.757">
  <g id="Layer_2" data-name="Layer 2" transform="translate(13.573 0.001)">
    <g id="Layer_1" data-name="Layer 1" transform="translate(-13.573 -0.001)">
      <circle id="Ellipse_456" data-name="Ellipse 456" cx="14.305" cy="14.305" r="14.305" transform="translate(174.084 109.985) rotate(-45)" fill="#0d2584"/>
      <path id="Path_14359" data-name="Path 14359" d="M927.88,579.88h-82.11A5.119,5.119,0,0,0,840.65,585V667.11a5.12,5.12,0,0,0,5.119,5.12h29.172a14.305,14.305,0,1,1,23.769,0H933V585a5.12,5.12,0,0,0-5.12-5.119Z" transform="translate(-746.65 -516.069)" fill="#f58e8e"/>
      <path id="Path_14360" data-name="Path 14360" d="M471.35,217.556q.479.019.95,0h57.622A7.656,7.656,0,1,0,527.1,203.7a13.029,13.029,0,0,0-24.262-7.858A12.693,12.693,0,0,0,481.532,199a11.824,11.824,0,1,0-10.182,18.561Zm32.714-6.987.076.091h-.127A.976.976,0,0,1,504.064,210.57Z" transform="translate(-407.884 -168.457)" fill="#b7c6f7"/>
      <path id="Path_14361" data-name="Path 14361" d="M237.428,770.043a.54.54,0,1,1-.3-1.039,3.926,3.926,0,0,0,1.311-.705.541.541,0,0,1,.686.836,5.081,5.081,0,0,1-1.663.9Z" transform="translate(-209.194 -683.645)" fill="#6a9dd8"/>
      <path id="Path_14362" data-name="Path 14362" d="M147.747,184.878a.54.54,0,0,1-.295-1.039,31.432,31.432,0,0,0,3.111-1.179.542.542,0,1,1,.44.99,32.541,32.541,0,0,1-3.221,1.218Zm-5.467,1.229a.471.471,0,0,1-.059.012,31.663,31.663,0,0,1-3.432.267.541.541,0,0,1-.024-1.082,30.288,30.288,0,0,0,3.313-.258.54.54,0,0,1,.2,1.06Zm13.547-5.138a.54.54,0,0,1-.434-.972,29.467,29.467,0,0,0,2.641-2.015.54.54,0,0,1,.7.82A30.152,30.152,0,0,1,156,180.893a.5.5,0,0,1-.178.076Zm-22.519,4.995a.538.538,0,0,1-.22.008,28.153,28.153,0,0,1-3.357-.789.541.541,0,0,1,.313-1.035,27.108,27.108,0,0,0,3.227.759.54.54,0,0,1,.04,1.057Zm29.076-11.1a.536.536,0,0,1-.462-.1.541.541,0,0,1-.1-.759,26.013,26.013,0,0,0,1.568-2.253q.151-.241.294-.487a.541.541,0,1,1,.932.55c-.1.171-.2.34-.307.507a27.127,27.127,0,0,1-1.633,2.346.53.53,0,0,1-.3.193ZM124.971,182.8a.537.537,0,0,1-.478-.11,4.909,4.909,0,0,1-1.735-2.531,3.522,3.522,0,0,1-.1-.7.54.54,0,1,1,1.08-.048,2.545,2.545,0,0,0,.072.486,3.874,3.874,0,0,0,1.38,1.969.54.54,0,0,1-.22.939Zm43.609-15.537a22.232,22.232,0,0,1-2.281.44,7.069,7.069,0,0,1-.557-1.456,10.751,10.751,0,0,0,.235-2.305,8.3,8.3,0,0,0-.055-.887.541.541,0,0,1,1.074-.124,9.858,9.858,0,0,1,.063,1,11.862,11.862,0,0,1-.26,2.539.6.6,0,0,1-.018.064,21.67,21.67,0,0,0,2.588-.613.545.545,0,0,1,.31,1.044C169.317,167.076,168.947,167.174,168.58,167.264Zm-38.251,8.986a.549.549,0,0,1-.19.013q-.314-.036-.623-.066a8.71,8.71,0,0,0-2.573.142.54.54,0,0,1-.22-1.057,9.7,9.7,0,0,1,2.9-.161c.21.021.424.044.638.068a.54.54,0,0,1,.07,1.061Zm44.481-11.485a.54.54,0,0,1-.393-1,31.44,31.44,0,0,0,2.813-1.775.54.54,0,0,1,.624.88,32.473,32.473,0,0,1-2.911,1.837A.57.57,0,0,1,174.809,164.765ZM160.767,167.6a.541.541,0,0,1-.249,0,9.172,9.172,0,0,1-3.283-1.4.54.54,0,1,1,.622-.88,8.086,8.086,0,0,0,2.9,1.237.54.54,0,0,1,.012,1.052Zm21.225-8.224a.54.54,0,0,1-.505-.914c.687-.66,1.368-1.359,2.023-2.08l.3-.33a.54.54,0,1,1,.807.72l-.3.33c-.672.739-1.37,1.457-2.074,2.133A.55.55,0,0,1,181.992,159.373Zm-26.972,2.174a.586.586,0,0,1-.118.015.54.54,0,0,1-.55-.526,5.006,5.006,0,0,1,.33-1.942,4.732,4.732,0,0,1,.967-1.532.54.54,0,1,1,.789.738,3.664,3.664,0,0,0-.748,1.183,3.92,3.92,0,0,0-.255,1.524A.543.543,0,0,1,155.02,161.548Zm9.243-3.02a.542.542,0,0,1-.511-.139,5.773,5.773,0,0,0-1.528-1.086,4.7,4.7,0,0,0-1.127-.375.54.54,0,0,1,.212-1.06,5.794,5.794,0,0,1,1.383.462,6.874,6.874,0,0,1,1.816,1.287.541.541,0,0,1,.007.77.536.536,0,0,1-.254.14Zm23.617-5.951a.54.54,0,0,1-.564-.847c.627-.841,1.27-1.735,1.965-2.735a.54.54,0,1,1,.887.617c-.7,1.009-1.351,1.913-1.981,2.763a.53.53,0,0,1-.309.2Zm5.111-7.407a.54.54,0,0,1-.581-.823l.255-.386c.528-.8,1.075-1.626,1.618-2.437a.54.54,0,1,1,.9.6c-.54.808-1.086,1.633-1.614,2.432l-.255.386a.538.538,0,0,1-.322.227Zm5.073-7.435a.541.541,0,0,1-.568-.843c.66-.912,1.354-1.827,2.047-2.718a.54.54,0,1,1,.853.66c-.687.88-1.368,1.788-2.026,2.691a.537.537,0,0,1-.308.21Zm5.6-7.048a.54.54,0,0,1-.54-.88c.737-.854,1.5-1.708,2.264-2.54a.54.54,0,0,1,.8.732c-.757.823-1.511,1.669-2.242,2.514a.525.525,0,0,1-.279.174Zm6.156-6.564a.54.54,0,0,1-.509-.909c.8-.791,1.633-1.581,2.462-2.347a.54.54,0,1,1,.734.793c-.821.759-1.642,1.541-2.439,2.324a.522.522,0,0,1-.25.139Zm6.668-6.042a.541.541,0,0,1-.478-.94c.866-.724,1.761-1.444,2.641-2.14a.54.54,0,1,1,.668.85c-.88.69-1.761,1.4-2.618,2.12a.55.55,0,0,1-.216.11Zm7.133-5.487a.54.54,0,0,1-.44-.966c.922-.651,1.871-1.3,2.807-1.921a.54.54,0,0,1,.6.9c-.931.617-1.871,1.258-2.78,1.9a.522.522,0,0,1-.186.084Zm7.552-4.895a.54.54,0,0,1-.406-.99c.972-.576,1.964-1.143,2.952-1.688a.541.541,0,1,1,.523.946c-.978.54-1.963,1.1-2.925,1.672a.526.526,0,0,1-.146.061Zm7.923-4.265a.54.54,0,0,1-.366-1.011c1.017-.494,2.053-.979,3.081-1.442a.542.542,0,0,1,.44.99c-1.018.457-2.045.936-3.05,1.431a.5.5,0,0,1-.107.032Z" transform="translate(-107.664 -89.827)" fill="#6a9dd8"/>
      <path id="Path_14363" data-name="Path 14363" d="M1250.4,77.362a.54.54,0,0,1-.33-1.028c.525-.2,1.062-.407,1.6-.605a.541.541,0,0,1,.374,1.015c-.528.195-1.061.4-1.58.6a.506.506,0,0,1-.06.02Z" transform="translate(-1110.706 -67.366)" fill="#6a9dd8"/>
      <circle id="Ellipse_457" data-name="Ellipse 457" cx="4.642" cy="4.642" r="4.642" transform="translate(141.904 2.648) rotate(-8.23)" fill="#f8b716"/>
      <path id="Path_14364" data-name="Path 14364" d="M3636.561,333.6a4.642,4.642,0,1,0,5.49,3.6,4.641,4.641,0,0,0-5.49-3.6Z" transform="translate(-3231.606 -296.798)" fill="#3655b5"/>
      <path id="Path_14365" data-name="Path 14365" d="M2688.725,353.9a.54.54,0,0,1,.529-.93,6.685,6.685,0,0,0,3.081.44.54.54,0,1,1,.1,1.076,7.759,7.759,0,0,1-3.577-.512.509.509,0,0,1-.13-.075Zm8.425-1.732a.645.645,0,0,1-.087-.086.539.539,0,0,1,.077-.76,11.74,11.74,0,0,0,1.853-1.907c.119-.154.237-.311.347-.47a.54.54,0,0,1,.88.621c-.121.173-.249.344-.378.512a12.827,12.827,0,0,1-2.024,2.082A.543.543,0,0,1,2697.15,352.164Zm4.361-7.673a.541.541,0,0,1-.206-.5c.006-.052.012-.11.019-.157a14.9,14.9,0,0,0,0-3.109.54.54,0,1,1,1.075-.11,15.9,15.9,0,0,1,0,3.335c-.005.058-.013.118-.02.176a.54.54,0,0,1-.867.361Zm-30.525-30.525a.656.656,0,0,1-.051-.044,17.4,17.4,0,0,1-2.224-2.7.54.54,0,1,1,.9-.6,16.217,16.217,0,0,0,2.085,2.531.54.54,0,0,1-.712.811Zm4.511,3.35a.54.54,0,0,1,.594-.9,22.677,22.677,0,0,0,3.012,1.387.541.541,0,1,1-.381,1.012,23.863,23.863,0,0,1-3.16-1.458A.483.483,0,0,1,2675.5,317.315Zm24.619,18.35a.538.538,0,0,1-.169-.22,29.382,29.382,0,0,0-1.444-3.013.54.54,0,0,1,.948-.518,30.267,30.267,0,0,1,1.491,3.119.54.54,0,0,1-.832.63Zm-16.079-15.58a.54.54,0,0,1,.4-.964c.4.049.814.089,1.218.117.688.047,1.4.07,2.1.068a.541.541,0,0,1,0,1.082c-.733,0-1.466-.023-2.18-.072-.422-.029-.853-.07-1.278-.122A.55.55,0,0,1,2684.036,320.086Zm-17.343-13.917a.532.532,0,0,1-.2-.33c-.029-.149-.056-.3-.079-.454a.535.535,0,0,1,.11-.419,4,4,0,0,1,2.911-1.533.54.54,0,1,1,.094,1.076,2.928,2.928,0,0,0-2.006.951c.01.059.021.118.032.177a.539.539,0,0,1-.862.528Zm28.93,21.678a.55.55,0,0,1-.11-.11q-.169-.239-.342-.478c-.542-.749-1.1-1.5-1.667-2.237a.541.541,0,0,1,.858-.66c.569.743,1.135,1.5,1.685,2.261.11.161.232.322.348.485a.54.54,0,0,1-.77.741Zm-5.571-7.108a.508.508,0,0,1-.079-.076c-.731-.852-1.484-1.7-2.241-2.531a.54.54,0,1,1,.8-.731c.771.835,1.527,1.695,2.266,2.555a.541.541,0,0,1-.742.78Zm-6.173-6.593a.512.512,0,0,1-.046-.041c-.8-.785-1.627-1.566-2.455-2.323a.541.541,0,0,1,.731-.8c.835.77,1.669,1.555,2.48,2.347a.54.54,0,0,1-.709.813Zm-9.437-8.074a.54.54,0,0,1,.619-.88,15.746,15.746,0,0,1,1.4.99c.457.361.916.731,1.365,1.1a.54.54,0,0,1-.679.83c-.44-.365-.9-.731-1.35-1.088a14.783,14.783,0,0,0-1.3-.919.418.418,0,0,1-.048-.035Zm18.595,13.738a.541.541,0,0,1,.248-.962c1.053-.165,2.163-.38,3.3-.638a.541.541,0,0,1,.24,1.054c-1.159.264-2.292.483-3.371.653A.537.537,0,0,1,2693.037,319.811Zm8.771-2.124a.54.54,0,0,1,.172-.943c.966-.3,2.019-.639,3.221-1.042a.54.54,0,0,1,.343,1.025c-1.21.4-2.271.749-3.245,1.05a.539.539,0,0,1-.491-.089Zm8.566-2.871a.531.531,0,0,1-.181-.253.541.541,0,0,1,.338-.686c1.2-.407,2.257-.756,3.239-1.065a.541.541,0,1,1,.33,1.031c-.974.307-2.026.653-3.217,1.057a.539.539,0,0,1-.509-.087Zm8.654-2.587a.54.54,0,0,1,.2-.953c1.158-.277,2.288-.514,3.36-.7a.541.541,0,1,1,.186,1.065c-1.05.183-2.158.415-3.292.688a.541.541,0,0,1-.458-.1Zm8.927-1.287a.54.54,0,0,1,.314-.967,31.071,31.071,0,0,1,3.454.087.54.54,0,1,1-.089,1.077,29.969,29.969,0,0,0-3.333-.084.539.539,0,0,1-.347-.116Zm8.919,1.133a.541.541,0,0,1,.488-.945c1.04.315,2.1.7,3.244,1.17a.541.541,0,1,1-.413,1c-1.11-.459-2.138-.83-3.144-1.133a.529.529,0,0,1-.175-.09Zm8.295,3.543a.54.54,0,0,1,.577-.909q.628.317,1.254.638c.591.3,1.181.6,1.773.9a.54.54,0,1,1-.484.966c-.594-.3-1.187-.6-1.779-.9q-.625-.32-1.252-.637a.558.558,0,0,1-.088-.054Zm8.152,3.889a.54.54,0,0,1,.531-.93c.668.265,1.321.505,1.952.712.392.13.8.249,1.2.355a.54.54,0,0,1-.273,1.046c-.428-.11-.855-.238-1.269-.374-.647-.215-1.321-.461-2.01-.734a.567.567,0,0,1-.132-.074Zm8.8,1.79a.541.541,0,0,1,.33-.968,18.89,18.89,0,0,0,3.286-.3.541.541,0,0,1,.193,1.064,20.192,20.192,0,0,1-3.474.314.542.542,0,0,1-.336-.112Zm8.616-2.291a.509.509,0,0,1-.122-.134.539.539,0,0,1,.16-.747,9.784,9.784,0,0,0,2.379-2.145.541.541,0,1,1,.848.67,10.9,10.9,0,0,1-2.641,2.382.543.543,0,0,1-.624-.025Z" transform="translate(-2371.5 -270.039)" fill="#6a9dd8"/>
      <path id="Path_14366" data-name="Path 14366" d="M2368.29,448.688q.479.018.949,0h57.623a7.656,7.656,0,1,0-2.823-13.855,13.029,13.029,0,0,0-24.262-7.855,12.694,12.694,0,0,0-21.305,3.153,11.824,11.824,0,1,0-10.182,18.561ZM2401,441.7l.077.091h-.132Z" transform="translate(-2096.083 -374.158)" fill="#b7c6f7"/>
      <path id="Path_14367" data-name="Path 14367" d="M742.533,1753.442l-3.668-1.717a22.427,22.427,0,0,0-.517-4.161l3.146-2.548a3.5,3.5,0,0,0,.84-4.464l-2.467-4.358a3.485,3.485,0,0,0-2.121-1.657,3.438,3.438,0,0,0-2.13.087l-3.813,1.388a22.456,22.456,0,0,0-3.433-2.662l.414-3.979a3.521,3.521,0,0,0-2.566-3.755l-4.821-1.333a3.51,3.51,0,0,0-4.127,1.9l-1.74,3.712a21.983,21.983,0,0,0-4.159.539l-2.523-3.138a3.5,3.5,0,0,0-4.464-.84l-4.369,2.464a3.521,3.521,0,0,0-1.574,4.265l1.4,3.851a21.837,21.837,0,0,0-2.56,3.325l-3.98-.409a3.507,3.507,0,0,0-3.754,2.557l-1.333,4.822a3.506,3.506,0,0,0,1.9,4.125l3.711,1.743a22.083,22.083,0,0,0,.54,4.165l-3.125,2.514a3.5,3.5,0,0,0-.84,4.466l2.471,4.358a3.5,3.5,0,0,0,4.251,1.57l3.851-1.4a22.373,22.373,0,0,0,3.207,2.489l-.422,4.025a3.511,3.511,0,0,0,2.561,3.758l4.836,1.331a3.511,3.511,0,0,0,4.127-1.908l1.717-3.668a22.308,22.308,0,0,0,4.163-.513l2.544,3.145a3.5,3.5,0,0,0,4.464.84l4.359-2.47a3.521,3.521,0,0,0,1.573-4.262l-1.387-3.812a22.086,22.086,0,0,0,2.576-3.3l4.026.422a3.508,3.508,0,0,0,3.754-2.562l1.333-4.822A3.469,3.469,0,0,0,742.533,1753.442Zm-14.364,2.222a12.276,12.276,0,1,1-8.558-15.105A12.276,12.276,0,0,1,728.17,1755.663Z" transform="translate(-610.878 -1534.427)" fill="#0d2584"/>
      <path id="Path_14368" data-name="Path 14368" d="M848.759,1869.61a12.276,12.276,0,1,1-15.106,8.559,12.276,12.276,0,0,1,15.106-8.559Zm5.465,14.249a9.066,9.066,0,1,0-11.153,6.322A9.066,9.066,0,0,0,854.224,1883.859Z" transform="translate(-740.025 -1663.479)" fill="#6a9dd8"/>
      <path id="Path_14369" data-name="Path 14369" d="M839.158,1890.652a12.643,12.643,0,1,1,15.552-8.815A12.643,12.643,0,0,1,839.158,1890.652Zm6.543-23.665a11.911,11.911,0,1,0,8.3,14.655,11.911,11.911,0,0,0-8.3-14.655Zm-5.685,20.572a9.433,9.433,0,1,1,11.6-6.577A9.433,9.433,0,0,1,840.016,1887.559Zm4.832-17.478a8.7,8.7,0,1,0,6.065,10.706,8.7,8.7,0,0,0-6.065-10.706Z" transform="translate(-737.065 -1660.503)" fill="#0d2584"/>
      <path id="Path_14370" data-name="Path 14370" d="M1971.109,329.33H1889a5.12,5.12,0,0,0-5.12,5.119v29.177a14.305,14.305,0,1,1,0,23.769v34.291h34.291a14.305,14.305,0,1,1,23.769,0h29.171a5.12,5.12,0,0,0,5.12-5.12V334.449a5.12,5.12,0,0,0-5.12-5.119Z" transform="translate(-1675.082 -293.09)" fill="#54d7e9"/>
      <path id="Path_14371" data-name="Path 14371" d="M2013.88,1419.11h87.229a5.12,5.12,0,0,1,5.12,5.12v82.111a5.12,5.12,0,0,1-5.12,5.12H2019a5.12,5.12,0,0,1-5.12-5.12v-87.23Z" transform="translate(-1790.777 -1262.949)" fill="#6a9dd8"/>
      <circle id="Ellipse_458" data-name="Ellipse 458" cx="14.305" cy="14.305" r="14.305" transform="translate(200.832 188.03)" fill="#6a9dd8"/>
      <circle id="Ellipse_459" data-name="Ellipse 459" cx="14.305" cy="14.305" r="14.305" transform="translate(254.972 133.889)" fill="#6a9dd8"/>
      <path id="Path_14372" data-name="Path 14372" d="M1029.034,1479.59A14.305,14.305,0,1,1,1037,1453.4v-34.29H949.769a5.12,5.12,0,0,0-5.119,5.119v82.11a5.12,5.12,0,0,0,5.119,5.12h82.111a5.12,5.12,0,0,0,5.12-5.12v-29.171A14.243,14.243,0,0,1,1029.034,1479.59Z" transform="translate(-839.206 -1262.949)" fill="#3655b5"/>
      <circle id="Ellipse_460" data-name="Ellipse 460" cx="14.305" cy="14.305" r="14.305" transform="translate(137.313 133.889)" fill="#3655b5"/>
      <path id="Path_14373" data-name="Path 14373" d="M2008.381,2249.346l-4.651.014v-1.11l1.4.089,2.707.375a.64.64,0,0,1,.55.632Z" transform="translate(-1781.744 -2000.85)" fill="#1d1d4d"/>
      <path id="Path_14374" data-name="Path 14374" d="M2046.592,1919.14a2.08,2.08,0,0,1,1.229.22,3.7,3.7,0,0,1,2.023,2.728c.531,2.826,1.564,8.323,1.944,10.429a2.741,2.741,0,0,1-.174,1.628l-.574,1.24a1.655,1.655,0,0,1-1.957.974,2.706,2.706,0,0,1-1.682-1.469l-1-2a10.732,10.732,0,0,0-3.109-3.81,4.428,4.428,0,0,1-1.664-3.881c.323-3.039,2.062-5.323,4.523-5.942Z" transform="translate(-1815.456 -1707.93)" fill="#f8b716"/>
      <path id="Path_14375" data-name="Path 14375" d="M1996.679,1925.787a2.114,2.114,0,0,0-1.11.571,3.7,3.7,0,0,0-1.12,3.2c.33,2.861.98,8.411,1.242,10.535a2.751,2.751,0,0,0,.65,1.5l.917,1.014a1.656,1.656,0,0,0,2.158.349,2.705,2.705,0,0,0,1.169-1.9l.357-2.21a10.716,10.716,0,0,1,1.836-4.561,4.429,4.429,0,0,0,.435-4.2c-1.21-2.806-3.551-4.47-6.083-4.328Z" transform="translate(-1773.459 -1713.841)" fill="#f8b716"/>
      <ellipse id="Ellipse_461" data-name="Ellipse 461" cx="7.299" cy="3.192" rx="7.299" ry="3.192" transform="translate(229.187 199.361) rotate(-33.215)" fill="#3655b5"/>
      <path id="Path_14376" data-name="Path 14376" d="M1969.9,1761.645l-5.2,2.335a1.625,1.625,0,0,0-.931,1.785l.451,2.381a13.961,13.961,0,0,0,2.06,5.087l.687,1.043a6.01,6.01,0,0,1,.5,5.684l-.22.51a.911.911,0,0,0,.266,1.071l.039.031a12.147,12.147,0,0,0,10.276,1.392,12.61,12.61,0,0,0,1.62-.707,1.421,1.421,0,0,0,.805-1.58l-.583-2.843a15.423,15.423,0,0,1,.07-6.526l.251-1.1a19.568,19.568,0,0,0,.49-4.351v-1.527a1.412,1.412,0,0,0-.895-1.313l-3.839-1.512A7.527,7.527,0,0,0,1969.9,1761.645Z" transform="translate(-1746.155 -1567.202)" fill="#3655b5"/>
      <path id="Path_14377" data-name="Path 14377" d="M2017.506,1730.66l-2.616,4.3.9.712a5.053,5.053,0,0,0,4.21.977,2.344,2.344,0,0,0,1.839-2.464l-.207-1.949Z" transform="translate(-1791.676 -1540.216)" fill="#fcb47f"/>
      <path id="Path_14378" data-name="Path 14378" d="M2019.927,1687.2a2.433,2.433,0,0,0,1.247-1.372c.918-2.179-.091-4.646-1.094-6.786a1.429,1.429,0,0,0-.429-.606,6.73,6.73,0,0,0-2.382-.828c-1.529.592-1.749,2.028-3.26,2.7a.688.688,0,0,0-.33.24.613.613,0,0,0-.03.432,13.561,13.561,0,0,0,.841,1.906,11.348,11.348,0,0,0,.9,1.933,4.951,4.951,0,0,0,3.145,2.437A2.424,2.424,0,0,0,2019.927,1687.2Z" transform="translate(-1790.548 -1492.993)" fill="#f49b5f"/>
      <path id="Path_14379" data-name="Path 14379" d="M2020.207,1683.427a2.431,2.431,0,0,0,1.247-1.373c.918-2.179-.091-4.645-1.094-6.786a1.441,1.441,0,0,0-.429-.606,6.709,6.709,0,0,0-2.382-.827c-1.529.592-1.749,2.028-3.26,2.7a.685.685,0,0,0-.33.239.616.616,0,0,0-.03.434,13.584,13.584,0,0,0,.841,1.906,11.3,11.3,0,0,0,.9,1.932,4.953,4.953,0,0,0,3.145,2.438A2.421,2.421,0,0,0,2020.207,1683.427Z" transform="translate(-1790.797 -1489.636)" fill="#fcb47f"/>
      <path id="Path_14380" data-name="Path 14380" d="M2001.814,1689.653s-2.474-2.1-2.824-3.938-.011-2.892.935-3.164a10.747,10.747,0,0,1,3.316.2,50.822,50.822,0,0,0-1.1,5.071A2.6,2.6,0,0,1,2001.814,1689.653Z" transform="translate(-1777.406 -1497.327)" fill="#11112d"/>
      <path id="Path_14381" data-name="Path 14381" d="M2002.5,1662.622c.131-.038,2.971-2.806,3.3-2.875a2.13,2.13,0,0,1,.81.035c.55.1,1.174.494,2.588.792h.021a5.883,5.883,0,0,0,1.3.11c.668,0,1.817-.11,1.967-.089.33-.02,1.378,1.141-.606,1.871a19.568,19.568,0,0,1-4.639.538,6.354,6.354,0,0,0-4.47,1.489c-1.808,1.4-2.1.99-1.679.162A16.092,16.092,0,0,1,2002.5,1662.622Z" transform="translate(-1779.248 -1477.082)" fill="#11112d"/>
      <path id="Path_14382" data-name="Path 14382" d="M2020.542,1713.751a1.26,1.26,0,0,0,.279,1.379c.368.374.838.364,1.051-.024a1.257,1.257,0,0,0-.28-1.379C2021.225,1713.353,2020.755,1713.364,2020.542,1713.751Z" transform="translate(-1796.613 -1524.903)" fill="#fcb47f"/>
      <path id="Path_14383" data-name="Path 14383" d="M2145.018,1746.928a2.344,2.344,0,0,1-3.473-.99,3.188,3.188,0,0,1,1.117-3.947,2.344,2.344,0,0,1,3.473.99A3.188,3.188,0,0,1,2145.018,1746.928Z" transform="translate(-1904.14 -1549.935)" fill="#0d2584"/>
      <path id="Path_14384" data-name="Path 14384" d="M2155.088,1669.94l.719.11a69.928,69.928,0,0,1,.262,10.058,2.212,2.212,0,1,1-4.336-.694A88.336,88.336,0,0,1,2155.088,1669.94Z" transform="translate(-1913.407 -1486.178)" fill="#fcb47f"/>
      <path id="Path_14385" data-name="Path 14385" d="M2172.921,1649.232l-.287-.22a1.2,1.2,0,0,1-.5-.844l-.022-.461a1.53,1.53,0,0,0-.468-.958l-.4-.409c-.132-.134-.051-.294.11-.22l.069.033a3.241,3.241,0,0,1,1.313,1.249v.008a2.807,2.807,0,0,1,.36.99l.078.536Z" transform="translate(-1930.768 -1464.962)" fill="#fcb47f"/>
      <path id="Path_14386" data-name="Path 14386" d="M2179.962,1658.12a.142.142,0,0,1-.191-.02l-.032-.036a.6.6,0,0,1-.161-.46l.034-.227a.77.77,0,0,0-.135-.512l-.155-.239c-.052-.078,0-.147.077-.1l.031.023a1.609,1.609,0,0,1,.518.735,1.416,1.416,0,0,1,.081.524l-.011.2a.142.142,0,0,1-.056.11Z" transform="translate(-1937.995 -1474.228)" fill="#f49b5f"/>
      <ellipse id="Ellipse_462" data-name="Ellipse 462" cx="7.269" cy="3.179" rx="7.269" ry="3.179" transform="translate(211.795 208.506) rotate(-66.61)" fill="#3655b5"/>
      <path id="Path_14387" data-name="Path 14387" d="M1924.522,1865.878a2.344,2.344,0,0,1,2.613-2.491,3.186,3.186,0,0,1,2.836,2.963,2.342,2.342,0,0,1-2.614,2.491A3.186,3.186,0,0,1,1924.522,1865.878Z" transform="translate(-1711.25 -1658.328)" fill="#0d2584"/>
      <path id="Path_14388" data-name="Path 14388" d="M1942.351,1871.891v.728a70.038,70.038,0,0,1-9.892,1.841,2.213,2.213,0,1,1,0-4.394A88.3,88.3,0,0,1,1942.351,1871.891Z" transform="translate(-1716.109 -1664.278)" fill="#fcb47f"/>
      <path id="Path_14389" data-name="Path 14389" d="M2038.51,1873.846l.173-.318a1.194,1.194,0,0,1,.756-.625l.452-.095a1.541,1.541,0,0,0,.872-.612l.341-.46c.11-.152.282-.1.238.078-.006.023-.013.047-.022.073a3.237,3.237,0,0,1-1.027,1.493h-.006a2.809,2.809,0,0,1-.925.512l-.517.161Z" transform="translate(-1812.696 -1665.69)" fill="#fcb47f"/>
      <path id="Path_14390" data-name="Path 14390" d="M2041.3,1882.149a.14.14,0,0,1-.011-.191l.031-.037a.609.609,0,0,1,.429-.232h.229a.77.77,0,0,0,.485-.22l.21-.19c.069-.063.146-.02.11.061a.323.323,0,0,1-.018.034,1.609,1.609,0,0,1-.645.628,1.405,1.405,0,0,1-.5.162l-.2.021a.142.142,0,0,1-.11-.038Z" transform="translate(-1815.137 -1674.232)" fill="#f49b5f"/>
      <path id="Path_14391" data-name="Path 14391" d="M1989.95,2034.2a2.125,2.125,0,0,0-.33.672l-1.385,4.842a15.433,15.433,0,0,0-.4,6.7l1.566,10.544,1.48.1,2.641-13.731,1.273-8.028a1.117,1.117,0,0,0-.7-1.21l-1.569-.625A2.191,2.191,0,0,0,1989.95,2034.2Z" transform="translate(-1767.424 -1809.562)" fill="#f8b716"/>
      <path id="Path_14392" data-name="Path 14392" d="M2078.418,2035.221a2.14,2.14,0,0,0-.254.7l-.853,4.963a15.452,15.452,0,0,0,.33,6.707l2.787,10.138,1.394.11,1.138-13.933.4-8.119a1.117,1.117,0,0,0-.823-1.127l-1.627-.452A2.193,2.193,0,0,0,2078.418,2035.221Z" transform="translate(-1847.03 -1810.291)" fill="#f8b716"/>
      <path id="Path_14393" data-name="Path 14393" d="M2111.637,2249.337l-4.652.023-.005-1.11,1.416.065,2.688.389a.644.644,0,0,1,.55.634Z" transform="translate(-1873.632 -2000.85)" fill="#1d1d4d"/>
      <circle id="Ellipse_463" data-name="Ellipse 463" cx="2.478" cy="2.478" r="2.478" transform="translate(335.321 246.054) rotate(-80.78)" fill="#6a9dd8"/>
      <path id="Path_14394" data-name="Path 14394" d="M3047.56,2206.928a1.459,1.459,0,1,0-1.46-1.459A1.459,1.459,0,0,0,3047.56,2206.928Z" transform="translate(-2709.41 -1961.478)" fill="#6ac1c6"/>
      <path id="Path_14395" data-name="Path 14395" d="M3391.608,1870.98l-8.037,6.02,4.344,5.095,9-11.115Z" transform="translate(-3009.745 -1665.095)" fill="#3655b5"/>
      <path id="Path_14396" data-name="Path 14396" d="M3055.531,2131.25l-6.941,9.689.77,1.21,3.607-.339,6.8-5.389Z" transform="translate(-2711.626 -1896.725)" fill="#3655b5"/>
      <path id="Path_14397" data-name="Path 14397" d="M3215.39,1958.788l.39-.55a.306.306,0,0,1,.44-.066l6.5,5.03-.88.605-5.942-4.008Z" transform="translate(-2860.071 -1742.634)" fill="#6a9dd8"/>
      <path id="Path_14398" data-name="Path 14398" d="M3120.353,2100.51c-.005.034-1.464,2.737-1.464,2.737l2.279-.693.5-1.556a10.484,10.484,0,0,0-1.078-.723A1.915,1.915,0,0,0,3120.353,2100.51Z" transform="translate(-2774.19 -1869.157)" fill="#6ac1c6"/>
      <path id="Path_14399" data-name="Path 14399" d="M3132.663,2016.43l-6.113,9.461,2.617,1.615,5.909-9.384Z" transform="translate(-2781.007 -1794.54)" fill="#6a9dd8"/>
      <path id="Path_14400" data-name="Path 14400" d="M3142.831,1926.628l-4.951-5.708-30.18,23.057,4.67,5.849Z" transform="translate(-2764.231 -1709.54)" fill="#0d2584"/>
      <path id="Path_14401" data-name="Path 14401" d="M3054.429,1872.988c.011-.014-6.848-5.318-6.848-5.318s-4.742.2-4.827.2,7.373,10.351,7.373,10.351l2.174-.9Z" transform="translate(-2706.432 -1662.149)" fill="#3655b5"/>
      <path id="Path_14402" data-name="Path 14402" d="M3384.039,2123.11l8.368,10.519-3.8,1.228-9.49-6.829Z" transform="translate(-3005.784 -1889.481)" fill="#3655b5"/>
      <path id="Path_14403" data-name="Path 14403" d="M0,0H3.383V.824a.3.3,0,0,1-.3.3H.3a.3.3,0,0,1-.3-.3Z" transform="translate(387.386 245.075) rotate(180)" fill="#6a9dd8"/>
      <path id="Path_14404" data-name="Path 14404" d="M3142.831,1935.647l-4.774,5.769L3107.7,1918.3l4.847-5.787Z" transform="translate(-2764.231 -1702.055)" fill="#0d2584"/>
      <rect id="Rectangle_25196" data-name="Rectangle 25196" width="3.294" height="3.294" rx="1.647" transform="translate(359.277 225.454) rotate(-43.64)" fill="#6a9dd8"/>
      <circle id="Ellipse_464" data-name="Ellipse 464" cx="2.478" cy="2.478" r="2.478" transform="translate(334.935 207.513) rotate(-80.78)" fill="#6a9dd8"/>
      <path id="Path_14405" data-name="Path 14405" d="M3388.1,1520.76l-8.037,6.02,4.344,5.094,9-11.114Z" transform="translate(-3006.621 -1353.414)" fill="#3655b5"/>
      <path id="Path_14406" data-name="Path 14406" d="M3052.021,1781.03l-6.941,9.689.769,1.21,3.608-.339,6.8-5.389Z" transform="translate(-2708.502 -1585.043)" fill="#3655b5"/>
      <path id="Path_14407" data-name="Path 14407" d="M3211.87,1608.568l.389-.55a.306.306,0,0,1,.44-.066l6.5,5.03-.88.605-5.942-4.008Z" transform="translate(-2856.939 -1430.953)" fill="#6a9dd8"/>
      <path id="Path_14408" data-name="Path 14408" d="M3116.844,1750.288c0,.035-1.464,2.738-1.464,2.738l2.279-.693.5-1.556a10.533,10.533,0,0,0-1.077-.723A1.915,1.915,0,0,0,3116.844,1750.288Z" transform="translate(-2771.066 -1557.475)" fill="#6ac1c6"/>
      <path id="Path_14409" data-name="Path 14409" d="M3129.144,1666.21l-6.114,9.461,2.618,1.615,5.909-9.384Z" transform="translate(-2777.875 -1482.858)" fill="#6a9dd8"/>
      <path id="Path_14410" data-name="Path 14410" d="M3139.319,1576.407l-4.95-5.707-30.179,23.057,4.669,5.849Z" transform="translate(-2761.108 -1397.858)" fill="#0d2584"/>
      <path id="Path_14411" data-name="Path 14411" d="M3050.919,1522.737c.011-.013-6.848-5.317-6.848-5.317s-4.742.2-4.827.2,7.373,10.351,7.373,10.351l2.175-.9Z" transform="translate(-2703.308 -1350.441)" fill="#3655b5"/>
      <path id="Path_14412" data-name="Path 14412" d="M3380.528,1772.89l9.3,10.794-4.732.953-9.489-6.829Z" transform="translate(-3002.66 -1577.799)" fill="#3655b5"/>
      <path id="Path_14413" data-name="Path 14413" d="M3139.319,1585.427l-4.772,5.768-30.357-23.118,4.847-5.787Z" transform="translate(-2761.108 -1390.374)" fill="#0d2584"/>
      <rect id="Rectangle_25197" data-name="Rectangle 25197" width="3.294" height="3.294" rx="1.647" transform="translate(358.889 186.916) rotate(-43.64)" fill="#6a9dd8"/>
      <g id="Group_13385" data-name="Group 13385" transform="translate(385.779 123.409)">
        <path id="Path_14414" data-name="Path 14414" d="M3493.814,1134.735l-.81-8.33-.8-4.924,1.518,4.928.178.726a22.291,22.291,0,0,1,.355,8.913Z" transform="translate(-3492.2 -1121.48)" fill="#dba11d"/>
      </g>
      <g id="Group_13386" data-name="Group 13386" transform="translate(384.878 126.349)">
        <path id="Path_14415" data-name="Path 14415" d="M3485.222,1160.056l-.906-5.665a24.108,24.108,0,0,1-.227-5.735l.035-.456.416,2.2a24.071,24.071,0,0,0,.668,2.683l2.736,8.81-.783,1.622-1.541-.834Z" transform="translate(-3484.013 -1148.2)" fill="#edb324"/>
      </g>
      <g id="Group_13387" data-name="Group 13387" transform="translate(388.026 132.533)">
        <path id="Path_14416" data-name="Path 14416" d="M3512.62,1212.687l2.447-8.3.3,4.513-2.352,6.161Z" transform="translate(-3512.62 -1204.39)" fill="#dba11d"/>
      </g>
      <g id="Group_13388" data-name="Group 13388" transform="translate(385.431 136.117)">
        <path id="Path_14417" data-name="Path 14417" d="M3489.04,1240.723l.447-3.763,1.918,5.633-.142,4.587-.954.024Z" transform="translate(-3489.04 -1236.96)" fill="#dba11d"/>
      </g>
      <g id="Group_13389" data-name="Group 13389" transform="translate(387.004 138.238)">
        <path id="Path_14418" data-name="Path 14418" d="M3504.174,1256.24l-.844,9.711,1.728.645.149-5.491Z" transform="translate(-3503.33 -1256.24)" fill="#dba11d"/>
      </g>
      <g id="Group_13390" data-name="Group 13390" transform="translate(384.218 143.431)">
        <path id="Path_14419" data-name="Path 14419" d="M3479.764,1304.3l-1.754-.874,2.7,8.439h1Z" transform="translate(-3478.01 -1303.43)" fill="#dba11d"/>
      </g>
      <g id="Group_13391" data-name="Group 13391" transform="translate(385.356 152.011)">
        <path id="Path_14420" data-name="Path 14420" d="M3491.369,1381.44l-2.553-.04-.075.33a.257.257,0,0,1-.192.194.258.258,0,0,0-.2.283l.636,4.9a.55.55,0,0,0,.544.477h3.672a.551.551,0,0,0,.544-.476l.636-4.9a.258.258,0,0,0-.2-.283.257.257,0,0,1-.192-.194l-.074-.33Z" transform="translate(-3488.351 -1381.4)" fill="#b7c6f7"/>
      </g>
      <g id="Group_13392" data-name="Group 13392" transform="translate(385.514 151.87)">
        <path id="Path_14421" data-name="Path 14421" d="M3495.418,1380.3h-5.538a.09.09,0,1,1,0-.181h5.538a.09.09,0,0,1,0,.181Z" transform="translate(-3489.79 -1380.12)" fill="#b7c6f7"/>
      </g>
      <g id="Group_13393" data-name="Group 13393" transform="translate(388.81 140.977)">
        <path id="Path_14422" data-name="Path 14422" d="M3520.759,1292.1l-1.019-.149.34-2.329a19.008,19.008,0,0,1,2.8-7.5,2.421,2.421,0,0,1,1.3-.99v.054a2.433,2.433,0,0,1-.39,1.419,17.973,17.973,0,0,0-2.7,7.169Z" transform="translate(-3519.74 -1281.13)" fill="#edb324"/>
      </g>
      <g id="Group_13394" data-name="Group 13394" transform="translate(388.209 134.533)">
        <path id="Path_14423" data-name="Path 14423" d="M3515.481,1239.844l-1.2-.022.065-3.567c.5-3.871.047-8.363,1.893-11.293l1.506-2.392s.168.028-.364,2.764c-.771,3.946-1.94,7.153-1.834,10.944Z" transform="translate(-3514.28 -1222.57)" fill="#edb324"/>
      </g>
      <g id="Group_13395" data-name="Group 13395" transform="translate(383.429 134.101)">
        <path id="Path_14424" data-name="Path 14424" d="M3470.84,1218.64l1.282,3.309a54.287,54.287,0,0,1,2.476,8.313l1.306,6.148h-1.256l-1.708-8.678a5.02,5.02,0,0,0-.846-1.954,5.026,5.026,0,0,1-.927-2.567Z" transform="translate(-3470.84 -1218.64)" fill="#edb324"/>
      </g>
      <g id="Group_13396" data-name="Group 13396" transform="translate(385.182 144.102)">
        <path id="Path_14425" data-name="Path 14425" d="M3489.813,1317.305l-.165-1.2a11.4,11.4,0,0,0-2.878-6.58,11.41,11.41,0,0,1,3.728,6.463l.166,1.313Z" transform="translate(-3486.77 -1309.53)" fill="#dba11d"/>
      </g>
      <path id="Path_14426" data-name="Path 14426" d="M2748.734,923.967c.562-1.663-2.064-4.05-5.866-5.335s-7.338-.977-7.9.685,2.064,4.05,5.866,5.334S2748.173,925.629,2748.734,923.967Z" transform="translate(-2432.449 -816.839)" fill="#dba11d"/>
      <path id="Path_14427" data-name="Path 14427" d="M2805.581,1090.134a2.1,2.1,0,0,0-1.228.214,3.7,3.7,0,0,0-2.021,2.726c-.531,2.825-1.562,8.317-1.942,10.422a2.733,2.733,0,0,0,.174,1.626l.573,1.239a1.653,1.653,0,0,0,1.955.974,2.705,2.705,0,0,0,1.682-1.468l.99-2a10.732,10.732,0,0,1,3.108-3.807,4.42,4.42,0,0,0,1.662-3.878c-.323-3.037-2.06-5.321-4.519-5.936Z" transform="translate(-2490.691 -970.149)" fill="#3655b5"/>
      <path id="Path_14428" data-name="Path 14428" d="M2864.313,1096.776a2.113,2.113,0,0,1,1.109.57,3.7,3.7,0,0,1,1.121,3.2c-.33,2.855-.981,8.405-1.243,10.528a2.753,2.753,0,0,1-.649,1.5l-.917,1.012a1.653,1.653,0,0,1-2.156.349,2.7,2.7,0,0,1-1.169-1.9l-.355-2.208a10.727,10.727,0,0,0-1.835-4.558,4.427,4.427,0,0,1-.435-4.2c1.21-2.8,3.549-4.468,6.079-4.324Z" transform="translate(-2541.515 -976.056)" fill="#3655b5"/>
      <path id="Path_14429" data-name="Path 14429" d="M2829.578,932.731l5.2,2.334a1.624,1.624,0,0,1,.931,1.784l-.45,2.379a13.968,13.968,0,0,1-2.059,5.085l-.685,1.042a6,6,0,0,0-.5,5.679l.22.511a.91.91,0,0,1-.266,1.07l-.039.031a12.144,12.144,0,0,1-10.268,1.392,12.354,12.354,0,0,1-1.619-.708,1.415,1.415,0,0,1-.8-1.578l.582-2.841a15.408,15.408,0,0,0-.07-6.522l-.251-1.1a19.585,19.585,0,0,1-.489-4.349v-1.522a1.411,1.411,0,0,1,.894-1.313l3.837-1.511A7.525,7.525,0,0,1,2829.578,932.731Z" transform="translate(-2507.309 -829.505)" fill="#f8b716"/>
      <path id="Path_14430" data-name="Path 14430" d="M2861.077,901.78l2.615,4.3-.9.712a5.046,5.046,0,0,1-4.207.976,2.343,2.343,0,0,1-1.837-2.462l.207-1.948Z" transform="translate(-2540.89 -802.547)" fill="#b26a2f"/>
      <path id="Path_14431" data-name="Path 14431" d="M2844.366,857.8a2.433,2.433,0,0,1-1.431-1.177c-1.22-2.023-.578-4.607.11-6.869a1.392,1.392,0,0,1,.336-.66,6.735,6.735,0,0,1,2.236-1.161c1.6.365,2.022,1.754,3.613,2.2a.679.679,0,0,1,.363.189.607.607,0,0,1,.093.424,13.605,13.605,0,0,1-.556,2.006,11.364,11.364,0,0,1-.614,2.041,4.934,4.934,0,0,1-2.76,2.861A2.442,2.442,0,0,1,2844.366,857.8Z" transform="translate(-2527.99 -754.62)" fill="#9e5c2b"/>
      <path id="Path_14432" data-name="Path 14432" d="M2843.546,854.115a2.433,2.433,0,0,1-1.431-1.178c-1.22-2.023-.577-4.606.11-6.868a1.4,1.4,0,0,1,.337-.66,6.756,6.756,0,0,1,2.236-1.16c1.6.365,2.021,1.754,3.613,2.2a.678.678,0,0,1,.363.189.6.6,0,0,1,.093.424,13.6,13.6,0,0,1-.556,2.006,11.332,11.332,0,0,1-.614,2.04,4.926,4.926,0,0,1-2.76,2.861A2.441,2.441,0,0,1,2843.546,854.115Z" transform="translate(-2527.261 -751.345)" fill="#b26a2f"/>
      <ellipse id="Ellipse_465" data-name="Ellipse 465" cx="7.265" cy="3.177" rx="7.265" ry="3.177" transform="translate(313.535 107.607) rotate(-16.49)" fill="#dba11d"/>
      <path id="Path_14433" data-name="Path 14433" d="M2884.254,855.1s2.145-2.432,2.226-4.3-.406-2.861-1.381-2.994a10.72,10.72,0,0,0-3.25.679,50.729,50.729,0,0,1,1.818,4.856A2.6,2.6,0,0,0,2884.254,855.1Z" transform="translate(-2563.234 -754.495)" fill="#11112d"/>
      <path id="Path_14434" data-name="Path 14434" d="M2828.238,832.852s-.9-1.77-1.913-1.891a11.462,11.462,0,0,0-1.75.007,7.091,7.091,0,0,0-3.431,1.122l-.015.01a5.626,5.626,0,0,1-.929.484,5.858,5.858,0,0,0-1.2.57c-.031.122.838,1.664,1.96,1.665s4.512-2.112,5.849-.487S2828.238,832.852,2828.238,832.852Z" transform="translate(-2507.303 -739.494)" fill="#11112d"/>
      <path id="Path_14435" data-name="Path 14435" d="M2855.176,816.718s.5-1.92-.181-2.684a11.524,11.524,0,0,0-1.32-1.153,7.088,7.088,0,0,0-3.314-1.431h-.019a5.576,5.576,0,0,1-1.017-.252,5.874,5.874,0,0,0-1.273-.365,2.66,2.66,0,0,0,.366,2.545c.84.743,4.777,1.4,4.705,3.508S2855.176,816.718,2855.176,816.718Z" transform="translate(-2533.003 -721.602)" fill="#11112d"/>
      <path id="Path_14436" data-name="Path 14436" d="M2872.506,813.106s.943-1.745.464-2.65a11.538,11.538,0,0,0-1-1.43,7.1,7.1,0,0,0-2.876-2.181l-.018-.007a5.554,5.554,0,0,1-.927-.489,5.934,5.934,0,0,0-1.149-.66,2.664,2.664,0,0,0-.253,2.56c.637.922,4.3,2.5,3.73,4.53S2872.506,813.106,2872.506,813.106Z" transform="translate(-2549.571 -717.029)" fill="#11112d"/>
      <path id="Path_14437" data-name="Path 14437" d="M2892.954,880.463a1.258,1.258,0,0,1-.078,1.4c-.311.423-.776.48-1.042.128a1.259,1.259,0,0,1,.078-1.4C2892.221,880.168,2892.683,880.111,2892.954,880.463Z" transform="translate(-2571.96 -783.371)" fill="#b26a2f"/>
      <path id="Path_14438" data-name="Path 14438" d="M2805.35,1203.279a2.13,2.13,0,0,1,.376.646l1.739,4.722a15.427,15.427,0,0,1,.893,6.652l-.9,10.468-1.349.364-3.647-13.49-1.863-7.906a1.117,1.117,0,0,1,.6-1.257l1.517-.74A2.193,2.193,0,0,1,2805.35,1203.279Z" transform="translate(-2490.9 -1070.189)" fill="#3655b5"/>
      <path id="Path_14439" data-name="Path 14439" d="M2887.939,1212.135a2.154,2.154,0,0,1,.243.707l.778,4.972a15.407,15.407,0,0,1-.429,6.7L2885.6,1234.6l-1.395.093-.93-13.942-.275-8.119a1.114,1.114,0,0,1,.838-1.114l1.633-.427a2.192,2.192,0,0,1,2.472,1.045Z" transform="translate(-2564.254 -1077.754)" fill="#3655b5"/>
      <path id="Path_14440" data-name="Path 14440" d="M2733.48,910.613a2.335,2.335,0,0,1-2.861-2.192,3.184,3.184,0,0,1,2.485-3.259,2.339,2.339,0,0,1,2.861,2.192A3.188,3.188,0,0,1,2733.48,910.613Z" transform="translate(-2428.639 -805.512)" fill="#dba11d"/>
      <path id="Path_14441" data-name="Path 14441" d="M2731.415,833.82l.72-.11a69.839,69.839,0,0,1,3.354,9.479,2.211,2.211,0,1,1-4.337.677A88.048,88.048,0,0,1,2731.415,833.82Z" transform="translate(-2429.045 -741.968)" fill="#b26a2f"/>
      <path id="Path_14442" data-name="Path 14442" d="M2718.707,817.675l-.341-.122a1.209,1.209,0,0,1-.734-.648l-.164-.432a1.541,1.541,0,0,0-.739-.77l-.506-.265c-.167-.087-.139-.264.04-.246l.077.01a3.244,3.244,0,0,1,1.633.781l.007.007a2.789,2.789,0,0,1,.648.833l.24.486Z" transform="translate(-2415.733 -725.485)" fill="#b26a2f"/>
      <path id="Path_14443" data-name="Path 14443" d="M2728.09,824.219a.141.141,0,0,1-.187.041l-.042-.025a.6.6,0,0,1-.3-.387l-.038-.22a.76.76,0,0,0-.286-.446l-.22-.178c-.073-.058-.042-.142.044-.11l.036.012a1.605,1.605,0,0,1,.719.538,1.393,1.393,0,0,1,.238.473l.053.2a.139.139,0,0,1-.021.118Z" transform="translate(-2425.407 -732.335)" fill="#9e5c2b"/>
      <path id="Path_14444" data-name="Path 14444" d="M2864.38,1426.429h4.648v-1.109l-1.4.093-2.7.384a.639.639,0,0,0-.55.633Z" transform="translate(-2547.686 -1268.476)" fill="#1d1d4d"/>
      <path id="Path_14445" data-name="Path 14445" d="M2824.358,1415.669l4.521-1.08-.259-1.078-1.359.4-2.518,1.015A.644.644,0,0,0,2824.358,1415.669Z" transform="translate(-2512.053 -1257.966)" fill="#1d1d4d"/>
      <path id="Path_14446" data-name="Path 14446" d="M2760.877,953.526l-1.577-.034a.364.364,0,0,1-.355-.347l-.048-1.037a.362.362,0,0,1,.249-.362l.528-.176a.364.364,0,0,1,.409.132l.431.6a.465.465,0,0,0,.259.174.453.453,0,0,1,.33.33l.042.174Z" transform="translate(-2453.811 -846.842)" fill="#b26a2f"/>
      <path id="Path_14447" data-name="Path 14447" d="M2837.217,972.733a2.342,2.342,0,0,1,2.177-2.877,3.183,3.183,0,0,1,3.273,2.467,2.342,2.342,0,0,1-2.178,2.878A3.184,3.184,0,0,1,2837.217,972.733Z" transform="translate(-2523.464 -863.125)" fill="#dba11d"/>
      <path id="Path_14448" data-name="Path 14448" d="M2773.22,961.957l.258-.717a72.152,72.152,0,0,1,9.914,1.64,2.211,2.211,0,1,1-1.486,4.13A88.182,88.182,0,0,1,2773.22,961.957Z" transform="translate(-2466.558 -855.464)" fill="#b26a2f"/>
      <path id="Path_14449" data-name="Path 14449" d="M2871.471,1271.406l-.921-1.006H2784l-.909,1.1.906.907h86.557Z" transform="translate(-2475.342 -1130.604)" fill="#0d2584"/>
      <path id="Path_14450" data-name="Path 14450" d="M2769.86,1092.941A7.947,7.947,0,0,1,2777.8,1085h75.294a7.949,7.949,0,0,1,7.94,7.939v38.677H2769.86Zm88.8,0a5.568,5.568,0,0,0-5.562-5.563h-75.3a5.569,5.569,0,0,0-5.562,5.563v36.3h86.418Z" transform="translate(-2463.568 -965.605)" fill="#0d2584"/>
      <rect id="Rectangle_25198" data-name="Rectangle 25198" width="87.501" height="6.094" transform="translate(395.487 164.046) rotate(180)" fill="#3655b5"/>
      <rect id="Rectangle_25199" data-name="Rectangle 25199" width="8.018" height="18.742" transform="translate(356.736 140.102) rotate(180)" fill="#3655b5"/>
      <path id="Path_14451" data-name="Path 14451" d="M0,0H93.923V2.116a1.592,1.592,0,0,1-1.592,1.592H1.592A1.592,1.592,0,0,1,0,2.116Z" transform="translate(398.599 167.756) rotate(180)" fill="#0d2584"/>
      <path id="Path_14452" data-name="Path 14452" d="M2841.3,2230.066H2756a3.5,3.5,0,0,1,3.5-3.5H2841.3Z" transform="translate(-2451.233 -1981.555)" fill="#0d2584"/>
      <path id="Path_14453" data-name="Path 14453" d="M658.48,1029.784c-.007-1.761,3.24-3.191,7.252-3.205s7.27,1.393,7.278,3.147-3.24,3.191-7.253,3.206S658.487,1031.539,658.48,1029.784Z" transform="translate(-584.526 -913.613)" fill="#0d2584"/>
      <path id="Path_14454" data-name="Path 14454" d="M643.74,1167.919a2.117,2.117,0,0,1,1.229.215,3.7,3.7,0,0,1,2.021,2.726c.53,2.824,1.562,8.317,1.942,10.422a2.732,2.732,0,0,1-.174,1.626l-.574,1.239a1.652,1.652,0,0,1-1.954.974,2.706,2.706,0,0,1-1.681-1.469l-1-2a10.722,10.722,0,0,0-3.106-3.806,4.418,4.418,0,0,1-1.663-3.878c.323-3.038,2.061-5.32,4.519-5.935Z" transform="translate(-566.978 -1039.374)" fill="#1d1d4d"/>
      <path id="Path_14455" data-name="Path 14455" d="M593.838,1174.566a2.114,2.114,0,0,0-1.109.57,3.7,3.7,0,0,0-1.12,3.2c.33,2.854.979,8.405,1.242,10.528a2.733,2.733,0,0,0,.649,1.5l.917,1.012a1.653,1.653,0,0,0,2.156.349,2.706,2.706,0,0,0,1.169-1.9l.355-2.207a10.709,10.709,0,0,1,1.836-4.558,4.426,4.426,0,0,0,.435-4.2c-1.211-2.8-3.549-4.468-6.079-4.325Z" transform="translate(-524.99 -1045.285)" fill="#1d1d4d"/>
      <path id="Path_14456" data-name="Path 14456" d="M567.089,1010.514l-5.2,2.334a1.624,1.624,0,0,0-.93,1.784l.45,2.379a13.965,13.965,0,0,0,2.06,5.084l.686,1.042a6,6,0,0,1,.5,5.68l-.22.511a.91.91,0,0,0,.266,1.07l.039.031a12.141,12.141,0,0,0,10.269,1.391,12.305,12.305,0,0,0,1.619-.706,1.418,1.418,0,0,0,.8-1.578l-.583-2.841a15.424,15.424,0,0,1,.072-6.522l.25-1.1a19.537,19.537,0,0,0,.49-4.349V1013.2a1.411,1.411,0,0,0-.894-1.313l-3.837-1.511A7.525,7.525,0,0,0,567.089,1010.514Z" transform="translate(-497.712 -898.728)" fill="#0d2584"/>
      <path id="Path_14457" data-name="Path 14457" d="M614.619,979.56l-2.619,4.3.9.712a5.048,5.048,0,0,0,4.208.977,2.344,2.344,0,0,0,1.838-2.462l-.207-1.949Z" transform="translate(-543.161 -871.768)" fill="#fcb47f"/>
      <path id="Path_14458" data-name="Path 14458" d="M627.358,935.595a2.44,2.44,0,0,0,1.431-1.179c1.221-2.023.579-4.606-.11-6.868a1.406,1.406,0,0,0-.337-.66,6.762,6.762,0,0,0-2.237-1.16c-1.6.365-2.02,1.754-3.612,2.2a.685.685,0,0,0-.364.188.614.614,0,0,0-.092.425,13.757,13.757,0,0,0,.557,2.006,11.34,11.34,0,0,0,.613,2.04,4.93,4.93,0,0,0,2.76,2.861A2.455,2.455,0,0,0,627.358,935.595Z" transform="translate(-552.087 -823.859)" fill="#f49b5f"/>
      <path id="Path_14459" data-name="Path 14459" d="M628.18,931.9a2.439,2.439,0,0,0,1.43-1.178c1.221-2.023.579-4.607-.11-6.869a1.406,1.406,0,0,0-.337-.66,6.761,6.761,0,0,0-2.237-1.16c-1.6.365-2.02,1.754-3.612,2.2a.684.684,0,0,0-.364.188.62.62,0,0,0-.092.425,13.786,13.786,0,0,0,.557,2.006,11.342,11.342,0,0,0,.613,2.04,4.931,4.931,0,0,0,2.76,2.861A2.445,2.445,0,0,0,628.18,931.9Z" transform="translate(-552.819 -820.566)" fill="#fcb47f"/>
      <ellipse id="Ellipse_466" data-name="Ellipse 466" cx="3.177" cy="7.265" rx="3.177" ry="7.265" transform="translate(61.875 113.782)" fill="#0d2584"/>
      <path id="Path_14460" data-name="Path 14460" d="M610.167,932.875s-2.146-2.432-2.226-4.3.406-2.861,1.381-3a10.677,10.677,0,0,1,3.25.68,50.681,50.681,0,0,0-1.819,4.855A2.609,2.609,0,0,1,610.167,932.875Z" transform="translate(-539.541 -823.714)" fill="#11112d"/>
      <path id="Path_14461" data-name="Path 14461" d="M622.965,896.358s-.5-1.92.182-2.683a11.63,11.63,0,0,1,1.32-1.154,7.088,7.088,0,0,1,3.314-1.43h.019a5.567,5.567,0,0,0,1.017-.252,5.864,5.864,0,0,1,1.273-.365,2.665,2.665,0,0,1-.367,2.546c-.84.744-4.781,1.4-4.711,3.5S622.965,896.358,622.965,896.358Z" transform="translate(-552.763 -792.479)" fill="#11112d"/>
      <path id="Path_14462" data-name="Path 14462" d="M620.73,909.645s.211-1.973,1.117-2.447a11.511,11.511,0,0,1,1.639-.615,7.084,7.084,0,0,1,3.606-.169h.018a5.715,5.715,0,0,0,1.041.122,5.614,5.614,0,0,1,1.321.11c.072.1-.194,1.854-1.24,2.254s-4.965-.373-5.641,1.622S620.73,909.645,620.73,909.645Z" transform="translate(-550.931 -806.531)" fill="#11112d"/>
      <path id="Path_14463" data-name="Path 14463" d="M605.984,890.9s-.943-1.745-.466-2.649a11.6,11.6,0,0,1,1-1.431,7.082,7.082,0,0,1,2.876-2.18l.017-.008a5.608,5.608,0,0,0,.928-.487,5.839,5.839,0,0,1,1.149-.66,2.663,2.663,0,0,1,.253,2.56c-.637.923-4.3,2.5-3.73,4.53S605.984,890.9,605.984,890.9Z" transform="translate(-537.273 -786.267)" fill="#11112d"/>
      <path id="Path_14464" data-name="Path 14464" d="M627.024,958.25a1.259,1.259,0,0,0,.078,1.4c.309.424.776.48,1.042.127a1.257,1.257,0,0,0-.077-1.4C627.758,957.955,627.29,957.9,627.024,958.25Z" transform="translate(-556.372 -852.597)" fill="#fcb47f"/>
      <path id="Path_14465" data-name="Path 14465" d="M663.165,1281.064a2.144,2.144,0,0,0-.377.646l-1.744,4.719a15.437,15.437,0,0,0-.892,6.651l.9,10.468,1.35.365,3.647-13.49,1.862-7.906a1.114,1.114,0,0,0-.6-1.257l-1.517-.74A2.191,2.191,0,0,0,663.165,1281.064Z" transform="translate(-585.964 -1139.414)" fill="#1d1d4d"/>
      <path id="Path_14466" data-name="Path 14466" d="M594.233,1289.955a2.136,2.136,0,0,0-.243.708l-.779,4.972a15.433,15.433,0,0,0,.429,6.7l2.936,10.089,1.4.094.93-13.943.276-8.118a1.117,1.117,0,0,0-.839-1.115l-1.633-.427A2.193,2.193,0,0,0,594.233,1289.955Z" transform="translate(-526.274 -1147.012)" fill="#1d1d4d"/>
      <path id="Path_14467" data-name="Path 14467" d="M745.8,1028.349a2.342,2.342,0,0,0,3.432-1.114,3.183,3.183,0,0,0-1.258-3.9,2.342,2.342,0,0,0-3.432,1.113A3.185,3.185,0,0,0,745.8,1028.349Z" transform="translate(-660.906 -910.403)" fill="#6a9dd8"/>
      <path id="Path_14468" data-name="Path 14468" d="M759.878,962.966l-.642-.346a69.914,69.914,0,0,0-6.319,7.822,2.211,2.211,0,1,0,3.864,2.083A87.977,87.977,0,0,0,759.878,962.966Z" transform="translate(-668.241 -856.692)" fill="#fcb47f"/>
      <path id="Path_14469" data-name="Path 14469" d="M812.751,954.009h.362a1.211,1.211,0,0,0,.909-.367l.3-.353a1.541,1.541,0,0,1,.952-.472l.566-.081c.186-.026.22-.2.043-.245-.022-.006-.047-.011-.075-.016a3.235,3.235,0,0,0-1.8.194H814a2.784,2.784,0,0,0-.889.57l-.387.379Z" transform="translate(-721.794 -847.617)" fill="#fcb47f"/>
      <path id="Path_14470" data-name="Path 14470" d="M816.39,957.625a.14.14,0,0,0,.164.1l.047-.009a.6.6,0,0,0,.407-.267l.11-.2a.763.763,0,0,1,.419-.33l.267-.095c.088-.031.087-.12,0-.124h-.039a1.613,1.613,0,0,0-.858.268,1.386,1.386,0,0,0-.382.366l-.11.167a.14.14,0,0,0-.02.118Z" transform="translate(-725.06 -851.424)" fill="#f49b5f"/>
      <path id="Path_14471" data-name="Path 14471" d="M629.958,1504.218H625.31v-1.108l1.4.1,2.7.384a.638.638,0,0,1,.55.632Z" transform="translate(-555.007 -1337.706)" fill="#6a9dd8"/>
      <path id="Path_14472" data-name="Path 14472" d="M670.87,1493.459l-4.521-1.081.257-1.078,1.36.4,2.518,1.015A.642.642,0,0,1,670.87,1493.459Z" transform="translate(-591.53 -1327.196)" fill="#6a9dd8"/>
      <path id="Path_14473" data-name="Path 14473" d="M678.965,1154.669l1.438.646a.364.364,0,0,0,.471-.161l.489-.916a.363.363,0,0,0-.069-.433l-.4-.385a.361.361,0,0,0-.426-.056l-.646.353a.448.448,0,0,1-.308.046.45.45,0,0,0-.44.157l-.11.139Z" transform="translate(-602.753 -1026.406)" fill="#fcb47f"/>
      <ellipse id="Ellipse_467" data-name="Ellipse 467" cx="2.898" cy="2.551" rx="2.898" ry="2.551" transform="matrix(0.981, -0.195, 0.195, 0.981, 63.209, 124.74)" fill="#6a9dd8"/>
      <path id="Path_14474" data-name="Path 14474" d="M583.767,1136.813l.075-.759a71.606,71.606,0,0,0-9.658-2.772,2.211,2.211,0,1,0-.43,4.368A88.155,88.155,0,0,0,583.767,1136.813Z" transform="translate(-507.109 -1008.548)" fill="#fcb47f"/>
      <path id="Path_14475" data-name="Path 14475" d="M332.361,1422.223H330.64l38.4-103.383h1.721Z" transform="translate(-292.762 -1173.713)" fill="#0d2584"/>
      <path id="Path_14476" data-name="Path 14476" d="M450.781,1422.223H449.06l38.4-103.383h1.721Z" transform="translate(-398.151 -1173.713)" fill="#0d2584"/>
      <path id="Path_14477" data-name="Path 14477" d="M665.83,1412.188H654.52l.749-2.018h11.31Z" transform="translate(-581.002 -1254.993)" fill="#0d2584"/>
      <path id="Path_14478" data-name="Path 14478" d="M630.071,1508.457H618.76l.75-2.017h11.31Z" transform="translate(-549.177 -1340.67)" fill="#0d2584"/>
      <path id="Path_14479" data-name="Path 14479" d="M594.32,1604.717H583.01l.749-2.017h11.31Z" transform="translate(-517.361 -1426.337)" fill="#0d2584"/>
      <path id="Path_14480" data-name="Path 14480" d="M558.56,1700.978H547.25l.749-2.018h11.31Z" transform="translate(-485.536 -1512.004)" fill="#0d2584"/>
      <path id="Path_14481" data-name="Path 14481" d="M522.8,1797.238H511.49l.749-2.018H523.55Z" transform="translate(-453.711 -1597.672)" fill="#0d2584"/>
      <path id="Path_14482" data-name="Path 14482" d="M487.05,1893.5H475.74l.749-2.018H487.8Z" transform="translate(-421.895 -1683.339)" fill="#0d2584"/>
      <path id="Path_14483" data-name="Path 14483" d="M451.29,1989.767H439.98l.749-2.017h11.31Z" transform="translate(-390.07 -1769.016)" fill="#0d2584"/>
      <path id="Path_14484" data-name="Path 14484" d="M415.53,2086.028H404.22l.749-2.018H416.28Z" transform="translate(-358.246 -1854.683)" fill="#0d2584"/>
      <path id="Path_14485" data-name="Path 14485" d="M379.771,2182.288H368.46l.751-2.018h11.31Z" transform="translate(-326.421 -1940.35)" fill="#0d2584"/>
      <path id="Path_14486" data-name="Path 14486" d="M681.351,1318.84H679.63l38.4,103.383h1.721Z" transform="translate(-603.349 -1173.713)" fill="#b7c6f7"/>
      <path id="Path_14487" data-name="Path 14487" d="M799.772,1318.84H798.05l38.4,103.383h1.721Z" transform="translate(-708.738 -1173.713)" fill="#b7c6f7"/>
      <path id="Path_14488" data-name="Path 14488" d="M1014.821,2148.67H1003.51l.75,2.018h11.31Z" transform="translate(-891.589 -1912.228)" fill="#b7c6f7"/>
      <path id="Path_14489" data-name="Path 14489" d="M979.07,2052.41H967.76l.749,2.018h11.31Z" transform="translate(-859.773 -1826.56)" fill="#b7c6f7"/>
      <path id="Path_14490" data-name="Path 14490" d="M943.31,1956.15H932l.749,2.017h11.31Z" transform="translate(-827.948 -1740.893)" fill="#b7c6f7"/>
      <path id="Path_14491" data-name="Path 14491" d="M907.551,1859.88H896.24l.749,2.018H908.3Z" transform="translate(-796.123 -1655.217)" fill="#b7c6f7"/>
      <path id="Path_14492" data-name="Path 14492" d="M871.8,1763.62H860.49l.749,2.018h11.31Z" transform="translate(-764.307 -1569.549)" fill="#b7c6f7"/>
      <path id="Path_14493" data-name="Path 14493" d="M836.04,1667.36H824.73l.749,2.018h11.31Z" transform="translate(-732.482 -1483.882)" fill="#b7c6f7"/>
      <path id="Path_14494" data-name="Path 14494" d="M800.28,1571.1H788.97l.749,2.017H801.03Z" transform="translate(-700.657 -1398.214)" fill="#b7c6f7"/>
      <path id="Path_14495" data-name="Path 14495" d="M764.53,1474.84H753.22l.749,2.017h11.31Z" transform="translate(-668.841 -1312.547)" fill="#b7c6f7"/>
      <path id="Path_14496" data-name="Path 14496" d="M728.77,1378.57H717.46l.749,2.018h11.31Z" transform="translate(-637.016 -1226.87)" fill="#b7c6f7"/>
      <path id="Path_14497" data-name="Path 14497" d="M1506.431,2237.621l.11,1.228a.115.115,0,0,1-.119.126l-2.584-.083a.081.081,0,0,1-.029-.157l1.128-.467a.823.823,0,0,0,.479-.537l.041-.142Z" transform="translate(-1336.789 -1991.363)" fill="#f8b716"/>
      <path id="Path_14498" data-name="Path 14498" d="M1453.608,1978.4l.2,1.339a.311.311,0,0,1-.242.35l-.87.189a.314.314,0,0,1-.343-.159l-.22-.422a.312.312,0,0,1,.054-.365l.44-.45a.39.39,0,0,0,.11-.244.383.383,0,0,1,.233-.33l.141-.062Z" transform="translate(-1290.808 -1760.561)" fill="#f4be84"/>
      <ellipse id="Ellipse_468" data-name="Ellipse 468" cx="6.856" cy="2.03" rx="6.856" ry="2.03" transform="translate(162.186 211.904) rotate(-82.42)" fill="#6256b7"/>
      <path id="Path_14499" data-name="Path 14499" d="M1460.1,1886.852a1.554,1.554,0,0,0-1.9,1.233c-.673,3.648-1.188,9.031-1.188,9.031l1.089.265a82.873,82.873,0,0,0,3.111-8.56A1.583,1.583,0,0,0,1460.1,1886.852Z" transform="translate(-1295.185 -1679.181)" fill="#6256b7"/>
      <path id="Path_14500" data-name="Path 14500" d="M1457.822,1733.067s-.971,3.667.507,5.735l-3.7,1.505-2.271-2.006s1.191.561,1.448-5.622Z" transform="translate(-1291.047 -1542.014)" fill="#fcb47f"/>
      <path id="Path_14501" data-name="Path 14501" d="M1447.924,1689.813c-.527-.017-2.073-.2-2.125-.724a26.081,26.081,0,0,1-.3-5.477,1.577,1.577,0,0,1,.163-.582,2.782,2.782,0,0,1,1.629-1.29c1.361.032,1.938,1.07,3.308,1.167a.574.574,0,0,1,.33.09.5.5,0,0,1,.146.323,10.617,10.617,0,0,1-.119,1.69,9.076,9.076,0,0,1-.158,1.728,4.022,4.022,0,0,1-1.769,2.732,2.037,2.037,0,0,1-1.107.341Z" transform="translate(-1284.89 -1496.679)" fill="#fcb47f"/>
      <path id="Path_14502" data-name="Path 14502" d="M1445.77,1676.8l1.981.22a2.091,2.091,0,0,1,1.855,1.949l.142,2.323a8.882,8.882,0,0,0,1.588,4.549,2.224,2.224,0,0,0,.351.447c.11,0,.669-.6.619-.77s.179-7.508.179-7.508a28.359,28.359,0,0,0-1.489-2.618c-.145-.04-3.89-.091-3.89-.091l-1.336,1.487a.008.008,0,0,0,0,.007A.008.008,0,0,0,1445.77,1676.8Z" transform="translate(-1285.179 -1490.948)" fill="#432e36"/>
      <path id="Path_14503" data-name="Path 14503" d="M1481.96,2041.2l2.392,5.291a13.763,13.763,0,0,1,1.135,7.209l-.956,8.473-1,.22-.118-.708q-.79-3.314-1.419-6.667c-.829-4.429-1.665-8.113-2.79-12.9l-.009-.049a1.461,1.461,0,0,1,2.77-.862Z" transform="translate(-1314.904 -1815.825)" fill="#fcb47f"/>
      <path id="Path_14504" data-name="Path 14504" d="M1392.76,2236.193l-.1,1.23a.111.111,0,0,1-.044.085.109.109,0,0,1-.094.019l-2.531-.516a.083.083,0,0,1,0-.161l1.191-.268a.828.828,0,0,0,.562-.449l.064-.133Z" transform="translate(-1235.489 -1989.948)" fill="#f8b716"/>
      <path id="Path_14505" data-name="Path 14505" d="M1411.747,2041.657l.46,5.788a13.742,13.742,0,0,1-1.372,7.167l-3.767,7.647-1.018-.135.128-.705q.378-3.387.921-6.755c.72-4.448,1.181-8.2,1.742-13.085l.009-.049a1.461,1.461,0,0,1,2.9.128Z" transform="translate(-1249.833 -1815.795)" fill="#fcb47f"/>
      <path id="Path_14506" data-name="Path 14506" d="M1441.1,1790.94a16.851,16.851,0,0,1-7.032-.074l-.289-.009a1.051,1.051,0,0,1-.724-1.465,47.216,47.216,0,0,0-1-13.315c-.449-1.829,1.56-3.422,1.786-4.036l.189-.323a2.878,2.878,0,0,1,1.808-1.345c1.333-.318,3.433-.6,4.664.372.44.35,1.284,1.175,1.3,1.468C1441.8,1772.219,1442.387,1790.678,1441.1,1790.94Z" transform="translate(-1272.917 -1575.295)" fill="#f8b716"/>
      <ellipse id="Ellipse_469" data-name="Ellipse 469" cx="6.856" cy="2.03" rx="6.856" ry="2.03" transform="translate(159.199 208.239) rotate(-73.74)" fill="#dba11d"/>
      <path id="Path_14507" data-name="Path 14507" d="M1366.424,1918.869l-.948.966a.311.311,0,0,1-.426.019l-.677-.579a.311.311,0,0,1-.081-.368l.2-.434a.312.312,0,0,1,.324-.178l.627.08a.384.384,0,0,0,.261-.059.388.388,0,0,1,.4-.012l.134.076Z" transform="translate(-1212.646 -1707.166)" fill="#fcb47f"/>
      <path id="Path_14508" data-name="Path 14508" d="M1388.339,1875.669a1.556,1.556,0,0,0-2.129-.77c-3.312,1.668-7.86,4.632-7.86,4.632l.369.848a78.141,78.141,0,0,0,8.726-2.635A1.58,1.58,0,0,0,1388.339,1875.669Z" transform="translate(-1225.181 -1668.434)" fill="#fcb47f"/>
      <path id="Path_14509" data-name="Path 14509" d="M1442.082,1667.959a.681.681,0,0,1,.29-.955l1.085-.53a4.636,4.636,0,0,1,4.609.309l.352.235a8.731,8.731,0,0,1,3.47,4.605l1.257,3.937,1.725,3.466a3.886,3.886,0,0,1-4.261,5.538,3.788,3.788,0,0,1-2.641-2.053l-2.608-5.351-.889-6.345a2.652,2.652,0,0,0-1.483-2.026A2.09,2.09,0,0,1,1442.082,1667.959Z" transform="translate(-1281.818 -1482.674)" fill="#11112d"/>
      <path id="Path_14510" data-name="Path 14510" d="M1442.369,1672.013l.785-.383a2.088,2.088,0,0,0,.626.953,2.65,2.65,0,0,1,.9,2.343l-.163,1.285-.054-.386a2.652,2.652,0,0,0-1.483-2.026,2.081,2.081,0,0,1-.9-.831.681.681,0,0,1,.289-.955Z" transform="translate(-1281.816 -1487.682)" fill="#1a1a3b"/>
      <path id="Path_14511" data-name="Path 14511" d="M1519.695,1713.514a3.887,3.887,0,0,0,1.473-3.866l-.758-3.8-.181-4.129a8.714,8.714,0,0,0-.695-3.043,8.8,8.8,0,0,1,.948,2.026l1.257,3.937,1.725,3.465a3.885,3.885,0,0,1-4.024,5.58C1519.249,1713.146,1518.579,1711.768,1519.695,1713.514Z" transform="translate(-1350.413 -1511.755)" fill="#11112d"/>
      <path id="Path_14512" data-name="Path 14512" d="M1409.287,1931.214c.543-2.546,3.131-15.707,3.646-16.581.276-.468,1.4-.8,1.741-.923l.44-.155c2.5-.869,4.206-1.815,6.263,1.172.983,1.431.267,5.434-.227,7.043-.038.128-.076.256-.11.387a10.842,10.842,0,0,0,.841,7.747,4.162,4.162,0,0,1,.458,1.082c-.117.513-1.843,1.071-2.222,1.227a1.22,1.22,0,0,1-.344.088s-1.886.413-3.615.718a7.829,7.829,0,0,1-4.648-.606A10.079,10.079,0,0,1,1409.287,1931.214Z" transform="translate(-1252.713 -1702.219)" fill="#f8b716"/>
      <path id="Path_14513" data-name="Path 14513" d="M1884.024,536.921l.11,1.228a.115.115,0,0,1-.119.127l-2.583-.081a.083.083,0,0,1-.029-.158l1.128-.467a.825.825,0,0,0,.479-.537l.04-.142Z" transform="translate(-1672.833 -477.81)" fill="#3655b5"/>
      <path id="Path_14514" data-name="Path 14514" d="M1859.54,340.5l2.392,5.291a13.762,13.762,0,0,1,1.135,7.209l-.956,8.473-1,.22-.118-.706q-.792-3.316-1.42-6.668c-.828-4.429-1.665-8.113-2.79-12.9l-.009-.049a1.461,1.461,0,0,1,2.77-.862Z" transform="translate(-1650.935 -302.271)" fill="#fcb47f"/>
      <path id="Path_14515" data-name="Path 14515" d="M1716.157,406.249l-.88.86a.11.11,0,0,1-.172-.012l-1.564-2.059a.083.083,0,0,1,.11-.122l1.072.583a.828.828,0,0,0,.719.033l.136-.057Z" transform="translate(-1523.468 -360.344)" fill="#3655b5"/>
      <path id="Path_14516" data-name="Path 14516" d="M1747.58,287l-3.472,4.654a13.754,13.754,0,0,1-5.758,4.482l-7.875,3.264-.676-.77.561-.44q2.518-2.3,5.147-4.47c3.475-2.869,6.294-5.384,9.94-8.686l.038-.032a1.461,1.461,0,0,1,2.091,2.007Z" transform="translate(-1537.957 -253.35)" fill="#fcb47f"/>
      <ellipse id="Ellipse_470" data-name="Ellipse 470" cx="6.856" cy="2.03" rx="6.856" ry="2.03" transform="translate(210.181 19.17) rotate(-46.92)" fill="#3655b5"/>
      <path id="Path_14517" data-name="Path 14517" d="M1829.992,197.874l-1.008.9a.312.312,0,0,1-.426-.009l-.638-.621a.311.311,0,0,1-.057-.373l.228-.42a.311.311,0,0,1,.33-.157l.621.121a.393.393,0,0,0,.264-.043.385.385,0,0,1,.4.013l.129.084Z" transform="translate(-1625.195 -175.493)" fill="#fcb47f"/>
      <path id="Path_14518" data-name="Path 14518" d="M1852.51,159.971a1.556,1.556,0,0,0-2.076-.9c-3.411,1.455-8.143,4.124-8.143,4.124l.314.87a77.054,77.054,0,0,0,8.876-2.076A1.586,1.586,0,0,0,1852.51,159.971Z" transform="translate(-1638.069 -141.454)" fill="#fcb47f"/>
      <path id="Path_14519" data-name="Path 14519" d="M1948.184.734a.673.673,0,0,1,.681-.735h1.21a4.633,4.633,0,0,1,4,2.311l.212.366a8.731,8.731,0,0,1,1.077,5.665l-.614,4.092.015,3.8a3.955,3.955,0,0,1-1.818,3.378,3.852,3.852,0,0,1-5.918-3.3l.011-2.389a22.053,22.053,0,0,1,1.108-6.808l.913-2.768a2.684,2.684,0,0,0-.44-2.485,2.074,2.074,0,0,1-.436-1.128Z" transform="translate(-1731.28 0.001)" fill="#11112d"/>
      <path id="Path_14520" data-name="Path 14520" d="M1965.466,57.731s-.971,3.665.507,5.735l-3.7,1.5L1960,62.962s1.191.561,1.448-5.622Z" transform="translate(-1742.826 -51.03)" fill="#fcb47f"/>
      <path id="Path_14521" data-name="Path 14521" d="M1955.613,14.5c-.527-.017-2.072-.206-2.125-.724a26.087,26.087,0,0,1-.3-5.477,1.585,1.585,0,0,1,.163-.583,2.779,2.779,0,0,1,1.628-1.289c1.361.032,1.938,1.07,3.308,1.166a.584.584,0,0,1,.33.091.5.5,0,0,1,.146.324,10.64,10.64,0,0,1-.119,1.69,9.1,9.1,0,0,1-.158,1.728,4.007,4.007,0,0,1-1.769,2.732A2.044,2.044,0,0,1,1955.613,14.5Z" transform="translate(-1736.713 -5.722)" fill="#fcb47f"/>
      <path id="Path_14522" data-name="Path 14522" d="M1955.989,1.552l1.5.166a2.091,2.091,0,0,1,1.855,1.949l.142,2.323a8.881,8.881,0,0,0,1.588,4.549,2.542,2.542,0,0,0,.351.447c.11,0,.669-.6.619-.77-.04-.13.094-4.693.153-6.641a3.094,3.094,0,0,0-.4-1.623l-.08-.141a3.5,3.5,0,0,0-2.958-1.765L1956.841,0l-1.013,1.127a.257.257,0,0,0,.162.425Z" transform="translate(-1739.055 0)" fill="#11112d"/>
      <path id="Path_14523" data-name="Path 14523" d="M1948.756,115.626a16.852,16.852,0,0,1-7.032-.074l-.289-.01a1.05,1.05,0,0,1-.724-1.464,47.216,47.216,0,0,0-1-13.315c-.449-1.83,1.56-3.423,1.786-4.037l.189-.322a2.879,2.879,0,0,1,1.808-1.344c1.333-.319,3.433-.6,4.665.372.44.35,1.284,1.175,1.3,1.467C1949.464,96.9,1950.047,115.367,1948.756,115.626Z" transform="translate(-1724.713 -84.335)" fill="#0d2584"/>
      <ellipse id="Ellipse_471" data-name="Ellipse 471" cx="6.856" cy="2.03" rx="6.856" ry="2.03" transform="translate(215.347 24.635) rotate(-73.56)" fill="#3655b5"/>
      <path id="Path_14524" data-name="Path 14524" d="M1928.546,121.744l-.88-1.032a.311.311,0,0,1,.02-.426l.639-.622a.311.311,0,0,1,.374-.046l.414.24a.311.311,0,0,1,.147.338l-.137.617a.389.389,0,0,0,.035.265.389.389,0,0,1-.024.4l-.088.125Z" transform="translate(-1713.983 -106.417)" fill="#fcb47f"/>
      <path id="Path_14525" data-name="Path 14525" d="M1938.047,144.534a1.556,1.556,0,0,0,.957-2.051c-1.359-3.451-3.894-8.253-3.894-8.253l-.88.289a78.068,78.068,0,0,0,1.827,8.93A1.59,1.59,0,0,0,1938.047,144.534Z" transform="translate(-1719.892 -119.459)" fill="#fcb47f"/>
      <path id="Path_14526" data-name="Path 14526" d="M1839.041,253.495c2.562-.465,15.717-3.076,16.726-2.931.537.077,1.274.99,1.516,1.259l.312.352c1.754,1.981,3.278,3.2,1.3,6.237-.946,1.451-4.923,2.311-6.6,2.466-.133.013-.267.027-.4.044a10.845,10.845,0,0,0-6.845,3.723,4.127,4.127,0,0,1-.828.836c-.517.086-1.69-1.3-1.981-1.589a1.314,1.314,0,0,1-.212-.286s-1.1-1.587-2.037-3.07a7.83,7.83,0,0,1-1.21-4.53A9.9,9.9,0,0,1,1839.041,253.495Z" transform="translate(-1634.94 -222.986)" fill="#0d2584"/>
      <path id="Path_14527" data-name="Path 14527" d="M1931.21,1.578a8.09,8.09,0,0,0-3.34,3.585l-.22.465.207-2.853A2.992,2.992,0,0,1,1930.839,0h1.328Z" transform="translate(-1714.036 0)" fill="#11112d"/>
      <ellipse id="Ellipse_472" data-name="Ellipse 472" cx="3.177" cy="7.265" rx="3.177" ry="7.265" transform="matrix(0.873, -0.487, 0.487, 0.873, 386.585, 94.219)" fill="#3655b5"/>
      <path id="Path_14528" data-name="Path 14528" d="M3495.34,1000.743a2.107,2.107,0,0,1,.934-.826,3.7,3.7,0,0,1,3.391.12c2.276,1.21,6.479,3.439,8.681,4.622a5.289,5.289,0,0,1,2.229,2.3l.22.44a1.655,1.655,0,0,1-.459,2.136,2.713,2.713,0,0,1-2.2.4l-2.187-.471a10.717,10.717,0,0,0-4.913.054,4.434,4.434,0,0,1-4.071-1.121c-2.172-2.147-2.872-4.929-1.82-7.234Z" transform="translate(-3108.613 -889.567)" fill="#6a9dd8"/>
      <path id="Path_14529" data-name="Path 14529" d="M3424.925,1006.911a3.671,3.671,0,0,0,.086,1.372,2.046,2.046,0,0,0,.11.33,3.686,3.686,0,0,0,2.8,1.925c2.841.431,8.363,1.268,10.483,1.574a2.742,2.742,0,0,0,1.62-.231l1.218-.617a1.592,1.592,0,0,0,.9-1.988c-.955-2.49-9.967-7.253-11.411-7.043-3.024.429-4.532-4.065-5.062-1.587Z" transform="translate(-3046.523 -889.866)" fill="#6a9dd8"/>
      <path id="Path_14530" data-name="Path 14530" d="M3406.939,826.431l-5.2,2.336a1.624,1.624,0,0,0-.931,1.784l.45,2.379a13.97,13.97,0,0,0,2.059,5.081l.685,1.042a6,6,0,0,1,.5,5.679l-.22.511a.91.91,0,0,0,.266,1.07l.039.031a12.141,12.141,0,0,0,10.268,1.392,12.369,12.369,0,0,0,1.619-.708,1.415,1.415,0,0,0,.8-1.578l-.582-2.841a15.412,15.412,0,0,1,.071-6.522l.251-1.1a19.613,19.613,0,0,0,.488-4.349v-1.52a1.411,1.411,0,0,0-.894-1.313l-3.836-1.511a7.526,7.526,0,0,0-5.838.138Z" transform="translate(-3025.062 -734.902)" fill="#3655b5"/>
      <path id="Path_14531" data-name="Path 14531" d="M3454.5,795.48l-2.615,4.3.9.712a5.045,5.045,0,0,0,4.207.976,2.343,2.343,0,0,0,1.838-2.462l-.207-1.948Z" transform="translate(-3070.546 -707.944)" fill="#fcb47f"/>
      <path id="Path_14532" data-name="Path 14532" d="M3467.214,751.5a2.433,2.433,0,0,0,1.431-1.177c1.22-2.023.578-4.607-.11-6.869a1.4,1.4,0,0,0-.336-.66,6.742,6.742,0,0,0-2.237-1.161c-1.6.365-2.021,1.754-3.612,2.2a.688.688,0,0,0-.363.189.606.606,0,0,0-.092.424,13.6,13.6,0,0,0,.556,2.006,11.362,11.362,0,0,0,.614,2.041,4.936,4.936,0,0,0,2.76,2.861A2.443,2.443,0,0,0,3467.214,751.5Z" transform="translate(-3079.443 -660.018)" fill="#f49b5f"/>
      <path id="Path_14533" data-name="Path 14533" d="M3468.078,747.806a2.432,2.432,0,0,0,1.431-1.179c1.22-2.021.578-4.606-.11-6.868a1.454,1.454,0,0,0-.33-.66,6.759,6.759,0,0,0-2.237-1.161c-1.6.365-2.021,1.754-3.613,2.2a.678.678,0,0,0-.363.189.606.606,0,0,0-.093.424,13.633,13.633,0,0,0,.556,2.006,11.364,11.364,0,0,0,.614,2.041,4.934,4.934,0,0,0,2.76,2.861A2.422,2.422,0,0,0,3468.078,747.806Z" transform="translate(-3080.217 -656.734)" fill="#fcb47f"/>
      <ellipse id="Ellipse_473" data-name="Ellipse 473" cx="3.177" cy="7.265" rx="3.177" ry="7.265" transform="translate(374.377 93.524)" fill="#3655b5"/>
      <path id="Path_14534" data-name="Path 14534" d="M3450.015,748.8s-2.145-2.432-2.226-4.3.406-2.861,1.381-2.994a10.719,10.719,0,0,1,3.249.679,50.663,50.663,0,0,0-1.818,4.856A2.588,2.588,0,0,1,3450.015,748.8Z" transform="translate(-3066.889 -659.892)" fill="#11112d"/>
      <path id="Path_14535" data-name="Path 14535" d="M3456.185,710.418s-.5-1.92.181-2.684a11.535,11.535,0,0,1,1.321-1.153A7.087,7.087,0,0,1,3461,705.15h.019a5.578,5.578,0,0,0,1.017-.252,5.86,5.86,0,0,1,1.273-.365,2.662,2.662,0,0,1-.366,2.545c-.84.743-4.777,1.4-4.705,3.508S3456.185,710.418,3456.185,710.418Z" transform="translate(-3074.212 -627)" fill="#11112d"/>
      <path id="Path_14536" data-name="Path 14536" d="M3474.591,701.979s.246,1.969-.527,2.641a11.567,11.567,0,0,1-1.455.971,7.091,7.091,0,0,1-3.472.99h-.019a5.515,5.515,0,0,0-1.04.119,5.708,5.708,0,0,1-1.311.2,2.665,2.665,0,0,1,.692-2.477c.928-.628,4.919-.77,5.12-2.869S3474.591,701.979,3474.591,701.979Z" transform="translate(-3083.726 -623.61)" fill="#11112d"/>
      <path id="Path_14537" data-name="Path 14537" d="M3466.88,774.144a1.258,1.258,0,0,0,.078,1.4c.311.423.776.48,1.042.128a1.258,1.258,0,0,0-.078-1.4C3467.613,773.849,3467.147,773.8,3466.88,774.144Z" transform="translate(-3083.728 -688.752)" fill="#fcb47f"/>
      <path id="Path_14538" data-name="Path 14538" d="M3557.216,916.964a2.341,2.341,0,0,1,1.235-3.39,3.181,3.181,0,0,1,3.852,1.4,2.342,2.342,0,0,1-1.235,3.389A3.183,3.183,0,0,1,3557.216,916.964Z" transform="translate(-3163.999 -812.865)" fill="#6a9dd8"/>
      <path id="Path_14539" data-name="Path 14539" d="M3575.534,894.23l.323.653a69.807,69.807,0,0,1-8.042,6.035,2.21,2.21,0,1,1-1.941-3.934A87.793,87.793,0,0,1,3575.534,894.23Z" transform="translate(-3170.676 -795.828)" fill="#fcb47f"/>
      <path id="Path_14540" data-name="Path 14540" d="M3664.29,874.551l.014-.362a1.208,1.208,0,0,1,.4-.895l.364-.285a1.542,1.542,0,0,0,.51-.935l.1-.562c.034-.186.211-.211.248-.035a.637.637,0,0,0,.014.075,3.24,3.24,0,0,1-.258,1.793v.009a2.82,2.82,0,0,1-.6.868l-.393.373Z" transform="translate(-3259.574 -775.472)" fill="#f4be84"/>
      <path id="Path_14541" data-name="Path 14541" d="M3665.333,885.243a.141.141,0,0,1-.095-.167l.011-.046a.6.6,0,0,1,.281-.4l.2-.11a.758.758,0,0,0,.339-.406l.1-.264c.035-.087.123-.082.124.007v.039a1.6,1.6,0,0,1-.3.848,1.43,1.43,0,0,1-.38.369l-.172.11a.137.137,0,0,1-.119.015Z" transform="translate(-3260.414 -786.536)" fill="#e2ac76"/>
      <path id="Path_14542" data-name="Path 14542" d="M3527.462,1075.353a2.117,2.117,0,0,0-.243.706l-.779,4.972a15.437,15.437,0,0,0,.429,6.7l2.936,10.089,1.394.092.93-13.943.276-8.118a1.115,1.115,0,0,0-.839-1.114l-1.633-.427A2.191,2.191,0,0,0,3527.462,1075.353Z" transform="translate(-3136.728 -956.024)" fill="#6a9dd8"/>
      <path id="Path_14543" data-name="Path 14543" d="M3563.168,1289.649h-4.648v-1.109l1.394.092,2.7.384a.64.64,0,0,1,.551.633Z" transform="translate(-3165.443 -1146.748)" fill="#009fa3"/>
      <path id="Path_14544" data-name="Path 14544" d="M3590.988,1067.12a2.118,2.118,0,0,0-.212.718l-.56,5a15.421,15.421,0,0,0,.722,6.672l3.375,9.951,1.4.032.318-13.975-.081-8.122a1.118,1.118,0,0,0-.887-1.077l-1.65-.354A2.19,2.19,0,0,0,3590.988,1067.12Z" transform="translate(-3193.566 -948.619)" fill="#6a9dd8"/>
      <path id="Path_14545" data-name="Path 14545" d="M3632.7,1280.7l-4.648.031-.007-1.109,1.415.063,2.687.383a.644.644,0,0,1,.55.633Z" transform="translate(-3227.313 -1138.809)" fill="#009fa3"/>
      <path id="Path_14546" data-name="Path 14546" d="M3518.8,970.537l1.44.647a.364.364,0,0,0,.469-.161l.489-.916a.365.365,0,0,0-.069-.44l-.4-.385a.363.363,0,0,0-.427-.056l-.646.353a.448.448,0,0,1-.308.046.451.451,0,0,0-.44.157l-.11.14Z" transform="translate(-3130.094 -862.532)" fill="#fcb47f"/>
      <path id="Path_14547" data-name="Path 14547" d="M3410.015,947.736a2.341,2.341,0,0,0-.733-3.532,3.186,3.186,0,0,0-4.015.824,2.342,2.342,0,0,0,.733,3.533A3.184,3.184,0,0,0,3410.015,947.736Z" transform="translate(-3028.597 -839.958)" fill="#6a9dd8"/>
      <path id="Path_14548" data-name="Path 14548" d="M3423.628,952.726l.075-.759a71.539,71.539,0,0,0-9.658-2.773,2.208,2.208,0,1,0-.43,4.362A87.022,87.022,0,0,0,3423.628,952.726Z" transform="translate(-3034.469 -844.717)" fill="#fcb47f"/>
      <rect id="Rectangle_25200" data-name="Rectangle 25200" width="19.873" height="1.356" transform="translate(389.889 107.183)" fill="#f8b716"/>
      <path id="Path_14549" data-name="Path 14549" d="M3589.93,885.461l3.292-10.951h14.346l-4.409,10.951Z" transform="translate(-3193.396 -778.278)" fill="#dba11d"/>
      <path id="Path_14550" data-name="Path 14550" d="M83.089,1409.5v3.7h-.011a.227.227,0,0,1-.193.228l-3.694.614a1.184,1.184,0,0,0-.95.871,14.123,14.123,0,0,1-1.531,3.686,1.187,1.187,0,0,0,.055,1.291l2.171,3.06a.243.243,0,0,1-.026.3l-2.621,2.621a.22.22,0,0,1-.168.07.207.207,0,0,1-.13-.044l-3.051-2.171a1.188,1.188,0,0,0-1.292-.055,14,14,0,0,1-3.685,1.531,1.164,1.164,0,0,0-.866.954l-.625,3.694a.229.229,0,0,1-.228.193H62.539a.228.228,0,0,1-.23-.193l-.615-3.694a1.184,1.184,0,0,0-.872-.95,14.686,14.686,0,0,1-3.6-1.475,1.221,1.221,0,0,0-.6-.161,1.136,1.136,0,0,0-.686.22l-3.081,2.189a.252.252,0,0,1-.132.043.22.22,0,0,1-.165-.071l-2.621-2.619a.243.243,0,0,1-.028-.3l2.166-3.038a1.2,1.2,0,0,0,.054-1.3,13.943,13.943,0,0,1-1.548-3.675,1.2,1.2,0,0,0-.951-.868l-3.717-.634a.231.231,0,0,1-.193-.23v-3.7a.22.22,0,0,1,.193-.228l3.665-.617a1.185,1.185,0,0,0,.96-.88,14,14,0,0,1,1.5-3.694,1.17,1.17,0,0,0-.062-1.283l-2.189-3.081a.236.236,0,0,1,.028-.3l2.619-2.621a.22.22,0,0,1,.167-.07.232.232,0,0,1,.133.044l3.028,2.172a1.211,1.211,0,0,0,1.3.054,13.937,13.937,0,0,1,3.675-1.548,1.2,1.2,0,0,0,.868-.951l.634-3.718a.23.23,0,0,1,.23-.195h3.7a.22.22,0,0,1,.228.195l.617,3.667a1.189,1.189,0,0,0,.88.958,14.32,14.32,0,0,1,3.776,1.541,1.181,1.181,0,0,0,1.291-.052L76,1396.8a.262.262,0,0,1,.133-.046.246.246,0,0,1,.167.07l2.619,2.621a.238.238,0,0,1,.028.3l-2.172,3.052a1.194,1.194,0,0,0-.054,1.294,13.951,13.951,0,0,1,1.53,3.682,1.173,1.173,0,0,0,.951.873l3.693.623A.232.232,0,0,1,83.089,1409.5Zm-9.61,1.847a9.084,9.084,0,1,0-9.082,9.082A9.084,9.084,0,0,0,73.48,1411.347Z" transform="translate(-39.194 -1239.417)" fill="#0d2584"/>
      <path id="Path_14551" data-name="Path 14551" d="M66.194,1390.305v3.7a2.6,2.6,0,0,1-2.171,2.567l-2.955.492a16.322,16.322,0,0,1-1.185,2.861l1.741,2.445a2.6,2.6,0,0,1-.282,3.35l-2.621,2.621a2.6,2.6,0,0,1-3.35.281l-2.434-1.741a16.512,16.512,0,0,1-2.868,1.185l-.5,2.965A2.6,2.6,0,0,1,47,1413.208H43.289a2.6,2.6,0,0,1-2.567-2.174l-.492-2.955a16.479,16.479,0,0,1-2.779-1.142l-2.469,1.761a2.591,2.591,0,0,1-3.342-.282l-2.621-2.628a2.588,2.588,0,0,1-.282-3.349l1.734-2.41a16.361,16.361,0,0,1-1.21-2.861l-2.99-.512a2.594,2.594,0,0,1-2.171-2.566v-3.7a2.6,2.6,0,0,1,2.171-2.567l2.919-.493a16.19,16.19,0,0,1,1.171-2.872l-1.761-2.474a2.606,2.606,0,0,1,.282-3.353l2.629-2.618a2.591,2.591,0,0,1,3.35-.282l2.421,1.741a16.349,16.349,0,0,1,2.861-1.21l.508-2.99a2.6,2.6,0,0,1,2.567-2.171h3.7a2.6,2.6,0,0,1,2.569,2.171l.491,2.919a16.7,16.7,0,0,1,2.971,1.222l2.445-1.741a2.546,2.546,0,0,1,1.5-.482,2.581,2.581,0,0,1,1.839.763l2.619,2.621a2.59,2.59,0,0,1,.282,3.35L59.9,1384.36a16.56,16.56,0,0,1,1.19,2.861l2.954.5A2.565,2.565,0,0,1,66.194,1390.305Zm-2.344,3.7v-3.7a.232.232,0,0,0-.2-.23l-3.692-.623a1.173,1.173,0,0,1-.951-.873,13.949,13.949,0,0,0-1.53-3.682,1.194,1.194,0,0,1,.054-1.294l2.171-3.051a.238.238,0,0,0-.028-.3l-2.619-2.621a.246.246,0,0,0-.167-.07.263.263,0,0,0-.133.046l-3.033,2.179a1.181,1.181,0,0,1-1.291.052,14.324,14.324,0,0,0-3.775-1.541,1.189,1.189,0,0,1-.88-.958l-.617-3.667a.22.22,0,0,0-.228-.195h-3.7a.23.23,0,0,0-.23.195l-.634,3.718a1.2,1.2,0,0,1-.868.951,13.953,13.953,0,0,0-3.675,1.548,1.21,1.21,0,0,1-1.3-.054l-3.033-2.163a.234.234,0,0,0-.133-.044.22.22,0,0,0-.167.071l-2.612,2.615a.235.235,0,0,0-.028.3l2.189,3.081a1.17,1.17,0,0,1,.062,1.283,14,14,0,0,0-1.5,3.694,1.185,1.185,0,0,1-.96.88l-3.665.617a.22.22,0,0,0-.193.228v3.7a.231.231,0,0,0,.193.23l3.717.634a1.2,1.2,0,0,1,.951.868,13.944,13.944,0,0,0,1.547,3.67,1.2,1.2,0,0,1-.054,1.3l-2.163,3.033a.243.243,0,0,0,.028.3l2.621,2.619a.22.22,0,0,0,.165.07.25.25,0,0,0,.132-.043l3.081-2.189a1.137,1.137,0,0,1,.686-.22,1.22,1.22,0,0,1,.6.161,14.689,14.689,0,0,0,3.6,1.473,1.184,1.184,0,0,1,.872.95l.615,3.694a.228.228,0,0,0,.23.193H47a.229.229,0,0,0,.228-.193l.626-3.69a1.164,1.164,0,0,1,.869-.95,13.991,13.991,0,0,0,3.685-1.531,1.188,1.188,0,0,1,1.292.055l3.051,2.171a.207.207,0,0,0,.13.044.22.22,0,0,0,.168-.071l2.621-2.621a.243.243,0,0,0,.026-.3l-2.171-3.06a1.188,1.188,0,0,1-.055-1.291,14.121,14.121,0,0,0,1.531-3.686,1.184,1.184,0,0,1,.95-.871l3.694-.614a.227.227,0,0,0,.193-.228Z" transform="translate(-19.954 -1220.222)" fill="#3655b5"/>
      <path id="Path_14552" data-name="Path 14552" d="M141.965,1479.85a9.084,9.084,0,1,1-9.085,9.085A9.084,9.084,0,0,1,141.965,1479.85Zm6.707,9.085a6.713,6.713,0,1,0-6.707,6.707A6.712,6.712,0,0,0,148.672,1488.935Z" transform="translate(-116.764 -1317.005)" fill="#6a9dd8"/>
      <path id="Path_14553" data-name="Path 14553" d="M139.793,1496.117a9.354,9.354,0,1,1,9.354-9.354A9.354,9.354,0,0,1,139.793,1496.117Zm0-18.167a8.812,8.812,0,1,0,8.811,8.812A8.812,8.812,0,0,0,139.793,1477.95Zm0,15.792a6.98,6.98,0,1,1,6.978-6.979A6.98,6.98,0,0,1,139.793,1493.742Zm0-13.417a6.437,6.437,0,1,0,6.436,6.438A6.438,6.438,0,0,0,139.793,1480.325Z" transform="translate(-114.593 -1314.834)" fill="#0d2584"/>
      <ellipse id="Ellipse_474" data-name="Ellipse 474" cx="7.914" cy="4.453" rx="7.914" ry="4.453" transform="translate(20.992 198.238) rotate(-21.07)" fill="#0d2584"/>
      <path id="Path_14554" data-name="Path 14554" d="M121.049,2073.913a1.673,1.673,0,0,0-.26.641l-.8,4.511a11.694,11.694,0,0,0,.565,6.1l3.391,9.224,1.547.1.845-12.677.2-7.384a1.1,1.1,0,0,0-.944-1.026l-1.816-.41A2.615,2.615,0,0,0,121.049,2073.913Z" transform="translate(-105.14 -1844.815)" fill="#6a9dd8"/>
      <path id="Path_14555" data-name="Path 14555" d="M187.46,2073.913a1.677,1.677,0,0,0-.261.641l-.8,4.511a11.694,11.694,0,0,0,.565,6.1l3.387,9.224,1.547.1.846-12.677.2-7.384a1.1,1.1,0,0,0-.945-1.026l-1.816-.41A2.6,2.6,0,0,0,187.46,2073.913Z" transform="translate(-164.242 -1844.815)" fill="#6a9dd8"/>
      <path id="Path_14556" data-name="Path 14556" d="M114.558,1942.367a2.79,2.79,0,0,0-1.394.609,3.662,3.662,0,0,0-1.378,3.479c.452,3.115,1.335,9.174,1.691,11.492a2.867,2.867,0,0,0,.837,1.645l1.169,1.114a2.338,2.338,0,0,0,2.727.4,2.853,2.853,0,0,0,1.454-2.059l.424-2.4a10.612,10.612,0,0,1,2.266-4.952,4.25,4.25,0,0,0,.5-4.571,8.361,8.361,0,0,0-7.727-4.784Z" transform="translate(-97.956 -1728.598)" fill="#6a9dd8"/>
      <path id="Path_14557" data-name="Path 14557" d="M166.979,1937.736a2.791,2.791,0,0,1,1.394.609,3.664,3.664,0,0,1,1.378,3.48c-.452,3.115-1.335,9.174-1.691,11.493a2.867,2.867,0,0,1-.836,1.644l-1.17,1.115a2.339,2.339,0,0,1-2.727.4,2.861,2.861,0,0,1-1.454-2.06l-.424-2.4a10.621,10.621,0,0,0-2.265-4.952,4.248,4.248,0,0,1-.5-4.571,8.362,8.362,0,0,1,7.727-4.785Z" transform="translate(-139.331 -1724.477)" fill="#6a9dd8"/>
      <path id="Path_14558" data-name="Path 14558" d="M98.667,1775.018a8,8,0,0,0-.734-1.09A6.485,6.485,0,0,1,96.5,1769.4q.052-.73.052-1.464v-1.659a1.541,1.541,0,0,0-.974-1.431L91.4,1763.2a8.192,8.192,0,0,0-6.359.15l-5.665,2.543a1.77,1.77,0,0,0-1.015,1.95l.491,2.591a15.22,15.22,0,0,0,1.15,3.579,17.593,17.593,0,0,1,1.509,5.08l.635,4.759a.99.99,0,0,0,.291,1.164l.042.034a13.229,13.229,0,0,0,11.187,1.516c.074-.023.142-.052.215-.077a7.9,7.9,0,0,0,4.789-11.472Z" transform="translate(-68.215 -1568.669)" fill="#0d2584"/>
      <path id="Path_14559" data-name="Path 14559" d="M136.971,1793.513l2.213.31a8.4,8.4,0,0,0,6.43-1.769,1.9,1.9,0,0,0,.638-2l-3.152-11.083-1.345-8.923-.22-.086-7.536.251,2.462,5.365a12.224,12.224,0,0,1,1.058,3.962l.721,7.8A10.875,10.875,0,0,1,136.971,1793.513Z" transform="translate(-117.761 -1575.192)" fill="#f8b716"/>
      <path id="Path_14560" data-name="Path 14560" d="M135.162,1735.06,134,1739.151l.979.77a5.5,5.5,0,0,0,4.583,1.064,2.551,2.551,0,0,0,2-2.682l-.144-2.287Z" transform="translate(-117.761 -1544.132)" fill="#fcb47f"/>
      <path id="Path_14561" data-name="Path 14561" d="M145.739,1679.681a2.659,2.659,0,0,0,1.863-.771c1.911-1.723,2.058-4.622,2.06-7.195a1.507,1.507,0,0,0-.143-.8,7.363,7.363,0,0,0-1.965-1.916c-1.78-.123-2.661,1.191-4.461,1.153a.744.744,0,0,0-.44.082.667.667,0,0,0-.23.414,14.925,14.925,0,0,0-.053,2.267,12.4,12.4,0,0,0,0,2.322,5.366,5.366,0,0,0,1.974,3.852A2.611,2.611,0,0,0,145.739,1679.681Z" transform="translate(-125.161 -1485.338)" fill="#fcb47f"/>
      <path id="Path_14562" data-name="Path 14562" d="M145.011,1645.326c.008-.615.02-1.2.031-1.483.05-1.32-.945-1.813-1.67-2.174-.669-.33-.964-.521-.983-.913a.616.616,0,0,0-1.157-.266l-.078.144a1.918,1.918,0,0,1-1.709.974c-1.116,0-1.574.969-1.871,2.58a5.283,5.283,0,0,1,.536-5.031,5.055,5.055,0,0,1,4.329-1.83,3.833,3.833,0,0,1,3.267,1.95C146.471,1640.744,146.22,1642.859,145.011,1645.326Z" transform="translate(-120.606 -1457.142)" fill="#1a1a3b"/>
      <ellipse id="Ellipse_475" data-name="Ellipse 475" cx="4.453" cy="7.914" rx="4.453" ry="7.914" transform="matrix(0.517, -0.856, 0.856, 0.517, 0, 199.294)" fill="#0d2584"/>
      <path id="Path_14563" data-name="Path 14563" d="M137.117,1633.141a.969.969,0,0,0-1.282-.482.99.99,0,0,0-.306.22,1.67,1.67,0,0,0-.053-.24,1.713,1.713,0,0,0-3.159-.287,1.046,1.046,0,0,0-.119-.144,1.015,1.015,0,0,0-1.431,0,1,1,0,0,0-.264.464,1.178,1.178,0,0,0-1.849.967,1.388,1.388,0,0,0-1.667,1.981,1.51,1.51,0,0,0,.78,2.641,6.231,6.231,0,0,0,.31.99.385.385,0,0,0,.193.209c.009.022.015.045.025.067.143.33.7.085.576-.25a1.125,1.125,0,0,1-.034-.11.348.348,0,0,0-.026-.128.072.072,0,0,0-.008-.022,1.4,1.4,0,0,1,.11-1.068c.027-.021.054-.043.079-.065a.44.44,0,0,1,.407.011c.462.192.456.561.621,1.048a.317.317,0,0,0,.412.2l.021.021a1,1,0,0,1,.182-.178l-.021-.021a.318.318,0,0,0,.02-.11,5.693,5.693,0,0,0-.123-1.42c-.026-.11-.052-.211-.076-.306a.343.343,0,0,0,.1-.026,1.336,1.336,0,0,0,.487-.4,11.7,11.7,0,0,0,3.341-.791c.11-.014.22-.031.33-.051a1.5,1.5,0,0,0,.183.076.474.474,0,0,0,.612-.3,1.224,1.224,0,0,0,.561-.44,1.112,1.112,0,0,0,.16-.475.661.661,0,0,0,.54-.354A.97.97,0,0,0,137.117,1633.141Z" transform="translate(-111.052 -1451.903)" fill="#11112d"/>
      <path id="Path_14564" data-name="Path 14564" d="M59.839,1677.174l1.065-1.349a.4.4,0,0,0-.045-.539l-.839-.759a.4.4,0,0,0-.476-.043l-.514.324a.4.4,0,0,0-.173.44l.2.776a.491.491,0,0,1-.033.338.493.493,0,0,0,.05.508l.114.149Z" transform="translate(-50.875 -1490.168)" fill="#fcb47f"/>
      <ellipse id="Ellipse_476" data-name="Ellipse 476" cx="4.069" cy="3.582" rx="4.069" ry="3.582" transform="translate(1.297 200.028) rotate(-87.16)" fill="#0d2584"/>
      <path id="Path_14565" data-name="Path 14565" d="M10.039,1690.953l-1.125-.4s-4.809,5.8-6.3,9.183c-.587,1.32.368,3,2.323,3.7s3.768.014,4.146-1.383C9.907,1698.986,10.039,1690.953,10.039,1690.953Z" transform="translate(-0.68 -1504.52)" fill="#0d2584"/>
      <path id="Path_14566" data-name="Path 14566" d="M59.943,1690.55l-.163.2,1.28.549.008-.344Z" transform="translate(-51.708 -1504.52)" fill="#edb324"/>
      <path id="Path_14567" data-name="Path 14567" d="M350.06,1682.952l.941-1.437a.4.4,0,0,0-.092-.534l-.9-.682a.4.4,0,0,0-.479,0l-.483.366a.4.4,0,0,0-.133.45l.271.755a.5.5,0,0,1,0,.339.492.492,0,0,0,.094.5l.131.145Z" transform="translate(-309.002 -1495.325)" fill="#fcb47f"/>
      <path id="Path_14568" data-name="Path 14568" d="M288.376,1748.281a3.287,3.287,0,0,0-5.01-.746,4.468,4.468,0,0,0-.858,5.689,3.286,3.286,0,0,0,5.009.747A4.473,4.473,0,0,0,288.376,1748.281Z" transform="translate(-249.339 -1554.486)" fill="#0d2584"/>
      <path id="Path_14569" data-name="Path 14569" d="M293.115,1695.869l-1.076-.52s-5.4,5.258-7.244,8.456c-.724,1.254.046,3.023,1.917,3.928s3.741.415,4.268-.935C292.13,1703.843,293.115,1695.869,293.115,1695.869Z" transform="translate(-251.722 -1508.792)" fill="#0d2584"/>
      <path id="Path_14570" data-name="Path 14570" d="M351.429,1695.871l-1.075-.521-.3.3,1.326.631Z" transform="translate(-310.036 -1508.792)" fill="#edb324"/>
      <path id="Path_14571" data-name="Path 14571" d="M126.6,1772.24l2.785,6.08a7.62,7.62,0,0,1,.66,2.473l.315,3.411-3.76-6.488-.916-5.14Z" transform="translate(-110.356 -1577.221)" fill="#6a9dd8"/>
      <path id="Path_14572" data-name="Path 14572" d="M161.6,1880.95l-.815,2.9,1.3,2.3Z" transform="translate(-141.594 -1673.968)" fill="#6a9dd8"/>
      <path id="Path_14573" data-name="Path 14573" d="M204.52,1770.78l1.345,8.924.5,1.757.547-6.169-1.278-4.074Z" transform="translate(-180.521 -1575.921)" fill="#6a9dd8"/>
      <path id="Path_14574" data-name="Path 14574" d="M221.29,1867.85l1.446,2.151v2.935Z" transform="translate(-195.445 -1662.31)" fill="#6a9dd8"/>
      <path id="Path_14575" data-name="Path 14575" d="M148.242,2262.52l.687-.67,1.163.566a4.391,4.391,0,0,0,1.913.44h.578a.428.428,0,0,1,0,.854H148.73a.694.694,0,0,1-.489-1.19Z" transform="translate(-130.25 -2012.953)" fill="#f8b716"/>
      <path id="Path_14576" data-name="Path 14576" d="M214.041,2261.141l.686-.671,1.164.566a4.364,4.364,0,0,0,1.911.44h.578a.428.428,0,0,1,0,.855h-3.851a.694.694,0,0,1-.487-1.189Z" transform="translate(-188.809 -2011.725)" fill="#f8b716"/>
      <path id="Path_14577" data-name="Path 14577" d="M2270.227,1584.67q.778,1.053,1.453,2.18-2.7,1.27-5.343,2.65-.267-.462-.557-.911Q2268.05,1586.687,2270.227,1584.67Z" transform="translate(-2014.957 -1410.291)" fill="#0d2584"/>
      <path id="Path_14578" data-name="Path 14578" d="M2255.046,1620.873c-.414-.055-.66.285-.582.737a1.2,1.2,0,0,0,.847.948c.4.083.693-.22.626-.7A1.181,1.181,0,0,0,2255.046,1620.873Z" transform="translate(-2004.873 -1442.505)" fill="#0d2584"/>
      <path id="Path_14579" data-name="Path 14579" d="M2317.247,1753.249q-.183.647-.4,1.291a26.423,26.423,0,0,0-2.537-2.034c.063-.195.122-.391.18-.586Q2315.886,1752.53,2317.247,1753.249Z" transform="translate(-2058.147 -1559.137)" fill="#0d2584"/>
      <path id="Path_14580" data-name="Path 14580" d="M2309.051,1747.4c-.1-.238-.3-.263-.457-.068a.881.881,0,0,0-.11.778c.091.238.293.279.453.084A.859.859,0,0,0,2309.051,1747.4Z" transform="translate(-2052.922 -1554.935)" fill="#0d2584"/>
      <path id="Path_14581" data-name="Path 14581" d="M2178.412,1566.982a.564.564,0,0,0-.142.929,1.093,1.093,0,0,0,1.152.376.554.554,0,0,0,.2-.918A1.1,1.1,0,0,0,2178.412,1566.982Z" transform="translate(-1936.919 -1394.496)" fill="#0d2584"/>
      <path id="Path_14582" data-name="Path 14582" d="M2169.5,1501.324c.2-.169.4-.338.61-.5a25.334,25.334,0,0,1,3.906,1.64q-.569,1.061-1.143,2.121a22.772,22.772,0,0,0-3.318-1.184q.076,1.461.013,2.9.706.278,1.387.608.179-.984.3-1.981a22.408,22.408,0,0,1,2.531,1.183q1.287-1.594,2.635-3.144a26.183,26.183,0,0,0-7.871-3.509q-.211.77-.421,1.541Q2168.82,1501.135,2169.5,1501.324Z" transform="translate(-1928.053 -1334.449)" fill="#0d2584"/>
      <path id="Path_14583" data-name="Path 14583" d="M2260.948,1749.984c-.038-.2-.2-.3-.349-.227a.44.44,0,0,0-.208.472c.035.194.187.3.343.237A.44.44,0,0,0,2260.948,1749.984Z" transform="translate(-2010.153 -1557.191)" fill="#0d2584"/>
      <path id="Path_14584" data-name="Path 14584" d="M2266.993,1754.38c.042.132.082.266.12.4q-.386.641-.814,1.252-.313-.526-.66-1.015.33-.583.623-1.187c-.35-.227-.705-.44-1.063-.651-.1.174-.2.345-.308.514q.361.253.715.524-.257.471-.54.927a16,16,0,0,1,.942,1.893,21.948,21.948,0,0,0,1.7-2.448q-.232-.33-.477-.66C2267.155,1754.08,2267.075,1754.231,2266.993,1754.38Z" transform="translate(-2014.166 -1560.258)" fill="#0d2584"/>
      <path id="Path_14585" data-name="Path 14585" d="M2079.859,1520.609c0,.157.23.26.5.234s.492-.166.5-.324-.22-.271-.5-.246S2079.854,1520.452,2079.859,1520.609Z" transform="translate(-1849.496 -1352.978)" fill="#0d2584"/>
      <path id="Path_14586" data-name="Path 14586" d="M2039.1,1498.655l-.195-.263q.753-.5,1.541-.953c.406.22.8.456,1.178.7q-.651.411-1.274.858.88.237,1.695.54c.22-.12.44-.235.66-.349q-.55-.246-1.123-.463.532-.33,1.085-.642a21.647,21.647,0,0,0-1.752-1.34,28.19,28.19,0,0,0-3.135,1.9q.429.176.84.366C2038.775,1498.887,2038.937,1498.769,2039.1,1498.655Z" transform="translate(-1812.047 -1332.037)" fill="#0d2584"/>
    </g>
  </g>
</svg>
