<svg xmlns="http://www.w3.org/2000/svg" xmlns:xlink="http://www.w3.org/1999/xlink" width="288.707" height="227.925" viewBox="0 0 288.707 227.925">
  <defs>
    <linearGradient id="linear-gradient" x1="0.429" y1="1.795" x2="0.507" y2="0.379" gradientUnits="objectBoundingBox">
      <stop offset="0" stop-color="#d1d7e0"/>
      <stop offset="1" stop-color="#ebebff"/>
    </linearGradient>
    <linearGradient id="linear-gradient-2" x1="0.5" y1="1.147" x2="0.5" y2="0.24" xlink:href="#linear-gradient"/>
    <linearGradient id="linear-gradient-3" x1="1" y1="0.5" x2="0" y2="0.5" gradientUnits="objectBoundingBox">
      <stop offset="0.01" stop-color="#1a2257"/>
      <stop offset="1" stop-color="#5e60f2"/>
    </linearGradient>
    <linearGradient id="linear-gradient-4" x1="0.5" y1="2.165" x2="0.5" y2="0.322" xlink:href="#linear-gradient"/>
    <linearGradient id="linear-gradient-5" x1="35.651" y1="0.5" x2="34.651" y2="0.5" gradientUnits="objectBoundingBox">
      <stop offset="0" stop-color="#3076a1"/>
      <stop offset="1" stop-color="#48c9b6"/>
    </linearGradient>
    <linearGradient id="linear-gradient-6" x1="18.754" y1="0.5" x2="17.754" y2="0.5" xlink:href="#linear-gradient-5"/>
    <linearGradient id="linear-gradient-7" x1="24.76" y1="0.5" x2="23.76" y2="0.5" xlink:href="#linear-gradient-5"/>
    <linearGradient id="linear-gradient-8" x1="18.099" y1="0.5" x2="17.099" y2="0.5" xlink:href="#linear-gradient-5"/>
    <linearGradient id="linear-gradient-9" x1="0.017" y1="0.962" x2="0.767" y2="0.108" xlink:href="#linear-gradient-5"/>
    <linearGradient id="linear-gradient-10" x1="0.921" y1="2.027" x2="0.515" y2="0.07" gradientUnits="objectBoundingBox">
      <stop offset="0" stop-color="#c9c4c1"/>
      <stop offset="1" stop-color="#fff6de"/>
    </linearGradient>
    <linearGradient id="linear-gradient-11" x1="1.105" y1="0.5" x2="0.105" y2="0.5" xlink:href="#linear-gradient-10"/>
    <linearGradient id="linear-gradient-12" x1="0.5" y1="1.147" x2="0.5" y2="0.24" xlink:href="#linear-gradient"/>
    <linearGradient id="linear-gradient-13" x1="1" y1="0.5" x2="0" y2="0.5" xlink:href="#linear-gradient"/>
    <linearGradient id="linear-gradient-15" x1="1" y1="0.5" x2="0" y2="0.5" xlink:href="#linear-gradient"/>
    <linearGradient id="linear-gradient-16" x1="1" y1="0.5" x2="0" y2="0.5" xlink:href="#linear-gradient"/>
    <linearGradient id="linear-gradient-17" x1="1" y1="0.5" x2="0" y2="0.5" xlink:href="#linear-gradient"/>
    <linearGradient id="linear-gradient-19" x1="1" y1="0.5" x2="0.001" y2="0.5" xlink:href="#linear-gradient"/>
    <linearGradient id="linear-gradient-20" x1="1" y1="0.5" x2="0.001" y2="0.5" xlink:href="#linear-gradient"/>
    <linearGradient id="linear-gradient-22" x1="1" y1="0.5" x2="0" y2="0.5" xlink:href="#linear-gradient"/>
  </defs>
  <g id="Group_13112" data-name="Group 13112" transform="translate(0 0)">
    <rect id="Rectangle_24764" data-name="Rectangle 24764" width="72.609" height="72.609" rx="36.305" transform="translate(111.321 32.019)" opacity="0.95" fill="url(#linear-gradient)"/>
    <rect id="Rectangle_24765" data-name="Rectangle 24765" width="33.618" height="1.66" transform="translate(130.816 88.099)" fill="#96bfe6"/>
    <rect id="Rectangle_24766" data-name="Rectangle 24766" width="24.094" height="1.66" transform="translate(135.577 93.332)" fill="#96bfe6"/>
    <rect id="Rectangle_24767" data-name="Rectangle 24767" width="99.374" height="116.644" rx="49.687" transform="translate(0 57.203)" opacity="0.95" fill="url(#linear-gradient-2)"/>
    <rect id="Rectangle_24768" data-name="Rectangle 24768" width="7.882" height="1.459" transform="translate(46.435 126.016)" fill="#4598e6"/>
    <rect id="Rectangle_24769" data-name="Rectangle 24769" width="45.862" height="2.826" transform="translate(38.378 139.392)" fill="#96bfe6"/>
    <rect id="Rectangle_24770" data-name="Rectangle 24770" width="37.087" height="2.826" transform="translate(47.154 152.959)" fill="#96bfe6"/>
    <rect id="Rectangle_24771" data-name="Rectangle 24771" width="21.742" height="2.826" transform="translate(62.498 146.176)" fill="#96bfe6"/>
    <path id="Path_11410" data-name="Path 11410" d="M1999.722,763.9v1.427h-8.405v7.888h-1.426V763.9Zm57.072,9.315h-1.427v-7.888h-8.405V763.9h9.833Zm-65.477,40.7V821.8h8.405v1.427h-9.832v-9.317Zm64.05,0h1.427v9.317h-9.833V821.8h8.405Z" transform="translate(-1973.342 -695.065)" fill="#4598e6"/>
    <path id="Path_11411" data-name="Path 11411" d="M2390.925,1291.741a8.405,8.405,0,1,0-8.405-8.4A8.406,8.406,0,0,0,2390.925,1291.741Zm0-15.182a6.778,6.778,0,1,1-6.778,6.778A6.778,6.778,0,0,1,2390.925,1276.559Z" transform="translate(-2369.928 -1135.748)" fill="#4598e6"/>
    <path id="Path_11412" data-name="Path 11412" d="M2416.841,1322.182l3.817-3.819-1.149-1.151-2.668,2.669-3.742-3.742-1.149,1.151Z" transform="translate(-2395.307 -1171.285)" fill="#4598e6"/>
    <path id="Path_11413" data-name="Path 11413" d="M498.84,1833.242c0,3.526,61.061,6.383,136.382,6.383s136.382-2.858,136.382-6.383-61.06-6.382-136.382-6.382S498.84,1829.718,498.84,1833.242Z" transform="translate(-482.898 -1611.7)" fill="url(#linear-gradient-3)"/>
    <rect id="Rectangle_24772" data-name="Rectangle 24772" width="48.942" height="41.991" transform="translate(123.154 34.735)" opacity="0.95" fill="url(#linear-gradient-4)"/>
    <path id="Path_11414" data-name="Path 11414" d="M1349.76,643.544a12.034,12.034,0,0,1,7.313-6.832c.65-.216,1.813-.6,3.038-.992l4.62-1.489h7.617s2.637.884,5.442,1.867h0c2.583.906,5.3,1.893,6.219,2.354,1.915.955,5.136,7.79,5.782,8.573a60.774,60.774,0,0,1,3.3,6.039h-8.206c-.867-1.489-1.535-2.644-1.535-2.644s-.519,1.138-1.148,2.644h-26.293c-.413-1.748-.675-3.952-.675-3.952s-1.408,1.915-2.946,3.952h-7.571A75.83,75.83,0,0,0,1349.76,643.544Z" transform="translate(-1220.828 -583.245)" fill="#385369"/>
    <path id="Path_11415" data-name="Path 11415" d="M1483.061,481.828s-5.956.937-5.049,10.257,6.164,8.554,6.515,8.544,5.276.171,5.661-11.207C1490.188,489.423,1490.355,481.009,1483.061,481.828Z" transform="translate(-1336.259 -451.775)" fill="#eea886"/>
    <path id="Path_11416" data-name="Path 11416" d="M1565.4,535.646s-.651-.7-.891.008.889,3.854.931,3.992c0,0,.118.275.275.123A33.9,33.9,0,0,0,1565.4,535.646Z" transform="translate(-1423.736 -497.967)" fill="#eea886"/>
    <path id="Path_11417" data-name="Path 11417" d="M1472.6,534.721s.639-.709.891-.008-.805,3.867-.852,4.014c0,0-.114.275-.275.129A33.832,33.832,0,0,1,1472.6,534.721Z" transform="translate(-1318.835 -497.161)" fill="#eea886"/>
    <path id="Path_11418" data-name="Path 11418" d="M1473.7,482.575l.854,1.14a22.6,22.6,0,0,1,.113-2.891c.138-.392.345-1.589.46-1.872s5.115-1.682,9.531.413c0,0-.194,1.79.23,1.956s.215,2.928.215,2.928l.7-.792s1.072-7.169.808-7.917-1.109-5.239-10.172-2.573c0,0-2.825-.6-3.392,1.352S1473.7,482.575,1473.7,482.575Z" transform="translate(-1332.032 -443.46)" fill="#434343"/>
    <path id="Path_11419" data-name="Path 11419" d="M1466.042,597.205c0-.008.764-.376.764-.376.372-.826.1-4.329.1-4.329s7.585-1.927,7.369-.454a19.133,19.133,0,0,0,.652,4.906l3.892,1.927s-4.146,11.134-8.911,9.7-6.565-10.1-6.565-10.1Z" transform="translate(-1322.88 -546.39)" fill="#eea886"/>
    <path id="Path_11420" data-name="Path 11420" d="M1504.281,606.379a4.494,4.494,0,0,1-3.342,1.578,4.89,4.89,0,0,1-3.788-1.747,3.994,3.994,0,0,0,3.779,2.814S1503.231,609.317,1504.281,606.379Z" transform="translate(-1352.999 -559.083)" fill="#a77860"/>
    <path id="Path_11421" data-name="Path 11421" d="M1261.2,872.977s-4.377,2.141-3.294,7.965,1.561,6.608.35,8.885-2.639,11.983-1.549,13.822,13.49-8.085,15.2-16.413-1.09-12.031-2.083-13.412S1265.065,871.015,1261.2,872.977Z" transform="translate(-1088.021 -788.297)" fill="#0e2d3d"/>
    <path id="Path_11422" data-name="Path 11422" d="M1330.543,1785.027h-.991v-4.68a13.256,13.256,0,0,0-3.166,3.09c-1.22,1.794-2.9,1.641-5.455,1.525s-2.442-1.144-2.214-2.593,2.823-1.908,3.663-2.136,2.745-3.512,3.357-4.312a10.921,10.921,0,0,0,1.277-2.136s.476-1.945,2.843,0,1.678,5.685,1.411,6.028A42.436,42.436,0,0,0,1330.543,1785.027Z" transform="translate(-1155.711 -1565.185)" fill="#163342"/>
    <path id="Path_11423" data-name="Path 11423" d="M1330.316,1782.439c-.877.573-3.166,0-3.166,0,.648-.84,4.635-6.448,4.635-6.448,2.423-1.411,3.38.531,3.38.531C1334.176,1776.826,1331.193,1781.867,1330.316,1782.439Z" transform="translate(-1160.481 -1567.391)" fill="#eea886"/>
    <path id="Path_11424" data-name="Path 11424" d="M1552.8,1182.633s-1.588.3-2.131-.442a5.154,5.154,0,0,0-1.84-1.272c-.434-.2-1.535-1.316-1.79-.771s1.728,1.927,2.087,2.3-1.948.538-2.34.9.092,4.168,1.663,3.872,3.052-1.652,3.338-1.652a9.756,9.756,0,0,0,1.152-.171Z" transform="translate(-1408.477 -1053.885)" fill="#eea886"/>
    <path id="Path_11425" data-name="Path 11425" d="M1585.8,1203.17s-4.748,1.227-5,1.572-.167.6.275.5,4.621-1.052,4.621-1.052-5.369,2.4-5.644,2.635c-.154.138-.026.64.219.611s5.709-2.1,5.709-2.1-5.015,2.247-5.177,2.512a.379.379,0,0,0,.475.522c.384-.138,5.157-1.963,5.157-1.963s-3.547,1.865-3.552,2.171c0,.187.088.625.988.116s3.151-1.49,3.151-1.49Z" transform="translate(-1447.149 -1073.866)" fill="#eea886"/>
    <path id="Path_11426" data-name="Path 11426" d="M1240.5,1809.1h-.61v-3.442a7.472,7.472,0,0,0-1.582,2.753c-.5,1.641-2.271,2.127-4.981,2.051s-2.753-1.145-2.518-2.753,2.518-2.442,2.518-2.442a42.6,42.6,0,0,0,3.579-4.711,3.572,3.572,0,0,1,2.928.6c1.287,1.039.886,3.386.849,3.992S1240.5,1809.1,1240.5,1809.1Z" transform="translate(-1052.816 -1588.935)" fill="#163342"/>
    <path id="Path_11427" data-name="Path 11427" d="M1215.889,1260.512a23.944,23.944,0,0,1,4.1,9.175c.876,4.979-.518,21.688-.479,24.149s2.326,8.583,1.869,13.215-2.265,27.706-2.265,27.706l-4.946-.981s.286-23.52,0-25.467-.86-9.037-.975-9.838-7.266-21.838-7.266-25.428S1208.107,1254.657,1215.889,1260.512Z" transform="translate(-1030.073 -1122.146)" fill="#1d3b54"/>
    <path id="Path_11428" data-name="Path 11428" d="M1290.93,1274.347s-5.3,20.236-5.933,23.043-1.54,5.115-1.54,6.306a41.708,41.708,0,0,0,1.026,7.2l6.732,32.205h6.414s-3.579-19.32-3.67-23.1-3.011-9.162-2.439-10.765,9.214-20.087,9.214-20.087S1307.277,1268.472,1290.93,1274.347Z" transform="translate(-1121.328 -1134.339)" fill="#1d3b54"/>
    <path id="Path_11429" data-name="Path 11429" d="M1237.53,1805.961l3.579-4.711,2.928.6a13.262,13.262,0,0,1-2.211,3.695C1240.147,1807.424,1237.53,1805.961,1237.53,1805.961Z" transform="translate(-1057.017 -1589.615)" fill="#eea886"/>
    <path id="Path_11430" data-name="Path 11430" d="M1363.188,1031.08a6.616,6.616,0,0,0-3.838,1.977,25.325,25.325,0,0,0-3.635,5.536c-.432.944-6.5,9.693-6.813,9.889s-3.363,1.214-5.382,1.894c-3.118,1.049-9.361,3.32-9.361,3.32l1.239,3.929s11.749-3.845,14.692-4.569c3.6-.887,11.881-11.514,11.881-11.514S1368.144,1034.305,1363.188,1031.08Z" transform="translate(-1191.396 -925.466)" fill="#285173"/>
    <path id="Path_11431" data-name="Path 11431" d="M1219.714,1019.011a29.466,29.466,0,0,1-3.815,1.534c-.983.2-4.8,5.153-5.468,6.963s0,4.523,1.376,7.709.08,4.248.709,7.433.427,15.105.309,16.876,18.41,4.452,22.068,1.226c0,0-2.478-10.737-5.408-13.807-.633-.662-.567-5.081-.138-6.182s5.309-9.322,5.309-9.322.358-8.338-1.77-9.99c-1.849-1.436-6.883-1.948-7.791-2.263A15.422,15.422,0,0,0,1219.714,1019.011Z" transform="translate(-1044.107 -914.93)" fill="#ffbf55"/>
    <path id="Path_11432" data-name="Path 11432" d="M1281.32,971.93s.085.781.183,1.834c.037.413.078.877.115,1.349a31.706,31.706,0,0,1,.149,3.7s2.943,2.95,6.29-3.441a8.786,8.786,0,0,1-.348-6.224C1288.768,965.565,1281.32,971.93,1281.32,971.93Z" transform="translate(-1107.065 -871.117)" fill="#eea886"/>
    <path id="Path_11433" data-name="Path 11433" d="M1380.253,1098.771s-.709-4.712.044-7.571a18.292,18.292,0,0,0,1.352,5.963Z" transform="translate(-1214.234 -977.31)" fill="#183c59"/>
    <path id="Path_11434" data-name="Path 11434" d="M1275.875,1021.226s-2.025,5.979-7.582,5.539-2.635-5.049-2.635-5.049a12.21,12.21,0,0,1,1.774-.869c.39-.074,6.145-.147,6.145-.147Z" transform="translate(-1092.621 -916.515)" fill="#eea886"/>
    <path id="Path_11435" data-name="Path 11435" d="M1349.448,1028.08a54.775,54.775,0,0,0-2.911,16.26c0,8.207-.234,21.575-1.25,25.8s-3.909,17.278-3.909,17.278l-2.267-1.173s5.451-20.836,5.863-22.339-.312-17.375-.7-18.7-2.052-7.245-1.789-8.887c.326-2.065,2.262-5.131,5.389-7.762Z" transform="translate(-1176.411 -922.879)" fill="#285173"/>
    <path id="Path_11436" data-name="Path 11436" d="M1186.5,1022.69a83.6,83.6,0,0,0-2.726,13.215c-.918,7.42,2.814,41.861,5.315,49.678l9.7-1.564s-2.087-24.343-4.92-28.771-3.735-8.35-.676-17.6-1.338-13.832-1.338-13.832S1187.347,1022.786,1186.5,1022.69Z" transform="translate(-1004.343 -918.231)" fill="#285173"/>
    <path id="Path_11437" data-name="Path 11437" d="M1168.54,1152.05l11.755,20.358,13.067-7.544-11.242-20.654Z" transform="translate(-996.844 -1023.022)" fill="#616161"/>
    <path id="Path_11438" data-name="Path 11438" d="M1178.41,1162.633l10.439,18.081,11.606-6.7-9.987-18.343Z" transform="translate(-1005.296 -1032.905)" fill="#e0cec7"/>
    <path id="Path_11439" data-name="Path 11439" d="M1275.892,1169.528l-.732-1.269,4.691-2.709.917,1.163Z" transform="translate(-1098.928 -1041.425)" fill="#616161"/>
    <path id="Path_11440" data-name="Path 11440" d="M1269.567,1259.764a2.528,2.528,0,0,0,.77-.11s.413-.238.712-.391a2.341,2.341,0,0,1,.238-.106,4.559,4.559,0,0,0,1.311-.551,29.3,29.3,0,0,0,2.36-2.492l-.869-1.322-.637-1.353a30.069,30.069,0,0,0-4.387.529,1.045,1.045,0,0,0-.138.088,5.776,5.776,0,0,0-.818.837c-.074.063-.772.745-.747,1.035a.955.955,0,0,0,.463.8,2.274,2.274,0,0,0,.489,1.152,1.416,1.416,0,0,0,.68,1.047C1268.985,1258.927,1269.138,1259.658,1269.567,1259.764Z" transform="translate(-1092.043 -1117.216)" fill="#eea886"/>
    <path id="Path_11441" data-name="Path 11441" d="M1170.984,1030.332s3.569-1.021,5.615,2.912a17.925,17.925,0,0,1,2.308,7.533c.259,1.813,1.423,6.765,1.542,7.275s2.753,6.608,1.546,8.74-13.57,8.448-13.49,8.92-2.139-4.767-2.139-4.767a52.768,52.768,0,0,0,5.809-3.642c1.33-1.393,4.13-2.891,3.558-4.624-.676-2.031-2.71-8.882-3.183-9.885S1167.977,1031.611,1170.984,1030.332Z" transform="translate(-985.495 -924.718)" fill="#285173"/>
    <path id="Path_11442" data-name="Path 11442" d="M1276.491,882.526s-6.354,2-2.9,12.963,12.128-1.271,11.221-7.953S1276.491,882.526,1276.491,882.526Z" transform="translate(-1102.675 -797.201)" fill="#eea987"/>
    <path id="Path_11443" data-name="Path 11443" d="M1269.368,883.407a14.34,14.34,0,0,0,8.441,3.487s2.032,2.382,2.187,3.316c0,0,4.715-8.037-1.081-12.855S1267.237,881.422,1269.368,883.407Z" transform="translate(-1099.106 -791.684)" fill="#0e2d3d"/>
    <path id="Path_11444" data-name="Path 11444" d="M1282.393,943.331c.041-.8.533-2.615,1.719-2.106s-.073,4.208-.859,3.98C1283.253,945.2,1282.3,945.22,1282.393,943.331Z" transform="translate(-1103.754 -847.903)" fill="#eea987"/>
    <path id="Path_11445" data-name="Path 11445" d="M1294.09,990.781c.037.413.078.877.116,1.349,0,0,2.805-.168,4.68-4.34C1298.761,987.973,1296.708,990.992,1294.09,990.781Z" transform="translate(-1119.652 -888.135)" fill="#a77860"/>
    <path id="Path_11446" data-name="Path 11446" d="M837.757,1324.626c-4.075-2.866-8.843-22.836-9.128-34.73-.146-6.093-1.946-8.631-3.535-10.875-1.514-2.141-2.832-3.992-2.065-8.235,1.459-8.114-2.38-11.616-2.419-11.65l.445-.506c.171.15,4.17,3.762,2.636,12.276-.713,3.966.464,5.625,1.953,7.725,1.564,2.2,3.509,4.945,3.66,11.244.306,12.765,5.18,31.62,8.842,34.194Z" transform="translate(-593.734 -1121.691)" fill="url(#linear-gradient-5)"/>
    <path id="Path_11447" data-name="Path 11447" d="M629.49,1490.934c.384-.873.782-1.775,1.232-2.726,2.328-4.913,4.39-5.723,7.807-7.063.834-.328,1.781-.7,2.819-1.165,4.894-2.2,3.947-5.44,3.11-8.3-.117-.4-.233-.8-.335-1.194-.43-1.682.4-2.526,1.652-3.8a14.321,14.321,0,0,0,2.98-3.992c.976-2.042.479-3.136-.111-3.695-1.239-1.177-4.1-.964-6.806.515a9.838,9.838,0,0,0-2.263,1.949c-1.722,1.8-3.867,4.049-9.289,4.075-3.093.014-4.786.441-5.663,1.426-1,1.119-.808,2.793-.551,5.111.089.8.191,1.711.253,2.692a15.706,15.706,0,0,1-3.123,10.124c-2.065,2.458-4.61,7.563-3.512,10.7a3.758,3.758,0,0,0,3.06,2.464,8.691,8.691,0,0,0,1.723.186C626.266,1498.238,627.654,1495.1,629.49,1490.934Zm12.665-30.835c2.415-1.318,5-1.583,6.02-.618.775.734.413,1.99-.033,2.916a13.536,13.536,0,0,1-2.854,3.816c-1.31,1.335-2.34,2.391-1.82,4.441.1.4.222.808.341,1.215.826,2.847,1.617,5.537-2.741,7.5-1.023.46-1.962.826-2.789,1.154-3.448,1.353-5.727,2.247-8.169,7.4-.454.964-.853,1.865-1.239,2.741-2.109,4.778-3.381,7.662-7.984,6.73a3.127,3.127,0,0,1-2.558-2.025c-.964-2.768,1.348-7.614,3.393-10.049a16.106,16.106,0,0,0,3.278-10.6c-.062-1-.165-1.916-.256-2.724-.239-2.145-.413-3.695.381-4.588.728-.818,2.321-1.188,5.164-1.2,5.709-.026,7.964-2.387,9.774-4.282a9.2,9.2,0,0,1,2.1-1.823Z" transform="translate(-376.924 -1293.824)" fill="url(#linear-gradient-6)"/>
    <path id="Path_11448" data-name="Path 11448" d="M656.083,1535.82l-.673-.034c.033-.633.882-15.536,6.866-19.9,6.565-4.785,8.634-9.928,9.62-13.38,1.162-4.067,7.074-5.154,7.325-5.2l.118.663c-.058.011-5.749,1.059-6.795,4.72-1.013,3.547-3.139,8.831-9.872,13.738C656.946,1520.607,656.091,1535.674,656.083,1535.82Z" transform="translate(-412.185 -1327.515)" fill="url(#linear-gradient-7)"/>
    <path id="Path_11449" data-name="Path 11449" d="M809.064,1212.673c1.407-.7,1.356-3.52,1.279-7.787-.1-5.392-.231-12.777,2.592-19.571,3-7.216.323-9.325-2.263-11.364-2.891-2.285-5.633-4.442-.381-14.179,2.412-4.473,3.177-7.5,2.41-9.522-.758-2-2.891-2.778-5.143-3.6-3.89-1.425-8.3-3.038-7.731-11.273.175-2.525-.121-4.077-.933-4.885-.882-.878-2.182-.783-3.687-.673-2.274.167-4.85.355-7.094-2.573-.233-.731-2.377-7.26-4.943-8.378a1.814,1.814,0,0,0-1.571.008h0c-1.772.847-2.8,1.851-3.143,3.073-.6,2.121.964,4.514,2.753,7.285,2.828,4.355,6.034,9.291,2.709,15.165-4.4,7.765-2.074,10.484,1.138,14.245a25.309,25.309,0,0,1,5.323,8.582c1.122,3.2-.792,6.259-2.643,9.214-2.321,3.706-4.722,7.538.333,10.864,8.356,5.5,16.609,23.445,16.691,23.625l.034.074.065.051c1.539,1.207,2.659,1.79,3.5,1.79a1.525,1.525,0,0,0,.7-.167Zm-20.618-25.936c-4.5-2.964-2.478-6.195-.138-9.943,1.846-2.946,3.937-6.284,2.708-9.794a25.909,25.909,0,0,0-5.446-8.8c-3.15-3.685-5.231-6.12-1.065-13.476,3.525-6.229.056-11.563-2.731-15.862-1.71-2.633-3.187-4.909-2.673-6.737.289-1.021,1.2-1.887,2.785-2.646h0a1.152,1.152,0,0,1,1.01,0c2.38,1.037,4.566,7.948,4.588,8.019l.018.055.036.047c2.478,3.268,5.378,3.056,7.709,2.884,1.394-.1,2.5-.183,3.166.479s.9,2.077.738,4.361c-.6,8.74,4.267,10.521,8.171,11.951,2.2.8,4.094,1.5,4.744,3.21.688,1.827-.061,4.681-2.373,8.963-5.52,10.236-2.43,12.673.557,15.03,2.5,1.971,4.861,3.833,2.058,10.576-2.877,6.923-2.742,14.389-2.643,19.842.068,3.717.12,6.66-.907,7.172-.6.3-1.75-.206-3.417-1.5C804.676,1209.115,796.772,1192.213,788.445,1186.737Z" transform="translate(-564.026 -1001.016)" fill="url(#linear-gradient-8)"/>
    <path id="Path_11450" data-name="Path 11450" d="M707.861,1232.1c-4.254-1.458-3.37,6.745-5.168,12.8s-19.992,2.646-12.355,17.834-9.66,5.078-4.492,18.332.449,27.428,6.065,23.823,3.155-20.3,8.995-22.279,6.793-4.3,1.012-9.687,15.152-10.737,9.986-21.63S712.774,1233.787,707.861,1232.1Z" transform="translate(-449.633 -1098.669)" fill="url(#linear-gradient-9)"/>
    <path id="Path_11451" data-name="Path 11451" d="M743.142,1422.716c-.535-2.269-5.1-22.235-.841-24.649,3.757-2.127,3.665-10.4,3.078-18.214-.519-6.916,8.364-10.148,8.741-10.283l.226.636c-.088.03-8.776,3.2-8.3,9.6.6,8.024.666,16.538-3.418,18.851-3.235,1.834-.256,17.88,1.165,23.908Z" transform="translate(-498.906 -1217.36)" fill="#fff"/>
    <path id="Path_11452" data-name="Path 11452" d="M751.66,1704l6.072,23.037H771.3L777.375,1704Z" transform="translate(-523.47 -1505.753)" fill="url(#linear-gradient-10)"/>
    <path id="Path_11453" data-name="Path 11453" d="M751.66,1704s13.368,2.509,13.368,23.037H771.3L777.375,1704Z" transform="translate(-523.47 -1505.753)" fill="url(#linear-gradient-11)"/>
    <rect id="Rectangle_24773" data-name="Rectangle 24773" width="53.347" height="48.046" rx="24.023" transform="translate(50.84 5.132)" opacity="0.95" fill="url(#linear-gradient-12)"/>
    <rect id="Rectangle_24774" data-name="Rectangle 24774" width="4.232" height="0.783" transform="translate(75.601 44.089)" fill="#4598e6"/>
    <path id="Path_11454" data-name="Path 11454" d="M1994.335,264.785s-3.41,1.872-2.328,6.47,1.495,5.212.615,7.072-1.652,9.654-.714,11.08,10.447-6.956,11.5-13.66-1.321-9.553-2.165-10.616S1997.342,263.075,1994.335,264.785Z" transform="translate(-1920.444 -263.861)" fill="#344052"/>
    <path id="Path_11455" data-name="Path 11455" d="M2034.549,410.352h3.649c.176-1.8.34-3.053.307-3.239-.054-.306,3.631-9.973,3.976-10.773s1.7-2.942,1.874-4.956-2.454-2.834-2.454-2.834c-3.554.637-4.758,5.553-4.758,5.553s-1.492,9.969-2.248,12.775A17.739,17.739,0,0,0,2034.549,410.352Z" transform="translate(-1967.058 -371.385)" fill="#eea886"/>
    <path id="Path_11456" data-name="Path 11456" d="M2034.98,390.984l5.438,2.292s5-12.4.808-11.013S2035.172,386.237,2034.98,390.984Z" transform="translate(-1965.654 -365.872)" fill="#eb4747"/>
    <path id="Path_11457" data-name="Path 11457" d="M1971.747,392.323a51.9,51.9,0,0,1,.664,6.769c-.025.194-.1.64-.226,1.249h13.1c-.348-1.239-.666-2.34-.857-2.987-.637-2.11-.028-2.676.295-4.364.125-.662.566-1.918,1.045-3.335.161-.474.326-.964.486-1.463a30.278,30.278,0,0,0,1.009-4.68c.79-5.042-3.086-5.527-3.086-5.527-1.441-.266-3.959-1.043-3.959-1.043l-3.943.826a4.279,4.279,0,0,0-.922.551h0a7.175,7.175,0,0,0-.888.776,23.841,23.841,0,0,0-2.143,3.1c-.262.427-.526.865-.774,1.3a7.375,7.375,0,0,0-1.353,3.768C1970.212,388.5,1971.589,391.093,1971.747,392.323Z" transform="translate(-1901.211 -361.374)" fill="#eb4747"/>
    <path id="Path_11458" data-name="Path 11458" d="M2008.236,378.01s-2.47,4.221-1.551,4.536,5.759-.75,7.651-4.738A7.333,7.333,0,0,0,2008.236,378.01Z" transform="translate(-1933.168 -361.618)" fill="#eea886"/>
    <path id="Path_11459" data-name="Path 11459" d="M2012.669,346.014s2.194.929,4.181-2.127c0,0-.534-3.47.595-5.479s-4.932,2.406-4.932,2.406.1.413.2,1.026c.051.312.1.676.146,1.063.034.321.06.659.071,1A5.419,5.419,0,0,1,2012.669,346.014Z" transform="translate(-1937.247 -327.695)" fill="#eea886"/>
    <path id="Path_11460" data-name="Path 11460" d="M1978.31,431.29c.451,2.322,3.692,5.231,3.692,5.231.16-.474.325-.964.483-1.462A21.137,21.137,0,0,1,1978.31,431.29Z" transform="translate(-1897.44 -408.242)" fill="#393d63"/>
    <path id="Path_11461" data-name="Path 11461" d="M1962.316,397.2c.205.847,1.151,9.421,1.048,9.715-.061.167-.518,2.15-.976,4.356h4.23a10.441,10.441,0,0,0,.628-3.268c-.275-2.891.71-12.114.71-12.114s.878-5.577-3.75-6.273c0,0-2.735.359-2.9,2.379S1962.111,396.361,1962.316,397.2Z" transform="translate(-1880.634 -372.308)" fill="#eea886"/>
    <path id="Path_11462" data-name="Path 11462" d="M1965.67,394.34l-5.743,1.342s-4.556-8.846-.453-10.462C1963.8,383.518,1966.707,389.515,1965.67,394.34Z" transform="translate(-1878.007 -368.259)" fill="#eb4747"/>
    <path id="Path_11463" data-name="Path 11463" d="M2008.109,272.684s-4.991,1.832-1.828,10.447,9.622-1.47,8.648-6.765S2008.109,272.684,2008.109,272.684Z" transform="translate(-1933.688 -271.27)" fill="#eea987"/>
    <path id="Path_11464" data-name="Path 11464" d="M2004.306,273.441a11.447,11.447,0,0,0,6.862,2.461s.988,2.409,1.148,3.148c0,0,4.178-7.172-.625-10.8S2002.533,271.939,2004.306,273.441Z" transform="translate(-1932.478 -266.791)" fill="#344052"/>
    <path id="Path_11465" data-name="Path 11465" d="M2016.1,322.53c0-.637.326-2.1,1.291-1.743s.1,3.356-.536,3.2C2016.859,323.992,2016.1,324.04,2016.1,322.53Z" transform="translate(-1937.983 -312.902)" fill="#eea987"/>
    <path id="Path_11466" data-name="Path 11466" d="M2022.606,361.96a5.341,5.341,0,0,0,3.28-2.96c-1.908,2.465-3.346,2.112-3.346,2.112C2022.574,361.432,2022.577,361.633,2022.606,361.96Z" transform="translate(-1946.93 -345.903)" fill="#a77860"/>
    <path id="Path_11467" data-name="Path 11467" d="M1907.848,364.3v.765h-4.511V369.3h-.767v-5Zm30.637,5h-.767v-4.234h-4.511V364.3h5.278Zm-35.148,21.849v4.236h4.511v.765h-5.278v-5Zm34.381,0h.767v5h-5.278v-.765h4.511Z" transform="translate(-1843.013 -350.474)" fill="#4598e6"/>
    <rect id="Rectangle_24775" data-name="Rectangle 24775" width="5.651" height="1.046" transform="translate(144.799 79.986)" fill="#4598e6"/>
    <path id="Path_11468" data-name="Path 11468" d="M1356.477,551.26v1.023h-6.027v5.656h-1.03V551.26Zm40.922,6.679h-1.024v-5.656h-6.025V551.26h7.049Zm-46.942,29.184v5.658h6.027V593.8h-7.063v-6.683Zm45.924,0h1.024V593.8h-7.05v-1.024h6.025Z" transform="translate(-1225.787 -511.697)" fill="#4598e6"/>
    <path id="Path_11469" data-name="Path 11469" d="M2001.79,892.568h4.785c.088-.191.158-.358.218-.492,1.418-3.349,8.727-11.029,8.727-11.029v.017a.014.014,0,0,1,0,.008v.01c0,.012.008.021.012.033s.008.037.017.062a.154.154,0,0,1,.008.041c0,.012.008.021.012.033.3,1.119,1.773,6.694,2.51,11.317h32.35c.074-.428.161-.837.261-1.216a26.108,26.108,0,0,0,.624-3.345c0-.054.012-.1.017-.157.025-.2.046-.391.063-.584a30.728,30.728,0,0,0,.054-5.354c.091.2.745,2.592,1.6,5.549.471,1.623,1,3.417,1.532,5.106h7.637l-9.585-27.654c-.212-.167-2.7-1.368-4.514-2.234-1.851-.881-4.086-2.176-6.1-3.282-1.033-.566-2.006-1.078-2.851-1.465l-.128-.058h0c-1.394-.637-2.322-1.057-2.322-1.057h0l-.6-.058c-1.946-.189-7.984-.753-10.01-.87-.165-.012-.307-.017-.413-.021a1.621,1.621,0,0,0-.2,0,25.333,25.333,0,0,0-3.137,1.074c-.062.021-.124.045-.186.07l-.234.087c-.138.055-.286.109-.432.167-.292.117-.595.234-.9.354l-.321.125a64.32,64.32,0,0,0-7.917,3.549c-.591.42-2.426,3.878-4.551,8.154A235.594,235.594,0,0,0,2001.79,892.568Z" transform="translate(-1980.405 -774.372)" fill="#decbc4"/>
    <path id="Path_11470" data-name="Path 11470" d="M2186.127,786.851c.087,4.349,8.506,6.726,8.506,6.726s3.521-4.415,2.68-4.837c-.33-.167-.465-.826-.507-1.564a15.421,15.421,0,0,1,.048-1.973c.025-.307.049-.505.049-.505s-1.2-1.269-2.734-2.781c-2.673-2.644-6.35-6.031-6.356-4.68a1.278,1.278,0,0,0,.031.255C2188.492,780.526,2186.127,786.851,2186.127,786.851Z" transform="translate(-2141.005 -706.302)" fill="#eea886"/>
    <path id="Path_11471" data-name="Path 11471" d="M2184.32,802.75h0c.017.026.374.56.983,1.327,1.292,1.626,3.717,4.3,6.453,5.369a15.421,15.421,0,0,1,.048-1.973,4.331,4.331,0,0,0,.837-.1,26.147,26.147,0,0,0-1.831-2.68l-1.69-.505Z" transform="translate(-2135.955 -728.567)" fill="#a77860"/>
    <path id="Path_11472" data-name="Path 11472" d="M2145.992,688.056c.728,1.584,1.419,2.733,1.616,3.188h0a5.633,5.633,0,0,0,.983,1.327c1.387,1.495,3.967,3.466,6.5,3.4a4.336,4.336,0,0,0,.837-.1,3.956,3.956,0,0,0,2.891-2c5.253-10.283,1.449-18.691,1.449-18.691s-14.361-4.061-16.607.262C2142.091,678.468,2144.281,684.334,2145.992,688.056Z" transform="translate(-2099.243 -617.062)" fill="#eea886"/>
    <path id="Path_11473" data-name="Path 11473" d="M2159.3,630.411s1.334-.074,1.664-2.6c.326-2.5-.333-3.191-.333-3.191s-5.929-2.478-8.059-2.8-7.363-.633-8.591.771c0,0-2.982-.688-3.794,4.256-1.288,7.847,4.392,15.477,4.392,15.477s-.048-5.129,1.083-5.809,2.108.936,2.108.936l2.314.413s-3.515-7.589.7-7.87S2156.891,630.853,2159.3,630.411Z" transform="translate(-2098.272 -572.3)" fill="#e8734d"/>
    <path id="Path_11474" data-name="Path 11474" d="M2240.495,708.687c-.22-2.26-4.307-3.124-4.033-.754s2.287,4.645,3.216,4.565S2240.667,710.41,2240.495,708.687Z" transform="translate(-2191.06 -645.586)" fill="#eea886"/>
    <path id="Path_11475" data-name="Path 11475" d="M2214.993,876.337c1.331-4.267,2.478-7.637,3-8,.895-.641,7.984-2.592,11.348-3.911l.321-.125c.3-.12.607-.237.9-.354.146-.058.291-.112.432-.167l.234-.087c.062-.025.124-.05.186-.07a.071.071,0,0,0,.018.016,55.126,55.126,0,0,1,3.717,4.751c3.479,4.942,8.009,12.951,7.314,20.345-.224,2.37-.5,5.782-.964,9.6-.033.3-.07.607-.112.916H2225.69a84.07,84.07,0,0,0-1.049-11.317c0-.012-.008-.021-.012-.033a.141.141,0,0,0-.008-.041.321.321,0,0,0-.017-.062.129.129,0,0,0-.012-.033h0a.016.016,0,0,0,0-.008s-3.8,5.937-3.992,11.5h-9.877A130.608,130.608,0,0,1,2214.993,876.337Z" transform="translate(-2189.477 -781.058)" fill="#3c4145"/>
    <path id="Path_11476" data-name="Path 11476" d="M1990.569,870.886a118.005,118.005,0,0,1,2.716,13.792h0c.055.329.1.665.158,1.01,0,.037.012.08.017.121.038.224.071.457.1.688l.012.083c.025.154.05.313.07.474.059.387.117.787.175,1.191.574,4.018,1.341,10.4,2.119,17.22h6.2a28.875,28.875,0,0,0,.628-4.8.618.618,0,0,1,.029.08c.5,1.377,1.041,2.866,1.594,4.318.049.138.1.266.15.4h10.692L2004.586,877.6c-.212-.167-2.954-1.644-4.769-2.5-1.893-.9-4.285-2.014-6.406-2.991-1.015-.471-1.967-.907-2.775-1.278Z" transform="translate(-1931.879 -787.275)" fill="#3c4145"/>
    <path id="Path_11477" data-name="Path 11477" d="M2214.832,874.461l4.1,2.314-1.752,1.79,3.844,20.744h1.448c.533-4.194.836-7.959,1.073-10.517,1.07-11.426-10.338-24.326-11.046-25.112-.551.208-1.14.436-1.751.677Z" transform="translate(-2170.565 -781.11)" fill="#51565c"/>
    <path id="Path_11478" data-name="Path 11478" d="M2120.59,870.46s1.531,5,3.311,17.473c.574,4.014,1.345,10.4,2.123,17.22h.6l.794-19.6-1.951-2.113,1.734-2.168-3.717-9.476c-1.014-.471-1.967-.907-2.775-1.277Z" transform="translate(-2061.961 -786.956)" fill="#51565c"/>
    <path id="Path_11479" data-name="Path 11479" d="M2206.54,851.065l3.4-2.065s.095,1.863,8.506,6.726l-2.388,6.727Z" transform="translate(-2164.814 -768.451)" fill="#f5e2d9"/>
    <path id="Path_11480" data-name="Path 11480" d="M2172.457,855.84s-.138,2.011-2.237,5.782l4.661,6.079.339-9.855Z" transform="translate(-2116.592 -774.349)" fill="#f5e2d9"/>
    <path id="Path_11481" data-name="Path 11481" d="M2186.688,897.89s-.9,3.614-.578,4.625a4.411,4.411,0,0,0,3.414-.18A15.708,15.708,0,0,0,2186.688,897.89Z" transform="translate(-2133.074 -810.61)" fill="#d44040"/>
    <path id="Path_11482" data-name="Path 11482" d="M2164.791,932.8a90.887,90.887,0,0,1,.6,18.631h3.981q.081-1.18.154-2.463a64.2,64.2,0,0,0-3.8-24.334l-2.026-.508S2164.349,929.808,2164.791,932.8Z" transform="translate(-2110.081 -833.238)" fill="#d44040"/>
    <path id="Path_11483" data-name="Path 11483" d="M2069.4,997.3c.151,3.084.129,5.822.129,5.822h0c0,.014,0,.1.01.235.007-.052.014-.1.019-.156.494,1.377,1.041,2.865,1.591,4.318a45.913,45.913,0,0,0,.124-4.705c-.22-8.646-2.94-13.179-2.94-13.179C2068.961,991.149,2069.26,994.382,2069.4,997.3Z" transform="translate(-1998.638 -889.73)" fill="#2d3133"/>
    <path id="Path_11484" data-name="Path 11484" d="M1626.5,1007l12.72,6.992,12.776-20.1-15.451-5.367Z" transform="translate(-1518.52 -888.764)" fill="#292c47"/>
    <path id="Path_11485" data-name="Path 11485" d="M1632.65,1010.11l11.9,6.539,11.946-18.8-14.45-5.019Z" transform="translate(-1523.865 -892.481)" fill="#fff"/>
    <path id="Path_11486" data-name="Path 11486" d="M1727.943,1066.644s2.214-1.059,3.185-1.612,3.472-1.315,3.674-1.495,7.41-.625,7.847-1,.862.884-1.006,1.294-4.468,1.41-4.61,2.139,1.919.9,2.127,1.506-.058.465-.354.595-2.452-1.065-3.4-.725-2.4-.138-3.123.118-4.267,1.437-4.267,1.437Z" transform="translate(-1623.514 -952.53)" fill="#eea886"/>
    <path id="Path_11487" data-name="Path 11487" d="M1646.189,1075.378s1.86-1.674,2.753-2.375,2.589-2.753,2.839-2.881,3.474-6.745,4-7-.5-1.158-1.611.443-3.068,3.663-3.812,3.512-.1-2.16-.59-2.591-.463-.127-.7.1.048,2.726-.64,3.487-.811,2.31-1.328,2.891-3.013,3.455-3.013,3.455Z" transform="translate(-1524.869 -952.675)" fill="#eea886"/>
    <path id="Path_11488" data-name="Path 11488" d="M2011.088,1802.984s-.4,2.793-.453,3.213-4.477-.248-4.477-.248l-.358-3.324S2010.534,1802.591,2011.088,1802.984Z" transform="translate(-1929.827 -1590.801)" fill="#424773"/>
    <path id="Path_11489" data-name="Path 11489" d="M1958.573,1824.853a12.015,12.015,0,0,0,2.753,2.416c1.35.734,3.487,1.024,4.29,1.79.578.551,2.108,2.907-3.524,2.86s-8.349.333-8.948-.573.873-6.677.873-6.677A12.062,12.062,0,0,0,1958.573,1824.853Z" transform="translate(-1877.718 -1609.811)" fill="#292c47"/>
    <path id="Path_11490" data-name="Path 11490" d="M1780.736,1802.984s-.4,2.793-.452,3.213-4.477-.248-4.477-.248l-.358-3.324S1780.184,1802.591,1780.736,1802.984Z" transform="translate(-1667.765 -1590.801)" fill="#424773"/>
    <path id="Path_11491" data-name="Path 11491" d="M1709.31,1824.818a11.984,11.984,0,0,0,2.753,2.416c1.352.734,6.346,1.337,7.149,2.1.58.551,1.542,2.753-6.383,2.549-5.632-.147-8.349.333-8.948-.573s.873-6.677.873-6.677S1706.011,1825.142,1709.31,1824.818Z" transform="translate(-1596.743 -1609.777)" fill="#292c47"/>
    <path id="Path_11492" data-name="Path 11492" d="M1915.107,1283.93s-4.159,6.608-3.854,12.579-1.507,12.493-2.132,18.731c-.7,6.956-3.546,23.421-3.649,27.142s.442,15.6.442,15.6l5.706.138s4.79-28.786,6.032-31.723,7.4-23.877,7.6-26.227S1915.107,1283.93,1915.107,1283.93Z" transform="translate(-1830.182 -1143.509)" fill="#292c47"/>
    <path id="Path_11493" data-name="Path 11493" d="M1793.863,1277.692s3.135,16.369,3.548,20.024.688,17.69.9,19.974,1.376,29.9,2.478,33.29h-7.3s-5.592-20.073-5.592-29.572-4.325-20.649-7.118-26.912-9.183-6.415-10.9-18.033C1769.88,1276.459,1791.545,1274,1793.863,1277.692Z" transform="translate(-1687.047 -1136.376)" fill="#292c47"/>
    <path id="Path_11494" data-name="Path 11494" d="M1860.051,877.2s5.582-2.086,8.155,2.164,2.327,12.754-.487,13.8-7.04.5-8.481-2.16-2.741-6.5-2.678-9.07S1858.585,877.945,1860.051,877.2Z" transform="translate(-1768.186 -792.331)" fill="#eea886"/>
    <path id="Path_11495" data-name="Path 11495" d="M1885.232,964.6a4.827,4.827,0,0,0,.151,2.251c.384.736-7.231.761-7.231.761a50.225,50.225,0,0,0-1.79-7.45C1875.192,956.753,1885.232,964.6,1885.232,964.6Z" transform="translate(-1786.306 -863.572)" fill="#eea886"/>
    <path id="Path_11496" data-name="Path 11496" d="M1860.45,884.906s.526.867,2.671.531,4.763-3.191,5.659-3.5.9-.84.9-.84l.56.819.953.061s-.869-2.554.441-3.594-1.359-8.26-8.239-5.86c0,0-5.285,1.456-5.093,4.462S1859.267,883.41,1860.45,884.906Z" transform="translate(-1770.393 -788.313)" fill="#3a3f47"/>
    <path id="Path_11497" data-name="Path 11497" d="M1881.643,1000.415s-.023-1.419-.666-1.556-7.1-.756-7.886-.446v1.652S1874.611,1001,1881.643,1000.415Z" transform="translate(-1782.112 -897.222)" fill="#e2d2ca"/>
    <path id="Path_11498" data-name="Path 11498" d="M1876.639,923.047c-.121-.5-1.4-1.945-1.893-.4s.741,3.618,1.429,3.442S1876.943,924.326,1876.639,923.047Z" transform="translate(-1777.49 -831.359)" fill="#eea886"/>
    <path id="Path_11499" data-name="Path 11499" d="M1686.832,1135.23h-.01C1686.862,1135.248,1686.869,1135.251,1686.832,1135.23Z" transform="translate(-1561.685 -1015.279)" fill="#323657"/>
    <path id="Path_11500" data-name="Path 11500" d="M1688.489,1064.276a59.09,59.09,0,0,0,9.26,1.652c5.838.644,20.422-.233,20.511-.922s-3.137-25.679-2.954-26.966.275-5.872.275-5.872a32.377,32.377,0,0,0,2.9,9.187c.559,1.011,2.431,4.178,3.334,3.458,4.369-3.488,11.135-16.635,11.563-16.746-.359-.157-3.206-1.468-3.605-1.6-.35-.117-3.5,3.22-5.411,5.289-.852.922-1.456,1.593-1.456,1.593-.551-1.239-2.56-9.058-3.184-11.764-1.408-6.1-1.192-6.354-1.192-6.354-4.267-1.293-10.752-3.92-10.752-3.92l-8.553-.35s-7.847,1.729-10.941,3.125c-.293.138-.295,7-1.1,8.81l2.563,5.407s1.481,10.711,1.79,15.474C1691.684,1045.957,1688.489,1064.276,1688.489,1064.276Z" transform="translate(-1608.255 -908.115)" fill="#ffdf69"/>
    <path id="Path_11501" data-name="Path 11501" d="M1956.718,1051.373a3.381,3.381,0,0,0,1.9,1.6,2.45,2.45,0,0,0,1.377.138l.334-.062h0l5.862-1.088s1.282-14.769-8.008-18.308C1957.928,1033.73,1954.667,1044.76,1956.718,1051.373Z" transform="translate(-1878.137 -927.682)" fill="#ffdf69"/>
    <path id="Path_11502" data-name="Path 11502" d="M1999.06,1127.192h0a2.449,2.449,0,0,0,1.376.138l.334-.062h0l-.578-7.548Z" transform="translate(-1918.582 -1001.904)" fill="#ab9546"/>
    <path id="Path_11503" data-name="Path 11503" d="M1752.6,1163.578l.716,3.029a24,24,0,0,0,.741-4.627C1753.2,1162.908,1752.6,1163.578,1752.6,1163.578Z" transform="translate(-1637.942 -1038.346)" fill="#ab9546"/>
    <path id="Path_11504" data-name="Path 11504" d="M1943.608,883.952s-7.315-.917-.124,11.3Z" transform="translate(-1853.333 -798.578)" fill="#3a3f47"/>
    <path id="Path_11505" data-name="Path 11505" d="M1669.677,999.008l.743-1.277-5.857-2.021-.743,1.271Z" transform="translate(-1542.083 -894.965)" fill="#292c47"/>
    <path id="Path_11506" data-name="Path 11506" d="M2475.649,605.475H2471.5l1.271-2.635h4.149Z" transform="translate(-2459.766 -556.177)" fill="url(#linear-gradient-13)"/>
    <path id="Path_11507" data-name="Path 11507" d="M2458.388,605.475h-.988l1.269-2.635h.989Z" transform="translate(-2440.563 -556.177)" fill="url(#linear-gradient-13)"/>
    <path id="Path_11508" data-name="Path 11508" d="M2375.231,590.936h-16.8l.558-1.316h16.8Z" transform="translate(-2343.07 -544.777)" fill="url(#linear-gradient-15)"/>
    <rect id="Rectangle_24776" data-name="Rectangle 24776" width="7.12" height="2.146" rx="1.073" transform="translate(122.005 2.017)" fill="url(#linear-gradient-16)"/>
    <rect id="Rectangle_24777" data-name="Rectangle 24777" width="7.12" height="2.146" rx="1.073" transform="translate(122.005 7.161)" fill="url(#linear-gradient-17)"/>
    <rect id="Rectangle_24778" data-name="Rectangle 24778" width="7.12" height="2.146" rx="1.073" transform="translate(122.005 12.307)" fill="url(#linear-gradient-16)"/>
    <rect id="Rectangle_24779" data-name="Rectangle 24779" width="2.026" height="2.146" rx="1.013" transform="translate(117.039 2.017)" fill="url(#linear-gradient-19)"/>
    <rect id="Rectangle_24780" data-name="Rectangle 24780" width="2.026" height="2.146" rx="1.013" transform="translate(117.039 7.161)" fill="url(#linear-gradient-20)"/>
    <rect id="Rectangle_24781" data-name="Rectangle 24781" width="2.026" height="2.146" rx="1.013" transform="translate(117.039 12.307)" fill="url(#linear-gradient-19)"/>
    <path id="Path_11509" data-name="Path 11509" d="M1533.719,1106.229h-7.449l2.28-4.729H1536Z" transform="translate(-1388.726 -986.192)" fill="url(#linear-gradient-22)"/>
    <path id="Path_11510" data-name="Path 11510" d="M1502.726,1106.229h-1.776l2.28-4.729h1.776Z" transform="translate(-1354.247 -986.192)" fill="url(#linear-gradient-22)"/>
  </g>
</svg>
