<svg id="cover_letter_" data-name="cover letter " xmlns="http://www.w3.org/2000/svg" xmlns:xlink="http://www.w3.org/1999/xlink" width="292.704" height="251.183" viewBox="0 0 292.704 251.183">
  <defs>
    <linearGradient id="linear-gradient" y1="0.5" x2="1" y2="0.5" gradientUnits="objectBoundingBox">
      <stop offset="0.1" stop-color="#0f8da3"/>
      <stop offset="0.97" stop-color="#0d6b75"/>
    </linearGradient>
    <linearGradient id="linear-gradient-2" x1="0" y1="0.5" x2="1" y2="0.5" xlink:href="#linear-gradient"/>
    <linearGradient id="linear-gradient-4" x1="-0.001" y1="0.5" x2="1" y2="0.5" xlink:href="#linear-gradient"/>
  </defs>
  <g id="Layer_2" data-name="Layer 2">
    <g id="Ñëîé_1" data-name="Ñëîé 1">
      <path id="Path_11511" data-name="Path 11511" d="M157.315,293.356c-1.59-4.934-3.964-8.045-5.379-9.089a2.767,2.767,0,0,0-1.945-.556,14.183,14.183,0,0,0-6.418-2.719c-.3-.064-.6-.117-.912-.17l-.4-.053-1.394-.53-.233-.17a.217.217,0,0,0,0-.058l-.366-3.535a2.984,2.984,0,0,0,.843.042c1.9-.2,3.254-2.221,3.016-4.5l-.164-1.59a7.913,7.913,0,0,0,.276-3.1L144,265.05l-.228-2.12a17.666,17.666,0,0,0-8.639,2.888.35.35,0,0,0-.138.313l.223,2.12.684,6.625.5,4.87-.36.17-.058.032c-.074.037-.148.069-.217.111s-.472.3-.472.3c-1.309,0-2.592.09-3.795.185-1,.085-1.945.186-2.819.291-1.06.132-1.993.281-2.782.424-1.919.344-4,.933-5.088,2.555a4.4,4.4,0,0,0-.636,1.489,25.571,25.571,0,0,0-3.137,8.6c-1.341,7.075-.89,17.256,5.332,29.488a3.71,3.71,0,0,0,.53,1.473,18.638,18.638,0,0,0,1.108,1.744h.042c.223.09.45.154.673.233l.122.032.212.032h.53c.249-.048.53-.117.09.032.117-.037.238-.064.355-.09l-.042-.053a.821.821,0,0,0,.164,0,1.4,1.4,0,0,0,1.007-1.277,2.936,2.936,0,0,0-.456-1.59,3.181,3.181,0,0,0-.217-.366,1.277,1.277,0,0,0-.074-.88,34.3,34.3,0,0,1-2.761-20.839q2.7,10.038,5.634,20.017h.159a186.9,186.9,0,0,1,.965,24.6,124.067,124.067,0,0,1-1.956,20.51,9.465,9.465,0,0,0-.148,3.593.264.264,0,0,0-.053.09l-1.06,3.678c-.064.212.2.413.53.413h7.155c1.881,0,2.5-1.59.827-2.146l-2.48-.816a2.968,2.968,0,0,0,.5-1.208c1.442-8.093,2.565-16.371,3.4-24.114,1.023-9.54,1.59-18.252,1.781-24.814l4.812-.117a185.633,185.633,0,0,1,1,24.909,123.5,123.5,0,0,1-1.956,20.51,9.577,9.577,0,0,0-.148,3.593.249.249,0,0,0-.048.09l-1.06,3.678c-.058.212.2.413.53.413h7.149c1.881,0,2.5-1.59.827-2.146l-2.48-.816a2.973,2.973,0,0,0,.5-1.208c1.442-8.093,2.565-16.371,3.4-24.114.848-7.918,1.389-15.269,1.654-21.294V325.1h.1c.079,0,.429-.064.53-.085l.2-.053.106-.042c.2-.1.408-.185.6-.3h.032a17.045,17.045,0,0,0,.827-1.754,3.488,3.488,0,0,0,.313-1.436C160.188,309.329,159.4,299.79,157.315,293.356Zm-4.171,23.027c-.265-2.051-.556-4.542-.726-6.328-.064-.609-.111-1.219-.148-1.828a46.806,46.806,0,0,1-.042-6.275A31.412,31.412,0,0,1,153.144,316.383Z" transform="translate(-54.722 -123.583)" opacity="0.69" fill="url(#linear-gradient)"/>
      <path id="Path_11512" data-name="Path 11512" d="M46.68,319.587c-.106-.811-.233-1.765-.355-2.756,3.18-3.4,13.249-14.521,11.58-17.569-1.283-2.332-3.954-4.24-5.968-5.973l-.27-.233c-2.411-2.152-4.908-4.24-7.25-6.455a4.448,4.448,0,0,0-1.06-.742,14.149,14.149,0,0,0-6.36-2.7c-.3-.058-.6-.117-.906-.164l-.4-.058-1.367-.525a4.773,4.773,0,0,0-.53-.376l-.647-2.8a2.952,2.952,0,0,0,.832-.058c1.844-.413,2.947-2.57,2.448-4.77l-.355-1.563a7.881,7.881,0,0,0-.085-3.079l-.482-2.226a2.072,2.072,0,0,0-2.65-1.468,16.462,16.462,0,0,0-4.982,2.417,2.316,2.316,0,0,0-.848,2.358l.2.88,1.479,6.593.853,3.784-.058.037c-.069.037-.143.069-.212.111s-.466.3-.466.3c-1.3,0-2.57.09-3.768.186-.991.08-1.929.18-2.793.291-1.06.127-1.982.276-2.761.413-1.8.329-3.71.88-4.849,2.284a3.708,3.708,0,0,0-.652.371c-1.505,1.113-4.028,4.431-5.729,9.683-2.221,6.853-3.053,17.007,1.59,29.923a3.116,3.116,0,0,0,.238,1.272H9.428a1.161,1.161,0,0,0-1.171,1.15l-.032,3.132-8.056-.08L0,349.483l24.411.228.17-18.311-7.621-.074.032-3.365a.917.917,0,0,0-.917-.933H14.193c-.026-.074-.053-.154-.085-.233s-.106-.26-.17-.387a1.293,1.293,0,0,0,.032-.885,33.3,33.3,0,0,1,2.12-26.154q3.18,12.078,6.7,24.061h-.032c.032.064.058.122.085.186a1.145,1.145,0,0,1,.037.127c6.519,13.822,6.948,14.808,3.328,26.133-2.157,6.752-4.515,13.249-5.787,20.213a5.554,5.554,0,0,0,0,2.03h0l-1.06,3.646c-.058.212.2.408.53.408h7.075c1.866,0,2.475-1.59.816-2.12L25,373.141a8.31,8.31,0,0,0,.88-1.913c5.915-18.009,10.308-24.1,10.292-31.311A53.2,53.2,0,0,0,33.2,323.488l4-.09a185.347,185.347,0,0,1,1,24.734,123.521,123.521,0,0,1-1.94,20.351,9.455,9.455,0,0,0-.154,3.567.244.244,0,0,0-.048.09l-1.06,3.646c-.058.212.2.408.53.408h7.128c1.866,0,2.475-1.59.816-2.12L41,373.269a3.016,3.016,0,0,0,.5-1.2c1.426-8.04,2.544-16.276,3.371-23.939,1.219-11.352,1.8-21.538,1.823-28.258v-.27ZM12.592,329.62c.254,0,.562-.048.085.042.122,0,.244-.032.366-.042l-.032-.064a.821.821,0,0,0,.164,0,1.42,1.42,0,0,0,1.134-1.134,1.241,1.241,0,0,0,0-.138h.217a1.124,1.124,0,0,1,1.108,1.129v1.2l-6.158-.058v-1.41a.9.9,0,0,1,.912-.9h.191c.138.281.281.562.429.837h.037c.207.117.424.207.641.318l.111.042.212.058C12.142,329.551,12.513,329.583,12.592,329.62Zm33.59-30.029.366.323c.7.625,1.426,1.283,2.226,2.014-1.192,2.146-2.194,4.441-3.222,6.641a37.3,37.3,0,0,1,.631-8.978Z" transform="translate(0 -125.012)" opacity="0.69" fill="url(#linear-gradient-2)"/>
      <path id="Path_11513" data-name="Path 11513" d="M371.742,293.356c-1.59-4.934-3.964-8.045-5.379-9.089a2.783,2.783,0,0,0-1.95-.556A14.161,14.161,0,0,0,358,280.992c-.3-.064-.609-.117-.917-.17l-.4-.053-1.389-.53-.233-.17v-.058l-.366-3.535a2.936,2.936,0,0,0,.837.042c1.9-.2,3.254-2.221,3.021-4.5l-.17-1.59a7.906,7.906,0,0,0,.281-3.1l-.238-2.279-.223-2.12a17.666,17.666,0,0,0-8.639,2.888.329.329,0,0,0-.138.313l.217,2.12c.027.254.069.5.117.742l.408,4.24a.528.528,0,0,0,0,.09l.663,6.429-.36.17-.058.032-.217.111-.466.3c-1.309,0-2.592.09-3.8.186-1,.085-1.945.185-2.814.292-1.06.132-2,.281-2.782.424-1.924.344-4,.933-5.093,2.555a4.389,4.389,0,0,0-.631,1.489,25.572,25.572,0,0,0-3.143,8.6c-1.32,7.075-.869,17.283,5.353,29.472a3.561,3.561,0,0,0,.53,1.473,16.67,16.67,0,0,0,1.108,1.744h.037c.223.09.451.154.678.233l.117.032c.074,0,.143.026.217.032s.461,0,.53,0c.244-.048.53-.117.085.032.122-.037.238-.064.36-.09l-.042-.053a.864.864,0,0,0,.164,0,1.42,1.42,0,0,0,1.007-1.277,2.936,2.936,0,0,0-.456-1.59c-.069-.127-.143-.249-.217-.366a1.314,1.314,0,0,0-.079-.88,34.337,34.337,0,0,1-2.756-20.839q2.7,10.038,5.628,20.017h.164a186.9,186.9,0,0,1,.965,24.6,123.5,123.5,0,0,1-1.956,20.51,9.576,9.576,0,0,0-.148,3.593.371.371,0,0,0-.048.09l-1.06,3.678c-.058.212.2.413.53.413h7.155c1.876,0,2.491-1.59.821-2.146l-2.48-.816a2.974,2.974,0,0,0,.5-1.208c1.441-8.093,2.565-16.371,3.4-24.114,1.023-9.54,1.59-18.252,1.775-24.819l4.812-.111a186.455,186.455,0,0,1,1.007,24.909,124.648,124.648,0,0,1-1.956,20.51,9.6,9.6,0,0,0-.154,3.593.37.37,0,0,0-.048.09l-1.06,3.678c-.064.212.2.413.53.413h7.155c1.881,0,2.5-1.59.821-2.146l-2.475-.816a3.043,3.043,0,0,0,.5-1.208c1.442-8.093,2.565-16.371,3.4-24.114.848-7.918,1.394-15.269,1.654-21.294v-.042h.1a4.341,4.341,0,0,0,.5-.085l.2-.053.106-.042c.2-.1.408-.186.6-.3h.037a18.224,18.224,0,0,0,.827-1.754,3.4,3.4,0,0,0,.307-1.436C374.625,309.329,373.862,299.79,371.742,293.356Zm-4.176,23.027c-.265-2.051-.53-4.542-.721-6.328-.064-.609-.117-1.219-.154-1.828a46.811,46.811,0,0,1-.042-6.275,31.342,31.342,0,0,1,.933,14.431Z" transform="translate(-155.512 -123.583)" opacity="0.69" fill="url(#linear-gradient)"/>
      <path id="Path_11514" data-name="Path 11514" d="M460.593,339.794a53.433,53.433,0,0,0-3-16.509h-2.459l1.436-.037a2.947,2.947,0,0,0,1.977-.53,2.889,2.889,0,0,0,.832-1.865c.074-.737.1-.5.164-1.256-.111-.811-.239-1.765-.36-2.756,3.206-3.4,13.249-14.521,11.585-17.569-1.288-2.327-3.954-4.24-5.973-5.973-.09-.079-.186-.154-.27-.233-2.411-2.152-4.908-4.24-7.25-6.455a4.445,4.445,0,0,0-1.06-.742,14.149,14.149,0,0,0-6.36-2.7c-.3-.058-.6-.117-.906-.164l-.4-.058-1.383-.5a4.331,4.331,0,0,0-.53-.376l-.631-2.809a2.943,2.943,0,0,0,.832-.058c1.844-.413,2.947-2.57,2.449-4.77l-.355-1.558a7.908,7.908,0,0,0-.085-3.085l-.5-2.221a2.072,2.072,0,0,0-2.65-1.468,16.428,16.428,0,0,0-4.976,2.417,2.3,2.3,0,0,0-.832,2.358l.2.88,1.219,5.416,1.113,4.961-.058.037c-.069.037-.143.069-.212.111s-.466.3-.466.3c-1.3,0-2.57.09-3.768.185-.986.085-1.929.18-2.793.292-1.06.132-1.982.276-2.761.419-1.908.345-3.97.927-5.051,2.533a4.395,4.395,0,0,0-.482.975c-1.675,1.966-3.429,3.879-5.125,5.83-.08.085-.164.175-.238.265-1.8,2.014-4.24,4.24-5.2,6.736-1.367,3.45,11.543,14.235,14.378,16.53a5.829,5.829,0,0,0,2.427,1.314l.217.27a4.574,4.574,0,0,0,1.023.922q.662,2.295,1.325,4.584H435.6c.032.064.058.122.085.186a1.149,1.149,0,0,1,.037.127c6.519,13.822,6.948,14.813,3.328,26.138-2.157,6.747-4.51,13.249-5.787,20.208a5.553,5.553,0,0,0,0,2.03h0l-1.06,3.646c-.058.212.2.408.53.408h7.1c1.866,0,2.475-1.59.816-2.12l-2.782-.912a8.312,8.312,0,0,0,.88-1.913c5.93-18.019,10.308-24.1,10.292-31.306a53.223,53.223,0,0,0-2.978-16.429l1.177-.032c6.551,13.949,6.99,14.9,3.365,26.266-2.157,6.752-4.515,13.249-5.787,20.208a5.36,5.36,0,0,0,0,2.035h0l-1.033,3.646c-.064.212.382.53.721.53h6.858c1.866,0,2.528-1.728.874-2.268l-2.788-.917a8.365,8.365,0,0,0,.88-1.908C456.215,353.091,460.593,347,460.593,339.794ZM459,299.611l.366.323c.7.62,1.431,1.277,2.226,2.009-1.192,2.146-2.194,4.441-3.217,6.641A36.986,36.986,0,0,1,459,299.611Zm-33.32,1.685c.7-.832,1.346-1.59,1.966-2.295l.874-1q1.685,6.434,3.466,12.836c-2.136-2.915-4.012-6.434-6.291-9.545Z" transform="translate(-195.604 -125.026)" opacity="0.69" fill="url(#linear-gradient-4)"/>
      <path id="Path_11515" data-name="Path 11515" d="M522.72,317.2c-2.963-2.65-5.178-4.478-7.361-6.556-3.954-3.763,1.245-10.557,5.231-6.762,2.342,2.231,4.839,4.3,7.255,6.455.085.079.18.154.27.233A19.01,19.01,0,0,1,522.72,317.2Z" transform="translate(-241.567 -142.306)" fill="#b5d8e3"/>
      <path id="Path_11516" data-name="Path 11516" d="M531.715,317.52c2.014,1.754,4.685,3.646,5.968,5.973,1.781,3.222-9.54,15.465-12.062,18.078-3.773,3.943-5.422.371-2.576-4.341,1.993-3.312,3.477-7.42,5.5-11.071-.795-.731-1.521-1.388-2.226-2.009A19.01,19.01,0,0,0,531.715,317.52Z" transform="translate(-245.167 -149.242)" fill="#b5d8e3"/>
      <path id="Path_11517" data-name="Path 11517" d="M519.281,357.734a4.442,4.442,0,0,0-1.261,1.383,20.85,20.85,0,0,0-1.171,2.062.1.1,0,0,0,0,.042,5.313,5.313,0,0,0,.117.779c0,.064,0,.1.032.132a1.251,1.251,0,0,1,.085.223c.032.074.233.445.265.53.18.212.408.461,0,.106a2.9,2.9,0,0,1,.281.292l.037-.074c.032.048.058.1.1.148a1.59,1.59,0,0,0,1.823.217,3.667,3.667,0,0,0,1.373-1.357,4.154,4.154,0,0,0,.726-3.821,1.654,1.654,0,0,0-.625-.768A1.744,1.744,0,0,0,519.281,357.734Z" transform="translate(-242.929 -168.003)" fill="#ffb288"/>
      <path id="Path_11518" data-name="Path 11518" d="M487.586,467.937l-6.63-2.173c-.323-.106-.721,0-.784.249l-1.06,3.646c-.064.212.2.408.53.408h7.1C488.63,470.067,489.239,468.483,487.586,467.937Z" transform="translate(-225.189 -218.9)" fill="#161616"/>
      <path id="Path_11519" data-name="Path 11519" d="M483.4,374.35c6.635,14.129,7.091,15.035,3.45,26.451-2.157,6.747-4.515,13.249-5.787,20.208-.806,4.4,3.524,7.123,5.491,1.155,5.936-18.019,10.308-24.1,10.292-31.306a53.46,53.46,0,0,0-3-16.509Z" transform="translate(-226.064 -175.953)" fill="#393836"/>
      <path id="Path_11520" data-name="Path 11520" d="M509.4,467.677l-6.625-2.173c-.328-.106-.726,0-.79.244l-1.06,3.646c-.058.212.2.408.53.408h7.1C510.446,469.8,511.056,468.217,509.4,467.677Z" transform="translate(-235.441 -218.778)" fill="#161616"/>
      <path id="Path_11521" data-name="Path 11521" d="M505.21,374.09c6.635,14.124,7.1,15.035,3.45,26.446-2.157,6.752-4.515,13.249-5.787,20.208-.805,4.4,3.53,7.128,5.5,1.161,5.93-18.019,10.308-24.1,10.292-31.306a53.286,53.286,0,0,0-3-16.509Z" transform="translate(-236.315 -175.831)" fill="#393836"/>
      <path id="Path_11522" data-name="Path 11522" d="M479.843,297.6c-.991.085-1.934.18-2.8.291-1.06.133-1.977.276-2.756.419-1.908.345-3.97.927-5.051,2.533-1.23,1.828-.742,4.24-.2,6.4q4.012,15.746,8.607,31.348l3.381-.079C483.1,325.016,483.808,310.786,479.843,297.6Z" transform="translate(-220.192 -139.879)" fill="#b5d8e3"/>
      <path id="Path_11523" data-name="Path 11523" d="M501.9,297.847c-.3-.058-.6-.117-.906-.164a47.378,47.378,0,0,0-11.066-.265c3.964,13.186,3.254,27.416,1.187,40.909l16.048-.371C508.967,324.685,507.912,309.819,501.9,297.847Z" transform="translate(-230.278 -139.697)" fill="#fff"/>
      <path id="Path_11524" data-name="Path 11524" d="M521.148,325.428a36.6,36.6,0,0,1,1.087-12.852,76.137,76.137,0,0,0-1.018-7.568c-.721-3.789-4.3-5.718-8.7-6.6,6.01,11.983,7.065,26.838,5.263,40.109l1.436-.037a2.941,2.941,0,0,0,1.972-.53,2.894,2.894,0,0,0,.837-1.866c.074-.737.1-.5.159-1.256-.3-2.178-.689-5.416-.89-7.589C521.254,326.642,521.18,326.038,521.148,325.428Z" transform="translate(-240.896 -140.26)" fill="#b5d8e3"/>
      <path id="Path_11525" data-name="Path 11525" d="M503.348,296.562A4.109,4.109,0,0,0,497.91,296c.53.583,1.092,1.134,1.659,1.685.376.366.784.843,1.235,1.23a2.028,2.028,0,0,1,.313-.053,2.576,2.576,0,0,0,1.447-.419,5.173,5.173,0,0,0,.784-1.881Z" transform="translate(-234.029 -138.777)" fill="#ffb288"/>
      <path id="Path_11526" data-name="Path 11526" d="M499.359,267.824a2.072,2.072,0,0,0-2.65-1.473,16.462,16.462,0,0,0-4.982,2.417,2.316,2.316,0,0,0-.832,2.358l.2.88c.742,3.3,3.328,5.559,5.74,5.019s3.779-3.683,3.037-6.985Z" transform="translate(-230.703 -125.144)" fill="#9d5b45"/>
      <path id="Path_11527" data-name="Path 11527" d="M494.011,280.932a1.3,1.3,0,1,0,1.314,1.012A1.182,1.182,0,0,0,494.011,280.932Z" transform="translate(-231.608 -132.04)" fill="#ffb288"/>
      <path id="Path_11528" data-name="Path 11528" d="M497.272,274.3c-.5-2.221.6-4.372,2.443-4.77a3.052,3.052,0,0,1,2.263.419l-4.685,4.473Z" transform="translate(-233.672 -126.658)" fill="#9d5b45"/>
      <path id="Path_11529" data-name="Path 11529" d="M499.385,270.63a4.473,4.473,0,0,1,2,2.862l.726,3.254c.5,2.221-.6,4.372-2.443,4.77s-3.763-1.06-4.266-3.286l-.7-3.137Z" transform="translate(-232.52 -127.202)" fill="#ffb288"/>
      <rect id="Rectangle_24782" data-name="Rectangle 24782" width="4.144" height="8.496" rx="1.3" transform="translate(262.781 150.964) rotate(-12.64)" fill="#ffb288"/>
      <path id="Path_11530" data-name="Path 11530" d="M497.578,296.41s1.616,2.618,3.233,2.941l-.848,2.867s-3.572-1.489-3.334-5.236Z" transform="translate(-233.422 -139.32)" fill="#fff"/>
      <path id="Path_11531" data-name="Path 11531" d="M506.077,297a2.826,2.826,0,0,1-1.548,2.608l1.277,2.348a5.83,5.83,0,0,0,1.654-4.457Z" transform="translate(-237.141 -139.597)" fill="#fff"/>
      <path id="Path_11532" data-name="Path 11532" d="M504.047,325.48a7.228,7.228,0,0,1-1.738-3.429,7.35,7.35,0,0,1,.233-3.71,14.791,14.791,0,0,1,1.436-3.042c.53-.927,1.092-1.8,1.537-2.687a8.544,8.544,0,0,0,.89-2.782,8.784,8.784,0,0,0-.111-2.973,9.1,9.1,0,0,0-3.153-5.157A9.454,9.454,0,0,1,507,306.671a9.592,9.592,0,0,1-.127,6.524c-.371,1.06-.837,2.009-1.245,2.952a13.171,13.171,0,0,0-.943,2.756,4.924,4.924,0,0,0,.133,2.512,4.468,4.468,0,0,0,1.314,1.971Z" transform="translate(-236.033 -141.806)" fill="#f7665f"/>
      <path id="Path_11533" data-name="Path 11533" d="M465.123,314.923c2.623-3.016,4.605-5.135,6.519-7.494,3.471-4.266-2.6-10.393-6.1-6.089-2.051,2.528-4.282,4.923-6.423,7.383l-.239.265A19.079,19.079,0,0,0,465.123,314.923Z" transform="translate(-215.684 -140.948)" fill="#b5d8e3"/>
      <path id="Path_11534" data-name="Path 11534" d="M454.175,317.07c-1.791,2.014-4.24,4.24-5.2,6.736-1.362,3.45,11.543,14.235,14.378,16.53,4.282,3.461,5.469-.323,2.024-4.669-2.422-3.058-4.431-6.959-6.927-10.366.7-.832,1.351-1.59,1.972-2.295a19.08,19.08,0,0,1-6.243-5.936Z" transform="translate(-210.98 -149.03)" fill="#b5d8e3"/>
      <path id="Path_11535" data-name="Path 11535" d="M481.185,354.945a4.4,4.4,0,0,1,1.436,1.219,20.941,20.941,0,0,1,1.436,1.913v.97l-.048.239c-.026.09-.18.472-.2.562-.154.233-.355.53,0,.106-.09.106-.164.217-.238.323l-.048-.069a1.157,1.157,0,0,1-.08.164,1.59,1.59,0,0,1-1.791.451,3.647,3.647,0,0,1-1.548-1.182,4.238,4.238,0,0,1-1.219-3.71,1.718,1.718,0,0,1,.53-.853A1.776,1.776,0,0,1,481.185,354.945Z" transform="translate(-225.042 -166.751)" fill="#ffb288"/>
      <path id="Path_11536" data-name="Path 11536" d="M428.592,338.571a1.525,1.525,0,0,1,.859.032,1.41,1.41,0,0,1,.848,1.219v.048c4.356-12.12,3.577-21.66,1.489-28.089-1.59-4.934-3.964-8.045-5.379-9.089-3.53-2.6-8.48,4.335-5.6,7.282a1.186,1.186,0,0,1,.159.148c.074.064.143.127.228.191l-.164-.127.175.2c.6.715,1.161,1.447,1.68,2.194,5.581,8.05,6.429,18.019,3.556,27.119a1.219,1.219,0,0,0,.032.827A3.243,3.243,0,0,1,428.592,338.571Z" transform="translate(-197.385 -142.003)" fill="#693523"/>
      <path id="Path_11537" data-name="Path 11537" d="M435.716,372.109a1.41,1.41,0,0,0-.848-1.219,1.526,1.526,0,0,0-.859-.032,3.243,3.243,0,0,0-2.12,1.945q-.085.185-.159.366a2.8,2.8,0,0,0-.233,1.548,1.325,1.325,0,0,0,1.086,1.06.748.748,0,0,0,.154,0l-.032.058a.975.975,0,0,1,.344.042c-.45-.085-.159-.058.08-.042a4.34,4.34,0,0,0,.5-.085l.2-.053.106-.042c.2-.1.408-.186.6-.3h.037a17.01,17.01,0,0,0,.821-1.754,3.328,3.328,0,0,0,.313-1.436Z" transform="translate(-202.802 -174.29)" fill="#ffb288"/>
      <path id="Path_11538" data-name="Path 11538" d="M372.7,339.353a1.643,1.643,0,0,0-.9.148,1.505,1.505,0,0,0-.737,1.4.228.228,0,0,1,0,.053c-6.222-12.232-6.678-22.413-5.332-29.488,1.033-5.427,3.116-9.01,4.473-10.324,3.381-3.222,9.54,3.45,6.89,6.948a2.2,2.2,0,0,0-.148.175c-.069.079-.138.159-.212.233l.154-.154c-.053.069-.1.143-.159.233a29.256,29.256,0,0,0-1.479,2.539c-4.828,9.248-4.388,19.906-.138,29.149a1.314,1.314,0,0,1,.08.88A3.456,3.456,0,0,0,372.7,339.353Z" transform="translate(-171.61 -141.142)" fill="#693523"/>
      <path id="Path_11539" data-name="Path 11539" d="M376.337,375.547a1.505,1.505,0,0,1,.737-1.4,1.643,1.643,0,0,1,.9-.148,3.455,3.455,0,0,1,2.5,1.775c.074.117.148.238.217.366a2.888,2.888,0,0,1,.45,1.59,1.41,1.41,0,0,1-1,1.277.909.909,0,0,1-.164,0l.042.053c-.122.027-.238.053-.36.09.466-.148.159-.079-.09-.032h-.53a.517.517,0,0,1-.217-.032l-.117-.032c-.228-.079-.456-.143-.678-.233h-.037a16.682,16.682,0,0,1-1.108-1.744,3.561,3.561,0,0,1-.53-1.473A.232.232,0,0,0,376.337,375.547Z" transform="translate(-176.885 -175.783)" fill="#ffb288"/>
      <path id="Path_11540" data-name="Path 11540" d="M421.035,467.891l-6.688-2.189c-.329-.111-.731,0-.795.249l-1.06,3.673c-.064.212.2.413.53.413h7.155C422.095,470.037,422.7,468.436,421.035,467.891Z" transform="translate(-193.876 -218.87)" fill="#161616"/>
      <path id="Path_11541" data-name="Path 11541" d="M425.168,366.29H415.1v.27a173.265,173.265,0,0,1,1.489,28.486,124.643,124.643,0,0,1-1.956,20.51c-1.59,7.9,4.68,7.075,5.3,3.6,1.442-8.093,2.565-16.371,3.4-24.114,1.23-11.442,1.818-21.729,1.839-28.486A1.152,1.152,0,0,0,425.168,366.29Z" transform="translate(-194.765 -172.165)" fill="#393836"/>
      <path id="Path_11542" data-name="Path 11542" d="M394.015,467.891l-6.667-2.189c-.329-.111-.731,0-.795.249l-1.06,3.673c-.058.212.2.413.53.413h7.155C395.069,470.037,395.684,468.436,394.015,467.891Z" transform="translate(-181.187 -218.87)" fill="#161616"/>
      <path id="Path_11543" data-name="Path 11543" d="M398.146,366.29h-10.07a.955.955,0,0,0,.027.27,172.738,172.738,0,0,1,1.484,28.486,123.5,123.5,0,0,1-1.956,20.51c-1.59,7.9,4.68,7.075,5.3,3.6,1.442-8.093,2.565-16.371,3.4-24.114,1.224-11.442,1.813-21.729,1.839-28.486C398.162,366.465,398.152,366.38,398.146,366.29Z" transform="translate(-182.075 -172.165)" fill="#393836"/>
      <path id="Path_11544" data-name="Path 11544" d="M383.413,296.19c-1,.085-1.945.186-2.814.291-1.06.133-2,.281-2.782.424-1.924.344-4,.933-5.093,2.555-1.24,1.839-.747,4.3-.2,6.45q4.044,15.9,8.676,31.6l3.408-.079C386.7,323.828,387.409,309.482,383.413,296.19Z" transform="translate(-174.825 -139.216)" fill="#693523"/>
      <path id="Path_11545" data-name="Path 11545" d="M405.653,296.431c-.3-.064-.609-.117-.917-.17A47.86,47.86,0,0,0,393.58,296c4,13.292,3.286,27.638,1.2,41.238l16.18-.376C412.77,323.486,411.711,308.514,405.653,296.431Z" transform="translate(-184.992 -139.028)" fill="#fff"/>
      <path id="Path_11546" data-name="Path 11546" d="M425.052,324.245a36.946,36.946,0,0,1,1.1-12.958,75.554,75.554,0,0,0-1.023-7.626c-.731-3.821-4.335-5.766-8.766-6.651,6.058,12.078,7.118,27.029,5.3,40.427l1.442-.037a2.994,2.994,0,0,0,1.993-.53,2.931,2.931,0,0,0,.843-1.876c.074-.747.1-.53.159-1.267-.3-2.194-.694-5.459-.9-7.653C425.142,325.464,425.089,324.855,425.052,324.245Z" transform="translate(-195.699 -139.602)" fill="#693523"/>
      <path id="Path_11547" data-name="Path 11547" d="M407.14,295.143a4.516,4.516,0,0,0-1.648-1.1,4.653,4.653,0,0,0-3.832.53c.53.588,1.1,1.145,1.669,1.7.382.376.795.853,1.251,1.24a2.951,2.951,0,0,1,.313-.053,2.528,2.528,0,0,0,1.457-.419,5.216,5.216,0,0,0,.79-1.9Z" transform="translate(-188.789 -138.106)" fill="#ffb288"/>
      <path id="Path_11548" data-name="Path 11548" d="M406.472,265.06l-.228-2.12a17.666,17.666,0,0,0-8.639,2.888.339.339,0,0,0-.138.313l.217,2.12c.355,3.4,2.65,5.962,5.151,5.708s4.24-3.243,3.869-6.635Z" transform="translate(-186.818 -123.588)" fill="#393836"/>
      <path id="Path_11549" data-name="Path 11549" d="M399.992,277.276a1.309,1.309,0,1,0,1.192,1.166A1.192,1.192,0,0,0,399.992,277.276Z" transform="translate(-187.339 -130.324)" fill="#ffb288"/>
      <path id="Path_11550" data-name="Path 11550" d="M400.976,271.149c-.238-2.279,1.124-4.309,3.016-4.5a3.1,3.1,0,0,1,2.221.684l-5.225,3.927Z" transform="translate(-188.455 -125.326)" fill="#393836"/>
      <path id="Path_11551" data-name="Path 11551" d="M406.276,268a4.531,4.531,0,0,1,1.659,3.106l.345,3.339c.238,2.284-1.124,4.309-3.016,4.5s-3.641-1.51-3.879-3.795l-.334-3.228Z" transform="translate(-188.503 -125.966)" fill="#ffb288"/>
      <rect id="Rectangle_24783" data-name="Rectangle 24783" width="4.176" height="8.559" rx="1.31" transform="translate(212.75 149.066) rotate(-5.89)" fill="#ffb288"/>
      <path id="Path_11552" data-name="Path 11552" d="M401.29,295s1.632,2.65,3.259,2.957l-.853,2.872s-3.6-1.5-3.365-5.3Z" transform="translate(-188.159 -138.657)" fill="#fff"/>
      <path id="Path_11553" data-name="Path 11553" d="M409.863,295.63a2.838,2.838,0,0,1-1.563,2.623l1.288,2.369a5.893,5.893,0,0,0,1.664-4.494Z" transform="translate(-191.91 -138.953)" fill="#fff"/>
      <path id="Path_11554" data-name="Path 11554" d="M394.47,329.693a18.019,18.019,0,0,0,5.665-4.182,18.824,18.824,0,0,0,3.71-6.19,18.158,18.158,0,0,0,.53-1.76,12.45,12.45,0,0,0,.334-1.8,7.058,7.058,0,0,0,0-1.77,8.1,8.1,0,0,0-.493-1.733c-.472-1.145-1.134-2.252-1.68-3.429a6.45,6.45,0,0,1-.715-3.763,6.217,6.217,0,0,0,1.1,3.567c.647,1.06,1.426,2.12,2.067,3.265a9.082,9.082,0,0,1,.763,1.881,8.369,8.369,0,0,1,.249,2.04,13.955,13.955,0,0,1-.143,2.009,19.491,19.491,0,0,1-.36,1.972,20.812,20.812,0,0,1-9.423,12.884Z" transform="translate(-185.41 -143.39)" fill="#fc6464"/>
      <path id="Path_11555" data-name="Path 11555" d="M112.83,317.2c-2.963-2.65-5.183-4.473-7.361-6.551-3.954-3.768,1.245-10.557,5.231-6.762,2.342,2.231,4.839,4.3,7.255,6.455l.265.233A18.873,18.873,0,0,1,112.83,317.2Z" transform="translate(-48.909 -142.31)" fill="#9d5b45"/>
      <path id="Path_11556" data-name="Path 11556" d="M121.82,317.52c2.019,1.754,4.69,3.641,5.973,5.973,1.781,3.222-9.54,15.465-12.062,18.078-3.773,3.943-5.422.371-2.576-4.346,1.993-3.307,3.477-7.42,5.5-11.066-.795-.731-1.526-1.389-2.226-2.014a18.872,18.872,0,0,0,5.39-6.625Z" transform="translate(-52.509 -149.242)" fill="#9d5b45"/>
      <path id="Path_11557" data-name="Path 11557" d="M109.393,357.734a4.383,4.383,0,0,0-1.261,1.383,20.822,20.822,0,0,0-1.171,2.062v.042a5.305,5.305,0,0,0,.122.779,1.142,1.142,0,0,1,.032.133.642.642,0,0,0,.085.223c.032.074.233.445.26.53.185.207.413.461,0,.106a3.56,3.56,0,0,1,.281.286l.037-.074a.926.926,0,0,0,.1.154,1.59,1.59,0,0,0,1.823.217,3.667,3.667,0,0,0,1.373-1.357,4.153,4.153,0,0,0,.726-3.821,1.69,1.69,0,0,0-.625-.774A1.76,1.76,0,0,0,109.393,357.734Z" transform="translate(-50.274 -168.002)" fill="#ffb288"/>
      <path id="Path_11558" data-name="Path 11558" d="M77.7,467.937l-6.63-2.173c-.323-.106-.721,0-.784.249l-1.06,3.646c-.064.212.2.408.53.408h7.123C78.74,470.067,79.349,468.477,77.7,467.937Z" transform="translate(-32.531 -218.9)" fill="#161616"/>
      <path id="Path_11559" data-name="Path 11559" d="M73.51,374.35c6.635,14.129,7.091,15.035,3.45,26.446-2.157,6.752-4.515,13.249-5.787,20.213-.806,4.4,3.524,7.123,5.491,1.155,5.936-18.019,10.308-24.1,10.292-31.306a53.461,53.461,0,0,0-3-16.509Z" transform="translate(-33.406 -175.953)" fill="#393836"/>
      <path id="Path_11560" data-name="Path 11560" d="M107.277,467.937l-6.625-2.173c-.329-.106-.726,0-.79.249l-1.06,3.646c-.058.212.2.408.53.408h7.1C108.326,470.067,108.936,468.477,107.277,467.937Z" transform="translate(-46.436 -218.9)" fill="#161616"/>
      <path id="Path_11561" data-name="Path 11561" d="M111.358,367.14h-10v.27a170.7,170.7,0,0,1,1.473,28.258,122.948,122.948,0,0,1-1.94,20.351c-1.59,7.833,4.643,7.017,5.257,3.577,1.431-8.034,2.544-16.249,3.371-23.928,1.214-11.352,1.8-21.538,1.823-28.258A.672.672,0,0,0,111.358,367.14Z" transform="translate(-47.299 -172.564)" fill="#393836"/>
      <path id="Path_11562" data-name="Path 11562" d="M69.912,297.6c-.991.079-1.934.18-2.8.291-1.06.127-1.977.276-2.756.413-1.908.35-3.97.933-5.051,2.539-1.235,1.828-.742,4.24-.2,6.4q4.012,15.746,8.607,31.348l3.381-.079C73.187,325.016,73.892,310.786,69.912,297.6Z" transform="translate(-27.513 -139.879)" fill="#9d5b45"/>
      <path id="Path_11563" data-name="Path 11563" d="M91.993,297.844c-.3-.058-.6-.117-.906-.164A47.1,47.1,0,0,0,80,297.415c3.959,13.186,3.254,27.416,1.187,40.909l16.048-.371C99.079,324.682,98.019,309.817,91.993,297.844Z" transform="translate(-37.602 -139.694)" fill="#fff"/>
      <path id="Path_11564" data-name="Path 11564" d="M111.239,325.428a37.087,37.087,0,0,1,1.06-12.852,74.618,74.618,0,0,0-1.012-7.568c-.721-3.789-4.3-5.718-8.7-6.6,6.047,11.972,7.107,26.838,5.284,40.109l1.436-.037a2.968,2.968,0,0,0,1.972-.53,2.92,2.92,0,0,0,.837-1.865c.074-.737.1-.5.159-1.256-.3-2.178-.689-5.416-.89-7.589C111.324,326.642,111.287,326.038,111.239,325.428Z" transform="translate(-48.22 -140.26)" fill="#9d5b45"/>
      <path id="Path_11565" data-name="Path 11565" d="M93.458,296.56A4.108,4.108,0,0,0,88.02,296c.53.578,1.092,1.134,1.659,1.68.376.371.784.848,1.235,1.23a2.03,2.03,0,0,1,.313-.048,2.576,2.576,0,0,0,1.447-.419A5.173,5.173,0,0,0,93.458,296.56Z" transform="translate(-41.371 -138.775)" fill="#ffb288"/>
      <path id="Path_11566" data-name="Path 11566" d="M89.289,267.824a2.072,2.072,0,0,0-2.65-1.473,16.462,16.462,0,0,0-4.982,2.417,2.316,2.316,0,0,0-.832,2.358l.2.88c.747,3.3,3.328,5.559,5.74,5.019s3.784-3.683,3.042-6.985Z" transform="translate(-37.961 -125.144)" fill="#161616"/>
      <path id="Path_11567" data-name="Path 11567" d="M83.891,280.932a1.3,1.3,0,1,0,1.314,1.012A1.177,1.177,0,0,0,83.891,280.932Z" transform="translate(-38.843 -132.04)" fill="#ffb288"/>
      <path id="Path_11568" data-name="Path 11568" d="M84.473,274.584c-.5-2.221.6-4.372,2.443-4.77a3.068,3.068,0,0,1,2.268.419l-4.69,4.473Z" transform="translate(-39.648 -126.789)" fill="#161616"/>
      <path id="Path_11569" data-name="Path 11569" d="M89.329,270.63a4.484,4.484,0,0,1,2,2.862l.731,3.249c.5,2.221-.6,4.378-2.449,4.77s-3.763-1.06-4.24-3.286l-.71-3.143Z" transform="translate(-39.792 -127.202)" fill="#ffb288"/>
      <rect id="Rectangle_24784" data-name="Rectangle 24784" width="4.144" height="8.496" rx="1.3" transform="translate(45.546 150.97) rotate(-12.64)" fill="#ffb288"/>
      <path id="Path_11570" data-name="Path 11570" d="M57.37,385.505l-7.648-.074.032-3.365a.922.922,0,0,0-.917-.933l-5.469-.053H42.213a1.161,1.161,0,0,0-1.171,1.15v3.132l-8.087-.085-.164,18.311,24.411.228ZM42.3,384.657v-1.41a.906.906,0,0,1,.917-.9H44.3l2.9.027h.138a1.123,1.123,0,0,1,1.113,1.129v1.2Z" transform="translate(-15.412 -179.116)" fill="#161616"/>
      <path id="Path_11571" data-name="Path 11571" d="M54.094,303.4c3.758-2.772,9.01,4.616,5.957,7.754-.042.032-.1.09-.17.159a2.977,2.977,0,0,1-.238.2c.069-.048.117-.09.17-.133l-.185.212c-.641.758-1.235,1.542-1.791,2.342l-9.476-.853C50.067,307.829,52.589,304.49,54.094,303.4Z" transform="translate(-22.73 -142.317)" fill="#9d5b45"/>
      <path id="Path_11572" data-name="Path 11572" d="M56.271,323.053c-5.962,8.58-6.847,19.18-3.789,28.878.594,1.887-3.026,3.074-3.71,1.235-5.067-13.414-4.24-23.928-1.966-30.967Z" transform="translate(-21.16 -151.441)" fill="#9d5b45"/>
      <path id="Path_11573" data-name="Path 11573" d="M51.359,377.326a3.567,3.567,0,0,0,.329,1.59,18.163,18.163,0,0,0,.88,1.866H52.6c.212.117.429.207.641.318l.117.042.207.058a4.256,4.256,0,0,1,.53.09c.249,0,.562-.048.079.042.127,0,.249-.032.371-.042l-.037-.064a.885.885,0,0,0,.164,0,1.426,1.426,0,0,0,1.161-1.145,2.963,2.963,0,0,0-.249-1.648,3.689,3.689,0,0,0-2.422-2.459,1.632,1.632,0,0,0-.917.032A1.505,1.505,0,0,0,51.359,377.326Z" transform="translate(-24.139 -176.693)" fill="#ffb288"/>
      <path id="Path_11574" data-name="Path 11574" d="M87.66,296.41s1.622,2.618,3.238,2.941l-.869,2.867s-3.572-1.489-3.339-5.236Z" transform="translate(-40.741 -139.32)" fill="#fff"/>
      <path id="Path_11575" data-name="Path 11575" d="M96.188,297a2.826,2.826,0,0,1-1.548,2.608l1.277,2.348a5.83,5.83,0,0,0,1.648-4.457Z" transform="translate(-44.483 -139.597)" fill="#fff"/>
      <path id="Path_11576" data-name="Path 11576" d="M94.158,325.475a7.229,7.229,0,0,1-1.738-3.429,7.42,7.42,0,0,1,.228-3.71,15.216,15.216,0,0,1,1.442-3.042c.53-.922,1.06-1.791,1.532-2.682a8.48,8.48,0,0,0,.9-2.782,8.914,8.914,0,0,0-.111-2.973,9.1,9.1,0,0,0-3.148-5.167,9.434,9.434,0,0,1,3.858,4.971,9.593,9.593,0,0,1-.127,6.524c-.371,1.06-.837,2.009-1.251,2.947a13.492,13.492,0,0,0-.954,2.766,4.987,4.987,0,0,0,.127,2.512,4.526,4.526,0,0,0,1.32,1.972Z" transform="translate(-43.375 -141.801)" fill="#f7665f"/>
      <path id="Path_11577" data-name="Path 11577" d="M212.691,338.59a1.527,1.527,0,0,1,.88.053,1.41,1.41,0,0,1,.848,1.219.143.143,0,0,1,0,.048c4.356-12.121,3.577-21.66,1.489-28.089-1.59-4.934-3.964-8.045-5.379-9.089-3.53-2.6-8.48,4.335-5.6,7.282a.934.934,0,0,1,.159.148c.074.064.143.127.228.191l-.159-.127.17.2c.6.715,1.161,1.447,1.68,2.194,5.581,8.05,6.429,18.019,3.561,27.119a1.219,1.219,0,0,0,0,.827A3.254,3.254,0,0,1,212.691,338.59Z" transform="translate(-95.916 -142.022)" fill="#161616"/>
      <path id="Path_11578" data-name="Path 11578" d="M219.815,372.128a1.41,1.41,0,0,0-.827-1.2,1.526,1.526,0,0,0-.859-.032,3.254,3.254,0,0,0-2.12,1.945q-.085.185-.159.366a2.8,2.8,0,0,0-.233,1.548,1.325,1.325,0,0,0,1.06,1.06.727.727,0,0,0,.154,0l-.032.058a.963.963,0,0,1,.344.042c-.45-.085-.159-.058.079-.042a4.341,4.341,0,0,0,.5-.085l.2-.053.111-.042c.2-.1.4-.185.6-.3h.037a17.054,17.054,0,0,0,.827-1.754,3.4,3.4,0,0,0,.307-1.436A.143.143,0,0,0,219.815,372.128Z" transform="translate(-101.334 -174.309)" fill="#ffb288"/>
      <path id="Path_11579" data-name="Path 11579" d="M156.786,339.353a1.643,1.643,0,0,0-.9.148,1.5,1.5,0,0,0-.731,1.4s0,.037,0,.053c-6.222-12.232-6.672-22.413-5.332-29.488,1.06-5.427,3.116-9.01,4.473-10.324,3.381-3.222,9.54,3.45,6.89,6.948a2.2,2.2,0,0,0-.148.175,2.907,2.907,0,0,1-.212.233l.154-.154-.159.233a29.244,29.244,0,0,0-1.479,2.539c-4.823,9.248-4.388,19.906-.138,29.149a1.283,1.283,0,0,1,.079.88A3.455,3.455,0,0,0,156.786,339.353Z" transform="translate(-70.129 -141.142)" fill="#161616"/>
      <path id="Path_11580" data-name="Path 11580" d="M160.426,375.547a1.5,1.5,0,0,1,.731-1.4,1.643,1.643,0,0,1,.9-.148,3.455,3.455,0,0,1,2.5,1.775,4.157,4.157,0,0,1,.217.366,2.936,2.936,0,0,1,.456,1.59,1.42,1.42,0,0,1-1.007,1.277.864.864,0,0,1-.164,0l.042.053c-.117.027-.238.053-.36.09.466-.148.159-.079-.085-.032h-.53a.528.528,0,0,1-.217-.032l-.117-.032c-.228-.079-.456-.143-.678-.233h-.037a17.608,17.608,0,0,1-1.108-1.744,3.641,3.641,0,0,1-.53-1.473A.14.14,0,0,1,160.426,375.547Z" transform="translate(-75.402 -175.783)" fill="#ffb288"/>
      <path id="Path_11581" data-name="Path 11581" d="M205.129,467.891l-6.683-2.189c-.329-.111-.726,0-.795.249l-1.06,3.673c-.064.212.2.413.53.413h7.155C206.184,470.037,206.8,468.436,205.129,467.891Z" transform="translate(-92.398 -218.87)" fill="#161616"/>
      <path id="Path_11582" data-name="Path 11582" d="M209.266,366.29H199.2a2.455,2.455,0,0,0,.026.27,172.739,172.739,0,0,1,1.484,28.486,124.068,124.068,0,0,1-1.956,20.51c-1.59,7.9,4.68,7.075,5.3,3.6,1.442-8.093,2.565-16.371,3.4-24.114,1.23-11.442,1.818-21.729,1.839-28.486C209.282,366.465,209.272,366.38,209.266,366.29Z" transform="translate(-93.297 -172.165)" fill="#393836"/>
      <path id="Path_11583" data-name="Path 11583" d="M178.085,467.891l-6.678-2.189c-.329-.111-.731,0-.795.249l-1.06,3.673c-.058.212.2.413.53.413h7.155C179.14,470.037,179.755,468.436,178.085,467.891Z" transform="translate(-79.69 -218.87)" fill="#161616"/>
      <path id="Path_11584" data-name="Path 11584" d="M182.208,366.29h-10.07v.27a172.74,172.74,0,0,1,1.484,28.486,124.1,124.1,0,0,1-1.95,20.51c-1.59,7.9,4.68,7.075,5.3,3.6,1.442-8.093,2.565-16.371,3.4-24.114,1.23-11.442,1.818-21.729,1.839-28.486A1.153,1.153,0,0,0,182.208,366.29Z" transform="translate(-80.569 -172.165)" fill="#393836"/>
      <path id="Path_11585" data-name="Path 11585" d="M167.5,296.19c-1,.085-1.95.186-2.819.291-1.06.133-2,.281-2.782.424-1.924.344-4,.933-5.093,2.555-1.24,1.839-.742,4.3-.2,6.45q4.044,15.9,8.676,31.6l3.408-.079C170.78,323.828,171.491,309.482,167.5,296.19Z" transform="translate(-73.339 -139.216)" fill="#161616"/>
      <path id="Path_11586" data-name="Path 11586" d="M189.756,296.432c-.3-.064-.609-.117-.917-.17A47.822,47.822,0,0,0,177.71,296c3.991,13.292,3.281,27.638,1.192,41.238l16.18-.376C196.874,323.487,195.814,308.515,189.756,296.432Z" transform="translate(-83.528 -139.029)" fill="#fff"/>
      <path id="Path_11587" data-name="Path 11587" d="M209.146,324.245a36.819,36.819,0,0,1,1.092-12.958,75.561,75.561,0,0,0-1.012-7.626c-.731-3.821-4.335-5.766-8.766-6.651,6.058,12.078,7.118,27.029,5.3,40.427l1.442-.037a2.994,2.994,0,0,0,1.993-.53,2.93,2.93,0,0,0,.843-1.876c.074-.747.1-.53.159-1.267-.3-2.194-.689-5.459-.9-7.653C209.226,325.464,209.178,324.855,209.146,324.245Z" transform="translate(-94.221 -139.602)" fill="#161616"/>
      <path id="Path_11588" data-name="Path 11588" d="M191.19,295.143a4.542,4.542,0,0,0-1.643-1.1,4.668,4.668,0,0,0-3.837.53c.53.588,1.1,1.145,1.669,1.7.387.376.795.853,1.251,1.24a2.969,2.969,0,0,1,.313-.053,2.528,2.528,0,0,0,1.457-.419A5.214,5.214,0,0,0,191.19,295.143Z" transform="translate(-87.288 -138.106)" fill="#ffb288"/>
      <path id="Path_11589" data-name="Path 11589" d="M190.516,265.06l-.223-2.12a17.666,17.666,0,0,0-8.639,2.888.329.329,0,0,0-.138.313l.217,2.12c.35,3.392,2.65,5.957,5.146,5.7s4.24-3.243,3.874-6.635Z" transform="translate(-85.316 -123.588)" fill="#9d5b45"/>
      <path id="Path_11590" data-name="Path 11590" d="M184.042,277.276a1.309,1.309,0,1,0,1.192,1.171,1.192,1.192,0,0,0-1.192-1.171Z" transform="translate(-85.837 -130.324)" fill="#ffb288"/>
      <path id="Path_11591" data-name="Path 11591" d="M185.056,271.155c-.239-2.284,1.124-4.309,3.016-4.5a3.079,3.079,0,0,1,2.242.71l-5.22,3.922Z" transform="translate(-86.968 -125.326)" fill="#9d5b45"/>
      <path id="Path_11592" data-name="Path 11592" d="M190.37,268a4.494,4.494,0,0,1,1.664,3.1l.344,3.339c.233,2.284-1.124,4.309-3.021,4.5s-3.636-1.51-3.874-3.789l-.334-3.233Z" transform="translate(-87.025 -125.966)" fill="#ffb288"/>
      <rect id="Rectangle_24785" data-name="Rectangle 24785" width="4.176" height="8.559" rx="1.31" transform="translate(98.322 149.059) rotate(-5.89)" fill="#ffb288"/>
      <path id="Path_11593" data-name="Path 11593" d="M185.374,295s1.632,2.65,3.259,2.957l-.853,2.872s-3.6-1.5-3.36-5.3Z" transform="translate(-86.676 -138.657)" fill="#fff"/>
      <path id="Path_11594" data-name="Path 11594" d="M193.92,295.63a2.828,2.828,0,0,1-1.59,2.623l1.288,2.369a5.872,5.872,0,0,0,1.664-4.494Z" transform="translate(-90.4 -138.953)" fill="#fff"/>
      <path id="Path_11595" data-name="Path 11595" d="M178.55,329.693a18.018,18.018,0,0,0,5.665-4.182,18.824,18.824,0,0,0,3.71-6.19,18.158,18.158,0,0,0,.53-1.76,12.447,12.447,0,0,0,.334-1.8,7.058,7.058,0,0,0,0-1.77,8.1,8.1,0,0,0-.493-1.733c-.472-1.145-1.134-2.252-1.675-3.429a6.455,6.455,0,0,1-.721-3.763,6.3,6.3,0,0,0,1.1,3.567c.647,1.06,1.431,2.12,2.067,3.265a8.813,8.813,0,0,1,.768,1.881,8.107,8.107,0,0,1,.244,2.04,13.249,13.249,0,0,1-.143,2.009c-.08.662-.212,1.314-.355,1.972a20.85,20.85,0,0,1-9.428,12.884Z" transform="translate(-83.923 -143.39)" fill="#fc6464"/>
      <path id="Path_11596" data-name="Path 11596" d="M295.458,429.456l-3-6.964c-.148-.344-.53-.562-.79-.435L287.8,424.1c-.228.117-.207.477.042.747l5.2,5.639C294.408,431.957,296.2,431.194,295.458,429.456Z" transform="translate(-135.198 -198.359)" fill="#161616"/>
      <path id="Path_11597" data-name="Path 11597" d="M269.932,424.988l3.323-6.815c.164-.334.572-.53.811-.392L277.818,420c.223.127.18.482-.079.742l-5.453,5.385C270.865,427.543,269.105,426.695,269.932,424.988Z" transform="translate(-126.774 -196.346)" fill="#161616"/>
      <path id="Path_11598" data-name="Path 11598" d="M301.179,307h-10.8v.313a212.394,212.394,0,0,1,1.59,32.763,150.153,150.153,0,0,1-2.12,23.595c-1.712,9.084,5.019,8.14,5.681,4.144,1.542-9.312,2.745-18.83,3.636-27.739,1.32-13.159,1.95-24.973,1.972-32.763A.637.637,0,0,0,301.179,307Z" transform="translate(-136.107 -144.297)" fill="#393836"/>
      <path id="Path_11599" data-name="Path 11599" d="M261.294,307h10.8a1.27,1.27,0,0,1-.026.313,212.358,212.358,0,0,0-1.59,32.763,150.275,150.275,0,0,0,2.12,23.595c1.712,9.084-5.019,8.135-5.676,4.144-1.548-9.312-2.751-18.835-3.641-27.739-1.32-13.159-1.95-24.973-1.972-32.763A1.078,1.078,0,0,1,261.294,307Z" transform="translate(-122.811 -144.297)" fill="#393836"/>
      <path id="Path_11600" data-name="Path 11600" d="M256.462,226.33c-1.06.1-2.088.207-3.021.334-1.124.154-2.12.318-2.978.482-2.062.4-4.293,1.06-5.459,2.941-1.33,2.12-.8,4.945-.212,7.42q4.341,18.263,9.3,36.341l3.652-.09C259.981,258.113,260.744,241.62,256.462,226.33Z" transform="translate(-114.767 -106.38)" fill="#2d3a4b"/>
      <path id="Path_11601" data-name="Path 11601" d="M280.3,226.61c-.323-.069-.652-.132-.98-.191a47.768,47.768,0,0,0-11.956-.3c4.282,15.29,3.519,31.8,1.283,47.428l17.336-.435C287.923,257.741,286.778,240.506,280.3,226.61Z" transform="translate(-125.665 -106.168)" fill="#d3e9ef"/>
      <path id="Path_11602" data-name="Path 11602" d="M301.087,258.587c-.318-5-.4-12.979.927-17.9a40.51,40.51,0,0,0-.848-5.777c-.784-4.393-4.648-6.63-9.4-7.653,6.482,13.9,7.626,31.131,5.681,46.5l1.553-.037a2.9,2.9,0,0,0,2.12-.609,3.455,3.455,0,0,0,.9-2.162c.085-.859.106-.583.175-1.457-.323-2.523-.742-6.275-.965-8.8C301.177,259.981,301.124,259.292,301.087,258.587Z" transform="translate(-137.139 -106.817)" fill="#2d3a4b"/>
      <path id="Path_11603" data-name="Path 11603" d="M281.862,225.125a4.892,4.892,0,0,0-1.765-1.261,4.689,4.689,0,0,0-4.107.631c.567.673,1.177,1.314,1.786,1.95.408.429.853.98,1.336,1.426a2.385,2.385,0,0,1,.339-.058,2.576,2.576,0,0,0,1.59-.488A6.391,6.391,0,0,0,281.862,225.125Z" transform="translate(-129.722 -105.107)" fill="#ffb288"/>
      <path id="Path_11604" data-name="Path 11604" d="M283.6,194.459a2.348,2.348,0,0,0-2.2-2.618,16.8,16.8,0,0,0-5.936.768,2.65,2.65,0,0,0-1.685,2.274l-.106,1.06c-.408,3.9,1.436,7.351,4.091,7.669s5.162-2.613,5.565-6.513Z" transform="translate(-128.605 -90.16)" fill="#693523"/>
      <path id="Path_11605" data-name="Path 11605" d="M275.114,205.194c-.631-.079-1.208.53-1.293,1.33a1.182,1.182,0,1,0,1.293-1.33Z" transform="translate(-128.697 -96.443)" fill="#ffb288"/>
      <path id="Path_11606" data-name="Path 11606" d="M289.454,205.694c-.631-.079-1.208.53-1.293,1.33a1.179,1.179,0,1,0,1.293-1.33Z" transform="translate(-135.437 -96.678)" fill="#ffb288"/>
      <path id="Path_11607" data-name="Path 11607" d="M276.515,198.9c.276-2.618,2.157-4.563,4.187-4.325a3.313,3.313,0,0,1,2.168,1.314l-6.36,3.137Z" transform="translate(-129.966 -91.444)" fill="#693523"/>
      <path id="Path_11608" data-name="Path 11608" d="M282.5,197.07a5.448,5.448,0,0,1,1.028,3.9l-.4,3.837c-.276,2.65-2.157,4.568-4.187,4.325s-3.471-2.586-3.18-5.2l.387-3.71Z" transform="translate(-129.599 -92.627)" fill="#ffb288"/>
      <path id="Path_11609" data-name="Path 11609" d="M277.624,219l2.968.355a.758.758,0,0,0,.821-.71l.88-8.193a.79.79,0,0,0-.657-.885l-2.963-.355a.768.768,0,0,0-.827.7l-.853,8.193a.8.8,0,0,0,.631.89Z" transform="translate(-130.19 -98.331)" fill="#ffb288"/>
      <path id="Path_11610" data-name="Path 11610" d="M275.618,225s1.749,3.037,3.493,3.408l-.917,3.323a6.424,6.424,0,0,1-3.6-6.074Z" transform="translate(-129.058 -105.755)" fill="#d3e9ef"/>
      <path id="Path_11611" data-name="Path 11611" d="M284.8,225.68s.058,2.284-1.675,3.021l1.383,2.724a7.011,7.011,0,0,0,1.781-5.167Z" transform="translate(-133.078 -106.075)" fill="#d3e9ef"/>
      <path id="Path_11612" data-name="Path 11612" d="M237.488,246.646c2.819-3.471,4.95-5.909,7.012-8.623,3.71-4.908-2.793-11.956-6.556-7-2.21,2.9-4.605,5.66-6.89,8.48l-.254.307A21.2,21.2,0,0,0,237.488,246.646Z" transform="translate(-108.481 -107.792)" fill="#2d3a4b"/>
      <path id="Path_11613" data-name="Path 11613" d="M225.711,249.07c-1.929,2.316-4.537,4.881-5.6,7.748-1.463,3.97,12.407,16.376,15.454,19.016,4.6,3.98,5.877-.371,2.173-5.374-2.6-3.514-4.77-8-7.42-11.919.753-.959,1.447-1.818,2.12-2.65A21.2,21.2,0,0,1,225.711,249.07Z" transform="translate(-103.408 -117.069)" fill="#2d3a4b"/>
      <path id="Path_11614" data-name="Path 11614" d="M254.7,292.628a4.865,4.865,0,0,1,1.542,1.4,24.426,24.426,0,0,1,1.542,2.2v.965a1.059,1.059,0,0,0,0,.154,1.235,1.235,0,0,1-.058.27c-.021.09-.191.53-.212.652-.164.265-.376.583,0,.117a3.412,3.412,0,0,0-.26.376l-.048-.079a1.2,1.2,0,0,1-.09.185,1.659,1.659,0,0,1-1.924.53,3.953,3.953,0,0,1-1.664-1.357,5.064,5.064,0,0,1-1.309-4.288,2.019,2.019,0,0,1,.572-.98,1.8,1.8,0,0,1,1.908-.148Z" transform="translate(-118.495 -137.445)" fill="#ffb288"/>
      <path id="Path_11615" data-name="Path 11615" d="M268.3,264.882a19.524,19.524,0,0,0,6.079-4.812,22.089,22.089,0,0,0,4-7.118c.207-.663.413-1.336.562-2.025a15.555,15.555,0,0,0,.36-2.062,9.372,9.372,0,0,0,0-2.04,10.071,10.071,0,0,0-.53-1.993c-.5-1.32-1.219-2.592-1.8-3.948a7.9,7.9,0,0,1-.774-4.325,7.6,7.6,0,0,0,1.177,4.1c.694,1.245,1.532,2.417,2.215,3.752a10.91,10.91,0,0,1,.821,2.168,10.393,10.393,0,0,1,.265,2.348,16.654,16.654,0,0,1-.154,2.311c-.085.758-.228,1.51-.382,2.263a24.872,24.872,0,0,1-3.62,8.405,23.14,23.14,0,0,1-6.482,6.418Z" transform="translate(-126.107 -111.189)" fill="#fc6464"/>
      <path id="Path_11616" data-name="Path 11616" d="M311.068,245.093c-3.18-3.058-5.6-5.188-7.95-7.595-4.272-4.367,1.346-12.242,5.655-7.838,2.528,2.581,5.226,4.987,7.833,7.483l.291.27A21.729,21.729,0,0,1,311.068,245.093Z" transform="translate(-141.756 -107.336)" fill="#2d3a4b"/>
      <path id="Path_11617" data-name="Path 11617" d="M320.777,245.44c2.178,2.03,5.061,4.24,6.45,6.922,1.919,3.736-10.329,17.929-13.032,20.961-4.076,4.568-5.856.429-2.782-5.035,2.152-3.837,3.752-8.586,5.946-12.836-.864-.848-1.648-1.59-2.406-2.332A21.729,21.729,0,0,0,320.777,245.44Z" transform="translate(-145.641 -115.362)" fill="#2d3a4b"/>
      <path id="Path_11618" data-name="Path 11618" d="M307.347,292.054a4.945,4.945,0,0,0-1.362,1.59,24.467,24.467,0,0,0-1.267,2.39.152.152,0,0,0,0,.048c.026.307.085.6.127.906,0,.069,0,.111.037.148a1.238,1.238,0,0,1,.085.26c.032.085.254.53.286.615.2.244.445.53,0,.122a4.4,4.4,0,0,1,.3.334.411.411,0,0,0,.037-.085,1.214,1.214,0,0,0,.111.175,1.638,1.638,0,0,0,1.966.249,4.107,4.107,0,0,0,1.484-1.59,5.107,5.107,0,0,0,.784-4.431,1.95,1.95,0,0,0-.678-.9A1.786,1.786,0,0,0,307.347,292.054Z" transform="translate(-143.224 -137.099)" fill="#ffb288"/>
      <path id="Path_11619" data-name="Path 11619" d="M291.77,227.227s7.006-.344,11.363,1.06l-3.249,5.644Z" transform="translate(-137.139 -106.784)" fill="#2d3a4b"/>
      <path id="Path_11620" data-name="Path 11620" d="M248.68,228.622l4.367-.912-1.744,2.565Z" transform="translate(-116.885 -107.029)" fill="#2d3a4b"/>
      <path id="Path_11621" data-name="Path 11621" d="M266.2,83.754l-1.834-1.166c1.383-2.369,3.922-5.236,9.958-2.793,2.952,1.192,7.732.53,10.138-2.417,2.544-3.1,3.848-8.231,2.968-11.7-.832-3.291-4.388-5.877-7.25-7.95-.472-.339-.922-.673-1.351-.991a9.148,9.148,0,0,1-2.507-2.581,5.024,5.024,0,0,1-.451-4.335l1.982.859a2.7,2.7,0,0,0,.3,2.258A7.155,7.155,0,0,0,280.1,54.86c.419.313.864.636,1.325.97,3.143,2.29,7.059,5.141,8.093,9.222,1.06,4.192-.413,10.112-3.429,13.779-3.106,3.773-8.935,4.531-12.555,3.063C269.087,80.124,267.38,81.714,266.2,83.754Z" transform="translate(-124.26 -23.417)" fill="#0a0a0a"/>
      <rect id="Rectangle_24786" data-name="Rectangle 24786" width="20.091" height="27.596" rx="4.25" transform="translate(137.344 10.923)" fill="#426166"/>
      <rect id="Rectangle_24787" data-name="Rectangle 24787" width="7.589" height="15.385" rx="2.97" transform="translate(143.82 60.815)" fill="#0a0a0a"/>
      <rect id="Rectangle_24788" data-name="Rectangle 24788" width="7.584" height="16.419" rx="3.54" transform="translate(155.882 46.49) rotate(90)" fill="#0a0a0a"/>
      <path id="Path_11622" data-name="Path 11622" d="M244.291,136.978l-11.039,14.94a2.814,2.814,0,0,0,1.267,4.3l2.454.933a2.327,2.327,0,0,0,2.994-1.341l6.672-17.548a1.357,1.357,0,0,0-2.348-1.288Z" transform="translate(-109.375 -64.138)" fill="#fff"/>
      <path id="Path_11623" data-name="Path 11623" d="M234.772,193.539l-8.586-24.787a3.975,3.975,0,0,1,3.519-5.268l4.309-.26a2.65,2.65,0,0,1,2.83,2.5l1.648,27.055a1.913,1.913,0,0,1-3.72.758Z" transform="translate(-106.21 -76.716)" fill="#e0e0e0"/>
      <path id="Path_11624" data-name="Path 11624" d="M228.748,173.021a4.5,4.5,0,1,0,1.373-6.2,4.5,4.5,0,0,0-1.373,6.2Zm5.157,0a.88.88,0,0,0-.339-.313.864.864,0,0,0-1.155.387.828.828,0,0,0-.079.276,2.782,2.782,0,0,1-.811-.185.843.843,0,0,0-1.113-.8,2.778,2.778,0,0,1-.53-1.012h.032a.848.848,0,0,0-.053-1.457,2.845,2.845,0,0,1,.45-.938.853.853,0,0,0,.975-.827,2.893,2.893,0,0,1,.933-.281.832.832,0,0,0,.132.344.848.848,0,0,0,1.463-.058,2.65,2.65,0,0,1,.721.53.942.942,0,0,0-.09.143.864.864,0,0,0,.827,1.24,2.269,2.269,0,0,1,.053.387,2.459,2.459,0,0,1,0,.53.859.859,0,0,0-.6,1.394A2.91,2.91,0,0,1,233.9,173.021Z" transform="translate(-107.187 -78.076)" fill="#426166"/>
      <path id="Path_11625" data-name="Path 11625" d="M235.17,174.269a.864.864,0,0,0-1.155.387.827.827,0,0,0-.079.276,2.782,2.782,0,0,1-.811-.185.843.843,0,0,0-1.113-.8,2.777,2.777,0,0,1-.53-1.012h.032a.848.848,0,0,0-.053-1.457,2.846,2.846,0,0,1,.45-.938.853.853,0,0,0,.975-.827,2.894,2.894,0,0,1,.933-.281.832.832,0,0,0,.132.344.848.848,0,0,0,1.463-.058,2.65,2.65,0,0,1,.721.53.943.943,0,0,0-.09.143.864.864,0,0,0,.827,1.24,2.274,2.274,0,0,1,.053.387,2.464,2.464,0,0,1,0,.53.859.859,0,0,0-.6,1.394,2.91,2.91,0,0,1-.79.668A.88.88,0,0,0,235.17,174.269Z" transform="translate(-108.792 -79.636)" fill="#fff"/>
      <path id="Path_11626" data-name="Path 11626" d="M242.31,220.9a1.956,1.956,0,0,0,1.378-2.4l-3.1-11.336a1.957,1.957,0,0,0-3.779,1.023l3.079,11.341a1.956,1.956,0,0,0,2.422,1.373Z" transform="translate(-111.274 -96.694)" fill="#fff"/>
      <path id="Path_11627" data-name="Path 11627" d="M300.275,136.679l11.034,14.94a2.809,2.809,0,0,1-1.267,4.3l-2.454.938a2.327,2.327,0,0,1-2.994-1.346l-6.656-17.542a1.357,1.357,0,0,1,2.337-1.288Z" transform="translate(-140.005 -64.008)" fill="#fff"/>
      <path id="Path_11628" data-name="Path 11628" d="M311.114,193.214l8.586-24.782a3.975,3.975,0,0,0-3.493-5.268l-4.309-.26a2.65,2.65,0,0,0-2.825,2.5l-1.654,27.071a1.913,1.913,0,0,0,3.694.737Z" transform="translate(-144.494 -76.566)" fill="#e0e0e0"/>
      <path id="Path_11629" data-name="Path 11629" d="M318.867,166.492a4.494,4.494,0,1,0,1.367,6.206A4.494,4.494,0,0,0,318.867,166.492Zm-4.579,5.538a.857.857,0,0,0-.6-1.394,2.868,2.868,0,0,1,0-.53,3.189,3.189,0,0,1,.058-.392.816.816,0,0,0,.44-.085.859.859,0,0,0,.387-1.15.673.673,0,0,0-.1-.143,2.815,2.815,0,0,1,.721-.53.832.832,0,0,0,.276.3.864.864,0,0,0,1.192-.244.826.826,0,0,0,.127-.344,2.766,2.766,0,0,1,.933.281.853.853,0,0,0,.387.694.837.837,0,0,0,.588.132,2.7,2.7,0,0,1,.451.938.87.87,0,0,0-.292.265.859.859,0,0,0,.244,1.192h.032a2.783,2.783,0,0,1-.53,1.012.859.859,0,0,0-1.113.806,2.745,2.745,0,0,1-.806.186.833.833,0,0,0-.085-.276.859.859,0,0,0-1.495-.074,2.91,2.91,0,0,1-.811-.647Z" transform="translate(-146.625 -77.922)" fill="#426166"/>
      <path id="Path_11630" data-name="Path 11630" d="M316.944,173.944a.853.853,0,0,1,1.15.387.833.833,0,0,1,.085.276,2.744,2.744,0,0,0,.806-.185.859.859,0,0,1,1.113-.806,2.782,2.782,0,0,0,.53-1.012H320.6a.859.859,0,0,1-.244-1.192.869.869,0,0,1,.291-.265,2.7,2.7,0,0,0-.451-.938.837.837,0,0,1-.588-.133.853.853,0,0,1-.387-.694,2.766,2.766,0,0,0-.933-.281.827.827,0,0,1-.127.344.864.864,0,0,1-1.192.244.832.832,0,0,1-.276-.3,2.815,2.815,0,0,0-.721.53.673.673,0,0,1,.1.143.859.859,0,0,1-.387,1.15.816.816,0,0,1-.44.085,3.183,3.183,0,0,0-.058.392,2.857,2.857,0,0,0,0,.53.857.857,0,0,1,.6,1.394,2.909,2.909,0,0,0,.79.668A.853.853,0,0,1,316.944,173.944Z" transform="translate(-148.136 -79.481)" fill="#fff"/>
      <path id="Path_11631" data-name="Path 11631" d="M308.439,220.579a1.966,1.966,0,0,1-1.378-2.4l3.079-11.341a1.961,1.961,0,1,1,3.784,1.028L310.845,219.2a1.972,1.972,0,0,1-2.406,1.378Z" transform="translate(-144.295 -96.538)" fill="#fff"/>
      <path id="Path_11632" data-name="Path 11632" d="M260.586,120.015a3.312,3.312,0,0,0,3.3-3.307v-3.461c-3.493-.811-5.8,3.249-5.369,6.307a3.281,3.281,0,0,0,1.675.461Zm-.827-2.4a1.431,1.431,0,1,1,.6.916,1.431,1.431,0,0,1-.6-.916Z" transform="translate(-121.483 -53.179)" fill="#e0e0e0"/>
      <path id="Path_11633" data-name="Path 11633" d="M263.648,120.134a.88.88,0,1,0-.124.679.885.885,0,0,0,.124-.679Z" transform="translate(-123.098 -56.139)" fill="#cf4d00"/>
      <path id="Path_11634" data-name="Path 11634" d="M262.438,99.244l-.032-12.6a3.312,3.312,0,0,0-3.312-3.291h-.636L258.59,95.5l-3.18.048v7.16a3.3,3.3,0,0,0,1.638,2.83C256.634,102.493,258.945,98.433,262.438,99.244Z" transform="translate(-120.049 -39.176)" fill="#fff"/>
      <path id="Path_11635" data-name="Path 11635" d="M258.443,83.37a3.312,3.312,0,0,0-3.063,3.3v8.9l3.18-.048Z" transform="translate(-120.034 -39.186)" fill="#e0e0e0"/>
      <path id="Path_11636" data-name="Path 11636" d="M263.705,119.524a1.431,1.431,0,1,0-1.134,1.68A1.431,1.431,0,0,0,263.705,119.524Zm-2.279.44a.88.88,0,1,1,.379.579.885.885,0,0,1-.379-.579Z" transform="translate(-122.615 -55.636)" fill="#ffde4a"/>
      <path id="Path_11637" data-name="Path 11637" d="M292.574,120.015a3.3,3.3,0,0,0,1.68-.461c.429-3.058-1.881-7.118-5.374-6.307v3.461a3.318,3.318,0,0,0,3.3,3.307Zm-1.256-1.267a1.431,1.431,0,1,1,1.075-.218A1.431,1.431,0,0,1,291.318,118.748Z" transform="translate(-135.78 -53.179)" fill="#e0e0e0"/>
      <path id="Path_11638" data-name="Path 11638" d="M292.331,120.134a.88.88,0,1,1,.124.679A.885.885,0,0,1,292.331,120.134Z" transform="translate(-137.392 -56.139)" fill="#cf4d00"/>
      <path id="Path_11639" data-name="Path 11639" d="M288.88,99.244l.032-12.6a3.312,3.312,0,0,1,3.312-3.291h.657L292.749,95.5l3.18.048v7.16a3.3,3.3,0,0,1-1.632,2.83C294.683,102.493,292.373,98.433,288.88,99.244Z" transform="translate(-135.78 -39.176)" fill="#fff"/>
      <path id="Path_11640" data-name="Path 11640" d="M296.268,83.37a3.323,3.323,0,0,1,3.069,3.3l-.027,8.9-3.18-.048Z" transform="translate(-139.188 -39.186)" fill="#e0e0e0"/>
      <path id="Path_11641" data-name="Path 11641" d="M292.451,121.2a1.431,1.431,0,1,0-1.134-1.68,1.431,1.431,0,0,0,1.134,1.68Zm.1-.53a.886.886,0,0,1,.339-1.738.874.874,0,0,1,.7,1.033.885.885,0,0,1-1.039.7Z" transform="translate(-136.913 -55.636)" fill="#ffde4a"/>
      <rect id="Rectangle_24789" data-name="Rectangle 24789" width="4.15" height="30.283" rx="1.95" transform="translate(145.489 34.496)" fill="#426166"/>
      <path id="Path_11642" data-name="Path 11642" d="M269.453,53.163V69.328a2.321,2.321,0,0,0,2.327,2.327h2.592a2.327,2.327,0,0,0,2.327-2.327V53.116a5.787,5.787,0,1,0-7.245.048Z" transform="translate(-125.618 -20.135)" fill="#fff"/>
      <path id="Path_11643" data-name="Path 11643" d="M276.376,53.73a4.468,4.468,0,1,0-3.4.366,4.468,4.468,0,0,0,3.4-.366Zm-4.659-5.067a.837.837,0,0,0,.281.064.848.848,0,0,0,.779-1.267,2.788,2.788,0,0,1,.959-.366.853.853,0,0,0,1.505.143,2.74,2.74,0,0,1,.466.233,2.854,2.854,0,0,1,.313.238.874.874,0,0,0-.138.424.859.859,0,0,0,.821.885.885.885,0,0,0,.17,0,2.7,2.7,0,0,1,.117.874.879.879,0,0,0-.318.1.853.853,0,0,0-.36,1.15.865.865,0,0,0,.191.244,2.724,2.724,0,0,1-.7.71.853.853,0,0,0-.784,0,.864.864,0,0,0-.4.45,2.73,2.73,0,0,1-1.06-.053.822.822,0,0,0-.09-.382.859.859,0,0,0-1.155-.36h-.032a2.734,2.734,0,0,1-.625-.954.843.843,0,0,0-.164-1.351,2.7,2.7,0,0,1,.228-.779Z" transform="translate(-126.796 -21.312)" fill="#e0e0e0"/>
      <path id="Path_11644" data-name="Path 11644" d="M273.2,52.379a2.735,2.735,0,0,0,.625.954h.032a.859.859,0,0,1,1.155.36.822.822,0,0,1,.09.382,2.729,2.729,0,0,0,1.06.053.864.864,0,0,1,.4-.45.853.853,0,0,1,.784,0,2.724,2.724,0,0,0,.7-.71.864.864,0,0,1-.191-.244.853.853,0,0,1,.36-1.15.88.88,0,0,1,.318-.1,2.7,2.7,0,0,0-.117-.874.885.885,0,0,1-.17,0,.859.859,0,0,1-.821-.885.874.874,0,0,1,.138-.424,2.856,2.856,0,0,0-.313-.238,2.74,2.74,0,0,0-.466-.233.853.853,0,0,1-1.505-.143,2.787,2.787,0,0,0-.959.366.848.848,0,0,1-.774,1.251.838.838,0,0,1-.281-.064,2.7,2.7,0,0,0-.223.795.843.843,0,0,1,.164,1.351Z" transform="translate(-128.34 -22.881)" fill="#fff"/>
      <path id="Path_11645" data-name="Path 11645" d="M273.55,65.71c0-.291.329-.53.737-.53h3.461c.413,0,.742.249.742.53s-.329.53-.737.53h-3.461C273.884,66.251,273.55,66.007,273.55,65.71Z" transform="translate(-128.575 -30.636)" fill="#e0e0e0"/>
      <path id="Path_11646" data-name="Path 11646" d="M273.55,68.42c0-.3.334-.53.742-.53h3.461c.408,0,.742.249.742.53s-.329.53-.742.53h-3.461C273.884,68.961,273.55,68.717,273.55,68.42Z" transform="translate(-128.575 -31.91)" fill="#e0e0e0"/>
      <path id="Path_11647" data-name="Path 11647" d="M273.56,71.13c0-.3.329-.53.737-.53h3.466c.408,0,.737.244.742.53s-.334.53-.742.53H274.3C273.894,71.671,273.56,71.427,273.56,71.13Z" transform="translate(-128.58 -33.184)" fill="#e0e0e0"/>
      <path id="Path_11648" data-name="Path 11648" d="M273.56,73.84c0-.3.334-.53.742-.53h3.461c.408,0,.742.244.742.53s-.329.53-.737.53H274.3A.657.657,0,0,1,273.56,73.84Z" transform="translate(-128.58 -34.457)" fill="#e0e0e0"/>
      <path id="Path_11649" data-name="Path 11649" d="M273.57,76.53c0-.3.329-.53.742-.53h3.461c.408,0,.742.244.742.53s-.334.53-.742.53h-3.445C273.9,77.06,273.57,76.837,273.57,76.53Z" transform="translate(-128.584 -35.722)" fill="#e0e0e0"/>
      <path id="Path_11650" data-name="Path 11650" d="M273.58,79.26c0-.3.329-.53.737-.53h3.461c.408,0,.742.244.742.53s-.329.53-.737.53h-3.461C273.909,79.8,273.58,79.557,273.58,79.26Z" transform="translate(-128.589 -37.005)" fill="#e0e0e0"/>
      <path id="Path_11651" data-name="Path 11651" d="M264.885,130.438v.281a2.576,2.576,0,0,1-2.528,2.6l-3.97.053-2.782,2.857a2.576,2.576,0,0,1-3.625.048l-.207-.2a2.56,2.56,0,0,1-.048-3.62l4.33-4.452,6.227-.1A2.565,2.565,0,0,1,264.885,130.438Z" transform="translate(-117.976 -60.12)" fill="#e0e0e0"/>
      <path id="Path_11652" data-name="Path 11652" d="M255.768,140.046a1.452,1.452,0,1,0-1.982-.53A1.452,1.452,0,0,0,255.768,140.046Z" transform="translate(-119.193 -64.551)" fill="#fff"/>
      <path id="Path_11653" data-name="Path 11653" d="M255.987,140.046a.9.9,0,1,0-1.224-.334A.9.9,0,0,0,255.987,140.046Z" transform="translate(-119.688 -65.033)" fill="#e0e0e0"/>
      <path id="Path_11654" data-name="Path 11654" d="M280.08,130.438v.281a2.576,2.576,0,0,0,2.528,2.6l3.97.053,2.782,2.857a2.576,2.576,0,0,0,3.625.048l.207-.2a2.565,2.565,0,0,0,.048-3.62l-4.33-4.452-6.227-.1A2.576,2.576,0,0,0,280.08,130.438Z" transform="translate(-131.644 -60.121)" fill="#e0e0e0"/>
      <path id="Path_11655" data-name="Path 11655" d="M298.939,140.048a1.452,1.452,0,1,1,1.987-.53A1.452,1.452,0,0,1,298.939,140.048Z" transform="translate(-140.168 -64.553)" fill="#fff"/>
      <path id="Path_11656" data-name="Path 11656" d="M299.7,140.047a.9.9,0,1,1,1.23-.334.9.9,0,0,1-1.23.334Z" transform="translate(-140.652 -65.035)" fill="#e0e0e0"/>
      <path id="Path_11657" data-name="Path 11657" d="M265.94,125.861l.133-.138a1.744,1.744,0,0,0,0-2.464l-1.924-1.9v-2.708a1.754,1.754,0,0,0-1.76-1.733h-.2a1.754,1.754,0,0,0-1.733,1.76l.032,4.24,3.016,2.978A1.754,1.754,0,0,0,265.94,125.861Z" transform="translate(-122.422 -54.955)" fill="#426166"/>
      <path id="Path_11658" data-name="Path 11658" d="M264.1,119.187a.986.986,0,1,1-.474-.593A.991.991,0,0,1,264.1,119.187Z" transform="translate(-123.219 -55.685)" fill="#fff"/>
      <path id="Path_11659" data-name="Path 11659" d="M264.071,119.611a.609.609,0,1,1-.293-.364A.609.609,0,0,1,264.071,119.611Z" transform="translate(-123.558 -56.014)" fill="#426166"/>
      <path id="Path_11660" data-name="Path 11660" d="M266.487,128.419a1.436,1.436,0,1,0,1.786.975,1.436,1.436,0,0,0-1.786-.975Zm.376,2.263a.276.276,0,0,0-.461-.148.616.616,0,0,1-.132-.106.344.344,0,0,1-.08-.1.254.254,0,0,0,.069-.122.27.27,0,0,0-.2-.334h-.053a.834.834,0,0,1,0-.281.234.234,0,0,0,.106,0,.276.276,0,0,0,.2-.334.243.243,0,0,0-.048-.09.842.842,0,0,1,.27-.175.3.3,0,0,0,.249.053.27.27,0,0,0,.154-.117.779.779,0,0,1,.329.09.351.351,0,0,0,0,.127.276.276,0,0,0,.339.191.678.678,0,0,1,.138.339.26.26,0,0,0-.117.3.244.244,0,0,0,.079.133.994.994,0,0,1-.127.233.244.244,0,0,0-.085-.037.276.276,0,0,0-.334.2.281.281,0,0,0,0,.148A.869.869,0,0,1,266.863,130.682Z" transform="translate(-124.771 -60.332)" fill="#323232"/>
      <path id="Path_11661" data-name="Path 11661" d="M267.689,130.974a.276.276,0,0,1,.334-.2.243.243,0,0,1,.085.037.994.994,0,0,0,.127-.233.244.244,0,0,1-.079-.132.26.26,0,0,1,.117-.3.827.827,0,0,0-.127-.344.276.276,0,0,1-.35-.186.35.35,0,0,1,0-.127.779.779,0,0,0-.329-.09.27.27,0,0,1-.154.117.3.3,0,0,1-.249-.053.843.843,0,0,0-.27.175.244.244,0,0,1,.048.09.276.276,0,0,1-.2.334.234.234,0,0,1-.106,0,.833.833,0,0,0,0,.281h.053a.27.27,0,0,1,.2.334.254.254,0,0,1-.069.122.344.344,0,0,0,.079.1.615.615,0,0,0,.133.106.276.276,0,0,1,.461.148.869.869,0,0,0,.329-.048.281.281,0,0,1-.032-.127Z" transform="translate(-125.274 -60.821)" fill="#426166"/>
      <path id="Path_11662" data-name="Path 11662" d="M286.307,126.241l-.138-.138a1.754,1.754,0,0,1,0-2.47l1.929-1.892v-2.713a1.744,1.744,0,0,1,1.76-1.728h.223a1.749,1.749,0,0,1,1.733,1.76l-.032,4.24-3.01,2.978A1.754,1.754,0,0,1,286.307,126.241Z" transform="translate(-134.267 -55.134)" fill="#426166"/>
      <path id="Path_11663" data-name="Path 11663" d="M291.824,119.568a.986.986,0,1,0,.472-.591A.991.991,0,0,0,291.824,119.568Z" transform="translate(-137.145 -55.865)" fill="#fff"/>
      <path id="Path_11664" data-name="Path 11664" d="M292.519,120.009a.609.609,0,1,0,.758-.419A.62.62,0,0,0,292.519,120.009Z" transform="translate(-137.48 -56.2)" fill="#426166"/>
      <path id="Path_11665" data-name="Path 11665" d="M286.846,129.767a1.436,1.436,0,1,0,.692-.855A1.442,1.442,0,0,0,286.846,129.767Zm1.113,1.23a.281.281,0,0,0,0-.148.27.27,0,0,0-.334-.2.245.245,0,0,0-.085.037.9.9,0,0,1-.122-.233.307.307,0,0,0,.079-.132.281.281,0,0,0-.122-.307.922.922,0,0,1,.132-.339.281.281,0,0,0,.35-.191.259.259,0,0,0,0-.127.912.912,0,0,1,.329-.085.27.27,0,0,0,.154.111.276.276,0,0,0,.249-.048.789.789,0,0,1,.27.175.422.422,0,0,0-.042.085.27.27,0,0,0,.191.339.376.376,0,0,0,.106,0,.833.833,0,0,1,.026.281h-.058a.276.276,0,0,0-.2.334.26.26,0,0,0,.074.122l-.085.1a.835.835,0,0,1-.133.106.27.27,0,0,0-.26-.069.281.281,0,0,0-.2.217.827.827,0,0,1-.323-.027Z" transform="translate(-134.796 -60.51)" fill="#323232"/>
      <path id="Path_11666" data-name="Path 11666" d="M288.483,131.354a.27.27,0,0,0-.334-.2.244.244,0,0,0-.085.037.894.894,0,0,1-.122-.233.308.308,0,0,0,.079-.132.281.281,0,0,0-.122-.307.923.923,0,0,1,.133-.339.281.281,0,0,0,.35-.191.26.26,0,0,0,0-.127.912.912,0,0,1,.329-.085.27.27,0,0,0,.154.111.276.276,0,0,0,.249-.048.79.79,0,0,1,.27.175.422.422,0,0,0-.042.085.27.27,0,0,0,.191.339.376.376,0,0,0,.106,0,.831.831,0,0,1,.026.281h-.058a.276.276,0,0,0-.2.334.26.26,0,0,0,.074.122l-.085.1a.833.833,0,0,1-.132.106.27.27,0,0,0-.26-.069.281.281,0,0,0-.2.217.826.826,0,0,1-.323-.042A.281.281,0,0,0,288.483,131.354Z" transform="translate(-135.32 -61)" fill="#426166"/>
      <rect id="Rectangle_24790" data-name="Rectangle 24790" width="15.571" height="6.19" rx="2" transform="translate(139.633 13.096)" fill="#e0e0e0"/>
      <rect id="Rectangle_24791" data-name="Rectangle 24791" width="5.459" height="10.806" transform="translate(144.392)" fill="#fff"/>
    </g>
  </g>
</svg>
