<svg xmlns="http://www.w3.org/2000/svg" width="281.54" height="224.714" viewBox="0 0 281.54 224.714">
  <g id="Group_13224" data-name="Group 13224" transform="translate(-308 -721)">
    <g id="Group_13118" data-name="Group 13118" transform="translate(13620 14946)">
      <path id="Path_11703" data-name="Path 11703" d="M445.189,160.326l104.131-2.48Q554.275,79.13,559.253.414L432.38,0Q438.789,80.165,445.189,160.326Z" transform="translate(-13680.921 -14225)" fill="#fff"/>
      <path id="Path_11704" data-name="Path 11704" d="M489.75,22.94q.588,5.891,1.181,11.792l69.643,2.823,4.48-14.39Z" transform="translate(-13711.296 -14237.146)" fill="#f5eae6"/>
      <path id="Path_11705" data-name="Path 11705" d="M560.543,70.817l-97.454-3.294-.249-3.873L560.7,67.264Z" transform="translate(-13697.048 -14258.698)" fill="#f5eae6"/>
      <path id="Path_11706" data-name="Path 11706" d="M560.815,88.391,464.26,85.807l-.24-3.8,96.95,2.9Z" transform="translate(-13697.674 -14268.42)" fill="#f5eae6"/>
      <path id="Path_11707" data-name="Path 11707" d="M561.076,105.648l-95.666-1.906-.24-3.722,96.061,2.2Z" transform="translate(-13698.281 -14277.954)" fill="#f5eae6"/>
      <path id="Path_11708" data-name="Path 11708" d="M561.34,122.589l-94.8-1.247-.235-3.652,95.181,1.534Z" transform="translate(-13698.886 -14287.309)" fill="#f5eae6"/>
      <path id="Path_11709" data-name="Path 11709" d="M561.594,139.227l-93.943-.612-.231-3.586,94.32.889Z" transform="translate(-13699.473 -14296.49)" fill="#f5eae6"/>
      <path id="Path_11710" data-name="Path 11710" d="M561.842,155.565H468.736l-.226-3.525,93.478.273Z" transform="translate(-13700.05 -14305.496)" fill="#f5eae6"/>
      <path id="Path_11711" data-name="Path 11711" d="M564.3,172.288H470.4l-.358-3.788h94.47Z" transform="translate(-13700.86 -14314.21)" fill="#f5eae6"/>
      <path id="Path_11712" data-name="Path 11712" d="M564.743,191.17H472.178l-.348-3.68h93.125Z" transform="translate(-13701.808 -14324.265)" fill="#f5eae6"/>
      <path id="Path_11713" data-name="Path 11713" d="M565.179,209.526H473.909l-.339-3.576h91.812Z" transform="translate(-13702.73 -14334.038)" fill="#f5eae6"/>
      <path id="Path_11714" data-name="Path 11714" d="M565.6,227.367H475.589l-.329-3.477H565.8Z" transform="translate(-13703.625 -14343.536)" fill="#f5eae6"/>
      <path id="Path_11715" data-name="Path 11715" d="M566.011,244.723H477.22l-.32-3.383h89.3Z" transform="translate(-13704.492 -14352.773)" fill="#f5eae6"/>
      <path id="Path_11716" data-name="Path 11716" d="M566.411,261.614h-87.6l-.311-3.294h88.094Z" transform="translate(-13705.34 -14361.764)" fill="#f5eae6"/>
      <path id="Path_11717" data-name="Path 11717" d="M566.8,278.059H480.361l-.3-3.209h86.918Z" transform="translate(-13706.166 -14370.516)" fill="#f5eae6"/>
      <path id="Path_11718" data-name="Path 11718" d="M567.175,294.065H481.866l-.3-3.125h85.779Z" transform="translate(-13706.965 -14379.034)" fill="#f5eae6"/>
      <path id="Path_11719" data-name="Path 11719" d="M567.544,309.665H483.337l-.287-3.045h84.669Z" transform="translate(-13707.748 -14387.335)" fill="#f5eae6"/>
      <path id="Path_11783" data-name="Path 11783" d="M573.493,142.326c-.428-.315-.87-.621-1.322-.913a27.64,27.64,0,1,0,1.322.913ZM552.976,186.9a22.672,22.672,0,1,1,16.281-41.452c.471.282.88.584,1.3.894a22.676,22.676,0,0,1-17.613,40.539Z" transform="translate(-13732.336 -14297.513)" fill="#5b5a6e"/>
      <path id="Path_11784" data-name="Path 11784" d="M584.96,174.361a22.676,22.676,0,1,1-18.145-26.446,22.676,22.676,0,0,1,18.145,26.446Z" transform="translate(-13737.892 -14303.106)" fill="#504f66" opacity="0.2"/>
      <path id="Path_11785" data-name="Path 11785" d="M514.3,269.807l4.089-3.572a3.45,3.45,0,0,0,1.515.094,3.666,3.666,0,0,0,2.748-2.353,4.185,4.185,0,0,0-.72-3.727l-8.823,8Z" transform="translate(-13723.663 -14362.786)" fill="#ffdcdc"/>
      <path id="Path_11786" data-name="Path 11786" d="M470.962,275.485l8.056,7.642,11.764-9.487,2.823,2.381h0c-.033.075.254.278.471.423-2.9,3.294-9.04,10.009-13.176,12.173a4.7,4.7,0,0,1-1.04.409c-3.887,1.1-8.207-3.157-9.91-5.011Z" transform="translate(-13700.813 -14369.874)" fill="#504f66"/>
      <path id="Path_11787" data-name="Path 11787" d="M516.9,272.31l1.689,1.685-1.059,1.529c-.711-.631-1.412-1.261-2.136-1.882Z" transform="translate(-13724.87 -14369.171)" fill="#fff"/>
      <path id="Path_11788" data-name="Path 11788" d="M465.1,440.628a13.932,13.932,0,0,0,.085,8.381c.052.151.108.3.165.438a1.553,1.553,0,0,1-3.049-.315,44.037,44.037,0,0,1,.2-11.5C463.363,438.609,464.229,439.611,465.1,440.628Z" transform="translate(-13696.611 -14456.697)" fill="#ffdcdc"/>
      <path id="Path_11789" data-name="Path 11789" d="M461.5,461.41a2.1,2.1,0,0,0,3.026.471,19.762,19.762,0,0,0,4.964,4.075c1.247.715,2.174,1.045,2.127,1.515-.071.734-2.456,1.3-4.489,1.026a7.727,7.727,0,0,1-3.539-1.487c-.127.3-.249.6-.372.894l-2.47-.409a4.555,4.555,0,0,1-.16-1.849,5.353,5.353,0,0,1,.471-1.614A5.709,5.709,0,0,0,461.5,461.41Z" transform="translate(-13695.837 -14469.287)" fill="#504f66"/>
      <path id="Path_11790" data-name="Path 11790" d="M435.459,440.188a13.888,13.888,0,0,0,.089,8.381c.052.146.1.292.16.438a1.553,1.553,0,0,1-3.049-.315,44.037,44.037,0,0,1,.2-11.5Z" transform="translate(-13680.92 -14456.465)" fill="#ffdcdc"/>
      <path id="Path_11791" data-name="Path 11791" d="M431.864,461a2.1,2.1,0,0,0,3.026.471,19.928,19.928,0,0,0,4.964,4.075c1.252.711,2.174,1.045,2.132,1.515-.075.729-2.456,1.3-4.494,1.021a7.675,7.675,0,0,1-3.539-1.487c-.122.3-.249.6-.372.9l-2.466-.409a4.462,4.462,0,0,1-.155-1.849,5.5,5.5,0,0,1,.471-1.614A5.728,5.728,0,0,0,431.864,461Z" transform="translate(-13680.151 -14469.07)" fill="#504f66"/>
      <path id="Path_11792" data-name="Path 11792" d="M444.7,240.91a30.38,30.38,0,0,1-3.294,15.058l8.193,1.341c-1.1-5.647-.061-8.757,1.143-10.564.471-.72,1.143-1.468.988-2.381C451.424,242.425,447.758,241.423,444.7,240.91Z" transform="translate(-13685.702 -14352.546)" fill="#f7baba"/>
      <path id="Path_11793" data-name="Path 11793" d="M455.924,222.315c-1.826-1.623-5.129-1.129-7.148.259-3.261,2.235-4,7.233-2.245,9.774a4.38,4.38,0,0,0,.659.744,4.889,4.889,0,0,0,.348,2.955c.8,1.666,2.4,2.278,4.009,2.823,2.4.814,4.588.781,5.153.1a1.525,1.525,0,0,0,.311-.6c.113-.546-.254-.753-.127-1.172s.725-.593.668-.941c0-.127-.127-.212-.1-.386a.523.523,0,0,1,.132-.259c.282-.339-.687-1.515-.649-2.306.052-1.148,2.24-1.5,2.183-2.315-.038-.569-1.44-.376-1.962-1.266-.471-.8.235-1.6.376-2.979a5.562,5.562,0,0,0-1.609-4.437Z" transform="translate(-13687.926 -14342.163)" fill="#ffdcdc"/>
      <path id="Path_11794" data-name="Path 11794" d="M458.337,330.426c.108.471.273,1.181.471,2.056,1.322,6.32,2.48,15.129,1.327,32a219,219,0,0,1-3.336,24.766l-3.816-.1c-.329-2.282-.866-3.807-1.614-8.216-1.242-7.36-2.4-12.705-2.569-13.816a233.462,233.462,0,0,1-2.734-38.191Z" transform="translate(-13688.16 -14399.143)" fill="#a64747"/>
      <path id="Path_11795" data-name="Path 11795" d="M445.657,323.82l.085.471A62.958,62.958,0,0,1,444,352.826c-.852,2.823-.979,3.4-2.461,8.352-3.228,10.785-5.313,19.538-6.588,25.293l-3.821-.052c-.207-8-.2-16.395.1-25.189.391-11.444,1.224-22.225,2.353-32.276l1.412-4.546Z" transform="translate(-13680.187 -14396.442)" fill="#ae5b5b"/>
      <path id="Path_11796" data-name="Path 11796" d="M432.22,291.7a27.661,27.661,0,0,1,.184,3.924,25.213,25.213,0,0,1-.875,5.506,31.147,31.147,0,0,1,5.854-.061c2.776.24,4.1.969,7.025.871l4.5-.151a49.409,49.409,0,0,1-.471-13.985c.151-1.318.334-2.376.471-4.423.151-2.3.692-10.39-2.028-11.6a7.065,7.065,0,0,0-1.214-.362,8.4,8.4,0,0,0-2.87-.108,9.811,9.811,0,0,1-7.345-.066,18.258,18.258,0,0,0-2.706-.1c-1.981.066-3.219.127-4.235.979a4.014,4.014,0,0,0-1.252,2.033C427.467,274.726,431.509,285.855,432.22,291.7Z" transform="translate(-13678.211 -14368.548)" fill="#504f66"/>
      <path id="Path_11797" data-name="Path 11797" d="M454.539,272.762a2.486,2.486,0,0,1,.344,2.32,4.109,4.109,0,0,1-.574,1.463,2.956,2.956,0,0,1-2.621-2.014,1.981,1.981,0,0,1,.419-1.8A1.882,1.882,0,0,1,454.539,272.762Z" transform="translate(-13691.109 -14369.167)" fill="#e3ee73"/>
      <path id="Path_11798" data-name="Path 11798" d="M456.278,278.6q.565,3.294,1.073,6.724,1.346,9.063,2.169,17.627l-.621,2.165-3.04-1.831c.221-5.4.2-11.19-.16-17.326q-.226-3.7-.579-7.19Z" transform="translate(-13692.961 -14372.501)" fill="#e3ee73"/>
      <path id="Path_11799" data-name="Path 11799" d="M453.954,210.2a4.423,4.423,0,0,1,3.129,3.675,4.139,4.139,0,0,1-2.522,4.235c-2.325.772-4.946-1.793-5.426-1.219s2.353,3.52,1.614,4.5c-.24.32-.645.16-.988.494-.645.635-.2,2.174.419,3.59-.555.2-1.219.358-1.51.052s.023-.725-.08-1.586c0-.179-.226-1.689-1.223-2.028a1.675,1.675,0,0,0-1.327.207,2.207,2.207,0,0,0-.885,1.412,10.988,10.988,0,0,0,.212,4.894,4.734,4.734,0,0,1-2.24-.861c-3.35-2.48-1.548-8.941-1.445-9.331.433-1.492,1.035-3.619,3.073-4.828a5.641,5.641,0,0,1,4.207-.8c1.143.329,1.567,1.04,3.11,1.242.635.085,1.449.207,1.939-.254C454.876,212.783,454.18,210.793,453.954,210.2Z" transform="translate(-13685.541 -14336.288)" fill="#f0c1af"/>
      <path id="Path_11800" data-name="Path 11800" d="M453.009,238.777a.391.391,0,0,0,.419-.381c.033-.941-.344-1.675-.861-1.84a1.115,1.115,0,0,0-.838.132c-.856.522-.687,2.009-.668,2.165.212,1.736,1.943,3.139,2.456,2.866.137-.075.249-.315.165-1.016a.4.4,0,0,0-.527-.32.72.72,0,0,1-.546,0,.969.969,0,0,1-.042-1.487A.7.7,0,0,1,453.009,238.777Z" transform="translate(-13690.798 -14350.225)" fill="#f7baba"/>
      <path id="Path_11801" data-name="Path 11801" d="M449.053,268.743a3.1,3.1,0,0,1,1.642,1.031,3.393,3.393,0,0,1,.536,2.974,22.429,22.429,0,0,0-1.967-1.266,23.026,23.026,0,0,0-2.07-1.04,7.239,7.239,0,0,1-.414,1.44,6.994,6.994,0,0,1-1.586,2.325,6.927,6.927,0,0,1-4.014-4.786l1.214-1.67a11.763,11.763,0,0,1,3.51,1.332,11.53,11.53,0,0,1,1.2.8,1.882,1.882,0,0,0,1.412-.391A1.822,1.822,0,0,0,449.053,268.743Z" transform="translate(-13685.58 -14366.757)" fill="#504f66"/>
      <path id="Path_11802" data-name="Path 11802" d="M528.658,238.163,507.483,268.1c-1.059,1.492-2.889,2.009-4.061,1.153s-1.224-2.767-.118-4.235l6.9-9.072.941-1.214,2.475-3.256,1.412-1.859,10.559-13.882A31.531,31.531,0,0,0,528.658,238.163Z" transform="translate(-13718.049 -14349.804)" fill="#5b5a6e"/>
      <path id="Path_11803" data-name="Path 11803" d="M521.764,266.878a2.791,2.791,0,0,0,3.11-.089,2.932,2.932,0,0,0,1.087-2.4,3.146,3.146,0,0,0-3.656.678A2.72,2.72,0,0,0,521.764,266.878Z" transform="translate(-13728.242 -14364.826)" fill="#ffdcdc"/>
      <path id="Path_11804" data-name="Path 11804" d="M486.41,299.066l4.823-2.489a3.416,3.416,0,0,1,.471-1.445,3.666,3.666,0,0,1,3.2-1.694,4.122,4.122,0,0,1,3.2,2.037l-10.687,5.284C487.073,300.182,486.739,299.626,486.41,299.066Z" transform="translate(-13709.527 -14380.356)" fill="#ffdcdc"/>
      <path id="Path_11805" data-name="Path 11805" d="M456.386,285.053l1.727,3.614h0c-.066.056.127.386.287.631-4.339,1.967-13.411,5.873-18.493,6.155a5.176,5.176,0,0,1-1.209-.056c-2.762-.471-4.442-3.125-7.576-9.383-4.583-9.152-4.644-10.771-4.042-12.263V273.7a2.974,2.974,0,0,1,5.27-.386,115.487,115.487,0,0,1,5.868,10.8c.819,1.718,1.572,3.412,2.263,5.068Z" transform="translate(-13677.974 -14368.949)" fill="#5b5a6e"/>
      <path id="Path_11806" data-name="Path 11806" d="M492.215,300.48l.918,2.419-1.727,1.045c-.423-.941-.856-1.882-1.275-2.823Z" transform="translate(-13711.497 -14384.084)" fill="#fff"/>
      <path id="Path_11807" data-name="Path 11807" d="M639.714,256.966l-11.877-15.3q-.621-2.776-1.247-5.548a3.539,3.539,0,0,0-2.132,2.856,3.581,3.581,0,0,0,2.226,3.586l9.105,15.74a2.729,2.729,0,0,0,2.767,1.355,1.561,1.561,0,0,0,.231-.052,3.465,3.465,0,0,0,.692-.4h0C639.766,258.9,640.044,258.317,639.714,256.966Z" transform="translate(-13782.609 -14350.011)" fill="#ffdcdc"/>
      <path id="Path_11808" data-name="Path 11808" d="M704.078,203.136a4.075,4.075,0,0,1-4.484-1.849,4.03,4.03,0,0,1,.438-5.012c1.412-1.238,3.529-.569,4.033-.409a3.9,3.9,0,0,1,2.419,1.7A4.2,4.2,0,0,1,704.078,203.136Z" transform="translate(-13822.044 -14328.527)" fill="#a86767"/>
      <path id="Path_11809" data-name="Path 11809" d="M682.5,214.168a7.529,7.529,0,0,1,2.993-3.572,8.948,8.948,0,0,1,11.294,2.508c2.941,4.263-.245,10.352-3.765,13.119a11.788,11.788,0,0,1-6.117,2.386C682.608,223.951,680.726,218.375,682.5,214.168Z" transform="translate(-13812.991 -14335.945)" fill="#a86767"/>
      <path id="Path_11810" data-name="Path 11810" d="M690.43,253.489q.193-5.256.391-10.522l2.852-1.727q2.108,6.79,4.235,13.585Z" transform="translate(-13817.542 -14352.722)" fill="#f7baba"/>
      <path id="Path_11811" data-name="Path 11811" d="M680.923,225.868c.358,1.882.941,4.927,2.983,5.647,2.136.753,5.416-1.3,7.736-5.341.108.235.259.471.471.471.974.184,2.936-3.238,2.094-4.292a1.209,1.209,0,0,0-.838-.367,1.909,1.909,0,0,0-1.412.941c.08-.174,1.713-3.887-.278-6.4a5.134,5.134,0,0,0-2.278-1.567,6.884,6.884,0,0,0-6,.508C679.445,218.028,680.706,224.715,680.923,225.868Z" transform="translate(-13812.317 -14338.563)" fill="#ffdcdc"/>
      <path id="Path_11812" data-name="Path 11812" d="M679.52,218.134A27.137,27.137,0,0,0,690.7,221.38a7.748,7.748,0,0,0,1.374-2.16c.226-.522.969-2.268.593-3.492-.885-2.866-8.555-4.64-11.7-1.256A5.986,5.986,0,0,0,679.52,218.134Z" transform="translate(-13811.766 -14337.571)" fill="#a86767"/>
      <path id="Path_11813" data-name="Path 11813" d="M675.237,274.671c.621,1.981,2,6.395,4.87,7.143a3.172,3.172,0,0,0,1.172.08c3.007-.311,6.2-4.55,9.614-9.082a25.779,25.779,0,0,0,1.623-2.4v-.033c.08-.132.155-.273.235-.409a14.617,14.617,0,0,0,.8-1.638q.071-2.353.151-4.739a2.9,2.9,0,0,0,.3-.941v-.226a2.053,2.053,0,0,0,0-.339q-.132-.184-.268-.339a5.952,5.952,0,0,0-1.6-1.369s-1.233-.706-4.456-.635c-.471,0-.993.038-1.558.085a34.335,34.335,0,0,0-3.539.508h-.047l-.409.089-1.755.376a4.649,4.649,0,0,0-1.845,1.049,4.48,4.48,0,0,0-.8.993c-.2.348-.4.7-.6,1.04-.861,1.5-1.732,3.007-2.593,4.513A17.132,17.132,0,0,0,675.237,274.671Z" transform="translate(-13809.106 -14362.516)" fill="#f7baba"/>
      <path id="Path_11814" data-name="Path 11814" d="M651.043,263.848l-9.854,4.786a1.412,1.412,0,0,1-1.812-.522l-9.628-15.486,2.823-1.355q4.663,6.117,9.336,12.235,4.574-2.409,9.331-5.176,2.264-1.327,4.433-2.668Z" transform="translate(-13785.416 -14358.03)" fill="#40afb5"/>
      <path id="Path_11815" data-name="Path 11815" d="M672.855,257.837c-.16.287-.471.852-.828,1.576a33.525,33.525,0,0,0-2.734,10.235c-.47,4.706.344,25.735,3.19,54.36l-.381,3.675a37.707,37.707,0,0,1-14.249,1.266,186.6,186.6,0,0,1,7.6-71.836l7.529-2.353Z" transform="translate(-13799.901 -14359.88)" fill="#2ca39b"/>
      <path id="Path_11816" data-name="Path 11816" d="M661.417,400.353c.659.819,2.089.555,2.875.442a5.284,5.284,0,0,0,1.026-.249,14.758,14.758,0,0,0,2.55-1.219c1.638-.9,2.456-1.35,3.158-1.383,1.064-.052,1.525.4,1.882.1s.494-.993-.362-3.242c-.075-4.32.085-7.8.235-10.127.438-6.767,1.266-10.682-.508-15.764-.061-.179-.122-.348-.184-.513a21.357,21.357,0,0,0-1.073-2.391q.739-15.251,1.492-30.507l-8.112,1.788c-.635,4.776-.56,13.4,1.176,28.987.169.654.343,1.355.518,2.1a88.119,88.119,0,0,1,2.212,20.644c-.028,2.767-.221,4.974-.344,6.207a12.649,12.649,0,0,1-2.574,2.226,12.905,12.905,0,0,1-1.412.791l-2.889.7A1.882,1.882,0,0,0,661.417,400.353Z" transform="translate(-13801.992 -14402.626)" fill="#ffdcdc"/>
      <path id="Path_11817" data-name="Path 11817" d="M669.715,461.92a6.677,6.677,0,0,0-2.315.941c-1.294.838-1.327,1.525-2.758,2.663a6.062,6.062,0,0,1-3.092,1.506c-1.289.151-2.687-.235-2.72-.649-.042-.574,2.6-1.289,2.5-1.266-.6.146-1.548.376-2.729.645-2.565.588-2.969.626-3.016.88-.137.7,2.55,2.381,5.219,2.085a10.3,10.3,0,0,0,2.87-.969c1.336-.555,2.96-1.219,4.823-1.958a5.886,5.886,0,0,0-.028.668c0,.245.028.424.028.471a13.874,13.874,0,0,1-.042,1.915l.659-.024a7.224,7.224,0,0,1,.631-2.922c.442-.969.941-1.412.908-2.23A2.635,2.635,0,0,0,669.715,461.92Z" transform="translate(-13799.092 -14469.558)" fill="#b81d3a"/>
      <path id="Path_11818" data-name="Path 11818" d="M676.773,338.973a68.535,68.535,0,0,0,2.438,20.648c1,3.6,1.214,3.233,2.277,7.2a87.143,87.143,0,0,1,2.823,23.086c-.023,2.767-.216,4.979-.343,6.207a12.651,12.651,0,0,1-2.574,2.226,12.905,12.905,0,0,1-1.412.791l-2.889.7a1.882,1.882,0,0,0,.311,1.412c.659.819,2.089.555,2.87.442a5.257,5.257,0,0,0,1.031-.249,14.565,14.565,0,0,0,2.546-1.219c1.642-.9,2.461-1.35,3.162-1.383,1.064-.052,1.525.4,1.882.1s.471-.993-.362-3.242c-.075-4.32.085-7.8.235-10.127.438-6.762,1.271-10.677-.5-15.764A21.8,21.8,0,0,0,687,366.9q.739-15.251,1.492-30.507Z" transform="translate(-13810.291 -14403.097)" fill="#ffdcdc"/>
      <path id="Path_11819" data-name="Path 11819" d="M686.1,462.8a6.676,6.676,0,0,0-2.315.941c-1.294.838-1.327,1.525-2.757,2.668a6.117,6.117,0,0,1-3.092,1.5c-1.289.151-2.687-.235-2.72-.649-.042-.574,2.6-1.289,2.5-1.266-.6.146-1.548.376-2.729.645-2.565.593-2.969.631-3.016.88-.136.7,2.55,2.381,5.219,2.085a8.19,8.19,0,0,0,2.87-.969c1.054-.593,1.642-1.012,3.256-1.816.588-.292,1.078-.513,1.412-.645a14.307,14.307,0,0,1,.174,1.647,13.854,13.854,0,0,1-.042,1.915l.659-.024a7.223,7.223,0,0,1,.631-2.922c.442-.969.941-1.412.908-2.23A2.635,2.635,0,0,0,686.1,462.8Z" transform="translate(-13807.765 -14470.022)" fill="#c9445d"/>
      <path id="Path_11820" data-name="Path 11820" d="M668.95,325.843q.113,1.031.24,2.1H684.2a98.26,98.26,0,0,1,.546-11.143c.7-6.5,2.183-15.284,1.233-20.935-1.167-6.96-3.515-7.058-2.941-11.712.654-5.313,4.541-12.07,5.219-13.256.183-.325.358-.612.5-.856v-.033l.245-.4h0c-.118-.118-.282-.278-.471-.471a9.688,9.688,0,0,1-2.113-4.447c-.372-1.882-.127-3.543.649-3.99a4.328,4.328,0,0,1,1.882-.221l.1.061a2.955,2.955,0,0,1,.894,1.158,5.084,5.084,0,0,1,.32.659v-.226a2.052,2.052,0,0,0,0-.339,2.755,2.755,0,0,0-.042-.344,3.221,3.221,0,0,0-.217-.419,3.581,3.581,0,0,0-.861-1,4.908,4.908,0,0,0-2.546-.819,8.566,8.566,0,0,0-2.39,0l-.3.235q-1.087.861-1.991,1.52-3.6,2.626-4.277,2.014c-.343-.315-.113-1.266.7-2.823h0a7.058,7.058,0,0,0-2.428.569,4.579,4.579,0,0,0-.842.442,5.9,5.9,0,0,0-1.228,1.049,16.742,16.742,0,0,0-1.125,1.35,20.385,20.385,0,0,0-2.014,3.2c-1.186,2.47-1.779,3.7-1.473,5.176a5.411,5.411,0,0,0,2.24,3.223c0,.875-.052,2.136-.169,3.652a66.471,66.471,0,0,1-2.1,11.905c-.471,1.939-.871,3.35-.941,3.529a19.277,19.277,0,0,0-.508,2.63C667.138,301.632,667.213,310.258,668.95,325.843Z" transform="translate(-13805.352 -14362.193)" fill="#e85754"/>
      <path id="Path_11821" data-name="Path 11821" d="M689.257,325.093c.089.471.188.9.278,1.341l8.5-1.972c1.369-37.96,2.249-65.945,2.047-66.349a3.406,3.406,0,0,0-.659-.856h0a7.792,7.792,0,0,0-.663-.682,14.592,14.592,0,0,0-1.478-.471c-.3-.08-.621-.151-.941-.216l-.32-.056a3.463,3.463,0,0,1-2.626-2.151h0c-.254.758-.5,1.525-.748,2.31-.066.207-.132.414-.193.621-.146.471-.292.941-.433,1.435-.325,1.078-.635,2.183-.941,3.294-.993,3.689-1.882,7.614-2.612,11.764q-.494,2.823-.861,5.567A140.449,140.449,0,0,0,689.257,325.093Z" transform="translate(-13815.414 -14359.308)" fill="#2ca39b"/>
      <path id="Path_11822" data-name="Path 11822" d="M650.987,240.431,635.967,228.2l-1.882-4.616a3.063,3.063,0,0,0-2,2.757,3.134,3.134,0,0,0,2.974,2.993c6.47,8.188,11.764,13.755,13.251,14.093a5.647,5.647,0,0,0,2.381-.216,4.081,4.081,0,0,0,.583-.551v-.024C651.472,242.308,651.613,241.659,650.987,240.431Z" transform="translate(-13786.649 -14343.371)" fill="#ffdcdc"/>
      <path id="Path_11823" data-name="Path 11823" d="M641.39,239.79l10.7,10.941a2.052,2.052,0,0,0,1.266.6l5.6.471.631.052,7.637.678,5.444.471,1.289.113a3.026,3.026,0,0,0,2.221-1.558,2.9,2.9,0,0,0,.3-.941v-.226a2.052,2.052,0,0,0,0-.339,2.753,2.753,0,0,0-.042-.344,3.021,3.021,0,0,0-2.56-2.4h-.471l-4.659-.132-13.265-.381L644.03,237Z" transform="translate(-13791.579 -14350.477)" fill="#40afb5"/>
    </g>
    <g id="Group_13119" data-name="Group 13119" transform="translate(13850 14867)">
      <path id="Path_11904" data-name="Path 11904" d="M1005,360.05q-.482,2.093-.957,4.2l1.407,3.95a2.923,2.923,0,0,1-2.16.162,2.7,2.7,0,0,1-1.664-2.927,2.642,2.642,0,0,1,.623-1.28q-.352-1.949-.7-3.9Z" transform="translate(-14335.317 -14400.563)" fill="#ffb4b3"/>
      <path id="Path_11905" data-name="Path 11905" d="M1005.638,302.647a71.265,71.265,0,0,0,.148-17.316h-.025a6.458,6.458,0,0,0-3.869,3.074,22.428,22.428,0,0,0-1,2.016,23.989,23.989,0,0,0-1.206,3.56,40.644,40.644,0,0,0-.792,12.364c0,.267.088,1.826.222,3.869q.116,1.671.246,3.32l3.823.412a71.062,71.062,0,0,0,2.452-11.3Z" transform="translate(-14333.514 -14352.125)" fill="#d9e653"/>
      <path id="Path_11906" data-name="Path 11906" d="M1015.5,436.155q-.091,3.8-.176,7.6a1.382,1.382,0,0,0,1.242.971,1.428,1.428,0,0,0,1.347-1.474q.274-1.713.556-3.437a7.85,7.85,0,0,0,.32-1.871,8.294,8.294,0,0,0-1.055-4.379Z" transform="translate(-14344.243 -14448.223)" fill="#ffb4b3"/>
      <path id="Path_11907" data-name="Path 11907" d="M1006.66,461a1.864,1.864,0,0,1-1.214.76,1.843,1.843,0,0,1-1.407-.352,17.1,17.1,0,0,1-4.27,3.517c-1.076.616-1.875.9-1.833,1.3.06.63,2.11,1.119,3.869.879a6.574,6.574,0,0,0,3.046-1.28c.109.26.215.517.324.774l2.11-.352a3.869,3.869,0,0,0,.141-1.593,4.63,4.63,0,0,0-.422-1.386A4.9,4.9,0,0,1,1006.66,461Z" transform="translate(-14332.974 -14466.004)" fill="#594545"/>
      <path id="Path_11908" data-name="Path 11908" d="M1043.316,435.472q-.084,3.8-.176,7.6a1.386,1.386,0,0,0,1.245.971,1.407,1.407,0,0,0,1.344-1.474c.186-1.143.373-2.29.556-3.433a7.865,7.865,0,0,0,.324-1.875,8.309,8.309,0,0,0-1.055-4.376Z" transform="translate(-14362.277 -14447.782)" fill="#ffb4b3"/>
      <path id="Path_11909" data-name="Path 11909" d="M1034.507,460.31a1.808,1.808,0,0,1-2.6.4,17.027,17.027,0,0,1-4.274,3.517c-1.055.616-1.871.9-1.833,1.3.063.63,2.11,1.122,3.869.879a6.611,6.611,0,0,0,3.046-1.277l.32.77,2.11-.352a3.81,3.81,0,0,0,.137-1.59,4.53,4.53,0,0,0-.422-1.407A5,5,0,0,1,1034.507,460.31Z" transform="translate(-14351.035 -14465.558)" fill="#594545"/>
      <path id="Path_11910" data-name="Path 11910" d="M1041.62,351.966v.193l-.158,2.438v.186l-.1,1.46-.5,7.717c-.123,1.84-2.219,3.289-4.763,3.289h0c-2.526,0-4.611-1.425-4.759-3.247l-.5-6.159-.457-5.628c-.19-2.343,2.381-4.316,5.628-4.316,2.487,0,4.573,1.164,5.336,2.768.032.074.06.144.088.218A2.99,2.99,0,0,1,1041.62,351.966Z" transform="translate(-14354 -14392.688)" fill="#7d6161"/>
      <path id="Path_11911" data-name="Path 11911" d="M1040.684,409.215h-5.853l-1.787-22.744c-.1-1.956,2.061-3.581,4.763-3.581h0c2.691,0,4.847,1.611,4.766,3.556Z" transform="translate(-14355.73 -14415.369)" fill="#7d6161"/>
      <path id="Path_11912" data-name="Path 11912" d="M1004.023,370.082c-2.381-.577-3.8-2.557-3.226-4.52q2.3-9.145,4.608-18.315a7.594,7.594,0,0,1,3.067-2.413,7.362,7.362,0,0,1,4.365-.415c3.032.732,4.7,3.373,3.648,5.8l-6.683,17.478C1008.966,369.611,1006.415,370.663,1004.023,370.082Z" transform="translate(-14334.748 -14390.328)" fill="#7d6161"/>
      <path id="Path_11913" data-name="Path 11913" d="M1009.737,417.569l-5.023.074c-1.08-5.92-2.955-10.651-4.034-16.567a4.425,4.425,0,0,1,4.773-5.223c.067,0,.134,1,.2,1.013a5.5,5.5,0,0,1,4.309,3.517Z" transform="translate(-14334.702 -14423.759)" fill="#7d6161"/>
      <path id="Path_11914" data-name="Path 11914" d="M1034.746,267.184a3.441,3.441,0,1,1-6.655,0V257.62h6.655Z" transform="translate(-14352.498 -14334.163)" fill="#f28f8f"/>
      <path id="Path_11915" data-name="Path 11915" d="M1024.7,312.116c-.964.172-2.339.4-4,.637-1.9.267-3.465.45-3.926.478a30.5,30.5,0,0,1-8.818-.809c-.739-.179-1.407-.352-2.005-.559-.208-.605-.415-1.284-.612-2.03,0,0-.324-1.224-.545-2.427a42.117,42.117,0,0,1-.176-9.613c.039-.482.253-1.727.482-4.221a22.46,22.46,0,0,1,1.643-6.972,3.368,3.368,0,0,1,.419-.735,3.44,3.44,0,0,1,1.481-1.076,11.591,11.591,0,0,1,4.126-.682,3.69,3.69,0,0,0,2.11,2.5,3.391,3.391,0,0,0,2.353,0,3.8,3.8,0,0,0,2.195-2.589,7.813,7.813,0,0,1,2.086.211c1.214.292,3.584,1.206,3.778,2.564.137.943-1.031,1.224-1.323,2.413-.352,1.463.841,3.011,1.914,4.094a57.464,57.464,0,0,0,.267,6.535c.053.549.1.985.148,1.347.074.63.137,1.087.141,1.122C1026.535,302.963,1026.208,305.359,1024.7,312.116Z" transform="translate(-14337.181 -14351.274)" fill="#e3ee73"/>
      <path id="Path_11916" data-name="Path 11916" d="M1032.247,240.443v.229l-.2,4c-.137,2.74-2.744,4.9-5.913,4.9s-5.776-2.153-5.92-4.9l-.07-1.446-.127-2.55a4.631,4.631,0,0,1,.25-1.738,4.76,4.76,0,0,1,.327-.739,6.245,6.245,0,0,1,5.536-3.036,6.068,6.068,0,0,1,5.86,3.774A4.62,4.62,0,0,1,1032.247,240.443Z" transform="translate(-14347.287 -14319.604)" fill="#ffb4b3"/>
      <path id="Path_11917" data-name="Path 11917" d="M1017.755,237.068a6.958,6.958,0,0,1,.974-4.073,2.2,2.2,0,0,0,.3,1.822,2.163,2.163,0,0,0,1.407.76,3.546,3.546,0,0,0,2.431-.556c1.185-.809,1.055-1.829,2.023-2.026a1.649,1.649,0,0,1,1.407.373,1.322,1.322,0,0,1,.352.591c.2.7-.3,1.094-.151,1.8a1.529,1.529,0,0,0,.3.623,1.636,1.636,0,0,1,.809-1.2,1.551,1.551,0,0,1,1.182-.035,1.8,1.8,0,0,1,1,1.8l-.053,1.154a7.258,7.258,0,0,0-.1-8.551,7.368,7.368,0,0,0-10.092-.918,1.168,1.168,0,0,0-.876-.461c-1.256.042-2.652,3.229-2.188,6.008a6.765,6.765,0,0,0,1.273,2.884Z" transform="translate(-14344.938 -14314.356)" fill="#594545"/>
      <path id="Path_11918" data-name="Path 11918" d="M1049.267,253.675a1.055,1.055,0,0,0-1.08-1.055,1.083,1.083,0,0,0-1.038,1.094v1.024a.7.7,0,0,0,1.337.32,2.486,2.486,0,0,1,.468-.63A1.055,1.055,0,0,0,1049.267,253.675Z" transform="translate(-14364.877 -14330.921)" fill="#f28f8f"/>
      <path id="Path_11919" data-name="Path 11919" d="M1047.819,255.791a.563.563,0,1,0-.561.518.563.563,0,0,0,.561-.518Z" transform="translate(-14364.582 -14332.583)" fill="#ffb4b3"/>
      <path id="Path_11920" data-name="Path 11920" d="M1054.832,292.186a100.127,100.127,0,0,0,.851,11.379,3.165,3.165,0,0,0,.63,1.326,3.218,3.218,0,0,0,1.407.929,2.948,2.948,0,0,0,1.924,0l2.592-.369a32.37,32.37,0,0,0,.2-9.462c-.422-3.328-.7-5.628-2.462-7.689a10.934,10.934,0,0,0-7.084-3.489Q1053.85,288.489,1054.832,292.186Z" transform="translate(-14368.599 -14351.789)" fill="#e3ee73"/>
      <path id="Path_11921" data-name="Path 11921" d="M1064.957,362.17l.781,4.221q-.781,1.942-1.558,3.887a2.909,2.909,0,0,0,2.149.253,2.7,2.7,0,0,0,1.787-2.856,2.647,2.647,0,0,0-.57-1.3l.886-3.869Z" transform="translate(-14375.917 -14401.938)" fill="#ffb4b3"/>
      <path id="Path_11922" data-name="Path 11922" d="M1060.53,329.008v-.035s.7-3.32,3.518-3.915a4.678,4.678,0,0,1,3.567.823q-.317,5.339-.922,10.971c-.123,1.115-.25,2.216-.387,3.306-1.277.084-3.236.169-4.513.253A90.955,90.955,0,0,1,1060.53,329.008Z" transform="translate(-14373.551 -14377.833)" fill="#e3ee73"/>
      <circle id="Ellipse_421" data-name="Ellipse 421" cx="8.903" cy="8.903" r="8.903" transform="translate(-13283.724 -14078.087) rotate(-67.5)" fill="#594545"/>
      <circle id="Ellipse_422" data-name="Ellipse 422" cx="7.658" cy="7.658" r="7.658" transform="translate(-13285.236 -14090.134)" fill="#594545"/>
      <path id="Path_11923" data-name="Path 11923" d="M1163.079,454.346v.06a.121.121,0,0,1,0,.035c-.035.376-.3.644-.668,1.027a7.188,7.188,0,0,0-1.147,1.512,5.493,5.493,0,0,0-.591,1.516c-.049.2-.092.394-.155.594a3.862,3.862,0,0,1-.162.426c-.021.046-.042.091-.067.137a3.656,3.656,0,0,1-.243.426,11.624,11.624,0,0,1-2.364.552c-.313.039-.616.067-.907.081-.039-.081-.077-.165-.113-.246v-.028l-.113-.264a.333.333,0,0,0,0-.056,8.6,8.6,0,0,1,.186-.893c.035-.141.074-.274.12-.4a6.493,6.493,0,0,1,.918-1.759c.053-.056.1-.113.151-.172.116-.13.225-.264.331-.4A3.4,3.4,0,0,0,1159,454.9c.06-.429-.229-.974-.795-1.864l-.169-.257c-.053-.088-.113-.179-.176-.274s-.123-.193-.193-.3l-.2-.313a3.563,3.563,0,0,0,1.759-1.294,16.587,16.587,0,0,0,1.551,1.9c.13.046.253.095.352.141.172.07.327.137.468.208a5.331,5.331,0,0,1,.753.429,1.512,1.512,0,0,1,.7.893h0a1.016,1.016,0,0,1,0,.1A.6.6,0,0,1,1163.079,454.346Z" transform="translate(-14435.796 -14459.263)" fill="#c45b32"/>
      <path id="Path_11924" data-name="Path 11924" d="M1138.585,373.872c.267.837.7,2.142,1.27,3.739a3.554,3.554,0,0,1-.82.813,3.417,3.417,0,0,1-.953.478c-5.5-8.706-9.476-14.995-10.711-16.866a4.124,4.124,0,0,1-.542-1.147,5.739,5.739,0,0,1,.8-4.295c.2-.352.38-.637.507-.837,1.593-2.515,4.52-8.245,8.533-16.282l.739-1.484a6.014,6.014,0,0,0,4.622,1.639,5.576,5.576,0,0,0,2.765-1.136,6.471,6.471,0,0,0,1.315,3.12,49.845,49.845,0,0,1-7.64,13.222c-.584.728-1.171,1.407-1.759,2.065-.084.095-.169.19-.257.281a50.138,50.138,0,0,1-3.581,3.539,16.4,16.4,0,0,1,1.365,1.618C1136.493,365.384,1136.721,367.99,1138.585,373.872Z" transform="translate(-14416.428 -14386.263)" fill="#c45b32"/>
      <path id="Path_11925" data-name="Path 11925" d="M1162.949,458.488v.1a2.784,2.784,0,0,1-.07.461,24.039,24.039,0,0,1-1.249,2.814c-.183.352-.383.7-.6,1.08-.123.208-.25.415-.38.616l-.049.074c-.109.165-.218.324-.331.482l-.352.127a11.632,11.632,0,0,1-2.364.552c-.313.039-.615.067-.907.081h-.3a.884.884,0,0,1,.025-.253.106.106,0,0,1,0-.035,2.092,2.092,0,0,1,.032-.26.361.361,0,0,0,0-.056,8.57,8.57,0,0,1,.186-.893c.035-.141.074-.274.12-.4a6.494,6.494,0,0,1,.918-1.759c.063-.088.127-.169.186-.243l-.035.07a2.454,2.454,0,0,0-.106,2.4.783.783,0,0,0,.13.134,1.14,1.14,0,0,0,.806.215,1.7,1.7,0,0,0,1.164-.7,12.416,12.416,0,0,0,1.284-2.191,4.664,4.664,0,0,0,.763-2.61,3.457,3.457,0,0,0-.384-1.284h.039a2.7,2.7,0,0,1,.728.288h0a1.449,1.449,0,0,1,.7,1.027h0a1.015,1.015,0,0,1,0,.1.639.639,0,0,1,.039.081Z" transform="translate(-14435.666 -14463.404)" fill="#ffcaee"/>
      <path id="Path_11926" data-name="Path 11926" d="M1147.148,457.953c.077.31.784.433,1.21.507a1.57,1.57,0,0,1,.309.039,21.867,21.867,0,0,0,2.54.1h.317a4.221,4.221,0,0,0,1.572-.489c1.678-.8,4.2-.788,4.8-2.181.137-.313.373-1.164-.7-2.782.063-.422.12-.848.172-1.284.176-1.407.292-2.782.352-4.094a1.973,1.973,0,0,1-.7.531,2.628,2.628,0,0,1-.943.176,3.87,3.87,0,0,1-1.115-.06,6.326,6.326,0,0,1-.672,4.622c-.4.605-1.449,1.217-3.518,2.462C1148.446,456.852,1147.032,457.471,1147.148,457.953Z" transform="translate(-14429.697 -14457.428)" fill="#d66b36"/>
      <path id="Path_11927" data-name="Path 11927" d="M1160.851,352.991c-.352.922-.619,1.727-.834,2.374a13.5,13.5,0,0,1,1.143,2.023c1.157,2.533,1.238,4.8,1.115,10.271-.06,2.568-.141,4.826-.218,6.683a2.536,2.536,0,0,1-.7.475,2.777,2.777,0,0,1-.953.222,3.386,3.386,0,0,1-1.1-.109c-.039-.193-.127-.654-.243-1.231,0,0-2.308-11.664-4.049-16.465-.313-.862-.668-1.681-.668-1.681l-.063-.141c-.077-.19-.141-.376-.2-.563q-.035-.123-.063-.243a6.566,6.566,0,0,1-.06-2.6c.2-1.3.288-6.827.352-14.868v-2.7l1.643.165,6.046.612c2.694,5.793,2.209,8.864,1.759,10.25-.795,2.424-1.688,4.52-1.688,4.52S1161.354,351.647,1160.851,352.991Z" transform="translate(-14434.047 -14383.961)" fill="#d66b36"/>
      <path id="Path_11928" data-name="Path 11928" d="M1158.021,469.386l-1.931,1.055q-.032-.13-.063-.274a11.479,11.479,0,0,1-1.917.936l-.352.127a11.626,11.626,0,0,1-2.364.552c-.313.039-.615.067-.907.081h-.3a11.92,11.92,0,0,1-3.335-.39,1.263,1.263,0,0,1,0-.2,1.172,1.172,0,0,1,.035-.243h0l.162.035a11.353,11.353,0,0,0,1.709.225,10.633,10.633,0,0,0,1.491-.035,12.268,12.268,0,0,0,3.975-1.027c.222-.1.44-.2.644-.31a13.013,13.013,0,0,0,2.912-2.068l.056-.053c.042.183.084.38.113.594q.032.211.053.443C1158.017,469.038,1158.021,469.218,1158.021,469.386Z" transform="translate(-14429.507 -14470.413)" fill="#594545"/>
      <path id="Path_11929" data-name="Path 11929" d="M1157.476,465.05c-.144.186-.352.443-.605.728-.352.4-3.271,3.56-5.575,2.793a2.828,2.828,0,0,1-1.53-1.425c-.5.19-.915.38-1.214.528-1.02.507-1.252.77-1.379.981a1.779,1.779,0,0,0-.243.682,10.2,10.2,0,0,0,3.345.5,11.172,11.172,0,0,0,4.436-1.094,14.066,14.066,0,0,0,3.3-2.023,3.941,3.941,0,0,0-.352-1.284q-.084-.2-.186-.387Z" transform="translate(-14429.56 -14468.63)" fill="#7d6161"/>
      <path id="Path_11930" data-name="Path 11930" d="M1147.138,345.611a30.45,30.45,0,0,1-1.688,5.178,48.2,48.2,0,0,1-2.343,5.076,37.447,37.447,0,0,1-15.6.049q.278-.953.6-1.924a54.31,54.31,0,0,1,9.093-16.5v-1.959c.134-.06.271-.116.408-.169.38-.148.8-.285,1.238-.408l6.046.612C1147.732,340.5,1147.408,344.113,1147.138,345.611Z" transform="translate(-14416.971 -14384.292)" fill="#594545"/>
      <path id="Path_11931" data-name="Path 11931" d="M1141.207,316.543l-.109.13-6.068,7.1-3.458,4.024a2.582,2.582,0,0,1-2.111,2.758,2.515,2.515,0,0,1-2.462-1.333l3.556-2.054,2.986-4.886,4.27-6.986,1.055-1.731a1.65,1.65,0,0,1,1.133-.528,2.317,2.317,0,0,1,.383.025l.257.025h.021a2.279,2.279,0,0,1,.545,3.454Z" transform="translate(-14416.641 -14370.089)" fill="#c45b32"/>
      <path id="Path_11932" data-name="Path 11932" d="M1153.156,320.831l-6.068,7.1a5.311,5.311,0,0,1-1.488-1.477l4.27-6.986A6.441,6.441,0,0,1,1153.156,320.831Z" transform="translate(-14428.697 -14374.257)" fill="#f0c1af"/>
      <rect id="Rectangle_24793" data-name="Rectangle 24793" width="12.438" height="9.902" transform="translate(-13291.776 -14050.763) rotate(1.8)" fill="#504f66"/>
      <rect id="Rectangle_24794" data-name="Rectangle 24794" width="1.755" height="4.671" rx="0.878" transform="translate(-13292.738 -14048.168) rotate(1.8)" fill="#dfdfea"/>
      <path id="Path_11933" data-name="Path 11933" d="M1152.53,276.484a12.712,12.712,0,0,1,5.677-1.639c1.667-.07,4.122-.176,5.67,1.235,2.888,2.635,1.952,9.947-2.258,12.705-2.184,1.432-5.674,1.906-7.035.415-1.294-1.407.236-3.612-.485-7.974A16.3,16.3,0,0,0,1152.53,276.484Z" transform="translate(-14433.189 -14345.306)" fill="#c45b32"/>
      <path id="Path_11934" data-name="Path 11934" d="M1167.567,255.62a11.288,11.288,0,0,0-.352,8.794l-4.615-.165a20.379,20.379,0,0,0,.566-4.056,20.109,20.109,0,0,0-.165-3.5Z" transform="translate(-14439.718 -14332.866)" fill="#c45b32"/>
      <path id="Path_11935" data-name="Path 11935" d="M1160.589,244.18a2.954,2.954,0,0,0,.317-.756,3.837,3.837,0,0,0,.113-1.6c.264.647.514.879.739.893.83.056,1.959-2.846,1.185-3.517a.83.83,0,0,0-.4-.176c-.63-.063-1.094.763-1.133.834a8.924,8.924,0,0,0,.172-2.037,3.894,3.894,0,0,0-.658-2.4,3.772,3.772,0,0,0-3.05-1.249,4.227,4.227,0,0,0-2.846,1.674c-2.462,2.877-2.353,8.628.2,9.926.411.211,1.439.584,3.313-.193Z" transform="translate(-14433.651 -14318.96)" fill="#d66b36"/>
      <path id="Path_11936" data-name="Path 11936" d="M1160.159,298.815a21.14,21.14,0,0,1-.292-4.446,22.279,22.279,0,0,1,3.458-10.88c1.1-6.683.76-8.312.211-8.505a12.359,12.359,0,0,0-1.323-.186,10.9,10.9,0,0,0-2.867.172c0,3.007-1.192,5.371-2.916,5.867a2.814,2.814,0,0,1-1.759-.084c-1.53-.619-2.441-2.744-2.142-5.325a5.418,5.418,0,0,0-.876.2,5.124,5.124,0,0,0-1.055.468c-.8.521-.7,2.111-.7,2.814.07,3.116-1.185,5.2-.77,6.951a6.332,6.332,0,0,0,.4,1.15,5.346,5.346,0,0,0,.7,1.087l.077.088c1.252,1.407,1.055,4.893,1.055,4.893q-.091,1.53-.141,3.1c0,.253,0,.5-.025.753a10.3,10.3,0,0,0,1.7,1.055A11.671,11.671,0,0,0,1160.159,298.815Z" transform="translate(-14430.928 -14345.28)" fill="#ffd1bf"/>
      <path id="Path_11937" data-name="Path 11937" d="M1186.435,295.73h-.032c-.165-1.495-.331-3.088-.492-4.682q-.164-1.583-.331-3.166c-.053-.517-.109-1.024-.165-1.523-.556-1.98-2.61-9.6-.581-10.742a2.047,2.047,0,0,1,1.759-.144h0a3.166,3.166,0,0,1,1.351,2.11c.193,1.228.369,2.5.517,3.831.278,2.518.429,4.9.485,7.112.046.4.109.988.151,1.7.077,1.312-.021,1.956,0,2.441a2.853,2.853,0,0,1-2.663,3.06Z" transform="translate(-14453.563 -14345.649)" fill="#ffd1bf"/>
      <path id="Path_11938" data-name="Path 11938" d="M1157.639,326.18l-3.552.369-11.189,1.168a2.582,2.582,0,0,1-3.43.545,2.522,2.522,0,0,1-.872-2.67l4,.964,11.456-3.078,3.94-1.055a1.643,1.643,0,0,1,1.182.394c.063.06.169.179.26.285s.172.193.172.193h0a2.283,2.283,0,0,1-1.963,2.884Z" transform="translate(-14424.096 -14376.169)" fill="#d66b36"/>
      <path id="Path_11939" data-name="Path 11939" d="M1186,326.18l-3.552.369a6.83,6.83,0,0,1-.039-3.071l3.939-1.055a1.643,1.643,0,0,1,1.182.394c.063.06.169.179.26.285s.172.193.172.193h0A2.283,2.283,0,0,1,1186,326.18Z" transform="translate(-14452.46 -14376.169)" fill="#ffd1bf"/>
    </g>
    <g id="Group_13120" data-name="Group 13120" transform="translate(14641 14874)">
      <path id="Path_12001" data-name="Path 12001" d="M149.864,378.586c-.409.47-1.255.294-1.717.206a3.54,3.54,0,0,1-.609-.168,8.953,8.953,0,0,1-1.491-.779,5.105,5.105,0,0,0-1.852-.882c-.629-.05-.911.209-1.132.021s-.273-.588.279-1.917c.132-2.57.112-4.64.068-6.027-.123-4.031-.538-6.38.62-9.37.041-.1.076-.2.118-.294v-.018a12.8,12.8,0,0,1,.685-1.391q-.138-9.091-.271-18.176l5.048,2.12c.076.223.209.638.359,1.176a51.229,51.229,0,0,1-1.826,14.892.046.046,0,0,1-.015.041c-.132.444-.273.926-.415,1.45a.165.165,0,0,1,0,.021l-2.387,15.495c.776.626,1.347,1.088,1.746,1.417.082.068.244.206.479.367a7.834,7.834,0,0,0,.82.5c.57.159,1.138.315,1.705.476A1.129,1.129,0,0,1,149.864,378.586Z" transform="translate(-14433.882 -14390.629)" fill="#ffdcdc"/>
      <path id="Path_12002" data-name="Path 12002" d="M134.7,220.691c-.294-.562-1.764-3.528-3.684-3.317a2.781,2.781,0,0,0-1.782,1.155,3.809,3.809,0,0,0-3.175.1c-2.026,1.194-2.564,5.366-.432,10.138a4.851,4.851,0,0,0,3.087,1.129,5.613,5.613,0,0,0,.882-.126c.882-.147,2.24,0,4.172,1.341C134.448,229.785,136.8,224.839,134.7,220.691Z" transform="translate(-14420.719 -14304.197)" fill="#f03c3c"/>
      <path id="Path_12003" data-name="Path 12003" d="M138.009,257.12q0-3.131-.021-6.266l-1.667-1.085q-1.394,4-2.781,7.994Z" transform="translate(-14427.27 -14327.076)" fill="#f7baba"/>
      <path id="Path_12004" data-name="Path 12004" d="M139.182,231.341c-.25,1.108-.653,2.911-1.888,3.3-1.285.406-3.2-.882-4.493-3.334a.459.459,0,0,1-.294.279c-.588.091-1.682-1.985-1.158-2.6a.714.714,0,0,1,.506-.2c.5,0,.8.553.82.588-.044-.106-.941-2.352.294-3.8a3.064,3.064,0,0,1,1.385-.882,4.1,4.1,0,0,1,3.558.426C140.219,226.719,139.334,230.659,139.182,231.341Z" transform="translate(-14425.625 -14309.218)" fill="#ffdcdc"/>
      <path id="Path_12005" data-name="Path 12005" d="M133.49,269.257a2.687,2.687,0,0,0-1.532-1.267l-1.273-.323h-.026c-4.187-.961-5.683-.171-5.683-.171a3.652,3.652,0,0,0-1.176,1,3.279,3.279,0,0,0-.232.817c-.294,2.243.985,4.313,1.891,5.6,2.193,3.125,4.222,6.021,6.23,5.572,1.723-.385,2.646-2.981,3.04-4.149a10.214,10.214,0,0,0,.556-3.708Z" transform="translate(-14420.198 -14339.374)" fill="#f7baba"/>
      <path id="Path_12006" data-name="Path 12006" d="M134.475,306.2a.046.046,0,0,1-.015.041c-.135.494-.273.982-.415,1.449a.166.166,0,0,1,0,.021.253.253,0,0,1-.021.062l-3.528-.209-.588-.032c-1.408-.079-2.823-.162-4.231-.247a3.7,3.7,0,0,1,.044-.435c.135-1.4.294-3.5.294-6.051-.024-6.762-1.176-8.285-.309-12.475a15.543,15.543,0,0,1,.456-1.764c.029-.085.056-.162.085-.241a5.692,5.692,0,0,1,.221-.588,12.654,12.654,0,0,0,1.132-2.646.109.109,0,0,1,.015-.068c.018-.082.032-.162.041-.238a5.409,5.409,0,0,0,.059-.735,1.59,1.59,0,0,0,0-.168v-.209a1.764,1.764,0,0,1-1.094-.021c-.541-.212-1.288-.882-1.917-6.174-.144-1.2-.226-2.182-.276-2.837.791.515,1.285.538,1.605.391,1.405-.644.979-5.245-.273-5.663a9.045,9.045,0,0,0-1.129-.173h0l-.062.035c-.741.473-1.011,2.017-1.023,2.129a3.072,3.072,0,0,1,1-2.455,2.874,2.874,0,0,1,1.526-.438,5.076,5.076,0,0,1,1.423.044q3.3,2.826,3.822,2.376.318-.273-.356-1.705a4.219,4.219,0,0,1,1.432.388,2.939,2.939,0,0,1,.494.294,3.4,3.4,0,0,1,.706.647,12.421,12.421,0,0,1,1.764,2.773,23.85,23.85,0,0,1,.77,3.111c.376,2.12.9,6.721-.409,7.2a.917.917,0,0,1-.738-.091c.094.882.27,2.255.588,3.916.168.882.335,1.629.506,2.3v.015c.132,1.214.209,2.411.244,3.581a51.229,51.229,0,0,1-1.846,14.892Z" transform="translate(-14420.213 -14338.835)" fill="#a1f0cf"/>
      <path id="Path_12007" data-name="Path 12007" d="M142.778,460.11a4.046,4.046,0,0,1,1.358.606c.753.526.756.935,1.585,1.644a3.6,3.6,0,0,0,1.811.956c.764.118,1.6-.085,1.629-.329.035-.341-1.52-.82-1.47-.8.353.1.914.253,1.611.438,1.514.4,1.764.432,1.764.588.068.418-1.564,1.361-3.146,1.132a4.818,4.818,0,0,1-1.688-.635c-.615-.373-.956-.635-1.9-1.147a3.331,3.331,0,0,0-.526-.271,2.193,2.193,0,0,0-.294-.088,5.563,5.563,0,0,0-.141.926,5.459,5.459,0,0,0,.026,1.053l-.365-.1a5.151,5.151,0,0,0-.382-1.594c-.262-.615-.526-.882-.5-1.344A1.582,1.582,0,0,1,142.778,460.11Z" transform="translate(-14433.35 -14475.572)" fill="#cc4a4a"/>
      <path id="Path_12008" data-name="Path 12008" d="M135.143,341.013a40.7,40.7,0,0,1-1.873,12.231c-.456,1.452-.656,1.805-.961,2.631,0,0-.241.635-.535,1.605-.332,1.094-1.52,7.774-2.831,16.982a18.728,18.728,0,0,1,2.311,1.923q.253.247.485.494a7.212,7.212,0,0,1,1.1.7,7.043,7.043,0,0,1,.673.588,5.051,5.051,0,0,1-1.726.065,4.574,4.574,0,0,1-.606-.168,8.958,8.958,0,0,1-1.494-.776,5.184,5.184,0,0,0-1.849-.882c-.632-.053-.914.206-1.132.021s-.276-.588.294-1.92c.132-2.567.109-4.64.068-6.027-.126-4.031-.541-6.377.617-9.367a12.679,12.679,0,0,1,.809-1.7q-.138-9.085-.27-18.173Z" transform="translate(-14422.336 -14390.24)" fill="#ffdcdc"/>
      <path id="Path_12009" data-name="Path 12009" d="M126.329,459.22a4.069,4.069,0,0,1,1.3.729c.7.588.664,1,1.423,1.782a3.607,3.607,0,0,0,1.714,1.123c.714.176,1.582.094,1.652-.179.1-.376-1.352-1.047-1.326-1.088s.685.37,1.508.741c1.241.556,1.7.538,1.717.747.026.423-1.688,1.211-3.234.835a4.928,4.928,0,0,1-1.623-.788c-.588-.429-.882-.723-1.782-1.32-.326-.218-.588-.382-.773-.485a8.087,8.087,0,0,0-.229.958,8.187,8.187,0,0,0-.118,1.132l-.388-.062a4.3,4.3,0,0,0-.153-1.764c-.188-.606-.444-.914-.368-1.385a1.588,1.588,0,0,1,.682-.976Z" transform="translate(-14421.687 -14474.944)" fill="#cc4a4a"/>
      <path id="Path_12010" data-name="Path 12010" d="M138.857,342.331a.046.046,0,0,1-.015.041c-.135.494-.273.982-.415,1.45a.165.165,0,0,1,0,.021.254.254,0,0,1-.021.062c-.006.021-.032.1-.047.153q-1.7-.194-3.5-.344l-.588-.05c-1.452-.112-2.867-.194-4.231-.247a3.7,3.7,0,0,1,.044-.435c.135-1.4.294-3.5.294-6.051-.024-6.762-1.176-8.285-.309-12.475a15.541,15.541,0,0,1,.456-1.764c.029-.085.056-.162.085-.241a5.69,5.69,0,0,1,.221-.588,21.667,21.667,0,0,0,1.132-2.646.109.109,0,0,1,.015-.068c0-.076.032-.153.041-.238a3.6,3.6,0,0,0,.059-.735,1.6,1.6,0,0,0,0-.168V317.8c.259.053.562.126.961.194a11.257,11.257,0,0,0,1.132.135c1.132.1,1.626.344,2.235.418a4.269,4.269,0,0,0,2.958-.935c.294,1.241.57,2.54.785,3.9q.185,1.176.294,2.317v.015c.132,1.214.209,2.411.244,3.581a51.229,51.229,0,0,1-1.835,14.91Z" transform="translate(-14424.595 -14374.97)" fill="#664f54"/>
      <path id="Path_12011" data-name="Path 12011" d="M118.541,270.17c.094-.294.329-1.044.929-1.261a1.552,1.552,0,0,1,1.294.238c1.414,1-.679,6.468-1.241,7.9h0c-.476,2.188-.967,4.657-1.441,6.848h-.021a2.117,2.117,0,0,1-1.764-2.449C116.823,278.406,116.888,275.389,118.541,270.17Z" transform="translate(-14415.074 -14340.553)" fill="#ffdcdc"/>
      <path id="Path_12012" data-name="Path 12012" d="M118.694,308.765l4.842,10.811,2.429,1.852a1.87,1.87,0,0,1-1.946.747,1.917,1.917,0,0,1-1.3-2.232q-3.014-4.61-6.03-9.217a1.694,1.694,0,0,1,.723-2.476h.018a4.236,4.236,0,0,1,.479.024,1.226,1.226,0,0,1,.782.491Z" transform="translate(-14415.179 -14368.362)" fill="#ffdcdc"/>
      <path id="Path_12013" data-name="Path 12013" d="M137.631,222.308a5.822,5.822,0,0,1-.679,2.408,6.355,6.355,0,0,1-3.725,2.94,2.1,2.1,0,0,0-.191-.294,2.058,2.058,0,0,0-.294-.323c-.068-.088-1.352-1.846-.688-3.4S135.226,221.117,137.631,222.308Z" transform="translate(-14426.086 -14307.312)" fill="#f03c3c"/>
      <rect id="Rectangle_24797" data-name="Rectangle 24797" width="4.31" height="6.357" transform="translate(-14320.891 -14071.373) rotate(180)" fill="#f28f8f"/>
      <path id="Path_12014" data-name="Path 12014" d="M19.37,218.934v.194l.15,3.422a4.2,4.2,0,0,0,.144.926,4.516,4.516,0,0,0,8.844-.926l.147-3.422a4.184,4.184,0,0,0-.026-.72c-.018-.15-.044-.294-.076-.447a3,3,0,0,0-.085-.32.779.779,0,0,0-.035-.109,4.551,4.551,0,0,0-.176-.447,4.7,4.7,0,0,0-7.689-1.176,4.551,4.551,0,0,0-.882,1.4c-.032.085-.065.171-.091.256l-.029.085c-.032.106-.059.215-.085.32A4.448,4.448,0,0,0,19.37,218.934Z" transform="translate(-14346.667 -14302.111)" fill="#ffb4b3"/>
      <path id="Path_12015" data-name="Path 12015" d="M23.76,233.111a.882.882,0,0,1,.9-.882.906.906,0,0,1,.882.914V234a.6.6,0,0,1-.588.588.588.588,0,0,1-.538-.323,2.058,2.058,0,0,0-.391-.523A.882.882,0,0,1,23.76,233.111Z" transform="translate(-14349.767 -14314.692)" fill="#f28f8f"/>
      <path id="Path_12016" data-name="Path 12016" d="M27.47,235.129a.529.529,0,1,1,.529.529.529.529,0,0,1-.529-.529Z" transform="translate(-14352.386 -14316.366)" fill="#ffb4b3"/>
      <path id="Path_12017" data-name="Path 12017" d="M18.1,222.372l1.338-.882c-1.047-1.294-1.111-2.74-.479-3.355a1.594,1.594,0,0,1,1.779-.238,1.691,1.691,0,0,1,.632,1.029c.294.958-.029,1.541.312,1.823.138.118.406.2.973,0-.553-1.079-.532-1.682-.294-2.029.173-.259.406-.218.506-.485.191-.509-.485-.97-.294-1.6a.659.659,0,0,1,.232-.35.65.65,0,0,1,.312-.118.732.732,0,0,1,.215.015,1.035,1.035,0,0,1,.4.2c.032.021.053.041.071.053a1.052,1.052,0,0,0,.45.179,3.572,3.572,0,0,0,2.432-.638l.1-.076a3.484,3.484,0,0,0,1.311-2.6c-.882-.1-2.164-.232-3.722-.338-3.566-.244-4.1-.053-4.428.106-1.764.85-2.417,2.94-2.646,4.116-.032.165-.082.4-.118.732a7.762,7.762,0,0,0,.917,4.457Z" transform="translate(-14345.102 -14301.007)" fill="#c78585"/>
      <path id="Path_12018" data-name="Path 12018" d="M50.439,430.152l.159,6.856a1.25,1.25,0,0,1-1.117.882,1.282,1.282,0,0,1-1.211-1.326q-.253-1.549-.5-3.09a7.056,7.056,0,0,1-.294-1.685,7.453,7.453,0,0,1,.944-3.94Z" transform="translate(-14366.505 -14452.798)" fill="#ffb4b3"/>
      <path id="Path_12019" data-name="Path 12019" d="M48.36,457.28a1.647,1.647,0,0,0,1.088.685,1.685,1.685,0,0,0,1.255-.326,15.309,15.309,0,0,0,3.84,3.155c.967.553,1.685.811,1.649,1.176-.056.567-1.9,1.008-3.475.794a5.956,5.956,0,0,1-2.74-1.155c-.1.232-.194.465-.294.7l-1.911-.318a3.493,3.493,0,0,1-.123-1.432,4.087,4.087,0,0,1,.379-1.25A4.472,4.472,0,0,0,48.36,457.28Z" transform="translate(-14366.613 -14473.575)" fill="#504f66"/>
      <path id="Path_12020" data-name="Path 12020" d="M20.5,429.335l.159,6.842a1.25,1.25,0,0,1-1.12.882,1.282,1.282,0,0,1-1.208-1.326q-.253-1.547-.5-3.09a7.039,7.039,0,0,1-.294-1.685,7.477,7.477,0,0,1,.95-3.957Z" transform="translate(-14345.368 -14452.197)" fill="#ffb4b3"/>
      <path id="Path_12021" data-name="Path 12021" d="M18.44,456.54a1.629,1.629,0,0,0,2.352.359,15.313,15.313,0,0,0,3.843,3.155c.967.553,1.685.811,1.649,1.176-.056.567-1.9,1.008-3.475.794a5.957,5.957,0,0,1-2.74-1.153l-.294.7-1.908-.318a3.487,3.487,0,0,1-.126-1.432,4.255,4.255,0,0,1,.379-1.25A4.393,4.393,0,0,0,18.44,456.54Z" transform="translate(-14345.499 -14473.053)" fill="#504f66"/>
      <path id="Path_12022" data-name="Path 12022" d="M10.72,333.464v.185l.106,2.3v.173l.065,1.379.344,7.292a3.255,3.255,0,0,0,3.255,3.1h0a3.258,3.258,0,0,0,3.267-3.064l.341-5.816.315-5.322a3.849,3.849,0,0,0-7.489-1.47h0l-.062.206A3.822,3.822,0,0,0,10.72,333.464Z" transform="translate(-14340.561 -14383.438)" fill="#767693"/>
      <path id="Path_12023" data-name="Path 12023" d="M13.814,394.069h4l1.223-21.478a3.261,3.261,0,0,0-3.258-3.381h0a3.258,3.258,0,0,0-3.255,3.358Z" transform="translate(-14341.835 -14411.398)" fill="#767693"/>
      <path id="Path_12024" data-name="Path 12024" d="M38.778,352.731h0a3.258,3.258,0,0,0,2.24-3.866L38.06,335.437a3.852,3.852,0,0,0-4.848-2.82h0a3.852,3.852,0,0,0-2.531,4.963l4.093,13.1A3.255,3.255,0,0,0,38.778,352.731Z" transform="translate(-14354.499 -14385.452)" fill="#767693"/>
      <path id="Path_12025" data-name="Path 12025" d="M45.328,401.777l3.849.065,1.885-18.25a3.258,3.258,0,0,0-3.211-3.422h0a3.258,3.258,0,0,0-3.3,3.311Z" transform="translate(-14364.442 -14419.136)" fill="#767693"/>
      <path id="Path_12026" data-name="Path 12026" d="M24.2,264.424l-7.974-1.614L8.9,264.868q2.1,10.937,4.2,21.875h6.574Z" transform="translate(-14339.275 -14336.282)" fill="#d63a51"/>
      <path id="Path_12027" data-name="Path 12027" d="M56.5,268.05a4.8,4.8,0,0,1,2.39,1.238c.953.947,1.27,2.188,1.426,4.454a34.988,34.988,0,0,1-.335,7.665c-.441,2.008-1.07,2.414-1.414,2.511h-.035c-.356.085-1.07.035-2.167-1.47-1.32-3.7-.121-4.837-1.441-8.526Z" transform="translate(-14371.765 -14339.981)" fill="#504f66"/>
      <path id="Path_12028" data-name="Path 12028" d="M4.53,261.853q.065,3.713.135,7.43.294,1.9.562,3.8c.456,3.067.5,3.364.562,3.8a54.936,54.936,0,0,1,.491,6.842c.882.2,1.591.315,2.073.379a22.123,22.123,0,0,0,11.661-1.5c.244-.106.438-.2.553-.25q-.138-1.738-.276-3.469.8-8.665,1.6-17.329c-.732-.223-1.505-.441-2.323-.638-1.279-.294-2.49-.532-3.619-.691.171-1.141-.053-1.532-.276-1.679-.52-.353-1.176.5-2.584.538-1.32.035-2-.706-2.479-.323-.215.168-.376.547-.215,1.447h-.026a.456.456,0,0,1,0-.062c-.223.041-1.308.25-2.455.509-.362.079-.729.168-1.079.253-.606.153-1.176.312-1.176.312l-.062.018a3.2,3.2,0,0,0-1.067.617Z" transform="translate(-14336.19 -14333.211)" fill="#504f66"/>
      <path id="Path_12029" data-name="Path 12029" d="M-.018,272.26c.071,2.138.547,6.271.911,8.682a1.587,1.587,0,0,0,1.67,1.273,2.487,2.487,0,0,0,.588-.073h.038c.4-.106,1.126-.485,1.805-2.126Q4.856,273.009,4.718,266H4.695a8.4,8.4,0,0,0-1.15.229c-.441.121-.832.226-1.176.353a3.2,3.2,0,0,0-1.056.594c-.059.053-.112.106-.168.165A5,5,0,0,0,.167,269.9c-.076.37-.118.706-.126.785a10.361,10.361,0,0,0-.059,1.57Z" transform="translate(-14332.974 -14338.534)" fill="#504f66"/>
      <path id="Path_12030" data-name="Path 12030" d="M24.944,296.19c2.646,1.029,5.439,2.014,8.379,2.92q1.226.379,2.432.726h.032c.068.023,1.535.562,1.629,1.685a2.458,2.458,0,0,1-.179,1.008l-.018.038a3.046,3.046,0,0,1-.623.882,1.993,1.993,0,0,1-.938.382,4.187,4.187,0,0,1-2.17-.221c-1.22-.456-5.06-2.058-10.208-4.363Z" transform="translate(-14349.428 -14359.848)" fill="#504f66"/>
      <path id="Path_12031" data-name="Path 12031" d="M17.66,217.19a4.39,4.39,0,0,1,.817-1,3.5,3.5,0,0,1,1.047-.659,3.752,3.752,0,0,1,2.264-.191,12.318,12.318,0,0,1,1.914.832l.074.035.326.165.138.068a2.714,2.714,0,0,0,1.079.191,3.484,3.484,0,0,0,1.735-.664l.1-.076a3.484,3.484,0,0,0,1.311-2.6c-.882-.1-2.164-.232-3.722-.338-3.566-.244-4.1-.053-4.428.106C18.563,213.915,17.9,216.011,17.66,217.19Z" transform="translate(-14345.46 -14301)" fill="#7d6161"/>
      <path id="Path_12032" data-name="Path 12032" d="M27.93,298.21l3.087-.612a2.464,2.464,0,0,1,4.369,1.176l-4.622.256-1.438,1.32Q28.63,299.286,27.93,298.21Z" transform="translate(-14352.71 -14360.184)" fill="#ffb4b3"/>
      <path id="Path_12033" data-name="Path 12033" d="M20.734,298.623l-3-.967a2.464,2.464,0,0,0-4.478.667l4.563.791,1.273,1.47Z" transform="translate(-14342.354 -14360.058)" fill="#ffb4b3"/>
      <path id="Path_12034" data-name="Path 12034" d="M2.993,303.911c0-.018-.015-.032-.015-.038a2.581,2.581,0,0,1-.156-1.014c.106-1.158,1.494-1.823,1.558-1.855l.029-.015a41.452,41.452,0,0,1,4.637-1.808c.667-.209,1.532-.465,2.561-.72a18.046,18.046,0,0,1,1.32,1.373c.365.415.688.823.976,1.214-3.611,1.843-6.321,3.131-7.406,3.634a3.919,3.919,0,0,1-2.058.4,1.623,1.623,0,0,1-.882-.318,2.679,2.679,0,0,1-.565-.853Z" transform="translate(-14334.983 -14361.45)" fill="#504f66"/>
      <path id="Path_12035" data-name="Path 12035" d="M41.533,240.962c-.044-.029-.173-.071-.517.188a1.088,1.088,0,0,0-.653-.588c-.829-.182-1.62,1.279-2.19,1.029a.559.559,0,0,1-.294-.526.726.726,0,0,1,.565-.588.917.917,0,0,0-.856.476.859.859,0,0,0-.044.653,1.1,1.1,0,0,0,.664.588,2.14,2.14,0,0,0,2.673-.811.988.988,0,0,1,.2.462.95.95,0,0,1-.018.332.967.967,0,0,0,.294-.232C41.659,241.615,41.709,241.071,41.533,240.962Z" transform="translate(-14359.466 -14320.515)" fill="#7d6161"/>
    </g>
  </g>
</svg>
