<svg xmlns="http://www.w3.org/2000/svg" xmlns:xlink="http://www.w3.org/1999/xlink" width="231.763" height="249.67" viewBox="0 0 231.763 249.67">
  <defs>
    <linearGradient id="linear-gradient" x1="0.676" y1="0.104" x2="0.346" y2="0.846" gradientUnits="objectBoundingBox">
      <stop offset="0" stop-color="#6d6afe"/>
      <stop offset="1" stop-color="#3fb0f7"/>
    </linearGradient>
    <linearGradient id="linear-gradient-2" x1="0.435" y1="0.35" x2="0.565" y2="0.643" xlink:href="#linear-gradient"/>
    <linearGradient id="linear-gradient-3" x1="0.548" y1="0.201" x2="0.451" y2="0.861" gradientUnits="objectBoundingBox">
      <stop offset="0" stop-color="#ff8a78"/>
      <stop offset="1" stop-color="#ffa799"/>
    </linearGradient>
    <linearGradient id="linear-gradient-4" x1="0.445" y1="0.815" x2="0.485" y2="0.491" gradientUnits="objectBoundingBox">
      <stop offset="0" stop-color="#1c8ef4"/>
      <stop offset="1" stop-color="#00cfdd"/>
    </linearGradient>
    <linearGradient id="linear-gradient-5" x1="0.472" y1="0.765" x2="0.54" y2="0.021" xlink:href="#linear-gradient-4"/>
    <linearGradient id="linear-gradient-6" x1="0.895" y1="0.211" x2="0.064" y2="0.772" gradientUnits="objectBoundingBox">
      <stop offset="0" stop-color="#235da3"/>
      <stop offset="1" stop-color="#123a76"/>
    </linearGradient>
    <linearGradient id="linear-gradient-7" x1="0.92" y1="0.331" x2="0.232" y2="0.752" xlink:href="#linear-gradient-6"/>
    <linearGradient id="linear-gradient-8" x1="0.472" y1="0.795" x2="0.546" y2="0.041" xlink:href="#linear-gradient-4"/>
    <linearGradient id="linear-gradient-9" x1="0.458" y1="0.79" x2="0.529" y2="0.076" xlink:href="#linear-gradient-4"/>
    <linearGradient id="linear-gradient-10" x1="0.555" y1="0.428" x2="0.302" y2="0.658" xlink:href="#linear-gradient-3"/>
    <linearGradient id="linear-gradient-11" x1="0.597" y1="0.241" x2="0.312" y2="0.78" gradientUnits="objectBoundingBox">
      <stop offset="0" stop-color="#ffb89e"/>
      <stop offset="1" stop-color="#ffa799"/>
    </linearGradient>
    <linearGradient id="linear-gradient-12" x1="0.653" y1="0.689" x2="0.448" y2="0.387" gradientUnits="objectBoundingBox">
      <stop offset="0" stop-color="#8a4791"/>
      <stop offset="1" stop-color="#562e65"/>
    </linearGradient>
    <linearGradient id="linear-gradient-13" x1="0.531" y1="0.548" x2="0.396" y2="0.339" gradientUnits="objectBoundingBox">
      <stop offset="0" stop-color="#965cf2"/>
      <stop offset="1" stop-color="#ff8adc"/>
    </linearGradient>
    <linearGradient id="linear-gradient-14" x1="0.556" y1="0.674" x2="0.384" y2="-0.012" xlink:href="#linear-gradient-4"/>
    <linearGradient id="linear-gradient-15" x1="0.389" y1="0.257" x2="0.629" y2="0.741" xlink:href="#linear-gradient"/>
    <linearGradient id="linear-gradient-16" x1="0.563" y1="0.576" x2="0.322" y2="0.284" gradientUnits="objectBoundingBox">
      <stop offset="0" stop-color="#fa5db1"/>
      <stop offset="1" stop-color="#febfbf"/>
    </linearGradient>
    <linearGradient id="linear-gradient-17" x1="0.408" y1="0.28" x2="0.619" y2="0.783" gradientUnits="objectBoundingBox">
      <stop offset="0" stop-color="#fd90da"/>
      <stop offset="1" stop-color="#8e6dfd"/>
    </linearGradient>
    <linearGradient id="linear-gradient-18" x1="0.621" y1="0.703" x2="0.379" y2="0.297" xlink:href="#linear-gradient"/>
    <linearGradient id="linear-gradient-19" x1="0.486" y1="0.136" x2="0.509" y2="0.723" gradientUnits="objectBoundingBox">
      <stop offset="0" stop-color="#5a2d68"/>
      <stop offset="1" stop-color="#22043d"/>
    </linearGradient>
    <linearGradient id="linear-gradient-20" x1="0.386" y1="0.116" x2="0.467" y2="0.324" gradientUnits="objectBoundingBox">
      <stop offset="0" stop-color="#3e4795"/>
      <stop offset="1" stop-color="#273088"/>
    </linearGradient>
    <linearGradient id="linear-gradient-21" x1="0.406" y1="0.325" x2="0.452" y2="0.433" xlink:href="#linear-gradient-20"/>
    <linearGradient id="linear-gradient-22" x1="0.286" y1="0.567" x2="0.22" y2="0.596" xlink:href="#linear-gradient-3"/>
    <linearGradient id="linear-gradient-23" x1="0.16" y1="0.754" x2="0.757" y2="0.251" xlink:href="#linear-gradient-13"/>
    <linearGradient id="linear-gradient-24" x1="0.343" y1="0.841" x2="0.537" y2="0.227" xlink:href="#linear-gradient-13"/>
    <linearGradient id="linear-gradient-25" x1="0.436" y1="0.489" x2="0.523" y2="0.419" xlink:href="#linear-gradient-3"/>
    <linearGradient id="linear-gradient-26" x1="0.428" y1="0.845" x2="0.572" y2="-0.158" xlink:href="#linear-gradient-13"/>
    <linearGradient id="linear-gradient-27" x1="0.496" y1="0.461" x2="0.467" y2="0.994" xlink:href="#linear-gradient-3"/>
    <linearGradient id="linear-gradient-28" x1="0.277" y1="0.372" x2="0.543" y2="0.859" xlink:href="#linear-gradient-11"/>
    <linearGradient id="linear-gradient-29" x1="0.449" y1="0.347" x2="0.594" y2="0.673" xlink:href="#linear-gradient"/>
    <linearGradient id="linear-gradient-30" x1="0.529" y1="0.531" x2="0.397" y2="0.391" xlink:href="#linear-gradient-4"/>
    <linearGradient id="linear-gradient-31" x1="0.76" y1="0.727" x2="0.265" y2="0.422" xlink:href="#linear-gradient-4"/>
    <linearGradient id="linear-gradient-32" x1="1.259" y1="0.858" x2="0.342" y2="0.47" xlink:href="#linear-gradient-3"/>
    <linearGradient id="linear-gradient-33" x1="0.46" y1="0.352" x2="0.591" y2="0.646" xlink:href="#linear-gradient"/>
    <linearGradient id="linear-gradient-34" x1="0.52" y1="0.556" x2="0.431" y2="0.313" xlink:href="#linear-gradient-13"/>
    <linearGradient id="linear-gradient-35" x1="0.456" y1="0.594" x2="0.201" y2="0.054" xlink:href="#linear-gradient-13"/>
    <linearGradient id="linear-gradient-36" x1="0.5" y1="1" x2="0.5" gradientUnits="objectBoundingBox">
      <stop offset="0" stop-color="#46089e"/>
      <stop offset="0.05" stop-color="#560caa"/>
      <stop offset="0.17" stop-color="#7815c4"/>
      <stop offset="0.3" stop-color="#951cd9"/>
      <stop offset="0.44" stop-color="#ab22ea"/>
      <stop offset="0.59" stop-color="#bb26f6"/>
      <stop offset="0.76" stop-color="#c428fd"/>
      <stop offset="1" stop-color="#c729ff"/>
    </linearGradient>
    <linearGradient id="linear-gradient-37" x1="-0.177" y1="0.5" x2="1.081" y2="0.5" gradientUnits="objectBoundingBox">
      <stop offset="0" stop-color="#7dc3ff"/>
      <stop offset="0.25" stop-color="#a6d6ff"/>
      <stop offset="0.59" stop-color="#d6ecff"/>
      <stop offset="0.85" stop-color="#f4faff"/>
      <stop offset="1" stop-color="#fff"/>
    </linearGradient>
    <linearGradient id="linear-gradient-38" y1="0.5" x2="1" y2="0.5" gradientUnits="objectBoundingBox">
      <stop offset="0" stop-color="#0d66bd"/>
      <stop offset="0.02" stop-color="#0d6ebd"/>
      <stop offset="0.15" stop-color="#0d90be"/>
      <stop offset="0.28" stop-color="#0dadbf"/>
      <stop offset="0.42" stop-color="#0dc3c0"/>
      <stop offset="0.58" stop-color="#0dd3c1"/>
      <stop offset="0.75" stop-color="#0ddcc1"/>
      <stop offset="1" stop-color="#0ddfc1"/>
    </linearGradient>
  </defs>
  <g id="Group_13135" data-name="Group 13135" transform="translate(12864 13030.052)">
    <path id="Path_12334" data-name="Path 12334" d="M773.345,197.317a15.627,15.627,0,0,1-2.5,1.823l.819,1.415a17.331,17.331,0,0,0,2.768-2.015l-1.079-1.227Zm-26.326-41.231-.819-1.419,2.836-1.625.819,1.417-2.834,1.627Zm5.5-3.345-.819-1.417,2.834-1.625.819,1.417Zm7.08-4.064-.819-1.417,2.834-1.627.819,1.419Zm7.086-4.064-.819-1.417,2.835-1.627.819,1.417-2.834,1.627Zm7.031-3.7a5.912,5.912,0,0,1,2.834-.146l.364-1.592a7.481,7.481,0,0,0-3.628.164l.431,1.576Zm5.876,2.444a8.335,8.335,0,0,1,.686,2.871l1.638-.106a9.958,9.958,0,0,0-.819-3.44l-1.489.673Zm.735,7.732,1.638-.011.023,3.276-1.638.011Zm.056,8.169,1.638-.011.021,3.268-1.638.011-.023-3.268Zm.056,8.169,1.638-.011.021,3.276-1.638.01-.023-3.266Zm.057,8.169,1.638-.012.023,3.266-1.638.011L780.5,175.6Zm-.018,8.08a16.885,16.885,0,0,1-.585,3.061l1.572.447a18.938,18.938,0,0,0,.639-3.35l-1.627-.164Zm-2.346,7.435a23.765,23.765,0,0,1-1.661,2.688l1.328.952a25.446,25.446,0,0,0,1.771-2.87Z" transform="translate(-13487.97 -13160.62)" fill="#fff" fill-rule="evenodd"/>
    <path id="Path_12335" data-name="Path 12335" d="M343.244,355.363l-.819-1.417,2.834-1.627.819,1.417Zm-10.667,97.881-2.483,1.425.819,1.417,2.483-1.425Zm-6.736,3.858.819,1.417-2.834,1.625-.819-1.417Zm-7.032,3.931a7.349,7.349,0,0,1-2.857.616l-.02,1.638a8.979,8.979,0,0,0,3.494-.735l-.618-1.514Zm-6.388-1.189a6.6,6.6,0,0,1-1.061-2.68l-1.61.282a8.247,8.247,0,0,0,1.338,3.343Zm-1.235-7.432h-1.638l-.011-3.268h1.638Zm-.028-8.169H309.52l-.011-3.268h1.638Zm-.029-8.169H309.49l-.011-3.266h1.638l.01,3.268Zm-.028-8.169h-1.638l-.011-3.266h1.638l.011,3.268Zm-.031-8.164h-1.638v-3.263h1.638l.011,3.268Zm-.028-8.169H309.4l-.011-3.276h1.638l.012,3.268Zm-.028-8.169h-1.638l-.011-3.276H311l.011,3.268Zm-.028-8.169h-1.638l-.011-3.276h1.638l.011,3.268Zm-.028-8.169H309.32v-1.938h1.638v1.936Zm1.094-7.751a22.582,22.582,0,0,1,1.273-2.881l-1.446-.763a23.844,23.844,0,0,0-1.363,3.093Zm3.874-6.832a27.557,27.557,0,0,1,2.157-2.274L317,368.987a21.3,21.3,0,0,0-2.337,2.457l1.265,1.034Zm6.061-4.927-.819-1.417L324,364.514l.819,1.417-2.835,1.625Zm7.086-4.064-.819-1.417,2.834-1.627.819,1.419-2.835,1.625Zm7.086-4.064-.819-1.417,2.834-1.627.819,1.417Z" transform="translate(-13122.652 -13338.974)" fill="#fff" fill-rule="evenodd"/>
    <path id="Path_12340" data-name="Path 12340" d="M352.239,1340.322l69.125-39.477c2.565-1.173,6.336-2.278,8.845-.745l6.452,3.915c1.3.789,5.555,3.409,2.706,4.957-8.382,4.559-61.936,35.849-70.445,40.479a11.929,11.929,0,0,1-6.437.983,16.17,16.17,0,0,1-6.97-2.075l-2.573-1.587c-1.818-1.12-2.824-2.346-2.922-3.522C349.927,1342.105,350.665,1341.041,352.239,1340.322Z" transform="translate(-13156.68 -14130.876)" fill="#955cf1" fill-rule="evenodd" opacity="0.25"/>
    <path id="Path_12341" data-name="Path 12341" d="M373.494,482.747c.01,3.365,1.211,5.733,3.129,6.849l3.043,1.833c10.442-4.455,6.567-57.375,7.207-72.419l-3.207-78.953c2.7-4.711,13.068-8.822,10.647-18.443l30.605-14.326c1.36-.926,37.075-21.609,30.664-25.488-1.071-.655-2.129-1.3-3.193-1.917-2.365-1.4-5.388-.532-7.607.747h0l-60.9,34.931C377.91,319,373.222,327.338,373.24,334Z" transform="translate(-13176.102 -13277.803)" fill="#303a7d" fill-rule="evenodd"/>
    <path id="Path_12342" data-name="Path 12342" d="M474.964,298.393c0-3.3-1.147-5.641-3-6.783-1.951-1.2-4.686-1.073-7.714.675l-60.9,34.929c-5.9,3.4-10.665,11.668-10.647,18.443l.254,148.75c.02,6.773,4.824,9.512,10.718,6.108l60.9-34.931c5.9-3.407,10.667-11.669,10.647-18.441Z" transform="translate(-13192.374 -13287.547)" fill-rule="evenodd" fill="url(#linear-gradient)"/>
    <path id="Path_12343" data-name="Path 12343" d="M765.372,363.433a2.849,2.849,0,0,0,.341,1.41,1.782,1.782,0,0,0,1.592.914,2.85,2.85,0,0,0,1.417-.426l4.819-2.747a5.855,5.855,0,0,0,2-2.077,6.161,6.161,0,0,0,.853-2.516l.129-.074a2.585,2.585,0,0,0,1.193-2.067l-.023-.608a1.33,1.33,0,0,0-.164-.645.952.952,0,0,0-.349-.354.935.935,0,0,0-.48-.123,1.323,1.323,0,0,0-.655.192l-.136.075a1.74,1.74,0,0,0-.983-.695,2.294,2.294,0,0,0-1.453.121,3.574,3.574,0,0,0-.482.234l-4.8,2.752a6.3,6.3,0,0,0-2.881,4.994l.062,1.638Zm1.119.958a1.933,1.933,0,0,1-.219-.973l-.064-1.638a5.425,5.425,0,0,1,2.434-4.2l4.816-2.745a2.857,2.857,0,0,1,.364-.177,1.412,1.412,0,0,1,.886-.092.886.886,0,0,1,.544.432,1.293,1.293,0,0,1,.084.179l.192.491c.2-.118.855-.45.983-.563a.454.454,0,0,1,.21-.072.061.061,0,0,1,.033,0,.043.043,0,0,1,.018.02.444.444,0,0,1,.041.213l.023.608a1.7,1.7,0,0,1-.744,1.274l-.559.308-.008.252a5.113,5.113,0,0,1-.753,2.342,4.945,4.945,0,0,1-1.679,1.758l-4.819,2.747a2,2,0,0,1-.966.306.886.886,0,0,1-.819-.469Z" transform="translate(-13503.95 -13340.067)" fill="aqua" fill-rule="evenodd"/>
    <path id="Path_12344" data-name="Path 12344" d="M443.16,560.9l.55-1.373,1.438-.819-.016,5.853-.94.541.013-4.794-1.045.6Zm5.9.108a4.689,4.689,0,0,0,.249-1.746,2.994,2.994,0,0,0-.216-1.474.393.393,0,0,0-.568-.11,1.434,1.434,0,0,0-.452.432,2.864,2.864,0,0,0-.277.788,6.733,6.733,0,0,0-.1,1.35,2.632,2.632,0,0,0,.216,1.4c.149.2.347.228.6.082a1.366,1.366,0,0,0,.547-.714Zm.385-4.608c.275.041.472.274.621.616a4.533,4.533,0,0,1,.216,1.659,7.277,7.277,0,0,1-.226,1.966,4.065,4.065,0,0,1-.6,1.293,2.976,2.976,0,0,1-.942.834,1.409,1.409,0,0,1-.971.265.894.894,0,0,1-.622-.588,5.087,5.087,0,0,1-.192-1.664,6.346,6.346,0,0,1,.424-2.565,3.276,3.276,0,0,1,1.355-1.579,1.444,1.444,0,0,1,.935-.236Z" transform="translate(-13234.569 -13509.617)" fill="aqua" fill-rule="evenodd"/>
    <path id="Path_12345" data-name="Path 12345" d="M492.654,555.138a1.3,1.3,0,0,0,.588-.919c.023-.328-.2-.462-.5-.288a1.3,1.3,0,0,0-.588.921C492.123,555.189,492.353,555.313,492.654,555.138Z" transform="translate(-13275.532 -13507.496)" fill="aqua" fill-rule="evenodd"/>
    <path id="Path_12346" data-name="Path 12346" d="M492.654,572.655a1.3,1.3,0,0,0,.588-.919c.023-.328-.2-.464-.5-.288a1.3,1.3,0,0,0-.588.921C492.123,572.7,492.353,572.83,492.654,572.655Z" transform="translate(-13275.532 -13522.143)" fill="aqua" fill-rule="evenodd"/>
    <path id="Path_12347" data-name="Path 12347" d="M503.9,525.857l.549-1.373,1.44-.827-.018,5.853-.94.541.013-4.795-1.043.6Zm5.9.108a4.72,4.72,0,0,0,.249-1.744,2.987,2.987,0,0,0-.216-1.474.392.392,0,0,0-.568-.108,1.413,1.413,0,0,0-.452.431,2.915,2.915,0,0,0-.278.788,6.855,6.855,0,0,0-.1,1.35,2.633,2.633,0,0,0,.216,1.4c.151.2.347.228.6.082a1.366,1.366,0,0,0,.547-.714Zm.383-4.608c.277.041.473.274.622.616a4.532,4.532,0,0,1,.216,1.659,7.278,7.278,0,0,1-.226,1.966,4.061,4.061,0,0,1-.6,1.292,2.947,2.947,0,0,1-.942.834,1.421,1.421,0,0,1-.971.267.9.9,0,0,1-.622-.59,5.078,5.078,0,0,1-.193-1.664,6.328,6.328,0,0,1,.426-2.564,3.276,3.276,0,0,1,1.355-1.581,1.437,1.437,0,0,1,.934-.236Z" transform="translate(-13285.359 -13480.316)" fill="aqua" fill-rule="evenodd"/>
    <path id="Path_12348" data-name="Path 12348" d="M379.855,758.276l45.9-27.534c2.849-1.8,7.94-2.1,7.953,2.714l.251,14.742a12.028,12.028,0,0,1-5.184,9.25q-24.305,14.076-48.635,28.1a4.26,4.26,0,0,1-3.289.631l-3.212-3.406-.07-13.039C373.553,766.278,376.846,760.021,379.855,758.276Z" transform="translate(-13176.378 -13654.399)" fill-rule="evenodd" opacity="0.5" fill="url(#linear-gradient-2)"/>
    <path id="Path_12349" data-name="Path 12349" d="M393.773,893.929a11.8,11.8,0,0,1,3.091-1.6,17.423,17.423,0,0,0-.909-1.862,3.512,3.512,0,0,0-.164-.862,15.3,15.3,0,0,1-.544-1.731,22.9,22.9,0,0,1-3.276,2.349A2.817,2.817,0,0,0,393.773,893.929Z" transform="translate(-13191.578 -13786.798)" fill="#ff8d7c" fill-rule="evenodd"/>
    <path id="Path_12350" data-name="Path 12350" d="M411.6,873.218c2.555-.819,5.211-.172,6.154-1.31.441-.842-2.373-2.021-4.632-2.883-2.377-.906-2.331-.889-4.023-.013-1.037.537-1.733.921-1.758.932a8.308,8.308,0,0,1-2.052,1.512,4.955,4.955,0,0,0-1.474,1.6,2.3,2.3,0,0,0-.077,2.113c.27.555.773.591,1.4.943a2.28,2.28,0,0,0,1.935.36C407.88,876.3,409.346,873.7,411.6,873.218Z" transform="translate(-13201.421 -13770.476)" fill="#ffa698" fill-rule="evenodd"/>
    <path id="Path_12351" data-name="Path 12351" d="M423.254,881.965l4.367-.595c1.517-.655-4.329-2.621-5.145-2.465a7.692,7.692,0,0,0-3.5,2.141c-.993.983-1.9,2.089-1.638,2.754.247.634.732.436,1.2,1.183l.121.292C420.39,884.483,420.743,882.616,423.254,881.965Z" transform="translate(-13212.941 -13779.296)" fill-rule="evenodd" fill="url(#linear-gradient-3)"/>
    <path id="Path_12352" data-name="Path 12352" d="M404.724,877.352a11.851,11.851,0,0,1,1.474-2.395c.234-.264,1.35-.467,2.837-1.5.819,1.4-.773,1.758-1.638,2.834-.372.46-.428,2.056-1.622,2.526C404.914,879.155,404.391,878.163,404.724,877.352Z" transform="translate(-13202.344 -13774.75)" fill="#ffa698" fill-rule="evenodd"/>
    <path id="Path_12353" data-name="Path 12353" d="M412.569,875.727c.236-.264,2.224-.939,2.279-2.267.819,1.4-.939,1.848-1.853,2.7-.432.4-.221,2.19-1.415,2.66A5.435,5.435,0,0,0,412.569,875.727Z" transform="translate(-13208.162 -13774.75)" fill="#ff8d7c" fill-rule="evenodd"/>
    <path id="Path_12354" data-name="Path 12354" d="M255.1,859.4c4.552-1.424,7.849-5.209,11.7-8.174.416-.328.544-.778.983-1.073q.426-.285.867-.55a5.6,5.6,0,0,1-1.448-4.11,7.74,7.74,0,0,1-1.124.7c-.491.241-.655.069-1.638.472-2.129.871-8.955,3.767-10.457,5.1-1.071-2.785-1.941-5.962-3.532-9.443-2.033-7.184-5.419-7.286-7.687-6.071-1.759.944-2.736,2.745-1.52,7.168,1.04,3.79,4.161,9.958,7.823,15.116a4.508,4.508,0,0,0,3.584,1.592A17.571,17.571,0,0,0,255.1,859.4Z" transform="translate(-13065.273 -13743.149)" fill-rule="evenodd" fill="url(#linear-gradient-4)"/>
    <path id="Path_12355" data-name="Path 12355" d="M253.757,855.57c.532,1.4,7.813-.745,9.532-1.451a37.28,37.28,0,0,1-4.144,3.312c-2.871,1.815-6.02,2.839-7.2,2.7a4.574,4.574,0,0,1-2.876-1.609c-3.663-5.158-6.783-11.325-7.82-15.121-1.212-4.423-.236-6.234,1.522-7.173,2.269-1.215,5.654-1.114,7.687,6.071C252.24,848.88,252.246,852.3,253.757,855.57Z" transform="translate(-13065.284 -13743.124)" fill-rule="evenodd" opacity="0.35" fill="url(#linear-gradient-5)"/>
    <path id="Path_12356" data-name="Path 12356" d="M114.063,1380.62a8.932,8.932,0,0,0-3.292,2.071,4.245,4.245,0,0,0-.164,2.653l.316.455c.475,1.433-.983,3.566-.886,5.242.067,1.179,1.042,2.695,2.088,4.125,1.117,1.527,2.8,2.364,3.484,1,1.551-3.084.924-8.726,2.934-11.922C118.577,1384.194,114.574,1381.039,114.063,1380.62Z" transform="translate(-12956.009 -14198.834)" fill="#193161" fill-rule="evenodd"/>
    <path id="Path_12357" data-name="Path 12357" d="M156.4,1072.089l-.023.056a5.556,5.556,0,0,1-.827,1.83c-4.552,5.284-17.3,17.6-21.5,23.032-2.621-.154-4.7-2.152-4.465-4.259,3.45-5.3,9.925-15.327,12.069-18.048a33.329,33.329,0,0,1,5.458-5.078c-1.782-7.592-5.078-18.374-4.516-24.821.28-3.191,2.152-6.786,2.6-9.442,2.559,2.693,8.963,2.559,12.121,1.4l.018,4.482-.428,2.246a25.146,25.146,0,0,0,.2,4.287A95.538,95.538,0,0,1,156.4,1072.089Z" transform="translate(-12972.345 -13910.129)" fill-rule="evenodd" fill="url(#linear-gradient-6)"/>
    <path id="Path_12358" data-name="Path 12358" d="M170.392,1113.187c-2.876,3.06-6.983,6.151-17.232,15.782,3.191-4.888,6.741-10.256,8.223-12.136a33.256,33.256,0,0,1,5.458-5.078c-1.782-7.592-5.078-18.374-4.516-24.821l9.545-1.184C170.756,1094.623,171.915,1104.188,170.392,1113.187Z" transform="translate(-12992.072 -13952.265)" fill="#1e2353" fill-rule="evenodd" opacity="0.3"/>
    <path id="Path_12359" data-name="Path 12359" d="M9.078,1165.349a7.5,7.5,0,0,0-2.888-.041c-.911.449-1.166,1.191-1.684,2.057l-.008.554c-.452,1.442-2.88,2.323-3.781,3.736-.636,1-.729,2.8-.714,4.567.015,1.892.991,3.718,2.242,2.85,2-1.392,4.108-4.1,6.413-6.061C11.507,1170.574,12.788,1166.071,9.078,1165.349Z" transform="translate(-12864.002 -14018.691)" fill="#193161" fill-rule="evenodd"/>
    <path id="Path_12360" data-name="Path 12360" d="M60.678,1087.186a4.2,4.2,0,0,1-.68-.328c-5.628-3.84-12.542-8.995-18.5-12.629-2.129-1.3-.254-7.759,3.815-5.769a43.869,43.869,0,0,0,10.1,3.826,26.788,26.788,0,0,1,4.372,1.25c.288-8.413.219-12.449,2.293-17.443,1.194-2.873,3.846-5.5,5.039-7.853,1.115,2.129,2.862,5.189,7.227,5.255.428,0,4.287-2.226,5.509-2.406-2.39,8.958-7.892,20.431-10.975,30.156-.336,1.351-1.491,4.644-2.562,5.612A4.621,4.621,0,0,1,60.678,1087.186Z" transform="translate(-12897.964 -13920.899)" fill-rule="evenodd" fill="url(#linear-gradient-7)"/>
    <path id="Path_12361" data-name="Path 12361" d="M84.68,1190.406c-.219-.1-.447-.21-.68-.328-3.948-8.046-1.966-10.123-14.68-18.4a43.876,43.876,0,0,0,10.1,3.827,26.787,26.787,0,0,1,4.372,1.25c-.057,1.7-.131,3.579-.239,5.681-.144,2.8-1.183,6.031.935,7.825A1.518,1.518,0,0,0,84.68,1190.406Z" transform="translate(-12921.966 -14024.119)" fill="#1e2353" fill-rule="evenodd" opacity="0.3"/>
    <path id="Path_12362" data-name="Path 12362" d="M160.367,840.3a3.627,3.627,0,0,1,1.358.457c3.237,1.8,4.365,7.088,4.886,11.722a70.18,70.18,0,0,1-.02,11.034c-.1,2.934.277,5.648.146,8.426-.039.819-.352,1.715-.436,2.59,0,.627-.219,1.25-.213,1.733-1.62,6.18-16.937,6.691-19.165,2.508a12.394,12.394,0,0,0,.393-1.872c-1.443-1.31-.609-4.515-.837-6.75a17.768,17.768,0,0,0-.909-4.616c-2.082-5.13-4.991-9.081-5.569-13.021-.4-2.713,3.07-6.09,7.641-8.826C152.041,841.048,158.011,839.617,160.367,840.3Z" transform="translate(-12981.043 -13746.878)" fill-rule="evenodd" fill="url(#linear-gradient-8)"/>
    <path id="Path_12363" data-name="Path 12363" d="M183.4,910.5a34.146,34.146,0,0,1-7.345,5.786c-4.331,2.526-10.139,4.477-15.915,3.2l.452.835a18.216,18.216,0,0,0,3.52.306l-1.735,3.6.057.141c.062.152.12.311.174.477l1.8-3.745,2.347,3.959a16.765,16.765,0,0,1-4.126-.147c.082.255.154.526.221.808,9.545,1.381,18.077-5.733,20.821-8.318.011-.377.021-.755.026-1.135-.354.354-.993.968-1.869,1.717l1.682-6.336c-.039-.387-.082-.765-.111-1.147Zm-21.473,10.708a.432.432,0,0,1,.388.432.365.365,0,0,1-.388.378.434.434,0,0,1-.39-.434.364.364,0,0,1,.39-.377Zm21.674-6.224a.316.316,0,0,1,.1.02v.785a.408.408,0,0,1-.1,0,.436.436,0,0,1-.385-.423.363.363,0,0,1,.39-.377Zm-2.5-.39a.432.432,0,0,1,.388.432.365.365,0,0,1-.388.378.434.434,0,0,1-.39-.434.364.364,0,0,1,.39-.377Zm-1.559,3.694a.434.434,0,0,1,.39.434.364.364,0,0,1-.39.377.433.433,0,0,1-.388-.432.365.365,0,0,1,.388-.378Zm-2.937-.721a.434.434,0,0,1,.39.432.367.367,0,0,1-.39.378.436.436,0,0,1-.39-.434.364.364,0,0,1,.39-.377Zm-1.743,3.406a.432.432,0,0,1,.388.432.365.365,0,0,1-.388.378.434.434,0,0,1-.39-.434.365.365,0,0,1,.39-.377Zm-2.912-1.147a.432.432,0,0,1,.388.432.365.365,0,0,1-.388.378.434.434,0,0,1-.39-.434.364.364,0,0,1,.39-.377Zm-2.324,3.076a.434.434,0,0,1,.388.434.364.364,0,0,1-.388.377.432.432,0,0,1-.39-.432.365.365,0,0,1,.39-.378Zm-2.74-1.774a.436.436,0,0,1,.39.434.364.364,0,0,1-.39.377.434.434,0,0,1-.39-.432.367.367,0,0,1,.39-.378Zm-2.342,2.395a.433.433,0,0,1,.39.432.365.365,0,0,1-.39.37.432.432,0,0,1-.388-.432.365.365,0,0,1,.388-.37Zm2.8,1.492,2.059-4.932,2.794,3.738a21.2,21.2,0,0,1-4.862,1.193Zm5.494-1.435,1.428-5.147,2.8,3.021a29.373,29.373,0,0,1-4.228,2.13Zm5.006-2.613,1.219-5.369,2.01,3.035A36.209,36.209,0,0,1,177.841,920.967Zm-13.188-.328a19.489,19.489,0,0,0,4.28-.557l-1.936,4.5-2.349-3.961Zm5.078-.744a25.507,25.507,0,0,0,4.066-1.525l-1.394,4.975-2.68-3.463Zm4.767-1.867a33.755,33.755,0,0,0,4.13-2.5l-1.3,5.558-2.839-3.066Zm4.68-2.876a37.559,37.559,0,0,0,3.677-3.044l-1.548,6.072Z" transform="translate(-12997.909 -13805.722)" fill="#00cedc" fill-rule="evenodd"/>
    <path id="Path_12364" data-name="Path 12364" d="M166.806,899.09c-.047,1.725-.164,3.415-.221,5.184-.072,2.08.1,4.051.156,6.01-6.678,3.478-10.926,4.8-15.334,1.234.218,3.874-1.014,6.259-.586,8.536,6.706,1.158,11.1-.026,15.167-2.721-2.041,5.885-16.872,6.311-19.072,2.2a12.4,12.4,0,0,0,.393-1.872c-1.441-1.31-.609-4.514-.837-6.75a17.768,17.768,0,0,0-.909-4.616c-2.084-5.13-4.991-9.081-5.569-13.021a4.133,4.133,0,0,1,.622-2.6c3.643-3.768,6.311-2.336,17.746,11.63A52.977,52.977,0,0,0,166.806,899.09Z" transform="translate(-12981.036 -13787.642)" fill-rule="evenodd" opacity="0.35" fill="url(#linear-gradient-9)"/>
    <path id="Path_12365" data-name="Path 12365" d="M212.125,821.247c.048-.247.106-.491.164-.758.152-.757-.046-2.226.164-3.958L205.9,813.76c-.11,3.684-.713,4.442-1.391,7.443.072,2.948,7.4,4.272,7.556.806A5.38,5.38,0,0,1,212.125,821.247Z" transform="translate(-13035.011 -13724.828)" fill="#ffa698" fill-rule="evenodd"/>
    <path id="Path_12366" data-name="Path 12366" d="M218.391,821.247c.048-.247.106-.491.164-.758.152-.757-.046-2.226.164-3.958l-6.552-2.771c-.026.837-.075,1.525-.147,2.129-.233,2.439,2.1,6.688,6.313,6.125a5.378,5.378,0,0,1,.059-.767Z" transform="translate(-13041.276 -13724.828)" fill-rule="evenodd" fill="url(#linear-gradient-10)"/>
    <path id="Path_12367" data-name="Path 12367" d="M213.878,769.692c-.8-.531-3-1.867-3.725-2.4-1.576-1.156-1.386-2.632-1.841-4.945-1.474-1.053-1.966-1.89-2.1-2.835a6.854,6.854,0,0,1,2.68-5.984,6,6,0,0,1,5.158-1.055c3.767.819,5.314,3.672,5.514,6.929a2.175,2.175,0,0,1-.106.807,10.133,10.133,0,0,0-.347,1.209c-.2.967.454,1.31.193,2.516a18.132,18.132,0,0,1-2.262,5.348C216.618,769.7,214.71,769.828,213.878,769.692Z" transform="translate(-13036.393 -13673.438)" fill="#ffa698" fill-rule="evenodd"/>
    <path id="Path_12368" data-name="Path 12368" d="M249.981,787a10.584,10.584,0,0,1,.182,1.42,2.176,2.176,0,0,1-.106.808,10.121,10.121,0,0,0-.347,1.209c-.2.967.454,1.311.193,2.516a19.524,19.524,0,0,1-1.019,3c-2.423,1.843-4.542-.408-4.867-.819-1.518-1.966-1.638-4.888-.491-7.623A9.354,9.354,0,0,0,249.981,787Z" transform="translate(-13066.994 -13702.452)" fill-rule="evenodd" fill="url(#linear-gradient-11)"/>
    <path id="Path_12369" data-name="Path 12369" d="M199.739,746.12a18.758,18.758,0,0,0,1.812,5.627c.765,1.229.431-.277.834-1.117.31-.647,1.31-.722,1.615-1.389a2.09,2.09,0,0,0,.711,1.319c.233.126.7.3.721-.368.066-2.31,1.158-2.469.819-3.853-.259-1.038-.195-1.484.057-1.857.753.1,1.238.876,2.129,1.258a7.741,7.741,0,0,0,5.242-.492,2.837,2.837,0,0,0,.472-4.739c-.87-.811-1.846-1.017-3.212-1.931a5.919,5.919,0,0,0-7.617.808C199.891,740.07,199.518,743.339,199.739,746.12Z" transform="translate(-13030.979 -13661.104)" fill="#562e65" fill-rule="evenodd"/>
    <path id="Path_12370" data-name="Path 12370" d="M214.563,801.016c-1.42-.644-1.6,1.052-1.474,2.1.087.722.675.727.832,1.31a1.339,1.339,0,0,0,1.114,1.079c.9.064.473-1.31.419-1.856C215.649,802.793,215.464,801.425,214.563,801.016Z" transform="translate(-13042.158 -13714.053)" fill="#ffa698" fill-rule="evenodd"/>
    <path id="Path_12371" data-name="Path 12371" d="M245.947,759.05c-.138.965,1.1,2.1,2.847,2.2,1.618.087,3.812-.295,4.623-2.26a2.241,2.241,0,0,0-.85-2.426,2.032,2.032,0,0,0-1.939.01c-1.2.526-2.193,1.861-3.05,2.19A10.522,10.522,0,0,1,245.947,759.05Z" transform="translate(-13069.651 -13676.795)" fill-rule="evenodd" fill="url(#linear-gradient-12)"/>
    <path id="Path_12372" data-name="Path 12372" d="M369.319,936.169a2.026,2.026,0,0,1-.508,1.219,8.371,8.371,0,0,1-1.214,1.219c-.041.031-2.01,2.69-1.787,1.093a19.7,19.7,0,0,1,.586-2.13l1.346-3.409c1.214.1,1.217.144,1.8-.025.786-.226,1.04-.164,1.787-.4,1.355-.434,1.73.958.791,1.474C371.373,935.633,369.981,935.61,369.319,936.169Z" transform="translate(-13169.875 -13825.085)" fill="#ff8978" fill-rule="evenodd"/>
    <path id="Path_12373" data-name="Path 12373" d="M374.916,787.451l-1.24-.722a3.717,3.717,0,0,1-1.514-3.328l-.033-11.774a11.383,11.383,0,0,1,5.114-8.914l.051-.031,46.048-26.585a3.751,3.751,0,0,1,3.692-.364l1.276.742C428.983,739.166,380.531,782.219,374.916,787.451Z" transform="translate(-13175.174 -13659.29)" fill="#303a7d" fill-rule="evenodd"/>
    <path id="Path_12374" data-name="Path 12374" d="M385.295,767.335l46.048-26.587c2.863-1.653,5.193-.328,5.2,2.96l.034,11.774a11.468,11.468,0,0,1-4.935,8.8q-23.131,13.388-46.283,26.736c-2.865,1.654-5.189.328-5.2-2.968l-.033-11.773A11.369,11.369,0,0,1,385.295,767.335Z" transform="translate(-13181.864 -13663.182)" fill-rule="evenodd" fill="url(#linear-gradient-13)"/>
    <path id="Path_12375" data-name="Path 12375" d="M633.349,777.742a6.956,6.956,0,0,0-3.252,4.342c-.663-1.423-2.044-1.466-3.415-.722a7.382,7.382,0,0,0-3.725,6.17c.041,1.938,1.245,3.931,4.518,5.322a7.952,7.952,0,0,0,2.939.862l.067-.034.054-.031a26.778,26.778,0,0,0,2.785-3.969c3.071-4.839,4.107-8.049,4.021-9.961C637.281,777.167,635.274,776.693,633.349,777.742Z" transform="translate(-13384.912 -13694.274)" fill="#fff" fill-rule="evenodd"/>
    <path id="Path_12376" data-name="Path 12376" d="M647.83,801.3a4.288,4.288,0,0,0-2.005,2.68c-.411-.878-1.263-.906-2.108-.445a4.532,4.532,0,0,0-2.293,3.808c.025,1.2.768,2.426,2.785,3.286a4.957,4.957,0,0,0,1.815.531l.041-.021.033-.02a15.92,15.92,0,0,0,1.717-2.457c1.9-2.988,2.536-4.968,2.483-6.149C650.257,800.945,649.019,800.655,647.83,801.3Z" transform="translate(-13400.354 -13714.141)" fill="#f454ae" fill-rule="evenodd"/>
    <path id="Path_12377" data-name="Path 12377" d="M405.735,846.78l32.1-18.516c.254-.147.459-.031.459.26v1.037a1,1,0,0,1-.455.788l-32.1,18.51c-.252.146-.457.025-.459-.262v-1.035a1,1,0,0,1,.455-.781Z" transform="translate(-13202.895 -13736.902)" fill="#fff" fill-rule="evenodd"/>
    <path id="Path_12378" data-name="Path 12378" d="M405.719,879.477l32.1-18.518c.254-.146.459-.03.459.262v1.035a1.011,1.011,0,0,1-.459.786l-32.1,18.51c-.252.146-.457.026-.459-.26v-1.037A1,1,0,0,1,405.719,879.477Z" transform="translate(-13202.878 -13764.244)" fill="#fff" fill-rule="evenodd"/>
    <path id="Path_12379" data-name="Path 12379" d="M510.225,902.287l14.98-8.608c.254-.146.459-.029.459.262v1.037a1.007,1.007,0,0,1-.455.788l-14.98,8.611c-.254.146-.459.026-.459-.26V903.08A.994.994,0,0,1,510.225,902.287Z" transform="translate(-13290.269 -13791.603)" fill="#fff" fill-rule="evenodd"/>
    <path id="Path_12380" data-name="Path 12380" d="M342.059,913.522a18.294,18.294,0,0,0-2.755,3.21c-1.4,1.828-2.668,3.722-4.613,4.678l-.131,3.692a14.655,14.655,0,0,1,4.107-2c.508-.136,1.4.37,1.892-.441a2.511,2.511,0,0,0,.219-1.31c.208.031,1.165-.034,1.618.018,1.124.133,2.234.328,2.313-.257s-.688-.886-2.028-1.147c-.773-.154-1.525-.269-1.4-.717s1.748-.375,2.585-.328a12.2,12.2,0,0,0,2.449.491c.372-.061.868-.378.691-.835-.164-.406-1.073-.793-1.956-1.027a12.544,12.544,0,0,0-2.67-.441c-.364-.02-.372-.2-.039-.446a2.85,2.85,0,0,1,.9-.221c.809-.061,2.385-.164,3.05-.265.691-.156.857-.364.839-.681.1-1.045-2.152-.747-4.1-.588-.462,0,0-.432.018-.442.578-.3,1.07-.424,1.8-.773.857-.406,1.158-.655,1.065-1-.1-.37-1.173-.213-2.233.107A4.629,4.629,0,0,0,342.059,913.522Z" transform="translate(-13143.759 -13807.378)" fill="#ffa698" fill-rule="evenodd"/>
    <path id="Path_12381" data-name="Path 12381" d="M380.823,916.2c-.562-.062.1-.365.118-.373.578-.3,1.024-.388,1.758-.737.8-.382.983-.747.935-1.053a5.235,5.235,0,0,1-1.885.94,4.067,4.067,0,0,0-1.325.575c-.328.267-.355.424-.783,1.109A2.442,2.442,0,0,1,380.823,916.2Z" transform="translate(-13181.454 -13808.682)" fill="#ff8978" fill-rule="evenodd"/>
    <path id="Path_12382" data-name="Path 12382" d="M329.6,965.963l-.881,1.941a35.243,35.243,0,0,1,3.741-1.774c.64-.292,1.147-.554,1.369-.676.29-.164.434.1.9.029a1.261,1.261,0,0,1,.385-1.556c.272-.164.446-.2,1.081-.154a19.118,19.118,0,0,0,3.268.113c.093-.03.318-.187.328-.3-.437.251-2.111-.1-2.785-.221-1.686-.29-3.14-.424-4.529.791A28.336,28.336,0,0,1,329.6,965.963Z" transform="translate(-13138.875 -13849.76)" fill="#ff8978" fill-rule="evenodd"/>
    <path id="Path_12383" data-name="Path 12383" d="M158.991,910.941c4.511-1.238,12.172-4.8,13.855-6.079a8.04,8.04,0,0,1,1.084-.925c.229-.115.637-.316.862-.421a6.929,6.929,0,0,1-1.243-3.56c-.215.07-.639.283-.906.365a14.178,14.178,0,0,1-1.8.216c-4.516.7-10.2,1.538-14.375,3.206-1.111-2.018-3.024-6.685-5.717-10.4a13.871,13.871,0,0,0-4.937-4.534c-2.247-1.05-3.723-.411-4.655.531-1.581,1.6-1.514,4.75-.395,6.922,2.036,3.957,5.143,7.641,9.766,11.6,1,.853,2.02,1.464,3.4,2.492a2.8,2.8,0,0,0,3.076,1.058c.452-.079,1.007-.236,1.8-.409A.689.689,0,0,0,158.991,910.941Z" transform="translate(-12981.02 -13787.133)" fill-rule="evenodd" fill="url(#linear-gradient-14)"/>
    <path id="Path_12384" data-name="Path 12384" d="M626.343,829.92l-47.49,27.409a11.631,11.631,0,0,0-5.273,9.135l.125,35.806c.01,3.355,2.39,4.711,5.309,3.024l47.411-27.355Z" transform="translate(-13343.626 -13738.341)" fill-rule="evenodd" opacity="0.5" fill="url(#linear-gradient-15)"/>
    <path id="Path_12385" data-name="Path 12385" d="M644.422,820.472c0-.883.69-1.6.383-2.169-.327-.614-1.694-.991-2.28-1.178a3.787,3.787,0,0,0-3.012.549l-46.245,26.684a10.755,10.755,0,0,0-4.878,8.449l.116,33.116a3.427,3.427,0,0,0,1.394,3.112,5.643,5.643,0,0,0,2.722.773c.508-.089.226-.763.794-1.091l46.245-26.68a10.753,10.753,0,0,0,4.876-8.449Z" transform="translate(-13356.01 -13727.54)" fill="#303a7d" fill-rule="evenodd"/>
    <path id="Path_12386" data-name="Path 12386" d="M653.442,823.893c-.008-3.112-2.206-4.359-4.914-2.8l-46.242,26.69a10.754,10.754,0,0,0-4.876,8.449l.116,33.116c0,3.1,2.21,4.357,4.914,2.8l46.245-26.69a10.75,10.75,0,0,0,4.878-8.449Z" transform="translate(-13363.553 -13730.399)" fill-rule="evenodd" fill="url(#linear-gradient-16)"/>
    <path id="Path_12387" data-name="Path 12387" d="M663.577,1052.113c0-.269-.192-.373-.426-.233l-51.308,29.68a.96.96,0,0,0-.423.744l.01.819c0,.269.192.373.426.233l51.3-29.68a.96.96,0,0,0,.423-.744Z" transform="translate(-13375.269 -13923.891)" fill="#6e4dfc" fill-rule="evenodd"/>
    <path id="Path_12388" data-name="Path 12388" d="M819.852,1052.331c0-.26-.185-.362-.411-.224l-20.693,11.967a.93.93,0,0,0-.408.717l.01.788c0,.26.185.36.411.224l20.692-11.964a.93.93,0,0,0,.409-.718Z" transform="translate(-13531.569 -13924.081)" fill="#e889df" fill-rule="evenodd"/>
    <path id="Path_12389" data-name="Path 12389" d="M744.247,957.839c0-.737-.526-1.037-1.17-.665l-14.236,8.22a2.565,2.565,0,0,0-1.161,2.01l.028,12.366c0,.739.526,1.037,1.168.667l14.238-8.22a2.562,2.562,0,0,0,1.161-2.011Z" transform="translate(-13472.483 -13844.617)" fill-rule="evenodd" fill="url(#linear-gradient-17)"/>
    <path id="Path_12390" data-name="Path 12390" d="M755.556,994.574c2.457-1.423,4.465-.28,4.473,2.55a9.786,9.786,0,0,1-4.446,7.7c-2.465,1.42-4.467.28-4.473-2.552A9.793,9.793,0,0,1,755.556,994.574Z" transform="translate(-13492.075 -13875.513)" fill-rule="evenodd" fill="url(#linear-gradient-18)"/>
    <path id="Path_12391" data-name="Path 12391" d="M767.364,1005.45l0,5.122-4.419.362Z" transform="translate(-13501.968 -13885.119)" fill="#fff" fill-rule="evenodd"/>
    <path id="Path_12392" data-name="Path 12392" d="M1078.076,489.646c.59-1.79-.023-3.735.547-5.533.7-2.215,3.142-3.407,4.927-2.1,4.059-3.3,9.417-2.541,13.189-.567,4.187,2.19,5.537,4.75,9.938,4.7,5.278-.074,12.415-6.531,17.448-5.168,6.061,1.638,6.8,6.809,6.038,11.92a12.666,12.666,0,0,1-2.85,6.061c-7.445,9.173-17.063,10.066-27.378,6.716-2.621-.849-5.689-.491-8.868.38-9.009,2.457-18.477-3.03-15.972-11.587C1075.85,491.893,1077.727,490.7,1078.076,489.646Z" transform="translate(-13762.649 -13445.529)" fill-rule="evenodd" fill="url(#linear-gradient-19)"/>
    <path id="Path_12393" data-name="Path 12393" d="M1135.237,515.161a14.183,14.183,0,0,1-2.129,3.512c-7.445,9.173-17.063,10.066-27.378,6.716a10.871,10.871,0,0,0-3.545-.478c-6.238.1-9.9,3.4-16.629-.208-2.036-1.091-3.6-5.5-3.876-7.389-.531-3.686,2.072-5.65,3.266-9.74.511-1.751,1.52-3.844,2.979-4.244-.765,2.19,2.429,7.044,2.631,9.5.367.491,1.035-.68,1.839-.1a1.791,1.791,0,0,1,.983,1.06c.359,1.238-.863,2.334.636,3.3,2.238,1.433,7.931-.491,12.755-.095C1118.071,517.933,1121.833,526.536,1135.237,515.161Z" transform="translate(-13768.438 -13465.248)" fill="#22043d" fill-rule="evenodd"/>
    <path id="Path_12394" data-name="Path 12394" d="M921.294,949.482c-.074,1.094-.254,2.308-.306,3.027a12.12,12.12,0,0,1-.788,4.451,11.35,11.35,0,0,1-1.92,2.849c.138,1.134,2.532.862,3.672-.137.58.043,1.053-.441,1.638-1.583,2.457-1.965,2.233-3.061,2.8-5.794a5.383,5.383,0,0,1,1.235-2.129c1.458-1.754.672-2.293-.937-4.226a22.062,22.062,0,0,1-1.5-2.654c-1.22-2.2-4.017,1.9-4.005,1.926a8.423,8.423,0,0,1,.315,1.55,6.564,6.564,0,0,1-.107,1.007C921.33,948.317,921.333,948.9,921.294,949.482Z" transform="translate(-13631.863 -13832.595)" fill="#ffa698" fill-rule="evenodd"/>
    <path id="Path_12395" data-name="Path 12395" d="M936.68,959.761c1.7.837,6.257-2.495,5.394-3.535a1.615,1.615,0,0,1-.336-.573,2.75,2.75,0,0,1-.387-.722c-.939,1.4-3.276,2.57-4.534,1.966a8.406,8.406,0,0,1-.044,1.155Z" transform="translate(-13647.249 -13842.874)" fill="#daeafa" fill-rule="evenodd"/>
    <path id="Path_12396" data-name="Path 12396" d="M930.31,967.1a1.764,1.764,0,0,1,.057,1.053c-.655,2.552-1.211,1.826-1.8,3.219-.578,1.355-.121,1.766-.46,2.734a8.072,8.072,0,0,1-4.849,5.587c-1.6.522-3.641.586-4.247-.529-.036-1.435,4.085-5.371,4.283-5.776.632-1.265,2.713-9.135,5.027-8.429A4.143,4.143,0,0,1,930.31,967.1Z" transform="translate(-13632.472 -13851.225)" fill="#daeafa" fill-rule="evenodd"/>
    <path id="Path_12397" data-name="Path 12397" d="M920.9,963.314c-.074,1.094-.254,2.308-.306,3.027a12.12,12.12,0,0,1-.788,4.451,11.09,11.09,0,0,1-1.6,2.111c-.966,1.227-.069,2.018,1.453,1.966a6.92,6.92,0,0,0,2.013-.4c3.25-1.233,4.5-5.286,5.044-7.936a5.767,5.767,0,0,1,1.206-2.315c1.456-1.754.565-3.72-1.5-4.659a1.145,1.145,0,0,1-.47-.383c-.221,1.659-2.968,3.512-5.017,3.24C920.933,962.712,920.923,963.015,920.9,963.314Z" transform="translate(-13631.473 -13846.428)" fill="#1d246d" fill-rule="evenodd"/>
    <path id="Path_12398" data-name="Path 12398" d="M933.3,989.728a2.4,2.4,0,0,1,.491-.095,3.019,3.019,0,0,1,1.281.174l.1-.295a3.355,3.355,0,0,0-1.412-.188,2.835,2.835,0,0,0-.414.069c-.011.113-.023.226-.034.336Zm-.529,4.89.115-.013a3.012,3.012,0,0,1,1.279.174l.1-.295a3.391,3.391,0,0,0-1.414-.19h0c-.02.107-.043.215-.069.328Zm.174-.983.1-.011a3.016,3.016,0,0,1,1.281.174l.1-.295a3.359,3.359,0,0,0-1.414-.188h-.026c-.01.106-.023.213-.036.328Zm.092-1c.074-.015.151-.025.231-.033a3.07,3.07,0,0,1,1.281.174l.1-.293a3.363,3.363,0,0,0-1.414-.19,1.228,1.228,0,0,0-.174.021l-.02.328Zm.065-1.042a2.478,2.478,0,0,1,.328-.054,3.073,3.073,0,0,1,1.281.174l.1-.293a3.338,3.338,0,0,0-1.414-.19c-.093.008-.182.021-.269.037-.008.1-.016.184-.023.267v.059Zm.093-.953a2.335,2.335,0,0,1,.411-.074,3.017,3.017,0,0,1,1.281.174l.1-.295a3.355,3.355,0,0,0-1.412-.188,2.646,2.646,0,0,0-.337.051Z" transform="translate(-13643.979 -13871.624)" fill="#e5efff" fill-rule="evenodd"/>
    <path id="Path_12399" data-name="Path 12399" d="M923.554,782.2c-.421-5.024,3.949-12.121,2.794-17.314a31.831,31.831,0,0,0-1.931-4.488,15.329,15.329,0,0,1,8.026,1.322l5.134-.388,4.614-3.9-1.025-5.954-3.44-.447c-6.177.046-10.413.215-16.862,1.979a9.646,9.646,0,0,0-3.181,1.618,3.136,3.136,0,0,0-1,1.378c-.723,1.92,0,4.306.681,7.044,1.925,7.741,1.746,14.46,1.956,22.241C919.31,786.308,923.161,785.114,923.554,782.2Z" transform="translate(-13630.28 -13672.374)" fill-rule="evenodd" fill="url(#linear-gradient-20)"/>
    <path id="Path_12400" data-name="Path 12400" d="M932.153,782.316c-.421-5.024,3.949-12.122,2.794-17.314a31.834,31.834,0,0,0-1.931-4.488,15.33,15.33,0,0,1,8.026,1.322l5.134-.388,4.614-3.9-1.025-5.954-3.276-.424a38.079,38.079,0,0,0-1.474,4.685c-3.717.054-14.107.174-14.927,3.112-.328,1.158.518,1.874.655,4.734a10.719,10.719,0,0,0-4.072,2.785c1.166,6.4,1.063,12.274,1.242,18.923C927.908,786.425,931.759,785.231,932.153,782.316Z" transform="translate(-13638.879 -13672.49)" fill="#1e2353" fill-rule="evenodd" opacity="0.3"/>
    <path id="Path_12401" data-name="Path 12401" d="M807.837,1007.468c-.677.863-1.51,1.764-1.966,2.328a12.085,12.085,0,0,1-3.158,3.233,11.54,11.54,0,0,1-3.189,1.273c-.526,1.014,1.605,2.139,3.112,1.954.457.362,1.119.231,2.247-.382,3.147-.244,3.569-1.273,5.569-3.212a5.3,5.3,0,0,1,2.216-1.058c2.192-.627,1.843-1.51,1.605-4.018a5.311,5.311,0,0,1,.491-2.8c1.36-2.121-4.126-1.515-4.139-1.489a10.313,10.313,0,0,1-1.758,2.8C808.523,1006.525,808.2,1007.011,807.837,1007.468Z" transform="translate(-13532.49 -13883.237)" fill="#ffa698" fill-rule="evenodd"/>
    <path id="Path_12402" data-name="Path 12402" d="M850.69,1016.623c.929,1.638,6.577,1.463,6.449.118a1.657,1.657,0,0,1,.046-.655,2.808,2.808,0,0,1,.087-.819c-1.564.632-3.994.1-4.7-1.117a12.22,12.22,0,0,1-.84,1.114Z" transform="translate(-13575.345 -13892.394)" fill="#daeafa" fill-rule="evenodd"/>
    <path id="Path_12403" data-name="Path 12403" d="M814.2,1036.244a1.741,1.741,0,0,1-.547.9c-1.966,1.744-2.03.827-3.306,1.638-1.24.794-1.094,1.391-1.918,2a8.077,8.077,0,0,1-7.155,1.885c-1.618-.47-3.338-1.568-3.209-2.83.776-1.206,6.4-2.13,6.79-2.359,1.235-.69,7.388-6.02,8.9-4.133A4.2,4.2,0,0,1,814.2,1036.244Z" transform="translate(-13531.333 -13908.111)" fill="#daeafa" fill-rule="evenodd"/>
    <path id="Path_12404" data-name="Path 12404" d="M806.673,1025.562c-.677.863-1.509,1.764-1.956,2.329a12.132,12.132,0,0,1-3.16,3.232,11.058,11.058,0,0,1-2.508.845c-1.489.47-1.194,1.638.1,2.439a6.878,6.878,0,0,0,1.885.8c3.379.819,6.693-1.833,8.639-3.715a5.76,5.76,0,0,1,2.293-1.233c2.193-.629,2.564-2.755,1.389-4.691a1.138,1.138,0,0,1-.164-.583c-1.119,1.247-4.432,1.23-5.972-.149C807.039,1025.079,806.86,1025.325,806.673,1025.562Z" transform="translate(-13531.328 -13901.332)" fill="#1d246d" fill-rule="evenodd"/>
    <path id="Path_12405" data-name="Path 12405" d="M829.659,1033.687a2.384,2.384,0,0,1,.457.195,3.053,3.053,0,0,1,.96.865l.244-.188a3.334,3.334,0,0,0-1.06-.953,2.709,2.709,0,0,0-.382-.175Zm-3.189,3.743.1.052a3.036,3.036,0,0,1,.96.865l.244-.19a3.345,3.345,0,0,0-1.06-.952h0c-.077.075-.164.152-.239.228Zm.695-.713c.072-.08.141-.164.21-.242l.023.011a3.391,3.391,0,0,1,1.061.953l-.244.19a3.04,3.04,0,0,0-.961-.865Zm.639-.773a2.27,2.27,0,0,1,.208.1,3.041,3.041,0,0,1,.962.865l.244-.19a3.336,3.336,0,0,0-1.061-.952c-.051-.03-.1-.056-.154-.08Zm.64-.819.036-.046c.052-.066.11-.136.164-.208a2.552,2.552,0,0,1,.242.12,3.341,3.341,0,0,1,1.06.952l-.244.19a3.021,3.021,0,0,0-.96-.865,2.291,2.291,0,0,0-.3-.143Zm.614-.736.219-.252a2.627,2.627,0,0,1,.306.146,3.353,3.353,0,0,1,1.061.953l-.244.188a3.032,3.032,0,0,0-.962-.863,2.283,2.283,0,0,0-.382-.177Z" transform="translate(-13555.092 -13908.516)" fill="#e5efff" fill-rule="evenodd"/>
    <path id="Path_12406" data-name="Path 12406" d="M895.336,765.788c-4.323.509-7.474,1.2-11.176,1.877a2.9,2.9,0,0,0-2.092,1.194c-.819,1.256-.573,3.386-1.268,6.351-1.212,5.173-6.97,10.447-10.349,14.939-1.125,1.168-4.474.077-4.5-1.392,2.939-5.72,6.2-12.57,7.561-19.111.893-4.279,2.349-7.084,5.846-8.682a122.019,122.019,0,0,1,16.824-8.236,16.76,16.76,0,0,1-.758-4.6c-.018-1.156.283-1.155.446-1.9,2.046,3.33,8.9,3.718,13.1,2.047,1.8,3.428,2.858,9.691-1.73,13.9C904.565,764.638,898.883,765.372,895.336,765.788Z" transform="translate(-13588.105 -13668.359)" fill-rule="evenodd" fill="url(#linear-gradient-21)"/>
    <path id="Path_12407" data-name="Path 12407" d="M914.694,776.257c-4.323.509-7.474,1.2-11.176,1.877a2.9,2.9,0,0,0-2.092,1.194c-.819,1.256-.573,3.386-1.268,6.351-1.212,5.173-6.97,10.447-10.349,14.939a1.526,1.526,0,0,1-.709.4c1.935-3.26,5.261-8.983,7.7-14.126,1.653-3.487,1.758-6.441,2.539-8.508a6.768,6.768,0,0,1,3.137-2.822,32.992,32.992,0,0,1,8.6-2.247c11.05-1.5,17.308-1.79,15.43-14a12.507,12.507,0,0,0,1.83-.56c1.8,3.428,2.858,9.691-1.73,13.9C923.923,775.108,918.241,775.841,914.694,776.257Z" transform="translate(-13607.463 -13678.829)" fill="#1e2353" fill-rule="evenodd" opacity="0.3"/>
    <path id="Path_12408" data-name="Path 12408" d="M906.635,492.5a3.8,3.8,0,0,1,1.692,2.8,4.9,4.9,0,0,0,1.736,2.6,34.806,34.806,0,0,0,4.352,3.027,25.907,25.907,0,0,1,4.68,3.738c1.525-.164,3.753-.282,6.079-.6,4.1-.554,8.482-1.446,9.8.252l2.13,2.711-.706,1.7c-3.319.295-6.115.794-9.086,1.016a41.281,41.281,0,0,1-7.733-.1c-.491-.054-.917-.031-1.247-.069a1.7,1.7,0,0,1-.639-.241,6.716,6.716,0,0,1-1.174-.688,30.673,30.673,0,0,1-4.939-4.455,56.525,56.525,0,0,1-3.822-5.2,6.975,6.975,0,0,0-2.061-1.568,9.333,9.333,0,0,1-3.047-2.888,17.273,17.273,0,0,1-1.474-5.386,1.768,1.768,0,0,1,.8-1.271c.2-.152,2.467,2.888,2.621,2.976C904.621,490.876,906.327,492.25,906.635,492.5Z" transform="translate(-13617.563 -13452.326)" fill-rule="evenodd" fill="url(#linear-gradient-22)"/>
    <path id="Path_12409" data-name="Path 12409" d="M939.543,541.34a5.607,5.607,0,0,0,.565.655c.164.175.685.221.88.409a34.167,34.167,0,0,0,4,3.188,25.4,25.4,0,0,1,4.668,3.669c1.523-.164,3.792-.218,6.116-.532,4.1-.554,8.483-1.53,9.8.164l2.051,2.837-.706,1.7c-2.562.228-4.673.807-6.934,1.056-.667.074-1.554.1-2.231.164a41.949,41.949,0,0,1-7.753-.213c-.483-.052-.917-.031-1.246-.067a1.7,1.7,0,0,1-.639-.242,6.616,6.616,0,0,1-1.175-.688,31.138,31.138,0,0,1-5.024-4.455,41.911,41.911,0,0,1-3.268-4.074c-.177-.254-.328-.868-.491-1.124a2.689,2.689,0,0,0-.475-.536A3.554,3.554,0,0,1,939.543,541.34Z" transform="translate(-13648.094 -13497.032)" fill-rule="evenodd" fill="url(#linear-gradient-23)"/>
    <path id="Path_12410" data-name="Path 12410" d="M1015.833,582.793c1.22-.072,2.526.1,3.034.758l2.051,2.837-.706,1.7c-2.562.228-4.673.808-6.934,1.058-.667.072-1.554.1-2.231.154a41.931,41.931,0,0,1-7.751-.213c-.491-.054-.919-.031-1.248-.067l-.637-.242c5.512-.023,6.806-1.573,11.068-4.139A27.178,27.178,0,0,1,1015.833,582.793Z" transform="translate(-13701.376 -13531.683)" fill="#7e41df" fill-rule="evenodd" opacity="0.5"/>
    <path id="Path_12411" data-name="Path 12411" d="M1047.1,609.995c.113-.531.254-1.011.4-1.523a8.292,8.292,0,0,0-.025-1.417c.1-2.657.6-2.621.436-5.121a10.95,10.95,0,0,1,.328-3.112c-4.193-5.379.88-7.766,1.813-9.909.58-1.327,1.273-4.4,2.768-5.453a4.115,4.115,0,0,1,5.26,1.31c.683.406,1.438,0,1.931.241a16.639,16.639,0,0,1,3.559,2.585c1.966,1.556,4.01,1.51,5.184,3.735,1.53,2.9-2.409,5.663-4.359,9.452a51.125,51.125,0,0,0-4.206,9.908,3.7,3.7,0,0,0,.277,1.328C1060.866,614.792,1047.858,615.213,1047.1,609.995Z" transform="translate(-13739.165 -13531.857)" fill-rule="evenodd" fill="url(#linear-gradient-24)"/>
    <path id="Path_12412" data-name="Path 12412" d="M1047.069,645.49c.036-.164.073-.328.115-.491,1.748,3.043,7.455,3.473,9.818,2.165a11.843,11.843,0,0,1,.094-4.6c-3.8-1.607-5.881-3.173-9.225-5.242a11.534,11.534,0,0,1,.328-3.011,6.067,6.067,0,0,1-1.615-4.369c3.471.948,6.418,2.17,9.805,3.391,6.012-7.078,7.809-8.557,10.839-7.666,2.311.678,1.124,4.845.267,6.033a36.936,36.936,0,0,0-3.14,4.572,51.122,51.122,0,0,0-4.207,9.909,3.7,3.7,0,0,0,.277,1.328C1060.83,650.288,1047.823,650.709,1047.069,645.49Z" transform="translate(-13739.13 -13567.353)" fill="#7e41df" fill-rule="evenodd" opacity="0.5"/>
    <path id="Path_12413" data-name="Path 12413" d="M989.687,618.513c.927.4.968.739,1.861,2.488a5.011,5.011,0,0,0,2.37,2.172l-2.039,1.658c-.776-.693-1.2-.491-2.247-1.238a5.15,5.15,0,0,1-2.152-2.354c-.444-1.3-1.938-1.916-2.927-2.852-.491-.469.465-1.848.414-1.917A35.236,35.236,0,0,1,989.687,618.513Z" transform="translate(-13687.16 -13559.855)" fill-rule="evenodd" fill="url(#linear-gradient-25)"/>
    <path id="Path_12414" data-name="Path 12414" d="M1026.914,627.831a1.6,1.6,0,0,0,.786.482,1.907,1.907,0,0,1,.958.184,27.728,27.728,0,0,0,4.485,1.8,32.845,32.845,0,0,1,5.62,2.621c1.74-3.037,5.152-6.452,7.763-8.858a3,3,0,0,1,4.6.58c1.251,1.871.563,4-.755,5.466-2.242,2.478-6.128,5.047-8.695,7.371a5.744,5.744,0,0,1-1.094.8,2.007,2.007,0,0,1-1.866.257,8.617,8.617,0,0,1-1.489-.447,31.661,31.661,0,0,1-6.085-3.276,26.16,26.16,0,0,1-4.722-3.528c-.136-.144-.239-.536-.388-.668a2.878,2.878,0,0,0-.532-.382C1024.935,629.721,1026.257,627.821,1026.914,627.831Z" transform="translate(-13721.405 -13565.509)" fill-rule="evenodd" fill="url(#linear-gradient-26)"/>
    <path id="Path_12415" data-name="Path 12415" d="M1112.652,574.3a12.3,12.3,0,0,0-1.147,5.885c-2.03,1.053-4.731-.375-5.026-1.916.383-.839.77-1.6,1.112-2.473Z" transform="translate(-13789.234 -13524.593)" fill="#ffa698" fill-rule="evenodd"/>
    <path id="Path_12416" data-name="Path 12416" d="M1114.49,574.3a11.655,11.655,0,0,0-.912,2.749c-1,1.787-4.947,2.093-4.9.467.264-.562.523-1.114.76-1.72Z" transform="translate(-13791.072 -13524.593)" fill-rule="evenodd" fill="url(#linear-gradient-27)"/>
    <path id="Path_12417" data-name="Path 12417" d="M1096.6,512a6.651,6.651,0,0,0-2.257,4.1,1.966,1.966,0,0,1-.439,1.007,4.325,4.325,0,0,0-1.31,3.507c0,1.427-.218,2.113.11,2.693a2.788,2.788,0,0,0,1.579,1.094,10.946,10.946,0,0,0,4.863-.144c1.029-.242,1.086-.586,1.7-1.328,1.563-.75.967-1.776.567-1.966-1.147-.568-1.727.773-2.529.885C1099.685,519.425,1096.152,514,1096.6,512Z" transform="translate(-13777.566 -13472.498)" fill="#ffa698" fill-rule="evenodd"/>
    <path id="Path_12418" data-name="Path 12418" d="M1095.835,517.14a6.521,6.521,0,0,0-1.451,3.263,1.965,1.965,0,0,1-.439,1.007,4.325,4.325,0,0,0-1.31,3.507c0,.641-.044,1.132-.064,1.53a1.174,1.174,0,0,0,1.3.8,2.258,2.258,0,0,0,1.623-1.505c.283-.68,1.857-.747,2.352-1.383.411-.527-.074-1.374-.383-1.828A10.521,10.521,0,0,1,1095.835,517.14Z" transform="translate(-13777.604 -13476.796)" fill-rule="evenodd" fill="url(#linear-gradient-28)"/>
    <path id="Path_12419" data-name="Path 12419" d="M1116.378,512c-.151,3.2,3.155,6.552,2.293,9.838C1118.525,518.151,1115.351,514.773,1116.378,512Z" transform="translate(-13797.341 -13472.498)" fill="#ff8f7f" fill-rule="evenodd"/>
    <path id="Path_12420" data-name="Path 12420" d="M567.861,441.832,616.6,413.694l.28-.154v21.224l.061,7.248L569.193,468.9c-4.138,1.966-6.758-1.753-6.767-5.135l-.036-12.461A12.054,12.054,0,0,1,567.861,441.832Z" transform="translate(-13334.269 -13390.165)" fill-rule="evenodd" opacity="0.5" fill="url(#linear-gradient-29)"/>
    <path id="Path_12421" data-name="Path 12421" d="M579.528,463.988l-1.242-.721a3.716,3.716,0,0,1-1.512-3.328l-.034-11.774a11.41,11.41,0,0,1,5.114-8.916l.051-.029,46.048-26.587a3.755,3.755,0,0,1,3.692-.362l1.276.74C633.593,415.7,585.137,458.757,579.528,463.988Z" transform="translate(-13346.269 -13388.813)" fill="#303a7d" fill-rule="evenodd"/>
    <path id="Path_12422" data-name="Path 12422" d="M590.006,443.774,636.035,417.2c2.858-1.65,5.188-.328,5.2,2.966l.033,11.769a11.387,11.387,0,0,1-5.163,8.942L599.171,462.2l-9.337,5.374c-2.75,1.448-4.953.115-4.962-3.081l-.033-11.769A11.383,11.383,0,0,1,590.006,443.774Z" transform="translate(-13353.041 -13392.63)" fill-rule="evenodd" fill="url(#linear-gradient-30)"/>
    <path id="Path_12423" data-name="Path 12423" d="M843.912,472.923c3.548-2.052,6.641-6.88,6.913-10.811s-2.383-5.433-5.93-3.383-6.641,6.89-6.912,10.811S840.367,474.97,843.912,472.923Z" transform="translate(-13564.702 -13427.186)" fill="#fff" fill-rule="evenodd"/>
    <path id="Path_12424" data-name="Path 12424" d="M855.465,481.1a.778.778,0,0,0-1.279-.729l-1.581.906a8.209,8.209,0,0,1-2.331,2.129,3.032,3.032,0,0,1-2.244.491l-1.117.642a2.8,2.8,0,0,0-1.273,2.2v1.24c1.075.819,2.749.77,4.69-.352a14.843,14.843,0,0,0,5.137-5.45V481.1Zm-5.127,1.378c-1.659.96-2.9.252-2.775-1.582a7.165,7.165,0,0,1,3.235-5.06c1.659-.965,2.9-.249,2.775,1.584A7.15,7.15,0,0,1,850.338,482.478Z" transform="translate(-13571.121 -13441.897)" fill-rule="evenodd" fill="url(#linear-gradient-31)"/>
    <path id="Path_12425" data-name="Path 12425" d="M601.823,511.424l36.292-20.936c.287-.164.516-.034.518.3v1.171a1.147,1.147,0,0,1-.514.891l-36.289,20.936c-.287.164-.518.028-.519-.295v-1.173A1.127,1.127,0,0,1,601.823,511.424Z" transform="translate(-13366.814 -13454.451)" fill="#fff" fill-rule="evenodd"/>
    <path id="Path_12426" data-name="Path 12426" d="M601.823,548.384l36.292-20.936c.287-.164.516-.034.518.3v1.171a1.147,1.147,0,0,1-.514.891L601.829,550.74c-.287.164-.518.03-.519-.295v-1.171A1.127,1.127,0,0,1,601.823,548.384Z" transform="translate(-13366.814 -13485.357)" fill="#fff" fill-rule="evenodd"/>
    <path id="Path_12427" data-name="Path 12427" d="M719.961,574.153l16.942-9.735c.287-.164.516-.034.518.295v1.173a1.146,1.146,0,0,1-.514.891l-16.937,9.735c-.287.164-.518.029-.519-.295v-1.171A1.129,1.129,0,0,1,719.961,574.153Z" transform="translate(-13465.603 -13516.271)" fill="#fff" fill-rule="evenodd"/>
    <path id="Path_12428" data-name="Path 12428" d="M923.385,504.229a20.867,20.867,0,0,0-1.8-1.229,2.112,2.112,0,0,0,1.071,2.13c.519.714.75,1.72,1.273,2.27.788.827,1.671.608,1.147-.885A5.951,5.951,0,0,0,923.385,504.229Z" transform="translate(-13634.624 -13464.973)" fill-rule="evenodd" fill="url(#linear-gradient-32)"/>
    <path id="Path_12429" data-name="Path 12429" d="M383.445,1278.37l45.9-27.537c2.849-1.8,7.94-2.095,7.954,2.714l.251,14.742a12.03,12.03,0,0,1-5.186,9.25q-22.644,13.1-45.313,26.176a6.255,6.255,0,0,1-4.775-2.344c-2.457-2.981-2.94-12.384-3.707-16.708C379.807,1282.012,381.674,1279.39,383.445,1278.37Z" transform="translate(-13180.559 -14089.296)" fill-rule="evenodd" opacity="0.5" fill="url(#linear-gradient-33)"/>
    <path id="Path_12430" data-name="Path 12430" d="M374.228,1305.724l-1.242-.721a3.717,3.717,0,0,1-1.514-3.328l-.033-11.774a11.388,11.388,0,0,1,5.114-8.916l.051-.029,46.048-26.582a3.755,3.755,0,0,1,3.692-.362l1.276.742C428.293,1257.439,379.843,1300.492,374.228,1305.724Z" transform="translate(-13174.597 -14092.672)" fill="#303a7d" fill-rule="evenodd"/>
    <path id="Path_12431" data-name="Path 12431" d="M384.609,1285.582l46.048-26.587c2.865-1.654,5.194-.327,5.2,2.96l.034,11.774a11.444,11.444,0,0,1-4.935,8.8l-46.288,26.736c-2.863,1.653-5.189.328-5.2-2.968l-.033-11.773A11.359,11.359,0,0,1,384.609,1285.582Z" transform="translate(-13181.287 -14096.536)" fill-rule="evenodd" fill="url(#linear-gradient-34)"/>
    <path id="Path_12432" data-name="Path 12432" d="M639.932,1312.2c3.548-2.051,6.641-6.88,6.912-10.811s-2.383-5.433-5.93-3.383-6.641,6.89-6.913,10.811S636.387,1314.252,639.932,1312.2Z" transform="translate(-13394.135 -14128.989)" fill="#fff" fill-rule="evenodd"/>
    <path id="Path_12433" data-name="Path 12433" d="M651.485,1320.391a.9.9,0,0,0-.359-.809.909.909,0,0,0-.921.08l-1.579.906a8.247,8.247,0,0,1-2.333,2.129,3.119,3.119,0,0,1-2.244.491l-1.117.642a2.807,2.807,0,0,0-1.273,2.2v1.24c1.073.819,2.747.77,4.688-.352a14.841,14.841,0,0,0,5.137-5.45v-1.084Zm-5.127,1.379c-1.659.958-2.9.251-2.775-1.584a7.159,7.159,0,0,1,3.235-5.058c1.659-.963,2.9-.25,2.785,1.583A7.138,7.138,0,0,1,646.358,1321.77Z" transform="translate(-13400.555 -14143.711)" fill-rule="evenodd" fill="url(#linear-gradient-35)"/>
    <path id="Path_12434" data-name="Path 12434" d="M397.843,1350.706l36.289-20.936c.287-.164.518-.033.518.3v1.171a1.135,1.135,0,0,1-.514.891l-36.286,20.936c-.287.164-.518.03-.519-.295V1351.6A1.128,1.128,0,0,1,397.843,1350.706Z" transform="translate(-13196.246 -14156.255)" fill="#fff" fill-rule="evenodd"/>
    <path id="Path_12435" data-name="Path 12435" d="M397.843,1387.672l36.289-20.934c.287-.164.518-.034.518.295v1.173a1.147,1.147,0,0,1-.514.891l-36.286,20.934c-.287.164-.518.029-.519-.295v-1.171A1.129,1.129,0,0,1,397.843,1387.672Z" transform="translate(-13196.246 -14187.167)" fill="#fff" fill-rule="evenodd"/>
    <path id="Path_12436" data-name="Path 12436" d="M515.964,1413.435,532.9,1403.7c.287-.164.518-.035.518.295v1.173a1.147,1.147,0,0,1-.514.891l-16.937,9.736c-.287.164-.518.029-.519-.295v-1.173A1.127,1.127,0,0,1,515.964,1413.435Z" transform="translate(-13295.018 -14218.073)" fill="#fff" fill-rule="evenodd"/>
    <path id="Path_10211" data-name="Path 10211" d="M104.875,62.245V59.591a2.5,2.5,0,0,0-2.491-2.5,2.472,2.472,0,0,0-1.862.866v-.186a5.279,5.279,0,0,0-5.275-5.265h0a5.279,5.279,0,0,0-5.265,5.265v-.121a2.5,2.5,0,1,0-4.991,0v3.682a4.488,4.488,0,0,0,1.993,8.515h14.665a4.507,4.507,0,0,0,4.493-4.5,4.455,4.455,0,0,0-1.266-3.11Z" transform="translate(-12904.643 -13057.034)" fill="#f5fcff"/>
    <path id="Path_10214" data-name="Path 10214" d="M352.159,101.678V97.432a3.966,3.966,0,0,0-6.983-2.607v-.293a8.445,8.445,0,0,0-8.422-8.422h0a8.45,8.45,0,0,0-8.426,8.422v-.2a3.99,3.99,0,1,0-7.975,0v5.889a7.179,7.179,0,0,0,3.18,13.617h23.459a7.169,7.169,0,0,0,5.163-12.165Z" transform="translate(-13011.449 -13096.778)" fill="#f5fcff"/>
    <path id="Path_10215" data-name="Path 10215" d="M60.374,152.343v-3.259a3.049,3.049,0,0,0-6.094,0v-2.328a4.562,4.562,0,0,0-8.692-1.941v-1.69a5.759,5.759,0,0,0-5.745-5.745h0a5.759,5.759,0,0,0-5.745,5.745v.079a3.04,3.04,0,0,0-2.616-1.513h0a3.059,3.059,0,0,0-3.045,3.045v1.546a3.021,3.021,0,0,0-2.221-.982,3.054,3.054,0,0,0-3.049,3.045v2.891a5.48,5.48,0,0,0,2.43,10.4H56.43a5.48,5.48,0,0,0,3.943-9.288Z" transform="translate(-12879.986 -13111.403)" fill="#f5fcff"/>
    <g id="Group_13134" data-name="Group 13134" transform="translate(-12787.148 -13029.352)">
      <ellipse id="Ellipse_383" data-name="Ellipse 383" cx="9.884" cy="6.681" rx="9.884" ry="6.681" transform="translate(19.755 56.978)" fill="#154ec5"/>
      <ellipse id="Ellipse_384" data-name="Ellipse 384" cx="6.425" cy="4.344" rx="6.425" ry="4.344" transform="translate(23.214 58.743)" fill="#156af7"/>
      <path id="Path_10262" data-name="Path 10262" d="M185.3,239c0,1.285-1.541,2.328-3.44,2.328s-3.44-1.038-3.44-2.328,1.541-2.328,3.44-2.328S185.3,237.713,185.3,239Z" transform="translate(-152.222 -176.395)" fill="#2f9af7"/>
      <ellipse id="Ellipse_386" data-name="Ellipse 386" cx="8.608" cy="8.608" rx="8.608" ry="8.608" transform="translate(0 46.754) rotate(-53.81)" fill="#1350d7"/>
      <path id="Path_10277" data-name="Path 10277" d="M174.547,221.21h0a4.213,4.213,0,0,1-5.875-.833l-6.853-9.088a4.19,4.19,0,0,1,.829-5.875h0a4.19,4.19,0,0,1,5.871.833l6.858,9.111A4.19,4.19,0,0,1,174.547,221.21Z" transform="translate(-142.897 -159.24)" fill="#131139"/>
      <path id="Path_10278" data-name="Path 10278" d="M150.509,136.34c-3.259,9.879-17.5,20.582-17.5,20.582-3.412,2.57-2.938,8.957,1.061,14.274s10.009,7.542,13.422,4.977c0,0,14.227-10.708,24.628-11.113-7.044-10.41-13.035-12.7-13.035-12.7S158.558,146,150.509,136.34Z" transform="translate(-126.731 -122.774)" fill="#1395f3"/>
      <ellipse id="Ellipse_387" data-name="Ellipse 387" cx="13.673" cy="20.093" rx="13.673" ry="20.093" transform="translate(15.13 17.419) rotate(-36.95)" fill="#1323be"/>
      <ellipse id="Ellipse_388" data-name="Ellipse 388" cx="12.9" cy="20.093" rx="12.9" ry="20.093" transform="translate(16.803 16.157) rotate(-36.95)" fill="#1350d7"/>
      <ellipse id="Ellipse_389" data-name="Ellipse 389" cx="10.447" cy="16.271" rx="10.447" ry="16.271" transform="translate(22.586 16.591) rotate(-36.95)" fill="#132571"/>
      <path id="Path_10279" data-name="Path 10279" d="M182.39,145.183a23.655,23.655,0,0,0,12.467,16.574l6.769-8.734-3.45-6.741-5.521-5.182Z" transform="translate(-154.344 -125.318)" fill="#131139"/>
      <path id="Path_10280" data-name="Path 10280" d="M211.13,143.421c2.477,3.3,2.793,7.253.661,8.845s-5.838.21-8.315-3.082-2.77-7.249-.656-8.845S208.667,140.129,211.13,143.421Z" transform="translate(-164.508 -124.557)" fill="#ffeb68"/>
      <path id="Path_10281" data-name="Path 10281" d="M214.886,149.151c.731.968.815,2.132.2,2.6s-1.713.061-2.439-.9-.815-2.132-.2-2.6S214.16,148.188,214.886,149.151Z" transform="translate(-170.187 -129.035)" fill="#2f9af7"/>
      <ellipse id="Ellipse_390" data-name="Ellipse 390" cx="7.84" cy="12.211" rx="7.84" ry="12.211" transform="translate(30.191 15.691) rotate(-36.95)" fill="none" stroke="#ffeb68" stroke-miterlimit="10" stroke-width="1"/>
      <ellipse id="Ellipse_391" data-name="Ellipse 391" cx="10.954" cy="17.067" rx="10.954" ry="17.067" transform="translate(25.294 13.17) rotate(-36.95)" fill="none" stroke="#ffeb68" stroke-miterlimit="10" stroke-width="1"/>
    </g>
    <g id="Group_13133" data-name="Group 13133" transform="translate(-12684.238 -12891.274)">
      <path id="Path_10243" data-name="Path 10243" d="M80.834,340.157l-.043-.037a.384.384,0,0,1,0-.53.372.372,0,0,1,.524-.03l.043.037a6.955,6.955,0,0,0,2.657,1.414.372.372,0,1,1-.165.725A7.518,7.518,0,0,1,80.834,340.157Z" transform="translate(-58.783 -294.699)" fill="#1bceae"/>
      <path id="Path_10244" data-name="Path 10244" d="M62.767,319.481a.372.372,0,0,1-.116-.195.366.366,0,0,1,.28-.445c.067,0,6.922-1.658,11.1-5.247a.378.378,0,0,1,.524.043.372.372,0,0,1-.037.524c-4.32,3.7-11.133,5.338-11.419,5.4A.39.39,0,0,1,62.767,319.481Z" transform="translate(-38.132 -284.559)" fill="#1bceae"/>
      <path id="Path_10245" data-name="Path 10245" d="M69.061,320.4a.373.373,0,0,1,.469-.579l2.815,2.06a.4.4,0,0,1,.079.524.372.372,0,0,1-.518.079l-2.815-2.06Z" transform="translate(-39.801 -286.99)" fill="#1bceae"/>
      <path id="Path_10256" data-name="Path 10256" d="M66.706,334.555a.347.347,0,0,1,0-.085l-.609-3.961a.4.4,0,0,1,.335-.451.414.414,0,0,1,.457.335l.609,3.961a.413.413,0,0,1-.792.2Z" transform="translate(-33.089 -291.023)" fill="#1bceae"/>
      <path id="Path_10298" data-name="Path 10298" d="M77.012,297.39l.609-6.63-5.271,5.594a29.06,29.06,0,0,0,4.662,1.036Z" transform="translate(-47.021 -275.672)" fill="#ffb500"/>
      <path id="Path_10299" data-name="Path 10299" d="M108.227,294.034l5.271,9.658-8.994.03-5.094-9.39a.481.481,0,0,1,.42-.713H107.5a.829.829,0,0,1,.731.414Z" transform="translate(-99.35 -276.789)" fill="#000d57"/>
      <path id="Path_10300" data-name="Path 10300" d="M108.724,294.67l4.79,8.775-7.818.024-4.765-8.781Z" transform="translate(-100.328 -277.2)" fill="#ffbf1c"/>
      <ellipse id="Ellipse_392" data-name="Ellipse 392" cx="2.657" cy="1.584" rx="2.657" ry="1.584" transform="translate(8.086 25.685) rotate(-134.29)" fill="#ff861c"/>
      <path id="Path_10301" data-name="Path 10301" d="M107.948,301.73a2.468,2.468,0,0,0,1.907,1.438c.689,0,.945-.64.573-1.426a2.438,2.438,0,0,0-1.913-1.432C107.832,300.3,107.583,300.938,107.948,301.73Z" transform="translate(-101.588 -279.403)" fill="#ff9c1c"/>
      <path id="Path_10302" data-name="Path 10302" d="M98.366,293.077a2.114,2.114,0,1,0,1.4-.827,2.121,2.121,0,0,0-1.4.827Z" transform="translate(-87.173 -276.246)" fill="#1350d7"/>
      <path id="Path_10303" data-name="Path 10303" d="M104.285,299.981h0a1.036,1.036,0,0,0,1.444-.2l1.688-2.248a1.036,1.036,0,0,0-.2-1.444h0a1.042,1.042,0,0,0-1.45.2l-1.688,2.248a1.03,1.03,0,0,0,.207,1.444Z" transform="translate(-96.23 -277.672)" fill="#131139"/>
      <path id="Path_10304" data-name="Path 10304" d="M103.527,283c.8,2.437,4.308,5.076,4.308,5.076.841.609.725,2.206-.256,3.516s-2.437,1.859-3.309,1.219c0,0-3.5-2.638-6.094-2.736,1.737-2.565,3.211-3.132,3.211-3.132S101.541,285.437,103.527,283Z" transform="translate(-93.535 -272.641)" fill="#fff"/>
      <ellipse id="Ellipse_393" data-name="Ellipse 393" cx="3.37" cy="4.948" rx="3.37" ry="4.948" transform="translate(6.173 19.252) rotate(-143.05)" fill="#1323be"/>
      <path id="Path_10305" data-name="Path 10305" d="M107.366,282.721c-1.645,2.188-1.828,4.814-.439,5.868s3.875.14,5.515-2.047,1.828-4.808.439-5.862S109,280.539,107.366,282.721Z" transform="translate(-103.711 -271.563)" fill="#1350d7"/>
      <path id="Path_10306" data-name="Path 10306" d="M108.93,283.16c-1.334,1.767-1.493,3.894-.353,4.747s3.132.116,4.467-1.657,1.487-3.894.353-4.747S110.258,281.387,108.93,283.16Z" transform="translate(-105.166 -271.917)" fill="#132571"/>
      <path id="Path_10307" data-name="Path 10307" d="M112.641,284.945a5.533,5.533,0,0,1-1.06,2.395,5.434,5.434,0,0,1-2.011,1.688l-1.67-2.151.853-1.657,1.359-1.28Z" transform="translate(-103.703 -273.008)" fill="#131139"/>
      <path id="Path_10308" data-name="Path 10308" d="M111.982,284.6c-.609.81-.682,1.785-.165,2.175s1.438.055,2.054-.756.682-1.792.158-2.182S112.591,283.788,111.982,284.6Z" transform="translate(-107.62 -272.904)" fill="#ffeb68"/>
      <path id="Path_10309" data-name="Path 10309" d="M113.611,285.518c-.183.238-.2.524-.049.64s.42,0,.609-.219.2-.524.043-.64S113.788,285.28,113.611,285.518Z" transform="translate(-108.775 -273.52)" fill="#fff"/>
      <path id="Path_10310" data-name="Path 10310" d="M81.689,393.4c0,2.59-5.649,4.692-12.62,4.692s-12.62-2.1-12.62-4.692,5.655-4.7,12.62-4.7S81.689,390.8,81.689,393.4Z" transform="translate(-41.4 -313.932)" fill="#017abf" opacity="0.09"/>
      <path id="Path_10311" data-name="Path 10311" d="M81.042,280.71l-.152,1.012.945.1.36-.695Z" transform="translate(-56.798 -271.746)" fill="#fff"/>
      <path id="Path_10312" data-name="Path 10312" d="M74.982,282.156v-1.517a4.563,4.563,0,0,1-2.352-.42v-1.383l.183-1.633.451-2.614.11-1.268.8.542.384,2.309.427-.908s.749-.408,1.024.329a.981.981,0,0,1-1.024,1.341l1.219,2.5,2.773.152v2.559Z" transform="translate(-48.544 -268.859)" fill="#ffcda9"/>
      <path id="Path_10313" data-name="Path 10313" d="M77.209,287.473s-2.054-1.219-5.423,0l-.786,1.5,6.453-.335Z" transform="translate(-46.03 -274.176)" fill="#14afff"/>
      <path id="Path_10314" data-name="Path 10314" d="M61.59,292a67.583,67.583,0,0,1,4.722,11.706l-3.047,10.548L59,302.426Z" transform="translate(-27.577 -276.157)" fill="#14afff"/>
      <path id="Path_10315" data-name="Path 10315" d="M76.052,290.788s-3.571-3.723-10.968-.719L63.865,313.06H77.727S78.373,299.886,76.052,290.788Z" transform="translate(-42.039 -274.945)" fill="#003ade"/>
      <path id="Path_10316" data-name="Path 10316" d="M114.146,308l-2.181-2.084-.043,1.066L109.6,305a5.21,5.21,0,0,0,3.291,4.418Z" transform="translate(-106.244 -281.235)" fill="#ffcda9"/>
      <path id="Path_10317" data-name="Path 10317" d="M113.071,307.353l-1.182-1.347-1.182-1.347a.664.664,0,0,0-.11.853l.792,1.341" transform="translate(-105.712 -281.102)" fill="#ffcda9"/>
      <path id="Path_10318" data-name="Path 10318" d="M95.624,290.79s-1.676,6.538-6.386,10.359A9.092,9.092,0,0,1,81.7,302.88l-1.791,2.053s4.918,2.943,11.754.341a11.7,11.7,0,0,0,6.819-7.458S99.341,291.71,95.624,290.79Z" transform="translate(-72.574 -275.684)" fill="#14afff"/>
      <rect id="Rectangle_24618" data-name="Rectangle 24618" width="1.529" height="2.724" transform="translate(7.978 26.225) rotate(41.16)" fill="#3bfaff"/>
      <path id="Path_10319" data-name="Path 10319" d="M88.559,394.548v.554a.408.408,0,0,1-.408.408H79.87s1.152-2.127,5.161-2.261A11.227,11.227,0,0,1,88.559,394.548Z" transform="translate(-62.541 -315.709)" fill="#000f1f"/>
      <path id="Path_10320" data-name="Path 10320" d="M66.219,393.219v.823a.5.5,0,0,1-.5.5H64.6a1.551,1.551,0,0,1-.524-.091l-4.564-1.724s1.219-1.42,3.943-.518Z" transform="translate(-27.795 -315.185)" fill="#000f1f"/>
      <path id="Path_10321" data-name="Path 10321" d="M73.263,328.52l.664,21.937a32.9,32.9,0,0,1,1.03,3.339c1.3,4.954,1.1,14.813,1.1,14.813a2.079,2.079,0,0,1-2.821-.158l-4.265-19.1-2.675-12.864-1.743,12.437a18.663,18.663,0,0,1,.609,7.794c-.3,3.047-1.566,12.547-1.566,12.547s-2.334-.164-3.321-1.255L59.4,345.222v-16.7Z" transform="translate(-37.575 -290.423)" fill="#001f5e"/>
      <path id="Path_10322" data-name="Path 10322" d="M66.7,338.862l1.091-1.98L72,334.56l-3.888,4.034,1.9,16Z" transform="translate(-37.958 -292.783)" fill="#00143e"/>
      <path id="Path_10323" data-name="Path 10323" d="M63.95,328.52,77.843,330.1l-.049-1.578Z" transform="translate(-42.125 -290.423)" fill="#001f5f"/>
      <path id="Path_10324" data-name="Path 10324" d="M76.3,267.828,76.836,266a6.8,6.8,0,0,1,.378,3.291s3.449,4.144-1.865,7.459l-.914.865L72.607,276.6l-1.219-2.5a1.085,1.085,0,0,0,1.066-.92.713.713,0,0,0-1.066-.75l-.42,1.158-.366-2.535s-2.858,0-2.858-3.936C67.7,267.1,72.369,264.952,76.3,267.828Z" transform="translate(-44.908 -266)" fill="#131139"/>
    </g>
    <g id="Group_13132" data-name="Group 13132" transform="translate(-12723.806 -12863.372)">
      <g id="Group_13131" data-name="Group 13131" transform="translate(0 0)">
        <path id="Path_10223" data-name="Path 10223" d="M287.285,339.994l-.033-.028a.293.293,0,0,1-.023-.405.284.284,0,0,1,.4-.023l.033.028a5.312,5.312,0,0,0,2.053,1.089.284.284,0,1,1-.126.554A5.746,5.746,0,0,1,287.285,339.994Z" transform="translate(-264.999 -303.947)" fill="#1bceae"/>
        <path id="Path_10225" data-name="Path 10225" d="M299.139,320.239a.285.285,0,0,1,.358-.442l2.151,1.573a.3.3,0,0,1,.06.4.284.284,0,0,1-.4.061l-2.151-1.574Z" transform="translate(-271.345 -293.4)" fill="#1bceae"/>
        <path id="Path_10232" data-name="Path 10232" d="M299.389,358.066v-.047a.3.3,0,1,1,.573-.21.161.161,0,0,0,0,.037,5.588,5.588,0,0,0,1.4,2.062.305.305,0,1,1-.4.465A6.187,6.187,0,0,1,299.389,358.066Z" transform="translate(-271.525 -313.644)" fill="#1bceae"/>
        <path id="Path_10325" data-name="Path 10325" d="M261.24,392.539c0,1.238,2.7,2.244,6.029,2.244s6.052-1.006,6.052-2.244-2.7-2.249-6.052-2.249S261.24,391.3,261.24,392.539Z" transform="translate(-251.146 -331.109)" fill="#017abf" opacity="0.09"/>
        <path id="Path_10326" data-name="Path 10326" d="M308.9,393.607c0,.726,1.583,1.317,3.538,1.317s3.538-.591,3.538-1.317-1.583-1.318-3.538-1.318S308.9,392.877,308.9,393.607Z" transform="translate(-276.618 -332.179)" fill="#017abf" opacity="0.09"/>
        <path id="Path_10327" data-name="Path 10327" d="M283.986,269.208a5.619,5.619,0,0,1-1.513,4.409,9.113,9.113,0,0,1-3.412-2.053l-1.113-1.42-.3-2.267,2.328-.587" transform="translate(-259.917 -265.372)" fill="#131139"/>
        <path id="Path_10328" data-name="Path 10328" d="M267.054,289.789s-9.674,1.946-15.065-2.449l-1.159,1.48a25.331,25.331,0,0,0,18.119,4.656S269.4,291.8,267.054,289.789Z" transform="translate(-245.583 -276.088)" fill="#ffcda9"/>
        <path id="Path_10329" data-name="Path 10329" d="M275.426,293.51l-.656,3.156.9.121Z" transform="translate(-258.378 -279.386)" fill="#ffbd95"/>
        <path id="Path_10330" data-name="Path 10330" d="M276.09,291.464l.293,4.06h3.17l.512-4.683Z" transform="translate(-259.083 -277.958)" fill="#14afff"/>
        <path id="Path_10331" data-name="Path 10331" d="M245.966,284.486l-1.7-1.713L239.574,282s-.391.931,2.924,1.373l-.368.964.833,1.453,1.862.158,1.159.819Z" transform="translate(-239.559 -273.234)" fill="#ffcda9"/>
        <path id="Path_10332" data-name="Path 10332" d="M286.563,284.888s.293-.233.4-.135a7.975,7.975,0,0,1,2.928,4.525c.689,3.3,3.1,15.442,3.1,15.442l-8.408,1.48-2.328-12.761s-.866-3.3.466-5.67" transform="translate(-262.229 -274.692)" fill="#003ade"/>
        <path id="Path_10333" data-name="Path 10333" d="M283.573,304.839c7.449-2.961,6.052-11.639,6.052-11.639l-6.825,8.473Z" transform="translate(-262.669 -279.22)" opacity="0.49" fill="url(#linear-gradient-36)"/>
        <path id="Path_10334" data-name="Path 10334" d="M275.909,271.41a11.631,11.631,0,0,0,.829,6.611,2.924,2.924,0,0,0,2.053-.107l1.1,2.062,2.817-2.407-.754-2.211s-1.443.107-1.643-.829c0,0,1.038-1.434,0-1.648s-1.127,1.806-1.127,1.806l-.577-1.825-1.187-.363-.782-1.089Z" transform="translate(-258.902 -267.574)" fill="#ffcda9"/>
        <path id="Path_10335" data-name="Path 10335" d="M287.822,283.529l-1.257-1.089-2.975,4.106" transform="translate(-263.091 -273.469)" fill="url(#linear-gradient-37)"/>
        <path id="Path_10336" data-name="Path 10336" d="M278.591,263.17c-2.891,0-3.841,2.3-3.841,4.418h7.775C282.534,264.436,280.718,263.17,278.591,263.17Z" transform="translate(-258.367 -263.17)" fill="#14afff"/>
        <path id="Path_10337" data-name="Path 10337" d="M279.034,263.2a4.229,4.229,0,0,0-.424,0c-2.891,0-3.841,2.3-3.841,4.418H277A4.507,4.507,0,0,1,279.034,263.2Z" transform="translate(-258.378 -263.186)" fill="#003ade"/>
        <path id="Path_10338" data-name="Path 10338" d="M271.108,271.826l-5.7.424a19.662,19.662,0,0,1,4.5-1.15Z" transform="translate(-253.375 -267.408)" fill="#151231"/>
        <path id="Path_10339" data-name="Path 10339" d="M297.535,332.1l-.289,12.523s4.656.531,7.263,12.328c0,0,.726.465-.931.465l-9.716-11.327-2.952-8.147Z" transform="translate(-267.003 -300.01)" fill="#00143e"/>
        <path id="Path_10340" data-name="Path 10340" d="M314.792,385.46l1.392,1.155-2.8,3.575H310.15l2.463-1.518,1.234-2.742Z" transform="translate(-277.286 -328.528)" fill="#000f1f"/>
        <path id="Path_10341" data-name="Path 10341" d="M281.264,329.033l-4.283,12.328-1.21,16.294s.061.466,1.364,0c0,0,5.088-9.614,3.426-15.009l7.235-9.609s2.533-2.458,1.862-5.587Z" transform="translate(-258.912 -297.525)" fill="#001f5e"/>
        <path id="Path_10342" data-name="Path 10342" d="M271.111,392.36v1.518H264.5l5.242-1.518Z" transform="translate(-252.889 -332.216)" fill="#000f1f"/>
        <path id="Path_10343" data-name="Path 10343" d="M277.188,288.974c-.577.037-1.429-.517-1.732,1.038A18.226,18.226,0,0,1,272.588,297c-2.151,2.328-8.142,2.91-8.142,2.91l-1.034.358-.1.931a21.685,21.685,0,0,0,9.818-.494c3.5-1.08,5.549-7.691,5.549-7.691S278.994,289.677,277.188,288.974Z" transform="translate(-252.253 -276.926)" fill="#ffcda9"/>
        <path id="Path_10344" data-name="Path 10344" d="M285.69,301.98l2.514,3.059.912-1.485Z" transform="translate(-264.214 -283.912)" fill="#ffbd95"/>
        <path id="Path_10345" data-name="Path 10345" d="M285.06,294.127l4.395,1.909s3.226-5.736.186-8.017S285.06,294.127,285.06,294.127Z" transform="translate(-263.877 -276.241)" fill="#14afff"/>
        <path id="Path_10346" data-name="Path 10346" d="M287.57,329.033l8.492-.382a1.993,1.993,0,0,0-.116-1.2Z" transform="translate(-265.219 -297.525)" fill="url(#linear-gradient-38)"/>
        <path id="Path_10347" data-name="Path 10347" d="M258.255,306.231l-1.21-1.034-.06-.368-.815-.768-.68-1.6,1.555.186.6,1.616" transform="translate(-248.074 -284.169)" fill="#151231"/>
        <path id="Path_10348" data-name="Path 10348" d="M260.566,308.512l-1.048-1.2-1.066-1.21a.6.6,0,0,0-.1.763l.712,1.206-1.21-1.034-.06-.368L257,305.9v.386a4.683,4.683,0,0,0,2.956,3.976l1.136-1.271Z" transform="translate(-248.88 -286.007)" fill="#ffcda9"/>
      </g>
    </g>
  </g>
</svg>
