<svg xmlns="http://www.w3.org/2000/svg" width="265.227" height="225.724" viewBox="0 0 265.227 225.724">
  <g id="Group_13136" data-name="Group 13136" transform="translate(-1677 -1153)">
    <ellipse id="Ellipse_430" data-name="Ellipse 430" cx="130.412" cy="4.1" rx="130.412" ry="4.1" transform="translate(1677 1365.783)" fill="#c9d7fa"/>
    <path id="Path_12437" data-name="Path 12437" d="M37.754,204.212c-37.936-30.738,16.634-44.668-10.847-68.659S14.708,30.4,60.132,26.966c47.983-3.621,51.647,35.377,69.575,6.412C146.675,6.028,206.291-9.4,203.6,49.867s51.109,38.968,30.535,75.1,13.275,73.632-2.486,83.287Z" transform="translate(1682.998 1157.15)" fill="#80cac7"/>
    <path id="Path_12438" data-name="Path 12438" d="M193.105,163.648c-64.981-10.178-72.193-49.059-106.071-35.638S62.591,88.576,30.894,92.3C-.543,95.992-.63,159.068,10.7,169.537s119.55,1.149,119.55,1.149,57.42,2.6,61.215-1.774,1.7-5.264,1.7-5.264" transform="translate(1678.735 1194.821)" fill="#1a5491"/>
    <path id="Path_12439" data-name="Path 12439" d="M52.88,164.833c64.777-11.371,71.247-50.426,105.374-37.659S182,87.29,213.754,90.4c31.509,3.1,32.8,66.158,21.665,76.831s-120.888,7.517-120.888,7.517-57.1.087-60.982-4.231-.669-5.685-.669-5.685" transform="translate(1700.442 1193.985)" fill="#1a5491"/>
    <path id="Path_12440" data-name="Path 12440" d="M91.39,34.6C108.039,21.134,86.5,2.857,75.28,12.9S85.487,39.353,91.39,34.6Z" transform="translate(1709.725 1157.544)" fill="#80cac7"/>
    <path id="Path_12441" data-name="Path 12441" d="M155.056,40.392C136.284,42.951,170.6,80.683,173.013,71.61S163.082,39.287,155.056,40.392Z" transform="translate(1744.862 1171.322)" fill="#80cac7"/>
    <path id="Path_12442" data-name="Path 12442" d="M59.963,155.457l-1.061.378s-1.454-4.057-3.8-10.076-5.642-13.973-9.248-21.81S38.4,108.419,35.346,102.719s-5.176-9.437-5.176-9.437l.974-.553s2.167,3.751,5.205,9.466,6.936,13.435,10.527,21.287,6.921,15.82,9.277,21.81S59.963,155.457,59.963,155.457Z" transform="translate(1690.698 1195.102)" fill="#e5a1ac"/>
    <path id="Path_12443" data-name="Path 12443" d="M39.461,97.467a10.571,10.571,0,0,1-5.569,4.464,11.516,11.516,0,0,1-.334-2.37,9.466,9.466,0,0,1,.916-4.769,10.673,10.673,0,0,1,5.554-4.551,10.818,10.818,0,0,1-.567,7.227Z" transform="translate(1692.225 1193.972)" fill="#e5a1ac"/>
    <path id="Path_12444" data-name="Path 12444" d="M33.151,106.108a10.949,10.949,0,0,0,6.819-2.036,10.512,10.512,0,0,0-6.223-3.432A10.905,10.905,0,0,0,27,102.807a10.774,10.774,0,0,0,6.151,3.3Z" transform="translate(1689.259 1198.693)" fill="#e5a1ac"/>
    <path id="Path_12445" data-name="Path 12445" d="M30.471,98.216a7.27,7.27,0,0,0,4.435-1.454,6.863,6.863,0,0,0-4.144-2.152A7.11,7.11,0,0,0,26.4,96.151,7.168,7.168,0,0,0,30.471,98.216Z" transform="translate(1688.986 1195.956)" fill="#e5a1ac"/>
    <path id="Path_12446" data-name="Path 12446" d="M28.577,93.339a7.125,7.125,0,0,0,3.839,2.646,7.052,7.052,0,0,0-.742-4.638,7.037,7.037,0,0,0-3.882-2.617,7.008,7.008,0,0,0,.785,4.609Z" transform="translate(1689.572 1193.286)" fill="#e5a1ac"/>
    <path id="Path_12447" data-name="Path 12447" d="M45.077,105.5a12.912,12.912,0,0,1-6.979,5.249,13.755,13.755,0,0,1,.974-8.724,13.188,13.188,0,0,1,6.907-5.394,15.21,15.21,0,0,1,.407,2.908A11.632,11.632,0,0,1,45.077,105.5Z" transform="translate(1694.156 1196.873)" fill="#e5a1ac"/>
    <path id="Path_12448" data-name="Path 12448" d="M36.925,115.862a13.566,13.566,0,0,0,8.448-2.283,12.752,12.752,0,0,0-7.488-4.464,13.348,13.348,0,0,0-8.4,2.443A13.246,13.246,0,0,0,36.925,115.862Z" transform="translate(1690.385 1202.534)" fill="#e5a1ac"/>
    <path id="Path_12449" data-name="Path 12449" d="M50.1,115.95a12.912,12.912,0,0,1-7.27,4.958A13.8,13.8,0,0,1,42.644,118a11.749,11.749,0,0,1,1.454-5.816,13.086,13.086,0,0,1,7.125-5.1A13.29,13.29,0,0,1,50.1,115.95Z" transform="translate(1696.356 1201.618)" fill="#e5a1ac"/>
    <path id="Path_12450" data-name="Path 12450" d="M41.387,125.956a13.508,13.508,0,0,0,8.535-1.934,13.945,13.945,0,0,0-2.007-2.108,11.109,11.109,0,0,0-5.264-2.646,13.348,13.348,0,0,0-8.492,2.108,13.086,13.086,0,0,0,7.227,4.58Z" transform="translate(1692.51 1207.126)" fill="#e5a1ac"/>
    <path id="Path_12451" data-name="Path 12451" d="M54.469,126.052a12.912,12.912,0,0,1-7.43,4.682A13.828,13.828,0,0,1,48.7,122.1a13.217,13.217,0,0,1,7.27-4.827,13.261,13.261,0,0,1-1.5,8.782Z" transform="translate(1698.301 1206.244)" fill="#e5a1ac"/>
    <path id="Path_12452" data-name="Path 12452" d="M45.257,135.76a13.508,13.508,0,0,0,8.637-1.614,12.766,12.766,0,0,0-7.11-5.031,13.333,13.333,0,0,0-8.564,1.774A13.2,13.2,0,0,0,45.257,135.76Z" transform="translate(1694.353 1211.571)" fill="#e5a1ac"/>
    <rect id="Rectangle_24961" data-name="Rectangle 24961" width="129.612" height="174.033" rx="2.93" transform="translate(1742.402 1196.127)" fill="#353b6f"/>
    <rect id="Rectangle_24962" data-name="Rectangle 24962" width="115.639" height="161.601" transform="translate(1749.396 1202.553)" fill="#fff"/>
    <path id="Path_12467" data-name="Path 12467" d="M67.245,59.353a.393.393,0,1,1-.393-.393A.393.393,0,0,1,67.245,59.353Z" transform="translate(1707.175 1179.77)" fill="#fff"/>
    <path id="Path_12468" data-name="Path 12468" d="M67.245,61.923a.393.393,0,1,1-.393-.393.393.393,0,0,1,.393.393Z" transform="translate(1707.175 1180.936)" fill="#fff"/>
    <rect id="Rectangle_24965" data-name="Rectangle 24965" width="92.724" height="4.042" rx="1.37" transform="translate(1758.426 1213.11)" fill="#c9d7fa"/>
    <path id="Path_12469" data-name="Path 12469" d="M157.828,51.172h-69.6c-2.333,0-4.225-.9-4.225-2.021h0c0-1.116,1.892-2.021,4.225-2.021h69.6c2.333,0,4.225.9,4.225,2.021h0C162.052,50.267,160.161,51.172,157.828,51.172Z" transform="translate(1674.426 1174.398)" fill="#c9d7fa"/>
    <path id="Path_12470" data-name="Path 12470" d="M169.449,56.952h-81.8c-2.017,0-3.651-.9-3.651-2.021h0c0-1.116,1.635-2.021,3.651-2.021h81.8c2.017,0,3.651.9,3.651,2.021h0c0,1.116-1.635,2.021-3.651,2.021Z" transform="translate(1675.359 1177.023)" fill="#c9d7fa"/>
    <rect id="Rectangle_24966" data-name="Rectangle 24966" width="61.404" height="4.042" rx="1.37" transform="translate(1759.88 1238.352)" fill="#c9d7fa"/>
    <rect id="Rectangle_24967" data-name="Rectangle 24967" width="76.133" height="4.042" rx="1.37" transform="translate(1757.975 1257.617)" fill="#b1c0dd"/>
    <path id="Path_12471" data-name="Path 12471" d="M130.82,81.772H57.711a2.021,2.021,0,0,1-2.021-2.021h0a2.021,2.021,0,0,1,2.021-2.021H130.82a2.036,2.036,0,0,1,2.021,2.021h0A2.021,2.021,0,0,1,130.82,81.772Z" transform="translate(1702.285 1188.292)" fill="#b1c0dd"/>
    <path id="Path_12472" data-name="Path 12472" d="M127.112,87.562h-69.4a2.021,2.021,0,0,1-2.021-2.021h0a2.021,2.021,0,0,1,2.021-2.021h69.4a2.021,2.021,0,0,1,2.021,2.021h0A2.021,2.021,0,0,1,127.112,87.562Z" transform="translate(1702.285 1190.921)" fill="#b1c0dd"/>
    <rect id="Rectangle_24968" data-name="Rectangle 24968" width="47.867" height="4.042" rx="1.37" transform="translate(1757.975 1282.845)" fill="#b1c0dd"/>
    <rect id="Rectangle_24969" data-name="Rectangle 24969" width="76.133" height="4.042" rx="1.37" transform="translate(1757.975 1294.274)" fill="#c9d7fa"/>
    <path id="Path_12473" data-name="Path 12473" d="M130.82,106.97H57.711a2.021,2.021,0,0,1-2.021-2.021h0A2.021,2.021,0,0,1,57.711,103H130.82a2.021,2.021,0,0,1,2.021,2.021h0A2.021,2.021,0,0,1,130.82,106.97Z" transform="translate(1702.285 1199.765)" fill="#c9d7fa"/>
    <rect id="Rectangle_24970" data-name="Rectangle 24970" width="73.443" height="4.042" rx="1.39" transform="translate(1757.975 1311.097)" fill="#c9d7fa"/>
    <rect id="Rectangle_24971" data-name="Rectangle 24971" width="47.867" height="4.042" rx="1.37" transform="translate(1757.975 1319.516)" fill="#c9d7fa"/>
    <rect id="Rectangle_24972" data-name="Rectangle 24972" width="23.308" height="4.042" rx="1.37" transform="translate(1757.975 1338.665)" fill="#b1c0dd"/>
    <rect id="Rectangle_24973" data-name="Rectangle 24973" width="33.428" height="4.042" rx="1.37" transform="translate(1757.975 1349.963)" fill="#b1c0dd"/>
    <path id="Path_12474" data-name="Path 12474" d="M137.709,94.2a26.9,26.9,0,1,1-26.89-26.885A26.9,26.9,0,0,1,137.709,94.2Z" transform="translate(1715.098 1183.561)" fill="#fff"/>
    <rect id="Rectangle_24974" data-name="Rectangle 24974" width="15.704" height="19.949" transform="translate(1860.717 1223.215)" fill="#fcb15d"/>
    <path id="Path_12475" data-name="Path 12475" d="M128.013,51.173h11.211a.262.262,0,0,0,.233-.276h0a.247.247,0,0,0-.233-.276H128.013a.247.247,0,0,0-.233.276h0a.262.262,0,0,0,.233.276Z" transform="translate(1735.015 1175.983)" fill="#7f7fc6"/>
    <path id="Path_12476" data-name="Path 12476" d="M128.073,52.728h11.211a.247.247,0,0,0,.233-.276h0a.247.247,0,0,0-.233-.262H128.073a.247.247,0,0,0-.233.262h0a.247.247,0,0,0,.233.276Z" transform="translate(1735.043 1176.696)" fill="#7f7fc6"/>
    <path id="Path_12477" data-name="Path 12477" d="M128.073,54.3h11.211a.262.262,0,0,0,.233-.276h0a.247.247,0,0,0-.233-.276H128.073a.247.247,0,0,0-.233.276h0a.262.262,0,0,0,.233.276Z" transform="translate(1735.043 1177.404)" fill="#7f7fc6"/>
    <path id="Path_12478" data-name="Path 12478" d="M128.073,55.853h5.976a.262.262,0,0,0,.233-.276h0a.262.262,0,0,0-.233-.276h-5.976a.262.262,0,0,0-.233.276h0A.262.262,0,0,0,128.073,55.853Z" transform="translate(1735.043 1178.108)" fill="#7f7fc6"/>
    <rect id="Rectangle_24975" data-name="Rectangle 24975" width="7.067" height="2.981" transform="translate(1864.948 1243.15)" fill="#b3b3b3"/>
    <path id="Path_12479" data-name="Path 12479" d="M59.419,98.345a12.374,12.374,0,0,1-12.374,12.374,12.11,12.11,0,0,1-2.065-.174v-24.4A12.113,12.113,0,0,1,47.045,86,12.374,12.374,0,0,1,59.419,98.345Z" transform="translate(1697.422 1192.046)" fill="#444487" opacity="0.47"/>
    <circle id="Ellipse_432" data-name="Ellipse 432" cx="12.374" cy="12.374" r="12.374" transform="translate(1726.97 1286.439) rotate(-45)" fill="#c9d7fa"/>
    <path id="Path_12482" data-name="Path 12482" d="M120.439,71.917a2.3,2.3,0,0,1-2.3,2.3H86.4c.32-.407.683-.814,1.032-1.207a29.677,29.677,0,0,1,3.635-3.388h27.074a2.3,2.3,0,0,1,2.3,2.3Z" transform="translate(1716.228 1184.61)" fill="#b1c0dd"/>
    <path id="Path_12483" data-name="Path 12483" d="M122.191,78.507a2.312,2.312,0,0,1-2.326,2.3H85.07a24.465,24.465,0,0,1,1.018-2.385,24.965,24.965,0,0,1,1.207-2.21h32.57a2.283,2.283,0,0,1,2.326,2.3Z" transform="translate(1715.624 1187.602)" fill="#b1c0dd"/>
    <path id="Path_12484" data-name="Path 12484" d="M119.488,85.087a2.3,2.3,0,0,1-2.312,2.283H81.77v-.2a27.807,27.807,0,0,1,.189-3.315,2.959,2.959,0,0,1,.131-1.061h35.086a2.3,2.3,0,0,1,2.312,2.3Z" transform="translate(1714.126 1190.589)" fill="#b1c0dd"/>
    <path id="Path_12485" data-name="Path 12485" d="M90.256,91.717a2.3,2.3,0,0,1-2.3,2.3h-4.7a2.136,2.136,0,0,0-.2-.654c-.2-.654-.393-1.294-.553-1.948s-.32-1.323-.436-1.992h5.889a2.3,2.3,0,0,1,2.3,2.3Z" transform="translate(1714.262 1193.599)" fill="#b1c0dd"/>
    <path id="Path_12486" data-name="Path 12486" d="M119.349,100.607a2.3,2.3,0,0,1-2.3,2.3H94.311a25.023,25.023,0,0,1-3.039-2.225A23.8,23.8,0,0,1,88.8,98.31h28.252a2.3,2.3,0,0,1,2.3,2.3Z" transform="translate(1717.318 1197.636)" fill="#c9d7fa"/>
    <path id="Path_12487" data-name="Path 12487" d="M116.666,105.176a29.6,29.6,0,0,1-10.673,1.977,30.274,30.274,0,0,1-7.852-1.047A34.707,34.707,0,0,1,94.55,104.9h21.011A2.254,2.254,0,0,1,116.666,105.176Z" transform="translate(1719.929 1200.628)" fill="#c9d7fa"/>
    <path id="Path_12488" data-name="Path 12488" d="M82.91,94.654a16.706,16.706,0,0,0,.1,2.239c1.12-14.628,13.333-8.172,28.252-8.172s27.132-6.456,28.266,8.172c0-.727.087-1.454.087-2.239a28.354,28.354,0,0,0-56.707,0Z" transform="translate(1714.644 1183.102)" fill="#fff" opacity="0.33"/>
    <path id="Path_12489" data-name="Path 12489" d="M111.8,65.16a30.026,30.026,0,1,0,30,30.011,30.026,30.026,0,0,0-30-30.011Zm0,56.911A26.9,26.9,0,1,1,138.69,95.176,26.9,26.9,0,0,1,111.8,122.071Z" transform="translate(1714.117 1182.585)" fill="#414042"/>
    <path id="Path_12490" data-name="Path 12490" d="M121.363,120.918H100.353a34.708,34.708,0,0,0,3.591,1.207,30.271,30.271,0,0,0,7.852,1.047,29.6,29.6,0,0,0,10.673-1.977,2.253,2.253,0,0,0-1.105-.276Zm-34.9-18.641a27.162,27.162,0,0,1-1.091-3.94h-3.17c.116.669.276,1.338.436,1.992s.349,1.294.553,1.948a2.413,2.413,0,0,0,.2.654h3.33ZM93.155,69.62a29.677,29.677,0,0,0-3.621,3.461c-.349.393-.712.8-1.032,1.207l-.247.305c-.291.349-.553.712-.814,1.076s-.669.96-.974,1.454-.872,1.454-1.265,2.152h3.591c.451-.742.945-1.454,1.454-2.152A25.257,25.257,0,0,1,92.7,74.215c.407-.407.829-.829,1.28-1.207a27.51,27.51,0,0,1,4.769-3.388Zm-11.2,20.211a27.8,27.8,0,0,0-.189,3.315v.2H84.9v-.2a27.8,27.8,0,0,1,.2-3.315,6.651,6.651,0,0,1,.145-1.061H82.1C82.1,89.075,81.988,89.482,81.959,89.831Z" transform="translate(1714.126 1184.61)" fill="#414042"/>
    <path id="Path_12491" data-name="Path 12491" d="M2.937,0H3.01A2.908,2.908,0,0,1,5.918,2.908V43.883H0V2.923A2.908,2.908,0,0,1,2.937,0Z" transform="translate(1878.708 1327.109) rotate(135)" fill="#414042"/>
    <path id="Path_12492" data-name="Path 12492" d="M79.742,31.18h28.426a1.992,1.992,0,0,1,1.934,1.992v8.87H77.75v-8.87A1.992,1.992,0,0,1,79.742,31.18Z" transform="translate(1712.301 1167.157)" fill="#fcb15d"/>
    <path id="Path_12493" data-name="Path 12493" d="M95.87,21.747a6.747,6.747,0,0,0-4.842-2.007A6.848,6.848,0,0,0,84.18,26.6V39.864H97.892V26.6A6.732,6.732,0,0,0,95.87,21.747ZM91.028,29.8a3.446,3.446,0,1,1,3.446-3.446A3.446,3.446,0,0,1,91.028,29.8Z" transform="translate(1715.22 1161.963)" fill="#fcb15d"/>
    <rect id="Rectangle_24976" data-name="Rectangle 24976" width="13.712" height="3.868" transform="translate(1799.4 1194.469)" fill="#444487" opacity="0.47"/>
    <path id="Path_12494" data-name="Path 12494" d="M35.49,14.889,50.379,0,49.274,13.77Z" transform="translate(1693.114 1153)" fill="#565689"/>
    <path id="Path_12495" data-name="Path 12495" d="M50.379,0,37.337,1.847,35.49,14.889Z" transform="translate(1693.114 1153)" fill="#7f7fc6"/>
    <rect id="Rectangle_24977" data-name="Rectangle 24977" width="14.991" height="12.025" transform="translate(1729.717 1164.592) rotate(-45)" fill="#fff"/>
    <path id="Path_12496" data-name="Path 12496" d="M50.379,0l9.364,9.364L44.868,24.253,35.49,14.889l12.127-2.748Z" transform="translate(1693.114 1153)" fill="#fcb15d"/>
    <rect id="Rectangle_24978" data-name="Rectangle 24978" width="8.942" height="8.942" transform="translate(1889.162 1260.205) rotate(45)" fill="#fcb15d"/>
    <rect id="Rectangle_24979" data-name="Rectangle 24979" width="3.868" height="3.868" transform="translate(1879.867 1249.083) rotate(45)" fill="#fcb15d"/>
    <rect id="Rectangle_24980" data-name="Rectangle 24980" width="8.942" height="8.942" transform="matrix(-0.134, -0.991, 0.991, -0.134, 1697.018, 1187.108)" fill="#fcb15d"/>
    <rect id="Rectangle_24981" data-name="Rectangle 24981" width="3.868" height="3.868" transform="matrix(-0.134, -0.991, 0.991, -0.134, 1697.661, 1201.576)" fill="#fcb15d"/>
    <path id="Path_12497" data-name="Path 12497" d="M46.46,78.188l-.32-1.454a12.71,12.71,0,0,0,1.367-.364l.436,1.454Q47.187,78.028,46.46,78.188Z" transform="translate(1697.949 1187.674)" fill="#fff"/>
    <path id="Path_12498" data-name="Path 12498" d="M48.6,83.558a13.086,13.086,0,0,1-2.283-.2L46.6,81.9a11.457,11.457,0,0,0,2.574.16v1.454Zm-5.075-1.105a11.5,11.5,0,0,1-2.472-1.585L42,79.734a9.495,9.495,0,0,0,2.152,1.454Zm-4.493-3.664a17.1,17.1,0,0,1-1.672-2.37l1.28-.727a18.074,18.074,0,0,0,1.454,2.2Zm-2.908-4.944c-.349-.829-.683-1.73-.974-2.646l1.454-.451a26.766,26.766,0,0,0,.916,2.53Zm-1.716-5.38c-.233-.974-.407-1.9-.553-2.748l1.454-.247c.131.814.305,1.716.538,2.661Z" transform="translate(1692.373 1182.725)" fill="#fff"/>
    <path id="Path_12499" data-name="Path 12499" d="M33.626,64.164c-.087-.945-.116-1.454-.116-1.454h1.454a12.826,12.826,0,0,0,.116,1.454Z" transform="translate(1692.214 1181.472)" fill="#fff"/>
    <path id="Path_12500" data-name="Path 12500" d="M21.15,62.462V63.64L32.055,74.545,46.974,59.627,46.93,58.58Z" transform="translate(1686.603 1179.597)" fill="#c9d9f4"/>
    <rect id="Rectangle_24984" data-name="Rectangle 24984" width="15.485" height="20.982" transform="translate(1722.589 1227.239) rotate(45)" fill="#fff"/>
    <rect id="Rectangle_24985" data-name="Rectangle 24985" width="0.742" height="3.882" rx="0.25" transform="translate(1724.63 1226.748) rotate(45)" fill="#fff"/>
    <rect id="Rectangle_24986" data-name="Rectangle 24986" width="0.712" height="3.882" rx="0.24" transform="translate(1733.51 1235.638) rotate(45)" fill="#fff"/>
    <rect id="Rectangle_24987" data-name="Rectangle 24987" width="0.712" height="3.882" rx="0.24" transform="matrix(0.707, 0.707, -0.707, 0.707, 1732.013, 1234.154)" fill="#fff"/>
    <rect id="Rectangle_24988" data-name="Rectangle 24988" width="0.712" height="3.882" rx="0.24" transform="translate(1730.548 1232.675) rotate(45)" fill="#fff"/>
    <rect id="Rectangle_24989" data-name="Rectangle 24989" width="0.712" height="3.882" rx="0.24" transform="translate(1729.065 1231.188) rotate(45)" fill="#fff"/>
    <rect id="Rectangle_24990" data-name="Rectangle 24990" width="0.712" height="3.882" rx="0.24" transform="translate(1727.593 1229.726) rotate(45)" fill="#fff"/>
    <rect id="Rectangle_24991" data-name="Rectangle 24991" width="0.712" height="3.882" rx="0.24" transform="translate(1726.124 1228.245) rotate(45)" fill="#fff"/>
    <path id="Path_12501" data-name="Path 12501" d="M37.566,61.249,30.921,54.6a.436.436,0,0,1,0-.625h0a.436.436,0,0,1,.611,0l6.645,6.645a.422.422,0,0,1,0,.611h0a.436.436,0,0,1-.611.015Z" transform="translate(1690.979 1177.451)" fill="#b1c0dd"/>
    <path id="Path_12502" data-name="Path 12502" d="M35.926,62.894l-6.645-6.659a.436.436,0,0,1,0-.625h0a.436.436,0,0,1,.611,0l6.645,6.645a.422.422,0,0,1,0,.611h0a.436.436,0,0,1-.611.029Z" transform="translate(1690.235 1178.192)" fill="#b1c0dd"/>
    <path id="Path_12503" data-name="Path 12503" d="M34.284,64.529l-6.645-6.645a.451.451,0,0,1,0-.625h0a.436.436,0,0,1,.611,0L34.895,63.9a.436.436,0,0,1,0,.611h0A.451.451,0,0,1,34.284,64.529Z" transform="translate(1689.492 1178.941)" fill="#b1c0dd"/>
    <path id="Path_12504" data-name="Path 12504" d="M32.626,66.169,26.039,59.51a.436.436,0,0,1,0-.611h0a.436.436,0,0,1,.611,0l6.645,6.645a.436.436,0,0,1,0,.611h0a.451.451,0,0,1-.669.015Z" transform="translate(1688.766 1179.685)" fill="#b1c0dd"/>
    <path id="Path_12505" data-name="Path 12505" d="M31,67.8l-6.645-6.645a.436.436,0,0,1,0-.611h0a.422.422,0,0,1,.611,0l6.645,6.645a.436.436,0,0,1,0,.611h0a.451.451,0,0,1-.611,0Z" transform="translate(1688.003 1180.428)" fill="#b1c0dd"/>
    <path id="Path_12506" data-name="Path 12506" d="M37.314,35.89A1.977,1.977,0,1,1,35.351,34,1.977,1.977,0,0,1,37.314,35.89Z" transform="translate(1692.147 1168.437)" fill="#fff"/>
    <path id="Path_12507" data-name="Path 12507" d="M42.106,31.108a2.443,2.443,0,1,1-2.428-2.428,2.443,2.443,0,0,1,2.428,2.428Z" transform="translate(1693.899 1166.022)" fill="#fff"/>
    <circle id="Ellipse_433" data-name="Ellipse 433" cx="1.57" cy="1.57" r="1.57" transform="translate(1733.576 1207.759)" fill="#fff"/>
    <path id="Path_12508" data-name="Path 12508" d="M42.322,43.143,34.15,37.792,40.62,30.1l.887.712L35.822,37.53l7.125,4.653Z" transform="translate(1692.505 1166.666)" fill="#fff"/>
    <path id="Path_12510" data-name="Path 12510" d="M26.9,98.348a1.658,1.658,0,1,1-1.658-1.658A1.658,1.658,0,0,1,26.9,98.348Z" transform="translate(1687.706 1196.9)" fill="#fff"/>
    <circle id="Ellipse_434" data-name="Ellipse 434" cx="1.658" cy="1.658" r="1.658" transform="translate(1738.404 1230.485)" fill="#fff"/>
    <path id="Path_12511" data-name="Path 12511" d="M159.5,76.156a1.861,1.861,0,1,1-.54-1.325A1.876,1.876,0,0,1,159.5,76.156Z" transform="translate(1747.715 1186.725)" fill="#fff"/>
    <circle id="Ellipse_435" data-name="Ellipse 435" cx="0.567" cy="0.567" r="0.567" transform="translate(1710.152 1305.411)" fill="#fff"/>
    <path id="Path_12512" data-name="Path 12512" d="M31.911,71.03a.582.582,0,1,1-.257-.579.582.582,0,0,1,.257.579Z" transform="translate(1690.964 1184.944)" fill="#fff"/>
    <circle id="Ellipse_436" data-name="Ellipse 436" cx="1.658" cy="1.658" r="1.658" transform="translate(1706.589 1257.908)" fill="#fff"/>
    <path id="Path_12513" data-name="Path 12513" d="M142.279,88.254a1.876,1.876,0,1,1-1.868-1.711A1.876,1.876,0,0,1,142.279,88.254Z" transform="translate(1739.899 1192.293)" fill="#fff"/>
    <path id="Path_12514" data-name="Path 12514" d="M177.053,118.347a1.541,1.541,0,1,1-1.527-1.527A1.541,1.541,0,0,1,177.053,118.347Z" transform="translate(1755.988 1206.04)" fill="#fff"/>
    <path id="Path_12515" data-name="Path 12515" d="M173.8,133.808a1.658,1.658,0,1,1-1.658-1.658A1.658,1.658,0,0,1,173.8,133.808Z" transform="translate(1754.403 1213)" fill="#fff"/>
    <circle id="Ellipse_437" data-name="Ellipse 437" cx="0.567" cy="0.567" r="0.567" transform="translate(1923.749 1356.957)" fill="#fff"/>
    <path id="Path_12516" data-name="Path 12516" d="M142.307,18.975l-4.377,11.08-25.3-8.724,24.442-4.42Z" transform="translate(1728.137 1160.678)" fill="#c9d7fa"/>
    <path id="Path_12517" data-name="Path 12517" d="M138.483,14.47,112.63,22.438l29.677-2.356Z" transform="translate(1728.137 1159.57)" fill="#fff"/>
    <path id="Path_12518" data-name="Path 12518" d="M112.63,19.95l31.407,7.3-1.018-7.139Z" transform="translate(1728.137 1162.058)" fill="#fff"/>
    <path id="Path_12519" data-name="Path 12519" d="M122.951,60.505c1.061-.2,2.108-.436,3.126-.712l-.393-1.454c-.989.247-2.007.48-3.024.669Zm6.194-1.629c1.018-.334,2.036-.712,3-1.134l-.611-1.454c-.931.393-1.9.756-2.908,1.091Zm5.9-2.486c.96-.494,1.89-1.018,2.792-1.585l-.829-1.338c-.858.538-1.759,1.047-2.675,1.527ZM140.5,53c.872-.64,1.716-1.323,2.5-2.021L141.955,49.8c-.756.669-1.556,1.323-2.385,1.934Zm4.813-4.275a29.719,29.719,0,0,0,2.079-2.472l-1.265-.945a26.767,26.767,0,0,1-1.977,2.341ZM149.2,43.58a25.924,25.924,0,0,0,1.454-2.908l-1.454-.625a22.742,22.742,0,0,1-1.454,2.7Zm2.559-5.976a17.605,17.605,0,0,0,.553-3.242l-1.527-.116a16.752,16.752,0,0,1-.509,2.908Zm-1.134-6.31,1.614-.32a11.632,11.632,0,0,0-1.018-3.2l-1.454.7a9.6,9.6,0,0,1,.858,2.821ZM148.062,26.2l1.105-1.12a10.789,10.789,0,0,0-2.748-1.977l-.727,1.454a9.392,9.392,0,0,1,2.37,1.643Zm-5.118-2.719.378-1.527a18.451,18.451,0,0,0-3.242-.509l-.116,1.57a16.838,16.838,0,0,1,2.981.465Zm-9.073-.145c1.047-.16,2.079-.262,3.053-.32l-.087-1.57a22.976,22.976,0,0,0-3.213.334Z" transform="translate(1732.691 1162.739)" fill="#fff"/>
    <path id="Path_12520" data-name="Path 12520" d="M167.75,92.43a10.6,10.6,0,1,0,10.6,10.6,10.6,10.6,0,0,0-10.6-10.6Zm0,20.095a9.495,9.495,0,1,1,6.742-2.765,9.495,9.495,0,0,1-6.742,2.765Z" transform="translate(1748.351 1194.966)" fill="#fff"/>
    <path id="Path_12521" data-name="Path 12521" d="M0,0H2.094V14.54a.96.96,0,0,1-.96.96H.974a.96.96,0,0,1-.96-.96V0Z" transform="translate(1908.412 1304.476) rotate(45)" fill="#fff"/>
    <path id="Path_12522" data-name="Path 12522" d="M48.563,153.52c0,.6-5.816,1.091-13.086,1.091s-13.086-.494-13.086-1.091,5.816-1.091,13.086-1.091S48.563,152.924,48.563,153.52Z" transform="translate(1687.166 1222.208)" fill="#c9d7fa"/>
    <path id="Path_12523" data-name="Path 12523" d="M40.918,171.112l-1.047.174-.582-2.675c-.1-.422-.2-.887-.32-1.454s-.32-1.047-.494-1.629c-.407-1.149-.712-2.486-1.338-3.853a110.841,110.841,0,0,0-10.585-19.339,171.023,171.023,0,0,1-11.385-19.193c-.611-1.454-1.221-2.675-1.687-3.839l-1.091-3.039a16.1,16.1,0,0,1-.611-1.992l-.189-.712,1.018-.262s.073.233.189.683a16.139,16.139,0,0,0,.6,1.963l1.076,2.908c.436,1.134,1.047,2.385,1.658,3.766a167.763,167.763,0,0,0,11.312,19.062A113.314,113.314,0,0,1,38.126,161.21c.625,1.454.945,2.763,1.352,3.94.189.582.393,1.134.523,1.658s.218,1,.305,1.454Z" transform="translate(1682.262 1204.442)" fill="#869964"/>
    <path id="Path_12524" data-name="Path 12524" d="M19.787,118.093a9.844,9.844,0,0,1-3.5,2.908,11.065,11.065,0,0,1-2.079.814,11.094,11.094,0,0,1-.131-2.2,7.764,7.764,0,0,1,1.585-4.144,8.506,8.506,0,0,1,3.78-2.414,13.087,13.087,0,0,1,2.152-.582s0,.189,0,.523a7.532,7.532,0,0,1-.145,1.323A10.629,10.629,0,0,1,19.787,118.093Z" transform="translate(1683.385 1204.069)" fill="#869964"/>
    <path id="Path_12525" data-name="Path 12525" d="M13.627,126.439a7.91,7.91,0,0,0,4.464-.887,11.851,11.851,0,0,0,1.89-1.178,11.632,11.632,0,0,0-5.947-3.4,8.52,8.52,0,0,0-4.522.523,10.178,10.178,0,0,0-1.992,1.018,12.823,12.823,0,0,0,1.7,1.861,8.928,8.928,0,0,0,4.406,2.065Z" transform="translate(1680.414 1207.879)" fill="#869964"/>
    <path id="Path_12528" data-name="Path 12528" d="M24.556,124.985a11.443,11.443,0,0,1-3.78,4.071,13.363,13.363,0,0,1-2.4,1.309,10.353,10.353,0,0,1-.48-2.675,9.175,9.175,0,0,1,1.076-5.38,10.6,10.6,0,0,1,4.057-3.751,15.253,15.253,0,0,1,2.486-1.149,10.178,10.178,0,0,1,.16,2.4A10.643,10.643,0,0,1,24.556,124.985Z" transform="translate(1685.102 1206.308)" fill="#869964"/>
    <path id="Path_12529" data-name="Path 12529" d="M18.269,135.7a12.272,12.272,0,0,0,7.576-3.155,13.086,13.086,0,0,0-2.2-1.643,11.472,11.472,0,0,0-5.322-1.745,10.6,10.6,0,0,0-5.409,1.454,12.856,12.856,0,0,0-2.268,1.541,13.989,13.989,0,0,0,2.254,1.818,10.556,10.556,0,0,0,5.365,1.73Z" transform="translate(1681.835 1211.643)" fill="#869964"/>
    <path id="Path_12530" data-name="Path 12530" d="M30.143,134.029a12.01,12.01,0,0,1-6.034,5.554,12.65,12.65,0,0,1,.1-8.215,12.432,12.432,0,0,1,6.005-5.6s.087.262.2.727a14.686,14.686,0,0,1,.378,1.934A11.065,11.065,0,0,1,30.143,134.029Z" transform="translate(1687.657 1210.103)" fill="#869964"/>
    <path id="Path_12531" data-name="Path 12531" d="M23.587,144.347a11.908,11.908,0,0,0,5.336-1.294,12.533,12.533,0,0,0,2.326-1.454,11.792,11.792,0,0,0-2.065-1.745,10.178,10.178,0,0,0-5.22-1.774,12.621,12.621,0,0,0-7.6,3.083,13.419,13.419,0,0,0,2.079,1.541A10.963,10.963,0,0,0,23.587,144.347Z" transform="translate(1684.428 1215.693)" fill="#869964"/>
    <path id="Path_12532" data-name="Path 12532" d="M35.557,143.575a9.451,9.451,0,0,1-4.1,3.8,13.088,13.088,0,0,1-2.545,1.018,14.715,14.715,0,0,1,.814-8.3,10.818,10.818,0,0,1,3.8-4.129,11.633,11.633,0,0,1,2.443-1.236S37.637,139.707,35.557,143.575Z" transform="translate(1690.007 1214.167)" fill="#869964"/>
    <path id="Path_12533" data-name="Path 12533" d="M26.934,152.288a13.494,13.494,0,0,0,5.554-.189,13.085,13.085,0,0,0,2.588-.858s-2.356-4.115-6.456-4.653a10.7,10.7,0,0,0-5.438.858,15.531,15.531,0,0,0-2.443,1.236,10.047,10.047,0,0,0,1.658,1.454,11.853,11.853,0,0,0,1.977,1.192,9.975,9.975,0,0,0,2.559.96Z" transform="translate(1686.417 1219.529)" fill="#869964"/>
    <ellipse id="Ellipse_438" data-name="Ellipse 438" cx="13.086" cy="1.091" rx="13.086" ry="1.091" transform="translate(1845.711 1376.543)" fill="#c9d7fa"/>
    <path id="Path_12534" data-name="Path 12534" d="M126.334,177.557H125.04v-3.446a70.548,70.548,0,0,1,.843-9,106.625,106.625,0,0,1,7.983-26.173c3.955-9.117,8.724-17.8,12.127-24.355s5.613-10.963,5.613-10.963l1.149.567s-2.167,4.449-5.627,10.992-8.157,15.238-12.083,24.268a106.145,106.145,0,0,0-7.881,25.78,68.011,68.011,0,0,0-.829,8.855C126.29,176.321,126.334,177.557,126.334,177.557Z" transform="translate(1733.772 1200.047)" fill="#e5a1ac"/>
    <path id="Path_12535" data-name="Path 12535" d="M148.558,114.088a12.2,12.2,0,0,1-7.808-2.414,12.825,12.825,0,0,1,7.139-4.028,12.33,12.33,0,0,1,7.852,2.268,12.374,12.374,0,0,1-7.183,4.173Z" transform="translate(1740.905 1201.866)" fill="#e5a1ac"/>
    <path id="Path_12536" data-name="Path 12536" d="M133.674,114.52a12.243,12.243,0,0,0,6.427,5.016,10.353,10.353,0,0,0-7.27-13.086A12.432,12.432,0,0,0,133.674,114.52Z" transform="translate(1737.163 1201.332)" fill="#e5a1ac"/>
    <path id="Path_12537" data-name="Path 12537" d="M139.278,106.945a8.23,8.23,0,0,0,4.26,3.242,7.925,7.925,0,0,0-.64-5.307,8.128,8.128,0,0,0-4.362-3.17A8.07,8.07,0,0,0,139.278,106.945Z" transform="translate(1739.832 1199.179)" fill="#e5a1ac"/>
    <path id="Path_12538" data-name="Path 12538" d="M143.387,102.3a8.317,8.317,0,0,0,0,5.336,6.674,6.674,0,0,0,3.781-9.073,8.346,8.346,0,0,0-3.781,3.737Z" transform="translate(1741.902 1197.749)" fill="#e5a1ac"/>
    <path id="Path_12539" data-name="Path 12539" d="M145.548,124.082a15.5,15.5,0,0,1-9.568-2.908,14.875,14.875,0,0,1,8.724-4.842,15.166,15.166,0,0,1,9.553,3.024,15.994,15.994,0,0,1-2.472,2.2,12.97,12.97,0,0,1-6.238,2.53Z" transform="translate(1738.739 1205.815)" fill="#e5a1ac"/>
    <path id="Path_12540" data-name="Path 12540" d="M127.323,125.21a12.359,12.359,0,0,0,5.075,4.566,16.852,16.852,0,0,0,3.1,1.251,17.445,17.445,0,0,0,.276-3.344,13.77,13.77,0,0,0-1.585-6.674,14.918,14.918,0,0,0-7.968-6.078,16.171,16.171,0,0,0-.422,3.446A12.912,12.912,0,0,0,127.323,125.21Z" transform="translate(1734.106 1205.182)" fill="#e5a1ac"/>
    <path id="Path_12541" data-name="Path 12541" d="M140.356,135.2a14.54,14.54,0,0,1-6.732-.712,16,16,0,0,1-3.053-1.454,14.249,14.249,0,0,1,2.254-2.443,12.068,12.068,0,0,1,6.049-2.908,13.087,13.087,0,0,1,6.689,1.061,17.538,17.538,0,0,1,2.908,1.556,15.266,15.266,0,0,1-2.268,2.137A13.334,13.334,0,0,1,140.356,135.2Z" transform="translate(1736.283 1210.939)" fill="#e5a1ac"/>
    <path id="Path_12542" data-name="Path 12542" d="M122.438,138.176a11.719,11.719,0,0,0,5.642,3.868,15.617,15.617,0,0,0,3.242.785,16.924,16.924,0,0,0-.189-3.359,14.991,14.991,0,0,0-2.3-6.529,13.246,13.246,0,0,0-5.336-4.275,14.889,14.889,0,0,0-3.17-1.047,16.125,16.125,0,0,0-.145,3.679,12.868,12.868,0,0,0,2.254,6.878Z" transform="translate(1731.547 1210.943)" fill="#e5a1ac"/>
    <path id="Path_12543" data-name="Path 12543" d="M136.939,145.75a15.282,15.282,0,0,1-6.761.349,16.272,16.272,0,0,1-3.228-.843,13.711,13.711,0,0,1,1.832-2.763,11.312,11.312,0,0,1,5.511-3.693,13,13,0,0,1,6.747.276,18.06,18.06,0,0,1,3.141,1.163,15.675,15.675,0,0,1-1.9,2.21A13.552,13.552,0,0,1,136.939,145.75Z" transform="translate(1734.639 1215.875)" fill="#e5a1ac"/>
    <path id="Path_12544" data-name="Path 12544" d="M120.149,151.657a11.3,11.3,0,0,0,6.325,2.646,16.488,16.488,0,0,0,3.344,0,8.716,8.716,0,0,0-.189-.931c-.145-.582-.378-1.454-.683-2.326a16.459,16.459,0,0,0-3.49-6.049,13.159,13.159,0,0,0-5.991-3.373,14.409,14.409,0,0,0-3.315-.494,18.584,18.584,0,0,0,.48,3.868A12.912,12.912,0,0,0,120.149,151.657Z" transform="translate(1729.736 1217.077)" fill="#e5a1ac"/>
    <path id="Path_12545" data-name="Path 12545" d="M159.938,150.067c0,.407-3.911.727-8.724.727s-8.724-.32-8.724-.727,3.911-.727,8.724-.727S159.938,149.674,159.938,150.067Z" transform="translate(1741.695 1220.805)" fill="#c9d7fa"/>
    <path id="Path_12546" data-name="Path 12546" d="M148.8,163.674l-.814-.174s.189-.785.494-2.137.858-3.3,1.6-5.569a77.645,77.645,0,0,1,7.27-15.994,120.577,120.577,0,0,1,10.425-14.075,70.134,70.134,0,0,0,4.653-6.354l.7.451a75.906,75.906,0,0,1-4.7,6.427,117.965,117.965,0,0,0-10.367,13.973A77.063,77.063,0,0,0,150.8,156c-.756,2.254-1.25,4.173-1.585,5.511Z" transform="translate(1744.192 1207.198)" fill="#869964"/>
    <path id="Path_12547" data-name="Path 12547" d="M167.213,126.4a7.5,7.5,0,0,1-4.653-2.414,8.928,8.928,0,0,1,4.987-1.847,6.936,6.936,0,0,1,3.446,1.032,7.694,7.694,0,0,1,1.381,1.061,8.433,8.433,0,0,1-1.556,1.163A6.6,6.6,0,0,1,167.213,126.4Z" transform="translate(1750.807 1208.455)" fill="#869964"/>
    <path id="Path_12548" data-name="Path 12548" d="M157.739,125.06a7.924,7.924,0,0,0,3.417,3.984,7.691,7.691,0,0,0,.494-5.205A8.026,8.026,0,0,0,158.219,120a10.061,10.061,0,0,0-.494,1.6,7.139,7.139,0,0,0,.015,3.461Z" transform="translate(1748.518 1207.484)" fill="#869964"/>
    <path id="Path_12549" data-name="Path 12549" d="M162.1,121.017a5.467,5.467,0,0,0,2.385,2.472,4.682,4.682,0,0,0,0-3.388,5.307,5.307,0,0,0-2.515-2.341,5.147,5.147,0,0,0,.131,3.257Z" transform="translate(1750.449 1206.467)" fill="#869964"/>
    <path id="Path_12550" data-name="Path 12550" d="M165.141,118.485a5.714,5.714,0,0,0-.334,3.373,4.8,4.8,0,0,0,2.748-2.137,4.187,4.187,0,0,0,.364-2.341,4.363,4.363,0,0,0-.262-1.12,5.482,5.482,0,0,0-.974.567A4.74,4.74,0,0,0,165.141,118.485Z" transform="translate(1751.774 1205.786)" fill="#869964"/>
    <path id="Path_12551" data-name="Path 12551" d="M164.075,132.293a8.942,8.942,0,0,1-4.042-1.629,10.06,10.06,0,0,1-1.643-1.454,9.393,9.393,0,0,1,6.107-1.948,9.786,9.786,0,0,1,5.656,3.1,10.046,10.046,0,0,1-1.861,1.091,8.041,8.041,0,0,1-4.217.843Z" transform="translate(1748.914 1210.778)" fill="#869964"/>
    <path id="Path_12552" data-name="Path 12552" d="M152.431,131.367a7.721,7.721,0,0,0,2.792,3.4,10.875,10.875,0,0,0,1.861,1.061,12.532,12.532,0,0,0,.494-2.094,9.655,9.655,0,0,0-.262-4.449,8.433,8.433,0,0,0-2.545-3.606,10.585,10.585,0,0,0-1.759-1.221,10.819,10.819,0,0,0-.742,2.254A8.244,8.244,0,0,0,152.431,131.367Z" transform="translate(1746.018 1209.509)" fill="#869964"/>
    <path id="Path_12553" data-name="Path 12553" d="M159.9,138.553a9.291,9.291,0,0,1-4.246-1.018,10.064,10.064,0,0,1-1.832-1.12,9.946,9.946,0,0,1,1.643-1.367,7.27,7.27,0,0,1,4.086-1.309,8.375,8.375,0,0,1,4.144,1.323,11.968,11.968,0,0,1,1.73,1.28A9.858,9.858,0,0,1,159.9,138.553Z" transform="translate(1746.839 1213.722)" fill="#869964"/>
    <path id="Path_12554" data-name="Path 12554" d="M148.2,139.256a7.561,7.561,0,0,0,3.286,2.908,9.785,9.785,0,0,0,2.007.771,13.625,13.625,0,0,0,.16-2.152,9.8,9.8,0,0,0-.96-4.362,8.477,8.477,0,0,0-3.068-3.17,9.278,9.278,0,0,0-1.934-.931,11.238,11.238,0,0,0-.393,2.355,8.157,8.157,0,0,0,.9,4.58Z" transform="translate(1743.862 1213.077)" fill="#869964"/>
    <path id="Path_12555" data-name="Path 12555" d="M156.88,145.095a9.378,9.378,0,0,1-4.362-.364,10.454,10.454,0,0,1-1.977-.843,8.724,8.724,0,0,1,1.454-1.6,7.27,7.27,0,0,1,3.839-1.9,8.593,8.593,0,0,1,4.362.7,11.373,11.373,0,0,1,1.9,1,11.546,11.546,0,0,1-1.454,1.294,8.927,8.927,0,0,1-3.766,1.716Z" transform="translate(1745.35 1216.719)" fill="#869964"/>
    <path id="Path_12556" data-name="Path 12556" d="M145.417,147.271a7.677,7.677,0,0,0,3.679,2.4,11.283,11.283,0,0,0,2.094.465,10.179,10.179,0,0,0-.16-2.166,9.815,9.815,0,0,0-1.585-4.159,8.55,8.55,0,0,0-3.5-2.675,9.044,9.044,0,0,0-2.05-.625,11.066,11.066,0,0,0,0,2.385,8.2,8.2,0,0,0,1.527,4.377Z" transform="translate(1742.301 1216.796)" fill="#869964"/>
  </g>
</svg>
