<svg xmlns="http://www.w3.org/2000/svg" width="376.017" height="243" viewBox="0 0 376.017 243">
  <g id="Group_13468" data-name="Group 13468" transform="translate(-1193 -598)">
    <rect id="Rectangle_25023" data-name="Rectangle 25023" width="376.016" height="10.253" rx="5.127" transform="translate(1193 830.747)" fill="#54d7e9"/>
    <path id="Path_13356" data-name="Path 13356" d="M19.778,283.885c-2.063-5.641-5.907-10.1-8.762-15.282a40.175,40.175,0,0,1-4.8-16.062c-.613-7.647,1.873-14.86,2.711-22.391.63-5.606.907-11.38-1.358-16.646-1.965-4.566-5.005-8.589-6.78-13.247-1.676-4.41-1.023-12.2,5.2-12.068,5.1.11,8.878,3.352,11.444,7.45a39.54,39.54,0,0,1,5.005,10.935A48.9,48.9,0,0,1,23.7,217.51c.358,10.132.179,20.4-2.439,30.194-.8,3-1.826,5.942-2.456,8.982a35.916,35.916,0,0,0,5.67,27.518" transform="translate(1193.001 518.581)" fill="#019ca8"/>
    <path id="Path_13357" data-name="Path 13357" d="M18.99,237.615c1.335-.879,3.133-2.156,5.046-3.664.266-.214.532-.422.786-.636v-.578l-1.081.861c-1.9,1.5-3.664,2.815-4.953,3.757-.665.486-1.2.879-1.555,1.156a60.686,60.686,0,0,0,.364-6.936c0-1.266-.052-2.5-.133-3.7.306-.173,1.069-.705,2.133-1.5,1.352-1.011,3.173-2.456,5.127-4.133v-.566l-.2.168c-1.971,1.693-3.786,3.2-5.1,4.283-.965.8-1.653,1.37-1.942,1.641a59.63,59.63,0,0,0-1.6-10.207l-.121-.457c.283-.272.954-1.029,1.907-2.127l4.8-5.514.347-.393-.168-.485c-.173.191-.341.387-.514.578-1.89,2.15-3.543,4.144-4.711,5.606-.578.734-1.052,1.335-1.364,1.734q-.214.295-.329.468a57.468,57.468,0,0,0-2.815-8.242h.006c.156-.191.607-.965,1.26-2.121,1.156-2.04,2.081-3.659,3.04-5.335.295-.5.578-1,.884-1.5l-.277-.4c-.329.538-.659,1.1-1,1.682-1.2,2.081-2.225,4-2.925,5.41a23.649,23.649,0,0,0-1.029,2.231l-.052-.127c-.457-1.023-.827-1.815-1.11-2.312a5.564,5.564,0,0,0-.433-.792,4.168,4.168,0,0,0,.329.838c.243.543.578,1.341,1,2.381v.029c-.387-.052-1.075-.133-1.982-.329-1.416-.295-3.352-.89-5.537-1.347-.919-.2-1.8-.37-2.63-.514.069.162.139.318.214.474.734.145,1.514.3,2.312.48,2.173.457,4.121,1,5.578,1.22a9.637,9.637,0,0,0,2.087.139,63.868,63.868,0,0,1,2.618,8.126c-.907-.191-3.468-.538-6.444-.879l-1.312-.162c.081.156.162.312.237.468l1.035.121c3.052.347,5.647.578,6.531.578.052.2.1.393.15.578a61.883,61.883,0,0,1,1.474,9.935c-.3-.2-.751-.48-1.329-.809-1.11-.636-2.682-1.456-4.474-2.254l-.959-.416c0,.168.04.335.058.509l.722.318c1.774.792,3.358,1.561,4.508,2.121.653.324,1.156.578,1.485.717.081,1.231.121,2.491.116,3.792a62.089,62.089,0,0,1-.422,7.277c-.624-.393-2.67-1.439-5.023-2.815-.578-.335-1.156-.67-1.659-.983a4.389,4.389,0,0,1-.058.462c.462.295.965.578,1.491.907,1.445.844,2.792,1.52,3.786,1.971a13.867,13.867,0,0,0,1.451.578c-.318,2.89-.757,5.814-1.191,8.855-.9-.509-2.838-1.5-5.063-2.688l-1.948-1.046a2.287,2.287,0,0,1-.081.434c.578.324,1.156.665,1.815,1.006,1.561.832,3,1.526,4.046,1.994.491.214.9.382,1.191.5-.029.225-.064.445-.092.67-.4,2.925-.74,5.78-.861,8.589-.717-.468-2.693-1.561-5.011-2.855L7.205,253.18v.468c.618.37,1.3.763,2.023,1.156,1.48.832,2.849,1.537,3.849,2.017.613.289,1.087.5,1.37.607v.173a47,47,0,0,0,.347,8.092c-.578-.37-2.445-1.306-4.687-2.341-.728-.341-1.422-.653-2.052-.931.035.168.069.335.11.509l1.734.826a50.6,50.6,0,0,0,4.89,2.075v.116a47.729,47.729,0,0,0,1.445,6.785c-.578-.208-2.445-.659-4.693-1.121l-.4-.081c.081.173.173.341.26.509h.052a44.288,44.288,0,0,0,4.82.8,45.475,45.475,0,0,0,2.5,6.653c.139.312.283.607.428.9-.578-.2-1.809-.509-3.242-.815l.347.526a27.88,27.88,0,0,0,3,.5,44.785,44.785,0,0,0,4.341,7.069l.884,1.156h.237l-.069-.092-.867-1.208a49.705,49.705,0,0,1-4.2-7.184,17.65,17.65,0,0,0,.931-1.965c-.064-.22-.127-.433-.185-.653-.376,1.052-.694,1.913-.844,2.4l-.376-.815a47.206,47.206,0,0,1-2.439-6.757,26.38,26.38,0,0,0,2.485-2.115v-.578c-1.116,1.121-2.052,2.017-2.514,2.5a48.8,48.8,0,0,1-1.312-6.479q0-.113,0-.225c.682-.578,2.358-2.185,4.277-4.138l.283-.289c.058-.272.116-.549.179-.821l-.78.792c-1.826,1.861-3.358,3.5-3.982,4.242a47.463,47.463,0,0,1-.289-7.814q0-.173,0-.347c.329-.185.821-.48,1.439-.873,1.156-.723,2.676-1.763,4.341-2.971.526-.381,1.035-.763,1.52-1.127.058-.22.11-.439.162-.659l-1.948,1.428-4.254,3.069c-.526.381-.948.694-1.248.925.139-2.7.468-5.473.855-8.306.04-.272.075-.543.116-.815.89-.457,3.335-1.93,6.179-3.734L24.14,243a4.479,4.479,0,0,1,.064-.543c-.7.434-1.445.9-2.225,1.4-2.74,1.734-5.034,3.26-5.913,3.919.445-3.1.884-6.132,1.191-9.069C17.615,238.488,18.216,238.118,18.99,237.615Z" transform="translate(1191.962 513.862)" fill="#0c8184"/>
    <path id="Path_13358" data-name="Path 13358" d="M56.716,283.885c2.063-5.624,5.919-10.1,8.756-15.282a40.089,40.089,0,0,0,4.8-16.062c.618-7.647-1.861-14.86-2.7-22.391-.63-5.606-.913-11.38,1.352-16.646,1.965-4.566,5.011-8.589,6.78-13.247,1.676-4.41,1.023-12.2-5.2-12.068-5.1.11-8.878,3.352-11.45,7.45a39.523,39.523,0,0,0-4.994,10.935,48.568,48.568,0,0,0-1.26,10.935c-.358,10.132-.179,20.4,2.433,30.194.8,3,1.826,5.942,2.456,8.982A35.916,35.916,0,0,1,52,284.18" transform="translate(1171.056 518.581)" fill="#12acaf"/>
    <path id="Path_13359" data-name="Path 13359" d="M59.058,237.615c-1.335-.879-3.138-2.156-5.052-3.664l-.786-.636v-.578l1.075.861c1.907,1.5,3.67,2.815,4.953,3.757.67.486,1.2.879,1.561,1.156a60.685,60.685,0,0,1-.37-6.936q0-1.9.133-3.7c-.306-.173-1.069-.705-2.133-1.5-1.347-1.011-3.173-2.456-5.127-4.133v-.566l.2.168c1.977,1.693,3.792,3.2,5.1,4.283.965.8,1.659,1.37,1.942,1.641a60.786,60.786,0,0,1,1.6-10.207l.121-.457c-.277-.272-.954-1.029-1.9-2.127l-4.809-5.514-.347-.393c.058-.162.11-.324.173-.485l.509.578c1.89,2.15,3.549,4.144,4.716,5.606.578.734,1.046,1.335,1.358,1.734q.22.295.329.468a56.64,56.64,0,0,1,2.821-8.242h-.006c-.162-.191-.578-.965-1.266-2.121-1.156-2.04-2.081-3.659-3.034-5.335l-.884-1.5c.087-.139.185-.272.277-.4.324.538.659,1.1.994,1.682,1.2,2.081,2.225,4,2.93,5.41a22.945,22.945,0,0,1,1.023,2.231l.052-.127c.462-1.023.832-1.815,1.11-2.312a5.873,5.873,0,0,1,.439-.792,5.341,5.341,0,0,1-.329.838c-.243.543-.578,1.341-1,2.381v.029c.381-.052,1.075-.133,1.977-.329,1.416-.295,3.352-.89,5.543-1.347.919-.2,1.8-.37,2.63-.514-.069.162-.145.318-.22.474-.734.145-1.514.3-2.312.48-2.173.457-4.115,1-5.577,1.22a9.635,9.635,0,0,1-2.087.139,63.076,63.076,0,0,0-2.612,8.126c.907-.191,3.468-.538,6.444-.879l1.318-.144-.237.468-1.023.092c-3.058.347-5.653.578-6.537.578-.046.2-.1.393-.15.578a61.885,61.885,0,0,0-1.474,9.935c.3-.2.751-.48,1.329-.809,1.115-.636,2.688-1.457,4.474-2.254l.965-.416c0,.168-.04.335-.058.509l-.722.318c-1.78.792-3.364,1.561-4.508,2.121-.659.324-1.156.578-1.491.717-.075,1.231-.116,2.491-.116,3.792a63.372,63.372,0,0,0,.439,7.259c.624-.393,2.67-1.439,5.023-2.815.578-.335,1.156-.67,1.665-.983a3.26,3.26,0,0,0,.058.462c-.468.295-.971.578-1.5.907a42.016,42.016,0,0,1-3.786,1.971,13.935,13.935,0,0,1-1.445.578c.312,2.89.751,5.814,1.156,8.855.9-.509,2.844-1.5,5.069-2.688l1.942-1.046a2.856,2.856,0,0,0,.081.434c-.578.324-1.156.665-1.815,1.006-1.555.832-3,1.526-4.046,1.994-.491.214-.89.382-1.191.5.035.225.064.445.1.67.4,2.925.734,5.78.861,8.589.717-.468,2.693-1.561,5.011-2.855l2.225-1.248v.468c-.618.37-1.3.763-2.023,1.156-1.485.832-2.849,1.537-3.855,2.017-.613.289-1.087.5-1.37.607v.173a47.586,47.586,0,0,1-.347,8.092c.578-.37,2.439-1.306,4.682-2.341.734-.341,1.428-.653,2.052-.931l-.1.509-1.734.827a50.584,50.584,0,0,1-4.89,2.075v.116A48.546,48.546,0,0,1,61.8,272.7c.578-.208,2.439-.659,4.693-1.121l.4-.081c-.081.173-.173.341-.26.509h-.052a44.509,44.509,0,0,1-4.82.867,46.148,46.148,0,0,1-2.48,6.618c-.144.312-.289.607-.433.9.578-.2,1.809-.509,3.242-.815l-.341.526a28.355,28.355,0,0,1-3,.5,45.658,45.658,0,0,1-4.341,7.069l-.89,1.156h-.237l.075-.092.89-1.185a49.129,49.129,0,0,0,4.2-7.184,20.091,20.091,0,0,1-.931-1.965c.064-.22.133-.434.191-.653.376,1.052.688,1.913.838,2.4.127-.272.254-.537.376-.815a46.513,46.513,0,0,0,2.41-6.78,27.157,27.157,0,0,1-2.485-2.115v-.578c1.116,1.121,2.052,2.017,2.514,2.5a47.9,47.9,0,0,0,1.312-6.479v-.225c-.676-.578-2.352-2.185-4.277-4.138l-.277-.289c-.058-.272-.121-.549-.185-.821l.786.792c1.826,1.861,3.352,3.5,3.977,4.242a47.452,47.452,0,0,0,.295-7.814v-.347c-.329-.185-.821-.48-1.433-.873-1.156-.723-2.682-1.763-4.341-2.971-.532-.381-1.04-.763-1.52-1.127-.058-.22-.11-.439-.168-.659l1.948,1.428c1.266.907,2.532,1.826,4.254,3.069.526.381.954.694,1.248.925-.139-2.7-.468-5.473-.855-8.306-.035-.272-.075-.543-.116-.815-.884-.457-3.329-1.93-6.179-3.734L53.908,243c0-.179-.04-.358-.058-.543.694.434,1.445.9,2.225,1.4,2.734,1.734,5.028,3.26,5.907,3.919-.439-3.1-.884-6.132-1.191-9.069C60.427,238.488,59.826,238.118,59.058,237.615Z" transform="translate(1170.541 513.862)" fill="#0c8184"/>
    <path id="Path_13360" data-name="Path 13360" d="M41.789,279.141a11.343,11.343,0,0,1-3.572-5.069c-3.468-7.953-5.67-17.287-4.56-25.957,1.156-9.1,3.162-18.322,2.624-27.547a63.323,63.323,0,0,0-3.046-15.345c-2.78-8.82-7.982-24.662.9-31.91,4.5-3.664,9.531,1.156,12.305,4.624,4.676,5.907,6.179,14.161,7.265,21.42,2.243,15.172-2.942,29.789-7.294,44.083a120.578,120.578,0,0,0-4.78,22.6,26.512,26.512,0,0,0-.046,6.595c.52,3.381,2.468,5.248,4.427,7.814" transform="translate(1180.688 525.412)" fill="#0a9093"/>
    <path id="Path_13361" data-name="Path 13361" d="M42.157,287.2l-.474-1.087c-.191-.422-.353-.942-.578-1.5a43.926,43.926,0,0,1-2.2-8.9,21.106,21.106,0,0,0,1.936-1.208c.358-.237.751-.5,1.156-.792l.069-.578-1.433,1.075c-.832.618-1.445,1.081-1.734,1.347-.04-.306-.087-.607-.127-.919a62.5,62.5,0,0,1-.376-9.092c.919-.491,3.034-1.769,5.606-3.387l.156-.676c-2.641,1.7-4.815,3.156-5.78,3.849.058-1.89.173-3.855.37-5.89.156-1.734.376-3.5.624-5.3a29.814,29.814,0,0,1,2.56-1.89c1.543-1.023,3.6-2.393,5.866-3.936.075-.254.156-.5.231-.757-2.468,1.7-4.682,3.237-6.3,4.41a17.849,17.849,0,0,0-1.994,1.641c-.139.133-.249.249-.341.353.156-1.156.329-2.277.509-3.439.381-2.393.809-4.843,1.22-7.352.5-.237,1.295-.647,2.312-1.191,1.734-.925,4.156-2.231,6.8-3.7l.642-.358c.064-.225.127-.445.185-.665L50,237.828c-2.647,1.474-5.023,2.832-6.733,3.838-.925.543-1.647.977-2.115,1.277.11-.665.214-1.329.318-2,.5-3.283.925-6.514,1.087-9.652.04-.613.058-1.214.081-1.815.139-.075.295-.168.491-.289.578-.347,1.416-.884,2.428-1.566,2.023-1.358,4.745-3.352,7.606-5.734l1.075-.879c0-.231.04-.468.064-.7-.468.4-.942.8-1.428,1.208-2.849,2.375-5.525,4.4-7.514,5.832l-2.312,1.693-.376.277c.081-2.433.058-4.8-.058-7.074s-.329-4.572-.578-6.687c.133-.1.341-.283.636-.549l2.029-1.878c1.7-1.6,4.046-3.792,6.676-6.2Q52.468,205.929,53.5,205c-.029-.185-.064-.376-.092-.578q-1.156,1.011-2.37,2.133c-2.63,2.4-4.942,4.624-6.589,6.312-.821.827-1.474,1.509-1.913,1.988-.237.254-.41.445-.52.578-.058-.457-.116-.913-.179-1.352-.347-2.543-.786-4.9-1.248-7.022-.306-1.433-.618-2.757-.931-3.982l.37-.318c.5-.434,1.214-1.087,2.087-1.9,1.734-1.63,4.1-3.924,6.647-6.525.526-.538,1.035-1.063,1.532-1.584-.069-.162-.139-.329-.214-.491l-1.67,1.734-6.548,6.629-1.977,2.011c-.11.11-.2.208-.277.295-.607-2.358-1.191-4.323-1.67-5.832-.364-1.156-.676-2.052-.9-2.659a6.022,6.022,0,0,0-.358-.907,4.948,4.948,0,0,0,.237.948c.225.792.48,1.676.774,2.693.422,1.5.954,3.468,1.509,5.78-.376-.191-1.191-.578-2.312-1.011-1.607-.653-3.844-1.509-6.358-2.4l-.734-.26a4.609,4.609,0,0,0,.081.578l.486.179,6.358,2.26c1.231.422,2.11.717,2.485.809l.052.208c-.058.069-.092.116-.081.127s.04,0,.092-.052c.277,1.156.578,2.439.832,3.8.428,2.127.838,4.474,1.156,7,.046.341.081.688.127,1.029-.295-.173-.983-.514-1.954-.965-1.335-.618-3.19-1.439-5.254-2.312-.514-.225-1.023-.439-1.514-.642.064.2.127.41.191.578l1.156.486c2.058.879,3.936,1.653,5.3,2.185,1.063.416,1.809.688,2.11.763.266,2.2.486,4.526.578,6.965.1,2.254.116,4.624,0,7.011-.289-.225-.705-.532-1.22-.9L36.666,225.4l-.578-.445.087.688.214.156c1.607,1.156,3.1,2.185,4.213,2.89.578.376,1.081.659,1.4.827,0,.578-.046,1.156-.081,1.763-.173,3.11-.578,6.317-1.092,9.594-.1.607-.2,1.214-.3,1.815-.613-.838-1.959-2.491-3.572-4.364l-.578-.67c0,.231-.04.457-.058.688l.26.306c1.734,1.977,3.214,3.635,3.907,4.306q-.624,3.826-1.22,7.479c-.185,1.185-.353,2.347-.509,3.5-.578-.653-2.034-2.1-3.618-3.9-.092-.1-.179-.2-.266-.3-.035.214-.064.422-.1.636a28,28,0,0,0,3.959,3.774c-.243,1.8-.451,3.56-.578,5.271-.191,2.133-.3,4.2-.335,6.173-.185-.2-.422-.462-.688-.8-.618-.792-1.509-1.9-2.578-3.034-.312-.335-.624-.653-.931-.959v.682l.578.618c1.063,1.127,1.971,2.173,2.676,2.925a6.09,6.09,0,0,0,.948.832,61.227,61.227,0,0,0,.48,8.872c.04.277.081.538.127.8-.462-.578-1.792-1.9-3.531-3.589.064.272.127.543.2.821,1.665,1.537,2.936,2.659,3.364,2.959A40.978,40.978,0,0,0,40.9,284.7c.237.578.422,1.075.63,1.5l.532,1.064c.116.22.2.381.272.52l.1.029Z" transform="translate(1180.424 516.862)" fill="#0e6b6b"/>
    <path id="Path_13362" data-name="Path 13362" d="M12.025,351.1c-.306,3.011-2.2,25.656,9.664,35.384a3.763,3.763,0,0,0,2.4.844H42.074a3.786,3.786,0,0,0,2.4-.844c11.866-9.727,9.97-32.367,9.658-35.384Z" transform="translate(1188.05 449.829)" fill="#edce4f"/>
    <g id="Group_13250" data-name="Group 13250" transform="translate(1199.855 800.929)" opacity="0.32">
      <path id="Path_13363" data-name="Path 13363" d="M55.875,377.521c-5.421-4.121-14.964-.272-19.958,2.89-5.2,3.306-8.473,8.595-12.357,13.253a19.8,19.8,0,0,0,3.121,3.219h0c.931-1.052,1.832-2.15,2.7-3.283,2.838-3.682,5.618-7.242,9.6-9.762a23.6,23.6,0,0,1,7.15-2.855c2.1-.5,5.994-1.318,7.514.722s1.439,5.034,1.462,7.872a37.221,37.221,0,0,0,3.092-9.068A7.856,7.856,0,0,0,55.875,377.521Z" transform="translate(-16.798 -361.494)" fill="#ffac00"/>
      <path id="Path_13364" data-name="Path 13364" d="M49.469,354.972c-4.381,1.352-8.843,2.433-13.294,3.583-7.884,2.035-15.686,4.352-22.928,8.126l-.642.347c2.341-2.566,4.427-5.41,6.468-7.745a77.479,77.479,0,0,1,8.19-8.184H20.518c-2.965,2.948-5.71,6.138-8.363,9.317l-.295.353a57.04,57.04,0,0,0,1.532,11.045c1.844-1.058,3.711-2,5.5-2.826,7.809-3.63,16.374-5.462,24.662-7.624a98.13,98.13,0,0,0,10.93-3.034c0-1.982-.04-3.7-.116-4.988a48.413,48.413,0,0,1-4.9,1.63Z" transform="translate(-11.86 -351.1)" fill="#ffac00"/>
      <path id="Path_13365" data-name="Path 13365" d="M50.9,394.657c-4.474-.116-8.277,2.381-11.334,5.445a21.963,21.963,0,0,0-3.872,5.606h5.242c.156-.249.306-.5.474-.746,2.029-2.982,6.843-7.1,10.681-5.352,1.734.78,2.774,2.485,3.555,4.335a21.447,21.447,0,0,0,3.133-3.763C57.116,397.327,54.272,394.744,50.9,394.657Z" transform="translate(-21.917 -369.48)" fill="#ffac00"/>
    </g>
    <g id="Group_13251" data-name="Group 13251" transform="translate(1199.781 800.929)" opacity="0.17">
      <path id="Path_13366" data-name="Path 13366" d="M42.826,372.8c-3.583-.665-7.283-.9-10.693-2.167a18.622,18.622,0,0,1-9.248-7.577,28.486,28.486,0,0,1-3.526-10.594c-.075-.451-.139-.908-.2-1.364H12.025c-.306,3.011-2.2,25.657,9.664,35.384a3.762,3.762,0,0,0,2.4.844H42.074a3.786,3.786,0,0,0,2.4-.844,24.351,24.351,0,0,0,7.15-10.733,30.482,30.482,0,0,0-8.8-2.948Z" transform="translate(-11.731 -351.1)" fill="#ffac00"/>
    </g>
    <rect id="Rectangle_25024" data-name="Rectangle 25024" width="47.209" height="8.548" rx="4.274" transform="translate(1197.526 796.681)" fill="#f9db5d"/>
    <path id="Path_13367" data-name="Path 13367" d="M568.48,334.75l6.231,44.279h29.038l6.236-44.279Z" transform="translate(953.091 456.729)" fill="#e3fcfc"/>
    <path id="Path_13368" data-name="Path 13368" d="M603.588,377.9l.578-1.873,1.023-7.04-.225.722-2.381-1.474.832-2.67,2.069,1.289.179-1.237-1.9-1.156.826-2.676,1.485.925.173-1.237-1.312-.809.826-2.676.9.578.173-1.231-.717-.451.826-2.67.306.191.173-1.237-.133-.081.26-.838,1.046-7.41-2.312-1.445.826-2.67,1.913,1.156.173-1.231-1.734-1.081.826-2.676,1.324.826.179-1.237-1.156-.711.3-.983h-1.191l-.116.358-.578-.358h-3.341l-.636,2.058-2.381-1.474.179-.578H597.56l1.734,1.087-.826,2.676-2.381-1.48.711-2.283h-1.2l-.514,1.665-2.376-1.48.058-.185h-2.52l1.11.694-.827,2.67-2.358-1.537.578-1.89h-1.191L587.173,336l-2.04-1.266h-2.162l.474.295-.8,2.682-2.381-1.474.462-1.491h-1.191l-.272.867-1.4-.867h-2.387l-.8,2.572-2.375-1.48.341-1.092h-1.2l-.145.474-.757-.474H568.47v.058l2.48,1.543-.832,2.67-1.156-.722.208,1.474.578.376-.376,1.22.474,3.37,2.1,1.306-.826,2.67-.786-.485.2,1.468.237.144-.15.468.376,2.653.775-2.5,2.375,1.474-.826,2.67-2.312-1.422.208,1.474,1.734,1.075-.832,2.676-.416-.26.532,3.751.538-1.734,2.381,1.474-.832,2.676-1.919-1.2.208,1.474,1.364.844-.855,2.769.376,2.647.214-.705,2.381,1.48-.832,2.67-1.4-.873.208,1.468.85.532-.532,1.734.266,1.89h.954l-.514-.318.826-2.676,2.381,1.48-.474,1.514h1.2l.277-.9,1.439.9h2.312l.8-2.6,2.375,1.474-.347,1.121h1.2l.15-.5.8.5H591.1l.775-2.485,2.375,1.474-.312,1.011h1.191l.121-.393.63.393h3.277l.647-2.092,2.375,1.48-.191.613h1.7l.133-.936Zm1.023-7.092-.827,2.676L601.409,372l.827-2.67Zm-28.246-22.05,2.375,1.48-.826,2.67-2.376-1.474Zm-3.029-3.219.827-2.676,2.375,1.48-.827,2.682Zm30.379,2.063-.838,2.693-2.381-1.48.826-2.67Zm-2.029-2.6.826-2.67,2.376,1.474-.826,2.676Zm.85,6.4-.815,2.688-2.375-1.474.826-2.676Zm-23.622,2.1.827-2.676,2.375,1.48-.826,2.67Zm2.029,2.6-.826,2.67-2.375-1.474.827-2.676Zm1,.618,2.375,1.48-.826,2.688-2.376-1.474Zm.353-1.121.827-2.676L585.5,354.4l-.827,2.676Zm3.029,3.219,2.375,1.48-.827,2.67L584.5,361.5Zm.347-1.127.826-2.67,2.376,1.474-.826,2.676Zm1.156-3.8.832-2.67,2.375,1.474-.826,2.676Zm3.035,3.225,2.375,1.474-.826,2.676-2.381-1.48Zm.347-1.127.827-2.67,2.375,1.474-.826,2.676Zm3.029,3.225,2.375,1.474-.826,2.693-2.375-1.48Zm.347-1.127.832-2.67,2.375,1.474-.826,2.67Zm1.156-3.8.826-2.676,2.376,1.48-.827,2.67Zm3.029,3.225L600.143,359l-.826,2.67-2.375-1.474Zm.347-1.127.832-2.676,2.376,1.48-.757,2.688Zm1.393-8.219-2.375-1.48.827-2.67,2.375,1.474Zm-.347,1.156-.826,2.67-2.393-1.485.832-2.676Zm-3.029-3.225-2.381-1.474.832-2.676,2.375,1.48Zm-.352,1.156-.827,2.647-2.375-1.474.827-2.676Zm-1.156,3.8-.827,2.67-2.4-1.509.832-2.67Zm-3.029-3.225-2.381-1.474.832-2.676,2.375,1.48Zm-.353,1.156-.827,2.67-2.375-1.474.827-2.67Zm-3.029-3.225-2.375-1.474.826-2.67,2.376,1.474Zm-.347,1.156-.827,2.676-2.381-1.48.832-2.67Zm-1.156,3.8-.826,2.676-2.375-1.48.826-2.67Zm-3.029-3.219-2.375-1.48.827-2.67,2.375,1.474Zm-.347,1.121-.826,2.676-2.375-1.48.826-2.67Zm-3.069-3.335-2.375-1.48.827-2.67,2.375,1.474Zm-.353,1.121-.826,2.676-2.375-1.474.826-2.676Zm-2.347,7.6-.832,2.67-2.375-1.474.827-2.67Zm-.179,4.422,2.375,1.474-.827,2.67-2.375-1.474Zm1.2,5.271-.827,2.676-2.376-1.439.827-2.67Zm-.173,4.422,2.376,1.474-.919,2.965-2.376-1.48Zm.347-1.156.827-2.67,2.375,1.474-.827,2.67Zm1.156-3.8.827-2.67,2.375,1.474-.826,2.67Zm3.029,3.225,2.375,1.474-.826,2.67-2.375-1.474Zm.347-1.156.827-2.676,2.375,1.48-.826,2.67Zm3.029,3.225,2.375,1.474-.827,2.67-2.335-1.4Zm.353-1.156.827-2.676,2.375,1.48-.826,2.67Zm1.156-3.8.826-2.676,2.376,1.474-.826,2.676Zm3.029,3.219,2.375,1.48-.763,2.774-2.375-1.474Zm.347-1.127.832-2.67,2.375,1.474-.786,2.78Zm3.034,3.225,2.375,1.48-.826,2.67-2.381-1.474Zm.347-1.156.827-2.67,2.375,1.474-.826,2.676Zm1.156-3.8.832-2.67,2.375,1.474-.769,2.838Zm3.086,3.375,2.376,1.474-.827,2.676L598,369.923Zm.347-1.156.809-2.659,2.376,1.474-.827,2.67Zm3.555-2.312-2.381-1.474.832-2.676,2.375,1.48Zm1.156-3.8-2.375-1.474.826-2.676,2.376,1.48Zm1.156-3.8-2.381-1.474.826-2.676,2.381,1.474Zm1.156-3.8-2.375-1.48.827-2.67,2.375,1.474Zm2.006-6.473-.826,2.67L605,347.116l.827-2.67Zm-3.4-11.172,2.375,1.48-.826,2.67-2.318-1.474Zm-1.156,3.8,2.381,1.474-.826,2.67-2.323-1.451Zm-3.375-2.1,2.375,1.474-.826,2.67-2.376-1.474Zm-1.156,3.8,2.381,1.474-.826,2.676-2.381-1.48Zm-3.375-2.1,2.375,1.474-.827,2.676-2.375-1.48Zm-3.358-2.11,2.375,1.474-.827,2.676-2.381-1.48Zm-1.156,3.8,2.375,1.48-.827,2.67-2.375-1.474Zm-3.375-2.063,2.375,1.48-.827,2.67-2.381-1.474Zm-3.381-2.1,2.375,1.48-.827,2.67-2.4-1.474Zm-1.156,3.8,2.375,1.474-.826,2.67-2.381-1.474Zm-3.381-2.1,2.375,1.474-.827,2.67-2.375-1.474Zm-3.375-2.1,2.376,1.474-.827,2.676-2.393-1.5Zm-1.156,3.8,2.375,1.474-.907,2.653-2.375-1.48Zm-3.375-2.1,2.375,1.474-.827,2.676L571.2,339.66Zm-2.092,6.45.827-2.676,2.381,1.48-.832,2.67Zm2.2,5.9.826-2.676,2.381,1.48-.786,2.67Zm1.029,9.693.826-2.67,2.375,1.474-.827,2.67Zm.959,9.964.913-2.959,2.381,1.474-.919,2.965Zm4.578,7.375-2.375-1.474.826-2.676,2.375,1.48Zm3.375,2.1-2.375-1.474.827-2.676,2.381,1.474Zm1.156-3.8-2.376-1.48.913-2.959,2.375,1.474Zm3.375,2.1-2.375-1.48.919-2.959,2.375,1.474Zm3.381,2.092-2.376-1.474.913-2.959,2.375,1.474Zm1.266-4.086-2.381-1.474.832-2.676,2.375,1.48Zm3.375,2.1-2.375-1.474.826-2.676,2.4,1.474Zm3.381,2.1-2.381-1.474.832-2.676,2.375,1.48Zm1.156-3.8-2.375-1.48.826-2.67,2.375,1.474Zm3.381,2.1-2.381-1.48.832-2.67,2.375,1.474Z" transform="translate(953.095 456.737)" fill="#e3fcfc"/>
    <rect id="Rectangle_25025" data-name="Rectangle 25025" width="45.949" height="2.797" rx="0.99" transform="translate(1519.345 789.485)" fill="#fff"/>
    <rect id="Rectangle_25026" data-name="Rectangle 25026" width="31.523" height="2.797" rx="0.99" transform="translate(1526.558 834.359)" fill="#fff"/>
    <path id="Path_13369" data-name="Path 13369" d="M315.85,85.38H288.523a26.755,26.755,0,0,0-26.714,28.269l3.74,65.971h73.271l3.745-65.971A26.755,26.755,0,0,0,315.85,85.38Z" transform="translate(1082.53 561.968)" fill="#12acaf"/>
    <path id="Path_13370" data-name="Path 13370" d="M297.847,37.132A45.991,45.991,0,0,1,296.6,21.221a6.358,6.358,0,0,1,.965-3.185,2.429,2.429,0,0,1,2.959-.9,8.669,8.669,0,0,1,3.774-5.78,17.2,17.2,0,0,1,6.572-2.549,34.1,34.1,0,0,1,19.437,1.873,11.8,11.8,0,0,1,3.716,2.191c5.08,4.78,5.173,14.548,3.508,20.807a9.035,9.035,0,0,0-.578,3.6" transform="translate(1067.918 594.552)" fill="#4a3d99"/>
    <path id="Path_13371" data-name="Path 13371" d="M276.912,137.21l-6.739,25.258a4.4,4.4,0,0,0,4.283,5.525l13.7-.11" transform="translate(1079.044 540.095)" fill="#59afec"/>
    <path id="Path_13372" data-name="Path 13372" d="M385.13,137.21l6.745,25.258a4.393,4.393,0,0,1-4.283,5.525l-13.692-.11" transform="translate(1035.207 540.095)" fill="#59afec"/>
    <path id="Path_13373" data-name="Path 13373" d="M336.052,96.36H317.73a11.063,11.063,0,0,0,18.322,0Z" transform="translate(1058.912 557.334)" fill="#4a9cce"/>
    <path id="Path_13374" data-name="Path 13374" d="M304.375,96.36h23.743a12.357,12.357,0,0,1,12.357,12.357v10.328H292V108.717A12.357,12.357,0,0,1,304.375,96.36Z" transform="translate(1069.771 557.334)" fill="#59afec"/>
    <path id="Path_13375" data-name="Path 13375" d="M334.031,90.144V81.63h-9.768v8.514H322.57a8.976,8.976,0,0,0,13.155,0Z" transform="translate(1056.87 563.55)" fill="#fa92ae"/>
    <path id="Path_13376" data-name="Path 13376" d="M322.367,14.29H319.7c-9.97,0-17.617,9.19-16.183,19.426L305.08,44.7A11.6,11.6,0,0,0,316.437,54.87h9.213a11.588,11.588,0,0,0,11.328-10.149l1.566-10.982C339.99,23.48,332.343,14.29,322.367,14.29Z" transform="translate(1064.985 591.969)" fill="#fa92ae"/>
    <ellipse id="Ellipse_449" data-name="Ellipse 449" cx="4.734" cy="6.236" rx="4.734" ry="6.236" transform="matrix(0.497, -0.868, 0.868, 0.497, 1360.211, 635.264)" fill="#fa92ae"/>
    <ellipse id="Ellipse_450" data-name="Ellipse 450" cx="6.236" cy="4.734" rx="6.236" ry="4.734" transform="matrix(0.868, -0.497, 0.497, 0.868, 1395.982, 633.239)" fill="#fa92ae"/>
    <path id="Path_13377" data-name="Path 13377" d="M443.1,172.906H435.75a4.462,4.462,0,0,1-4.45-4.456v-4.52a4.456,4.456,0,0,1,4.45-4.45h7.358a4.456,4.456,0,0,1,4.456,4.45v4.52A4.462,4.462,0,0,1,443.1,172.906Zm-7.352-11.161a2.191,2.191,0,0,0-2.185,2.185v4.52a2.191,2.191,0,0,0,2.185,2.185h7.358a2.185,2.185,0,0,0,2.179-2.185v-4.52a2.185,2.185,0,0,0-2.185-2.185Z" transform="translate(1010.983 530.696)" fill="#113f56"/>
    <path id="Path_13378" data-name="Path 13378" d="M426.614,151.9H415.95l2.023,22.183h14.848l2.017-22.183Z" transform="translate(1017.461 533.895)" fill="#0d334a"/>
    <path id="Path_13379" data-name="Path 13379" d="M321.815,110.68H284.357a4.8,4.8,0,0,0-4.792,5.052l2.034,36.575a4.8,4.8,0,0,0,4.792,4.537h53.041a4.792,4.792,0,0,0,4.786-4.538l2.063-36.574a4.8,4.8,0,0,0-4.791-5.052Z" transform="translate(1075.021 551.291)" fill="#c5dcfc"/>
    <circle id="Ellipse_451" data-name="Ellipse 451" cx="5.878" cy="5.878" r="5.878" transform="translate(1379.615 682.568) rotate(-45)" fill="#fff"/>
    <path id="Path_13380" data-name="Path 13380" d="M337.971,144.39a2.636,2.636,0,1,1-2.636-2.63,2.636,2.636,0,0,1,2.636,2.63Z" transform="translate(1052.594 538.174)" fill="#c5dcfc"/>
    <g id="Group_13252" data-name="Group 13252" transform="translate(1354.579 661.994)" opacity="0.2">
      <path id="Path_13381" data-name="Path 13381" d="M330.78,138.995c-7.7-2.034-15.605-3.11-23.3-5.242a40.228,40.228,0,0,1-12.8-5.618A26.668,26.668,0,0,1,284.131,112c-.087-.428-.162-.855-.231-1.283a4.791,4.791,0,0,0-4.335,5.028l2.034,36.575a4.8,4.8,0,0,0,4.791,4.537h53.041a4.792,4.792,0,0,0,4.786-4.538l.445-7.917a58.849,58.849,0,0,0-13.883-5.41Z" transform="translate(-279.558 -110.72)" fill="#c5dcfc"/>
    </g>
    <rect id="Rectangle_25027" data-name="Rectangle 25027" width="63.699" height="3.936" rx="1.79" transform="translate(1356.083 704.204)" fill="#b0cbea"/>
    <path id="Path_13382" data-name="Path 13382" d="M129.38,171.29h39.568a3.034,3.034,0,0,1,3.034,3.034v4.213a3.034,3.034,0,0,1-3.034,3.034H129.38Z" transform="translate(1138.4 525.712)" fill="#cdebed"/>
    <g id="Group_13253" data-name="Group 13253" transform="translate(1267.78 697.002)">
      <path id="Path_13383" data-name="Path 13383" d="M171.353,177.862a5.3,5.3,0,0,1-.168,1.254,5.127,5.127,0,0,0-4.37-7.826H129.38v1.428h36.858A5.144,5.144,0,0,1,171.353,177.862Z" transform="translate(-129.38 -171.29)" fill="#cdebed"/>
    </g>
    <path id="Path_13384" data-name="Path 13384" d="M166.121,170H127.68v1.468h38.441a4.41,4.41,0,0,1,0,8.814H127.68v1.468h38.441a5.878,5.878,0,0,0,0-11.75Z" transform="translate(1139.117 526.257)" fill="#0d334a"/>
    <path id="Path_13385" data-name="Path 13385" d="M167.454,176.576h-34.1a.243.243,0,1,1,0-.486h34.1a.243.243,0,1,1,0,.486Z" transform="translate(1136.825 523.686)" fill="#fff"/>
    <path id="Path_13386" data-name="Path 13386" d="M167.422,180.249h-34.1a.249.249,0,1,1,0-.491h34.1a.249.249,0,0,1,0,.491Z" transform="translate(1136.857 522.14)" fill="#fff"/>
    <path id="Path_13387" data-name="Path 13387" d="M167.422,183.929h-34.1a.249.249,0,1,1,0-.491h34.1a.249.249,0,0,1,0,.491Z" transform="translate(1136.857 520.587)" fill="#fff"/>
    <path id="Path_13388" data-name="Path 13388" d="M136.13,139.21h30.4a2.63,2.63,0,0,1,2.63,2.63v3.653a2.63,2.63,0,0,1-2.63,2.63h-30.4Z" transform="translate(1135.551 539.251)" fill="#cdebed"/>
    <g id="Group_13254" data-name="Group 13254" transform="translate(1271.681 678.472)">
      <path id="Path_13389" data-name="Path 13389" d="M168.641,144.917A4.481,4.481,0,0,1,168.5,146a4.431,4.431,0,0,0-3.792-6.774H136.13v1.243h28.055A4.456,4.456,0,0,1,168.641,144.917Z" transform="translate(-136.13 -139.23)" fill="#cdebed"/>
    </g>
    <path id="Path_13390" data-name="Path 13390" d="M164.085,138.11H134.66v1.272h29.425a3.826,3.826,0,0,1,0,7.647H134.66v1.277h29.425a5.1,5.1,0,0,0,0-10.2Z" transform="translate(1136.171 539.715)" fill="#59afec"/>
    <path id="Path_13391" data-name="Path 13391" d="M165.236,143.8H139.574a.22.22,0,0,1-.214-.214.214.214,0,0,1,.214-.214h25.662a.214.214,0,0,1,.214.214A.22.22,0,0,1,165.236,143.8Z" transform="translate(1134.188 537.495)" fill="#fff"/>
    <path id="Path_13392" data-name="Path 13392" d="M165.236,146.988H139.574a.214.214,0,1,1,0-.428h25.662a.214.214,0,0,1,0,.428Z" transform="translate(1134.188 536.149)" fill="#fff"/>
    <path id="Path_13393" data-name="Path 13393" d="M165.236,150.178H139.574a.214.214,0,1,1,0-.428h25.662a.214.214,0,1,1,0,.428Z" transform="translate(1134.188 534.802)" fill="#fff"/>
    <path id="Path_13394" data-name="Path 13394" d="M121.29,156.67H156.5a2.173,2.173,0,0,1,2.173,2.173v3.023a2.173,2.173,0,0,1-2.173,2.173H121.29Z" transform="translate(1141.814 531.882)" fill="#cdebed"/>
    <g id="Group_13255" data-name="Group 13255" transform="translate(1263.104 688.552)">
      <path id="Path_13395" data-name="Path 13395" d="M158.246,161.375a3.571,3.571,0,0,1-.127.9,3.664,3.664,0,0,0-3.127-5.606h-33.7v1.023h33.269a3.688,3.688,0,0,1,3.688,3.682Z" transform="translate(-121.29 -156.67)" fill="#cdebed"/>
    </g>
    <path id="Path_13396" data-name="Path 13396" d="M154.477,155.75H120.07v1.058h34.407a3.162,3.162,0,0,1,0,6.317H120.07v1.052h34.407a4.213,4.213,0,1,0,0-8.427Z" transform="translate(1142.329 532.27)" fill="#f0c40c"/>
    <path id="Path_13397" data-name="Path 13397" d="M155.444,160.45H124.153a.179.179,0,0,1,0-.353h31.292a.179.179,0,1,1,0,.353Z" transform="translate(1140.668 530.437)" fill="#fff"/>
    <path id="Path_13398" data-name="Path 13398" d="M155.425,163.087H124.133a.173.173,0,1,1,0-.347h31.292a.173.173,0,0,1,0,.347Z" transform="translate(1140.687 529.32)" fill="#fff"/>
    <path id="Path_13399" data-name="Path 13399" d="M155.444,165.74H124.153a.179.179,0,0,1,0-.353h31.292a.179.179,0,1,1,0,.353Z" transform="translate(1140.668 528.204)" fill="#fff"/>
    <path id="Path_13400" data-name="Path 13400" d="M259.8,69.4a.543.543,0,0,1-.538-.543v-41.9a3.977,3.977,0,0,0-3.971-3.971H226.842a.543.543,0,1,1,0-1.081h28.448a5.057,5.057,0,0,1,5.052,5.052v41.9A.543.543,0,0,1,259.8,69.4Z" transform="translate(1097.521 588.76)" fill="#fff"/>
    <path id="Path_13401" data-name="Path 13401" d="M242.7,122.92h-2.641a5.2,5.2,0,0,1-5.2-5.2v-27.4a4.133,4.133,0,0,0-4.144-4.109H198.423a.543.543,0,0,1,0-1.087h32.286a5.2,5.2,0,0,1,5.2,5.2v27.385a4.138,4.138,0,0,0,4.133,4.133h2.641a.543.543,0,1,1,0,1.081Z" transform="translate(1109.491 562.078)" fill="#fff"/>
    <path id="Path_13402" data-name="Path 13402" d="M384.953,91.117a.543.543,0,0,1-.543-.538V83.725a4.121,4.121,0,0,1,4.115-4.115h37.193a3.04,3.04,0,0,0,3.034-3.034V70.333a.543.543,0,1,1,1.087,0v6.242a4.121,4.121,0,0,1-4.121,4.115H388.525a3.04,3.04,0,0,0-3.034,3.034V90.58A.538.538,0,0,1,384.953,91.117Z" transform="translate(1030.772 568.547)" fill="#fff"/>
    <path id="Path_13403" data-name="Path 13403" d="M445.831,136.839H400.812a.543.543,0,1,1,0-1.081h45.019a.543.543,0,0,1,0,1.081Z" transform="translate(1024.103 540.709)" fill="#fff"/>
    <path id="Path_13404" data-name="Path 13404" d="M331.237,36.47,327.81,50.544h7.1Z" transform="translate(1054.658 582.609)" fill="#fa92ae"/>
    <path id="Path_13405" data-name="Path 13405" d="M323.23,53.124c0,.965-.445,1.734-1,1.734s-1-.78-1-1.734.451-1.734,1-1.734S323.23,52.164,323.23,53.124Z" transform="translate(1057.435 576.312)" fill="#91435b"/>
    <path id="Path_13406" data-name="Path 13406" d="M345.21,53.124c0,.965-.451,1.734-1,1.734s-1-.78-1-1.734.445-1.734,1-1.734S345.21,52.164,345.21,53.124Z" transform="translate(1048.159 576.312)" fill="#91435b"/>
    <path id="Path_13407" data-name="Path 13407" d="M331.7,66a3.19,3.19,0,0,1-3.127-2.428.54.54,0,0,1,1.046-.266,2.15,2.15,0,0,0,4.161,0,.54.54,0,1,1,1.046.266A3.15,3.15,0,0,1,331.7,66Z" transform="translate(1054.341 571.457)" fill="#91435b"/>
    <path id="Path_13408" data-name="Path 13408" d="M314.973,40.036a5.959,5.959,0,0,1,5.612-1.329.815.815,0,0,0,.433-1.566,7.658,7.658,0,0,0-7.2,1.734c-.774.7.376,1.844,1.156,1.156Z" transform="translate(1060.67 582.441)" fill="#91435b"/>
    <path id="Path_13409" data-name="Path 13409" d="M347.131,40.037a5.959,5.959,0,0,0-5.612-1.329.815.815,0,0,1-.428-1.566,7.652,7.652,0,0,1,7.19,1.734c.774.7-.376,1.844-1.156,1.156Z" transform="translate(1049.278 582.441)" fill="#91435b"/>
    <g id="Group_13256" data-name="Group 13256" transform="translate(1367.764 607.248)" opacity="0.22">
      <path id="Path_13410" data-name="Path 13410" d="M302.526,38.975a5.357,5.357,0,0,0,3.468-1.878,15.941,15.941,0,0,0,4.5-11.629c2.115,1.237,4.687,1.387,7.138,1.376a23.391,23.391,0,0,0,9.554-1.607c2.971-1.324,5.549-3.89,6.144-7.086a132.61,132.61,0,0,0-13.421-1.867,32.367,32.367,0,0,0-8.155-.035,10.593,10.593,0,0,0-6.664,3.427c-1.613,1.982-2.115,4.624-2.254,7.19a53.164,53.164,0,0,1-.462,7.635" transform="translate(-302.37 -16)" fill="#fa92ae"/>
    </g>
    <path id="Path_13411" data-name="Path 13411" d="M319.175,9.991c-4.433-.156-11.236,1.156-14.415,4.549a22.032,22.032,0,0,0-5.115,9.993c-.873,3.693-1.156,8.265.578,11.756a1.052,1.052,0,0,0,.382.468c.381.2.821-.11,1.156-.4a15.894,15.894,0,0,0,4.231-6.653,22.311,22.311,0,0,0,.959-4.763c.052-.468.578-4.924.254-5.023a36.3,36.3,0,0,0,14.363,1.532,17.571,17.571,0,0,0,6.034-1.491,8.779,8.779,0,0,0,4.323-4.289A18.159,18.159,0,0,0,319.175,9.991Z" transform="translate(1066.836 593.789)" fill="#4a3d99"/>
    <path id="Path_13412" data-name="Path 13412" d="M334.338,42.676h-6.127A4.237,4.237,0,0,0,324,46.525a4.526,4.526,0,0,0-5.04,0,4.231,4.231,0,0,0-4.2-3.855h-6.132A4.231,4.231,0,0,0,304.41,46.9v3.572a4.225,4.225,0,0,0,4.219,4.219h6.132a4.225,4.225,0,0,0,4.219-4.219V47.889c.682-.578,2.219-1.942,5.005-.127v2.711a4.225,4.225,0,0,0,4.225,4.219h6.127a4.219,4.219,0,0,0,4.219-4.219V46.907A4.225,4.225,0,0,0,334.338,42.676Zm-16.709,7.8a2.89,2.89,0,0,1-2.89,2.89h-6.109a2.89,2.89,0,0,1-2.89-2.89V46.907a2.89,2.89,0,0,1,2.89-2.89h6.132a2.89,2.89,0,0,1,2.89,2.89Zm19.576,0a2.89,2.89,0,0,1-2.89,2.89h-6.127a2.89,2.89,0,0,1-2.89-2.89V46.907a2.89,2.89,0,0,1,2.89-2.89h6.127a2.89,2.89,0,0,1,2.89,2.89Z" transform="translate(1064.533 579.992)" fill="#fff"/>
    <rect id="Rectangle_25028" data-name="Rectangle 25028" width="36.973" height="28.783" rx="11.06" transform="translate(1437.763 607.762)" fill="#59afec"/>
    <path id="Path_13413" data-name="Path 13413" d="M458.152,34.6V31.3l-2.982.266a7.1,7.1,0,0,0-1.156-2.543l2.4-1.89-2.341-2.312-1.994,2.387A6.935,6.935,0,0,0,449.54,26.2l.37-3.1h-3.3l.277,3.115a7.1,7.1,0,0,0-2.532,1.046l-1.9-2.485-2.312,2.312,2.352,1.959a7.029,7.029,0,0,0-1.115,2.56l-2.959-.353V34.6l2.919-.266A7.011,7.011,0,0,0,442.385,37l-2.243,1.769,2.312,2.312,1.8-2.156a6.97,6.97,0,0,0,2.693,1.121l-.329,2.763h3.3l-.249-2.774a6.982,6.982,0,0,0,2.682-1.156l1.734,2.208,2.341-2.312-2.2-1.861a6.936,6.936,0,0,0,1.023-2.682Zm-9.883,1.884a1.394,1.394,0,1,1,0,.006Z" transform="translate(1007.978 588.251)" fill="#fff"/>
    <g id="Group_13257" data-name="Group 13257" transform="translate(1437.763 607.826)" opacity="0.22">
      <path id="Path_13414" data-name="Path 13414" d="M454.991,33.253c-5.525-1-11.323-1.243-16.345-3.757A19.859,19.859,0,0,1,429.2,19.237,19.8,19.8,0,0,1,428.468,17a5.982,5.982,0,0,0-4.988,5.9V39.715a5.982,5.982,0,0,0,5.982,5.982h25.009a5.982,5.982,0,0,0,5.982-5.982V34.588a44.866,44.866,0,0,0-5.462-1.335Z" transform="translate(-423.48 -17)" fill="#59afec"/>
    </g>
    <rect id="Rectangle_25029" data-name="Rectangle 25029" width="33.65" height="23.379" rx="11.06" transform="translate(1474.182 662.74)" fill="#9b88fe"/>
    <text id="CSS" transform="translate(1478.962 675.416)" fill="#fff" font-size="9" font-family="SegoeUIBlack, Segoe UI"><tspan x="0" y="0">CSS</tspan></text>
    <g id="Group_13258" data-name="Group 13258" transform="translate(1474.182 662.716)" opacity="0.22">
      <path id="Path_13415" data-name="Path 13415" d="M513.372,127.593c-5.364-1.04-10.779-2.792-14.871-6.4a19.472,19.472,0,0,1-5.722-9.219h-.306a5.982,5.982,0,0,0-5.982,5.982v11.432a5.982,5.982,0,0,0,5.982,5.982h21.692a5.982,5.982,0,0,0,5.982-5.982v-.676C517.88,128.373,515.614,128.049,513.372,127.593Z" transform="translate(-486.49 -111.97)" fill="#9b88fe"/>
    </g>
    <rect id="Rectangle_25030" data-name="Rectangle 25030" width="32.783" height="23.379" rx="11.06" transform="translate(1286.876 598)" fill="#9b88fe"/>
    <text id="_" data-name="&lt;/&gt;" transform="translate(1293.28 610.017)" fill="#fff" font-size="9" font-family="SegoeUIBlack, Segoe UI"><tspan x="0" y="0">&lt;/&gt;</tspan></text>
    <g id="Group_13259" data-name="Group 13259" transform="translate(1286.876 598)" opacity="0.22">
      <path id="Path_13416" data-name="Path 13416" d="M188.186,13.346c-4.294-.532-8.9-1.092-12.138-3.936a14.912,14.912,0,0,1-2.711-3.271A24.922,24.922,0,0,1,170.477,0H168.4a5.982,5.982,0,0,0-5.982,5.982V17.391a5.982,5.982,0,0,0,5.982,5.988h20.807a5.988,5.988,0,0,0,5.982-5.988V14.8A34.153,34.153,0,0,0,188.186,13.346Z" transform="translate(-162.42)" fill="#9b88fe"/>
    </g>
    <rect id="Rectangle_25031" data-name="Rectangle 25031" width="37.384" height="24.651" rx="11.06" transform="translate(1265.699 635.395)" fill="#59afec"/>
    <text id="HTML" transform="translate(1270.276 649.886)" fill="#fff" font-size="9" font-family="SegoeUIBlack, Segoe UI"><tspan x="0" y="0">HTML</tspan></text>
    <g id="Group_13260" data-name="Group 13260" transform="translate(1265.716 635.39)" opacity="0.22">
      <path id="Path_13417" data-name="Path 13417" d="M145.19,76.065c-3.722-.74-7.635-1.948-10.022-4.89a13.872,13.872,0,0,1-1.93-3.352,24.8,24.8,0,0,1-1.092-3.133h-.353a5.982,5.982,0,0,0-5.982,5.988V83.365a5.982,5.982,0,0,0,5.982,5.988h25.431a5.982,5.982,0,0,0,5.947-5.988V79.278C157.362,77.683,151.149,77.255,145.19,76.065Z" transform="translate(-125.81 -64.69)" fill="#59afec"/>
    </g>
    <rect id="Rectangle_25032" data-name="Rectangle 25032" width="2.901" height="24.934" transform="translate(1325.762 671.675)" fill="#9bced3"/>
    <rect id="Rectangle_25033" data-name="Rectangle 25033" width="2.901" height="24.165" transform="translate(1325.762 674.386)" fill="#9b88fe"/>
    <rect id="Rectangle_25034" data-name="Rectangle 25034" width="2.901" height="0.959" transform="translate(1325.762 673.906)" fill="#cdebed"/>
    <rect id="Rectangle_25035" data-name="Rectangle 25035" width="13.455" height="5.138" transform="translate(1329.245 692.207) rotate(-86.61)" fill="#f0c40c"/>
    <path id="Path_13418" data-name="Path 13418" d="M.792,0H4.659a.786.786,0,0,1,.786.786v2.1H0V.786A.786.786,0,0,1,.786,0Z" transform="translate(1329.953 677.571) rotate(3.39)" fill="#0d334a"/>
    <path id="Path_13419" data-name="Path 13419" d="M.728,0H.959a.734.734,0,0,1,.734.734V4.5a.734.734,0,0,1-.734.734H.728A.728.728,0,0,1,0,4.5V.746A.734.734,0,0,1,.734.012Z" transform="translate(1332.585 679.274) rotate(3.38)" fill="#0d334a"/>
    <rect id="Rectangle_25036" data-name="Rectangle 25036" width="3.896" height="10.201" transform="matrix(0.995, -0.099, 0.099, 0.995, 1320.55, 681.142)" fill="#59afec"/>
    <path id="Path_13420" data-name="Path 13420" d="M.792,0H3.341a.786.786,0,0,1,.786.786v1.4H0V.786A.786.786,0,0,1,.792,0Z" transform="matrix(0.995, -0.099, 0.099, 0.995, 1320.345, 680.258)" fill="#0d334a"/>
    <path id="Path_13421" data-name="Path 13421" d="M225.163,147.819h0a.647.647,0,0,1-.705-.578l-.26-2.664a.636.636,0,0,1,.578-.7h0a.636.636,0,0,1,.7.578l.266,2.664a.636.636,0,0,1-.578.7Z" transform="translate(1098.386 537.282)" fill="#0d334a"/>
    <path id="Path_13422" data-name="Path 13422" d="M217.42,154.49l1.485,20.686h14.64l1.485-20.686Z" transform="translate(1101.245 532.802)" fill="#59afec"/>
    <path id="Path_13423" data-name="Path 13423" d="M233.508,156.451H216.284a1.4,1.4,0,0,1-1.4-1.41h0a1.41,1.41,0,0,1,1.4-1.41h17.224a1.41,1.41,0,0,1,1.4,1.41h0a1.4,1.4,0,0,1-1.4,1.41Z" transform="translate(1102.317 533.165)" fill="#0d334a"/>
    <g id="Group_13261" data-name="Group 13261" transform="translate(1318.705 687.292)" opacity="0.22">
      <path id="Path_13424" data-name="Path 13424" d="M218.941,175.176h14.646l.029-.439c-2.439-1.607-5.069-3-7.19-5.005-3.52-3.329-5.369-8.144-5.9-12.964-.081-.757-.121-1.52-.15-2.277h-2.89v.081Z" transform="translate(-217.49 -154.49)" fill="#59afec"/>
    </g>
    <path id="Path_13425" data-name="Path 13425" d="M274.654,252l-8.335,81.905a1.087,1.087,0,0,0,.971,1.1h0a1.283,1.283,0,0,0,1.578-.878l12.039-83.715" transform="translate(1080.608 492.318)" fill="#1c5e5e"/>
    <path id="Path_13426" data-name="Path 13426" d="M381.848,252l8.34,81.906a1.087,1.087,0,0,1-.971,1.1h0a1.283,1.283,0,0,1-1.578-.878L375.6,250.42" transform="translate(1034.49 492.318)" fill="#1c5e5e"/>
    <path id="Path_13427" data-name="Path 13427" d="M347.008,356.943l.578,12.369s9.941,1.555,10.456,7.7c-17.455.145-22.541-.925-22.541-.925l3.861-26.211" transform="translate(1051.413 450.344)" fill="#fa92ae"/>
    <rect id="Rectangle_25037" data-name="Rectangle 25037" width="83.541" height="21.541" rx="10.771" transform="translate(1344.032 723.364)" fill="#109e9e"/>
    <path id="Path_13428" data-name="Path 13428" d="M338.545,233.02l-.815,76.507,12.791.416,9.1-75.929" transform="translate(1050.472 499.661)" fill="#b0cbea"/>
    <path id="Path_13429" data-name="Path 13429" d="M358.062,387.464c-.526-6.248-10.6-7.809-10.6-7.809l-.231-4.8a89.662,89.662,0,0,0-10.276-.087l-1.734,11.773S340.364,387.609,358.062,387.464Z" transform="translate(1051.531 439.884)" fill="#362d6b"/>
    <path id="Path_13430" data-name="Path 13430" d="M281.12,218.49s1.549,14.028,8.248,15.328,35.419-1.74,35.419-1.74l-1.826-8.953Z" transform="translate(1074.362 505.793)" fill="#b0cbea"/>
    <path id="Path_13431" data-name="Path 13431" d="M416,250.161l7.15,2.7s-1.607,16.906,5.017,17.808c1.665-11.745,2.133-24.339,2.133-24.339L418.381,242" transform="translate(1017.44 495.871)" fill="#fa92ae"/>
    <path id="Path_13432" data-name="Path 13432" d="M289.727,221.684l70.456,15.669,4.1-11.063-43.476-19-38.5-2.046S276.774,218.805,289.727,221.684Z" transform="translate(1074.356 511.385)" fill="#c5dcfc"/>
    <path id="Path_13433" data-name="Path 13433" d="M428.125,245.64c-1.075,2.618-1.919,5.369-2.815,8.092l1.734.659s-1.607,16.906,5.017,17.808c1.665-11.745,2.133-24.339,2.133-24.339Z" transform="translate(1013.511 494.335)" fill="#362d6b"/>
    <path id="Path_13434" data-name="Path 13434" d="M157.064,214.54l-8.78,113.585a1.445,1.445,0,0,0,1.023,1.526h0a1.364,1.364,0,0,0,1.665-1.214l14.184-112.475" transform="translate(1130.424 507.46)" fill="#4a3d99"/>
    <path id="Path_13435" data-name="Path 13435" d="M497.772,214.54l8.78,113.585a1.445,1.445,0,0,1-1.023,1.526h0a1.364,1.364,0,0,1-1.665-1.214L489.68,215.962" transform="translate(986.346 507.46)" fill="#4a3d99"/>
    <rect id="Rectangle_25038" data-name="Rectangle 25038" width="238.966" height="18.414" rx="5.13" transform="translate(1266.317 710.001)" fill="#362d6b"/>
    <rect id="Rectangle_25039" data-name="Rectangle 25039" width="272.922" height="7.074" rx="3.537" transform="translate(1249.342 707.978)" fill="#4a3d99"/>
  </g>
</svg>
