<svg xmlns="http://www.w3.org/2000/svg" xmlns:xlink="http://www.w3.org/1999/xlink" width="308.606" height="243.866" viewBox="0 0 308.606 243.866">
  <defs>
    <linearGradient id="linear-gradient" y1="0.5" x2="1" y2="0.5" gradientUnits="objectBoundingBox">
      <stop offset="0" stop-color="#d1edff"/>
      <stop offset="0.28" stop-color="#d9f0ff"/>
      <stop offset="0.71" stop-color="#edf8ff"/>
      <stop offset="1" stop-color="#fff"/>
    </linearGradient>
  </defs>
  <g id="Group_13467" data-name="Group 13467" transform="translate(-1344.999 -586)">
    <g id="Layer_14" data-name="Layer 14" transform="translate(1344.999 586)">
      <path id="Path_13596" data-name="Path 13596" d="M148.922,222.685c7.855-12.373,20.522-36.293,5.933-48.608s-16.832-34.247-5.6-44.833,10.66-25.443-.564-40.3-4.864-30.854,8.419-33.684c34.877-7.424,48.665,25.757,66.7,15.851s23.016-38.638,53.339-40.123,52.19,12.373,49.958,37.151,12.922,38.767,33.114,32.757,35.911.918,28.616,33.12,14.022,47.777-3.368,65.005,11.2,23.667,11.2,23.667Z" transform="translate(-103.07 -22.387)" fill="#c2efff"/>
      <path id="Path_13597" data-name="Path 13597" d="M345.483,48.21c-6.764,3.316-24.828-7.8-29.876-18.575s46.174-32.683,48.965-14.116S353.058,44.492,345.483,48.21Z" transform="translate(-228.583 -6.025)" fill="#c2efff"/>
      <path id="Path_13598" data-name="Path 13598" d="M857.013,165.441c5.224,5.694,28.1,1.485,24.319-9.659s-20.621-30.835-24.827-20.071S849.529,157.267,857.013,165.441Z" transform="translate(-617.993 -96.139)" fill="#c2efff"/>
      <path id="Path_13599" data-name="Path 13599" d="M779.53,548.2s36.406-35.377,66.3-49.438,3.184,13.986-5.623,21.9c0,0,27.822-12.878,29.969-4.072S846.5,530.949,846.5,530.949s27.75-3.629,27.308,9.543S804.25,567.877,779.53,548.2Z" transform="translate(-565.205 -358.812)" fill="#a5ddf2"/>
      <path id="Path_13600" data-name="Path 13600" d="M128.354,495.118s-69.536-.894-112.139-16.164,10.448-16.648,26.639-15.815c0,0-39.449-14.415-33.015-25.036S46.7,447.076,46.7,447.076,16.27,423.756,29.428,411.405,123.41,452.116,128.354,495.118Z" transform="translate(-0.013 -296.973)" fill="#ffcff5"/>
      <path id="Path_13601" data-name="Path 13601" d="M242.3,404.307s-75.327-32.809-66.831-45.514c5.444-8.147,16.027,5.348,19.914-.4s-32.993-23.068-19.224-39.177,76.215,78.89,76.215,78.89Z" transform="translate(-125.487 -230.118)" fill="#61dcff"/>
      <path id="Path_13602" data-name="Path 13602" d="M611.433,318.379c8.248,4.438,13.992,6.093,22.862,5.862,19.246-.5,19.656-13.912,18.342-20.3-2.832-13.747,24.61-2.293,28.08-21.138,2.722-14.787-9.9-21.374-8.831-30.054,1.537-12.584,14.572-9.026,19.546-17.723,10.371-18.13-11.025-19.521-3.767-32.317s13.637-30.324,4.792-35.089-19.945,10.25-26.612,23.37-15.606-1.375-29.031,14.69c-9.464,11.328,4.792,23.164-4.853,31.388-6.667,5.667-18.251-6.53-29.081,3.9-13.8,13.291,10.891,29.859-2.136,35.083-6.049,2.428-17.014,10.173-6.813,26.5C598.623,310.07,603.176,313.942,611.433,318.379Z" transform="translate(-427.611 -120.878)" fill="#61dcff"/>
      <path id="Path_13603" data-name="Path 13603" d="M675.509,337.229a.145.145,0,0,1-.066-.016.14.14,0,0,1-.055-.187l74.576-137.341a.138.138,0,0,1,.187-.058.135.135,0,0,1,.055.187L675.63,337.157A.135.135,0,0,1,675.509,337.229Z" transform="translate(-489.685 -144.729)" fill="#fff"/>
      <path id="Path_13604" data-name="Path 13604" d="M710.525,678.07h0l-21.4-1.375a.137.137,0,0,1-.129-.146.143.143,0,0,1,.146-.129l21.4,1.375a.135.135,0,0,1,.129.146.14.14,0,0,1-.146.129Z" transform="translate(-499.566 -490.442)" fill="#fff"/>
      <path id="Path_13605" data-name="Path 13605" d="M720.685,601.461a.138.138,0,0,1-.019-.275l42.017-5.568a.146.146,0,0,1,.157.118.14.14,0,0,1-.121.157L720.7,601.461Z" transform="translate(-522.439 -431.856)" fill="#fff"/>
      <path id="Path_13606" data-name="Path 13606" d="M746.421,558.738a.138.138,0,1,1-.019-.275l26.945-3.968a.139.139,0,0,1,.041.275l-26.945,3.967Z" transform="translate(-541.093 -402.039)" fill="#fff"/>
      <path id="Path_13607" data-name="Path 13607" d="M774.833,517.275a.14.14,0,0,1,0-.275h23.945a.137.137,0,1,1,0,.275Z" transform="translate(-561.718 -374.854)" fill="#fff"/>
      <path id="Path_13608" data-name="Path 13608" d="M799.813,464.807a.14.14,0,0,1-.138-.118.137.137,0,0,1,.118-.157l15.573-2.235a.139.139,0,1,1,.039.275l-15.573,2.235Z" transform="translate(-579.811 -335.19)" fill="#fff"/>
      <path id="Path_13609" data-name="Path 13609" d="M835.978,403.271a.137.137,0,1,1,0-.275l25.188-.236a.143.143,0,0,1,.14.137.137.137,0,0,1-.137.138l-25.188.236Z" transform="translate(-606.033 -292.023)" fill="#fff"/>
      <path id="Path_13610" data-name="Path 13610" d="M855.838,369.035a.137.137,0,0,1-.138-.137.14.14,0,0,1,.138-.137h20.384a.137.137,0,1,1,0,.275Z" transform="translate(-620.433 -267.372)" fill="#fff"/>
      <path id="Path_13611" data-name="Path 13611" d="M910.495,233.961a.135.135,0,0,1-.1-.044.138.138,0,0,1,0-.2l13.129-12.392a.138.138,0,1,1,.19.2l-13.129,12.392A.141.141,0,0,1,910.495,233.961Z" transform="translate(-660.059 -160.45)" fill="#fff"/>
      <path id="Path_13612" data-name="Path 13612" d="M881.637,318.407a.137.137,0,1,1,0-.275l9.607-.564a.135.135,0,0,1,.146.129.137.137,0,0,1-.129.146Z" transform="translate(-639.139 -230.255)" fill="#fff"/>
      <path id="Path_13613" data-name="Path 13613" d="M659.264,608.383a.138.138,0,0,1-.121-.074l-12.276-23.115a.138.138,0,0,1,.058-.187.134.134,0,0,1,.184.058l12.279,23.115a.14.14,0,0,1-.058.187A.147.147,0,0,1,659.264,608.383Z" transform="translate(-469.006 -424.151)" fill="#fff"/>
      <path id="Path_13614" data-name="Path 13614" d="M681.935,516.217a.143.143,0,0,1-.124-.071l-17.536-32.683a.138.138,0,1,1,.242-.132l17.541,32.685a.137.137,0,0,1-.058.187A.126.126,0,0,1,681.935,516.217Z" transform="translate(-481.627 -350.389)" fill="#fff"/>
      <path id="Path_13615" data-name="Path 13615" d="M739.276,494.557a.141.141,0,0,1-.121-.072l-8.982-16.651a.135.135,0,0,1,.055-.187.14.14,0,0,1,.187.055l8.982,16.651a.138.138,0,0,1-.055.187A.145.145,0,0,1,739.276,494.557Z" transform="translate(-529.406 -346.31)" fill="#fff"/>
      <path id="Path_13616" data-name="Path 13616" d="M777.146,456.632a.135.135,0,0,1-.132-.1l-3.978-13.511a.143.143,0,0,1,.275-.077l3.984,13.508a.138.138,0,0,1-.094.171Z" transform="translate(-560.493 -321.084)" fill="#fff"/>
      <path id="Path_13617" data-name="Path 13617" d="M793.442,374.4a.138.138,0,0,1-.121-.069l-11.248-20.071a.137.137,0,1,1,.239-.135L793.563,374.2a.137.137,0,0,1-.121.2Z" transform="translate(-567.034 -256.707)" fill="#fff"/>
      <path id="Path_13618" data-name="Path 13618" d="M825.448,334.443a.135.135,0,0,1-.126-.088l-7.748-19.169a.14.14,0,0,1,.077-.181.137.137,0,0,1,.179.077l7.748,19.161a.138.138,0,0,1-.077.179A.178.178,0,0,1,825.448,334.443Z" transform="translate(-592.782 -228.389)" fill="#fff"/>
      <path id="Path_13619" data-name="Path 13619" d="M862.786,309.594a.138.138,0,0,1-.129-.1l-3.45-10.69a.137.137,0,0,1,.261-.085l3.45,10.69a.134.134,0,0,1-.088.173A.122.122,0,0,1,862.786,309.594Z" transform="translate(-622.971 -216.525)" fill="#fff"/>
      <path id="Path_13620" data-name="Path 13620" d="M888.444,272.1a.137.137,0,0,1-.137-.129l-.718-11.886a.138.138,0,1,1,.275-.016l.718,11.883a.143.143,0,0,1-.129.148Z" transform="translate(-643.554 -188.47)" fill="#fff"/>
      <path id="Path_13621" data-name="Path 13621" d="M918.06,227.559a.135.135,0,0,1-.137-.124l-.764-8.136a.138.138,0,1,1,.275-.028l.764,8.136a.14.14,0,0,1-.124.151Z" transform="translate(-664.993 -158.894)" fill="#fff"/>
      <path id="Path_13622" data-name="Path 13622" d="M455.863.325c-9.9-2.683-8.963,12.1-15.441,14.993-12.909,5.76-15.994,12.862-18.647,26.164S406.488,51.141,400.258,53.4s-24.6,8.551-25.229,30.093-4.24,7.894-13.508,20.978,11.512,45.487,36.8,27.033c9.673-7.058,10.97,7.539,23.92-7.632s9.772-19.433,10.676-27.613,18.834-10.69,20.9-20.789-18.672-16.409-2.029-31.418c8.015-7.231,1.237-17.651,5.823-25.672S462.354,2.082,455.863.325Z" transform="translate(-260.495 -0.001)" fill="#ffd9f7"/>
      <path id="Path_13623" data-name="Path 13623" d="M413.626,153.4a.132.132,0,0,1-.077-.022.143.143,0,0,1-.041-.2L493.839,29.056a.144.144,0,0,1,.242.157L413.734,153.337A.14.14,0,0,1,413.626,153.4Z" transform="translate(-299.803 -21.02)" fill="#fff"/>
      <path id="Path_13624" data-name="Path 13624" d="M402.083,409.208a.146.146,0,0,1-.129-.077l-9.818-18.685a.143.143,0,1,1,.253-.135l9.821,18.68a.16.16,0,0,1-.126.217Z" transform="translate(-284.311 -282.943)" fill="#fff"/>
      <path id="Path_13625" data-name="Path 13625" d="M439.556,437.885a.143.143,0,0,1,0-.275l31.679-1.1a.146.146,0,0,1,0,.289Z" transform="translate(-318.631 -316.494)" fill="#fff"/>
      <path id="Path_13626" data-name="Path 13626" d="M438.741,373.888a.143.143,0,0,1-.124-.071l-7.833-13.673a.14.14,0,0,1,.044-.192.143.143,0,0,1,.2.055l7.836,13.67a.143.143,0,0,1-.055.2A.132.132,0,0,1,438.741,373.888Z" transform="translate(-312.33 -260.971)" fill="#fff"/>
      <path id="Path_13627" data-name="Path 13627" d="M470.937,388.713a.143.143,0,0,1,0-.275l35.776-1.35a.135.135,0,0,1,.148.138.146.146,0,0,1-.137.148l-35.781,1.339Z" transform="translate(-341.383 -280.66)" fill="#fff"/>
      <path id="Path_13628" data-name="Path 13628" d="M465.26,299.481a.14.14,0,0,1-.135-.1l-8.144-25.875a.143.143,0,0,1,.093-.181.146.146,0,0,1,.179.1l8.136,25.867a.146.146,0,0,1-.094.181Z" transform="translate(-331.334 -198.172)" fill="#fff"/>
      <path id="Path_13629" data-name="Path 13629" d="M506.047,333.12a.143.143,0,0,1,0-.275l25.391-1.875a.146.146,0,0,1,.151.132.14.14,0,0,1-.132.154l-25.391,1.875Z" transform="translate(-366.84 -239.971)" fill="#fff"/>
      <path id="Path_13630" data-name="Path 13630" d="M510.356,256.929a.14.14,0,0,1-.129-.08L502.371,240.8a.144.144,0,1,1,.258-.126l7.855,16.046a.143.143,0,0,1-.066.192A.127.127,0,0,1,510.356,256.929Z" transform="translate(-364.24 -174.446)" fill="#fff"/>
      <path id="Path_13631" data-name="Path 13631" d="M546.562,271.721a.143.143,0,0,1-.143-.137.14.14,0,0,1,.135-.148l30.109-1.355a.14.14,0,0,1,.148.135.143.143,0,0,1-.135.151l-30.1,1.355Z" transform="translate(-396.187 -195.823)" fill="#fff"/>
      <path id="Path_13632" data-name="Path 13632" d="M552.434,231.369a.143.143,0,0,1-.138-.107l-2.408-9.521a.143.143,0,0,1,.275-.069l2.409,9.519a.143.143,0,0,1-.1.173.083.083,0,0,1-.033.006Z" transform="translate(-398.702 -160.659)" fill="#fff"/>
      <path id="Path_13633" data-name="Path 13633" d="M576.966,225.3a.143.143,0,0,1,0-.275l18.306-1.207a.143.143,0,1,1,.019.275L576.986,225.3Z" transform="translate(-418.261 -162.275)" fill="#fff"/>
      <path id="Path_13634" data-name="Path 13634" d="M601.978,184.311a.146.146,0,0,1-.143-.118.143.143,0,0,1,.118-.165l12.268-2.035a.142.142,0,1,1,.047.28L602,184.322Z" transform="translate(-436.365 -131.954)" fill="#fff"/>
      <path id="Path_13635" data-name="Path 13635" d="M619.806,129.781a.143.143,0,0,1-.143-.14l-.223-11.974a.143.143,0,0,1,.275,0l.223,11.974a.143.143,0,0,1-.14.146Z" transform="translate(-449.131 -85.24)" fill="#fff"/>
      <path id="Path_13636" data-name="Path 13636" d="M587.755,192.463a.143.143,0,0,1-.143-.137l-.212-6.948a.146.146,0,0,1,.14-.148.138.138,0,0,1,.146.14l.212,6.945a.143.143,0,0,1-.137.148Z" transform="translate(-425.901 -134.302)" fill="#fff"/>
      <path id="Path_13637" data-name="Path 13637" d="M638.263,128.191a.143.143,0,0,1-.022-.275l13.28-2.112a.14.14,0,0,1,.162.118.143.143,0,0,1-.118.165l-13.28,2.112Z" transform="translate(-462.695 -91.214)" fill="#fff"/>
      <path id="Path_13638" data-name="Path 13638" d="M652.786,84.816a.146.146,0,0,1-.143-.132l-.775-8.8a.143.143,0,0,1,.129-.157.148.148,0,0,1,.157.132l.775,8.8a.146.146,0,0,1-.129.157Z" transform="translate(-472.643 -54.908)" fill="#fff"/>
      <path id="Path_13639" data-name="Path 13639" d="M665.228,88.81a.143.143,0,0,1-.025-.275l6.874-1.246a.143.143,0,0,1,.049.275l-6.874,1.243Z" transform="translate(-482.245 -63.29)" fill="#fff"/>
      <path id="Path_13640" data-name="Path 13640" d="M684.9,45.983a.143.143,0,0,1-.143-.135L684.4,40.49a.143.143,0,0,1,.135-.151.14.14,0,0,1,.151.132l.357,5.359a.146.146,0,0,1-.132.154Z" transform="translate(-496.23 -29.248)" fill="#fff"/>
      <path id="Path_13641" data-name="Path 13641" d="M210.978,63.391c11.21-4.438,10.231,10.61,17.6,12.373,14.668,3.533,18.21,10.14,21.3,23.065s17.393,7.041,24.47,8.221,27.915,4.308,28.762,25.872,4.855,7.2,15.441,18.746-12.774,47.81-41.552,33.67c-11-5.405-19.818,7.47-34.6-5.526s-7.828-15.972-8.9-24.047-17.355-7.289-19.76-17.085,21.069-19.8,2.112-31.984c-9.131-5.873-1.509-17.55-6.755-24.817S203.615,66.3,210.978,63.391Z" transform="translate(-148.844 -45.371)" fill="#a5ddf2"/>
      <path id="Path_13642" data-name="Path 13642" d="M322.561,203.9a.157.157,0,0,1-.118-.055L230.611,93a.157.157,0,0,1,.022-.217.154.154,0,0,1,.214.022l91.832,110.841a.154.154,0,0,1-.118.25Z" transform="translate(-167.184 -67.248)" fill="#fff"/>
      <path id="Path_13643" data-name="Path 13643" d="M548.267,422.18a.132.132,0,0,1-.072-.019.151.151,0,0,1-.063-.206l11.02-20.525a.155.155,0,1,1,.275.143L548.407,422.1A.154.154,0,0,1,548.267,422.18Z" transform="translate(-397.416 -290.998)" fill="#fff"/>
      <path id="Path_13644" data-name="Path 13644" d="M404.526,464.947a.154.154,0,0,1-.019-.305l35.919-4.465a.152.152,0,1,1,.039.3l-35.913,4.465Z" transform="translate(-293.202 -333.653)" fill="#fff"/>
      <path id="Path_13645" data-name="Path 13645" d="M512.345,393.024a.145.145,0,0,1-.077-.019.151.151,0,0,1-.055-.209l8.8-15.138a.158.158,0,0,1,.275.154l-8.8,15.138A.151.151,0,0,1,512.345,393.024Z" transform="translate(-371.371 -273.764)" fill="#fff"/>
      <path id="Path_13646" data-name="Path 13646" d="M351.741,422.121a.157.157,0,0,1-.154-.135.154.154,0,0,1,.135-.171l40.565-4.919a.152.152,0,1,1,.038.3l-40.568,4.919Z" transform="translate(-254.923 -302.272)" fill="#fff"/>
      <path id="Path_13647" data-name="Path 13647" d="M481.1,322.832h-.049a.154.154,0,0,1-.1-.2l9.073-27.467a.157.157,0,0,1,.2-.1.154.154,0,0,1,.1.2l-9.073,27.467A.151.151,0,0,1,481.1,322.832Z" transform="translate(-348.719 -213.938)" fill="#fff"/>
      <path id="Path_13648" data-name="Path 13648" d="M354.409,371.323a.151.151,0,0,1-.151-.137.154.154,0,0,1,.137-.168l28.8-2.568a.154.154,0,0,1,.027.305l-28.8,2.568Z" transform="translate(-256.86 -267.147)" fill="#fff"/>
      <path id="Path_13649" data-name="Path 13649" d="M430.425,287.858a.149.149,0,0,1-.069-.017.154.154,0,0,1-.069-.206l8.8-17.533a.154.154,0,0,1,.206-.066.151.151,0,0,1,.066.2l-8.8,17.533A.151.151,0,0,1,430.425,287.858Z" transform="translate(-311.974 -195.779)" fill="#fff"/>
      <path id="Path_13650" data-name="Path 13650" d="M288.622,316.65a.154.154,0,0,1-.016-.305l34.14-3.918a.151.151,0,0,1,.171.135.149.149,0,0,1-.135.168Z" transform="translate(-209.166 -226.526)" fill="#fff"/>
      <path id="Path_13651" data-name="Path 13651" d="M398.762,269.523a.109.109,0,0,1-.041,0,.148.148,0,0,1-.107-.187l2.67-10.005a.154.154,0,0,1,.3.08l-2.672,10.005A.148.148,0,0,1,398.762,269.523Z" transform="translate(-289.016 -187.953)" fill="#fff"/>
      <path id="Path_13652" data-name="Path 13652" d="M302.6,272.917a.154.154,0,0,1-.151-.137.151.151,0,0,1,.137-.168l20.761-2a.154.154,0,1,1,.03.305Z" transform="translate(-219.294 -196.208)" fill="#fff"/>
      <path id="Path_13653" data-name="Path 13653" d="M298.8,236.359a.154.154,0,0,1,0-.305l13.921-.093h0a.154.154,0,0,1,.151.154.151.151,0,0,1-.151.154Z" transform="translate(-216.552 -171.084)" fill="#fff"/>
      <path id="Path_13654" data-name="Path 13654" d="M328.331,178.973h0a.157.157,0,0,1-.151-.157l.181-12.1a.151.151,0,0,1,.154-.148h0a.148.148,0,0,1,.151.154l-.179,12.1A.157.157,0,0,1,328.331,178.973Z" transform="translate(-237.952 -120.773)" fill="#fff"/>
      <path id="Path_13655" data-name="Path 13655" d="M365.008,236.586h0a.154.154,0,0,1-.148-.157l.2-7.03a.157.157,0,0,1,.157-.148.148.148,0,0,1,.148.157l-.19,7.03a.151.151,0,0,1-.165.148Z" transform="translate(-264.547 -166.219)" fill="#fff"/>
      <path id="Path_13656" data-name="Path 13656" d="M253.12,186.518a.154.154,0,1,1,0-.305l15.07-.2a.153.153,0,1,1,0,.305l-15.067.2Z" transform="translate(-183.403 -134.868)" fill="#fff"/>
      <path id="Path_13657" data-name="Path 13657" d="M288.96,139.622h-.014a.154.154,0,0,1-.137-.165l.825-9a.151.151,0,0,1,.165-.137.157.157,0,0,1,.14.168l-.825,9a.154.154,0,0,1-.154.137Z" transform="translate(-209.405 -94.488)" fill="#fff"/>
      <path id="Path_13658" data-name="Path 13658" d="M256.567,148.982h0l-7.8-.044a.154.154,0,0,1,0-.308h0l7.8.047a.154.154,0,0,1,.151.154A.151.151,0,0,1,256.567,148.982Z" transform="translate(-180.259 -107.765)" fill="#fff"/>
      <path id="Path_13659" data-name="Path 13659" d="M253.542,106.132h0a.154.154,0,0,1-.143-.162l.374-5.458a.154.154,0,1,1,.305.019l-.374,5.458a.151.151,0,0,1-.162.143Z" transform="translate(-183.732 -72.759)" fill="#fff"/>
      <path id="Path_13660" data-name="Path 13660" d="M72.926,693.255c-25.317,0-60.337-1.356-47.981,21.616,11.05,20.547,61.448,10.008,82.7,11.724s41.06,22.581,69.432,19.562,35.292-11.38,40.027-16.7,14.748-11.526,37.041-3.7,35.506-2.062,41.464-9.348,32.762-2.859,24.786-17.541c-3.629-6.684-31.729-5.664-42.468-5.6C226.678,693.532,72.926,693.255,72.926,693.255Z" transform="translate(-16.233 -502.589)" fill="#54d7e9"/>
    </g>
    <g id="Layer_2" data-name="Layer 2" transform="translate(1377.002 680.042)">
      <path id="Path_13661" data-name="Path 13661" d="M148.055,373.7c-1.52-.1-4.625,1.012-5.829,6.145s-2.6,13.626.379,18c0,0-.506-6.654,9.95-6.464,0,0-.316-6.324.19-8.111S153.634,374.082,148.055,373.7Z" transform="translate(-134.113 -364.993)" fill="#24cc51"/>
      <path id="Path_13662" data-name="Path 13662" d="M162.434,421.815a1.16,1.16,0,0,0,.74-.33,1.387,1.387,0,0,1,1.974-.206c.874.718.965,1.171.841,1.213s-.635-.676-.74-.638.616.762.371.885-.514-.514-.619-.473.275.533.022.657-.275-.492-.412-.514.209.594-.069.657-.239-.511-.506-.575-.55.311-.883.247a5.774,5.774,0,0,1-.844-.275Z" transform="translate(-149.69 -399.251)" fill="#ffb884"/>
      <path id="Path_13663" data-name="Path 13663" d="M146.513,441.144a3.4,3.4,0,0,0,3.28,2.708c2.947.283,5.18-3.849,4.325-5.845s-5.007-3.437-5.007-3.437S145.7,437.245,146.513,441.144Z" transform="translate(-138.146 -409.129)" fill="#083cb5"/>
      <path id="Path_13664" data-name="Path 13664" d="M178.406,428s-8.839,1.2-10.979,3.192-2.519,6.511-1.188,7.27a3.532,3.532,0,0,0,5.034-1.072C172.794,435.11,179.924,432.091,178.406,428Z" transform="translate(-151.978 -404.366)" fill="#083cb5"/>
      <path id="Path_13665" data-name="Path 13665" d="M165.253,459.906s-1.116-.643-1.65-.5a2.764,2.764,0,0,0,.379,2.518s1.545-.08,1.806-1.133Z" transform="translate(-150.519 -427.121)" fill="#391105"/>
      <path id="Path_13666" data-name="Path 13666" d="M182.212,428.111c1.127.825,1.784,3.286-1.7,5.895-3.041,2.279-8.988,3.794-10.382,4.237l-.643-1.375s4.515-.619,8.411-6.085C179.8,428.116,181.513,427.605,182.212,428.111Z" transform="translate(-154.896 -404.32)" fill="#2970b5"/>
      <path id="Path_13667" data-name="Path 13667" d="M212.905,459.858c-.275.737-.184,1.57,1.463,1.823s3.849.206,4.05-.872-3.167-1.584-3.737-1.584S213.158,459.163,212.905,459.858Z" transform="translate(-186.288 -427.005)" fill="#391105"/>
      <path id="Path_13668" data-name="Path 13668" d="M155.457,432.671c-.786,1.27-.063,2.978,1.71,4.124a29.458,29.458,0,0,0,14.2,4.245.674.674,0,0,0,.256-1.141s-5.224.1-11.218-6.021C158.487,431.918,156.282,431.34,155.457,432.671Z" transform="translate(-144.492 -407.23)" fill="#094fe9"/>
      <rect id="Rectangle_25107" data-name="Rectangle 25107" width="9.546" height="0.412" transform="translate(19.925 24.382) rotate(180)" fill="#e6e6e6"/>
      <rect id="Rectangle_25108" data-name="Rectangle 25108" width="12.953" height="0.412" transform="translate(28.35 24.382) rotate(180)" fill="#f2f2f2"/>
      <path id="Path_13669" data-name="Path 13669" d="M176.012,386.59l12.705.047.3.137-2.939,11.605-12.708-.047Z" transform="translate(-157.709 -374.341)" fill="#f2f2f2"/>
      <ellipse id="Ellipse_452" data-name="Ellipse 452" cx="1.224" cy="0.976" rx="1.224" ry="0.976" transform="translate(23.026 19.285) rotate(-74.75)" fill="#ccc"/>
      <path id="Path_13670" data-name="Path 13670" d="M175.526,386.727l-.3-.137L172.29,398.2l.3.137Z" transform="translate(-156.926 -374.341)" fill="#ccc"/>
      <path id="Path_13671" data-name="Path 13671" d="M167.544,364.51a6.771,6.771,0,0,1-1.606,2.7s-.231.676.649,1.163a1.335,1.335,0,0,0,1.479.107,3.97,3.97,0,0,1,.649-1.925C169.4,365.354,167.544,364.51,167.544,364.51Z" transform="translate(-152.301 -358.332)" fill="#ffa361"/>
      <path id="Path_13672" data-name="Path 13672" d="M189.825,351.66c0,.129-.041,2.474-.682,3.162s-.643-3.068-.643-3.068Z" transform="translate(-168.679 -349.015)" fill="#944913"/>
      <path id="Path_13673" data-name="Path 13673" d="M176.621,351.626c-.5,1.526-1.974,5.174-3.868,4.759-1.3-.275-2.246-3.195-1.886-4.424s.275-3.415,3.382-2.8C176.745,349.655,176.9,350.79,176.621,351.626Z" transform="translate(-155.838 -347.125)" fill="#ffb884"/>
      <path id="Path_13674" data-name="Path 13674" d="M169.891,350.2a4.735,4.735,0,0,1,.407-1.812c.03-.154.049-.253.049-.275s2.876,1.155,2.076,1.628a1.68,1.68,0,0,0-.588.825,7.006,7.006,0,0,0-.371,1.2.275.275,0,0,1-.256-.143,1.68,1.68,0,0,0,0-.566.687.687,0,0,0-.275-.374.39.39,0,0,0-.14-.049.379.379,0,0,0-.165.019c-.225.074-.423.341-.429.825v.088a1.143,1.143,0,0,0,.132.517,1.672,1.672,0,0,1-.393.382A18.707,18.707,0,0,1,169.891,350.2Z" transform="translate(-155.176 -346.44)" fill="#603813"/>
      <path id="Path_13675" data-name="Path 13675" d="M174.8,346.266a1.3,1.3,0,0,0,.641-.423,4.2,4.2,0,0,1-3.247-.6c-.9-.586-1.1-.825-.649-2.406.371-1.279,3.385-.841,4.674.1S178.707,346.684,174.8,346.266Z" transform="translate(-156.216 -342.04)" fill="#66340b"/>
      <path id="Path_13676" data-name="Path 13676" d="M133.86,379.805c-1.221-1.2-3.431.327-4.905,2.2s-3.024,3.024-4.435,7.762c-.319,1.081.621,1.743,2.714,2.01,0,0,2.543-3.662,5.111-7.041C134.7,381.653,134.28,380.22,133.86,379.805Z" transform="translate(-122.246 -369.113)" fill="#28e35a"/>
      <path id="Path_13677" data-name="Path 13677" d="M126.688,411.17a63.544,63.544,0,0,0,8.966,3.412l-.162,1a31.256,31.256,0,0,1-10.052-1.218C124.161,413.969,124.843,411.866,126.688,411.17Z" transform="translate(-122.481 -392.163)" fill="#28e35a"/>
      <rect id="Rectangle_25109" data-name="Rectangle 25109" width="11.355" height="70.474" transform="translate(0 34.709)" fill="#537edf"/>
      <rect id="Rectangle_25110" data-name="Rectangle 25110" width="11.355" height="5.474" transform="translate(0 41.695)" fill="#8fb9de"/>
      <rect id="Rectangle_25111" data-name="Rectangle 25111" width="11.355" height="5.474" transform="translate(0 91.691)" fill="#8fb9de"/>
      <rect id="Rectangle_25112" data-name="Rectangle 25112" width="52.515" height="70.474" transform="translate(9.832 34.709)" fill="#5e93eb"/>
      <path id="Path_13678" data-name="Path 13678" d="M213.031,504.075v41.808a6.148,6.148,0,0,0-6.145,6.148.572.572,0,0,0,0,.069H176.865a.568.568,0,0,0,0-.069,6.148,6.148,0,0,0-6.145-6.148V504.075a6.145,6.145,0,0,0,6.145-6.145h30.021a6.145,6.145,0,0,0,6.145,6.145Z" transform="translate(-155.788 -455.069)" fill="#537edf"/>
      <text id="LAW" transform="translate(18.6 73.641)" fill="#9fcdf7" font-size="18" font-family="Impact"><tspan x="0" y="0" letter-spacing="0.02em">L</tspan><tspan y="0" letter-spacing="-0.02em">A</tspan><tspan y="0">W</tspan></text>
    </g>
    <g id="Layer_7" data-name="Layer 7" transform="translate(1555.136 660.274)">
      <path id="Path_13679" data-name="Path 13679" d="M934.885,293.959s.22,14.512-1.413,16.521c-.616.756-.481,4.207,3.005,1.622,0,0,3.822-2.8.058-18.6Z" transform="translate(-886.753 -287.077)" fill="#ffb884"/>
      <path id="Path_13680" data-name="Path 13680" d="M884.633,356.553c-4.328,3.071-9.486,5.669-18.589,4.9-2.376-.2-2.791-.94-2.848-1.826s1.5-2.474,3.409-2.84,10.871-1.573,15.493-2.689c.762-.184,2.054-1.5,3.107-.39S886.484,355.241,884.633,356.553Z" transform="translate(-836.004 -330.411)" fill="#ffb884"/>
      <path id="Path_13681" data-name="Path 13681" d="M835.316,357.825c-.66,3.055-2.241,7.368-5.95,7.424-3.3.058-5.774-4.072-7.286-7.619a11.273,11.273,0,0,1,6.692-2A11.554,11.554,0,0,1,835.316,357.825Z" transform="translate(-806.193 -332.123)" fill="#ffb884"/>
      <path id="Path_13682" data-name="Path 13682" d="M782.277,463.169s2-11.141,1.727-17.069c-.044-.957.478-3.91-3.349-1.526,0,0-1.562,4.072-.231,18.949Z" transform="translate(-775.601 -395.956)" fill="#ffb884"/>
      <path id="Path_13683" data-name="Path 13683" d="M781.168,396.326a48.209,48.209,0,0,1,5.392-19.749c1.171-2.252,3.112-2.414,3.959-2s.72,3.044.044,5-4.4,11.35-5.845,16.205c-.236.8.355,2.2-1.226,2.584S781.019,398.737,781.168,396.326Z" transform="translate(-776.518 -345.733)" fill="#ffb884"/>
      <path id="Path_13684" data-name="Path 13684" d="M824.741,461.895a2.608,2.608,0,0,0,0-2.7c-1.834-2.749-5.051-11.292-4.908-17.03.2-7.932,6.6-39.361.247-49.87-5.059-8.378-2.667-13.67-1.776-18.551a37.812,37.812,0,0,0,.638-4.823c.225-4.1-.14-5.774-2.936-8.078-.426-.352-.907-.718-1.452-1.1a.292.292,0,0,0-.456.179c-.6,2.923-.992,5.9-4.526,5.958-3.189.055-4.847-2.475-6.324-5.848a.291.291,0,0,0-.432-.124c-.894.6-1.773,1.072-2.518,1.672-1.32,1.056-2.23,2.474-2.1,5.639a54.789,54.789,0,0,0,.753,6.931c1.158,6.923,3.415,11.666-.877,18.35-6.346,9.879-.049,39.823-.1,50.865-.033,6.874-2.249,13.173-3.049,16.359-.459,1.826.294,2.18.294,2.18Z" transform="translate(-786.4 -335.068)" fill="#e5f5ff"/>
      <path id="Path_13685" data-name="Path 13685" d="M841.364,335.375s-.792,4.055.231,6.384c0,0-.25,1.435-2.3,1.446s-2.5-.915-2.749-1.248a8.064,8.064,0,0,0,.715-4.072C837.21,335.073,841.364,335.375,841.364,335.375Z" transform="translate(-816.685 -317.432)" fill="#ffa361"/>
      <path id="Path_13686" data-name="Path 13686" d="M825.291,303.5c5.474,0,7.525-3.214,7.916-6.082a4.553,4.553,0,0,0-1.867-4.325c-.85-2.519-2.75-4.845-5.774-4.845s-4.913,2.326-5.774,4.845a5.189,5.189,0,0,0-1.7,4.548C818.5,300.51,819.816,303.5,825.291,303.5Z" transform="translate(-803.267 -283.271)" fill="#603813"/>
      <path id="Path_13687" data-name="Path 13687" d="M837.527,302.866c-.305-9.2-7.594-5.8-7.594-5.8-2.934,2.282-2.2,7.949-1.1,10.3C832.935,316.162,837.637,306.129,837.527,302.866Z" transform="translate(-810.39 -289.217)" fill="#ffb884"/>
      <path id="Path_13688" data-name="Path 13688" d="M831.825,294.5s-1.133,4.949-5.045,5.54c0,0-1.375-7.561,5.282-7.1s5.084,7.1,5.084,7.1S833.547,299.2,831.825,294.5Z" transform="translate(-809.516 -286.655)" fill="#754c24"/>
      <path id="Path_13689" data-name="Path 13689" d="M833.775,512.9c-.19,1.628-.456,3.247-.77,4.861s-.671,3.214-1.1,4.806-.88,3.17-1.4,4.735c-.275.781-.55,1.562-.825,2.334s-.616,1.534-.946,2.293a36.032,36.032,0,0,1-2.293,4.435,21.88,21.88,0,0,1-3.088,4.006,9.733,9.733,0,0,1-4.413,2.667,7.026,7.026,0,0,1-2.6.173,6.859,6.859,0,0,1-2.4-.764,9.094,9.094,0,0,0,4.658-.476,11.432,11.432,0,0,0,3.761-2.6,20.54,20.54,0,0,0,2.92-3.731,41.56,41.56,0,0,0,2.3-4.234c.687-1.463,1.312-2.961,1.9-4.473s1.1-3.055,1.622-4.6Q832.606,517.673,833.775,512.9Z" transform="translate(-800.292 -446.154)" fill="#c4eaff"/>
      <path id="Path_13690" data-name="Path 13690" d="M835.354,582.85c-.231,1.65-.533,3.263-.871,4.883q-.256,1.213-.533,2.422c-.192.806-.4,1.608-.608,2.409a70.284,70.284,0,0,1-3.14,9.466,32.138,32.138,0,0,1-2.307,4.523,14.257,14.257,0,0,1-1.581,2.109A6.629,6.629,0,0,1,824,610.369a3.742,3.742,0,0,1-1.619.259,3.679,3.679,0,0,1-1.553-.492,6.008,6.008,0,0,1-1.958-2.035,10.925,10.925,0,0,1-1.081-2.356,13.63,13.63,0,0,1-.575-2.474c.256.341.476.693.712,1.037s.456.687.7,1.015a17.837,17.837,0,0,0,1.454,1.878,5.612,5.612,0,0,0,1.611,1.323,2.2,2.2,0,0,0,.8.2,2.141,2.141,0,0,0,.792-.159,5.049,5.049,0,0,0,1.619-1.215,14.545,14.545,0,0,0,1.4-1.826,34.816,34.816,0,0,0,2.285-4.207c1.375-2.934,2.527-6,3.637-9.09S834.344,586,835.354,582.85Z" transform="translate(-802.662 -496.872)" fill="#c4eaff"/>
      <path id="Path_13691" data-name="Path 13691" d="M833.134,662.91a30.57,30.57,0,0,1-.668,3.324c-.275,1.1-.608,2.2-.973,3.269a27.273,27.273,0,0,1-2.978,6.222,12.159,12.159,0,0,1-2.395,2.7,6.532,6.532,0,0,1-1.65.987,4.658,4.658,0,0,1-1.982.352,4.75,4.75,0,0,1-1.911-.531,5.9,5.9,0,0,1-1.493-1.1,8.918,8.918,0,0,1-1.925-2.925,23.391,23.391,0,0,0,2.623,2.043,4.949,4.949,0,0,0,2.722.888,4.4,4.4,0,0,0,2.535-1.048,11.93,11.93,0,0,0,2.123-2.29,37.459,37.459,0,0,0,3.274-5.711C831.413,667.073,832.285,665.008,833.134,662.91Z" transform="translate(-802.626 -554.92)" fill="#c4eaff"/>
      <path id="Path_13692" data-name="Path 13692" d="M817.21,406.965s1.339.894,8.477.894,7.212-1.339,7.212-1.339-1.188,3.495-6.766,3.495S817.952,407.636,817.21,406.965Z" transform="translate(-802.662 -369.023)" fill="#c4eaff"/>
      <path id="Path_13693" data-name="Path 13693" d="M783.928,515.7a8.761,8.761,0,0,1,.187,2.829c-.206,1.138-.459,1.875-.473,2.3s-1.056-.55-.566-2.447A17.787,17.787,0,0,1,783.928,515.7Z" transform="translate(-777.819 -448.184)" fill="#f8a163"/>
      <path id="Path_13694" data-name="Path 13694" d="M801.489,579.892l-.759,7.534c-1.375-2.354-17.575-53.964-16.651-54.247l1.152-.349Z" transform="translate(-778.614 -460.605)" fill="#fecd1a"/>
      <path id="Path_13695" data-name="Path 13695" d="M781.135,534.13l16.651,54.244-4.834-5.829L779.98,534.479Z" transform="translate(-775.669 -461.547)" fill="#f7931e"/>
      <path id="Path_13696" data-name="Path 13696" d="M771.225,494.51l-1.345.41,2.563,10.816,2.689-.822Z" transform="translate(-768.346 -432.82)" fill="#f7931e"/>
      <path id="Path_13697" data-name="Path 13697" d="M769.361,490.087a1.768,1.768,0,1,1-2.2-1.174A1.768,1.768,0,0,1,769.361,490.087Z" transform="translate(-765.462 -428.708)" fill="#fecd1a"/>
      <path id="Path_13698" data-name="Path 13698" d="M774.132,528.4l-8.839,2.7a1.356,1.356,0,1,0,.789,2.593,1.572,1.572,0,0,0,.825-1.925,1.556,1.556,0,0,0-.08-.2l6.283-1.925a1.1,1.1,0,0,0,.044.206,1.579,1.579,0,0,0,1.762,1.133,1.357,1.357,0,1,0-.792-2.6Z" transform="translate(-764.3 -457.337)" fill="#fecd1a"/>
      <path id="Path_13699" data-name="Path 13699" d="M774.354,507.342s0,3.616-1.185,5.271-2.323,1.787-2.447,1.65.47-.825-.091-.663-.731-.484-.55-.9-.874.256-.66-.863-.825.157-.531-1.265,3.7-1.5,3.932-3.143S774.354,507.342,774.354,507.342Z" transform="translate(-767.59 -441.639)" fill="#fab683"/>
      <path id="Path_13700" data-name="Path 13700" d="M937.916,279.373a8.181,8.181,0,0,0-.495-2.617c-.456-.984-.855-1.6-.968-1.98s-.825.753.058,2.356A16.6,16.6,0,0,0,937.916,279.373Z" transform="translate(-888.846 -273.448)" fill="#f8a163"/>
      <path id="Path_13701" data-name="Path 13701" d="M932.263,270.14h0c-.577,0-1.017,1.015-.979,2.2l.742,23.442h.473l.745-23.442C933.28,271.155,932.854,270.14,932.263,270.14Z" transform="translate(-885.371 -270.14)" fill="#405380"/>
      <path id="Path_13702" data-name="Path 13702" d="M839.931,418.538l-.3.184L827.47,367.695v51.951h-.308V367.695l-12.15,51.027-.3-.184,12.48-52.383c.038-.162.113-.223.132-.225s.091.063.132.225Z" transform="translate(-800.85 -339.593)" fill="#6a89d4"/>
      <path id="Path_13703" data-name="Path 13703" d="M988.491,431.8l-.3.187-12.155-51.03v51.965h-.3V380.953l-12.155,51.03-.305-.187,12.477-52.391c.041-.165.115-.223.132-.226s.094.061.132.226Z" transform="translate(-908.564 -349.2)" fill="#6a89d4"/>
      <path id="Path_13704" data-name="Path 13704" d="M894.656,357.192a1.229,1.229,0,0,0-1.375,1.048,1.1,1.1,0,0,0,.275.825l-.242-.06c-.239-.058-.476-.126-.709-.192a22.821,22.821,0,0,1-2.75-.973,25.133,25.133,0,0,1-2.576-1.265c-.2-.121-.412-.236-.613-.36l-.619-.377-.319-.193-.325-.187c-.212-.126-.434-.242-.652-.363a29.786,29.786,0,0,0-5.581-2.288c-.973-.275-1.963-.517-2.961-.712s-2.013-.316-3.024-.421a27.589,27.589,0,0,0-3.055-.118,30.274,30.274,0,0,0-3.041.181,29.9,29.9,0,0,0-5.895,1.273c-.237.08-.476.157-.707.242l-.352.126-.346.135-.676.261c-.22.088-.445.162-.668.245a23.856,23.856,0,0,1-2.75.795,23.066,23.066,0,0,1-2.87.478c-.242.022-.487.05-.729.063h-.151a1.1,1.1,0,0,0,.4-.748,1.295,1.295,0,0,0-2.565-.228,1.141,1.141,0,0,0,.506,1.031h0a1.376,1.376,0,0,0,.522.223h0a1.364,1.364,0,0,0,.148.022h.08c.107.014.212.022.319.03l.374.028.377.016c.25,0,.5.017.753.019a21.634,21.634,0,0,0,3.024-.2,22.405,22.405,0,0,0,2.953-.608c.239-.071.484-.129.718-.209l.7-.225.344-.107.344-.1c.228-.069.459-.132.69-.2a33.011,33.011,0,0,1,5.664-1c.96-.077,1.925-.118,2.884-.118s1.925.049,2.89.129,1.925.209,2.868.379,1.889.379,2.818.624a33.2,33.2,0,0,1,5.4,1.98c.217.1.434.206.646.313l.322.162.316.165.654.344c.217.118.448.223.674.333a22.351,22.351,0,0,0,2.782,1.136,21.941,21.941,0,0,0,2.931.726c.247.038.495.082.745.113l.371.049.374.038c.129,0,.258.025.385.03l.1.014a1.185,1.185,0,0,0,.17,0,1.29,1.29,0,0,0,.525-.121,1.138,1.138,0,0,0,.69-.929,1.232,1.232,0,0,0-1.188-1.279Z" transform="translate(-826.277 -329.17)" fill="#405380"/>
      <path id="Path_13705" data-name="Path 13705" d="M933.033,358.516c0-.385-.509-.7-1.133-.7s-1.13.311-1.13.7.506,1.765,1.13,1.765S933.033,358.9,933.033,358.516Z" transform="translate(-885 -333.713)" fill="#405380"/>
      <path id="Path_13706" data-name="Path 13706" d="M807.2,556.32c0,13.354,29.348,13.354,29.348,0Z" transform="translate(-795.405 -477.636)" fill="#fec147"/>
      <rect id="Rectangle_25113" data-name="Rectangle 25113" width="17.082" height="9.692" transform="translate(63.807 72.676)" fill="#c76428"/>
      <rect id="Rectangle_25114" data-name="Rectangle 25114" width="17.61" height="2.241" transform="translate(81.153 73.292) rotate(180)" fill="#f79723"/>
      <rect id="Rectangle_25115" data-name="Rectangle 25115" width="3.533" height="2.241" transform="translate(76.017 71.051)" fill="#e77325"/>
      <rect id="Rectangle_25116" data-name="Rectangle 25116" width="2.329" height="2.241" transform="translate(65.495 71.051)" fill="#fbbf48"/>
      <rect id="Rectangle_25117" data-name="Rectangle 25117" width="17.61" height="2.241" transform="translate(81.153 75.756) rotate(180)" fill="#f79723"/>
      <rect id="Rectangle_25118" data-name="Rectangle 25118" width="3.533" height="2.241" transform="translate(76.017 73.515)" fill="#e77325"/>
      <rect id="Rectangle_25119" data-name="Rectangle 25119" width="2.329" height="2.241" transform="translate(65.495 73.515)" fill="#fbbf48"/>
      <rect id="Rectangle_25120" data-name="Rectangle 25120" width="17.61" height="2.241" transform="translate(81.153 78.219) rotate(180)" fill="#f79723"/>
      <rect id="Rectangle_25121" data-name="Rectangle 25121" width="3.533" height="2.241" transform="translate(76.017 75.978)" fill="#e77325"/>
      <rect id="Rectangle_25122" data-name="Rectangle 25122" width="2.329" height="2.241" transform="translate(65.495 75.978)" fill="#fbbf48"/>
      <rect id="Rectangle_25123" data-name="Rectangle 25123" width="17.61" height="2.241" transform="translate(81.153 80.68) rotate(180)" fill="#f79723"/>
      <rect id="Rectangle_25124" data-name="Rectangle 25124" width="3.533" height="2.241" transform="translate(76.017 78.442)" fill="#e77325"/>
      <rect id="Rectangle_25125" data-name="Rectangle 25125" width="2.329" height="2.241" transform="translate(65.495 78.442)" fill="#fbbf48"/>
      <rect id="Rectangle_25126" data-name="Rectangle 25126" width="17.61" height="2.241" transform="translate(81.153 83.143) rotate(180)" fill="#f79723"/>
      <rect id="Rectangle_25127" data-name="Rectangle 25127" width="3.533" height="2.241" transform="translate(76.017 80.905)" fill="#e77325"/>
      <rect id="Rectangle_25128" data-name="Rectangle 25128" width="2.329" height="2.241" transform="translate(65.495 80.905)" fill="#fbbf48"/>
      <rect id="Rectangle_25129" data-name="Rectangle 25129" width="17.082" height="9.692" transform="translate(54.585 76.482)" fill="#c76428"/>
      <rect id="Rectangle_25130" data-name="Rectangle 25130" width="17.61" height="2.241" transform="translate(71.931 77.097) rotate(180)" fill="#f79723"/>
      <rect id="Rectangle_25131" data-name="Rectangle 25131" width="5.136" height="2.241" transform="translate(66.793 74.857)" fill="#e77325"/>
      <rect id="Rectangle_25132" data-name="Rectangle 25132" width="2.329" height="2.241" transform="translate(56.27 74.857)" fill="#fbbf48"/>
      <rect id="Rectangle_25133" data-name="Rectangle 25133" width="17.61" height="2.241" transform="translate(71.931 79.561) rotate(180)" fill="#f79723"/>
      <rect id="Rectangle_25134" data-name="Rectangle 25134" width="5.136" height="2.241" transform="translate(66.793 77.32)" fill="#e77325"/>
      <rect id="Rectangle_25135" data-name="Rectangle 25135" width="2.329" height="2.241" transform="translate(56.27 77.32)" fill="#fbbf48"/>
      <rect id="Rectangle_25136" data-name="Rectangle 25136" width="17.61" height="2.241" transform="translate(71.931 82.024) rotate(180)" fill="#f79723"/>
      <rect id="Rectangle_25137" data-name="Rectangle 25137" width="5.136" height="2.241" transform="translate(66.793 79.784)" fill="#e77325"/>
      <rect id="Rectangle_25138" data-name="Rectangle 25138" width="2.329" height="2.241" transform="translate(56.27 79.784)" fill="#fbbf48"/>
      <rect id="Rectangle_25139" data-name="Rectangle 25139" width="17.61" height="2.241" transform="translate(71.931 84.488) rotate(180)" fill="#f79723"/>
      <rect id="Rectangle_25140" data-name="Rectangle 25140" width="5.136" height="2.241" transform="translate(66.793 82.247)" fill="#e77325"/>
      <rect id="Rectangle_25141" data-name="Rectangle 25141" width="2.329" height="2.241" transform="translate(56.27 82.247)" fill="#fbbf48"/>
      <rect id="Rectangle_25142" data-name="Rectangle 25142" width="17.61" height="2.241" transform="translate(71.931 86.951) rotate(180)" fill="#f79723"/>
      <rect id="Rectangle_25143" data-name="Rectangle 25143" width="5.136" height="2.241" transform="translate(66.793 84.711)" fill="#e77325"/>
      <rect id="Rectangle_25144" data-name="Rectangle 25144" width="2.329" height="2.241" transform="translate(56.27 84.711)" fill="#fbbf48"/>
      <path id="Path_13707" data-name="Path 13707" d="M985.108,569.6c0,13.354-29.348,13.354-29.348,0Z" transform="translate(-903.119 -487.265)" fill="#fec147"/>
      <path id="Path_13708" data-name="Path 13708" d="M930.679,281.515A7.568,7.568,0,0,0,928.672,278c-1.457-1.229-2.529-1.081-2.609-.918s.621.643.074.624-.55.61-.275.946-.855-.025-.4.94-.784.049-.184,1.273,3.712.5,4.311,1.938S930.679,281.515,930.679,281.515Z" transform="translate(-880.897 -275.092)" fill="#fab683"/>
      <path id="Path_13709" data-name="Path 13709" d="M895.22,656.675v20.547H868.826l-.289-.566c-3.365-6.615-3.363-13.156,0-19.436l.291-.55Z" transform="translate(-838.048 -550.395)" fill="#ff6766"/>
      <path id="Path_13710" data-name="Path 13710" d="M976.014,675.385a23.979,23.979,0,0,0,1.586,3.541H943.232c-3.176-6.241-3.264-12.4,0-18.476H977.6a19.733,19.733,0,0,0-1.581,3.239c-.052.138-.1.275-.151.421a16.218,16.218,0,0,0-.786,3.338c-.019.143-.033.275-.047.421a15.942,15.942,0,0,0,.016,3.338q.022.214.05.421a18.333,18.333,0,0,0,.773,3.338C975.914,675.1,975.964,675.248,976.014,675.385Z" transform="translate(-892.284 -553.136)" fill="url(#linear-gradient)"/>
      <path id="Path_13711" data-name="Path 13711" d="M977.034,677.222H939.916l-.275-.566c-3.368-6.618-3.365-13.156,0-19.436l.294-.55h37.118v2.07h-35.88c-2.7,5.367-2.694,10.745,0,16.406h35.861Z" transform="translate(-889.601 -550.395)" fill="#db504f"/>
      <path id="Path_13712" data-name="Path 13712" d="M990.885,672.23c-.052.138-.1.275-.151.421h-29.2a.215.215,0,0,1-.212-.212.212.212,0,0,1,.212-.209Z" transform="translate(-907.15 -561.677)" fill="#cce7fc"/>
      <path id="Path_13713" data-name="Path 13713" d="M987.656,685.9c-.019.143-.033.275-.047.421h-29.24a.209.209,0,0,1-.209-.209.212.212,0,0,1,.209-.212Z" transform="translate(-904.859 -571.589)" fill="#cce7fc"/>
      <path id="Path_13714" data-name="Path 13714" d="M987.675,699.991H958.369a.209.209,0,0,1-.209-.209.212.212,0,0,1,.209-.212h29.257Q987.648,699.784,987.675,699.991Z" transform="translate(-904.859 -581.5)" fill="#cce7fc"/>
      <path id="Path_13715" data-name="Path 13715" d="M990.879,713.661H961.532a.212.212,0,0,1-.212-.209.214.214,0,0,1,.212-.212h29.207C990.78,713.38,990.83,713.523,990.879,713.661Z" transform="translate(-907.15 -591.412)" fill="#cce7fc"/>
    </g>
    <g id="Layer_6" data-name="Layer 6" transform="translate(1575.166 712.078)">
      <path id="Path_13716" data-name="Path 13716" d="M956.979,648.079s.154,1.553.14,2.109h-2.78v-.074a.305.305,0,0,1,.256-.305c.679-.1,1.16-.965,1.394-2.079Z" transform="translate(-922.119 -595.718)" fill="#391105"/>
      <path id="Path_13717" data-name="Path 13717" d="M934.839,648.079s.154,1.553.14,2.109H931.13v-.074a.3.3,0,0,1,.256-.305,2.8,2.8,0,0,0,2.461-2.079Z" transform="translate(-905.291 -595.718)" fill="#391105"/>
      <path id="Path_13718" data-name="Path 13718" d="M943.992,533.2s-1.7,6.964,1.482,18.853a2.534,2.534,0,0,0,3.728-.25s.709-6.076,1-8.218c.5-3.737,2.431-5.939.789-7.242l-5.922-5.128Z" transform="translate(-914.287 -511.234)" fill="#0c7275"/>
      <path id="Path_13719" data-name="Path 13719" d="M950.44,603.3s1.424,8.2,2.348,12.012l1.559.36c-.025-4.314,1.49-8.6-.14-12.342C953.068,601.8,951.694,602.152,950.44,603.3Z" transform="translate(-919.292 -562.784)" fill="#0c7275"/>
      <path id="Path_13720" data-name="Path 13720" d="M936.364,542.084s-1.226,9.458-.231,16.1c1.155,1.056,2.343,1.424,3.61.291,0,0,1.009-5.656,1.7-7.7s2.433-9.186.916-10.635Z" transform="translate(-908.636 -517.709)" fill="#20989e"/>
      <path id="Path_13721" data-name="Path 13721" d="M937.09,602.691s.181,8.523.715,12.392l1.512.514c.412-4.295,2.169-8.732,1.4-12.276C939.741,601.676,938.457,601.673,937.09,602.691Z" transform="translate(-909.612 -562.556)" fill="#20989e"/>
      <path id="Path_13722" data-name="Path 13722" d="M887.861,531.456a5.462,5.462,0,0,0-2.021-1.221c-.97-.22-1.355-.11-1.347.055,0,.223.844.168.88.371s-1.394.093-1.312.434c.066.275,1.034-.052,1.05.187s-.993.08-.918.385,1-.025,1.026.159-.668.206-.646.385c.014.1.657.159,1.441.016S887.932,531.8,887.861,531.456Z" transform="translate(-871.161 -510.438)" fill="#ffb884"/>
      <path id="Path_13723" data-name="Path 13723" d="M892.569,528.982a5.061,5.061,0,0,1-.55-1.79.055.055,0,0,0-.1-.03,1.374,1.374,0,0,0-.08,1.322C892.206,529.436,892.569,528.982,892.569,528.982Z" transform="translate(-876.708 -508.283)" fill="#ffb884"/>
      <path id="Path_13724" data-name="Path 13724" d="M928.6,483.428c1.65-.049,2.2,2.475,2,4.751-.2,2.329.162,4.1-1.925,8.345-.478.968-1.573.825-3.217-.357,0,0,.6-4.229,1-8.276C926.8,484.181,928.031,483.447,928.6,483.428Z" transform="translate(-901.18 -476.589)" fill="#1fad45"/>
      <path id="Path_13725" data-name="Path 13725" d="M905.182,522.33a54.6,54.6,0,0,1-9.032,2.9l.085.962a41.852,41.852,0,0,0,10.319-.825C907.808,525.1,906.914,523.125,905.182,522.33Z" transform="translate(-879.929 -504.796)" fill="#1fad45"/>
      <path id="Path_13726" data-name="Path 13726" d="M922.74,472.88a6.158,6.158,0,0,0,2.059,2.035s.363.55-.308,1.188-1.1.476-1.292.44a3.66,3.66,0,0,0-1.028-1.562C921.28,474.07,922.74,472.88,922.74,472.88Z" transform="translate(-898.586 -468.942)" fill="#ffa361"/>
      <path id="Path_13727" data-name="Path 13727" d="M904.918,463.8c.8,1.243,2.967,4.154,4.561,3.341,1.1-.55,1.256-3.374.649-4.385s-1.05-2.978-3.668-1.71C904.354,462.063,904.472,463.113,904.918,463.8Z" transform="translate(-886.093 -460.06)" fill="#ffb884"/>
      <path id="Path_13728" data-name="Path 13728" d="M907.376,462.921c.214,1.1,1.078,1.771,1.317,1.573a3.709,3.709,0,0,0,1.21-1.5s-.484-.173-.687-1.149-1-2.788-2-3.184a2.516,2.516,0,0,0-1.556.049c-.451.159-1.174.773-1.556.866-.115.028-.223.049-.319.063-.415.049-.649-.069-.509-.55a1.94,1.94,0,0,0,.066,2.593,2.793,2.793,0,0,1,1.031-.4c.907-.157,1.174.454,1.443,1.413.2.693.55.756.715.74a.343.343,0,0,0,.107-.025.84.84,0,0,1-.1-.121,1.066,1.066,0,0,1-.126-.564c0-.2,0-.316.107-.412a.294.294,0,0,1,.113-.08C906.889,462.14,907.266,462.324,907.376,462.921Z" transform="translate(-884.762 -458.557)" fill="#523010"/>
      <path id="Path_13729" data-name="Path 13729" d="M843.477,502.5a9.714,9.714,0,1,1,12.961-10.756,4.124,4.124,0,0,0,2.626,3.17l2.156.8-1.988,5.331-2.153-.8a4.154,4.154,0,0,0-4.069.687A9.711,9.711,0,0,1,843.477,502.5Z" transform="translate(-837.151 -476.772)" fill="#f8e52d"/>
      <path id="Path_13730" data-name="Path 13730" d="M931.072,534.78a1.3,1.3,0,0,1,.663,1.842c-.558,1.388-1.375,1.941-1.966,1.762S931.072,534.78,931.072,534.78Z" transform="translate(-904.221 -513.823)" fill="#0d6ab2"/>
      <path id="Path_13731" data-name="Path 13731" d="M864.95,510.679a9.6,9.6,0,0,0-3.319-.088,5.945,5.945,0,0,1-2.524-.082,1.266,1.266,0,0,1-.929-.993,1.732,1.732,0,0,1,.786-1.5,2.574,2.574,0,0,1,1.053-.3,2.681,2.681,0,0,1-.478-1.232,1.21,1.21,0,0,1,.55-1.18,1.922,1.922,0,0,1,.6-.253,1.471,1.471,0,0,1-.338-1.048c.113-.514.657-.888,1.454-1a3.33,3.33,0,0,1,3.365,1.562c1.529,2.824,9.021,6.439,9.1,6.475l-.149.311c-.313-.148-7.668-3.7-9.252-6.623a2.966,2.966,0,0,0-3.024-1.375c-.641.091-1.1.368-1.166.734a1.324,1.324,0,0,0,.368.913,5.426,5.426,0,0,1,3.775,1.457c.492.533.355.891.228,1.056-.168.22-.55.4-1.457-.022a8.471,8.471,0,0,1-2.686-2.12,1.578,1.578,0,0,0-.643.231.877.877,0,0,0-.4.863,2.475,2.475,0,0,0,.533,1.223c1.067-.063,2.323.093,2.62.5.077.1.209.388-.236.729a1.279,1.279,0,0,1-1.353.06,3.388,3.388,0,0,1-1.19-.937,2.582,2.582,0,0,0-1.1.275,1.4,1.4,0,0,0-.638,1.171c.038.313.275.55.707.712a5.853,5.853,0,0,0,2.37.063,9.847,9.847,0,0,1,3.44.1c2.562.671,8.82,2.551,8.883,2.571l-.1.33C873.759,513.217,867.507,511.339,864.95,510.679Zm-1.188-3.5c.522.242.913.275,1.039.124s-.071-.462-.209-.613a5.163,5.163,0,0,0-3.242-1.347,8.362,8.362,0,0,0,2.411,1.826Zm-2.175,1.485a.987.987,0,0,0,1-.019c.085-.066.217-.184.168-.253-.19-.275-1.158-.39-2.059-.374a2.969,2.969,0,0,0,.888.635Z" transform="translate(-852.391 -490.761)" fill="#0d6ab2"/>
      <path id="Path_13732" data-name="Path 13732" d="M915.354,530.277c.335-.569,2.538-6.049,1.977-6.623a.733.733,0,0,0-.918-.206.507.507,0,0,1-.313,0,.316.316,0,0,1-.157-.124c-.132-.209-.022-.566-.762-.7a1.347,1.347,0,0,0-.756.025c-.154.055-.206.094-.388-.132l-.041-.047c-.363-.432-1.21-1.292-1.633-.616-1.515,2.42-2.664,6.819-2.089,7.033.437.162.55-.1.825-.168a.549.549,0,0,1,.305,0,.5.5,0,0,1,.154.071c.275.19.014.55.737.825a.907.907,0,0,0,.96-.107.416.416,0,0,1,.352-.017.572.572,0,0,1,.115.058c.316.206.159.624.462.825S915.018,530.848,915.354,530.277Z" transform="translate(-890.059 -504.266)" fill="#2387c8"/>
      <path id="Path_13733" data-name="Path 13733" d="M914.1,531.062a38.413,38.413,0,0,1,2.876-6.153c-.154.055-.206.094-.388-.132l-.041-.047a40.01,40.01,0,0,0-2.906,6.25.548.548,0,0,1,.305,0A.5.5,0,0,1,914.1,531.062Z" transform="translate(-892.61 -506.536)" fill="#0d6ab2"/>
      <path id="Path_13734" data-name="Path 13734" d="M921.832,534.048a.568.568,0,0,1,.116.058,21.234,21.234,0,0,1,2.7-6.112.508.508,0,0,1-.313,0,.315.315,0,0,1-.157-.124,21.715,21.715,0,0,0-2.7,6.2A.415.415,0,0,1,921.832,534.048Z" transform="translate(-898.294 -508.813)" fill="#0d6ab2"/>
      <path id="Path_13735" data-name="Path 13735" d="M924.887,479.684c1.82-.69,4.028.066,7.555,6.049,3.211,5.447,3.962,14.66,3.962,14.66a45.365,45.365,0,0,1-10.585-.041s.063-6.373-2.2-10.745C921.486,485.469,921.307,481.042,924.887,479.684Z" transform="translate(-898.737 -473.722)" fill="#24cc51"/>
      <path id="Path_13736" data-name="Path 13736" d="M913.441,490.185c1.608.319,1.452,2.978.935,5.224a18.408,18.408,0,0,1-3.72,7.679c-1.479.825-1.806.333-3.145-1.182a20.647,20.647,0,0,0,2.749-7.336C910.864,490.883,912.885,490.075,913.441,490.185Z" transform="translate(-888.165 -481.482)" fill="#28e35a"/>
      <path id="Path_13737" data-name="Path 13737" d="M875.146,543.185a5.492,5.492,0,0,0-2.285-.6c-.993.063-1.333.275-1.276.434.072.206.855-.08.949.107s-1.314.481-1.136.784c.138.236.976-.341,1.059-.115s-.929.357-.77.627.954-.305,1.028-.135-.583.388-.511.55c.044.094.674-.033,1.375-.393S875.311,543.5,875.146,543.185Z" transform="translate(-861.971 -519.481)" fill="#ffb884"/>
      <path id="Path_13738" data-name="Path 13738" d="M878.658,540.314a5.139,5.139,0,0,1-1.037-1.556.055.055,0,0,0-.107,0,1.374,1.374,0,0,0,.3,1.289C878.436,540.852,878.658,540.314,878.658,540.314Z" transform="translate(-866.38 -516.676)" fill="#ffb884"/>
      <path id="Path_13739" data-name="Path 13739" d="M890.97,527.32a59.461,59.461,0,0,1-8.069,4.4l.275.924a26.168,26.168,0,0,0,9.453-2.551C893.862,529.415,892.826,527.741,890.97,527.32Z" transform="translate(-870.322 -508.414)" fill="#28e35a"/>
    </g>
    <g id="Layer_3" data-name="Layer 3" transform="translate(1436.973 619.219)">
      <rect id="Rectangle_25145" data-name="Rectangle 25145" width="119.134" height="169.572" rx="23.34" transform="translate(0 0.003)" fill="#dbf8ff"/>
      <path id="Path_13740" data-name="Path 13740" d="M447.247,120.82h-106.3a6.417,6.417,0,0,0-6.417,6.42V283.975a6.417,6.417,0,0,0,6.417,6.417h106.3a6.42,6.42,0,0,0,6.42-6.417V127.24a6.42,6.42,0,0,0-6.42-6.42Zm5.32,163.155a5.323,5.323,0,0,1-5.32,5.317h-106.3a5.323,5.323,0,0,1-5.317-5.317V127.24a5.326,5.326,0,0,1,5.317-5.32h106.3a5.326,5.326,0,0,1,5.32,5.32Z" transform="translate(-334.53 -120.82)" fill="#fff"/>
      <rect id="Rectangle_25146" data-name="Rectangle 25146" width="109.508" height="143.098" transform="translate(4.814 13.239)" fill="#8fb9de"/>
      <path id="Path_13741" data-name="Path 13741" d="M537.955,705.29a5.015,5.015,0,1,1,5.015-5.015A5.015,5.015,0,0,1,537.955,705.29Zm0-9.227a4.212,4.212,0,1,0,4.212,4.212A4.212,4.212,0,0,0,537.955,696.063Z" transform="translate(-478.388 -537.32)" fill="#fec147"/>
      <path id="Path_13742" data-name="Path 13742" d="M548.592,140.731a1.578,1.578,0,1,1-.462-1.119A1.581,1.581,0,0,1,548.592,140.731Z" transform="translate(-487.444 -134.11)" fill="#8fb9de"/>
      <rect id="Rectangle_25147" data-name="Rectangle 25147" width="101.084" height="139.994" transform="translate(9.026 14.792)" fill="#fff"/>
      <rect id="Rectangle_25148" data-name="Rectangle 25148" width="71.802" height="6.819" transform="translate(23.667 23.431)" fill="#8fb9de"/>
      <rect id="Rectangle_25149" data-name="Rectangle 25149" width="4.457" height="4.333" transform="translate(18.694 38.556)" fill="#b0dbfc"/>
      <rect id="Rectangle_25150" data-name="Rectangle 25150" width="68.998" height="2.947" transform="translate(31.443 38.556)" fill="#c5e3fc"/>
      <rect id="Rectangle_25151" data-name="Rectangle 25151" width="68.998" height="2.947" transform="translate(31.443 47.659)" fill="#c5e3fc"/>
      <rect id="Rectangle_25152" data-name="Rectangle 25152" width="4.457" height="4.333" transform="translate(18.694 56.76)" fill="#b0dbfc"/>
      <rect id="Rectangle_25153" data-name="Rectangle 25153" width="68.998" height="2.947" transform="translate(31.443 56.76)" fill="#c5e3fc"/>
      <rect id="Rectangle_25154" data-name="Rectangle 25154" width="68.998" height="2.947" transform="translate(31.443 65.863)" fill="#c5e3fc"/>
      <rect id="Rectangle_25155" data-name="Rectangle 25155" width="4.457" height="4.333" transform="translate(18.694 74.964)" fill="#b0dbfc"/>
      <rect id="Rectangle_25156" data-name="Rectangle 25156" width="68.998" height="2.947" transform="translate(31.443 74.964)" fill="#c5e3fc"/>
      <rect id="Rectangle_25157" data-name="Rectangle 25157" width="68.998" height="2.947" transform="translate(31.443 84.067)" fill="#c5e3fc"/>
      <rect id="Rectangle_25158" data-name="Rectangle 25158" width="4.457" height="4.333" transform="translate(18.694 93.168)" fill="#b0dbfc"/>
      <rect id="Rectangle_25159" data-name="Rectangle 25159" width="68.998" height="2.947" transform="translate(31.443 93.168)" fill="#c5e3fc"/>
      <rect id="Rectangle_25160" data-name="Rectangle 25160" width="68.998" height="2.947" transform="translate(31.443 102.271)" fill="#c5e3fc"/>
      <rect id="Rectangle_25161" data-name="Rectangle 25161" width="4.457" height="4.333" transform="translate(18.694 111.372)" fill="#b0dbfc"/>
      <rect id="Rectangle_25162" data-name="Rectangle 25162" width="68.998" height="2.947" transform="translate(31.443 111.372)" fill="#c5e3fc"/>
      <rect id="Rectangle_25163" data-name="Rectangle 25163" width="68.998" height="2.947" transform="translate(31.443 120.476)" fill="#c5e3fc"/>
      <rect id="Rectangle_25164" data-name="Rectangle 25164" width="41.451" height="0.536" transform="translate(20.698 146.554)" fill="#c5e3fc"/>
      <path id="Path_13743" data-name="Path 13743" d="M427.619,598.446c-1.433,0-3.473-2.01-5.034-7.7-1.54-5.62,1.938-11.979,2.087-12.246a.4.4,0,1,1,.7.388c-.036.063-3.47,6.346-2.015,11.647,1.54,5.614,3.418,7.091,4.251,7.1a10.767,10.767,0,0,0,1-3.594c-.723-3.668-.55-9.013.19-9.9a.58.58,0,0,1,.624-.209c.415.127.693.624.7,2.634a42.911,42.911,0,0,1-.308,4.674c-.113.992-.247,1.949-.4,2.818a8.457,8.457,0,0,0,.643,2.018c.308.619.649.935,1.012.946.412-.388.99-3.024,1.339-4.611.69-3.132.916-4.025,1.578-3.948.528.066.753.806,1.331,2.934.319,1.182.907,3.357,1.325,3.646.6-.55.825-3.255.943-4.889.154-1.958.22-2.439.509-2.664a.462.462,0,0,1,.366-.094c.489.08.536.654.671,2.354.11,1.375.313,3.932.918,4.286.03.019.085.052.231,0a3.534,3.534,0,0,0,1.573-2.026c-.313-1.078-.462-3.1.14-3.5a.55.55,0,0,1,.676.066c.509.445.434,1.534.344,2.147a7.7,7.7,0,0,1-.313,1.3,1.721,1.721,0,0,0,.14.294.415.415,0,0,0,.159.17c.311-.022.459-.344.7-1.023a2.616,2.616,0,0,1,1.21-1.7,5.9,5.9,0,0,1,3.539-.476.4.4,0,0,1-.146.789,5.088,5.088,0,0,0-3.057.415c-.4.187-.591.7-.789,1.251-.253.7-.55,1.482-1.4,1.548a.866.866,0,0,1-.748-.338,3.85,3.85,0,0,1-1.7,1.82,1.015,1.015,0,0,1-.968-.025c-.825-.487-1.078-2.178-1.268-4.383-.209,2.642-.445,4.707-1.248,5.337a.731.731,0,0,1-.7.14c-.759-.253-1.215-1.762-1.881-4.215-.184-.682-.418-1.545-.6-2.04-.225.66-.517,1.985-.745,3.024-.764,3.489-1.179,5.037-1.925,5.224H431.2c-.5.041-1.226-.154-1.831-1.314a6.19,6.19,0,0,1-.3-.7.716.716,0,0,1-.039.165c-.473,2.007-.863,2.439-1.309,2.474Zm1.614-13.324a25,25,0,0,0-.206,5.92A27.844,27.844,0,0,0,429.233,585.122Z" transform="translate(-398.09 -452.513)" fill="#8fb9de"/>
      <path id="Path_13744" data-name="Path 13744" d="M612.094,139.343v1.215a1.226,1.226,0,0,1-1.226,1.226H559.28a4.056,4.056,0,0,0,1-5.865h48.39a3.42,3.42,0,0,1,3.426,3.423Z" transform="translate(-497.486 -131.768)" fill="#edfcff"/>
      <path id="Path_13745" data-name="Path 13745" d="M403.841,141.785H352.269a1.229,1.229,0,0,1-1.229-1.226v-1.215a3.42,3.42,0,0,1,3.423-3.423h48.39a4.058,4.058,0,0,0,1,5.865Z" transform="translate(-346.501 -131.768)" fill="#edfcff"/>
    </g>
    <g id="Layer_8" data-name="Layer 8" transform="translate(1414.274 656.818)">
      <path id="Path_13746" data-name="Path 13746" d="M297.657,438.82H296.4L273.66,516.1h1.257Z" transform="translate(-267.696 -388.987)" fill="#077177"/>
      <path id="Path_13747" data-name="Path 13747" d="M357.77,438.82h1.257L381.764,516.1h-1.254Z" transform="translate(-328.681 -388.987)" fill="#077177"/>
      <rect id="Rectangle_25165" data-name="Rectangle 25165" width="6.351" height="0.72" transform="translate(13.47 82.868)" fill="#0c91a1"/>
      <path id="Path_13748" data-name="Path 13748" d="M293.805,546.6s-.613,1.834-.745,2.508l4.647,1.056.019-.091a.377.377,0,0,0-.225-.44,3.472,3.472,0,0,1-2.4-3.184Z" transform="translate(-281.763 -467.024)" fill="#052839"/>
      <path id="Path_13749" data-name="Path 13749" d="M311.865,544.55s-1.067,1.617-1.375,2.233L314.708,549l.044-.082a.382.382,0,0,0-.1-.484,3.463,3.463,0,0,1-1.5-3.7Z" transform="translate(-294.4 -465.647)" fill="#052839"/>
      <path id="Path_13750" data-name="Path 13750" d="M297.786,422.86s2.365,10.772,3.547,18.817c-.932,1.614-2.145,2.442-3.965,1.556,0,0-3.181-6.6-4.449-8.892-2.219-3.984-3.36-6.846-2.156-9.043Z" transform="translate(-279.744 -377.415)" fill="#610707"/>
      <path id="Path_13751" data-name="Path 13751" d="M317.7,488.6s-1.479,11.146-2.777,15.694l-2.048-.434c.275-5.224-.525-10.671.6-14.847C314.9,487.216,316.293,487.147,317.7,488.6Z" transform="translate(-296.115 -424.342)" fill="#610707"/>
      <path id="Path_13752" data-name="Path 13752" d="M286.895,422.94s.58,11.014.437,19.144c-1.182,1.441-2.513,2.059-4.165.891,0,0-2.062-7.039-2.945-9.5-1.54-4.292-2.2-7.3-.654-9.274Z" transform="translate(-271.341 -377.473)" fill="#850808"/>
      <path id="Path_13753" data-name="Path 13753" d="M297.956,490.126s-.993,11.259-2.076,15.862l-2.065-.346c.027-5.224-1.017-10.66-.094-14.9C295.064,488.9,296.477,488.721,297.956,490.126Z" transform="translate(-281.965 -425.514)" fill="#850808"/>
      <path id="Path_13754" data-name="Path 13754" d="M346.272,434.295c.247.124.731.616.492.88-.022.027-.071-.1-.212-.047-.432.176-.275.954-.434.954s-.275-.434-.275-.872a1.829,1.829,0,0,1,.1-.825.22.22,0,0,1,.327-.091Z" transform="translate(-320.025 -385.677)" fill="#ffb884"/>
      <rect id="Rectangle_25166" data-name="Rectangle 25166" width="7.176" height="1.086" transform="translate(22.939 49.652)" fill="#0c91a1"/>
      <path id="Path_13755" data-name="Path 13755" d="M344.42,430.8a1.22,1.22,0,0,0,.729,1.1,1.039,1.039,0,0,1,.638,1.375c-.2.327-.17.374-.093.434s.275-.017.357-.124c0,0-.077.275.093.311s.357-.275.4-.341c0,0-.093.2.03.231s.327-.294.374-.465c0,0-.094.275,0,.311s.324-.11.324-.885a1.71,1.71,0,0,0-1.3-1.85,1.8,1.8,0,0,1-1.229-.55Z" transform="translate(-319.001 -382.845)" fill="#ffb884"/>
      <path id="Path_13756" data-name="Path 13756" d="M314.446,396.069s4.281,6.67,7.272,9.766l-.751.852a37.37,37.37,0,0,1-8.905-7.286C311.066,398.269,312.254,395.627,314.446,396.069Z" transform="translate(-295.282 -357.954)" fill="#e65a15"/>
      <path id="Path_13757" data-name="Path 13757" d="M288.828,344.97c-3.574-2.249-10.123,6.258-10.448,22.257,0,0,6.744,4.49,11.548,1.85a42.252,42.252,0,0,1,1.331-11.968C292.815,350.441,290.28,345.883,288.828,344.97Z" transform="translate(-271.119 -320.681)" fill="#fe8245"/>
      <path id="Path_13758" data-name="Path 13758" d="M398.687,291.622a13.25,13.25,0,1,1-.55-4.779A13.25,13.25,0,0,1,398.687,291.622Z" transform="translate(-339.156 -271.999)" fill="#fff"/>
      <rect id="Rectangle_25167" data-name="Rectangle 25167" width="7.226" height="7.028" transform="translate(40.01 14.396)" fill="#b0dbfc"/>
      <path id="Path_13759" data-name="Path 13759" d="M460.922,311.56a13.2,13.2,0,0,1,.55,4.779H458.81V311.56Z" transform="translate(-401.94 -296.716)" fill="#c5e3fc"/>
      <rect id="Rectangle_25168" data-name="Rectangle 25168" width="1.529" height="11.762" transform="matrix(0.799, 0.601, -0.601, 0.799, 37.525, 29.158)" fill="#2970b5"/>
      <path id="Path_13760" data-name="Path 13760" d="M349.042,394.837l-1.963,2.609-2.689,3.574-1.474,1.958a.55.55,0,0,1-.77.107l-1.067-.8a.55.55,0,0,1-.11-.77l1.465-1.952,2.312-3.063.165-.22.335-.445,1.853-2.474a.55.55,0,0,1,.685-.157.379.379,0,0,1,.085.049l1.07.806a.39.39,0,0,1,.069.066A.55.55,0,0,1,349.042,394.837Z" transform="translate(-316.42 -355.87)" fill="#225b91"/>
      <g id="Group_13336" data-name="Group 13336" transform="translate(27.615 0)" opacity="0.5">
        <circle id="Ellipse_453" data-name="Ellipse 453" cx="13.233" cy="13.233" r="13.233" transform="translate(0 18.715) rotate(-45)" fill="#cff0ff"/>
        <path id="Path_13761" data-name="Path 13761" d="M385.359,303.842a13.3,13.3,0,1,1,10.66-5.309l-.055-.041.055.041A13.351,13.351,0,0,1,385.359,303.842Zm.058-26.472a4.385,4.385,0,1,1,0,.005Z" transform="translate(-366.673 -271.83)"/>
      </g>
      <path id="Path_13762" data-name="Path 13762" d="M415.915,339.626a9.755,9.755,0,0,1-12.485,2.695c3.742.8,8.463-.55,12.326-3.9a18.622,18.622,0,0,0,1.628-1.595A9.75,9.75,0,0,1,415.915,339.626Z" transform="translate(-361.787 -315.038)" fill="#fff"/>
      <path id="Path_13763" data-name="Path 13763" d="M391.728,277.123a14.116,14.116,0,1,0,2.8,19.766,14.116,14.116,0,0,0-2.8-19.766Zm-16.117,21.446a9.071,9.071,0,1,0,0-.011Z" transform="translate(-336.915 -269.691)" fill="#2667a6"/>
      <path id="Path_13764" data-name="Path 13764" d="M348.523,407.616a12.969,12.969,0,0,0-1.925-.808.052.052,0,0,1,0-.1l.115-.049.225-.3a.342.342,0,0,0-.1-.069c-.473-.212-1.636.789-1.812,1.07s-.762.212-.762.212-.22.918.132.9a1.133,1.133,0,0,1,.665.39,4.69,4.69,0,0,0,.734.566,4.77,4.77,0,0,0,1.02.448c.245.049.764.1.778,0,.03-.236-.855-.379-.773-.481s1.086.159,1.229-.019-.784-.478-.685-.6.951.371,1.072.11-.753-.676-.635-.8,1.133.324,1.262.055C349.089,408.036,348.718,407.737,348.523,407.616Z" transform="translate(-318.837 -365.382)" fill="#ffb884"/>
      <path id="Path_13765" data-name="Path 13765" d="M302.78,402.86a70.012,70.012,0,0,0,10.6,2.131v1.136a37.393,37.393,0,0,1-11.5.432C300.388,406.363,300.844,403.976,302.78,402.86Z" transform="translate(-287.515 -362.914)" fill="#fe9463"/>
      <path id="Path_13766" data-name="Path 13766" d="M294,357.179c-1.925-.044-2.563,2.92-2.315,5.6.25,2.749-.107,4.806,2.359,9.794.643,1.3,1.859.951,3.78-.448,0,0-.748-4.971-1.248-9.725C296.115,358.045,294.664,357.192,294,357.179Z" transform="translate(-280.729 -329.792)" fill="#fe9463"/>
      <rect id="Rectangle_25169" data-name="Rectangle 25169" width="6.351" height="0.72" transform="translate(2.961 118.468)" fill="#0c91a1"/>
      <rect id="Rectangle_25170" data-name="Rectangle 25170" width="6.351" height="0.72" transform="translate(5.59 109.568)" fill="#0c91a1"/>
      <rect id="Rectangle_25171" data-name="Rectangle 25171" width="6.351" height="0.72" transform="translate(8.215 100.668)" fill="#0c91a1"/>
      <rect id="Rectangle_25172" data-name="Rectangle 25172" width="6.351" height="0.72" transform="translate(10.844 91.768)" fill="#0c91a1"/>
      <rect id="Rectangle_25173" data-name="Rectangle 25173" width="6.351" height="0.72" transform="translate(16.095 73.968)" fill="#0c91a1"/>
      <rect id="Rectangle_25174" data-name="Rectangle 25174" width="6.351" height="0.72" transform="translate(18.724 65.071)" fill="#0c91a1"/>
      <rect id="Rectangle_25175" data-name="Rectangle 25175" width="6.351" height="0.72" transform="translate(36.012 91.768)" fill="#0c91a1"/>
      <path id="Path_13767" data-name="Path 13767" d="M275.964,438.82h-1.256L251.97,516.1h1.254Z" transform="translate(-251.97 -388.987)" fill="#0ca5b5"/>
      <path id="Path_13768" data-name="Path 13768" d="M336.07,438.82h1.257L360.067,516.1h-1.257Z" transform="translate(-312.947 -388.987)" fill="#0ca5b5"/>
      <path id="Path_13769" data-name="Path 13769" d="M309.837,335.12a7.922,7.922,0,0,1-1.966,3.159s-.275.8.742,1.394a1.581,1.581,0,0,0,1.746.162,4.663,4.663,0,0,1,.825-2.263C312.033,336.167,309.837,335.12,309.837,335.12Z" transform="translate(-292.477 -313.798)" fill="#ffa361"/>
      <path id="Path_13770" data-name="Path 13770" d="M319.963,319.183c-.182,1.905-.949,6.538-3.261,6.549-1.586,0-3.451-3.132-3.352-4.658s-.55-4.047,3.206-4.143C319.575,316.854,320.061,318.138,319.963,319.183Z" transform="translate(-296.471 -300.608)" fill="#ffb884"/>
      <path id="Path_13771" data-name="Path 13771" d="M315.035,307.242a6.917,6.917,0,0,0-1.573-1.691c-.239-.275-.509-.566-.825-.872l-.594.319a3.584,3.584,0,0,1,.225.338,4.227,4.227,0,0,1,.55,1.375,3.574,3.574,0,0,0-1.1-.916,3.824,3.824,0,0,0-1.424-.481l-.355.462a3.849,3.849,0,0,1,1.158,1.1,4.924,4.924,0,0,0-2.656.03l-.2.608a3.009,3.009,0,0,1,.839.275,1.394,1.394,0,0,1,.429.346,1.765,1.765,0,0,0-.467-.157,3.829,3.829,0,0,0-1.468.049l-.44,1.375a3.123,3.123,0,0,1,.784,1.012s-.157.088-.371-.126a1.375,1.375,0,0,0,.027,1.677c.674.877,1.1,1.245,1,2.475a1.292,1.292,0,0,0,.8-.808,1.825,1.825,0,0,0-.063-1.031c-.176-.723.074-1.122.407-1.171a.41.41,0,0,1,.165.022c.165.05.247.173.382.382a1.314,1.314,0,0,1,.231.674.8.8,0,0,1-.025.184.336.336,0,0,0,.129-.041c.193-.088.517-.374.275-1.229-.333-1.177-.1-1.941.745-2.315a4.745,4.745,0,0,1,2.458-.124,3.009,3.009,0,0,1,.649.2,1.359,1.359,0,0,1,.616.566.55.55,0,0,1,.113.448A3.222,3.222,0,0,0,315.035,307.242Z" transform="translate(-291.964 -291.728)" fill="#ab5712"/>
    </g>
    <g id="Layer_10" data-name="Layer 10" transform="translate(1403.362 771.36)">
      <path id="Path_13772" data-name="Path 13772" d="M249.274,713.08v14.443H214.26l-.2-.4a14.043,14.043,0,0,1,0-13.659l.206-.385Z" transform="translate(-212.284 -702.382)" fill="#e67117"/>
      <path id="Path_13773" data-name="Path 13773" d="M216.846,727.124l.2.4H214.3l-.2-.4a14.043,14.043,0,0,1,0-13.659l.206-.385h2.749l-.206.385A14.043,14.043,0,0,0,216.846,727.124Z" transform="translate(-212.313 -702.382)" fill="#fec147"/>
      <path id="Path_13774" data-name="Path 13774" d="M316.626,727.124l.2.4H314.08l-.2-.4a14.043,14.043,0,0,1,0-13.659l.206-.385h2.75l-.206.385A14.107,14.107,0,0,0,316.626,727.124Z" transform="translate(-284.659 -702.382)" fill="#fec147"/>
      <path id="Path_13775" data-name="Path 13775" d="M361.231,726.227a17.019,17.019,0,0,0,1.113,2.488h-35.93a13.268,13.268,0,0,1,0-12.986h35.93a13.858,13.858,0,0,0-1.1,2.274l-.107.3a11.647,11.647,0,0,0-.55,2.345l-.033.3a11.332,11.332,0,0,0,.014,2.345,1.363,1.363,0,0,0,.033.3,12.955,12.955,0,0,0,.55,2.345A1.624,1.624,0,0,0,361.231,726.227Z" transform="translate(-293.804 -704.303)" fill="#badcfc"/>
      <path id="Path_13776" data-name="Path 13776" d="M361.93,727.523H324.061l-.2-.4a14.034,14.034,0,0,1,0-13.662l.206-.382H361.93v1.454h-36.98a12.391,12.391,0,0,0,0,11.531h36.98Z" transform="translate(-291.897 -702.382)" fill="#fe971a"/>
      <path id="Path_13777" data-name="Path 13777" d="M371.691,724l-.107.3h-32.3a.148.148,0,1,1,0-.3Z" transform="translate(-304.261 -710.299)" fill="#74bffc"/>
      <path id="Path_13778" data-name="Path 13778" d="M369.421,733.61l-.033.3h-32.32a.148.148,0,0,1,0-.3Z" transform="translate(-302.652 -717.267)" fill="#74bffc"/>
      <path id="Path_13779" data-name="Path 13779" d="M369.435,743.517H337.068a.148.148,0,0,1,0-.3H369.4Q369.413,743.369,369.435,743.517Z" transform="translate(-302.652 -724.235)" fill="#74bffc"/>
      <path id="Path_13780" data-name="Path 13780" d="M371.688,753.127h-32.4a.148.148,0,1,1,0-.3h32.3Q371.633,752.978,371.688,753.127Z" transform="translate(-304.261 -731.203)" fill="#74bffc"/>
      <path id="Path_13781" data-name="Path 13781" d="M266.966,674.17v10.7H241.022l-.148-.294a10.4,10.4,0,0,1,0-10.121l.151-.275Z" transform="translate(-232.06 -674.17)" fill="#22b573"/>
      <path id="Path_13782" data-name="Path 13782" d="M242.919,684.586l.148.294h-2.046l-.148-.294a10.4,10.4,0,0,1,0-10.121l.151-.275h2.046l-.154.275A10.4,10.4,0,0,0,242.919,684.586Z" transform="translate(-232.06 -674.185)" fill="#fec147"/>
      <path id="Path_13783" data-name="Path 13783" d="M316.846,684.586l.151.294h-2.046l-.148-.294a10.4,10.4,0,0,1,0-10.121l.154-.275H317l-.154.275A10.4,10.4,0,0,0,316.846,684.586Z" transform="translate(-285.663 -674.185)" fill="#fec147"/>
      <path id="Path_13784" data-name="Path 13784" d="M349.173,683.9a12.764,12.764,0,0,0,.825,1.845h-25.87a9.845,9.845,0,0,1,0-9.623H350a10.343,10.343,0,0,0-.825,1.685c-.027.071-.052.146-.08.217a8.637,8.637,0,0,0-.41,1.74l-.025.22a8.342,8.342,0,0,0,0,1.738,1.422,1.422,0,0,0,.025.217,9.7,9.7,0,0,0,.4,1.74Z" transform="translate(-292.466 -675.584)" fill="#badcfc"/>
      <path id="Path_13785" data-name="Path 13785" d="M349.679,684.89h-27.3l-.151-.294a10.4,10.4,0,0,1,0-10.121l.154-.275h27.294v1.078H323.034a9.18,9.18,0,0,0,0,8.545h26.639Z" transform="translate(-291.046 -674.192)" fill="#22b573"/>
      <path id="Path_13786" data-name="Path 13786" d="M356.954,682.26c-.028.071-.052.146-.08.217H333.71a.11.11,0,0,1-.11-.11.107.107,0,0,1,.11-.107Z" transform="translate(-300.245 -680.036)" fill="#74bffc"/>
      <path id="Path_13787" data-name="Path 13787" d="M355.232,689.38l-.025.22h-23.2a.11.11,0,1,1,0-.22Z" transform="translate(-299.012 -685.198)" fill="#74bffc"/>
      <path id="Path_13788" data-name="Path 13788" d="M355.243,696.717H332.01a.107.107,0,0,1-.11-.107.11.11,0,0,1,.11-.11h23.208C355.224,696.574,355.232,696.637,355.243,696.717Z" transform="translate(-299.012 -690.36)" fill="#74bffc"/>
      <path id="Path_13789" data-name="Path 13789" d="M356.951,703.837H333.71a.11.11,0,0,1-.11-.11.107.107,0,0,1,.11-.107h23.181Z" transform="translate(-300.245 -695.523)" fill="#74bffc"/>
      <path id="Path_13790" data-name="Path 13790" d="M360.5,707.5H354.01a.11.11,0,0,1-.11-.11h0a.11.11,0,0,1,.11-.11H360.5a.11.11,0,0,1,.11.11h0A.11.11,0,0,1,360.5,707.5Z" transform="translate(-314.963 -698.177)" fill="#74bffc"/>
      <path id="Path_13791" data-name="Path 13791" d="M355,707.57s1.1.514,1.215,1.4h5.774a2.308,2.308,0,0,0-1.127-1.4Z" transform="translate(-315.761 -698.387)" fill="#c5e3fc"/>
    </g>
    <g id="Layer_5" data-name="Layer 5" transform="translate(1486.895 697.083)">
      <path id="Path_13792" data-name="Path 13792" d="M598.014,422.285c.924,2.364,3.594,8,6.547,7.168,2.026-.569,3.258-5.257,2.576-7.165s-.762-5.37-5.6-4.124C597.648,419.176,597.5,420.987,598.014,422.285Z" transform="translate(-575.339 -414.083)" fill="#ffb884"/>
      <path id="Path_13793" data-name="Path 13793" d="M686.6,769.557s.275,2.771.247,3.764H681.9v-.132a.55.55,0,0,1,.459-.55c1.21-.187,2.07-1.721,2.474-3.709Z" transform="translate(-636.314 -668.599)" fill="#391105"/>
      <path id="Path_13794" data-name="Path 13794" d="M625.887,441.78s1.056,3.945,2.5,5.3c0,0-.118.3-1.578.935s-2.106.825-2.378.671a8.206,8.206,0,0,0-.7-3.849C622.844,442.833,625.887,441.78,625.887,441.78Z" transform="translate(-594.021 -431.398)" fill="#ffa361"/>
      <path id="Path_13795" data-name="Path 13795" d="M605.592,407.557c-.55-.377-1.292.1-1.292.1a1.875,1.875,0,0,0-.894-2.263c-1.435-.885-2.376,1.072-2.376,1.072a3.006,3.006,0,0,0-2.167-2.428c-.85-.159-1.625.654-2.3,2.109a9.473,9.473,0,0,0-.6,1.548,4.3,4.3,0,0,0,.55,2.953,4.265,4.265,0,0,1,2.65-.129,3.354,3.354,0,0,1,1.889,2.628,2.085,2.085,0,0,0,.808,1.5.47.47,0,0,0,.137.072,1.36,1.36,0,0,1-.1-.223,1.478,1.478,0,0,1-.088-.748.6.6,0,0,1,.228-.451.222.222,0,0,1,.126-.025c.311.055.789.533,1.045,1.391s-.162.764.151,1.757a1.587,1.587,0,0,0,.181.39,2.293,2.293,0,0,0,1.273.866,3.074,3.074,0,0,0,2.167-1.688,1.86,1.86,0,0,1-.652-1.287c-.137-.652.173-2.705.209-4.325C606.909,407.879,606.048,407.879,605.592,407.557Z" transform="translate(-573.943 -404.018)" fill="#603813"/>
      <path id="Path_13796" data-name="Path 13796" d="M613.056,769.557s.275,2.771.247,3.764H606.43v-.132a.55.55,0,0,1,.459-.55,5.02,5.02,0,0,0,4.4-3.709Z" transform="translate(-581.594 -668.599)" fill="#391105"/>
      <path id="Path_13797" data-name="Path 13797" d="M639.058,570.267s-1.342,12.733,7.2,32.955c2.431,1.375,4.787,1.133,6.535-1.347,0,0-.225-10.921-.239-14.776-.027-6.731,2.854-11.091-.366-13l-11.718-7.63Z" transform="translate(-605.195 -521.805)" fill="#094fe9"/>
      <path id="Path_13798" data-name="Path 13798" d="M664.94,692.337s4.515,14.162,7.072,20.673l2.843.256c-1.1-7.624.55-15.565-3.244-21.787C669.218,689.041,666.881,690,664.94,692.337Z" transform="translate(-624.017 -611.409)" fill="#094fe9"/>
      <path id="Path_13799" data-name="Path 13799" d="M622.884,581.576s-3.176,16.719-2.1,28.66c1.944,2,4.025,2.777,6.4.891,0,0,2.389-9.97,3.83-13.544s5.293-16.112,2.749-18.853Z" transform="translate(-591.843 -530.694)" fill="#1d76ff"/>
      <path id="Path_13800" data-name="Path 13800" d="M620.662,688.286s-.564,15.18-.022,22.152l2.645,1.078c1.182-7.61,4.779-15.336,3.778-21.721C625.49,686.754,623.2,686.606,620.662,688.286Z" transform="translate(-591.727 -609.351)" fill="#1d76ff"/>
      <path id="Path_13801" data-name="Path 13801" d="M639.621,468.388c1.21-2.67,5.68-1.581,9.186.522,3.574,2.147,6.706,2.972,11.842,9.673,1.174,1.531.077,3.17-3.1,4.878,0,0-6.3-4.295-12.477-8.111C639.4,471.853,639.189,469.307,639.621,468.388Z" transform="translate(-605.555 -449.546)" fill="#ed1d6c"/>
      <path id="Path_13802" data-name="Path 13802" d="M669.757,505.6s-6.4,8.331-11.427,12.5l.987,1.413a75.111,75.111,0,0,0,15.268-10.4C676.267,507.57,673.136,505.307,669.757,505.6Z" transform="translate(-619.224 -477.653)" fill="#ed1d6c"/>
      <path id="Path_13803" data-name="Path 13803" d="M522.5,599a.66.66,0,1,0-.94-.4l-5.458,3.063a24.45,24.45,0,0,0,4.567-5.224l4-1.507,1.8,3.368-3.481,2.488a24.349,24.349,0,0,0-6.874.877l5.584-2.824A.66.66,0,0,0,522.5,599Z" transform="translate(-516.1 -542.44)" fill="#fe971a"/>
      <path id="Path_13804" data-name="Path 13804" d="M575.172,512.624q-1.375.685-2.749,1.355-12.529,6.175-25.366,11.908-1.13-1.925-2.106-3.951,11.924-7.457,24.022-14.426,1.322-.762,2.656-1.523,10.582-6.032,21.317-11.677l3.8,7.121Q586.082,507.2,575.172,512.624Z" transform="translate(-537.018 -469.485)" fill="#002942"/>
      <path id="Path_13805" data-name="Path 13805" d="M758.319,458.2a2.461,2.461,0,0,1,.168.322c.049.1.091.2.129.3a5.639,5.639,0,0,1,.206.608,4.721,4.721,0,0,1,.179,1.251,4.22,4.22,0,0,1-.693,2.345,6.415,6.415,0,0,1-1.65,1.68,12.614,12.614,0,0,1-2,1.149c-2.771,1.226-5.587,2.255-8.378,3.368s-5.57,2.244-8.262,3.555a32,32,0,0,0-3.9,2.18,10.742,10.742,0,0,0-1.694,1.4,4.551,4.551,0,0,0-.643.825,1.836,1.836,0,0,0-.275.872.49.49,0,0,1-.979-.025.609.609,0,0,1,0-.1v-.014a3.042,3.042,0,0,1,.6-1.179,6.393,6.393,0,0,1,.841-.861,15.558,15.558,0,0,1,1.872-1.342,41.335,41.335,0,0,1,3.987-2.156c1.361-.652,2.749-1.254,4.124-1.839s2.777-1.155,4.171-1.713,2.788-1.125,4.177-1.691,2.782-1.141,4.124-1.79a11.622,11.622,0,0,0,1.872-1.144,5.733,5.733,0,0,0,1.454-1.542,3.352,3.352,0,0,0,.4-.938,2.7,2.7,0,0,0,.047-1,2.828,2.828,0,0,0-.308-.938,2.979,2.979,0,0,0-.275-.415c-.052-.063-.107-.124-.159-.181a.857.857,0,0,0-.159-.135.721.721,0,1,1,.619-1.3.688.688,0,0,1,.3.275Z" transform="translate(-671.568 -442.93)" fill="#408bff"/>
      <path id="Path_13806" data-name="Path 13806" d="M713.548,466.124a276.777,276.777,0,0,0,29.694-17.937,2.931,2.931,0,0,0,.951-3.759l-.025-.047a2.931,2.931,0,0,0-3.651-1.3,276.608,276.608,0,0,0-31.437,14.655Z" transform="translate(-656.021 -432.187)" fill="#003b61"/>
      <path id="Path_13807" data-name="Path 13807" d="M638.52,543.417q-1.375.685-2.749,1.355L632.32,538.3q1.322-.762,2.656-1.523Z" transform="translate(-600.366 -500.278)" fill="#666"/>
      <path id="Path_13808" data-name="Path 13808" d="M622.828,460.42c2.716-.212,8.35,2.42,10.778,14.572,2.213,11.064,3.462,25,3.462,25-8.119.676-13.453.7-18.894-.072,0,0,1.039-14.534-1.65-22.9C613.873,468.726,616.015,460.948,622.828,460.42Z" transform="translate(-588.114 -444.904)" fill="#e974ac"/>
      <path id="Path_13809" data-name="Path 13809" d="M568.52,592.6c0-.39,1.292-.063,2.826-1.1s-.77-1.531-.588-2.059,1.048.179,3.261.253,2.134.4.825,1.586C572.952,592.962,568.492,593.542,568.52,592.6Z" transform="translate(-554.107 -538.316)" fill="#ffa361"/>
      <path id="Path_13810" data-name="Path 13810" d="M618.155,477.5c2.749-.984,4.949,3.233,6.206,7.127a32.846,32.846,0,0,1,1.331,15.174c-.228,1.925-2.474,2.161-5.9,1.064a36.8,36.8,0,0,0-2.524-13.747C614.848,480.927,617.2,477.839,618.155,477.5Z" transform="translate(-588.684 -457.19)" fill="#ed1d6c"/>
      <path id="Path_13811" data-name="Path 13811" d="M601.958,548.814s-6.546,7.5-11.718,11.487l.938,1.446s9.235-3.255,14.99-8.977C607.944,551.008,605.348,548.633,601.958,548.814Z" transform="translate(-569.856 -508.996)" fill="#ed1d6c"/>
    </g>
  </g>
</svg>
