<svg xmlns="http://www.w3.org/2000/svg" width="250.87" height="61.544" viewBox="0 0 250.87 61.544">
  <g id="Group_13421" data-name="Group 13421" transform="translate(8456.58 12051.12)">
    <path id="Path_15870" data-name="Path 15870" d="M232.284,357.932c0-1.558-1.981-2.819-4.424-2.819a7.052,7.052,0,0,0-.788.043c-.233-2.035-2.547-3.636-5.373-3.636a5.951,5.951,0,0,0-4.531,1.834,7.034,7.034,0,0,0-1.813-.236c-2.776,0-5.015,1.565-5.015,3.5s2.253,3.5,5.015,3.5h.423c.459,1.329,2.346,2.321,4.607,2.321a6.994,6.994,0,0,0,2.2-.34,9.045,9.045,0,0,0,2.507.34c2.45,0,4.517-.9,5.169-2.124A2.837,2.837,0,0,0,232.284,357.932Z" transform="translate(-8602.112 -12393.957)" fill="#fff" opacity="0.5"/>
    <path id="Path_15871" data-name="Path 15871" d="M403.638,331.306c-.308-2.26-2.966-4.026-6.2-4.026a6.819,6.819,0,0,0-5.542,2.425,7.756,7.756,0,0,0-3.088,1.433,7.142,7.142,0,0,0-1.551.634H386.9c-2.457,0-4.449,1.157-4.449,2.586,0,1.075,1.125,1.992,2.722,2.386.835,1.762,3.159,3.03,5.9,3.03a8.217,8.217,0,0,0,3-.552,8.544,8.544,0,0,0,5.194-1.63,9.39,9.39,0,0,0,1.77.168c3.142,0,5.685-1.522,5.685-3.4C406.733,333.011,405.476,331.869,403.638,331.306Z" transform="translate(-8712.57 -12378.4)" fill="#fff" opacity="0.5"/>
    <path id="Path_15930" data-name="Path 15930" d="M254.3,405.03S265.723,371,319.828,371,382.4,406.2,382.4,406.2Z" transform="translate(-8630.325 -12406.459)" fill="#d4e16f"/>
    <path id="Path_15931" data-name="Path 15931" d="M43,440.279S53.209,428.1,101.564,428.1s55.927,12.595,55.927,12.595Z" transform="translate(-8494.715 -12443.105)" fill="#edec80"/>
    <path id="Path_15932" data-name="Path 15932" d="M486,425.409s7.591-17.939,43.541-17.939,41.578,18.555,41.578,18.555Z" transform="translate(-8779.028 -12429.865)" fill="#edec80"/>
    <rect id="Rectangle_25511" data-name="Rectangle 25511" width="1.433" height="25.827" transform="translate(-8330.852 -12029.914)" fill="#c1e1f1"/>
    <path id="Path_15933" data-name="Path 15933" d="M380,386.085h-3.876a.494.494,0,0,1-.491-.491h0a.494.494,0,0,1,.491-.494H380a.494.494,0,0,1,.494.494h0A.494.494,0,0,1,380,386.085Z" transform="translate(-8708.193 -12415.509)" fill="#8ba3b0"/>
    <rect id="Rectangle_25512" data-name="Rectangle 25512" width="6.831" height="1.433" rx="0.716" transform="translate(-8333.549 -12031.348)" fill="#c1e1f1"/>
    <rect id="Rectangle_25513" data-name="Rectangle 25513" width="1.433" height="25.827" transform="translate(-8403.833 -12022.749)" fill="#c1e1f1"/>
    <path id="Path_15934" data-name="Path 15934" d="M176.25,406.085h-3.876a.494.494,0,0,1-.494-.491h0a.494.494,0,0,1,.494-.494h3.876a.494.494,0,0,1,.491.494h0A.494.494,0,0,1,176.25,406.085Z" transform="translate(-8577.429 -12428.344)" fill="#8ba3b0"/>
    <path id="Path_15935" data-name="Path 15935" d="M169.631,402.48h5.846a.491.491,0,0,1,.491.491v.448a.491.491,0,0,1-.491.491h-5.846a.494.494,0,0,1-.491-.491v-.448A.494.494,0,0,1,169.631,402.48Z" transform="translate(-8575.671 -12426.662)" fill="#c1e1f1"/>
    <path id="Path_15936" data-name="Path 15936" d="M41.258,439.061s.849-1.7-1.232-4.7a5.015,5.015,0,0,0-5.165-2.235,10.861,10.861,0,0,0,2.93,4.241C39.646,437.739,40.874,437.9,41.258,439.061Z" transform="translate(-8489.491 -12445.63)" fill="#8dc63f"/>
    <path id="Path_15937" data-name="Path 15937" d="M52.871,441.019s-.716-1.433,1.042-3.973a4.241,4.241,0,0,1,4.359-1.888,9.285,9.285,0,0,1-2.472,3.582C54.24,439.912,53.183,440.041,52.871,441.019Z" transform="translate(-8500.958 -12447.589)" fill="#72a433"/>
    <path id="Path_15938" data-name="Path 15938" d="M74.27,434.406a4.793,4.793,0,0,0,.935-4.327A5.864,5.864,0,0,1,76.9,424.24s-1.651,2.9-1.114,5.083.8,3.654.133,5.083Z" transform="translate(-8514.785 -12440.628)" fill="#8dc63f"/>
    <path id="Path_15939" data-name="Path 15939" d="M78,440.241a2.815,2.815,0,0,1,3.12-2.006A2.178,2.178,0,0,1,78,440.241Z" transform="translate(-8517.178 -12449.587)" fill="#72a433"/>
    <path id="Path_15940" data-name="Path 15940" d="M78,429.14a2.062,2.062,0,0,1,2.507-1.075A1.6,1.6,0,0,1,78,429.14Z" transform="translate(-8517.178 -12443.006)" fill="#72a433"/>
    <path id="Path_15941" data-name="Path 15941" d="M72.04,436.39s-1.11-2.167-3.12-1.587C68.92,434.81,69.608,437.608,72.04,436.39Z" transform="translate(-8511.351 -12447.344)" fill="#72a433"/>
    <path id="Path_15942" data-name="Path 15942" d="M76.595,424.519s-.269-1.673-1.719-1.719C74.875,422.8,74.728,424.8,76.595,424.519Z" transform="translate(-8515.171 -12439.704)" fill="#72a433"/>
    <path id="Path_15943" data-name="Path 15943" d="M91.6,439.062s.845-1.7-1.236-4.7a5.015,5.015,0,0,0-5.162-2.235,10.878,10.878,0,0,0,2.927,4.241C89.979,437.74,91.218,437.9,91.6,439.062Z" transform="translate(-8521.799 -12445.631)" fill="#8dc63f"/>
    <path id="Path_15944" data-name="Path 15944" d="M103.2,441.019s-.716-1.433,1.042-3.973a4.241,4.241,0,0,1,4.359-1.888,9.286,9.286,0,0,1-2.472,3.582C104.57,439.912,103.527,440.041,103.2,441.019Z" transform="translate(-8533.26 -12447.589)" fill="#72a433"/>
    <path id="Path_15945" data-name="Path 15945" d="M124.6,434.406a4.793,4.793,0,0,0,.935-4.327,5.871,5.871,0,0,1,1.694-5.839s-1.648,2.9-1.114,5.083.8,3.654.133,5.083Z" transform="translate(-8547.086 -12440.628)" fill="#8dc63f"/>
    <path id="Path_15946" data-name="Path 15946" d="M128.33,440.241a2.817,2.817,0,0,1,3.124-2.006A2.181,2.181,0,0,1,128.33,440.241Z" transform="translate(-8549.479 -12449.587)" fill="#72a433"/>
    <path id="Path_15947" data-name="Path 15947" d="M128.31,429.14a2.059,2.059,0,0,1,2.507-1.075A1.6,1.6,0,0,1,128.31,429.14Z" transform="translate(-8549.467 -12443.006)" fill="#72a433"/>
    <path id="Path_15948" data-name="Path 15948" d="M122.41,436.39s-1.11-2.167-3.12-1.587C119.275,434.81,119.963,437.608,122.41,436.39Z" transform="translate(-8543.677 -12447.344)" fill="#72a433"/>
    <path id="Path_15949" data-name="Path 15949" d="M126.917,424.519s-.269-1.673-1.719-1.719C125.2,422.8,125.054,424.8,126.917,424.519Z" transform="translate(-8547.468 -12439.704)" fill="#72a433"/>
    <path id="Path_15950" data-name="Path 15950" d="M141.928,439.061s.845-1.7-1.232-4.7a5.015,5.015,0,0,0-5.165-2.235,10.861,10.861,0,0,0,2.93,4.241C140.316,437.739,141.544,437.9,141.928,439.061Z" transform="translate(-8554.101 -12445.63)" fill="#8dc63f"/>
    <path id="Path_15951" data-name="Path 15951" d="M153.531,441.019s-.716-1.433,1.042-3.973a4.245,4.245,0,0,1,4.363-1.888,9.313,9.313,0,0,1-2.475,3.582C154.9,439.912,153.857,440.041,153.531,441.019Z" transform="translate(-8565.561 -12447.589)" fill="#72a433"/>
    <path id="Path_15952" data-name="Path 15952" d="M192.258,439.061s.849-1.7-1.232-4.7a5.015,5.015,0,0,0-5.165-2.235,10.861,10.861,0,0,0,2.93,4.241C190.646,437.739,191.874,437.9,192.258,439.061Z" transform="translate(-8586.401 -12445.63)" fill="#8dc63f"/>
    <path id="Path_15953" data-name="Path 15953" d="M203.871,441.019s-.716-1.433,1.042-3.973a4.241,4.241,0,0,1,4.359-1.888,9.285,9.285,0,0,1-2.472,3.582C205.24,439.912,204.183,440.041,203.871,441.019Z" transform="translate(-8597.868 -12447.589)" fill="#72a433"/>
    <path id="Path_15954" data-name="Path 15954" d="M225.27,434.406a4.793,4.793,0,0,0,.935-4.327,5.864,5.864,0,0,1,1.694-5.839s-1.651,2.9-1.114,5.083.8,3.654.133,5.083Z" transform="translate(-8611.694 -12440.628)" fill="#8dc63f"/>
    <path id="Path_15955" data-name="Path 15955" d="M229,440.241a2.815,2.815,0,0,1,3.12-2.006A2.178,2.178,0,0,1,229,440.241Z" transform="translate(-8614.088 -12449.587)" fill="#72a433"/>
    <path id="Path_15956" data-name="Path 15956" d="M229,429.14a2.075,2.075,0,0,1,2.525-1.075A1.625,1.625,0,0,1,229,429.14Z" transform="translate(-8614.088 -12443.006)" fill="#72a433"/>
    <path id="Path_15957" data-name="Path 15957" d="M223.04,436.39s-1.11-2.167-3.12-1.587C219.92,434.81,220.608,437.608,223.04,436.39Z" transform="translate(-8608.261 -12447.344)" fill="#72a433"/>
    <path id="Path_15958" data-name="Path 15958" d="M227.595,424.519s-.269-1.673-1.719-1.719C225.875,422.8,225.728,424.8,227.595,424.519Z" transform="translate(-8612.081 -12439.704)" fill="#72a433"/>
    <path id="Path_15959" data-name="Path 15959" d="M242.6,439.062s.845-1.7-1.236-4.7a5.015,5.015,0,0,0-5.162-2.235,10.878,10.878,0,0,0,2.927,4.241C240.979,437.74,242.218,437.9,242.6,439.062Z" transform="translate(-8618.709 -12445.631)" fill="#8dc63f"/>
    <path id="Path_15960" data-name="Path 15960" d="M254.2,441.019s-.716-1.433,1.042-3.973a4.241,4.241,0,0,1,4.359-1.888,9.285,9.285,0,0,1-2.472,3.582C255.57,439.912,254.527,440.041,254.2,441.019Z" transform="translate(-8630.17 -12447.589)" fill="#72a433"/>
    <path id="Path_15961" data-name="Path 15961" d="M275.6,434.406a4.793,4.793,0,0,0,.935-4.327,5.871,5.871,0,0,1,1.694-5.839s-1.648,2.9-1.114,5.083.8,3.654.133,5.083Z" transform="translate(-8643.995 -12440.628)" fill="#8dc63f"/>
    <path id="Path_15962" data-name="Path 15962" d="M279.33,440.241a2.817,2.817,0,0,1,3.124-2.006A2.181,2.181,0,0,1,279.33,440.241Z" transform="translate(-8646.39 -12449.587)" fill="#72a433"/>
    <path id="Path_15963" data-name="Path 15963" d="M279.31,429.14a2.059,2.059,0,0,1,2.507-1.075A1.6,1.6,0,0,1,279.31,429.14Z" transform="translate(-8646.377 -12443.006)" fill="#72a433"/>
    <path id="Path_15964" data-name="Path 15964" d="M273.41,436.39s-1.11-2.167-3.12-1.587C270.275,434.81,270.963,437.608,273.41,436.39Z" transform="translate(-8640.588 -12447.344)" fill="#72a433"/>
    <path id="Path_15965" data-name="Path 15965" d="M277.917,424.519s-.269-1.673-1.719-1.719C276.2,422.8,276.054,424.8,277.917,424.519Z" transform="translate(-8644.378 -12439.704)" fill="#72a433"/>
    <path id="Path_15966" data-name="Path 15966" d="M292.928,439.061s.845-1.7-1.232-4.7a5.015,5.015,0,0,0-5.165-2.235,10.861,10.861,0,0,0,2.93,4.241C291.316,437.739,292.544,437.9,292.928,439.061Z" transform="translate(-8651.011 -12445.63)" fill="#8dc63f"/>
    <path id="Path_15967" data-name="Path 15967" d="M304.531,441.019s-.716-1.433,1.042-3.973a4.245,4.245,0,0,1,4.363-1.888,9.313,9.313,0,0,1-2.475,3.582C305.9,439.912,304.857,440.041,304.531,441.019Z" transform="translate(-8662.471 -12447.589)" fill="#72a433"/>
    <path id="Path_15968" data-name="Path 15968" d="M325.93,434.406a4.8,4.8,0,0,0,.939-4.327,5.864,5.864,0,0,1,1.694-5.839s-1.651,2.9-1.118,5.083.8,3.654.136,5.083Z" transform="translate(-8676.297 -12440.628)" fill="#8dc63f"/>
    <path id="Path_15969" data-name="Path 15969" d="M329.67,440.241a2.811,2.811,0,0,1,3.12-2.006A2.18,2.18,0,0,1,329.67,440.241Z" transform="translate(-8678.697 -12449.587)" fill="#72a433"/>
    <path id="Path_15970" data-name="Path 15970" d="M329.64,429.14a2.073,2.073,0,0,1,2.525-1.075A1.616,1.616,0,0,1,329.64,429.14Z" transform="translate(-8678.679 -12443.006)" fill="#72a433"/>
    <path id="Path_15971" data-name="Path 15971" d="M323.7,436.39s-1.11-2.167-3.12-1.587C320.58,434.81,321.268,437.608,323.7,436.39Z" transform="translate(-8672.863 -12447.344)" fill="#72a433"/>
    <path id="Path_15972" data-name="Path 15972" d="M328.264,424.519s-.269-1.673-1.719-1.719C326.545,422.8,326.394,424.8,328.264,424.519Z" transform="translate(-8676.689 -12439.704)" fill="#72a433"/>
    <path id="Path_15973" data-name="Path 15973" d="M344.1,439.062s.845-1.7-1.236-4.7a5.015,5.015,0,0,0-5.162-2.235,10.878,10.878,0,0,0,2.927,4.241C342.479,437.74,343.711,437.9,344.1,439.062Z" transform="translate(-8683.851 -12445.631)" fill="#8dc63f"/>
    <path id="Path_15974" data-name="Path 15974" d="M355.741,441.028s-.716-1.433,1.042-3.973a4.241,4.241,0,0,1,4.331-1.888,9.286,9.286,0,0,1-2.472,3.582C357.081,439.921,356.053,440.05,355.741,441.028Z" transform="translate(-8695.337 -12447.597)" fill="#72a433"/>
    <path id="Path_15975" data-name="Path 15975" d="M395.6,439.062s.845-1.7-1.236-4.7a5.015,5.015,0,0,0-5.162-2.235,10.879,10.879,0,0,0,2.927,4.241C393.979,437.74,395.218,437.9,395.6,439.062Z" transform="translate(-8716.902 -12445.631)" fill="#8dc63f"/>
    <path id="Path_15976" data-name="Path 15976" d="M407.2,441.019s-.716-1.433,1.042-3.973a4.241,4.241,0,0,1,4.359-1.888,9.285,9.285,0,0,1-2.472,3.582C408.57,439.912,407.527,440.041,407.2,441.019Z" transform="translate(-8728.362 -12447.589)" fill="#72a433"/>
    <path id="Path_15977" data-name="Path 15977" d="M428.77,434.406a4.793,4.793,0,0,0,.935-4.327,5.864,5.864,0,0,1,1.694-5.839s-1.651,2.9-1.114,5.083.8,3.654.133,5.083Z" transform="translate(-8742.298 -12440.628)" fill="#8dc63f"/>
    <path id="Path_15978" data-name="Path 15978" d="M432.5,440.241a2.815,2.815,0,0,1,3.12-2.006A2.178,2.178,0,0,1,432.5,440.241Z" transform="translate(-8744.692 -12449.587)" fill="#72a433"/>
    <path id="Path_15979" data-name="Path 15979" d="M432.47,429.14a2.062,2.062,0,0,1,2.508-1.075A1.592,1.592,0,0,1,432.47,429.14Z" transform="translate(-8744.673 -12443.006)" fill="#72a433"/>
    <path id="Path_15980" data-name="Path 15980" d="M426.54,436.39s-1.11-2.167-3.12-1.587C423.42,434.81,424.108,437.608,426.54,436.39Z" transform="translate(-8738.865 -12447.344)" fill="#72a433"/>
    <path id="Path_15981" data-name="Path 15981" d="M431.1,424.519s-.269-1.673-1.719-1.719C429.376,422.8,429.24,424.8,431.1,424.519Z" transform="translate(-8742.687 -12439.704)" fill="#72a433"/>
    <path id="Path_15982" data-name="Path 15982" d="M446.258,439.061s.849-1.7-1.232-4.7a5.015,5.015,0,0,0-5.165-2.235,10.861,10.861,0,0,0,2.93,4.241C444.646,437.739,445.874,437.9,446.258,439.061Z" transform="translate(-8749.416 -12445.63)" fill="#8dc63f"/>
    <path id="Path_15983" data-name="Path 15983" d="M457.871,441.019s-.716-1.433,1.042-3.973a4.241,4.241,0,0,1,4.359-1.888,9.286,9.286,0,0,1-2.472,3.582C459.24,439.912,458.183,440.041,457.871,441.019Z" transform="translate(-8760.883 -12447.589)" fill="#72a433"/>
    <path id="Path_15984" data-name="Path 15984" d="M480.1,434.406a4.793,4.793,0,0,0,.935-4.327,5.871,5.871,0,0,1,1.694-5.839s-1.648,2.9-1.114,5.083.8,3.654.133,5.083Z" transform="translate(-8775.241 -12440.628)" fill="#8dc63f"/>
    <path id="Path_15985" data-name="Path 15985" d="M483.83,440.241a2.817,2.817,0,0,1,3.124-2.006A2.181,2.181,0,0,1,483.83,440.241Z" transform="translate(-8777.636 -12449.587)" fill="#72a433"/>
    <path id="Path_15986" data-name="Path 15986" d="M483.81,429.14a2.059,2.059,0,0,1,2.508-1.075A1.6,1.6,0,0,1,483.81,429.14Z" transform="translate(-8777.622 -12443.006)" fill="#72a433"/>
    <path id="Path_15987" data-name="Path 15987" d="M477.87,436.39s-1.11-2.167-3.12-1.587C474.75,434.81,475.438,437.608,477.87,436.39Z" transform="translate(-8771.809 -12447.344)" fill="#72a433"/>
    <path id="Path_15988" data-name="Path 15988" d="M482.425,424.519s-.269-1.673-1.719-1.719C480.705,422.8,480.558,424.8,482.425,424.519Z" transform="translate(-8775.629 -12439.704)" fill="#72a433"/>
    <path id="Path_15989" data-name="Path 15989" d="M497.408,439.058s.845-1.7-1.232-4.7A5.015,5.015,0,0,0,491,432.119a10.861,10.861,0,0,0,2.93,4.241C495.786,437.736,497.025,437.9,497.408,439.058Z" transform="translate(-8782.236 -12445.627)" fill="#8dc63f"/>
    <path id="Path_15990" data-name="Path 15990" d="M509.031,441.019s-.716-1.433,1.042-3.973a4.245,4.245,0,0,1,4.363-1.888,9.313,9.313,0,0,1-2.475,3.582C510.4,439.912,509.357,440.041,509.031,441.019Z" transform="translate(-8793.717 -12447.589)" fill="#72a433"/>
    <path id="Path_15991" data-name="Path 15991" d="M530.6,434.406a4.793,4.793,0,0,0,.935-4.327,5.871,5.871,0,0,1,1.694-5.839s-1.648,2.9-1.114,5.083.8,3.654.133,5.083Z" transform="translate(-8807.651 -12440.628)" fill="#8dc63f"/>
    <path id="Path_15992" data-name="Path 15992" d="M534.33,440.241a2.816,2.816,0,0,1,3.124-2.006A2.181,2.181,0,0,1,534.33,440.241Z" transform="translate(-8810.046 -12449.587)" fill="#72a433"/>
    <path id="Path_15993" data-name="Path 15993" d="M534.31,429.14a2.059,2.059,0,0,1,2.508-1.075A1.6,1.6,0,0,1,534.31,429.14Z" transform="translate(-8810.033 -12443.006)" fill="#72a433"/>
    <path id="Path_15994" data-name="Path 15994" d="M528.41,436.39s-1.11-2.167-3.12-1.587C525.275,434.81,525.963,437.608,528.41,436.39Z" transform="translate(-8804.243 -12447.344)" fill="#72a433"/>
    <path id="Path_15995" data-name="Path 15995" d="M532.917,424.519s-.269-1.673-1.719-1.719C531.2,422.8,531.054,424.8,532.917,424.519Z" transform="translate(-8808.034 -12439.704)" fill="#72a433"/>
    <path id="Path_15996" data-name="Path 15996" d="M547.928,439.061s.845-1.7-1.232-4.7a5.015,5.015,0,0,0-5.165-2.235,10.861,10.861,0,0,0,2.93,4.241C546.316,437.739,547.544,437.9,547.928,439.061Z" transform="translate(-8814.667 -12445.63)" fill="#8dc63f"/>
    <path id="Path_15997" data-name="Path 15997" d="M559.531,441.019s-.716-1.433,1.042-3.973a4.245,4.245,0,0,1,4.363-1.888,9.314,9.314,0,0,1-2.475,3.582C560.9,439.912,559.857,440.041,559.531,441.019Z" transform="translate(-8826.127 -12447.589)" fill="#72a433"/>
    <path id="Path_15998" data-name="Path 15998" d="M598.928,439.061s.845-1.7-1.232-4.7a5.015,5.015,0,0,0-5.165-2.235,10.861,10.861,0,0,0,2.93,4.241C597.316,437.739,598.544,437.9,598.928,439.061Z" transform="translate(-8847.397 -12445.63)" fill="#8dc63f"/>
    <path id="Path_15999" data-name="Path 15999" d="M610.531,441.019s-.716-1.433,1.042-3.973a4.245,4.245,0,0,1,4.363-1.888,9.315,9.315,0,0,1-2.475,3.582C611.9,439.912,610.857,440.041,610.531,441.019Z" transform="translate(-8858.858 -12447.589)" fill="#72a433"/>
    <path id="Path_16000" data-name="Path 16000" d="M630.6,434.406a4.793,4.793,0,0,0,.935-4.327,5.871,5.871,0,0,1,1.694-5.839s-1.648,2.9-1.114,5.083.8,3.654.133,5.083Z" transform="translate(-8871.831 -12440.628)" fill="#8dc63f"/>
    <path id="Path_16001" data-name="Path 16001" d="M634.33,440.241a2.816,2.816,0,0,1,3.124-2.006A2.181,2.181,0,0,1,634.33,440.241Z" transform="translate(-8874.225 -12449.587)" fill="#72a433"/>
    <path id="Path_16002" data-name="Path 16002" d="M634.31,429.14a2.059,2.059,0,0,1,2.508-1.075A1.6,1.6,0,0,1,634.31,429.14Z" transform="translate(-8874.212 -12443.006)" fill="#72a433"/>
    <path id="Path_16003" data-name="Path 16003" d="M628.41,436.39s-1.11-2.167-3.12-1.587C625.275,434.81,625.963,437.608,628.41,436.39Z" transform="translate(-8868.422 -12447.344)" fill="#72a433"/>
    <path id="Path_16004" data-name="Path 16004" d="M632.917,424.519s-.269-1.673-1.719-1.719C631.2,422.8,631.054,424.8,632.917,424.519Z" transform="translate(-8872.214 -12439.704)" fill="#72a433"/>
    <path id="Path_16005" data-name="Path 16005" d="M581.85,434.406a4.793,4.793,0,0,0,.935-4.327,5.871,5.871,0,0,1,1.694-5.839s-1.648,2.9-1.114,5.083.8,3.654.133,5.083Z" transform="translate(-8840.543 -12440.628)" fill="#8dc63f"/>
    <path id="Path_16006" data-name="Path 16006" d="M585.58,440.241a2.817,2.817,0,0,1,3.124-2.006A2.181,2.181,0,0,1,585.58,440.241Z" transform="translate(-8842.938 -12449.587)" fill="#72a433"/>
    <path id="Path_16007" data-name="Path 16007" d="M585.56,429.14a2.059,2.059,0,0,1,2.508-1.075A1.6,1.6,0,0,1,585.56,429.14Z" transform="translate(-8842.925 -12443.006)" fill="#72a433"/>
    <path id="Path_16008" data-name="Path 16008" d="M579.62,436.39s-1.11-2.167-3.12-1.587C576.5,434.81,577.188,437.608,579.62,436.39Z" transform="translate(-8837.109 -12447.344)" fill="#72a433"/>
    <path id="Path_16009" data-name="Path 16009" d="M584.175,424.519s-.269-1.673-1.719-1.719C582.455,422.8,582.308,424.8,584.175,424.519Z" transform="translate(-8840.93 -12439.704)" fill="#72a433"/>
    <path id="Path_16010" data-name="Path 16010" d="M648.758,439.061s.849-1.7-1.232-4.7a5.015,5.015,0,0,0-5.165-2.235,10.861,10.861,0,0,0,2.93,4.241C647.146,437.739,648.374,437.9,648.758,439.061Z" transform="translate(-8879.378 -12445.63)" fill="#8dc63f"/>
    <path id="Path_16011" data-name="Path 16011" d="M660.371,441.019s-.716-1.433,1.042-3.973a4.241,4.241,0,0,1,4.359-1.888,9.285,9.285,0,0,1-2.472,3.582C661.74,439.912,660.694,440.041,660.371,441.019Z" transform="translate(-8890.845 -12447.589)" fill="#72a433"/>
    <path id="Path_16012" data-name="Path 16012" d="M682.77,434.406a4.793,4.793,0,0,0,.935-4.327,5.864,5.864,0,0,1,1.694-5.839s-1.651,2.9-1.114,5.083.8,3.654.132,5.083Z" transform="translate(-8905.313 -12440.628)" fill="#8dc63f"/>
    <path id="Path_16013" data-name="Path 16013" d="M686.5,440.241a2.815,2.815,0,0,1,3.12-2.006A2.178,2.178,0,0,1,686.5,440.241Z" transform="translate(-8907.707 -12449.587)" fill="#72a433"/>
    <path id="Path_16014" data-name="Path 16014" d="M686.47,429.14a2.062,2.062,0,0,1,2.507-1.075A1.592,1.592,0,0,1,686.47,429.14Z" transform="translate(-8907.688 -12443.006)" fill="#72a433"/>
    <path id="Path_16015" data-name="Path 16015" d="M680.54,436.39s-1.11-2.167-3.12-1.587C677.42,434.81,678.108,437.608,680.54,436.39Z" transform="translate(-8901.879 -12447.344)" fill="#72a433"/>
    <path id="Path_16016" data-name="Path 16016" d="M685.1,424.519s-.269-1.673-1.719-1.719C683.376,422.8,683.24,424.8,685.1,424.519Z" transform="translate(-8905.7 -12439.704)" fill="#72a433"/>
    <path id="Path_16017" data-name="Path 16017" d="M699.928,439.061s.845-1.7-1.232-4.7a5.015,5.015,0,0,0-5.165-2.235,10.861,10.861,0,0,0,2.93,4.241C698.316,437.739,699.544,437.9,699.928,439.061Z" transform="translate(-8912.218 -12445.63)" fill="#8dc63f"/>
    <path id="Path_16018" data-name="Path 16018" d="M711.531,441.019s-.716-1.433,1.042-3.973a4.245,4.245,0,0,1,4.363-1.888,9.313,9.313,0,0,1-2.475,3.582C712.9,439.912,711.857,440.041,711.531,441.019Z" transform="translate(-8923.679 -12447.589)" fill="#72a433"/>
    <rect id="Rectangle_25514" data-name="Rectangle 25514" width="250.87" height="9.245" rx="4.623" transform="translate(-8456.58 -12005.631)" fill="#966238"/>
    <path id="Path_16019" data-name="Path 16019" d="M69.587,480.08H287.311a3.417,3.417,0,0,1,3.407,3.407h0a3.414,3.414,0,0,1-3.407,3.4H69.587a3.414,3.414,0,0,1-3.407-3.4h0A3.417,3.417,0,0,1,69.587,480.08Z" transform="translate(-8509.593 -12476.466)" fill="#794e29"/>
    <path id="Path_16020" data-name="Path 16020" d="M578.9,455.424h-3.4a2.866,2.866,0,0,1-2.841-2.837h0a2.866,2.866,0,0,1,2.841-2.837h3.4a2.866,2.866,0,0,1,2.841,2.837h0A2.866,2.866,0,0,1,578.9,455.424Z" transform="translate(-8834.646 -12457)" fill="#966238"/>
    <path id="Path_16021" data-name="Path 16021" d="M604.264,455.424h-3.407a2.844,2.844,0,0,1-2.837-2.837h0a2.844,2.844,0,0,1,2.837-2.837h3.407a2.844,2.844,0,0,1,2.837,2.837h0a2.844,2.844,0,0,1-2.837,2.837Z" transform="translate(-8850.921 -12457)" fill="#966238"/>
    <path id="Path_16022" data-name="Path 16022" d="M629.614,455.424h-3.407a2.844,2.844,0,0,1-2.837-2.837h0a2.844,2.844,0,0,1,2.837-2.837h3.407a2.844,2.844,0,0,1,2.837,2.837h0a2.844,2.844,0,0,1-2.837,2.837Z" transform="translate(-8867.19 -12457)" fill="#966238"/>
    <path id="Path_16023" data-name="Path 16023" d="M654.964,455.424h-3.4a2.866,2.866,0,0,1-2.841-2.837h0a2.866,2.866,0,0,1,2.841-2.837h3.4a2.866,2.866,0,0,1,2.841,2.837h0A2.866,2.866,0,0,1,654.964,455.424Z" transform="translate(-8883.46 -12457)" fill="#966238"/>
    <path id="Path_16024" data-name="Path 16024" d="M680.324,455.424h-3.407a2.844,2.844,0,0,1-2.837-2.837h0a2.844,2.844,0,0,1,2.837-2.837h3.407a2.844,2.844,0,0,1,2.837,2.837h0A2.844,2.844,0,0,1,680.324,455.424Z" transform="translate(-8899.736 -12457)" fill="#966238"/>
    <path id="Path_16025" data-name="Path 16025" d="M705.674,455.424h-3.407a2.844,2.844,0,0,1-2.837-2.837h0a2.844,2.844,0,0,1,2.837-2.837h3.407a2.866,2.866,0,0,1,2.841,2.837h0A2.866,2.866,0,0,1,705.674,455.424Z" transform="translate(-8916.005 -12457)" fill="#966238"/>
    <path id="Path_16026" data-name="Path 16026" d="M426.814,455.424h-3.4a2.866,2.866,0,0,1-2.841-2.837h0a2.866,2.866,0,0,1,2.841-2.837h3.4a2.866,2.866,0,0,1,2.841,2.837h0A2.866,2.866,0,0,1,426.814,455.424Z" transform="translate(-8737.035 -12457)" fill="#966238"/>
    <path id="Path_16027" data-name="Path 16027" d="M452.144,455.424h-3.407a2.844,2.844,0,0,1-2.837-2.837h0a2.844,2.844,0,0,1,2.837-2.837h3.407a2.844,2.844,0,0,1,2.837,2.837h0A2.844,2.844,0,0,1,452.144,455.424Z" transform="translate(-8753.293 -12457)" fill="#966238"/>
    <path id="Path_16028" data-name="Path 16028" d="M477.494,455.424h-3.407a2.844,2.844,0,0,1-2.837-2.837h0a2.844,2.844,0,0,1,2.837-2.837h3.407a2.844,2.844,0,0,1,2.837,2.837h0A2.844,2.844,0,0,1,477.494,455.424Z" transform="translate(-8769.562 -12457)" fill="#966238"/>
    <path id="Path_16029" data-name="Path 16029" d="M502.814,455.424h-3.4a2.866,2.866,0,0,1-2.841-2.837h0a2.866,2.866,0,0,1,2.841-2.837h3.4a2.866,2.866,0,0,1,2.841,2.837h0A2.866,2.866,0,0,1,502.814,455.424Z" transform="translate(-8785.812 -12457)" fill="#966238"/>
    <path id="Path_16030" data-name="Path 16030" d="M528.2,455.424H524.8a2.844,2.844,0,0,1-2.837-2.837h0a2.844,2.844,0,0,1,2.837-2.837H528.2a2.844,2.844,0,0,1,2.837,2.837h0A2.844,2.844,0,0,1,528.2,455.424Z" transform="translate(-8802.106 -12457)" fill="#966238"/>
    <path id="Path_16031" data-name="Path 16031" d="M553.554,455.424h-3.407a2.844,2.844,0,0,1-2.837-2.837h0a2.844,2.844,0,0,1,2.837-2.837h3.407a2.844,2.844,0,0,1,2.837,2.837h0a2.844,2.844,0,0,1-2.837,2.837Z" transform="translate(-8818.376 -12457)" fill="#966238"/>
    <path id="Path_16032" data-name="Path 16032" d="M274.664,455.424h-3.407a2.844,2.844,0,0,1-2.837-2.837h0a2.844,2.844,0,0,1,2.837-2.837h3.407a2.844,2.844,0,0,1,2.837,2.837h0A2.844,2.844,0,0,1,274.664,455.424Z" transform="translate(-8639.388 -12457)" fill="#966238"/>
    <path id="Path_16033" data-name="Path 16033" d="M300.017,455.424h-3.407a2.866,2.866,0,0,1-2.841-2.837h0a2.866,2.866,0,0,1,2.841-2.837h3.407a2.844,2.844,0,0,1,2.837,2.837h0A2.844,2.844,0,0,1,300.017,455.424Z" transform="translate(-8655.657 -12457)" fill="#966238"/>
    <path id="Path_16034" data-name="Path 16034" d="M325.374,455.424h-3.407a2.844,2.844,0,0,1-2.837-2.837h0a2.844,2.844,0,0,1,2.837-2.837h3.407a2.844,2.844,0,0,1,2.837,2.837h0A2.844,2.844,0,0,1,325.374,455.424Z" transform="translate(-8671.933 -12457)" fill="#966238"/>
    <path id="Path_16035" data-name="Path 16035" d="M350.724,455.424h-3.407a2.844,2.844,0,0,1-2.837-2.837h0a2.844,2.844,0,0,1,2.837-2.837h3.407a2.866,2.866,0,0,1,2.841,2.837h0A2.866,2.866,0,0,1,350.724,455.424Z" transform="translate(-8688.202 -12457)" fill="#966238"/>
    <path id="Path_16036" data-name="Path 16036" d="M376.084,455.424h-3.407a2.844,2.844,0,0,1-2.837-2.837h0a2.844,2.844,0,0,1,2.837-2.837h3.407a2.844,2.844,0,0,1,2.837,2.837h0A2.844,2.844,0,0,1,376.084,455.424Z" transform="translate(-8704.478 -12457)" fill="#966238"/>
    <path id="Path_16037" data-name="Path 16037" d="M401.434,455.424h-3.407a2.844,2.844,0,0,1-2.837-2.837h0a2.844,2.844,0,0,1,2.837-2.837h3.407a2.844,2.844,0,0,1,2.837,2.837h0A2.844,2.844,0,0,1,401.434,455.424Z" transform="translate(-8720.747 -12457)" fill="#966238"/>
    <path id="Path_16038" data-name="Path 16038" d="M122.544,455.424h-3.407a2.844,2.844,0,0,1-2.837-2.837h0a2.844,2.844,0,0,1,2.837-2.837h3.407a2.844,2.844,0,0,1,2.837,2.837h0A2.844,2.844,0,0,1,122.544,455.424Z" transform="translate(-8541.759 -12457)" fill="#966238"/>
    <path id="Path_16039" data-name="Path 16039" d="M147.894,455.424h-3.4a2.866,2.866,0,0,1-2.841-2.837h0a2.866,2.866,0,0,1,2.841-2.837h3.4a2.866,2.866,0,0,1,2.841,2.837h0A2.866,2.866,0,0,1,147.894,455.424Z" transform="translate(-8558.027 -12457)" fill="#966238"/>
    <path id="Path_16040" data-name="Path 16040" d="M173.254,455.424h-3.407a2.844,2.844,0,0,1-2.837-2.837h0a2.844,2.844,0,0,1,2.837-2.837h3.407a2.844,2.844,0,0,1,2.837,2.837h0A2.844,2.844,0,0,1,173.254,455.424Z" transform="translate(-8574.304 -12457)" fill="#966238"/>
    <path id="Path_16041" data-name="Path 16041" d="M198.6,455.424H195.2a2.844,2.844,0,0,1-2.837-2.837h0a2.844,2.844,0,0,1,2.837-2.837H198.6a2.844,2.844,0,0,1,2.837,2.837h0A2.844,2.844,0,0,1,198.6,455.424Z" transform="translate(-8590.573 -12457)" fill="#966238"/>
    <path id="Path_16042" data-name="Path 16042" d="M223.954,455.424h-3.4a2.866,2.866,0,0,1-2.841-2.837h0a2.866,2.866,0,0,1,2.841-2.837h3.4a2.866,2.866,0,0,1,2.841,2.837h0A2.866,2.866,0,0,1,223.954,455.424Z" transform="translate(-8606.843 -12457)" fill="#966238"/>
    <path id="Path_16043" data-name="Path 16043" d="M249.32,455.424h-3.4a2.844,2.844,0,0,1-2.837-2.837h0a2.844,2.844,0,0,1,2.837-2.837h3.407a2.844,2.844,0,0,1,2.837,2.837h0A2.844,2.844,0,0,1,249.32,455.424Z" transform="translate(-8623.124 -12457)" fill="#966238"/>
    <path id="Path_16044" data-name="Path 16044" d="M46.484,455.424H43.077a2.844,2.844,0,0,1-2.837-2.837h0a2.844,2.844,0,0,1,2.837-2.837h3.407a2.844,2.844,0,0,1,2.837,2.837h0A2.844,2.844,0,0,1,46.484,455.424Z" transform="translate(-8492.944 -12457)" fill="#966238"/>
    <path id="Path_16045" data-name="Path 16045" d="M71.814,455.424h-3.4a2.866,2.866,0,0,1-2.841-2.837h0a2.866,2.866,0,0,1,2.841-2.837h3.4a2.866,2.866,0,0,1,2.866,2.837h0A2.866,2.866,0,0,1,71.814,455.424Z" transform="translate(-8509.201 -12457)" fill="#966238"/>
    <path id="Path_16046" data-name="Path 16046" d="M97.226,455.424H93.819A2.844,2.844,0,0,1,91,452.587h0a2.844,2.844,0,0,1,2.837-2.837h3.407a2.844,2.844,0,0,1,2.837,2.837h0a2.844,2.844,0,0,1-2.855,2.837Z" transform="translate(-8525.521 -12457)" fill="#966238"/>
    <path id="Path_16047" data-name="Path 16047" d="M264.929,471.321a.974.974,0,1,1-.974-.971A.974.974,0,0,1,264.929,471.321Z" transform="translate(-8635.896 -12470.221)" fill="#794e29"/>
    <path id="Path_16048" data-name="Path 16048" d="M202.809,461.854a.971.971,0,1,1-.284-.69A.974.974,0,0,1,202.809,461.854Z" transform="translate(-8596.028 -12464.144)" fill="#794e29"/>
    <path id="Path_16049" data-name="Path 16049" d="M287.055,460.193a1.623,1.623,0,1,1-1.623-1.623A1.623,1.623,0,0,1,287.055,460.193Z" transform="translate(-8649.265 -12462.661)" fill="#794e29"/>
    <path id="Path_16050" data-name="Path 16050" d="M333.043,470.737a1.3,1.3,0,1,1-1.3-1.3,1.3,1.3,0,0,1,1.3,1.3Z" transform="translate(-8679.198 -12469.638)" fill="#794e29"/>
    <circle id="Ellipse_504" data-name="Ellipse 504" cx="1.136" cy="1.136" r="1.136" transform="translate(-8338.37 -12002.791)" fill="#794e29"/>
    <path id="Path_16051" data-name="Path 16051" d="M403.057,465.9a2.35,2.35,0,1,1-.688-1.665A2.353,2.353,0,0,1,403.057,465.9Z" transform="translate(-8722.775 -12465.856)" fill="#794e29"/>
    <path id="Path_16052" data-name="Path 16052" d="M436.069,461.811a.974.974,0,1,1-.974-.971A.974.974,0,0,1,436.069,461.811Z" transform="translate(-8745.731 -12464.118)" fill="#794e29"/>
    <circle id="Ellipse_505" data-name="Ellipse 505" cx="1.297" cy="1.297" r="1.297" transform="translate(-8297.985 -12001.332)" fill="#794e29"/>
    <path id="Path_16053" data-name="Path 16053" d="M510.063,459.417a1.3,1.3,0,1,1-1.3-1.3A1.3,1.3,0,0,1,510.063,459.417Z" transform="translate(-8792.807 -12462.372)" fill="#794e29"/>
    <circle id="Ellipse_506" data-name="Ellipse 506" cx="1.623" cy="1.623" r="1.623" transform="translate(-8278.527 -12000.523)" fill="#794e29"/>
    <path id="Path_16054" data-name="Path 16054" d="M577.067,464.684a1.014,1.014,0,1,1-1.014-1.014A1.014,1.014,0,0,1,577.067,464.684Z" transform="translate(-8836.173 -12465.934)" fill="#794e29"/>
    <path id="Path_16055" data-name="Path 16055" d="M612.125,469.253a1.619,1.619,0,1,1-.474-1.148A1.623,1.623,0,0,1,612.125,469.253Z" transform="translate(-8857.891 -12468.475)" fill="#794e29"/>
    <path id="Path_16056" data-name="Path 16056" d="M643.3,461.966a1.136,1.136,0,1,1-1.136-1.136A1.135,1.135,0,0,1,643.3,461.966Z" transform="translate(-8878.524 -12464.111)" fill="#794e29"/>
    <circle id="Ellipse_507" data-name="Ellipse 507" cx="1.945" cy="1.945" r="1.945" transform="translate(-8227.439 -12001.332)" fill="#794e29"/>
    <circle id="Ellipse_508" data-name="Ellipse 508" cx="1.136" cy="1.136" r="1.136" transform="translate(-8215.927 -12002.791)" fill="#794e29"/>
    <path id="Path_16057" data-name="Path 16057" d="M719.029,451.254a.974.974,0,1,1-.974-.974.974.974,0,0,1,.974.974Z" transform="translate(-8927.333 -12457.34)" fill="#794e29"/>
    <path id="Path_16058" data-name="Path 16058" d="M681.677,490.458a.648.648,0,1,1-.648-.648.648.648,0,0,1,.648.648Z" transform="translate(-8903.778 -12482.711)" fill="#966238"/>
    <circle id="Ellipse_509" data-name="Ellipse 509" cx="1.623" cy="1.623" r="1.623" transform="translate(-8233.278 -11994.358)" fill="#966238"/>
    <path id="Path_16059" data-name="Path 16059" d="M593.041,489.592a1.132,1.132,0,1,1-.333-.8A1.136,1.136,0,0,1,593.041,489.592Z" transform="translate(-8846.269 -12481.844)" fill="#966238"/>
    <path id="Path_16060" data-name="Path 16060" d="M542.509,485.8a.971.971,0,1,1-.283-.689A.974.974,0,0,1,542.509,485.8Z" transform="translate(-8814.044 -12479.514)" fill="#966238"/>
    <path id="Path_16061" data-name="Path 16061" d="M505.789,490.334a.971.971,0,1,1-.284-.69A.974.974,0,0,1,505.789,490.334Z" transform="translate(-8790.478 -12482.421)" fill="#966238"/>
    <circle id="Ellipse_510" data-name="Ellipse 510" cx="1.458" cy="1.458" r="1.458" transform="translate(-8303.985 -11995.167)" fill="#966238"/>
    <path id="Path_16062" data-name="Path 16062" d="M427.277,491.838a.648.648,0,1,1-.648-.648A.648.648,0,0,1,427.277,491.838Z" transform="translate(-8740.508 -12483.597)" fill="#966238"/>
    <path id="Path_16063" data-name="Path 16063" d="M391.492,483.891A1.791,1.791,0,1,1,389.7,482.1,1.791,1.791,0,0,1,391.492,483.891Z" transform="translate(-8716.074 -12477.762)" fill="#966238"/>
    <circle id="Ellipse_511" data-name="Ellipse 511" cx="0.81" cy="0.81" r="0.81" transform="translate(-8342.422 -11993.223)" fill="#966238"/>
    <path id="Path_16064" data-name="Path 16064" d="M306.822,487.961a1.791,1.791,0,1,1-1.791-1.791A1.791,1.791,0,0,1,306.822,487.961Z" transform="translate(-8661.735 -12480.374)" fill="#966238"/>
    <circle id="Ellipse_512" data-name="Ellipse 512" cx="1.136" cy="1.136" r="1.136" transform="translate(-8366.591 -11994.846)" fill="#966238"/>
    <circle id="Ellipse_513" data-name="Ellipse 513" cx="2.149" cy="2.149" r="2.149" transform="translate(-8382.491 -12004.918)" fill="#794e29"/>
    <circle id="Ellipse_514" data-name="Ellipse 514" cx="0.716" cy="0.716" r="0.716" transform="translate(-8401.358 -12000.379)" fill="#794e29"/>
    <path id="Path_16065" data-name="Path 16065" d="M94.726,460.839a1.913,1.913,0,1,1-1.909-1.909A1.913,1.913,0,0,1,94.726,460.839Z" transform="translate(-8525.457 -12462.893)" fill="#794e29"/>
    <path id="Path_16066" data-name="Path 16066" d="M136.069,466.839a1.909,1.909,0,1,1-1.909-1.909,1.909,1.909,0,0,1,1.909,1.909Z" transform="translate(-8551.995 -12466.742)" fill="#794e29"/>
    <path id="Path_16067" data-name="Path 16067" d="M55.963,470.123a1.2,1.2,0,1,1-1.2-1.193A1.2,1.2,0,0,1,55.963,470.123Z" transform="translate(-8501.499 -12469.31)" fill="#794e29"/>
    <path id="Path_16068" data-name="Path 16068" d="M135.483,487.216a.956.956,0,1,1-.953-.956A.956.956,0,0,1,135.483,487.216Z" transform="translate(-8552.842 -12480.433)" fill="#966238"/>
    <path id="Path_16069" data-name="Path 16069" d="M85.963,488.123a1.2,1.2,0,1,1-1.2-1.193,1.2,1.2,0,0,1,1.2,1.193Z" transform="translate(-8520.753 -12480.862)" fill="#966238"/>
    <path id="Path_16070" data-name="Path 16070" d="M168.916,488.6a1.669,1.669,0,1,1-.488-1.183A1.673,1.673,0,0,1,168.916,488.6Z" transform="translate(-8573.379 -12480.862)" fill="#966238"/>
    <circle id="Ellipse_515" data-name="Ellipse 515" cx="1.791" cy="1.791" r="1.791" transform="translate(-8391.328 -11994.648)" fill="#966238"/>
    <path id="Path_16071" data-name="Path 16071" d="M258.823,485.886a.956.956,0,1,1-.956-.956A.956.956,0,0,1,258.823,485.886Z" transform="translate(-8632.001 -12479.578)" fill="#966238"/>
    <path id="Path_16072" data-name="Path 16072" stroke="#fff" d="M282.713,361.729a28.219,28.219,0,0,0-23.642-9.672c-21.493,1.791-29.492,24.777-29.492,24.777" fill="none" transform="translate(-8614.461 -12394.237)" stroke-linecap="round" stroke-linejoin="round" stroke-width="1" stroke-dasharray="6"/>
    <path id="Path_16073" data-name="Path 16073" stroke="#fff" d="M297.416,376.836s-28.539-9.672-40.836,15.761" fill="none" transform="translate(-8631.789 -12409.046)" stroke-linecap="round" stroke-linejoin="round" stroke-width="1" stroke-dasharray="6"/>
    <path id="Path_16074" data-name="Path 16074" stroke="#fff" d="M326.054,385.07s-18.985.122-22.8,13.97" fill="none" transform="translate(-8661.741 -12415.489)" stroke-linecap="round" stroke-linejoin="round" stroke-width="1" stroke-dasharray="6"/>
    <path id="Path_16075" data-name="Path 16075" stroke="#fff" d="M354.314,390.74s-7.4,3.822-7.4,11.821" fill="none" transform="translate(-8689.762 -12419.129)" stroke-linecap="round" stroke-linejoin="round" stroke-width="1" stroke-dasharray="6"/>
    <path id="Path_16076" data-name="Path 16076" stroke="#fff" d="M263.251,350.243a28.711,28.711,0,0,0-26.866-15.521c-19.7.476-35.581,13.494-38.805,31.283" fill="none" transform="translate(-8593.924 -12383.169)" stroke-linecap="round" stroke-linejoin="round" stroke-width="1" stroke-dasharray="6"/>
    <path id="Path_16077" data-name="Path 16077" stroke="#fff" d="M386.58,361.729a28.219,28.219,0,0,1,23.642-9.672c21.493,1.791,29.491,24.777,29.491,24.777" fill="none" transform="translate(-8715.222 -12394.237)" stroke-linecap="round" stroke-linejoin="round" stroke-width="1" stroke-dasharray="6"/>
    <path id="Path_16078" data-name="Path 16078" stroke="#fff" d="M393.91,376.836s28.539-9.672,40.836,15.761" fill="none" transform="translate(-8719.926 -12409.046)" stroke-linecap="round" stroke-linejoin="round" stroke-width="1" stroke-dasharray="6"/>
    <path id="Path_16079" data-name="Path 16079" stroke="#fff" d="M397.58,385.07s18.985.122,22.807,13.97" fill="none" transform="translate(-8722.281 -12415.489)" stroke-linecap="round" stroke-linejoin="round" stroke-width="1" stroke-dasharray="6"/>
    <path id="Path_16080" data-name="Path 16080" stroke="#fff" d="M396.91,390.74s7.4,3.822,7.4,11.821" fill="none" transform="translate(-8721.851 -12419.129)" stroke-linecap="round" stroke-linejoin="round" stroke-width="1" stroke-dasharray="6"/>
    <path id="Path_16081" data-name="Path 16081" stroke="#fff" d="M383.58,350.243a28.711,28.711,0,0,1,26.866-15.521c19.7.476,35.581,13.494,38.8,31.283" fill="none" transform="translate(-8713.296 -12383.169)" stroke-linecap="round" stroke-linejoin="round" stroke-width="1" stroke-dasharray="6"/>
    <path id="Path_16082" data-name="Path 16082" stroke="#fff" d="M104.806,388.69a22.36,22.36,0,0,0-17.681-6.319c-16.073,1.171-22.055,16.184-22.055,16.184" fill="none" transform="translate(-8508.88 -12413.716)" stroke-linecap="round" stroke-linejoin="round" stroke-width="1" stroke-dasharray="6"/>
    <path id="Path_16083" data-name="Path 16083" stroke="#fff" d="M115.807,398.551s-21.321-6.33-30.537,10.3" fill="none" transform="translate(-8521.845 -12423.382)" stroke-linecap="round" stroke-linejoin="round" stroke-width="1" stroke-dasharray="6"/>
    <path id="Path_16084" data-name="Path 16084" stroke="#fff" d="M137.224,403.94s-14.2.075-17.054,9.124" fill="none" transform="translate(-8544.243 -12427.6)" stroke-linecap="round" stroke-linejoin="round" stroke-width="1" stroke-dasharray="6"/>
    <path id="Path_16085" data-name="Path 16085" stroke="#fff" d="M158.358,407.64s-5.538,2.507-5.538,7.719" fill="none" transform="translate(-8565.197 -12429.975)" stroke-linecap="round" stroke-linejoin="round" stroke-width="1" stroke-dasharray="6"/>
    <path id="Path_16086" data-name="Path 16086" stroke="#fff" d="M90.267,381.189s-5.373-10.453-20.092-10.141S43.567,379.86,41.16,391.466" fill="none" transform="translate(-8493.535 -12406.485)" stroke-linecap="round" stroke-linejoin="round" stroke-width="1" stroke-dasharray="6"/>
    <path id="Path_16087" data-name="Path 16087" stroke="#fff" d="M182.49,388.69a22.356,22.356,0,0,1,17.678-6.319c16.073,1.171,22.055,16.184,22.055,16.184" fill="none" transform="translate(-8584.238 -12413.716)" stroke-linecap="round" stroke-linejoin="round" stroke-width="1" stroke-dasharray="6"/>
    <path id="Path_16088" data-name="Path 16088" stroke="#fff" d="M188,398.559s21.339-6.315,30.538,10.3" fill="none" transform="translate(-8587.775 -12423.39)" stroke-linecap="round" stroke-linejoin="round" stroke-width="1" stroke-dasharray="6"/>
    <path id="Path_16089" data-name="Path 16089" stroke="#fff" d="M190.71,403.94s14.2.075,17.054,9.124" fill="none" transform="translate(-8589.514 -12427.6)" stroke-linecap="round" stroke-linejoin="round" stroke-width="1" stroke-dasharray="6"/>
    <path id="Path_16090" data-name="Path 16090" stroke="#fff" d="M190.21,407.64s5.538,2.507,5.538,7.719" fill="none" transform="translate(-8589.193 -12429.975)" stroke-linecap="round" stroke-linejoin="round" stroke-width="1" stroke-dasharray="6"/>
    <path id="Path_16091" data-name="Path 16091" stroke="#fff" d="M180.24,381.189s5.373-10.453,20.092-10.141,26.608,8.812,29.015,20.418" fill="none" transform="translate(-8582.794 -12406.485)" stroke-linecap="round" stroke-linejoin="round" stroke-width="1" stroke-dasharray="6"/>
    <path id="Path_16473" data-name="Path 16473" d="M0,344.178c0-1.791,2.275-3.242,5.083-3.242a7.53,7.53,0,0,1,.91.054c.265-2.343,2.923-4.18,6.165-4.18a6.912,6.912,0,0,1,5.212,2.106,7.989,7.989,0,0,1,2.085-.272c3.192,0,5.782,1.791,5.782,4.019s-2.59,4.019-5.782,4.019h-.487c-.527,1.526-2.7,2.669-5.294,2.669a8.07,8.07,0,0,1-2.529-.394,10.444,10.444,0,0,1-2.891.394c-2.819,0-5.194-1.032-5.943-2.443C.921,346.313,0,345.314,0,344.178Z" transform="translate(-8449.208 -12386.666)" fill="#fff" opacity="0.5"/>
    <path id="Path_16474" data-name="Path 16474" d="M0,344.178c0-1.791,2.275-3.242,5.083-3.242a7.53,7.53,0,0,1,.91.054c.265-2.343,2.923-4.18,6.165-4.18a6.912,6.912,0,0,1,5.212,2.106,7.989,7.989,0,0,1,2.085-.272c3.192,0,5.782,1.791,5.782,4.019s-2.59,4.019-5.782,4.019h-.487c-.527,1.526-2.7,2.669-5.294,2.669a8.07,8.07,0,0,1-2.529-.394,10.444,10.444,0,0,1-2.891.394c-2.819,0-5.194-1.032-5.943-2.443C.921,346.313,0,345.314,0,344.178Z" transform="translate(-8254.7 -12376.994)" fill="#fff" opacity="0.5"/>
  </g>
</svg>
