<svg viewBox="0 0 31.008 19.233"> <g id="Group_12625" data-name="Group 12625"> <path id="Path_3460" data-name="Path 3460" d="M15.5,119.969c-3.487,0-7.24-1.554-10.853-4.495a29.159,29.159,0,0,1-4.438-4.468,1.107,1.107,0,0,1,0-1.309,29.164,29.164,0,0,1,4.438-4.468c3.613-2.94,7.366-4.495,10.853-4.495s7.24,1.554,10.853,4.495a29.164,29.164,0,0,1,4.438,4.468,1.107,1.107,0,0,1,0,1.309,29.164,29.164,0,0,1-4.438,4.468C22.744,118.415,18.991,119.969,15.5,119.969ZM2.079,110.353a29.064,29.064,0,0,0,3.626,3.523c2.3,1.868,5.872,4.094,9.8,4.094s7.5-2.227,9.8-4.094a29.067,29.067,0,0,0,3.626-3.523,29.057,29.057,0,0,0-3.626-3.523c-2.3-1.868-5.872-4.094-9.8-4.094s-7.5,2.227-9.8,4.094A29.053,29.053,0,0,0,2.079,110.353Z" transform="translate(0 -100.736)" fill="#444f63"/> </g> <g id="Group_12626" data-name="Group 12626" transform="translate(9.308 3.421)"> <path id="Path_3461" data-name="Path 3461" d="M149.716,155.913a6.2,6.2,0,1,1,4.081-10.858,1,1,0,0,1-1.317,1.5,4.2,4.2,0,1,0,1.433,3.159,1,1,0,0,1,2,0A6.2,6.2,0,0,1,149.716,155.913Z" transform="translate(-143.52 -143.521)" fill="#444f63"/> </g> <g id="Group_12627" data-name="Group 12627" transform="translate(13.505 7.618)"> <path id="Path_3462" data-name="Path 3462" d="M198.019,200.018a2,2,0,1,1,2-2A2,2,0,0,1,198.019,200.018Z" transform="translate(-196.02 -196.021)" fill="#444f63"/> </g></svg>