<svg viewBox="0 0 22.794 26.582">
  <path id="img_413275" d="M191.474,145.765a.414.414,0,0,1-.243-.254c-.037-.089-.042-1.451-.041-12.994,0-12.493,0-12.9.051-13a.459.459,0,0,1,.3-.258,4.1,4.1,0,0,1,.672-.02l.574.009.1.083a.668.668,0,0,1,.152.176c.045.088.047.755.041,13.049l-.007,12.956-.078.1c-.14.184-.224.2-.858.2C191.656,145.815,191.568,145.808,191.474,145.765Zm13.3-10.26a7.458,7.458,0,0,1-1.528-.388c-.131-.05-.492-.209-.8-.353a12.112,12.112,0,0,0-5.051-1.46,7.684,7.684,0,0,0-1.941.264,2.466,2.466,0,0,1-1.326.036l-.084-.029.007-6,.007-6,.074-.2a2.5,2.5,0,0,1,1.678-1.493,9.443,9.443,0,0,1,2.195-.2,7.513,7.513,0,0,1,3.28.843,7,7,0,0,1,1.735,1.271,9.518,9.518,0,0,1,1.82,2.492,10.25,10.25,0,0,0,.773,1.235,6.6,6.6,0,0,0,6.771,2.69,7.657,7.657,0,0,0,1.342-.336l.264-.095-.019.236a5.392,5.392,0,0,1-.589,2.054,12.887,12.887,0,0,1-3.861,4.176,7.785,7.785,0,0,1-2.887,1.2,4.576,4.576,0,0,1-1.02.079C205.25,135.527,204.873,135.519,204.77,135.5Z" transform="translate(-191.19 -119.233)" fill="#358ed7"/>
</svg>
