<svg viewBox="0 0 28.255 28.255">
  <path id="path" d="M5.514,29.787a2.306,2.306,0,0,0,2.954,2.954l4.238-1.027a13.736,13.736,0,0,0,6.422,1.541A14.037,14.037,0,1,0,6.541,25.613L5.514,29.787Zm3.66-4.046a1.283,1.283,0,0,0-.128-.963,11.562,11.562,0,1,1,4.431,4.431,1.245,1.245,0,0,0-.963-.128l-4.5,1.092,1.156-4.431Zm15.733-7.9a1.284,1.284,0,0,0,0-2.569H13.348a1.284,1.284,0,1,0,0,2.569Zm0,5.137a1.284,1.284,0,0,0,0-2.569H17.2a1.284,1.284,0,0,0,0,2.569Z" transform="translate(-5 -5)" fill="#444f63"/>
</svg>
