<svg id="Layer_2" data-name="Layer 2" xmlns="http://www.w3.org/2000/svg" width="169.867" height="99.879" viewBox="0 0 169.867 99.879">
  <g id="Background_Complete" data-name="Background Complete">
    <rect id="Rectangle_25548" data-name="Rectangle 25548" width="134.026" height="0.067" transform="translate(0 87.774)" fill="#ebebeb"/>
    <rect id="Rectangle_25549" data-name="Rectangle 25549" width="8.878" height="0.067" transform="translate(13.429 92.087)" fill="#ebebeb"/>
    <rect id="Rectangle_25550" data-name="Rectangle 25550" width="2.329" height="0.067" transform="translate(45.242 92.816)" fill="#ebebeb"/>
    <rect id="Rectangle_25551" data-name="Rectangle 25551" width="5.144" height="0.067" transform="translate(22.575 89.599)" fill="#ebebeb"/>
    <rect id="Rectangle_25552" data-name="Rectangle 25552" width="11.577" height="0.067" transform="translate(108.387 90.049)" fill="#ebebeb"/>
    <rect id="Rectangle_25553" data-name="Rectangle 25553" width="1.697" height="0.067" transform="translate(104.302 90.049)" fill="#ebebeb"/>
    <rect id="Rectangle_25554" data-name="Rectangle 25554" width="25.111" height="0.067" transform="translate(73.674 91.181)" fill="#ebebeb"/>
    <path id="Path_16920" data-name="Path 16920" d="M39.741,75.819H91.5a1.531,1.531,0,0,0,1.528-1.531V1.531A1.531,1.531,0,0,0,91.5,0H39.741A1.531,1.531,0,0,0,38.21,1.531V74.288A1.531,1.531,0,0,0,39.741,75.819ZM91.5.067A1.464,1.464,0,0,1,92.96,1.531V74.288A1.464,1.464,0,0,1,91.5,75.752H39.741a1.466,1.466,0,0,1-1.464-1.464V1.531A1.466,1.466,0,0,1,39.741.067Z" transform="translate(30.757)" fill="#ebebeb"/>
    <path id="Path_16921" data-name="Path 16921" d="M256.025,75.819h51.761a1.533,1.533,0,0,0,1.531-1.531V1.531A1.533,1.533,0,0,0,307.786,0H256.025A1.531,1.531,0,0,0,254.5,1.531V74.288A1.531,1.531,0,0,0,256.025,75.819ZM307.786.067a1.466,1.466,0,0,1,1.464,1.464V74.288a1.466,1.466,0,0,1-1.464,1.464H256.025a1.466,1.466,0,0,1-1.464-1.464V1.531A1.466,1.466,0,0,1,256.025.067Z" transform="translate(-243.51)" fill="#ebebeb"/>
    <rect id="Rectangle_25555" data-name="Rectangle 25555" width="7.288" height="19.418" transform="translate(112 68.356)" fill="#e6e6e6"/>
    <path id="Path_16922" data-name="Path 16922" d="M56.42,313.431h1.386V308.3H54.97Z" transform="translate(61.485 -225.66)" fill="#f0f0f0"/>
    <rect id="Rectangle_25556" data-name="Rectangle 25556" width="7.288" height="19.418" transform="translate(70.42 68.356)" fill="#e6e6e6"/>
    <rect id="Rectangle_25557" data-name="Rectangle 25557" width="42.789" height="18.018" transform="translate(76.499 68.353)" fill="#f0f0f0"/>
    <path id="Path_16923" data-name="Path 16923" d="M205.416,313.431H204.03V308.3h2.836Z" transform="translate(-127.531 -225.66)" fill="#f0f0f0"/>
    <path id="Path_16924" data-name="Path 16924" d="M161.48,276.274h12.952V262.41H161.48Zm12.684-.268H161.748V262.678h12.416Z" transform="translate(-83.691 -192.07)" fill="#e6e6e6"/>
    <path id="Path_16925" data-name="Path 16925" d="M110.63,276.274H123.6V262.41H110.63Zm12.684-.268H110.9V262.678h12.43Z" transform="translate(-19.224 -192.07)" fill="#e6e6e6"/>
    <path id="Path_16926" data-name="Path 16926" d="M59.78,276.274H72.732V262.41H59.78Zm12.684-.268H60.048V262.678H72.464Z" transform="translate(45.269 -192.07)" fill="#e6e6e6"/>
    <rect id="Rectangle_25558" data-name="Rectangle 25558" width="42.945" height="36.565" transform="translate(18.316 10.8)" fill="#e6e6e6"/>
    <rect id="Rectangle_25559" data-name="Rectangle 25559" width="43.489" height="36.565" transform="translate(18.737 10.8)" fill="#f5f5f5"/>
    <rect id="Rectangle_25560" data-name="Rectangle 25560" width="33.056" height="40.02" transform="translate(60.491 12.556) rotate(90)" fill="#fafafa"/>
    <path id="Path_16927" data-name="Path 16927" d="M326.59,79.9,342.341,46.84h5.35L331.94,79.9Z" transform="translate(-301.208 -34.284)" fill="#fff"/>
    <path id="Path_16928" data-name="Path 16928" d="M307.19,79.9,322.941,46.84h3.683L310.873,79.9Z" transform="translate(-274.941 -34.284)" fill="#fff"/>
    <rect id="Rectangle_25561" data-name="Rectangle 25561" width="33.056" height="2.069" transform="translate(47.7 12.558) rotate(90)" fill="#e6e6e6"/>
    <rect id="Rectangle_25562" data-name="Rectangle 25562" width="33.056" height="2.069" transform="translate(33.943 12.558) rotate(90)" fill="#e6e6e6"/>
    <rect id="Rectangle_25563" data-name="Rectangle 25563" width="35.474" height="2.616" transform="translate(48.622 11.253) rotate(90)" fill="#f5f5f5"/>
    <rect id="Rectangle_25564" data-name="Rectangle 25564" width="35.474" height="2.616" transform="translate(34.865 11.253) rotate(90)" fill="#f5f5f5"/>
    <rect id="Rectangle_25565" data-name="Rectangle 25565" width="33.056" height="0.185" transform="translate(60.491 12.558) rotate(90)" fill="#e6e6e6"/>
    <path id="Path_16929" data-name="Path 16929" d="M311.058,31.88H264.533a.222.222,0,0,0-.222.222h0a.225.225,0,0,0,.222.225h46.526a.225.225,0,0,0,.222-.225h0A.222.222,0,0,0,311.058,31.88Z" transform="translate(-248.104 -23.334)" fill="#e6e6e6"/>
    <path id="Path_16930" data-name="Path 16930" d="M430.843,33.964h0a.306.306,0,0,1-.3-.3v-.649a.306.306,0,0,1,.3-.3h0a.306.306,0,0,1,.3.3v.649A.306.306,0,0,1,430.843,33.964Z" transform="translate(-412.527 -23.942)" fill="#e6e6e6"/>
    <path id="Path_16931" data-name="Path 16931" d="M276.9,33.964h0a.306.306,0,0,1-.3-.3v-.649a.306.306,0,0,1,.3-.3h0a.306.306,0,0,1,.3.3v.649A.306.306,0,0,1,276.9,33.964Z" transform="translate(-217.323 -23.942)" fill="#e6e6e6"/>
    <rect id="Rectangle_25566" data-name="Rectangle 25566" width="43.459" height="18.147" transform="translate(19.426 8.771)" fill="#e0e0e0" opacity="0.6"/>
    <rect id="Rectangle_25567" data-name="Rectangle 25567" width="8.42" height="12.84" rx="4.21" transform="translate(102.498 55.514)" fill="#fafafa"/>
    <rect id="Rectangle_25568" data-name="Rectangle 25568" width="8.42" height="1.104" rx="0.552" transform="translate(102.498 54.562)" fill="#e6e6e6"/>
    <rect id="Rectangle_25569" data-name="Rectangle 25569" width="6.109" height="9.32" rx="3.054" transform="translate(79.745 59.033)" fill="#f0f0f0"/>
    <rect id="Rectangle_25570" data-name="Rectangle 25570" width="6.109" height="0.801" rx="0.401" transform="translate(79.745 58.344)" fill="#e6e6e6"/>
    <rect id="Rectangle_25571" data-name="Rectangle 25571" width="11.569" height="7.487" rx="3.743" transform="translate(92.982 60.867)" fill="#f0f0f0"/>
    <rect id="Rectangle_25572" data-name="Rectangle 25572" width="11.569" height="1.517" rx="0.759" transform="translate(92.982 59.559)" fill="#f5f5f5"/>
    <rect id="Rectangle_25573" data-name="Rectangle 25573" width="1.351" height="22.152" transform="translate(56.969 65.622)" fill="#e6e6e6"/>
    <rect id="Rectangle_25574" data-name="Rectangle 25574" width="7.315" height="4.31" transform="translate(19.31 61.309)" fill="#e6e6e6"/>
    <rect id="Rectangle_25575" data-name="Rectangle 25575" width="36.369" height="4.31" transform="translate(26.628 61.309)" fill="#f5f5f5"/>
    <rect id="Rectangle_25576" data-name="Rectangle 25576" width="7.315" height="4.31" transform="translate(19.31 72.822)" fill="#e6e6e6"/>
    <rect id="Rectangle_25577" data-name="Rectangle 25577" width="36.369" height="4.31" transform="translate(26.628 72.819)" fill="#f5f5f5"/>
    <rect id="Rectangle_25578" data-name="Rectangle 25578" width="1.351" height="22.152" transform="translate(20.6 65.622)" fill="#e6e6e6"/>
    <rect id="Rectangle_25579" data-name="Rectangle 25579" width="1.351" height="22.152" transform="translate(26.628 65.622)" fill="#f5f5f5"/>
    <rect id="Rectangle_25580" data-name="Rectangle 25580" width="1.351" height="22.152" transform="translate(61.647 65.622)" fill="#f5f5f5"/>
    <rect id="Rectangle_25581" data-name="Rectangle 25581" width="17.193" height="19.281" transform="translate(98.155 12.639)" fill="#f0f0f0"/>
    <rect id="Rectangle_25582" data-name="Rectangle 25582" width="18.139" height="19.281" transform="translate(98.423 12.639)" fill="#f5f5f5"/>
    <rect id="Rectangle_25583" data-name="Rectangle 25583" width="16.244" height="15.099" transform="translate(99.943 30.4) rotate(-90)" fill="#fff"/>
    <path id="Path_16932" data-name="Path 16932" d="M88.355,65.65a3.029,3.029,0,0,1,1.185,5.822L78.3,76.2V69.622l8.889-3.739A3.037,3.037,0,0,1,88.355,65.65Z" transform="translate(21.64 -48.052)" fill="#f0f0f0"/>
    <rect id="Rectangle_25584" data-name="Rectangle 25584" width="17.193" height="19.281" transform="translate(75.323 22.278)" fill="#f0f0f0"/>
    <rect id="Rectangle_25585" data-name="Rectangle 25585" width="18.139" height="19.281" transform="translate(75.591 22.278)" fill="#f5f5f5"/>
    <rect id="Rectangle_25586" data-name="Rectangle 25586" width="16.244" height="15.099" transform="translate(77.108 40.042) rotate(-90)" fill="#fff"/>
    <path id="Path_16933" data-name="Path 16933" d="M157.9,101.582l9.25-3.892v6.739l-6.841,2.876a3.105,3.105,0,1,1-2.412-5.723Z" transform="translate(-74.943 -71.504)" fill="#f0f0f0"/>
  </g>
  <g id="Shadow" transform="translate(15.04 93.81)">
    <ellipse id="_Path_" data-name="&lt;Path&gt;" cx="51.973" cy="3.034" rx="51.973" ry="3.034" fill="#f5f5f5"/>
  </g>
  <g id="Character" transform="translate(64.659 14.486)">
    <path id="Path_16934" data-name="Path 16934" d="M192.646,57.444c-.268-1.126-3.072-2.2-5.484-.536a5.9,5.9,0,0,0-2.27,6.768c1.295,3.833-5.463,3.691-7.028,10.154-1.236,5.093-.091,12.306,6.806,11.915,10.526-.6,9.618-10.888,10.079-16.292S200.945,57.991,192.646,57.444Z" transform="translate(-175.3 -55.512)" fill="#263238"/>
    <path id="Path_16935" data-name="Path 16935" d="M147.05,114.737c.046.78.137,1.5.239,2.241s.244,1.469.4,2.2.338,1.456.566,2.177a20.064,20.064,0,0,0,.783,2.144l.236.536c.035.08.1.2.147.295s.113.193.169.287a7.891,7.891,0,0,0,.734.978,16.939,16.939,0,0,0,1.608,1.608,29.948,29.948,0,0,0,3.528,2.681l.716-.925c-.5-.491-1.019-.992-1.514-1.5s-.986-1.016-1.453-1.536a20.355,20.355,0,0,1-1.3-1.579,7.3,7.3,0,0,1-.5-.8c-.029-.062-.067-.126-.091-.185s-.051-.107-.08-.2l-.182-.472a26.59,26.59,0,0,1-1.072-3.975c-.137-.681-.236-1.372-.338-2.061s-.18-1.4-.239-2.053Z" transform="translate(-126.228 -98.367)" fill="#ffb573"/>
    <path id="Path_16936" data-name="Path 16936" d="M172.1,104.168c.952.244,1.608,4.163,1.608,4.163l-3.643,2.474s-1.5-4.643-.764-5.691A2.15,2.15,0,0,1,172.1,104.168Z" transform="translate(-149.67 -90.616)" fill="#407bff"/>
    <path id="Path_16937" data-name="Path 16937" d="M173.433,107.87l.732,3.948-1.474,1Z" transform="translate(-151.088 -93.441)" opacity="0.2"/>
    <path id="Path_16938" data-name="Path 16938" d="M140.176,166.83l2.453.391-1.4,1.549s-1.445-.33-1.7-1.257Z" transform="translate(-110.663 -136.597)" fill="#ffb573"/>
    <path id="Path_16939" data-name="Path 16939" d="M137.76,168.6l-1.4,1.517-1.161-.273,1.4-1.549Z" transform="translate(-104.634 -137.665)" fill="#ffb573"/>
    <path id="Path_16940" data-name="Path 16940" d="M185.12,336.04h2.311l.155-5.35h-2.311Z" transform="translate(-167.841 -256.534)" fill="#ffb573"/>
    <path id="Path_16941" data-name="Path 16941" d="M235.83,312.492l2.139.874,2.71-4.675-2.139-.871Z" transform="translate(-234.527 -239.794)" fill="#ffb573"/>
    <path id="Path_16942" data-name="Path 16942" d="M238.9,323.613l-2.23-1.327a.185.185,0,0,0-.241.043l-1.3,1.608a.373.373,0,0,0,.11.536c.785.448,1.188.625,2.169,1.209.6.356,2.024,1.587,2.857,2.083s1.367-.3,1.072-.584a7.916,7.916,0,0,1-2.166-3.262A.614.614,0,0,0,238.9,323.613Z" transform="translate(-235.054 -250.362)" fill="#263238"/>
    <path id="Path_16943" data-name="Path 16943" d="M174.459,349.65h-2.6a.182.182,0,0,0-.182.158l-.3,2.053a.373.373,0,0,0,.37.413c.906-.016,1.34-.07,2.485-.07.7,0,2.144.072,3.123.072s1.021-.96.619-1.045a6.247,6.247,0,0,1-3.134-1.439A.614.614,0,0,0,174.459,349.65Z" transform="translate(-154.789 -270.411)" fill="#263238"/>
    <g id="Group_13469" data-name="Group 13469" transform="translate(2.614 68.026)" opacity="0.2">
      <path id="Path_16944" data-name="Path 16944" d="M187.518,330.7l-.078,2.758H185.13l.078-2.758Z" transform="translate(-170.39 -324.567)"/>
      <path id="Path_16945" data-name="Path 16945" d="M237.227,307.82l2.142.874-1.4,2.407-2.139-.871Z" transform="translate(-235.83 -307.82)"/>
    </g>
    <path id="Path_16946" data-name="Path 16946" d="M186.225,102.73s1.1.389-1.1,13.939h-9.382c.158-3.817.161-6.165-1.665-14.011a28.011,28.011,0,0,1,3.986-.536,29.674,29.674,0,0,1,4.259,0C184.15,102.3,186.225,102.73,186.225,102.73Z" transform="translate(-163.794 -89.177)" fill="#407bff"/>
    <path id="Path_16947" data-name="Path 16947" d="M211.807,115.93c.85.212,1.635,1.139,1.541,2.847a4.1,4.1,0,0,1-.783,2.144c-.15-1.313-.4-2.839-.8-4.79Z" transform="translate(-200.752 -99.341)" opacity="0.2"/>
    <path id="Path_16948" data-name="Path 16948" d="M196.244,106.092a3.863,3.863,0,0,0-1.539,1.876c-1.324-.968-3.123-3.67-3.2-5.283a.357.357,0,0,1,.357-.359,4.757,4.757,0,0,1,.611.024Z" transform="translate(-178.212 -89.382)" fill="#fafafa"/>
    <path id="Path_16949" data-name="Path 16949" d="M182.84,106.067a3.863,3.863,0,0,1,1.539,1.876c1.423-1.043.633-4.482-.182-5.629a3.886,3.886,0,0,0-.863,0Z" transform="translate(-164.808 -89.357)" fill="#fafafa"/>
    <path id="Path_16950" data-name="Path 16950" d="M188.23,84.5c.268,1.37.536,3.881-.421,4.8a9.9,9.9,0,0,0,3.766,3.753c1.9-1.52.493-3.753.493-3.753-1.528-.367-1.488-1.5-1.222-2.565Z" transform="translate(-173.546 -76.335)" fill="#ffb573"/>
    <path id="Path_16951" data-name="Path 16951" d="M194.441,87.9l1.549,1.319a4.216,4.216,0,0,0-.131.756c-.584-.083-1.5-.582-1.63-1.217A1.824,1.824,0,0,1,194.441,87.9Z" transform="translate(-178.685 -78.824)" opacity="0.2"/>
    <path id="Path_16952" data-name="Path 16952" d="M186.86,65.283c.633,2.2.855,3.15,2.238,4.045a2.931,2.931,0,0,0,4.686-2.26c.035-2.115-1.008-5.361-3.394-5.766a3.125,3.125,0,0,0-3.53,3.981Z" transform="translate(-174.47 -59.322)" fill="#ffb573"/>
    <path id="Path_16953" data-name="Path 16953" d="M200.019,60.551c-.1.745-4.184,3.142-4.959,1.876s.34-2.187,2.077-2.412A4.4,4.4,0,0,1,200.019,60.551Z" transform="translate(-182.872 -58.374)" fill="#263238"/>
    <path id="Path_16954" data-name="Path 16954" d="M207.508,63.66c.5.662-.56,5.409-2.08,4.964s-1.45-1.968-.394-3.369A4.072,4.072,0,0,1,207.508,63.66Z" transform="translate(-193.02 -61.082)" fill="#263238"/>
    <path id="Path_16955" data-name="Path 16955" d="M179.84,156.62s1.823,17.793,1.667,24.843c-.158,7.329-2.844,24.042-2.844,24.042h-3.123s.493-16.284.217-23.481c-.3-7.846-2.793-25.4-2.793-25.4Z" transform="translate(-158.514 -129.123)" fill="#407bff"/>
    <path id="Path_16956" data-name="Path 16956" d="M179.84,156.62s1.823,17.793,1.667,24.843c-.158,7.329-2.844,24.042-2.844,24.042h-3.123s.493-16.284.217-23.481c-.3-7.846-2.793-25.4-2.793-25.4Z" transform="translate(-158.514 -129.123)" opacity="0.4"/>
    <path id="Path_16957" data-name="Path 16957" d="M181.752,335.823h3.664l.268-1.169-4.1-.145Z" transform="translate(-164.99 -259.33)" fill="#263238"/>
    <path id="Path_16958" data-name="Path 16958" d="M192.17,170.137c2.305,4.637.464,13.094-.351,16.241-.418-4.726-1.123-10.5-1.673-14.743C190.5,169.233,191.109,168,192.17,170.137Z" transform="translate(-174.891 -138.212)" opacity="0.2"/>
    <path id="Path_16959" data-name="Path 16959" d="M204.758,156.576s-2.126,18.5-3.731,24.444c-1.906,7.052-9.65,19.085-9.65,19.085l-2.916-1.193s5-13.7,6.457-17.423c3.109-7.929.448-19.745,2.932-24.929Z" transform="translate(-185.908 -129.08)" fill="#407bff"/>
    <path id="Path_16960" data-name="Path 16960" d="M204.758,156.576s-2.126,18.5-3.731,24.444c-1.906,7.052-9.65,19.085-9.65,19.085l-2.916-1.193s5-13.7,6.457-17.423c3.109-7.929.448-19.745,2.932-24.929Z" transform="translate(-185.908 -129.08)" opacity="0.4"/>
    <path id="Path_16961" data-name="Path 16961" d="M234.07,310.711l3.619,1.477.85-.978-4.179-1.93Z" transform="translate(-231.915 -240.863)" fill="#263238"/>
    <path id="Path_16962" data-name="Path 16962" d="M97.987,58a15.761,15.761,0,1,1-22.248,1.356A15.761,15.761,0,0,1,97.987,58ZM78.749,79.739a13.269,13.269,0,1,0-4.456-9.133A13.266,13.266,0,0,0,78.749,79.739Z" transform="translate(-53.176 -54.041)" fill="#263238"/>
    <path id="Path_16963" data-name="Path 16963" d="M98.073,91.767A12.159,12.159,0,1,0,85.206,80.372,12.159,12.159,0,0,0,98.073,91.767Z" transform="translate(-62.968 -63.871)" fill="#407bff" opacity="0.3"/>
    <g id="Group_13470" data-name="Group 13470" transform="translate(23.701 3.626)" opacity="0.5">
      <path id="Path_16964" data-name="Path 16964" d="M92.369,67.57H92.6l12.631,11.178.016.231a12.108,12.108,0,0,1-2,7.452L85.223,70.46a12.094,12.094,0,0,1,7.146-2.89Z" transform="translate(-82.446 -67.57)" fill="#fafafa"/>
      <path id="Path_16965" data-name="Path 16965" d="M98.06,82.6l18.209,16.115a12.18,12.18,0,0,1-2.048,1.863L96.46,84.852a12.171,12.171,0,0,1,1.6-2.252Z" transform="translate(-96.46 -78.571)" fill="#fafafa"/>
    </g>
    <path id="Path_16966" data-name="Path 16966" d="M164.655,153.689l2.075,1.836a.761.761,0,0,0,1.072-.067h0a.761.761,0,0,0-.064-1.072l-2.075-1.836a.761.761,0,0,0-1.072.064h0A.761.761,0,0,0,164.655,153.689Z" transform="translate(-142.694 -126.005)" fill="#263238"/>
    <path id="Path_16967" data-name="Path 16967" d="M183.921,155.267c-1.563,1.378-3.058,2.815-4.535,4.267s-2.919,2.949-4.345,4.434-2.825,3.021-4.214,4.557c-1.3,1.608-3.077,2.8-3.343,5.321a1.276,1.276,0,0,0,1.137,1.4,1.207,1.207,0,0,0,.418-.027c2.477-.568,3.439-2.477,4.876-3.964q2.032-2.345,4-4.736t3.873-4.852c1.265-1.64,2.509-3.3,3.686-5.021a1.048,1.048,0,0,0-1.557-1.383Z" transform="translate(-161.195 -127.936)" fill="#263238"/>
    <path id="Path_16968" data-name="Path 16968" d="M197.137,74.462c.04.182.169.308.29.268s.182-.2.142-.378-.169-.308-.29-.281S197.1,74.279,197.137,74.462Z" transform="translate(-181.053 -68.699)" fill="#263238"/>
    <path id="Path_16969" data-name="Path 16969" d="M189.468,72.821c.04.182.172.308.289.284s.182-.2.142-.378-.169-.308-.29-.268S189.427,72.642,189.468,72.821Z" transform="translate(-171.328 -67.517)" fill="#263238"/>
    <path id="Path_16970" data-name="Path 16970" d="M189.24,71.9l.41-.222S189.5,72.071,189.24,71.9Z" transform="translate(-171.01 -66.952)" fill="#263238"/>
    <path id="Path_16971" data-name="Path 16971" d="M189.82,75.58a4.985,4.985,0,0,0,.906,1.019.8.8,0,0,1-.622.268Z" transform="translate(-172.241 -69.806)" fill="#ed893e"/>
    <path id="Path_16972" data-name="Path 16972" d="M195.235,82.6a1.729,1.729,0,0,0,.268-.04.051.051,0,0,0,.04-.064.054.054,0,0,0-.064-.043,1.485,1.485,0,0,1-1.3-.3.056.056,0,0,0-.078.078A1.547,1.547,0,0,0,195.235,82.6Z" transform="translate(-178.206 -74.613)" fill="#263238"/>
    <path id="Path_16973" data-name="Path 16973" d="M206.74,81.184a1.683,1.683,0,0,0,1.072.7c.579.1.8-.424.608-.941-.182-.466-.708-1.072-1.265-.957a.753.753,0,0,0-.415,1.193Z" transform="translate(-194.498 -73.025)" fill="#ffb573"/>
    <path id="Path_16974" data-name="Path 16974" d="M197.647,70.732a.1.1,0,0,0,.121-.038,1.3,1.3,0,0,1,.957-.407.1.1,0,0,0,.11-.107.107.107,0,0,0-.107-.11,1.518,1.518,0,0,0-1.137.5.11.11,0,0,0,.024.153Z" transform="translate(-182.427 -65.773)" fill="#263238"/>
    <path id="Path_16975" data-name="Path 16975" d="M190.141,67.3a.11.11,0,0,0,.091-.062.113.113,0,0,0-.048-.147,1.091,1.091,0,0,0-1-.016.11.11,0,1,0,.11.19.866.866,0,0,1,.791.021A.11.11,0,0,0,190.141,67.3Z" transform="translate(-171.573 -63.495)" fill="#263238"/>
    <path id="Path_16976" data-name="Path 16976" d="M240.99,328.933h.035a.311.311,0,0,0,.225-.2.188.188,0,0,0-.013-.19c-.169-.241-1.005-.209-1.1-.206a.056.056,0,0,0-.048.038.051.051,0,0,0,.013.056C240.31,328.632,240.7,328.965,240.99,328.933Zm-.724-.5c.335,0,.783.035.871.164a.083.083,0,0,1,0,.083.217.217,0,0,1-.147.139c-.153.032-.418-.113-.724-.386Z" transform="translate(-236.259 -254.806)" fill="#407bff"/>
    <path id="Path_16977" data-name="Path 16977" d="M240.837,326.7c.287-.032.8-.228.874-.453a.19.19,0,0,0-.08-.225.287.287,0,0,0-.236-.056c-.33.064-.673.633-.689.657a.07.07,0,0,0,0,.056.056.056,0,0,0,.048.027A.456.456,0,0,0,240.837,326.7Zm.592-.63a.185.185,0,0,1,.134.038c.056.043.054.078.043.1-.054.153-.469.34-.748.381.123-.185.359-.48.555-.517Z" transform="translate(-236.875 -253.07)" fill="#407bff"/>
    <path id="Path_16978" data-name="Path 16978" d="M180.469,349.552a.86.86,0,0,0,.56-.142.3.3,0,0,0,.1-.268.177.177,0,0,0-.091-.147c-.284-.155-1.206.316-1.308.37a.054.054,0,0,0-.029.056.051.051,0,0,0,.043.046A3.817,3.817,0,0,0,180.469,349.552Zm.413-.477a.217.217,0,0,1,.1.019.072.072,0,0,1,.038.059.206.206,0,0,1-.064.177,1.471,1.471,0,0,1-1.032.062A2.949,2.949,0,0,1,180.882,349.075Z" transform="translate(-159.933 -269.909)" fill="#407bff"/>
    <path id="Path_16979" data-name="Path 16979" d="M181.905,348.014h.021c.268-.126.82-.625.777-.885,0-.062-.054-.139-.2-.155a.405.405,0,0,0-.3.094,1.524,1.524,0,0,0-.346.893.048.048,0,0,0,.021.048A.075.075,0,0,0,181.905,348.014Zm.549-.938h.035c.1,0,.1.051.107.062.027.158-.343.536-.625.721a1.265,1.265,0,0,1,.295-.713A.268.268,0,0,1,182.455,347.076Z" transform="translate(-162.085 -268.451)" fill="#407bff"/>
    <path id="Path_16980" data-name="Path 16980" d="M196.91,73.6l.41-.222S197.173,73.771,196.91,73.6Z" transform="translate(-180.736 -68.196)" fill="#263238"/>
    <path id="Path_16981" data-name="Path 16981" d="M178.336,154.374l-.239.839c-.032.067.043.131.153.131h9.669c.083,0,.153-.04.158-.094l.086-.839c0-.059-.067-.107-.161-.107h-9.5A.169.169,0,0,0,178.336,154.374Z" transform="translate(-166.534 -127.427)" fill="#407bff"/>
    <path id="Path_16982" data-name="Path 16982" d="M178.336,154.374l-.239.839c-.032.067.043.131.153.131h9.669c.083,0,.153-.04.158-.094l.086-.839c0-.059-.067-.107-.161-.107h-9.5A.169.169,0,0,0,178.336,154.374Z" transform="translate(-166.534 -127.427)" opacity="0.2"/>
    <path id="Path_16983" data-name="Path 16983" d="M209.349,155.236h-.255c-.051,0-.088-.027-.086-.056l.121-1.094c0-.029.048-.056.1-.056h.268c.051,0,.091.027.086.056l-.118,1.094A.132.132,0,0,1,209.349,155.236Z" transform="translate(-196.238 -127.228)" fill="#407bff"/>
    <path id="Path_16984" data-name="Path 16984" d="M209.349,155.236h-.255c-.051,0-.088-.027-.086-.056l.121-1.094c0-.029.048-.056.1-.056h.268c.051,0,.091.027.086.056l-.118,1.094A.132.132,0,0,1,209.349,155.236Z" transform="translate(-196.238 -127.228)" fill="#fff" opacity="0.4"/>
    <path id="Path_16985" data-name="Path 16985" d="M181.24,155.236h-.255c-.051,0-.088-.027-.086-.056l.118-1.094c0-.029.048-.056.1-.056h.255c.051,0,.088.027.086.056l-.118,1.094C181.334,155.209,181.291,155.236,181.24,155.236Z" transform="translate(-160.581 -127.228)" fill="#407bff"/>
    <path id="Path_16986" data-name="Path 16986" d="M181.24,155.236h-.255c-.051,0-.088-.027-.086-.056l.118-1.094c0-.029.048-.056.1-.056h.255c.051,0,.088.027.086.056l-.118,1.094C181.334,155.209,181.291,155.236,181.24,155.236Z" transform="translate(-160.581 -127.228)" fill="#fff" opacity="0.4"/>
    <path id="Path_16987" data-name="Path 16987" d="M195.323,155.236h-.268c-.051,0-.088-.027-.086-.056l.118-1.094c0-.029.048-.056.1-.056h.255c.051,0,.088.027.086.056l-.118,1.094C195.417,155.209,195.374,155.236,195.323,155.236Z" transform="translate(-178.423 -127.228)" fill="#407bff"/>
    <path id="Path_16988" data-name="Path 16988" d="M195.323,155.236h-.268c-.051,0-.088-.027-.086-.056l.118-1.094c0-.029.048-.056.1-.056h.255c.051,0,.088.027.086.056l-.118,1.094C195.417,155.209,195.374,155.236,195.323,155.236Z" transform="translate(-178.423 -127.228)" fill="#fff" opacity="0.4"/>
    <path id="Path_16989" data-name="Path 16989" d="M185.138,160.829l2.278-1.019-.649,2.257s-1.447.33-2.077-.4Z" transform="translate(-167.556 -131.458)" fill="#ffb573"/>
    <path id="Path_16990" data-name="Path 16990" d="M191.694,114.74c-.1.8-.188,1.584-.281,2.378l-.241,2.386c-.086.8-.15,1.59-.225,2.386l-.1,1.193-.027.3v.507a2.544,2.544,0,0,0,.319.97,4.034,4.034,0,0,0,1.072,1.174,8.577,8.577,0,0,0,1.147.726,16.422,16.422,0,0,0,2.335.978c.785.268,1.573.491,2.364.689s1.581.362,2.4.488l.268-1.142c-.737-.241-1.49-.493-2.222-.772s-1.464-.558-2.166-.877a16.618,16.618,0,0,1-2.005-1.045,6.534,6.534,0,0,1-.842-.608,2.053,2.053,0,0,1-.507-.606.354.354,0,0,1-.043-.166s0-.013,0-.021v-.059l.043-.3.172-1.185c.1-.8.222-1.584.319-2.378l.3-2.378c.086-.8.185-1.587.268-2.383Z" transform="translate(-182.508 -98.47)" fill="#ffb573"/>
    <path id="Path_16991" data-name="Path 16991" d="M212.9,104.21c-.938.287-2.069,3.525-2.069,3.525l3.289,3.385s1.689-3.485,1.295-4.7C215,105.159,213.969,103.886,212.9,104.21Z" transform="translate(-202.617 -90.725)" fill="#407bff"/>
    <path id="Path_16992" data-name="Path 16992" d="M180.193,160.279l-.643,1.86-1.89-.072.649-2.257Z" transform="translate(-158.449 -131.458)" fill="#ffb573"/>
  </g>
  <g id="List_of_people" data-name="List of people" transform="translate(98.307 28.655)">
    <path id="Path_16993" data-name="Path 16993" d="M277.607,114.88a6.782,6.782,0,0,0-6.867-7.98h32.2a6.784,6.784,0,0,1,6.87,7.98Z" transform="translate(-238.327 -106.9)" fill="#263238"/>
    <path id="Path_16994" data-name="Path 16994" d="M277.607,114.88a6.782,6.782,0,0,0-6.867-7.98h32.2a6.784,6.784,0,0,1,6.87,7.98Z" transform="translate(-238.327 -106.9)" fill="#407bff" opacity="0.7"/>
    <path id="Path_16995" data-name="Path 16995" d="M225.82,106.9h32.2a9.481,9.481,0,0,0-9.092,7.98l-7.28,52.227a9.483,9.483,0,0,1-9.092,7.983H216.314a6.786,6.786,0,0,1-6.867-7.983l7.278-52.227A9.483,9.483,0,0,1,225.82,106.9Z" transform="translate(-193.406 -106.9)" fill="#407bff"/>
    <path id="Path_16996" data-name="Path 16996" d="M182.1,331.51a6.786,6.786,0,0,0,6.87,7.983h-32.2a6.786,6.786,0,0,1-6.867-7.983Z" transform="translate(-149.819 -271.303)" fill="#263238"/>
    <path id="Path_16997" data-name="Path 16997" d="M182.1,331.51a6.786,6.786,0,0,0,6.87,7.983h-32.2a6.786,6.786,0,0,1-6.867-7.983Z" transform="translate(-149.819 -271.303)" fill="#407bff" opacity="0.7"/>
    <path id="Path_16998" data-name="Path 16998" d="M287.915,163.9h12.467a.8.8,0,0,0,.753-.659h0a.566.566,0,0,0-.568-.662H288.1a.788.788,0,0,0-.753.662h0a.563.563,0,0,0,.568.659Z" transform="translate(-250.476 -147.655)" fill="#fff" opacity="0.4"/>
    <path id="Path_16999" data-name="Path 16999" d="M286.635,173.071H295.8a.788.788,0,0,0,.753-.659h0a.563.563,0,0,0-.568-.662H286.82a.788.788,0,0,0-.753.662h0a.563.563,0,0,0,.568.659Z" transform="translate(-249.54 -154.366)" fill="#fff" opacity="0.4"/>
    <ellipse id="Ellipse_517" data-name="Ellipse 517" cx="4.27" cy="3.715" rx="4.27" ry="3.715" transform="matrix(0.731, -0.682, 0.682, 0.731, 23.735, 16.572)" fill="#fff" opacity="0.4"/>
    <path id="Path_17000" data-name="Path 17000" d="M246.11,158.287a3.281,3.281,0,0,0,.193,1.694,3,3,0,0,0,2.868,1.863,4.2,4.2,0,0,0,3.385-1.863,4,4,0,0,0,.665-1.694,3.026,3.026,0,0,0-3.061-3.557A4.225,4.225,0,0,0,246.11,158.287Z" transform="translate(-220.272 -141.909)" fill="#fff"/>
    <path id="Path_17001" data-name="Path 17001" d="M249.82,171.1a2.3,2.3,0,0,0,2.2,1.429,3.217,3.217,0,0,0,2.6-1.429,3.841,3.841,0,0,0-2.3-.726A4.809,4.809,0,0,0,249.82,171.1Z" transform="translate(-223.015 -153.356)" fill="#263238" opacity="0.4"/>
    <path id="Path_17002" data-name="Path 17002" d="M255.347,161.433a1.035,1.035,0,0,0,1.048,1.214,1.442,1.442,0,0,0,1.383-1.214,1.032,1.032,0,0,0-1.045-1.214A1.445,1.445,0,0,0,255.347,161.433Z" transform="translate(-227.048 -145.926)" fill="#263238" opacity="0.4"/>
    <path id="Path_17003" data-name="Path 17003" d="M282.335,203.971h4.206a.788.788,0,0,0,.753-.659h0a.563.563,0,0,0-.568-.662h-4.208a.785.785,0,0,0-.751.662h0a.563.563,0,0,0,.568.659Z" transform="translate(-246.392 -176.984)" fill="#fff" opacity="0.4"/>
    <path id="Path_17004" data-name="Path 17004" d="M307.5,203.971h6.01a.788.788,0,0,0,.753-.659h0a.563.563,0,0,0-.568-.662h-6.01a.788.788,0,0,0-.753.662h0a.563.563,0,0,0,.568.659Z" transform="translate(-264.808 -176.984)" fill="#fff" opacity="0.4"/>
    <path id="Path_17005" data-name="Path 17005" d="M281.055,213.141h10.3a.788.788,0,0,0,.753-.659h0a.563.563,0,0,0-.568-.662h-10.3a.788.788,0,0,0-.751.662h0a.563.563,0,0,0,.568.659Z" transform="translate(-245.455 -183.696)" fill="#fff" opacity="0.4"/>
    <ellipse id="Ellipse_518" data-name="Ellipse 518" cx="4.27" cy="3.715" rx="4.27" ry="3.715" transform="matrix(0.731, -0.682, 0.682, 0.731, 22.24, 27.312)" fill="#fff" opacity="0.4"/>
    <path id="Path_17006" data-name="Path 17006" d="M240.522,198.374a3.281,3.281,0,0,0,.2,1.694,3,3,0,0,0,2.855,1.863,4.184,4.184,0,0,0,3.385-1.863,3.969,3.969,0,0,0,.667-1.694,3.024,3.024,0,0,0-3.061-3.554A4.222,4.222,0,0,0,240.522,198.374Z" transform="translate(-216.183 -171.253)" fill="#fff"/>
    <path id="Path_17007" data-name="Path 17007" d="M244.23,211.166a2.305,2.305,0,0,0,2.2,1.429,3.217,3.217,0,0,0,2.6-1.429,3.836,3.836,0,0,0-2.3-.726A4.825,4.825,0,0,0,244.23,211.166Z" transform="translate(-218.923 -182.685)" fill="#263238" opacity="0.4"/>
    <path id="Path_17008" data-name="Path 17008" d="M249.766,201.5a1.035,1.035,0,0,0,1.045,1.217A1.445,1.445,0,0,0,252.2,201.5a1.032,1.032,0,0,0-1.045-1.214A1.445,1.445,0,0,0,249.766,201.5Z" transform="translate(-222.963 -175.256)" fill="#263238" opacity="0.4"/>
    <path id="Path_17009" data-name="Path 17009" d="M276.738,244.041h7.326a.788.788,0,0,0,.753-.659h0a.563.563,0,0,0-.568-.662H276.92a.788.788,0,0,0-.753.662h0a.563.563,0,0,0,.571.659Z" transform="translate(-242.293 -206.313)" fill="#fff" opacity="0.4"/>
    <path id="Path_17010" data-name="Path 17010" d="M275.425,253.218h11.422a.788.788,0,0,0,.753-.659h0a.566.566,0,0,0-.571-.659H275.61a.788.788,0,0,0-.753.659h0a.563.563,0,0,0,.568.659Z" transform="translate(-241.334 -213.032)" fill="#fff" opacity="0.4"/>
    <path id="Path_17011" data-name="Path 17011" d="M228.182,290.811H245.67a1.107,1.107,0,0,0,1.056-.927h0a.788.788,0,0,0-.8-.925H228.439a1.1,1.1,0,0,0-1.053.925h0a.788.788,0,0,0,.8.927Z" transform="translate(-206.585 -240.157)" fill="#fff" opacity="0.2"/>
    <path id="Path_17012" data-name="Path 17012" d="M226.393,303.671h12.85a1.1,1.1,0,0,0,1.053-.927h0a.788.788,0,0,0-.8-.925H226.65a1.1,1.1,0,0,0-1.056.925h0a.8.8,0,0,0,.8.927Z" transform="translate(-205.275 -249.57)" fill="#fff" opacity="0.2"/>
    <path id="Path_17013" data-name="Path 17013" d="M251.956,135.847h20.852a.568.568,0,0,0,.536-.48h0a.407.407,0,0,0-.413-.477H252.09a.574.574,0,0,0-.536.477h0a.41.41,0,0,0,.4.48Z" transform="translate(-224.279 -127.387)" fill="#fff" opacity="0.2"/>
    <ellipse id="Ellipse_519" data-name="Ellipse 519" cx="4.27" cy="3.715" rx="4.27" ry="3.715" transform="matrix(0.731, -0.682, 0.682, 0.731, 20.742, 38.055)" fill="#fff" opacity="0.4"/>
    <path id="Path_17014" data-name="Path 17014" d="M234.9,238.444a3.278,3.278,0,0,0,.193,1.694,3,3,0,0,0,2.868,1.876,4.19,4.19,0,0,0,3.385-1.876,3.986,3.986,0,0,0,.665-1.694,3.025,3.025,0,0,0-3.061-3.554A4.224,4.224,0,0,0,234.9,238.444Z" transform="translate(-212.067 -200.582)" fill="#fff"/>
    <path id="Path_17015" data-name="Path 17015" d="M238.65,251.236a2.3,2.3,0,0,0,2.2,1.429,3.216,3.216,0,0,0,2.6-1.429,3.841,3.841,0,0,0-2.3-.726A4.808,4.808,0,0,0,238.65,251.236Z" transform="translate(-214.839 -212.014)" fill="#263238" opacity="0.4"/>
    <path id="Path_17016" data-name="Path 17016" d="M244.176,241.573a1.035,1.035,0,0,0,1.048,1.217,1.442,1.442,0,0,0,1.383-1.217,1.032,1.032,0,0,0-1.045-1.214A1.445,1.445,0,0,0,244.176,241.573Z" transform="translate(-218.871 -204.585)" fill="#263238" opacity="0.4"/>
  </g>
</svg>
