<svg id="Group_13958" data-name="Group 13958" xmlns="http://www.w3.org/2000/svg" xmlns:xlink="http://www.w3.org/1999/xlink" width="77.45" height="77.443" viewBox="0 0 77.45 77.443">
  <defs>
    <linearGradient id="linear-gradient" x1="0.194" y1="0.766" x2="0.032" y2="0.908" gradientUnits="objectBoundingBox">
      <stop offset="0" stop-color="#36a9e1"/>
      <stop offset="0.24" stop-color="#33a3dc"/>
      <stop offset="0.58" stop-color="#2b91cf"/>
      <stop offset="0.97" stop-color="#1e73ba"/>
      <stop offset="1" stop-color="#1d71b8"/>
    </linearGradient>
    <radialGradient id="radial-gradient" cx="1.018" cy="0.073" r="0.364" gradientTransform="matrix(-0.797, 0.605, -0.605, -0.797, 1.874, -0.484)" gradientUnits="objectBoundingBox">
      <stop offset="0" stop-color="#c51515"/>
      <stop offset="1" stop-color="#afa515"/>
    </radialGradient>
  </defs>
  <path id="Path_17179" data-name="Path 17179" d="M442.555,0a8.2,8.2,0,0,1,8.195,8.195v51.22a1.659,1.659,0,0,0,1.639,1.639h51.227a8.195,8.195,0,0,1,0,16.389H452.388A18.048,18.048,0,0,1,434.36,59.415V8.195A8.2,8.2,0,0,1,442.555,0Z" transform="translate(-434.36 0)" fill="url(#linear-gradient)"/>
  <g id="Group_13636" data-name="Group 13636" transform="translate(0 0)" opacity="0.9">
    <path id="Path_17180" data-name="Path 17180" d="M442.555,0a8.2,8.2,0,0,1,8.195,8.195v51.22a1.659,1.659,0,0,0,1.639,1.639h51.227a8.195,8.195,0,0,1,0,16.389H452.388A18.048,18.048,0,0,1,434.36,59.415V8.195A8.2,8.2,0,0,1,442.555,0Z" transform="translate(-434.36)" fill="url(#radial-gradient)"/>
  </g>
  <g id="Group_13637" data-name="Group 13637" transform="translate(2.362 40.206)" opacity="0.3">
    <path id="Path_17181" data-name="Path 17181" d="M528.391,37.276l-.721.072c-.472.039-1.16.125-2.039.19-1.75.144-4.261.334-7.27.485-1.508.085-3.134.17-4.858.229l-2.622.1-1.37.046h-1.455l-1.423-.039a13.107,13.107,0,0,1-1.56-.184,11.747,11.747,0,0,1-1.547-.308l-.767-.19c-.256-.066-.5-.17-.747-.256a18.546,18.546,0,0,1-5.612-3.042,19.845,19.845,0,0,1-4.248-4.766,17.5,17.5,0,0,1-2.34-5.7l-.17-.728c-.052-.243-.072-.492-.1-.734-.059-.485-.144-.964-.157-1.442,0-.964-.039-1.908,0-2.753.059-1.724.144-3.357.229-4.858.151-3.009.341-5.52.492-7.27s.262-2.76.262-2.76.111,1,.256,2.76.341,4.261.492,7.27c.085,1.5.17,3.134.229,4.858,0,.885.1,1.7.184,2.55.052.426.151.846.216,1.272.046.21.072.426.125.656l.184.656a17.191,17.191,0,0,0,.9,2.511l.616,1.213c.216.4.479.78.715,1.173a17.378,17.378,0,0,0,3.737,4.078,16.1,16.1,0,0,0,4.825,2.708c.216.079.426.17.656.236l.656.177a9.008,9.008,0,0,0,1.311.321c.433.072.839.17,1.311.223l1.416.1,5.369.19c1.724.059,3.35.144,4.858.229,3.009.151,5.52.341,7.27.485.878.066,1.567.151,2.039.19Z" transform="translate(-489.36 -3.37)" fill="#f6f6f6"/>
  </g>
</svg>
