<svg id="Asset_1" data-name="Asset 1" xmlns="http://www.w3.org/2000/svg" width="69.786" height="59.88" viewBox="0 0 69.786 59.88">
  <g id="Layer_1" data-name="Layer 1">
    <path id="Path_4651" data-name="Path 4651" d="M7.98,71.518H23.805a1.138,1.138,0,0,0,1.133-1.133V57.933A1.138,1.138,0,0,0,23.805,56.8H7.98Z" transform="translate(41.434 -32.506)" fill="#f15424"/>
    <path id="Path_4652" data-name="Path 4652" d="M19.85,103.661a1.133,1.133,0,0,0,1.133,1.146h4.529a1.146,1.146,0,0,0,.8-.329,1.125,1.125,0,0,0,.329-.8V91.21H19.85Z" transform="translate(34.654 -52.198)" fill="#cccbca"/>
    <path id="Path_4653" data-name="Path 4653" d="M47.63,69.223l19.341-6.788V47.718L47.63,40.93Z" transform="translate(-17.557 -23.424)" fill="#e6e5e5"/>
    <path id="Path_4654" data-name="Path 4654" d="M66.971,74.01v7.357L47.63,88.154V74.01Z" transform="translate(-17.557 -42.355)" fill="#cccbca"/>
    <path id="Path_4655" data-name="Path 4655" d="M101.2,65.45v7.318a3.661,3.661,0,0,1,0-7.318Z" transform="translate(-73.181 -37.456)" fill="#3e4959"/>
    <rect id="Rectangle_24476" data-name="Rectangle 24476" width="2.464" height="0.74" transform="translate(20.308 31.283)" fill="#cccbca"/>
    <rect id="Rectangle_24477" data-name="Rectangle 24477" width="0.74" height="2.464" transform="translate(21.034 34.945) rotate(-112.47)" fill="#cccbca"/>
    <rect id="Rectangle_24478" data-name="Rectangle 24478" width="0.74" height="2.464" transform="matrix(-0.707, -0.707, 0.707, -0.707, 22.824, 37.364)" fill="#cccbca"/>
    <rect id="Rectangle_24479" data-name="Rectangle 24479" width="0.74" height="2.464" transform="translate(25.406 38.908) rotate(-157.48)" fill="#cccbca"/>
    <rect id="Rectangle_24480" data-name="Rectangle 24480" width="2.464" height="0.74" transform="translate(23.031 29.983) rotate(-157.45)" fill="#cccbca"/>
    <rect id="Rectangle_24481" data-name="Rectangle 24481" width="2.464" height="0.74" transform="translate(24.049 28.208) rotate(-134.98)" fill="#cccbca"/>
    <rect id="Rectangle_24482" data-name="Rectangle 24482" width="2.464" height="0.74" transform="translate(25.672 26.946) rotate(-112.48)" fill="#cccbca"/>
    <path id="Path_4656" data-name="Path 4656" d="M92.85,68.18a.57.57,0,0,0,.565.565h1.133a.569.569,0,0,0,.565-.565v-30a.565.565,0,0,0-.167-.4.552.552,0,0,0-.4-.167H93.415a.556.556,0,0,0-.4.167.565.565,0,0,0-.167.4Z" transform="translate(-65.04 -21.529)" fill="#242d3c"/>
    <path id="Path_4657" data-name="Path 4657" d="M0,72.475H2.263A1.133,1.133,0,0,0,3.4,71.367V64.553A1.139,1.139,0,0,0,2.263,63.42H0Z" transform="translate(66.39 -36.294)" fill="#242d3c"/>
    <path id="Path_4658" data-name="Path 4658" d="M35.73,95.32h2.335V91.21h-.9Z" transform="translate(16.438 -52.198)" fill="#242d3c"/>
    <rect id="Rectangle_24483" data-name="Rectangle 24483" width="0.329" height="11.317" transform="translate(57.9 25.992)" fill="#ff6d3b"/>
    <rect id="Rectangle_24484" data-name="Rectangle 24484" width="0.329" height="11.317" transform="translate(58.978 25.992)" fill="#ff6d3b"/>
    <rect id="Rectangle_24485" data-name="Rectangle 24485" width="0.329" height="11.317" transform="translate(60.055 25.992)" fill="#ff6d3b"/>
    <rect id="Rectangle_24486" data-name="Rectangle 24486" width="0.329" height="11.317" transform="translate(61.133 25.992)" fill="#ff6d3b"/>
    <rect id="Rectangle_24487" data-name="Rectangle 24487" width="0.329" height="11.317" transform="translate(62.207 25.992)" fill="#ff6d3b"/>
    <rect id="Rectangle_24488" data-name="Rectangle 24488" width="0.329" height="11.317" transform="translate(63.289 25.992)" fill="#ff6d3b"/>
    <rect id="Rectangle_24489" data-name="Rectangle 24489" width="0.329" height="11.317" transform="translate(64.362 25.992)" fill="#ff6d3b"/>
    <path id="Path_4659" data-name="Path 4659" d="M114.7,116.07a4.649,4.649,0,1,1-4.645,4.649A4.649,4.649,0,0,1,114.7,116.07Zm0,5.689a1.039,1.039,0,1,0-1.035-1.039A1.039,1.039,0,0,0,114.7,121.759Z" transform="translate(-96.647 -66.425)" fill="#242d3c"/>
    <rect id="Rectangle_24490" data-name="Rectangle 24490" width="1.24" height="0.992" transform="translate(17.438 48.708)" fill="#242d3c"/>
    <rect id="Rectangle_24491" data-name="Rectangle 24491" width="1.24" height="0.992" transform="translate(20.893 50.625) rotate(-150.02)" fill="#242d3c"/>
    <rect id="Rectangle_24492" data-name="Rectangle 24492" width="1.24" height="0.992" transform="translate(22.349 52.54) rotate(-119.97)" fill="#242d3c"/>
    <rect id="Rectangle_24493" data-name="Rectangle 24493" width="0.992" height="1.24" transform="translate(22.652 53.674)" fill="#242d3c"/>
    <rect id="Rectangle_24494" data-name="Rectangle 24494" width="0.992" height="1.24" transform="translate(22.591 57.632) rotate(-150.02)" fill="#242d3c"/>
    <rect id="Rectangle_24495" data-name="Rectangle 24495" width="0.992" height="1.24" transform="translate(20.315 59.44) rotate(-120.02)" fill="#242d3c"/>
    <rect id="Rectangle_24496" data-name="Rectangle 24496" width="1.24" height="0.992" transform="translate(17.438 58.888)" fill="#242d3c"/>
    <rect id="Rectangle_24497" data-name="Rectangle 24497" width="1.24" height="0.992" transform="translate(15.804 59.447) rotate(-150)" fill="#242d3c"/>
    <rect id="Rectangle_24498" data-name="Rectangle 24498" width="1.24" height="0.992" transform="matrix(-0.5, -0.866, 0.866, -0.5, 13.534, 57.623)" fill="#242d3c"/>
    <rect id="Rectangle_24499" data-name="Rectangle 24499" width="0.992" height="1.24" transform="translate(12.472 53.674)" fill="#242d3c"/>
    <rect id="Rectangle_24500" data-name="Rectangle 24500" width="0.992" height="1.24" transform="translate(13.773 52.526) rotate(-150.02)" fill="#242d3c"/>
    <rect id="Rectangle_24501" data-name="Rectangle 24501" width="0.996" height="1.245" transform="translate(15.011 50.453) rotate(-119.887)" fill="#242d3c"/>
    <path id="Path_4660" data-name="Path 4660" d="M117.873,121.58a2.293,2.293,0,1,1-2.293,2.293,2.293,2.293,0,0,1,2.293-2.293Zm0,3.323a1.031,1.031,0,1,0-1.031-1.031,1.031,1.031,0,0,0,1.031,1.031Z" transform="translate(-99.814 -69.579)" fill="#cccbca"/>
    <path id="Path_4661" data-name="Path 4661" d="M106.523,5.58c3.225,0,5.834,2.083,5.834,4.649a4.183,4.183,0,0,1-1.262,2.891,1.886,1.886,0,0,0-.475,1.3,2.044,2.044,0,0,0,.6,1.446,2.994,2.994,0,0,1-2.139-1.463,7.023,7.023,0,0,1-2.566.47c-3.221,0-5.834-2.079-5.834-4.649S103.3,5.58,106.523,5.58Z" transform="translate(-85.633 -3.193)" fill="#e6e5e5"/>
    <path id="Path_4662" data-name="Path 4662" d="M109.33,15.878a.428.428,0,1,0,.428-.428A.428.428,0,0,0,109.33,15.878Z" transform="translate(-87.162 -8.842)" fill="#242d3c"/>
    <path id="Path_4663" data-name="Path 4663" d="M113.28,15.878a.428.428,0,1,0,.428-.428A.428.428,0,0,0,113.28,15.878Z" transform="translate(-92.801 -8.842)" fill="#242d3c"/>
    <path id="Path_4664" data-name="Path 4664" d="M117.23,15.878a.428.428,0,1,0,.428-.428A.428.428,0,0,0,117.23,15.878Z" transform="translate(-98.441 -8.842)" fill="#242d3c"/>
    <path id="Path_4665" data-name="Path 4665" d="M114.97,6.253H121.9L123.02,3.46Z" transform="translate(-102.408 -1.98)" fill="#e64717"/>
    <path id="Path_4666" data-name="Path 4666" d="M117.59,4.273h6.929L123.022,0Z" transform="translate(-105.028)" fill="#ff6d3b"/>
    <path id="Path_4667" data-name="Path 4667" d="M149.507,33.12v5.543H142.9l-1.382,1.382V38.663h-.877V33.12Z" transform="translate(-139.874 -18.954)" fill="#ff6d3b"/>
    <path id="Path_4668" data-name="Path 4668" d="M147.1,37.368a1.664,1.664,0,1,0,.487-1.181A1.668,1.668,0,0,0,147.1,37.368Z" transform="translate(-143.567 -20.431)" fill="#fff"/>
    <path id="Path_4669" data-name="Path 4669" d="M151.228,38.31l-.958.552.958.552Z" transform="translate(-145.715 -21.924)" fill="#242d3c"/>
    <path id="Path_4670" data-name="Path 4670" d="M138.434,68.56l6.728,4.863v8.191H131.71V73.423Z" transform="translate(-131.71 -39.236)" fill="#fb3"/>
    <rect id="Rectangle_24502" data-name="Rectangle 24502" width="11.163" height="11.086" transform="translate(1.142 27.284)" fill="#e6e5e5"/>
    <rect id="Rectangle_24503" data-name="Rectangle 24503" width="4.055" height="4.055" transform="translate(6.908 28.973)" fill="#ff6d3b"/>
    <rect id="Rectangle_24504" data-name="Rectangle 24504" width="3.867" height="0.432" transform="translate(2.267 28.973)" fill="#242d3c"/>
    <rect id="Rectangle_24505" data-name="Rectangle 24505" width="3.867" height="0.432" transform="translate(2.267 30.179)" fill="#242d3c"/>
    <rect id="Rectangle_24506" data-name="Rectangle 24506" width="3.867" height="0.436" transform="translate(2.267 31.386)" fill="#242d3c"/>
    <rect id="Rectangle_24507" data-name="Rectangle 24507" width="3.867" height="0.432" transform="translate(2.267 32.592)" fill="#242d3c"/>
    <rect id="Rectangle_24508" data-name="Rectangle 24508" width="8.695" height="0.436" transform="translate(2.267 33.798)" fill="#242d3c"/>
    <rect id="Rectangle_24509" data-name="Rectangle 24509" width="4.346" height="0.436" transform="translate(6.617 35.004)" fill="#242d3c"/>
    <path id="Path_4671" data-name="Path 4671" d="M147.44,79.93v8.191l6.724-4.1Z" transform="translate(-147.44 -45.743)" fill="#ffd85c"/>
    <path id="Path_4672" data-name="Path 4672" d="M131.71,84.023l6.728,4.1V79.93Z" transform="translate(-124.986 -45.743)" fill="#ffd85c"/>
    <path id="Path_4673" data-name="Path 4673" d="M131.71,93.6h13.452l-6.728-4.1Z" transform="translate(-131.71 -51.22)" fill="#fb3"/>
  </g>
</svg>
