<svg id="Asset_1" data-name="Asset 1" xmlns="http://www.w3.org/2000/svg" width="54.872" height="64.399" viewBox="0 0 54.872 64.399">
  <g id="Layer_1" data-name="Layer 1">
    <rect id="Rectangle_24510" data-name="Rectangle 24510" width="17.241" height="17.241" transform="translate(37.631 19.768)" fill="#e6e5e5"/>
    <rect id="Rectangle_24511" data-name="Rectangle 24511" width="17.241" height="8.621" transform="translate(37.631 28.389)" fill="#f15424"/>
    <rect id="Rectangle_24512" data-name="Rectangle 24512" width="2.536" height="0.44" transform="translate(43.498 33.727)" fill="#fff"/>
    <rect id="Rectangle_24513" data-name="Rectangle 24513" width="5.068" height="0.44" transform="translate(43.498 32.484)" fill="#fff"/>
    <rect id="Rectangle_24514" data-name="Rectangle 24514" width="5.068" height="0.44" transform="translate(43.498 31.236)" fill="#fff"/>
    <rect id="Rectangle_24515" data-name="Rectangle 24515" width="34.096" height="48.223" transform="translate(0 10.095)" fill="#e6e5e5"/>
    <rect id="Rectangle_24516" data-name="Rectangle 24516" width="22.144" height="1.43" transform="translate(5.974 24.84)" fill="#f15424"/>
    <rect id="Rectangle_24517" data-name="Rectangle 24517" width="22.144" height="0.537" transform="translate(5.974 31.449)" fill="#242d3c"/>
    <rect id="Rectangle_24518" data-name="Rectangle 24518" width="22.144" height="0.533" transform="translate(5.974 32.968)" fill="#242d3c"/>
    <rect id="Rectangle_24519" data-name="Rectangle 24519" width="22.144" height="0.533" transform="translate(5.974 34.487)" fill="#242d3c"/>
    <rect id="Rectangle_24520" data-name="Rectangle 24520" width="22.144" height="0.537" transform="translate(5.974 36.005)" fill="#242d3c"/>
    <rect id="Rectangle_24521" data-name="Rectangle 24521" width="8.612" height="0.537" transform="translate(12.742 37.524)" fill="#242d3c"/>
    <rect id="Rectangle_24522" data-name="Rectangle 24522" width="22.144" height="0.537" transform="translate(5.974 29.93)" fill="#242d3c"/>
    <rect id="Rectangle_24523" data-name="Rectangle 24523" width="22.144" height="0.533" transform="translate(5.974 28.415)" fill="#242d3c"/>
    <rect id="Rectangle_24524" data-name="Rectangle 24524" width="34.096" height="10.717" transform="translate(0 10.095)" fill="#f15424"/>
    <rect id="Rectangle_24525" data-name="Rectangle 24525" width="17.441" height="1.43" transform="translate(12.795 11.88)" fill="#fff"/>
    <rect id="Rectangle_24526" data-name="Rectangle 24526" width="3.087" height="0.537" transform="translate(12.795 18.489)" fill="#242d3c"/>
    <rect id="Rectangle_24527" data-name="Rectangle 24527" width="6.173" height="0.533" transform="translate(12.795 16.97)" fill="#242d3c"/>
    <rect id="Rectangle_24528" data-name="Rectangle 24528" width="6.173" height="0.537" transform="translate(12.795 15.456)" fill="#242d3c"/>
    <path id="Path_4674" data-name="Path 4674" d="M11.216,30.353A3.553,3.553,0,1,1,7.663,26.8,3.553,3.553,0,0,1,11.216,30.353Z" transform="translate(-2.285 -14.897)" fill="#fff"/>
    <rect id="Rectangle_24529" data-name="Rectangle 24529" width="32.253" height="19.351" transform="translate(22.611 45.048)" fill="#f15424"/>
    <path id="Path_4675" data-name="Path 4675" d="M50.88,101.43l16.135,11.934,16.14-11.934Z" transform="translate(-28.283 -56.382)" fill="#242d3c"/>
    <rect id="Rectangle_24530" data-name="Rectangle 24530" width="18.231" height="12.151" transform="translate(0.608 46.021)" fill="#242d3c"/>
    <rect id="Rectangle_24531" data-name="Rectangle 24531" width="1.856" height="0.302" transform="translate(7.026 52.945)" fill="#fff"/>
    <rect id="Rectangle_24532" data-name="Rectangle 24532" width="3.713" height="0.302" transform="translate(7.026 52.096)" fill="#fff"/>
    <rect id="Rectangle_24533" data-name="Rectangle 24533" width="3.713" height="0.298" transform="translate(7.026 51.239)" fill="#fff"/>
    <path id="Path_4676" data-name="Path 4676" d="M0,0V6.662H54.872V0ZM2.74,4.441a1.106,1.106,0,1,1,.786-.324A1.11,1.11,0,0,1,2.74,4.441Z" fill="#242d3c"/>
    <rect id="Rectangle_24534" data-name="Rectangle 24534" width="0.244" height="0.982" transform="translate(53.375 5.676)" fill="#fff"/>
    <rect id="Rectangle_24535" data-name="Rectangle 24535" width="0.244" height="0.982" transform="translate(52.007 5.676)" fill="#fff"/>
    <rect id="Rectangle_24536" data-name="Rectangle 24536" width="0.249" height="0.982" transform="translate(50.631 5.676)" fill="#fff"/>
    <rect id="Rectangle_24537" data-name="Rectangle 24537" width="0.244" height="0.982" transform="translate(49.263 5.676)" fill="#fff"/>
    <rect id="Rectangle_24538" data-name="Rectangle 24538" width="0.244" height="0.982" transform="translate(47.89 5.676)" fill="#fff"/>
    <rect id="Rectangle_24539" data-name="Rectangle 24539" width="0.244" height="0.982" transform="translate(46.518 5.676)" fill="#fff"/>
    <rect id="Rectangle_24540" data-name="Rectangle 24540" width="0.244" height="0.982" transform="translate(45.146 5.676)" fill="#fff"/>
    <rect id="Rectangle_24541" data-name="Rectangle 24541" width="0.244" height="0.982" transform="translate(43.773 5.676)" fill="#fff"/>
    <rect id="Rectangle_24542" data-name="Rectangle 24542" width="0.244" height="0.982" transform="translate(42.401 5.676)" fill="#fff"/>
    <rect id="Rectangle_24543" data-name="Rectangle 24543" width="0.244" height="0.982" transform="translate(41.029 5.676)" fill="#fff"/>
    <rect id="Rectangle_24544" data-name="Rectangle 24544" width="0.244" height="0.982" transform="translate(39.661 5.676)" fill="#fff"/>
    <rect id="Rectangle_24545" data-name="Rectangle 24545" width="0.244" height="0.982" transform="translate(38.288 5.676)" fill="#fff"/>
    <rect id="Rectangle_24546" data-name="Rectangle 24546" width="0.244" height="0.982" transform="translate(36.916 5.676)" fill="#fff"/>
    <rect id="Rectangle_24547" data-name="Rectangle 24547" width="0.244" height="0.982" transform="translate(35.544 5.676)" fill="#fff"/>
    <rect id="Rectangle_24548" data-name="Rectangle 24548" width="0.244" height="0.982" transform="translate(34.171 5.676)" fill="#fff"/>
    <rect id="Rectangle_24549" data-name="Rectangle 24549" width="0.249" height="0.982" transform="translate(32.799 5.676)" fill="#fff"/>
    <rect id="Rectangle_24550" data-name="Rectangle 24550" width="0.244" height="0.982" transform="translate(31.427 5.676)" fill="#fff"/>
    <rect id="Rectangle_24551" data-name="Rectangle 24551" width="0.244" height="0.982" transform="translate(30.054 5.676)" fill="#fff"/>
    <rect id="Rectangle_24552" data-name="Rectangle 24552" width="0.249" height="0.982" transform="translate(28.682 5.676)" fill="#fff"/>
    <rect id="Rectangle_24553" data-name="Rectangle 24553" width="0.244" height="0.982" transform="translate(27.314 5.676)" fill="#fff"/>
    <rect id="Rectangle_24554" data-name="Rectangle 24554" width="0.244" height="0.982" transform="translate(25.942 5.676)" fill="#fff"/>
    <rect id="Rectangle_24555" data-name="Rectangle 24555" width="0.244" height="0.982" transform="translate(24.569 5.676)" fill="#fff"/>
    <rect id="Rectangle_24556" data-name="Rectangle 24556" width="0.244" height="0.982" transform="translate(23.197 5.676)" fill="#fff"/>
    <rect id="Rectangle_24557" data-name="Rectangle 24557" width="0.249" height="0.982" transform="translate(21.824 5.676)" fill="#fff"/>
    <rect id="Rectangle_24558" data-name="Rectangle 24558" width="0.244" height="0.982" transform="translate(20.452 5.676)" fill="#fff"/>
    <rect id="Rectangle_24559" data-name="Rectangle 24559" width="0.244" height="0.982" transform="translate(19.084 5.676)" fill="#fff"/>
    <rect id="Rectangle_24560" data-name="Rectangle 24560" width="0.249" height="0.982" transform="translate(17.707 5.676)" fill="#fff"/>
    <rect id="Rectangle_24561" data-name="Rectangle 24561" width="0.244" height="0.982" transform="translate(16.339 5.676)" fill="#fff"/>
    <rect id="Rectangle_24562" data-name="Rectangle 24562" width="0.244" height="0.982" transform="translate(14.967 5.676)" fill="#fff"/>
    <rect id="Rectangle_24563" data-name="Rectangle 24563" width="0.244" height="0.982" transform="translate(13.595 5.676)" fill="#fff"/>
    <rect id="Rectangle_24564" data-name="Rectangle 24564" width="0.244" height="0.982" transform="translate(12.222 5.676)" fill="#fff"/>
    <rect id="Rectangle_24565" data-name="Rectangle 24565" width="0.249" height="0.982" transform="translate(10.85 5.676)" fill="#fff"/>
    <rect id="Rectangle_24566" data-name="Rectangle 24566" width="0.244" height="0.982" transform="translate(9.478 5.676)" fill="#fff"/>
    <rect id="Rectangle_24567" data-name="Rectangle 24567" width="0.244" height="0.982" transform="translate(8.105 5.676)" fill="#fff"/>
    <rect id="Rectangle_24568" data-name="Rectangle 24568" width="0.249" height="0.982" transform="translate(6.733 5.676)" fill="#fff"/>
    <rect id="Rectangle_24569" data-name="Rectangle 24569" width="0.244" height="0.982" transform="translate(5.365 5.676)" fill="#fff"/>
    <rect id="Rectangle_24570" data-name="Rectangle 24570" width="0.244" height="0.982" transform="translate(3.993 5.676)" fill="#fff"/>
    <rect id="Rectangle_24571" data-name="Rectangle 24571" width="0.244" height="0.982" transform="translate(2.62 5.676)" fill="#fff"/>
    <rect id="Rectangle_24572" data-name="Rectangle 24572" width="0.244" height="0.982" transform="translate(1.248 5.676)" fill="#fff"/>
    <path id="Path_4677" data-name="Path 4677" d="M11.148,30.27a3.62,3.62,0,1,1-1.062-2.561A3.624,3.624,0,0,1,11.148,30.27Z" transform="translate(-2.168 -14.814)" fill="#16c6cc"/>
    <path id="Path_4678" data-name="Path 4678" d="M11.309,31.065A2.985,2.985,0,1,1,8.325,28.08,2.985,2.985,0,0,1,11.309,31.065Z" transform="translate(-2.968 -15.609)" fill="#d9d8d7"/>
    <path id="Path_4679" data-name="Path 4679" d="M11.344,31.237A2.847,2.847,0,1,1,8.5,28.39,2.847,2.847,0,0,1,11.344,31.237Z" transform="translate(-3.141 -15.781)" fill="#fff"/>
    <path id="Path_4680" data-name="Path 4680" d="M12.046,28.841a.071.071,0,1,1-.022-.052A.071.071,0,0,1,12.046,28.841Z" transform="translate(-6.615 -15.992)" fill="#242d3c"/>
    <path id="Path_4681" data-name="Path 4681" d="M9.11,29.6a.071.071,0,0,1-.027.1.076.076,0,0,1-.1-.027.067.067,0,0,1,.027-.1A.076.076,0,0,1,9.11,29.6Z" transform="translate(-4.988 -16.432)" fill="#242d3c"/>
    <path id="Path_4682" data-name="Path 4682" d="M6.933,31.709a.076.076,0,0,1,.027.1.067.067,0,0,1-.1.027.074.074,0,1,1,.071-.129Z" transform="translate(-3.793 -17.622)" fill="#242d3c"/>
    <path id="Path_4683" data-name="Path 4683" d="M6.085,34.627a.071.071,0,1,1-.064.015A.071.071,0,0,1,6.085,34.627Z" transform="translate(-3.331 -19.247)" fill="#242d3c"/>
    <path id="Path_4684" data-name="Path 4684" d="M6.864,37.569a.071.071,0,0,1,.1.031.072.072,0,1,1-.124.071A.076.076,0,0,1,6.864,37.569Z" transform="translate(-3.795 -20.879)" fill="#242d3c"/>
    <path id="Path_4685" data-name="Path 4685" d="M8.988,39.744a.07.07,0,1,1,.027.1A.075.075,0,0,1,8.988,39.744Z" transform="translate(-4.99 -22.072)" fill="#242d3c"/>
    <path id="Path_4686" data-name="Path 4686" d="M11.9,40.565a.071.071,0,1,1,.022.052A.071.071,0,0,1,11.9,40.565Z" transform="translate(-6.615 -22.507)" fill="#242d3c"/>
    <path id="Path_4687" data-name="Path 4687" d="M14.839,39.865a.08.08,0,0,1,.027-.1.076.076,0,0,1,.076.129.084.084,0,0,1-.1-.027Z" transform="translate(-8.244 -22.1)" fill="#242d3c"/>
    <path id="Path_4688" data-name="Path 4688" d="M17.012,37.7a.071.071,0,0,1-.027-.1.076.076,0,0,1,.1-.027.08.08,0,0,1,.031.1.076.076,0,0,1-.1.027Z" transform="translate(-9.435 -20.879)" fill="#242d3c"/>
    <path id="Path_4689" data-name="Path 4689" d="M17.835,34.816a.074.074,0,1,1,.071-.071.071.071,0,0,1-.071.071Z" transform="translate(-9.872 -19.272)" fill="#242d3c"/>
    <path id="Path_4690" data-name="Path 4690" d="M17.085,31.86a.067.067,0,0,1-.1,0,.076.076,0,0,1,.027-.1.071.071,0,0,1,.1.027.076.076,0,0,1-.027.076Z" transform="translate(-9.437 -17.648)" fill="#242d3c"/>
    <path id="Path_4691" data-name="Path 4691" d="M14.967,29.665a.076.076,0,0,1-.1.027.071.071,0,0,1-.027-.1.076.076,0,0,1,.1-.027.067.067,0,0,1,.027.1Z" transform="translate(-8.243 -16.43)" fill="#242d3c"/>
    <rect id="Rectangle_24573" data-name="Rectangle 24573" width="0.178" height="1.443" transform="translate(5.267 15.456)" fill="#242d3c"/>
    <rect id="Rectangle_24574" data-name="Rectangle 24574" width="1.79" height="0.12" transform="translate(5.507 15.393)" fill="#242d3c"/>
    <path id="Path_4692" data-name="Path 4692" d="M11.979,34.335a.333.333,0,1,1-.153-.32.333.333,0,0,1,.153.32Z" transform="translate(-6.29 -18.879)" fill="#242d3c"/>
    <rect id="Rectangle_24575" data-name="Rectangle 24575" width="0.071" height="2.385" transform="translate(3.963 14.112) rotate(-44.94)" fill="#f15424"/>
    <path id="Path_4693" data-name="Path 4693" d="M12,34.522a.222.222,0,1,1-.222-.222A.222.222,0,0,1,12,34.522Z" transform="translate(-6.426 -19.066)" fill="#f15424"/>
    <path id="Path_4694" data-name="Path 4694" d="M12.032,34.661a.111.111,0,1,1-.111-.111A.111.111,0,0,1,12.032,34.661Z" transform="translate(-6.565 -19.205)" fill="#242d3c"/>
  </g>
</svg>
