<svg id="Group_12330" data-name="Group 12330" xmlns="http://www.w3.org/2000/svg" xmlns:xlink="http://www.w3.org/1999/xlink" width="61.909" height="61.893" viewBox="0 0 61.909 61.893">
  <defs>
    <clipPath id="clip-path">
      <path id="dark" d="M20.43,0a2.466,2.466,0,0,0-2.476,2.456V14.738a6.3,6.3,0,0,1-6.191,6.3H10.525c-.981,0-2.593,2.107-3.715,3.714H1.238c-.595,0-1.117.672-1.236,1.229.111-.5,0,3.723,0,3.723H35.9c0,.322-.006.977-.009,1.883,0-.087.013-.169.013-.265V23.509c0-1.356-.49-2.476-1.857-2.476h-3.1V2.456A2.466,2.466,0,0,0,28.478,0ZM0,25.986l0-.009Zm50.765,6.191c-.683,0-5.572,3.031-5.572,3.714h-6.81v16.1h6.81c0,.683,4.889,3.714,5.572,3.714h2.476a1.239,1.239,0,0,0,1.238-1.238V33.414a1.239,1.239,0,0,0-1.238-1.238Z" transform="translate(54.48 55.702) rotate(180)" fill="#1c3c50"/>
    </clipPath>
    <clipPath id="clip-path-2">
      <path id="base" d="M900,762h35.907a7.429,7.429,0,0,1,7.429,7.429v17.335a7.429,7.429,0,0,1-7.429,7.429H900C900.031,794.193,900.044,761.969,900,762Z" transform="translate(-900 -762)" fill="#ebeeef"/>
    </clipPath>
    <filter id="slider_button" x="41.336" y="8.048" width="8.191" height="9.655" filterUnits="userSpaceOnUse">
      <feOffset dx="-2" dy="3.464" input="SourceAlpha"/>
      <feGaussianBlur result="blur"/>
      <feFlood flood-color="#000100" flood-opacity="0.149"/>
      <feComposite operator="in" in2="blur"/>
      <feComposite in="SourceGraphic"/>
    </filter>
  </defs>
  <g id="dark-2" data-name="dark" transform="translate(0 6.191)">
    <path id="dark-3" data-name="dark" d="M20.43,0a2.466,2.466,0,0,0-2.476,2.456V14.738a6.3,6.3,0,0,1-6.191,6.3H10.525c-.981,0-2.593,2.107-3.715,3.714H1.238c-.595,0-1.117.672-1.236,1.229.111-.5,0,3.723,0,3.723H35.9c0,.322-.006.977-.009,1.883,0-.087.013-.169.013-.265V23.509c0-1.356-.49-2.476-1.857-2.476h-3.1V2.456A2.466,2.466,0,0,0,28.478,0ZM0,25.986l0-.009Zm50.765,6.191c-.683,0-5.572,3.031-5.572,3.714h-6.81v16.1h6.81c0,.683,4.889,3.714,5.572,3.714h2.476a1.239,1.239,0,0,0,1.238-1.238V33.414a1.239,1.239,0,0,0-1.238-1.238Z" transform="translate(54.48 55.702) rotate(180)" fill="#1c3c50"/>
    <g id="Clip" transform="translate(0 0)" clip-path="url(#clip-path)">
      <path id="light" d="M0,0V3.714H29.1V0ZM43.336,11.144V34.669H47.67V11.144Zm-6.81,3.714v16.1h1.857v-16.1Z" transform="translate(47.67 34.669) rotate(180)" fill="#23475f"/>
    </g>
  </g>
  <g id="base-2" data-name="base" transform="translate(18.573 0)">
    <path id="base-3" data-name="base" d="M900,762h35.907a7.429,7.429,0,0,1,7.429,7.429v17.335a7.429,7.429,0,0,1-7.429,7.429H900C900.031,794.193,900.044,761.969,900,762Z" transform="translate(-900 -762)" fill="#ebeeef"/>
    <g id="Clip-2" data-name="Clip" clip-path="url(#clip-path-2)">
      <rect id="shadow" width="43.336" height="9.905" transform="translate(0 22.287)" fill="#bcc4c8"/>
    </g>
  </g>
  <path id="line" d="M1041.238,762h1.238c0,.021,0,32.2,0,32.193h-1.238a1.238,1.238,0,0,1-1.238-1.238V763.239A1.238,1.238,0,0,1,1041.238,762Z" transform="translate(-1023.904 -762.001)" fill="#23475f"/>
  <ellipse id="button_white" data-name="button white" cx="3.715" cy="3.715" rx="3.715" ry="3.715" transform="translate(24.764 7.429)" fill="#fff"/>
  <ellipse id="button_red" data-name="button red" cx="2.476" cy="2.476" rx="2.476" ry="2.476" transform="translate(26.002 8.667)" fill="#ff4b39"/>
  <path id="slider" d="M923.238,790H938.1a1.238,1.238,0,0,1,1.238,1.238v2.476a1.238,1.238,0,0,1-1.238,1.238H923.238A1.238,1.238,0,0,1,922,793.715v-2.476A1.238,1.238,0,0,1,923.238,790Z" transform="translate(-884.236 -781.333)" fill="#00bd9c"/>
  <g transform="matrix(1, 0, 0, 1, 0, 0)" filter="url(#slider_button)">
    <path id="slider_button-2" data-name="slider button" d="M941.238,788h3.715a1.238,1.238,0,0,1,1.238,1.238v3.715a1.238,1.238,0,0,1-1.238,1.238h-3.715A1.238,1.238,0,0,1,940,792.953v-3.715A1.238,1.238,0,0,1,941.238,788Z" transform="translate(-896.66 -779.95)" fill="#1c3c50"/>
  </g>
  <rect id="line-2" data-name="line" width="1.238" height="6.191" transform="translate(45.813 8.048)" fill="#23475f"/>
</svg>
