<svg xmlns="http://www.w3.org/2000/svg" xmlns:xlink="http://www.w3.org/1999/xlink" width="110.594" height="62.842" viewBox="0 0 110.594 62.842">
  <defs>
    <clipPath id="clip-path">
      <path id="Path_17335" data-name="Path 17335" d="M177.982,133.071c-8.784,4.154-18.121,16.367-27.633,14.388l-.361-.076c-6.492-1.374-10.914-25.423-22.316-16.694-14.667,11.228-4.883,25.877-3.066,32.134,4.416,15.21,47.46,27.364,79.673,8.707,20.35-11.785,29.21-40.715,14.019-47.879C211.07,120.242,191.483,126.686,177.982,133.071Z" transform="translate(-119.728 -122.707)" fill="none"/>
    </clipPath>
    <clipPath id="clip-path-2">
      <path id="Path_17241" data-name="Path 17241" d="M2613.522,307.978s.572-29.275-2.241-34.19-3.374,3.541-2.855,8.7,2.235,26.113,2.235,26.113Z" transform="translate(-2608.253 -272.307)" fill="none"/>
    </clipPath>
    <clipPath id="clip-path-3">
      <path id="Path_17296" data-name="Path 17296" d="M2481.427,546.124s-3.361-23.753-7.11-28-2.587,4.151-1.035,9.1,5.468,20.087,5.468,20.087Z" transform="translate(-2471.812 -516.969)" fill="none"/>
    </clipPath>
    <clipPath id="clip-path-4">
      <path id="Path_17333" data-name="Path 17333" d="M260.889,572.545s-5.721-26.474-3.96-31.895,4.055,2.795,4.606,7.985,2.3,23.936,2.3,23.936Z" transform="translate(-256.592 -538.871)" fill="none"/>
    </clipPath>
    <clipPath id="clip-path-5">
      <path id="Path_17405" data-name="Path 17405" d="M842.747,409.67l-.1,1.667-1.01-.719Z" transform="translate(-841.64 -409.67)" fill="none"/>
    </clipPath>
  </defs>
  <g id="interview_" data-name="interview " transform="translate(-0.018 -0.001)">
    <g id="Layer_2" data-name="Layer 2" transform="translate(0.018 0.001)">
      <g id="Layer_1" data-name="Layer 1" transform="translate(0)">
        <path id="Path_17237" data-name="Path 17237" d="M94.692,36.512c-2.511,9.669-13.927,17.16-23.95,21.241a58.683,58.683,0,0,1-7.5,2.51,57.893,57.893,0,0,1-6.022,1.2,60.654,60.654,0,0,1-14.437.345,59.168,59.168,0,0,1-19.582-5.3A50.081,50.081,0,0,1,14.777,51.5q-.438-.326-.871-.66A39.666,39.666,0,0,1,4.8,41.05l-.026-.039q-.576-.9-1.074-1.8C-3.088,26.879-.232,11.283,10.121,4.154,19.061-2,30.753.506,30.759.507c11.57,2.649,14.551,9.776,21.916,13.3,4.488,2.149,10.927,3.731,22.651,3.858q2.248.025,4.764-.024C93.438,17.379,96.964,27.767,94.692,36.512Z" transform="translate(-0.018 -0.001)" fill="#f3f6fd"/>
        <path id="Path_17238" data-name="Path 17238" d="M308.567,565.082q-.224.134-.453.268l-.2.12c-32.213,18.656-75.257,6.5-79.673-8.706-3.933-13.548,4.513-26.743,22.709-19.029.114.048,22.453,4.476,31.237.323C323.751,518.4,337.735,547.641,308.567,565.082Z" transform="translate(-218.985 -512.093)" fill="#0e2946"/>
        <g id="Group_13928" data-name="Group 13928" transform="translate(4.374 4.483)" clip-path="url(#clip-path)">
          <path id="Path_17239" data-name="Path 17239" d="M2735.44,311.319s-1.388-16.2,1.035-27.4,4.5-12.654,5.4-11.1-1.587,26.524-4.379,38.788Z" transform="translate(-2639.494 -266.837)" fill="#fc9020"/>
          <g id="Group_13919" data-name="Group 13919" transform="translate(96.207 9.281)" opacity="0.4">
            <path id="Path_17240" data-name="Path 17240" d="M2753.147,412.106h-.009a.1.1,0,0,1-.1-.113c1.365-17.715,4.486-34.983,4.518-35.156a.105.105,0,0,1,.172-.064.1.1,0,0,1,.034.1c-.031.172-3.15,17.43-4.515,35.134A.106.106,0,0,1,2753.147,412.106Z" transform="translate(-2753.042 -376.748)" fill="#f1f2f2"/>
          </g>
          <g id="Group_13920" data-name="Group 13920" transform="translate(90.917 5.466)" clip-path="url(#clip-path-2)">
            <rect id="Rectangle_25729" data-name="Rectangle 25729" width="6.187" height="0.297" transform="translate(-0.346 35.998)" fill="#34297b"/>
            <rect id="Rectangle_25730" data-name="Rectangle 25730" width="6.187" height="0.365" transform="translate(-0.346 35.633)" fill="#352a7c"/>
            <rect id="Rectangle_25731" data-name="Rectangle 25731" width="6.187" height="0.365" transform="translate(-0.346 35.267)" fill="#362b7c"/>
            <rect id="Rectangle_25732" data-name="Rectangle 25732" width="6.187" height="0.365" transform="translate(-0.346 34.902)" fill="#372b7d"/>
            <rect id="Rectangle_25733" data-name="Rectangle 25733" width="6.187" height="0.365" transform="translate(-0.346 34.536)" fill="#392c7e"/>
            <rect id="Rectangle_25734" data-name="Rectangle 25734" width="6.187" height="0.365" transform="translate(-0.346 34.171)" fill="#3a2c7f"/>
            <rect id="Rectangle_25735" data-name="Rectangle 25735" width="6.187" height="0.365" transform="translate(-0.346 33.805)" fill="#3b2d7f"/>
            <rect id="Rectangle_25736" data-name="Rectangle 25736" width="6.187" height="0.365" transform="translate(-0.346 33.44)" fill="#3c2d80"/>
            <rect id="Rectangle_25737" data-name="Rectangle 25737" width="6.187" height="0.365" transform="translate(-0.346 33.074)" fill="#3e2e81"/>
            <rect id="Rectangle_25738" data-name="Rectangle 25738" width="6.187" height="0.365" transform="translate(-0.346 32.709)" fill="#3f2f81"/>
            <rect id="Rectangle_25739" data-name="Rectangle 25739" width="6.187" height="0.365" transform="translate(-0.346 32.343)" fill="#402f82"/>
            <rect id="Rectangle_25740" data-name="Rectangle 25740" width="6.187" height="0.365" transform="translate(-0.346 31.978)" fill="#413083"/>
            <rect id="Rectangle_25741" data-name="Rectangle 25741" width="6.187" height="0.365" transform="translate(-0.346 31.613)" fill="#433084"/>
            <rect id="Rectangle_25742" data-name="Rectangle 25742" width="6.187" height="0.365" transform="translate(-0.346 31.247)" fill="#443184"/>
            <rect id="Rectangle_25743" data-name="Rectangle 25743" width="6.187" height="0.365" transform="translate(-0.346 30.882)" fill="#453185"/>
            <rect id="Rectangle_25744" data-name="Rectangle 25744" width="6.187" height="0.365" transform="translate(-0.346 30.516)" fill="#463286"/>
            <rect id="Rectangle_25745" data-name="Rectangle 25745" width="6.187" height="0.365" transform="translate(-0.346 30.151)" fill="#473286"/>
            <rect id="Rectangle_25746" data-name="Rectangle 25746" width="6.187" height="0.365" transform="translate(-0.346 29.785)" fill="#483387"/>
            <rect id="Rectangle_25747" data-name="Rectangle 25747" width="6.187" height="0.365" transform="translate(-0.346 29.42)" fill="#4a3388"/>
            <rect id="Rectangle_25748" data-name="Rectangle 25748" width="6.187" height="0.365" transform="translate(-0.346 29.054)" fill="#4b3488"/>
            <rect id="Rectangle_25749" data-name="Rectangle 25749" width="6.187" height="0.365" transform="translate(-0.346 28.689)" fill="#4c3489"/>
            <rect id="Rectangle_25750" data-name="Rectangle 25750" width="6.187" height="0.365" transform="translate(-0.346 28.323)" fill="#4d358a"/>
            <rect id="Rectangle_25751" data-name="Rectangle 25751" width="6.187" height="0.365" transform="translate(-0.346 27.958)" fill="#4e368a"/>
            <rect id="Rectangle_25752" data-name="Rectangle 25752" width="6.187" height="0.365" transform="translate(-0.346 27.592)" fill="#4f368b"/>
            <rect id="Rectangle_25753" data-name="Rectangle 25753" width="6.187" height="0.365" transform="translate(-0.346 27.227)" fill="#50378c"/>
            <rect id="Rectangle_25754" data-name="Rectangle 25754" width="6.187" height="0.365" transform="translate(-0.346 26.861)" fill="#52378c"/>
            <rect id="Rectangle_25755" data-name="Rectangle 25755" width="6.187" height="0.365" transform="translate(-0.346 26.496)" fill="#53388d"/>
            <rect id="Rectangle_25756" data-name="Rectangle 25756" width="6.187" height="0.365" transform="translate(-0.346 26.131)" fill="#54388d"/>
            <rect id="Rectangle_25757" data-name="Rectangle 25757" width="6.187" height="0.365" transform="translate(-0.346 25.765)" fill="#55398e"/>
            <rect id="Rectangle_25758" data-name="Rectangle 25758" width="6.187" height="0.365" transform="translate(-0.346 25.4)" fill="#56398f"/>
            <rect id="Rectangle_25759" data-name="Rectangle 25759" width="6.187" height="0.365" transform="translate(-0.346 25.034)" fill="#573a8f"/>
            <rect id="Rectangle_25760" data-name="Rectangle 25760" width="6.187" height="0.365" transform="translate(-0.346 24.669)" fill="#583a90"/>
            <rect id="Rectangle_25761" data-name="Rectangle 25761" width="6.187" height="0.365" transform="translate(-0.346 24.303)" fill="#593b91"/>
            <rect id="Rectangle_25762" data-name="Rectangle 25762" width="6.187" height="0.365" transform="translate(-0.346 23.938)" fill="#5a3b91"/>
            <rect id="Rectangle_25763" data-name="Rectangle 25763" width="6.187" height="0.365" transform="translate(-0.346 23.572)" fill="#5b3b92"/>
            <rect id="Rectangle_25764" data-name="Rectangle 25764" width="6.187" height="0.365" transform="translate(-0.346 23.207)" fill="#5c3c92"/>
            <rect id="Rectangle_25765" data-name="Rectangle 25765" width="6.187" height="0.365" transform="translate(-0.346 22.841)" fill="#5d3c93"/>
            <rect id="Rectangle_25766" data-name="Rectangle 25766" width="6.187" height="0.365" transform="translate(-0.346 22.476)" fill="#5e3d93"/>
            <rect id="Rectangle_25767" data-name="Rectangle 25767" width="6.187" height="0.365" transform="translate(-0.346 22.11)" fill="#5f3d94"/>
            <rect id="Rectangle_25768" data-name="Rectangle 25768" width="6.187" height="0.365" transform="translate(-0.346 21.745)" fill="#603e95"/>
            <rect id="Rectangle_25769" data-name="Rectangle 25769" width="6.187" height="0.365" transform="translate(-0.346 21.38)" fill="#613e95"/>
            <rect id="Rectangle_25770" data-name="Rectangle 25770" width="6.187" height="0.365" transform="translate(-0.346 21.014)" fill="#623f96"/>
            <rect id="Rectangle_25771" data-name="Rectangle 25771" width="6.187" height="0.365" transform="translate(-0.346 20.649)" fill="#633f96"/>
            <rect id="Rectangle_25772" data-name="Rectangle 25772" width="6.187" height="0.365" transform="translate(-0.346 20.283)" fill="#644097"/>
            <rect id="Rectangle_25773" data-name="Rectangle 25773" width="6.187" height="0.365" transform="translate(-0.346 19.918)" fill="#654097"/>
            <rect id="Rectangle_25774" data-name="Rectangle 25774" width="6.187" height="0.365" transform="translate(-0.346 19.552)" fill="#664098"/>
            <rect id="Rectangle_25775" data-name="Rectangle 25775" width="6.187" height="0.365" transform="translate(-0.346 19.187)" fill="#674198"/>
            <rect id="Rectangle_25776" data-name="Rectangle 25776" width="6.187" height="0.365" transform="translate(-0.346 18.821)" fill="#684199"/>
            <rect id="Rectangle_25777" data-name="Rectangle 25777" width="6.187" height="0.365" transform="translate(-0.346 18.456)" fill="#694299"/>
            <rect id="Rectangle_25778" data-name="Rectangle 25778" width="6.187" height="0.365" transform="translate(-0.346 18.091)" fill="#6a429a"/>
            <rect id="Rectangle_25779" data-name="Rectangle 25779" width="6.187" height="0.365" transform="translate(-0.346 17.725)" fill="#6a429b"/>
            <rect id="Rectangle_25780" data-name="Rectangle 25780" width="6.187" height="0.365" transform="translate(-0.346 17.359)" fill="#6b439b"/>
            <rect id="Rectangle_25781" data-name="Rectangle 25781" width="6.187" height="0.365" transform="translate(-0.346 16.994)" fill="#6c439b"/>
            <rect id="Rectangle_25782" data-name="Rectangle 25782" width="6.187" height="0.365" transform="translate(-0.346 16.628)" fill="#6d449c"/>
            <rect id="Rectangle_25783" data-name="Rectangle 25783" width="6.187" height="0.365" transform="translate(-0.346 16.263)" fill="#6e449c"/>
            <rect id="Rectangle_25784" data-name="Rectangle 25784" width="6.187" height="0.365" transform="translate(-0.346 15.898)" fill="#6f449d"/>
            <rect id="Rectangle_25785" data-name="Rectangle 25785" width="6.187" height="0.365" transform="translate(-0.346 15.532)" fill="#6f459d"/>
            <rect id="Rectangle_25786" data-name="Rectangle 25786" width="6.187" height="0.365" transform="translate(-0.346 15.167)" fill="#70459e"/>
            <rect id="Rectangle_25787" data-name="Rectangle 25787" width="6.187" height="0.365" transform="translate(-0.346 14.801)" fill="#71459e"/>
            <rect id="Rectangle_25788" data-name="Rectangle 25788" width="6.187" height="0.365" transform="translate(-0.346 14.436)" fill="#72469f"/>
            <rect id="Rectangle_25789" data-name="Rectangle 25789" width="6.187" height="0.365" transform="translate(-0.346 14.07)" fill="#72469f"/>
            <rect id="Rectangle_25790" data-name="Rectangle 25790" width="6.187" height="0.365" transform="translate(-0.346 13.705)" fill="#7346a0"/>
            <rect id="Rectangle_25791" data-name="Rectangle 25791" width="6.187" height="0.365" transform="translate(-0.346 13.339)" fill="#7447a0"/>
            <rect id="Rectangle_25792" data-name="Rectangle 25792" width="6.187" height="0.365" transform="translate(-0.346 12.974)" fill="#7547a0"/>
            <rect id="Rectangle_25793" data-name="Rectangle 25793" width="6.187" height="0.365" transform="translate(-0.346 12.609)" fill="#7547a1"/>
            <rect id="Rectangle_25794" data-name="Rectangle 25794" width="6.187" height="0.365" transform="translate(-0.346 12.243)" fill="#7648a1"/>
            <rect id="Rectangle_25795" data-name="Rectangle 25795" width="6.187" height="0.365" transform="translate(-0.346 11.877)" fill="#7748a1"/>
            <rect id="Rectangle_25796" data-name="Rectangle 25796" width="6.187" height="0.365" transform="translate(-0.346 11.512)" fill="#7748a2"/>
            <rect id="Rectangle_25797" data-name="Rectangle 25797" width="6.187" height="0.365" transform="translate(-0.346 11.146)" fill="#7848a2"/>
            <rect id="Rectangle_25798" data-name="Rectangle 25798" width="6.187" height="0.365" transform="translate(-0.346 10.781)" fill="#7849a2"/>
            <rect id="Rectangle_25799" data-name="Rectangle 25799" width="6.187" height="0.365" transform="translate(-0.346 10.416)" fill="#7949a3"/>
            <rect id="Rectangle_25800" data-name="Rectangle 25800" width="6.187" height="0.365" transform="translate(-0.346 10.05)" fill="#7949a3"/>
            <rect id="Rectangle_25801" data-name="Rectangle 25801" width="6.187" height="0.365" transform="translate(-0.346 9.685)" fill="#7a49a3"/>
            <rect id="Rectangle_25802" data-name="Rectangle 25802" width="6.187" height="0.365" transform="translate(-0.346 9.319)" fill="#7a4aa4"/>
            <rect id="Rectangle_25803" data-name="Rectangle 25803" width="6.187" height="0.365" transform="translate(-0.346 8.954)" fill="#7b4aa4"/>
            <rect id="Rectangle_25804" data-name="Rectangle 25804" width="6.187" height="0.365" transform="translate(-0.346 8.588)" fill="#7b4aa4"/>
            <rect id="Rectangle_25805" data-name="Rectangle 25805" width="6.187" height="0.365" transform="translate(-0.346 8.223)" fill="#7b4aa4"/>
            <rect id="Rectangle_25806" data-name="Rectangle 25806" width="6.187" height="11.656" transform="translate(-0.346 -3.433)" fill="#7b4aa4"/>
          </g>
          <g id="Group_13921" data-name="Group 13921" transform="translate(92.51 8.307)" opacity="0.4">
            <path id="Path_17242" data-name="Path 17242" d="M2654.3,383.224a.105.105,0,0,1-.1-.1,320.539,320.539,0,0,0-2.349-32.9.1.1,0,0,1,.2-.059,320.189,320.189,0,0,1,2.358,32.959.105.105,0,0,1-.1.106Z" transform="translate(-2651.844 -350.084)" fill="#f1f2f2"/>
          </g>
          <g id="Group_13922" data-name="Group 13922" transform="translate(85.932 14.404)" clip-path="url(#clip-path-3)">
            <path id="Path_17243" data-name="Path 17243" d="M2700.77,1337.089l1.252-.4v.4Z" transform="translate(-2692.405 -1306.742)" fill="#282474"/>
            <path id="Path_17244" data-name="Path 17244" d="M2662.76,1325.412l2.64-.842v.443l-1.251.4Z" transform="translate(-2655.784 -1295.065)" fill="#292575"/>
            <path id="Path_17245" data-name="Path 17245" d="M2656.317,1313.735l-.117-.366,2.88-.918v.443l-2.64.842Z" transform="translate(-2649.463 -1283.387)" fill="#2b2576"/>
            <path id="Path_17246" data-name="Path 17246" d="M2652.828,1301.691l-.128-.4,3.008-.959v.443Z" transform="translate(-2646.091 -1271.71)" fill="#2c2677"/>
            <path id="Path_17247" data-name="Path 17247" d="M2649.318,1289.6l-.128-.4,3.136-1v.443Z" transform="translate(-2642.709 -1260.023)" fill="#2d2677"/>
            <path id="Path_17248" data-name="Path 17248" d="M2645.808,1277.523l-.128-.4,3.264-1.041v.443Z" transform="translate(-2639.328 -1248.346)" fill="#2e2778"/>
            <path id="Path_17249" data-name="Path 17249" d="M2642.3,1265.444l-.128-.4,3.393-1.082v.443Z" transform="translate(-2635.946 -1236.669)" fill="#302879"/>
            <path id="Path_17250" data-name="Path 17250" d="M2638.788,1253.365l-.128-.4,3.521-1.123v.443Z" transform="translate(-2632.564 -1224.992)" fill="#31287a"/>
            <path id="Path_17251" data-name="Path 17251" d="M2635.278,1241.286l-.128-.4,3.649-1.164v.443Z" transform="translate(-2629.182 -1213.315)" fill="#32297a"/>
            <path id="Path_17252" data-name="Path 17252" d="M2631.768,1229.207l-.128-.4,3.777-1.2v.443Z" transform="translate(-2625.801 -1201.637)" fill="#34297b"/>
            <path id="Path_17253" data-name="Path 17253" d="M2628.258,1217.128l-.128-.4,3.906-1.245v.443Z" transform="translate(-2622.419 -1189.96)" fill="#352a7c"/>
            <path id="Path_17254" data-name="Path 17254" d="M2624.749,1205.048l-.128-.4,4.034-1.286v.443Z" transform="translate(-2619.037 -1178.283)" fill="#362b7c"/>
            <path id="Path_17255" data-name="Path 17255" d="M2621.238,1192.96l-.128-.4,4.162-1.328v.443Z" transform="translate(-2615.656 -1166.596)" fill="#372b7d"/>
            <path id="Path_17256" data-name="Path 17256" d="M2617.729,1180.88l-.128-.4,4.29-1.369v.443Z" transform="translate(-2612.274 -1154.919)" fill="#392c7e"/>
            <path id="Path_17257" data-name="Path 17257" d="M2614.218,1168.8l-.128-.4,4.418-1.41v.443Z" transform="translate(-2608.892 -1143.242)" fill="#3a2c7f"/>
            <path id="Path_17258" data-name="Path 17258" d="M2610.718,1156.722l-.128-.4,4.546-1.45v.443Z" transform="translate(-2605.52 -1131.565)" fill="#3b2d7f"/>
            <path id="Path_17259" data-name="Path 17259" d="M2607.208,1144.643l-.128-.4,4.675-1.491v.443Z" transform="translate(-2602.138 -1119.887)" fill="#3c2d80"/>
            <path id="Path_17260" data-name="Path 17260" d="M2603.7,1132.564l-.128-.4,4.8-1.532v.443Z" transform="translate(-2598.756 -1108.21)" fill="#3e2e81"/>
            <path id="Path_17261" data-name="Path 17261" d="M2600.188,1120.485l-.128-.4,4.931-1.573v.443Z" transform="translate(-2595.375 -1096.533)" fill="#3f2f81"/>
            <path id="Path_17262" data-name="Path 17262" d="M2596.678,1108.406l-.128-.4,5.059-1.614v.443Z" transform="translate(-2591.993 -1084.856)" fill="#402f82"/>
            <path id="Path_17263" data-name="Path 17263" d="M2593.168,1096.327l-.128-.4,5.188-1.654v.443Z" transform="translate(-2588.611 -1073.179)" fill="#413083"/>
            <path id="Path_17264" data-name="Path 17264" d="M2589.658,1084.238l-.128-.4,5.316-1.7v.443Z" transform="translate(-2585.229 -1061.492)" fill="#433084"/>
            <path id="Path_17265" data-name="Path 17265" d="M2586.148,1072.158l-.128-.4,5.444-1.737v.443Z" transform="translate(-2581.847 -1049.815)" fill="#443184"/>
            <path id="Path_17266" data-name="Path 17266" d="M2582.638,1060.079l-.128-.4,5.572-1.777v.443Z" transform="translate(-2578.466 -1038.137)" fill="#453185"/>
            <path id="Path_17267" data-name="Path 17267" d="M2579.128,1048l-.128-.4,5.7-1.818v.443Z" transform="translate(-2575.084 -1026.46)" fill="#463286"/>
            <path id="Path_17268" data-name="Path 17268" d="M2575.618,1035.921l-.128-.4,5.829-1.859v.443Z" transform="translate(-2571.702 -1014.783)" fill="#473286"/>
            <path id="Path_17269" data-name="Path 17269" d="M2572.118,1023.842l-.128-.4,5.957-1.9v.443Z" transform="translate(-2568.33 -1003.106)" fill="#483387"/>
            <path id="Path_17270" data-name="Path 17270" d="M2568.608,1011.763l-.128-.4,6.085-1.941v.443Z" transform="translate(-2564.948 -991.429)" fill="#4a3388"/>
            <path id="Path_17271" data-name="Path 17271" d="M2565.1,999.684l-.128-.4,6.213-1.982v.443Z" transform="translate(-2561.567 -979.751)" fill="#4b3488"/>
            <path id="Path_17272" data-name="Path 17272" d="M2561.588,987.595l-.128-.4,6.341-2.023v.443Z" transform="translate(-2558.185 -968.064)" fill="#4c3489"/>
            <path id="Path_17273" data-name="Path 17273" d="M2558.078,975.516l-.128-.4,6.469-2.064v.443Z" transform="translate(-2554.803 -956.387)" fill="#4d358a"/>
            <path id="Path_17274" data-name="Path 17274" d="M2554.568,963.437l-.128-.4,6.6-2.1v.443Z" transform="translate(-2551.421 -944.71)" fill="#4e368a"/>
            <path id="Path_17275" data-name="Path 17275" d="M2551.058,951.357l-.128-.4,6.726-2.145v.443Z" transform="translate(-2548.04 -933.033)" fill="#4f368b"/>
            <path id="Path_17276" data-name="Path 17276" d="M2547.548,940.087l-.128-.4,6.757-2.156.1.3v.108Z" transform="translate(-2544.658 -922.165)" fill="#50378c"/>
            <rect id="Rectangle_25807" data-name="Rectangle 25807" width="7.093" height="0.422" transform="translate(2.634 17.118) rotate(-17.69)" fill="#52378c"/>
            <rect id="Rectangle_25808" data-name="Rectangle 25808" width="7.093" height="0.422" transform="translate(2.506 16.716) rotate(-17.69)" fill="#53388d"/>
            <rect id="Rectangle_25809" data-name="Rectangle 25809" width="7.093" height="0.422" transform="translate(2.377 16.314) rotate(-17.69)" fill="#54388d"/>
            <rect id="Rectangle_25810" data-name="Rectangle 25810" width="7.093" height="0.422" transform="translate(2.249 15.912) rotate(-17.69)" fill="#55398e"/>
            <rect id="Rectangle_25811" data-name="Rectangle 25811" width="7.093" height="0.422" transform="translate(2.121 15.51) rotate(-17.69)" fill="#56398f"/>
            <rect id="Rectangle_25812" data-name="Rectangle 25812" width="7.093" height="0.422" transform="translate(1.993 15.109) rotate(-17.69)" fill="#573a8f"/>
            <rect id="Rectangle_25813" data-name="Rectangle 25813" width="7.093" height="0.422" transform="translate(1.865 14.707) rotate(-17.69)" fill="#583a90"/>
            <rect id="Rectangle_25814" data-name="Rectangle 25814" width="7.093" height="0.422" transform="translate(1.736 14.304) rotate(-17.69)" fill="#593b91"/>
            <rect id="Rectangle_25815" data-name="Rectangle 25815" width="7.093" height="0.422" transform="translate(1.608 13.903) rotate(-17.69)" fill="#5a3b91"/>
            <rect id="Rectangle_25816" data-name="Rectangle 25816" width="7.093" height="0.422" transform="translate(1.48 13.501) rotate(-17.69)" fill="#5b3b92"/>
            <rect id="Rectangle_25817" data-name="Rectangle 25817" width="7.093" height="0.422" transform="translate(1.352 13.099) rotate(-17.69)" fill="#5c3c92"/>
            <rect id="Rectangle_25818" data-name="Rectangle 25818" width="7.093" height="0.422" transform="translate(1.224 12.697) rotate(-17.69)" fill="#5d3c93"/>
            <rect id="Rectangle_25819" data-name="Rectangle 25819" width="7.093" height="0.422" transform="translate(1.096 12.295) rotate(-17.69)" fill="#5e3d93"/>
            <rect id="Rectangle_25820" data-name="Rectangle 25820" width="7.093" height="0.422" transform="translate(0.967 11.893) rotate(-17.69)" fill="#5f3d94"/>
            <rect id="Rectangle_25821" data-name="Rectangle 25821" width="7.093" height="0.422" transform="translate(0.839 11.491) rotate(-17.69)" fill="#603e95"/>
            <rect id="Rectangle_25822" data-name="Rectangle 25822" width="7.093" height="0.422" transform="translate(0.711 11.09) rotate(-17.69)" fill="#613e95"/>
            <rect id="Rectangle_25823" data-name="Rectangle 25823" width="7.093" height="0.422" transform="translate(0.582 10.687) rotate(-17.69)" fill="#623f96"/>
            <rect id="Rectangle_25824" data-name="Rectangle 25824" width="7.093" height="0.422" transform="translate(0.454 10.285) rotate(-17.69)" fill="#633f96"/>
            <rect id="Rectangle_25825" data-name="Rectangle 25825" width="7.093" height="0.422" transform="translate(0.326 9.882) rotate(-17.69)" fill="#644097"/>
            <rect id="Rectangle_25826" data-name="Rectangle 25826" width="7.093" height="0.422" transform="translate(0.198 9.481) rotate(-17.69)" fill="#654097"/>
            <rect id="Rectangle_25827" data-name="Rectangle 25827" width="7.093" height="0.422" transform="translate(0.07 9.08) rotate(-17.69)" fill="#664098"/>
            <rect id="Rectangle_25828" data-name="Rectangle 25828" width="7.093" height="0.422" transform="translate(-0.058 8.677) rotate(-17.69)" fill="#674198"/>
            <rect id="Rectangle_25829" data-name="Rectangle 25829" width="7.093" height="0.422" transform="translate(-0.186 8.275) rotate(-17.69)" fill="#684199"/>
            <rect id="Rectangle_25830" data-name="Rectangle 25830" width="7.093" height="0.422" transform="translate(-0.315 7.873) rotate(-17.69)" fill="#694299"/>
            <rect id="Rectangle_25831" data-name="Rectangle 25831" width="7.093" height="0.422" transform="translate(-0.443 7.471) rotate(-17.69)" fill="#6a429a"/>
            <rect id="Rectangle_25832" data-name="Rectangle 25832" width="7.093" height="0.422" transform="translate(-0.571 7.07) rotate(-17.69)" fill="#6a429b"/>
            <rect id="Rectangle_25833" data-name="Rectangle 25833" width="7.093" height="0.422" transform="translate(-0.699 6.668) rotate(-17.69)" fill="#6b439b"/>
            <rect id="Rectangle_25834" data-name="Rectangle 25834" width="7.093" height="0.422" transform="translate(-0.828 6.265) rotate(-17.69)" fill="#6c439b"/>
            <rect id="Rectangle_25835" data-name="Rectangle 25835" width="7.093" height="0.422" transform="translate(-0.956 5.864) rotate(-17.69)" fill="#6d449c"/>
            <rect id="Rectangle_25836" data-name="Rectangle 25836" width="7.093" height="0.422" transform="translate(-1.084 5.462) rotate(-17.69)" fill="#6e449c"/>
            <rect id="Rectangle_25837" data-name="Rectangle 25837" width="7.093" height="0.422" transform="translate(-1.213 5.059) rotate(-17.69)" fill="#6f449d"/>
            <path id="Path_17277" data-name="Path 17277" d="M2437.8,588.027l-.032-.1v-.332l6.661-2.125.128.4Z" transform="translate(-2439.014 -582.967)" fill="#6f459d"/>
            <path id="Path_17278" data-name="Path 17278" d="M2437.77,576.554l6.533-2.084.128.4L2437.77,577Z" transform="translate(-2439.014 -572.369)" fill="#70459e"/>
            <path id="Path_17279" data-name="Path 17279" d="M2437.77,565.513l6.4-2.043.128.4-6.533,2.084Z" transform="translate(-2439.014 -561.771)" fill="#71459e"/>
            <path id="Path_17280" data-name="Path 17280" d="M2437.77,554.472l6.277-2,.128.4-6.4,2.043Z" transform="translate(-2439.014 -551.173)" fill="#72469f"/>
            <path id="Path_17281" data-name="Path 17281" d="M2437.77,543.421l6.148-1.961.128.4-6.277,2Z" transform="translate(-2439.014 -540.565)" fill="#72469f"/>
            <path id="Path_17282" data-name="Path 17282" d="M2437.77,532.38l6.02-1.92.128.4-6.148,1.961Z" transform="translate(-2439.014 -529.967)" fill="#7346a0"/>
            <path id="Path_17283" data-name="Path 17283" d="M2437.77,521.339l5.892-1.879.128.4-6.02,1.92Z" transform="translate(-2439.014 -519.369)" fill="#7447a0"/>
            <path id="Path_17284" data-name="Path 17284" d="M2437.77,510.3l5.764-1.838.128.4-5.892,1.879Z" transform="translate(-2439.014 -508.771)" fill="#7547a0"/>
            <path id="Path_17285" data-name="Path 17285" d="M2437.77,499.257l5.635-1.8.128.4-5.764,1.838Z" transform="translate(-2439.014 -498.173)" fill="#7547a1"/>
            <path id="Path_17286" data-name="Path 17286" d="M2437.77,488.207l5.507-1.757.128.4-5.635,1.8Z" transform="translate(-2439.014 -487.565)" fill="#7648a1"/>
            <path id="Path_17287" data-name="Path 17287" d="M2437.77,477.166l5.379-1.716.128.4-5.507,1.757Z" transform="translate(-2439.014 -476.967)" fill="#7748a1"/>
            <path id="Path_17288" data-name="Path 17288" d="M2437.77,466.125l5.251-1.675.128.4-5.379,1.716Z" transform="translate(-2439.014 -466.369)" fill="#7748a2"/>
            <path id="Path_17289" data-name="Path 17289" d="M2437.77,455.084l5.123-1.634.128.4-5.251,1.675Z" transform="translate(-2439.014 -455.771)" fill="#7848a2"/>
            <path id="Path_17290" data-name="Path 17290" d="M2437.77,444.043l4.994-1.593.128.4-5.123,1.634Z" transform="translate(-2439.014 -445.173)" fill="#7849a2"/>
            <path id="Path_17291" data-name="Path 17291" d="M2437.77,434.129l4.731-1.509h.149l.114.359-4.994,1.593Z" transform="translate(-2439.014 -435.702)" fill="#7949a3"/>
            <path id="Path_17292" data-name="Path 17292" d="M2437.77,433.686l3.343-1.066h1.389l-4.731,1.509Z" transform="translate(-2439.014 -435.702)" fill="#7949a3"/>
            <path id="Path_17293" data-name="Path 17293" d="M2437.77,433.244l1.954-.624h1.388l-3.343,1.066Z" transform="translate(-2439.014 -435.702)" fill="#7a49a3"/>
            <path id="Path_17294" data-name="Path 17294" d="M2437.77,432.8l.566-.18h1.388l-1.954.624Z" transform="translate(-2439.014 -435.702)" fill="#7a4aa4"/>
            <path id="Path_17295" data-name="Path 17295" d="M2438.336,432.62l-.566.18v-.18Z" transform="translate(-2439.014 -435.702)" fill="#7b4aa4"/>
          </g>
          <g id="Group_13923" data-name="Group 13923" transform="translate(87.327 17.161)" opacity="0.4">
            <path id="Path_17297" data-name="Path 17297" d="M2517.084,619.371a.1.1,0,0,1-.119-.081c-3.359-15.474-6.925-26.656-6.955-26.713a.1.1,0,1,1,.185-.1c.03.057,3.608,11.258,6.975,26.767a.105.105,0,0,1-.08.125Z" transform="translate(-2509.996 -592.419)" fill="#f1f2f2"/>
          </g>
          <path id="Path_17298" data-name="Path 17298" d="M397.506,446s-2.754-16.129-1.263-27.57,3.449-13.071,4.484-11.585.636,26.738-1.135,39.275Z" transform="translate(-385.714 -396.016)" fill="#fc9020"/>
          <g id="Group_13924" data-name="Group 13924" transform="translate(12.052 14.264)" opacity="0.4">
            <path id="Path_17299" data-name="Path 17299" d="M449.739,548.966h-.009a.106.106,0,0,1-.106-.1c-.118-17.883,1.562-35.466,1.579-35.642a.106.106,0,1,1,.21.021c-.017.175-1.7,17.748-1.578,35.621A.106.106,0,0,1,449.739,548.966Z" transform="translate(-449.617 -513.121)" fill="#f1f2f2"/>
          </g>
          <path id="Path_17300" data-name="Path 17300" d="M177.544,791.87s-.2-13.205-3.083-22.062-4.674-9.86-5.275-8.526,3.458,21.309,6.722,30.993Z" transform="translate(-167.322 -737.487)" fill="#fc9020"/>
          <g id="Group_13925" data-name="Group 13925" transform="translate(3.313 26.334)" opacity="0.4">
            <path id="Path_17301" data-name="Path 17301" d="M217.024,871.709h.007a.085.085,0,0,0,.069-.1c-2.557-14.207-6.5-27.909-6.535-28.045a.085.085,0,0,0-.164.047c.039.137,3.976,13.831,6.531,28.029A.086.086,0,0,0,217.024,871.709Z" transform="translate(-210.398 -843.503)" fill="#f1f2f2"/>
          </g>
          <g id="Group_13926" data-name="Group 13926" transform="translate(5 15.204)" clip-path="url(#clip-path-4)">
            <path id="Path_17302" data-name="Path 17302" d="M331.68,1449.188l4.5-.458v.458Z" transform="translate(-328.937 -1415.489)" fill="#2b2576"/>
            <path id="Path_17303" data-name="Path 17303" d="M288.2,1436.807l-.031-.308,6.092-.619v.47l-4.5.457Z" transform="translate(-287.016 -1403.108)" fill="#2c2677"/>
            <path id="Path_17304" data-name="Path 17304" d="M286.918,1424.108l-.048-.465,6.14-.624v.47Z" transform="translate(-285.764 -1390.718)" fill="#2d2677"/>
            <path id="Path_17305" data-name="Path 17305" d="M285.627,1411.254l-.047-.465,6.187-.628v.47Z" transform="translate(-284.521 -1378.328)" fill="#2e2778"/>
            <path id="Path_17306" data-name="Path 17306" d="M284.337,1398.417l-.047-.465,6.231-.633,0,.03v.439Z" transform="translate(-283.278 -1365.957)" fill="#302879"/>
            <rect id="Rectangle_25838" data-name="Rectangle 25838" width="6.263" height="0.467" transform="translate(0.967 31.53) rotate(-5.8)" fill="#31287a"/>
            <rect id="Rectangle_25839" data-name="Rectangle 25839" width="6.263" height="0.467" transform="translate(0.919 31.065) rotate(-5.8)" fill="#32297a"/>
            <rect id="Rectangle_25840" data-name="Rectangle 25840" width="6.232" height="0.465" transform="translate(0.769 30.367) rotate(-5.768)" fill="#34297b"/>
            <rect id="Rectangle_25841" data-name="Rectangle 25841" width="6.263" height="0.467" transform="translate(0.825 30.135) rotate(-5.8)" fill="#352a7c"/>
            <rect id="Rectangle_25842" data-name="Rectangle 25842" width="6.263" height="0.467" transform="translate(0.778 29.671) rotate(-5.8)" fill="#362b7c"/>
            <rect id="Rectangle_25843" data-name="Rectangle 25843" width="6.263" height="0.467" transform="translate(0.73 29.205) rotate(-5.8)" fill="#372b7d"/>
            <rect id="Rectangle_25844" data-name="Rectangle 25844" width="6.263" height="0.467" transform="translate(0.683 28.741) rotate(-5.8)" fill="#392c7e"/>
            <rect id="Rectangle_25845" data-name="Rectangle 25845" width="6.263" height="0.467" transform="translate(0.636 28.276) rotate(-5.8)" fill="#3a2c7f"/>
            <rect id="Rectangle_25846" data-name="Rectangle 25846" width="6.263" height="0.467" transform="translate(0.589 27.811) rotate(-5.8)" fill="#3b2d7f"/>
            <rect id="Rectangle_25847" data-name="Rectangle 25847" width="6.232" height="0.465" transform="translate(0.444 27.128) rotate(-5.768)" fill="#3c2d80"/>
            <rect id="Rectangle_25848" data-name="Rectangle 25848" width="6.263" height="0.467" transform="translate(0.494 26.881) rotate(-5.8)" fill="#3e2e81"/>
            <rect id="Rectangle_25849" data-name="Rectangle 25849" width="6.263" height="0.467" transform="translate(0.447 26.416) rotate(-5.8)" fill="#3f2f81"/>
            <rect id="Rectangle_25850" data-name="Rectangle 25850" width="6.263" height="0.467" transform="translate(0.4 25.951) rotate(-5.8)" fill="#402f82"/>
            <rect id="Rectangle_25851" data-name="Rectangle 25851" width="6.263" height="0.467" transform="translate(0.353 25.486) rotate(-5.8)" fill="#413083"/>
            <rect id="Rectangle_25852" data-name="Rectangle 25852" width="6.263" height="0.467" transform="translate(0.306 25.022) rotate(-5.8)" fill="#433084"/>
            <rect id="Rectangle_25853" data-name="Rectangle 25853" width="6.263" height="0.467" transform="translate(0.258 24.556) rotate(-5.8)" fill="#443184"/>
            <rect id="Rectangle_25854" data-name="Rectangle 25854" width="6.232" height="0.465" transform="translate(0.118 23.89) rotate(-5.768)" fill="#453185"/>
            <rect id="Rectangle_25855" data-name="Rectangle 25855" width="6.263" height="0.467" transform="translate(0.164 23.627) rotate(-5.8)" fill="#463286"/>
            <rect id="Rectangle_25856" data-name="Rectangle 25856" width="6.263" height="0.467" transform="translate(0.117 23.162) rotate(-5.8)" fill="#473286"/>
            <rect id="Rectangle_25857" data-name="Rectangle 25857" width="6.263" height="0.467" transform="translate(0.069 22.697) rotate(-5.8)" fill="#483387"/>
            <rect id="Rectangle_25858" data-name="Rectangle 25858" width="6.263" height="0.467" transform="translate(0.022 22.232) rotate(-5.8)" fill="#4a3388"/>
            <rect id="Rectangle_25859" data-name="Rectangle 25859" width="6.263" height="0.467" transform="translate(-0.025 21.767) rotate(-5.8)" fill="#4b3488"/>
            <rect id="Rectangle_25860" data-name="Rectangle 25860" width="6.263" height="0.467" transform="translate(-0.072 21.302) rotate(-5.8)" fill="#4c3489"/>
            <rect id="Rectangle_25861" data-name="Rectangle 25861" width="6.263" height="0.467" transform="translate(-0.119 20.837) rotate(-5.8)" fill="#4d358a"/>
            <rect id="Rectangle_25862" data-name="Rectangle 25862" width="6.232" height="0.465" transform="translate(-0.254 20.188) rotate(-5.768)" fill="#4e368a"/>
            <rect id="Rectangle_25863" data-name="Rectangle 25863" width="6.263" height="0.467" transform="translate(-0.214 19.908) rotate(-5.8)" fill="#4f368b"/>
            <rect id="Rectangle_25864" data-name="Rectangle 25864" width="6.263" height="0.467" transform="translate(-0.262 19.443) rotate(-5.8)" fill="#50378c"/>
            <rect id="Rectangle_25865" data-name="Rectangle 25865" width="6.263" height="0.467" transform="translate(-0.308 18.978) rotate(-5.8)" fill="#52378c"/>
            <rect id="Rectangle_25866" data-name="Rectangle 25866" width="6.263" height="0.467" transform="translate(-0.355 18.513) rotate(-5.8)" fill="#53388d"/>
            <rect id="Rectangle_25867" data-name="Rectangle 25867" width="6.232" height="0.465" transform="translate(-0.486 17.875) rotate(-5.768)" fill="#54388d"/>
            <rect id="Rectangle_25868" data-name="Rectangle 25868" width="6.263" height="0.467" transform="translate(-0.45 17.583) rotate(-5.8)" fill="#55398e"/>
            <rect id="Rectangle_25869" data-name="Rectangle 25869" width="6.263" height="0.467" transform="translate(-0.497 17.118) rotate(-5.8)" fill="#56398f"/>
            <rect id="Rectangle_25870" data-name="Rectangle 25870" width="6.263" height="0.467" transform="translate(-0.545 16.653) rotate(-5.8)" fill="#573a8f"/>
            <rect id="Rectangle_25871" data-name="Rectangle 25871" width="6.263" height="0.467" transform="translate(-0.592 16.188) rotate(-5.8)" fill="#583a90"/>
            <rect id="Rectangle_25872" data-name="Rectangle 25872" width="6.232" height="0.465" transform="translate(-0.719 15.561) rotate(-5.768)" fill="#593b91"/>
            <rect id="Rectangle_25873" data-name="Rectangle 25873" width="6.263" height="0.467" transform="translate(-0.686 15.258) rotate(-5.8)" fill="#5a3b91"/>
            <rect id="Rectangle_25874" data-name="Rectangle 25874" width="6.232" height="0.465" transform="translate(-0.812 14.636) rotate(-5.768)" fill="#5b3b92"/>
            <rect id="Rectangle_25875" data-name="Rectangle 25875" width="6.263" height="0.467" transform="translate(-0.78 14.329) rotate(-5.8)" fill="#5c3c92"/>
            <rect id="Rectangle_25876" data-name="Rectangle 25876" width="6.263" height="0.467" transform="translate(-0.828 13.863) rotate(-5.8)" fill="#5d3c93"/>
            <rect id="Rectangle_25877" data-name="Rectangle 25877" width="6.263" height="0.467" transform="translate(-0.875 13.399) rotate(-5.8)" fill="#5e3d93"/>
            <rect id="Rectangle_25878" data-name="Rectangle 25878" width="6.263" height="0.467" transform="translate(-0.922 12.934) rotate(-5.8)" fill="#5f3d94"/>
            <rect id="Rectangle_25879" data-name="Rectangle 25879" width="6.263" height="0.467" transform="translate(-0.97 12.469) rotate(-5.8)" fill="#603e95"/>
            <rect id="Rectangle_25880" data-name="Rectangle 25880" width="6.263" height="0.467" transform="translate(-1.017 12.004) rotate(-5.8)" fill="#613e95"/>
            <rect id="Rectangle_25881" data-name="Rectangle 25881" width="6.263" height="0.467" transform="translate(-1.064 11.539) rotate(-5.8)" fill="#623f96"/>
            <rect id="Rectangle_25882" data-name="Rectangle 25882" width="6.263" height="0.467" transform="translate(-1.111 11.074) rotate(-5.8)" fill="#633f96"/>
            <rect id="Rectangle_25883" data-name="Rectangle 25883" width="6.263" height="0.467" transform="translate(-1.158 10.609) rotate(-5.8)" fill="#644097"/>
            <rect id="Rectangle_25884" data-name="Rectangle 25884" width="6.263" height="0.467" transform="translate(-1.205 10.144) rotate(-5.8)" fill="#654097"/>
            <rect id="Rectangle_25885" data-name="Rectangle 25885" width="6.263" height="0.467" transform="translate(-1.253 9.68) rotate(-5.8)" fill="#664098"/>
            <rect id="Rectangle_25886" data-name="Rectangle 25886" width="6.263" height="0.467" transform="translate(-1.3 9.215) rotate(-5.8)" fill="#674198"/>
            <rect id="Rectangle_25887" data-name="Rectangle 25887" width="6.263" height="0.467" transform="translate(-1.348 8.75) rotate(-5.8)" fill="#684199"/>
            <rect id="Rectangle_25888" data-name="Rectangle 25888" width="6.263" height="0.467" transform="translate(-1.395 8.285) rotate(-5.8)" fill="#694299"/>
            <path id="Path_17307" data-name="Path 17307" d="M217.648,736.708l-.028-.277v-.19l6.212-.631.047.465Z" transform="translate(-219.044 -728.422)" fill="#6a429a"/>
            <path id="Path_17308" data-name="Path 17308" d="M217.62,723.506l6.165-.626.047.465-6.212.631Z" transform="translate(-219.044 -716.157)" fill="#6a429b"/>
            <path id="Path_17309" data-name="Path 17309" d="M217.62,710.781l6.118-.621.047.465-6.165.626Z" transform="translate(-219.044 -703.902)" fill="#6b439b"/>
            <path id="Path_17310" data-name="Path 17310" d="M217.62,698.046l6.07-.616.048.465-6.118.621Z" transform="translate(-219.044 -691.637)" fill="#6c439b"/>
            <path id="Path_17311" data-name="Path 17311" d="M217.62,685.322l6.023-.612.047.465-6.07.616Z" transform="translate(-219.044 -679.382)" fill="#6d449c"/>
            <path id="Path_17312" data-name="Path 17312" d="M217.62,672.587l5.976-.607.047.465-6.023.612Z" transform="translate(-219.044 -667.117)" fill="#6e449c"/>
            <path id="Path_17313" data-name="Path 17313" d="M217.62,659.862l5.929-.6.047.465-5.976.607Z" transform="translate(-219.044 -654.862)" fill="#6f449d"/>
            <path id="Path_17314" data-name="Path 17314" d="M217.62,647.127l5.882-.6.047.465-5.929.6Z" transform="translate(-219.044 -642.597)" fill="#6f459d"/>
            <path id="Path_17315" data-name="Path 17315" d="M217.62,634.4l5.834-.592.047.465-5.882.6Z" transform="translate(-219.044 -630.342)" fill="#70459e"/>
            <path id="Path_17316" data-name="Path 17316" d="M217.62,621.668l5.787-.588.047.465-5.834.592Z" transform="translate(-219.044 -618.077)" fill="#71459e"/>
            <path id="Path_17317" data-name="Path 17317" d="M217.62,608.943l5.74-.583.047.465-5.787.588Z" transform="translate(-219.044 -605.821)" fill="#72469f"/>
            <path id="Path_17318" data-name="Path 17318" d="M217.62,596.208l5.693-.578.047.465-5.74.583Z" transform="translate(-219.044 -593.556)" fill="#72469f"/>
            <path id="Path_17319" data-name="Path 17319" d="M217.62,583.483l5.646-.573.047.465-5.693.578Z" transform="translate(-219.044 -581.301)" fill="#7346a0"/>
            <path id="Path_17320" data-name="Path 17320" d="M217.62,570.748l5.6-.568.048.465-5.646.573Z" transform="translate(-219.044 -569.036)" fill="#7447a0"/>
            <path id="Path_17321" data-name="Path 17321" d="M217.62,558.023l5.551-.563.047.465-5.6.569Z" transform="translate(-219.044 -556.781)" fill="#7547a0"/>
            <path id="Path_17322" data-name="Path 17322" d="M217.62,545.289l5.5-.559.047.465-5.551.563Z" transform="translate(-219.044 -544.516)" fill="#7547a1"/>
            <path id="Path_17323" data-name="Path 17323" d="M217.62,532.564l5.457-.554.047.465-5.5.559Z" transform="translate(-219.044 -532.261)" fill="#7648a1"/>
            <path id="Path_17324" data-name="Path 17324" d="M217.62,519.829l5.41-.549.047.465-5.457.554Z" transform="translate(-219.044 -519.996)" fill="#7748a1"/>
            <path id="Path_17325" data-name="Path 17325" d="M217.62,507.1l5.362-.544.047.465-5.41.549Z" transform="translate(-219.044 -507.74)" fill="#7748a2"/>
            <path id="Path_17326" data-name="Path 17326" d="M217.62,494.37l5.315-.54.047.465-5.362.544Z" transform="translate(-219.044 -495.476)" fill="#7848a2"/>
            <path id="Path_17327" data-name="Path 17327" d="M217.62,481.645l5.268-.535.047.465-5.315.54Z" transform="translate(-219.044 -483.22)" fill="#7849a2"/>
            <path id="Path_17328" data-name="Path 17328" d="M217.62,468.91l5.221-.53.047.465-5.268.535Z" transform="translate(-219.044 -470.955)" fill="#7949a3"/>
            <path id="Path_17329" data-name="Path 17329" d="M217.62,456.175l5.174-.525.047.465-5.221.53Z" transform="translate(-219.044 -458.69)" fill="#7949a3"/>
            <path id="Path_17330" data-name="Path 17330" d="M217.62,443.451l5.126-.521.047.465-5.174.525Z" transform="translate(-219.044 -446.435)" fill="#7a49a3"/>
            <path id="Path_17331" data-name="Path 17331" d="M217.62,439.349l1.857-.189h3.256l.014.138-5.126.521Z" transform="translate(-219.044 -442.803)" fill="#7a4aa4"/>
            <path id="Path_17332" data-name="Path 17332" d="M219.477,439.16l-1.857.189v-.189Z" transform="translate(-219.044 -442.803)" fill="#7b4aa4"/>
          </g>
          <g id="Group_13927" data-name="Group 13927" transform="translate(6.843 18.044)" opacity="0.4">
            <path id="Path_17334" data-name="Path 17334" d="M311.043,647.315a231.622,231.622,0,0,1-3.8-30.6.106.106,0,1,0-.21-.017,231.629,231.629,0,0,0,3.806,30.655.106.106,0,0,0,.124.083S311.054,647.37,311.043,647.315Z" transform="translate(-307.029 -616.601)" fill="#f1f2f2"/>
          </g>
        </g>
        <path id="Path_17336" data-name="Path 17336" d="M1025.071,1422.964v.1a.375.375,0,0,1-.179.1,5,5,0,0,1-.83.194c-.468.079-.94.132-1.413.17q-.738.059-1.479.063c-.232,0-.464-.005-.7-.011a13.206,13.206,0,0,1-1.335-.1,9.024,9.024,0,0,1-1.224-.238,5.154,5.154,0,0,1-1.176-.467.187.187,0,0,1-.11-.191,2.175,2.175,0,0,1,.049-.318,7.867,7.867,0,0,1,.35-1.017c.1-.258.209-.514.3-.775a.882.882,0,0,1,.424-.511c.053-.029.11-.051.166-.076h.009a1.241,1.241,0,0,0,.094.092,1.308,1.308,0,0,0,.486.224,5.633,5.633,0,0,0,1.411.152,2.58,2.58,0,0,0,.446-.078,8.6,8.6,0,0,0,1.911,1.289,11.339,11.339,0,0,0,1.252.419c.2.064.407.117.607.183a2.162,2.162,0,0,1,.607.3.749.749,0,0,1,.311.416C1025.057,1422.9,1025.064,1422.933,1025.071,1422.964Z" transform="translate(-979.487 -1368.006)" fill="#5c3c92"/>
        <path id="Path_17337" data-name="Path 17337" d="M1109.386,1446.61a1.521,1.521,0,0,1-1.076.438s.546.765,1.153.785a1.832,1.832,0,0,0,1.133-.468" transform="translate(-1067.819 -1393.759)" fill="#383838"/>
        <path id="Path_17338" data-name="Path 17338" d="M1120.549,1430.712h-.011a7.106,7.106,0,0,1-3.355-1.768.061.061,0,0,1,.087-.087,6.972,6.972,0,0,0,3.288,1.734.061.061,0,0,1-.01.122Z" transform="translate(-1076.352 -1376.639)" fill="#4a0084"/>
        <path id="Path_17339" data-name="Path 17339" d="M1399.332,1450.029v-.724H1397a28.44,28.44,0,0,0-6.295,0h-2.34v.79c0,.532,2.457.965,5.487.965s5.487-.432,5.487-.965A.178.178,0,0,0,1399.332,1450.029Z" transform="translate(-1337.647 -1396.187)" fill="#f7740f"/>
        <path id="Path_17340" data-name="Path 17340" d="M564.334,1150.54l-5.306,12.665a.207.207,0,0,0,.08.256h0a.207.207,0,0,0,.3-.087l6.05-12.834Z" transform="translate(-538.589 -1108.506)" fill="#ffb12a"/>
        <path id="Path_17341" data-name="Path 17341" d="M762.453,1150.54l5.306,12.665a.207.207,0,0,1-.08.256h0a.208.208,0,0,1-.3-.087l-6.05-12.834Z" transform="translate(-733.516 -1108.506)" fill="#ffb12a"/>
        <path id="Path_17342" data-name="Path 17342" d="M731.12,1150.54c.21.312.169,8.429.159,9.94a.24.24,0,0,0,.24.241h0a.24.24,0,0,0,.239-.228l.465-9.59Z" transform="translate(-704.41 -1108.506)" fill="#ffb12a"/>
        <path id="Path_17343" data-name="Path 17343" d="M561.832,712.539s-2.464-.579-2.78,3.522.105,11.539,6.965,13.116,9.2-1.681,9.358-2S565.715,712.014,561.832,712.539Z" transform="translate(-538.557 -686.48)" fill="#194c81"/>
        <path id="Path_17344" data-name="Path 17344" d="M1056.806,1368.3l-.9,1.933s.458.747,2.241.362l.15-1.461Z" transform="translate(-1017.334 -1318.31)" fill="#fcdb7f"/>
        <path id="Path_17345" data-name="Path 17345" d="M633.9,896.389s-1.656,6.54,8.6,6.54c5.7,0,7.307.092,7.307.092l-3.527,10.028a6.28,6.28,0,0,0,2.984,1.039,91.26,91.26,0,0,0,7.018-12.888s.631-2.287-2.313-3.233-12.951-3.417-12.951-3.417Z" transform="translate(-610.646 -861.868)" fill="#143a63"/>
        <path id="Path_17346" data-name="Path 17346" d="M826.113,875.81s10.666,1.63,12.349,2.734-1.973,16.35-1.973,16.35a3.141,3.141,0,0,1-2.76,0c-1.538-.71,1.495-11.158,1.495-11.158S820.547,877.269,826.113,875.81Z" transform="translate(-794.718 -843.813)" fill="#143a63"/>
        <path id="Path_17347" data-name="Path 17347" d="M964.487,1400.86l-.977,2.108s.5.815,2.445.394c.473-1.078.631-1.464.631-1.464Z" transform="translate(-928.309 -1349.68)" fill="#fcdb7f"/>
        <path id="Path_17348" data-name="Path 17348" d="M591.224,385.693a9.262,9.262,0,0,1,5.215,3.483c1.774,2.721,1.863,5.966,3.954,7.39.906.723,4.165.387,3.847,1.223-.964,2.541-2.058,2.7-3.484,2.852a6.1,6.1,0,0,1-5.233-3.053s-.544,3.105-.073,3.452c.749.346.591,1.765.907,2.16a2.676,2.676,0,0,1-1.682,3.351,33.31,33.31,0,0,1-6.991,1.746c-.654.1-1.047-.5-1.279-1.149s-.392-1.745-.653-2.394c-.538-1.335-1.15-8.421.578-12.818C587.8,388.191,589.853,385.233,591.224,385.693Z" transform="translate(-563.812 -371.557)" fill="#69e781"/>
        <path id="Path_17349" data-name="Path 17349" d="M1054.39,1122.362a.061.061,0,0,1,0-.122l2.391-.07a.061.061,0,0,1,0,.123l-2.391.069Z" transform="translate(-1015.813 -1081.172)" fill="#0e2946"/>
        <path id="Path_17350" data-name="Path 17350" d="M1076.459,1220.074a.059.059,0,0,1-.031-.009.061.061,0,0,1-.023-.084l3.807-6.621a.061.061,0,0,1,.106.061l-3.807,6.621A.061.061,0,0,1,1076.459,1220.074Z" transform="translate(-1037.073 -1169.004)" fill="#0e2946"/>
        <path id="Path_17351" data-name="Path 17351" d="M904.628,911.988a.057.057,0,0,1-.019,0c-.083-.027-8.35-2.733-11.486-3.2a.061.061,0,0,1-.052-.069.062.062,0,0,1,.07-.052c3.146.469,11.423,3.179,11.506,3.205a.061.061,0,0,1-.019.12Z" transform="translate(-860.443 -875.465)" fill="#0e2946"/>
        <g id="Group_13929" data-name="Group 13929" transform="translate(22.895 25.009)" opacity="0.53">
          <path id="Path_17352" data-name="Path 17352" d="M635.423,689.014c-.431-.316-.017-2.926.06-3.383l-.973-1.091a10.42,10.42,0,0,0-1.06,4.234c.06,2.02-2.543,3.281-2.017,3.6s2.113-1.684,2.724-.843-2.314,1.919-2.088,2.26,1.489-.026-.271.762a15.377,15.377,0,0,1-5.118,1.2.981.981,0,0,0,.978.525,33.323,33.323,0,0,0,6.991-1.746,2.677,2.677,0,0,0,1.682-3.351C636.016,690.779,636.174,689.359,635.423,689.014Z" transform="translate(-626.68 -684.54)" fill="#2cc48b"/>
        </g>
        <ellipse id="Ellipse_520" data-name="Ellipse 520" cx="3.724" cy="10.798" rx="3.724" ry="10.798" transform="matrix(0.102, -0.995, 0.995, 0.102, 52.89, 8.432)" fill="#f3f6fd"/>
        <path id="Path_17353" data-name="Path 17353" d="M2105.417,1164.94l-5.306,12.665a.207.207,0,0,0,.08.256h0a.207.207,0,0,0,.3-.087l6.051-12.834Z" transform="translate(-2023.369 -1122.38)" fill="#ffb12a"/>
        <path id="Path_17354" data-name="Path 17354" d="M2307.885,1175.357q-.224.135-.453.268L2302.42,1165h1.123Z" transform="translate(-2218.303 -1122.437)" fill="#ffb12a"/>
        <path id="Path_17355" data-name="Path 17355" d="M2272.2,1164.94c.21.312.169,8.429.159,9.94a.239.239,0,0,0,.24.241h0a.239.239,0,0,0,.239-.228l.466-9.59Z" transform="translate(-2189.187 -1122.38)" fill="#ffb12a"/>
        <path id="Path_17356" data-name="Path 17356" d="M2078.494,714.809s2.464-.579,2.779,3.521-.105,11.539-6.965,13.116-9.2-1.681-9.357-2S2074.612,714.284,2078.494,714.809Z" transform="translate(-1989.507 -688.667)" fill="#194c81"/>
        <path id="Path_17357" data-name="Path 17357" d="M1769.992,892.37c-.658.395-7.976,3.154-10.814,5.678S1752,910.507,1752,910.9s1.735,1.1,2.681,1.419,5.677-8.883,7.807-10.539,6.524-.541,10.7-2.749a6.216,6.216,0,0,0,3.6-6.031C1776.74,889.352,1769.992,892.37,1769.992,892.37Z" transform="translate(-1687.992 -858.639)" fill="#143a63"/>
        <path id="Path_17358" data-name="Path 17358" d="M1817.507,884.44s-8.585,2.891-10.339,4.574-3.119,3.575,2.822,15.139a4.914,4.914,0,0,0,2.786-1.051l-1.84-9.989,12.879-7.359Z" transform="translate(-1739.698 -852.127)" fill="#143a63"/>
        <path id="Path_17359" data-name="Path 17359" d="M1930.49,1397.082l.736,1.942a4.253,4.253,0,0,0,2.362-.5l-.613-2.344Z" transform="translate(-1859.961 -1345.171)" fill="#fcdb7f"/>
        <path id="Path_17360" data-name="Path 17360" d="M1836.448,1458.14s-.338-.1-.552.666-1.4,2.742-3.166,2.973a.259.259,0,0,0-.057.014.771.771,0,0,0-.552.787c.061.614,4.326-.438,5.461-.84a18.181,18.181,0,0,0,2.348-1.083.272.272,0,0,0,.142-.256,8.344,8.344,0,0,0-.94-2.7.274.274,0,0,0-.342-.141A8.5,8.5,0,0,1,1836.448,1458.14Z" transform="translate(-1765.183 -1404.288)" fill="#ffb12a"/>
        <path id="Path_17361" data-name="Path 17361" d="M1740.245,1437.53l-.895,1.875a4.267,4.267,0,0,0,1.995,1.361l1.27-2.063Z" transform="translate(-1675.804 -1385.011)" fill="#fcdb7f"/>
        <path id="Path_17362" data-name="Path 17362" d="M1575.075,1480.849a.265.265,0,0,1-.02-.026c-.036-.051-.231-.263-.856.073-.7.373-2.948.884-4.336-.232a.257.257,0,0,0-.052-.033.773.773,0,0,0-.95.146c-.4.468,3.308,2.822,4.381,3.367a18.261,18.261,0,0,0,2.4.945.288.288,0,0,0,.3-.08,8.487,8.487,0,0,0,1.29-2.527.287.287,0,0,0-.14-.361A8.887,8.887,0,0,1,1575.075,1480.849Z" transform="translate(-1511.515 -1426.439)" fill="#ffb12a"/>
        <ellipse id="Ellipse_521" data-name="Ellipse 521" cx="5.487" cy="0.965" rx="5.487" ry="0.965" transform="translate(50.723 52.219)" fill="#fc9020"/>
        <rect id="Rectangle_25889" data-name="Rectangle 25889" width="1.104" height="19.924" transform="translate(55.658 33.259)" fill="#fc9020"/>
        <path id="Path_17363" data-name="Path 17363" d="M1947.8,395.21s-6.649,2.944-7.018,5.862a29.353,29.353,0,0,0-.315,4.258s-1.209.552-6.624-.368a4.072,4.072,0,0,0-1.317,2.526,24.911,24.911,0,0,0,7.994,3.073c.21,1.315-1.3,2.26-.86,2.839s5.276,2.786,11.059,1.735c.946-1.472-.157-2.576,0-3.049a36.327,36.327,0,0,0,.789-11.986C1950.985,395.21,1947.8,395.21,1947.8,395.21Z" transform="translate(-1861.927 -380.771)" fill="#ffb12a"/>
        <g id="Group_13930" data-name="Group 13930" transform="translate(77.697 23.747)" opacity="0.3">
          <path id="Path_17364" data-name="Path 17364" d="M2137.831,660.615q.063-.1.114-.194c-2.132-.093-4.972-.387-5.672-1.279-1.157-1.472,3.365-.526,3.049-1.534s-2.366-.2-1.29-1.247,2.187-6.362,2.187-6.362c-2.369,4.335-5.135,5.42-5.135,5.42l-3.444,1.088c-.136,1.075-1.253,1.867-.867,2.375C2127.211,659.459,2132.048,661.667,2137.831,660.615Z" transform="translate(-2126.691 -650)" fill="#ffb12a"/>
        </g>
        <path id="Path_17365" data-name="Path 17365" d="M764.487,160.908a15.264,15.264,0,0,1-.358,2.166,3.12,3.12,0,0,0,.178,1.912c.128.275.021.368-.313.451s-.848,1.553-.882,1.7-.877.391-2.033-.151c-.616.158-.571.921-.358,2.378-2.186.518-3.481-1.727-3.481-1.727a6.783,6.783,0,0,0,.8-2.884,25.921,25.921,0,0,0-.413-4.055l5.539-1.239Z" transform="translate(-729.575 -153.634)" fill="#fcdb7e"/>
        <path id="Path_17366" data-name="Path 17366" d="M731.615,107.017a5.459,5.459,0,0,0-.369-1.914c-.08,1.441-1.657,1.961-2.237,1.983,1.258-.939,1.234-1.677,1.234-1.677a3.46,3.46,0,0,1-3.852,1.376c-.131-.884-1.24-1.133-1.527-.475s-.294,1.84.436,1.887c.122.815-.813,1.483-.813,1.483a8.449,8.449,0,0,0-1.193-2.658,3.042,3.042,0,0,1-.568-3.2,2.648,2.648,0,0,1,2.494-1.079s.537-1.217,2.768-1.184c0,0-1.652.238-1.9,1.011,1.373-.865,4.494-.708,5.307.672A4.6,4.6,0,0,1,731.615,107.017Z" transform="translate(-696.09 -97.852)" fill="#133b63"/>
        <g id="Group_13931" data-name="Group 13931" transform="translate(30.748 14.967)" clip-path="url(#clip-path-5)">
          <path id="Path_17367" data-name="Path 17367" d="M841.64,454.74l.311.02h-.311Z" transform="translate(-841.64 -453.093)" fill="#48d586"/>
          <path id="Path_17368" data-name="Path 17368" d="M841.64,453.56l.981.063h-.67l-.311-.02Z" transform="translate(-841.64 -451.956)" fill="#47d586"/>
          <path id="Path_17369" data-name="Path 17369" d="M841.64,452.38l1.094.07,0,.036h-.111l-.981-.063Z" transform="translate(-841.64 -450.82)" fill="#46d486"/>
          <path id="Path_17370" data-name="Path 17370" d="M841.64,451.19l1.1.071,0,.043-1.094-.071Z" transform="translate(-841.64 -449.673)" fill="#45d386"/>
          <path id="Path_17371" data-name="Path 17371" d="M841.64,450.01l1.1.071,0,.043-1.1-.071Z" transform="translate(-841.64 -448.536)" fill="#44d386"/>
          <path id="Path_17372" data-name="Path 17372" d="M841.64,448.83l1.1.071,0,.043-1.1-.071Z" transform="translate(-841.64 -447.399)" fill="#42d287"/>
          <path id="Path_17373" data-name="Path 17373" d="M841.64,447.65l1.105.071,0,.043-1.1-.071Z" transform="translate(-841.64 -446.262)" fill="#41d287"/>
          <path id="Path_17374" data-name="Path 17374" d="M841.64,446.46l1.107.072v.043l-1.105-.071Z" transform="translate(-841.64 -445.116)" fill="#40d187"/>
          <path id="Path_17375" data-name="Path 17375" d="M841.64,445.28l1.107.072v.043l-1.107-.072Z" transform="translate(-841.64 -443.979)" fill="#3fd087"/>
          <path id="Path_17376" data-name="Path 17376" d="M841.64,444.1l1.107.072v.043l-1.107-.072Z" transform="translate(-841.64 -442.842)" fill="#3ed087"/>
          <path id="Path_17377" data-name="Path 17377" d="M841.64,442.92l1.107.071v.043l-1.107-.072Z" transform="translate(-841.64 -441.705)" fill="#3dcf87"/>
          <path id="Path_17378" data-name="Path 17378" d="M841.64,441.74l1.107.071v.043l-1.107-.071Z" transform="translate(-841.64 -440.568)" fill="#3ccf87"/>
          <path id="Path_17379" data-name="Path 17379" d="M841.64,440.55l1.107.072v.043l-1.107-.071Z" transform="translate(-841.64 -439.422)" fill="#3bce88"/>
          <path id="Path_17380" data-name="Path 17380" d="M841.64,439.37l1.107.072v.043l-1.107-.072Z" transform="translate(-841.64 -438.285)" fill="#3ace88"/>
          <path id="Path_17381" data-name="Path 17381" d="M841.64,438.19l1.107.071v.043l-1.107-.072Z" transform="translate(-841.64 -437.148)" fill="#39cd88"/>
          <path id="Path_17382" data-name="Path 17382" d="M841.64,437.01l1.107.071v.043l-1.107-.071Z" transform="translate(-841.64 -436.011)" fill="#38cd88"/>
          <path id="Path_17383" data-name="Path 17383" d="M841.64,435.82l1.107.072v.043l-1.107-.071Z" transform="translate(-841.64 -434.865)" fill="#37cc88"/>
          <path id="Path_17384" data-name="Path 17384" d="M841.64,434.64l1.107.072v.043l-1.107-.072Z" transform="translate(-841.64 -433.728)" fill="#37cc88"/>
          <path id="Path_17385" data-name="Path 17385" d="M841.64,433.46l1.107.072v.043l-1.107-.072Z" transform="translate(-841.64 -432.591)" fill="#36cb88"/>
          <path id="Path_17386" data-name="Path 17386" d="M841.64,432.28l1.107.071v.043l-1.107-.072Z" transform="translate(-841.64 -431.454)" fill="#35cb88"/>
          <path id="Path_17387" data-name="Path 17387" d="M841.64,431.1l1.107.071v.043l-1.107-.071Z" transform="translate(-841.64 -430.317)" fill="#34ca89"/>
          <path id="Path_17388" data-name="Path 17388" d="M841.64,429.91l1.107.072v.043l-1.107-.071Z" transform="translate(-841.64 -429.171)" fill="#33ca89"/>
          <path id="Path_17389" data-name="Path 17389" d="M841.64,428.73l1.107.072v.043l-1.107-.072Z" transform="translate(-841.64 -428.034)" fill="#32c989"/>
          <path id="Path_17390" data-name="Path 17390" d="M841.64,427.55l1.107.071v.043l-1.107-.072Z" transform="translate(-841.64 -426.897)" fill="#31c989"/>
          <path id="Path_17391" data-name="Path 17391" d="M841.64,426.37l1.107.071v.043l-1.107-.071Z" transform="translate(-841.64 -425.76)" fill="#31c989"/>
          <path id="Path_17392" data-name="Path 17392" d="M841.64,425.19l1.107.071v.043l-1.107-.071Z" transform="translate(-841.64 -424.623)" fill="#30c889"/>
          <path id="Path_17393" data-name="Path 17393" d="M841.64,424l1.107.072v.043l-1.107-.071Z" transform="translate(-841.64 -423.476)" fill="#2fc889"/>
          <path id="Path_17394" data-name="Path 17394" d="M841.64,422.82l1.107.071v.044l-1.107-.072Z" transform="translate(-841.64 -422.34)" fill="#2fc789"/>
          <path id="Path_17395" data-name="Path 17395" d="M841.64,421.64l1.107.071v.043l-1.107-.071Z" transform="translate(-841.64 -421.203)" fill="#2ec789"/>
          <path id="Path_17396" data-name="Path 17396" d="M841.64,420.46l1.107.071v.043l-1.107-.071Z" transform="translate(-841.64 -420.066)" fill="#2dc78a"/>
          <path id="Path_17397" data-name="Path 17397" d="M841.64,419.27l1.107.072v.043l-1.107-.071Z" transform="translate(-841.64 -418.919)" fill="#2dc68a"/>
          <path id="Path_17398" data-name="Path 17398" d="M841.64,418.09l1.107.072v.043l-1.107-.072Z" transform="translate(-841.64 -417.782)" fill="#2cc68a"/>
          <path id="Path_17399" data-name="Path 17399" d="M841.64,416.91l1.107.071v.043l-1.107-.072Z" transform="translate(-841.64 -416.646)" fill="#2bc68a"/>
          <path id="Path_17400" data-name="Path 17400" d="M841.64,415.73l1.107.071v.043l-1.107-.071Z" transform="translate(-841.64 -415.509)" fill="#2bc68a"/>
          <path id="Path_17401" data-name="Path 17401" d="M841.64,414.55l1.107.071v.043l-1.107-.071Z" transform="translate(-841.64 -414.372)" fill="#2bc58a"/>
          <path id="Path_17402" data-name="Path 17402" d="M841.64,413.36l1.107.072v.043l-1.107-.071Z" transform="translate(-841.64 -413.225)" fill="#2ac58a"/>
          <path id="Path_17403" data-name="Path 17403" d="M841.64,412.18l1.107.072v.043l-1.107-.072Z" transform="translate(-841.64 -412.088)" fill="#2ac58a"/>
          <path id="Path_17404" data-name="Path 17404" d="M842.747,409.833l-1.107-.072v-.092h1.107Z" transform="translate(-841.64 -409.67)" fill="#2ac58a"/>
        </g>
        <path id="Path_17406" data-name="Path 17406" d="M739.663,362.14A22.668,22.668,0,0,1,744,363.876a3.529,3.529,0,0,0-.5,1.969s-2.47-1.673-4.353-2.658A1.773,1.773,0,0,1,739.663,362.14Z" transform="translate(-712.146 -348.909)" fill="#2cc48b"/>
        <path id="Path_17407" data-name="Path 17407" d="M894.528,325.821a1.046,1.046,0,0,1-.986-.467.082.082,0,1,1,.146-.073c.258.516,1.162.351,1.171.349a.082.082,0,1,1,.031.161A2.131,2.131,0,0,1,894.528,325.821Z" transform="translate(-860.887 -313.349)" fill="#f8910f"/>
        <path id="Path_17408" data-name="Path 17408" d="M813.816,649.929a.081.081,0,0,1-.062-.029l-1.973-2.295a.082.082,0,0,1,.124-.106l1.973,2.294a.082.082,0,0,1-.062.135Z" transform="translate(-782.104 -623.816)" fill="#2cc48b"/>
        <path id="Path_17409" data-name="Path 17409" d="M2410.91,857.4a.063.063,0,0,1-.021,0,.061.061,0,0,1-.037-.078l.658-1.859a.061.061,0,1,1,.116.041l-.657,1.859A.062.062,0,0,1,2410.91,857.4Z" transform="translate(-2322.771 -824.166)" fill="#f8910f"/>
        <path id="Path_17410" data-name="Path 17410" d="M1838.1,979.056a.058.058,0,0,1-.028-.007.061.061,0,0,1-.026-.083c.01-.02,1.073-2.049,2.566-4.269a15.308,15.308,0,0,1,4.868-3.961,33.519,33.519,0,0,1,3.313-1.654.061.061,0,1,1,.047.113c-.061.025-6.1,2.564-8.126,5.57-1.489,2.214-2.549,4.238-2.557,4.257a.061.061,0,0,1-.056.033Z" transform="translate(-1770.887 -933.673)" fill="#0e2946"/>
        <path id="Path_17411" data-name="Path 17411" d="M1898.546,1262.77a.06.06,0,0,1-.033-.01.061.061,0,0,1-.019-.085l2.747-4.259a.062.062,0,0,1,.1.067l-2.747,4.259A.062.062,0,0,1,1898.546,1262.77Z" transform="translate(-1829.126 -1212.413)" fill="#0e2946"/>
        <path id="Path_17412" data-name="Path 17412" d="M883.036,701.737l-.292.281c-1.879-2.184-12.6-3.858-25.546-3.858-12.385,0-22.734,1.532-25.253,3.577h-.585v.966c0,2.509,11.568,4.543,25.838,4.543s25.838-2.034,25.838-4.543a.526.526,0,0,0,0-.054Z" transform="translate(-800.987 -672.653)" fill="#5e3489"/>
        <ellipse id="Ellipse_522" data-name="Ellipse 522" cx="25.838" cy="4.543" rx="25.838" ry="4.543" transform="translate(30.372 24.541)" fill="#7a4aa4"/>
        <path id="Path_17413" data-name="Path 17413" d="M1743.835,691.65c0-1.7-5.305-3.18-13.162-3.96l-4.574.32s-1.019-.421-1.3-.106,1.225,1.74,2.161,1.624c4.684-.581,4.911.283,4.663.714-.66,1.148-3.057-.213-3.043.663.008.5.618.909,3.041,1.465,1.092.251,10.079,1.616,10.466.927C1743.214,692.786,1743.835,692.232,1743.835,691.65Z" transform="translate(-1661.75 -662.566)" fill="#7a4aa4" opacity="0.17"/>
        <path id="Path_17414" data-name="Path 17414" d="M831.34,714.455a1.375,1.375,0,0,0,.666,1.03c.285.048.6.1.96.142,1.111.146,12.19.475,12.093-1.879-.048-1.16-2.64-1.978-6.8-2.388C833.967,712.171,831.34,713.259,831.34,714.455Z" transform="translate(-800.968 -685.371)" fill="#7a4aa4" opacity="0.17"/>
        <path id="Path_17415" data-name="Path 17415" d="M1865.134,395.21s-5.057.278-7,3.222-4.064,5.347-4.748,5.715-6.361.421-6.361.421a11.768,11.768,0,0,0-.263,2.418c.157.105,6.4,1.209,9.17.526S1865.134,395.21,1865.134,395.21Z" transform="translate(-1779.256 -380.771)" fill="#ffb12a"/>
        <path id="Path_17416" data-name="Path 17416" d="M1840.056,569.322s-1.35-.036-1.393-1.127a4.669,4.669,0,0,0-.877-2.411c-.527-.472-2-.473-1.629-.183,0,0-.762-.026-.84.158s1.262.96,1.341,1.492c-.475-.441-1.269-.467-1.344-.283s1.03.586,1.16,1.078.42,1.866.788,1.973a13.745,13.745,0,0,1,1.7.976Z" transform="translate(-1768.257 -544.746)" fill="#fcdb7f"/>
        <path id="Path_17417" data-name="Path 17417" d="M1735.238,625.279a2.487,2.487,0,0,1-.976-.228,5.959,5.959,0,0,0-1.551-1.051c-.289,0,.026.5.447.973s-.183.694-.84.307-1.472-1.306-1.551-1.148.158.683.183.815-.105.183.236.658.552,1.1,1.025,1.419a8.986,8.986,0,0,0,2.777.183Z" transform="translate(-1667.52 -601.203)" fill="#fcdb7f"/>
        <path id="Path_17418" data-name="Path 17418" d="M2198.423,400h0c-.657.31-.618,1.433-.618,1.433a2.105,2.105,0,0,1-.39-1.371c.112-.668.823-1.326,2.466-1.548C2202.7,398.131,2198.423,400,2198.423,400Z" transform="translate(-2117.118 -383.903)" fill="#fc9020"/>
        <path id="Path_17419" data-name="Path 17419" d="M1951.051,546.562c-.311-.755-5.944-.746-8.878-.689a.384.384,0,0,0-.375.332v0a29.494,29.494,0,0,0-.315,4.258s-1.178.537-6.412-.332l-.784.764a5.8,5.8,0,0,0-.706,1.51c.165.173.365.372.6.585a23.856,23.856,0,0,0,7.359,2.707.035.035,0,0,0,0,.015c1.169-.149,3.207-.511,4.046-1.276C1946.793,553.331,1951.471,547.584,1951.051,546.562Z" transform="translate(-1862.938 -525.907)" fill="#ffb12a"/>
        <path id="Path_17420" data-name="Path 17420" d="M1977.039,540.244a29.954,29.954,0,0,1-4.819-.387.082.082,0,1,1,.03-.161,29.921,29.921,0,0,0,5.708.369,1.878,1.878,0,0,0,1.5-.84c2.314-3.5,2.565-4.055,2.575-4.075a.082.082,0,1,1,.15.064c-.009.021-.249.561-2.589,4.1a2.04,2.04,0,0,1-1.629.913C1977.649,540.239,1977.34,540.244,1977.039,540.244Z" transform="translate(-1900.102 -515.55)" fill="#f8910f"/>
        <path id="Path_17421" data-name="Path 17421" d="M2243.63,599.366a.082.082,0,0,1-.075-.053.088.088,0,0,1,.043-.113,10.674,10.674,0,0,0,4.669-4.877,19.662,19.662,0,0,0,1.162-2.676.078.078,0,0,1-.079-.017.089.089,0,0,1-.007-.122c.081-.1.158-.126.217-.084.089.064.211.151-1.147,2.977a11.233,11.233,0,0,1-3.024,3.832,8.593,8.593,0,0,1-1.727,1.125A.075.075,0,0,1,2243.63,599.366Z" transform="translate(-2161.582 -569.799)" fill="#f8910f"/>
        <path id="Path_17422" data-name="Path 17422" d="M2131.684,156.673a4.674,4.674,0,0,0,.061-2.611,1.324,1.324,0,0,0-1.524-.421c-1.078.289-1.708.393-1.762-1.354-.052-.473-.907-.8-.658-1.038a2.076,2.076,0,0,0,.8-1.526c.014-.829-.065-2.891.552-3.614s5.875.065,6.033,2.009a7.485,7.485,0,0,1-.421,3.286s-.34,2.313.448,2.97S2133.445,157.907,2131.684,156.673Z" transform="translate(-2050.02 -140.516)" fill="#fcdb7f"/>
        <path id="Path_17423" data-name="Path 17423" d="M2119.929,100.736s.29-.815.7-.815.7.486.658.894-.539,1.038-.946,1c.1.511,1.33.433,1.33.433a12.854,12.854,0,0,1,1.483-2.115,2.779,2.779,0,0,0-.394-3.773s-.183-.38-1.393-.274-2.68-1.6-4.442-1.6-3.64,2.576-2.229,4.022c-.086-1.472.335-2.327,1.071-2.537a2,2,0,0,0,1.367,3.351,1.422,1.422,0,0,1-.183-1.525s.131,2.037,2.9,1.354A1.948,1.948,0,0,0,2119.929,100.736Z" transform="translate(-2036.955 -91.028)" fill="#133b63"/>
        <path id="Path_17424" data-name="Path 17424" d="M2145.555,324.159a1.572,1.572,0,0,1-.5-.088.082.082,0,0,1,.058-.153h0a1.159,1.159,0,0,0,.8,0,.082.082,0,1,1,.073.146A.938.938,0,0,1,2145.555,324.159Z" transform="translate(-2066.635 -312.077)" fill="#f8910f"/>
        <path id="Path_17425" data-name="Path 17425" d="M2225.44,381.614s3.051-1.13,3.891-2.234a1.332,1.332,0,0,1,.682.815,13.2,13.2,0,0,1-4.346,3.18A1.89,1.89,0,0,0,2225.44,381.614Z" transform="translate(-2144.135 -365.52)" fill="#fc9020"/>
        <g id="Group_13932" data-name="Group 13932" transform="translate(76.012 19.417)" opacity="0.3">
          <path id="Path_17426" data-name="Path 17426" d="M2084.386,531.48a13.388,13.388,0,0,0,0,3.825s-.471,1.715-2.9,1.451.61-.027,1.24-.95A26.811,26.811,0,0,0,2084.386,531.48Z" transform="translate(-2080.564 -531.48)" fill="#ffb12a"/>
        </g>
        <path id="Path_17427" data-name="Path 17427" d="M1933.634,662.983h-.012a.061.061,0,0,1-.039-.027.061.061,0,0,1-.009-.047,3.594,3.594,0,0,1,1.439-2.327.061.061,0,0,1,.064.1,3.538,3.538,0,0,0-1.383,2.246A.061.061,0,0,1,1933.634,662.983Z" transform="translate(-1862.931 -636.44)" fill="#f8910f"/>
        <path id="Path_17428" data-name="Path 17428" d="M1167.3,740.131l11.235-.121-2.18,2.386h-11.34Z" transform="translate(-1122.457 -712.974)" fill="#5e3489"/>
        <path id="Path_17429" data-name="Path 17429" d="M1180.015,738.1l10.647-.115-2.066,2.261H1177.85Z" transform="translate(-1134.819 -711.028)" fill="#f3f6fd"/>
        <path id="Path_17430" data-name="Path 17430" d="M1161.75,685.82a2.481,2.481,0,0,0,.976-.228,5.963,5.963,0,0,1,1.551-1.051c.289,0-.026.5-.447.973s.183.694.84.307,1.472-1.306,1.551-1.148-.158.684-.183.815.105.183-.236.658-.552,1.1-1.025,1.419a9,9,0,0,1-2.777.183Z" transform="translate(-1119.307 -659.531)" fill="#fcdb7f"/>
        <path id="Path_17431" data-name="Path 17431" d="M875.159,672.531c-.407-.044-1.582-.205-1.76-.811l-3.909,1.552.067.137a6.1,6.1,0,0,0,5.115,2.854c1.425-.153,5.261-.11,5.8-.688.262-.281.237-2.437-.209-2.484A34.582,34.582,0,0,1,875.159,672.531Z" transform="translate(-837.724 -647.179)" fill="#69e781"/>
        <path id="Path_17432" data-name="Path 17432" d="M1207.547,827.37h-.271a.292.292,0,0,0-.258-.154h-.106V827.2a.093.093,0,0,0-.037-.073c.047,0,.137-.054.071-.1a.1.1,0,0,0-.058-.019h-1.931a.064.064,0,0,0-.064.051.061.061,0,0,0,.014.05.06.06,0,0,0,.047.022h1.785a.057.057,0,0,1,.057.057v.029h-4.787a2.423,2.423,0,0,0-.845.209h-.14a.065.065,0,0,0,0,.13h.094a2.023,2.023,0,0,0,.891.248h5.009a.292.292,0,0,0,.258-.154h.271a.127.127,0,0,0,.127-.127V827.5a.128.128,0,0,0-.127-.129Z" transform="translate(-1157.088 -796.795)" fill="#5e3489"/>
        <path id="Path_17433" data-name="Path 17433" d="M1486.219,756h.7a.048.048,0,0,1,.036.081l-.679.72a.14.14,0,0,1-.1.044h-.736a.048.048,0,0,1-.034-.081l.7-.718A.152.152,0,0,1,1486.219,756Z" transform="translate(-1431.125 -728.379)" fill="#5e3489"/>
        <line id="Line_517" data-name="Line 517" x1="1.379" y2="1.45" transform="translate(52.888 27.326)" fill="none" stroke="#a7a9ac" stroke-linecap="round" stroke-linejoin="round" stroke-width="3"/>
        <line id="Line_518" data-name="Line 518" x1="0.8" y2="0.792" transform="translate(52.751 27.362)" fill="none" stroke="#a7a9ac" stroke-linecap="round" stroke-linejoin="round" stroke-width="3"/>
        <line id="Line_519" data-name="Line 519" x1="1.454" y2="1.413" transform="translate(51.315 27.345)" fill="none" stroke="#a7a9ac" stroke-linecap="round" stroke-linejoin="round" stroke-width="3"/>
        <path id="Path_17434" data-name="Path 17434" d="M1344.828,749h-1.9a.174.174,0,0,0-.11.04l-.7.585a.037.037,0,0,0,.023.065h1.981a.176.176,0,0,0,.121-.048l.61-.577a.037.037,0,0,0-.027-.065Z" transform="translate(-1293.073 -721.631)" fill="#a7a9ac"/>
        <path id="Path_17435" data-name="Path 17435" d="M1929.371,1501.843a.092.092,0,0,1-.067-.029,1.852,1.852,0,0,0-1.223-.5h0a.091.091,0,1,1,0-.183h0a2.013,2.013,0,0,1,1.357.559.091.091,0,0,1-.067.153Z" transform="translate(-1857.552 -1446.287)" fill="#fc9020"/>
        <path id="Path_17436" data-name="Path 17436" d="M1918.758,1521.259a.089.089,0,0,1-.056-.019,3.358,3.358,0,0,0-1.212-.475.091.091,0,1,1,.031-.18,3.386,3.386,0,0,1,1.294.51.091.091,0,0,1-.057.163Z" transform="translate(-1847.362 -1465.03)" fill="#fc9020"/>
        <path id="Path_17437" data-name="Path 17437" d="M1687.617,1497.358a.091.091,0,0,1-.109-.059,3.13,3.13,0,0,1-.085-1.023.092.092,0,0,1,.183.015,3.005,3.005,0,0,0,.076.95.091.091,0,0,1-.057.115Z" transform="translate(-1625.765 -1441.529)" fill="#fc9020"/>
        <path id="Path_17438" data-name="Path 17438" d="M1663.9,1501.359a.08.08,0,0,1-.09-.04,1.115,1.115,0,0,1,.037-.848.091.091,0,1,1,.171.065,1.07,1.07,0,0,0-.054.682c.01.049.016.1-.026.126A.086.086,0,0,1,1663.9,1501.359Z" transform="translate(-1602.959 -1445.596)" fill="#fc9020"/>
        <path id="Path_17439" data-name="Path 17439" d="M936.681,1461.8v.1a.377.377,0,0,1-.179.1,5.023,5.023,0,0,1-.83.194c-.468.079-.94.131-1.413.169q-.738.059-1.479.063c-.232,0-.464-.005-.7-.011a12.969,12.969,0,0,1-1.336-.1,9.037,9.037,0,0,1-1.223-.238,5.153,5.153,0,0,1-1.176-.467.187.187,0,0,1-.11-.192,2.172,2.172,0,0,1,.046-.32,7.814,7.814,0,0,1,.35-1.017c.1-.258.209-.514.3-.775a.881.881,0,0,1,.424-.511c.053-.029.11-.051.166-.076h.009a1.194,1.194,0,0,0,.094.092,1.307,1.307,0,0,0,.485.224,5.658,5.658,0,0,0,1.411.152,2.8,2.8,0,0,0,.447-.078,8.61,8.61,0,0,0,1.91,1.29,11.324,11.324,0,0,0,1.252.419c.2.063.407.117.607.183a2.167,2.167,0,0,1,.607.3.749.749,0,0,1,.311.416C936.667,1461.734,936.674,1461.765,936.681,1461.8Z" transform="translate(-894.326 -1405.417)" fill="#5c3c92"/>
        <path id="Path_17440" data-name="Path 17440" d="M1021,1485.51a1.523,1.523,0,0,1-1.076.438s.546.767,1.153.785a1.845,1.845,0,0,0,1.133-.467" transform="translate(-982.658 -1431.238)" fill="#383838"/>
        <path id="Path_17441" data-name="Path 17441" d="M1032.121,1469.61h-.01a7.11,7.11,0,0,1-3.356-1.768.062.062,0,1,1,.087-.087,6.967,6.967,0,0,0,3.288,1.734.061.061,0,0,1-.011.122Z" transform="translate(-991.153 -1414.114)" fill="#4a0084"/>
      </g>
    </g>
  </g>
</svg>
