<svg xmlns="http://www.w3.org/2000/svg" width="109.068" height="89.545" viewBox="0 0 109.068 89.545">
  <g id="Group_13933" data-name="Group 13933" transform="translate(-1755.499 -2047.718)">
    <path id="Path_17483" data-name="Path 17483" d="M808.952,344.167c.437-.49.482-1.044.092-1.247a1.478,1.478,0,0,0-1.528.5,1.478,1.478,0,0,1-1.529.5c-.39-.2-.345-.755.094-1.247s.482-1.044.092-1.247a1.477,1.477,0,0,0-1.528.5,1.474,1.474,0,0,1-1.528.5c-.39-.2-.345-.755.092-1.247s.482-1.043.094-1.245a1.477,1.477,0,0,0-1.528.5,1.477,1.477,0,0,1-1.529.5c-.39-.2-.347-.755.092-1.247s.482-1.043.092-1.245a1.477,1.477,0,0,0-1.528.5,1.474,1.474,0,0,1-1.524.5c-.392-.2-.347-.755.092-1.247s.482-1.043.092-1.245a1.477,1.477,0,0,0-1.529.5,1.475,1.475,0,0,1-1.529.5c-.39-.2-.345-.755.094-1.245s.482-1.044.092-1.247a1.475,1.475,0,0,0-1.528.5,1.475,1.475,0,0,1-1.528.5c-.39-.2-.345-.757.092-1.247s.484-1.044.094-1.247a1.474,1.474,0,0,0-1.528.5,1.471,1.471,0,0,1-1.529.5c-.39-.2-.345-.755.092-1.245h0c.439-.491.482-1.044.094-1.247a1.475,1.475,0,0,0-1.529.5,1.474,1.474,0,0,1-1.528.5c-.39-.2-.345-.757.092-1.247s.482-1.044.094-1.247a1.475,1.475,0,0,0-1.529.5,1.475,1.475,0,0,1-1.528.5c-.388-.2-.347-.757.092-1.247s.482-1.044.092-1.247a1.475,1.475,0,0,0-1.528.5,1.475,1.475,0,0,1-1.529.5c-.39-.2-.345-.757.094-1.247s.482-1.044.092-1.247a1.478,1.478,0,0,0-1.529.5,1.478,1.478,0,0,1-1.528.5c-.39-.2-.345-.757.094-1.247s.482-1.044.092-1.247a1.477,1.477,0,0,0-1.528.5,1.477,1.477,0,0,1-1.528.5c-.39-.2-.345-.757.092-1.247s.484-1.044.092-1.247a1.473,1.473,0,0,0-1.526.5,1.477,1.477,0,0,1-1.529.5c-.39-.2-.347-.755.092-1.247s.482-1.044.092-1.247a1.478,1.478,0,0,0-1.528.5,1.478,1.478,0,0,1-1.528.5c-.39-.2-.345-.755.094-1.247h0c.439-.49.482-1.044.092-1.247a1.474,1.474,0,0,0-1.526.5,1.477,1.477,0,0,1-1.529.5c-.39-.2-.347-.755.092-1.247s.482-1.044.092-1.247a1.478,1.478,0,0,0-1.528.5,1.475,1.475,0,0,1-1.529.5c-.39-.2-.345-.755.094-1.247s.482-1.043.092-1.245a1.477,1.477,0,0,0-1.528.5,1.478,1.478,0,0,1-1.528.5c-.39-.2-.345-.755.092-1.247s.484-1.043.094-1.245a1.476,1.476,0,0,0-1.529.5,1.477,1.477,0,0,1-1.528.5c-.39-.2-.345-.755.092-1.247s.482-1.043.094-1.245a1.475,1.475,0,0,0-1.528.5,1.471,1.471,0,0,1-1.529.5c-.39-.2-.347-.755.092-1.245s.482-1.044.092-1.247a1.476,1.476,0,0,0-1.529.5,1.473,1.473,0,0,1-1.526.5c-.388-.2-.347-.757.092-1.247s.482-1.044.092-1.247a1.475,1.475,0,0,0-1.528.5,1.471,1.471,0,0,1-1.528.5c-.39-.2-.345-.755.094-1.245s.482-1.044.092-1.247a1.283,1.283,0,0,0-1.46.367,1.309,1.309,0,0,1-1.472.414c-.494-.283-.513-1.594-.506-1.907a15.377,15.377,0,0,1,2.516-6.783" transform="translate(1035.887 1791.708)" fill="none" stroke="#4d4d4d" stroke-miterlimit="10" stroke-width="3"/>
    <path id="Path_17484" data-name="Path 17484" d="M793.542,176.818c1.531-3.038,3.6-3.6,5.99-2.686l7.414,2.823c-.164.825-.3,1.658-.434,2.485s-.235,1.634-.287,2.454c-.035.162-.07.323-.108.485a.817.817,0,0,0-.246.391c-1.369,1.122-2.737,2.213-4.106,3.353-1.83,1.546-3.044,3.562-4.608,5.322l-3.609.368c-2.4-.913-2.315-4.186-2.151-6.745A22.908,22.908,0,0,1,793.542,176.818Z" transform="translate(998.871 1896.234)" fill="#eac5a4"/>
    <path id="Path_17485" data-name="Path 17485" d="M818.549,227.159a3.809,3.809,0,0,0,3.762,3.853l6.061.074a3.81,3.81,0,0,0,3.855-3.764l.018-1.447a3.809,3.809,0,0,0-3.762-3.853l-6.061-.074a3.81,3.81,0,0,0-3.853,3.764Z" transform="translate(976.971 1857.445)" fill="#ffd9b3"/>
    <path id="Path_17486" data-name="Path 17486" d="M818.693,192.961a3.809,3.809,0,0,0,2.205,4.913l8.292,3.159a3.811,3.811,0,0,0,4.915-2.205l2.26-5.934a3.811,3.811,0,0,0-2.205-4.917l-8.292-3.157a3.808,3.808,0,0,0-4.915,2.205Z" transform="translate(977.056 1887.516)" fill="#ffd9b3"/>
    <path id="Path_17487" data-name="Path 17487" d="M857.262,207.5a4.3,4.3,0,0,0,2.489,5.547l.516.2a4.3,4.3,0,0,0,5.547-2.487l1.912-5.017a4.3,4.3,0,0,0-2.489-5.549l-.516-.2a4.3,4.3,0,0,0-5.547,2.487Z" transform="translate(946.053 1875.336)" fill="#ffd9b3"/>
    <path id="Path_17488" data-name="Path 17488" d="M872.487,199.85l1.114.422a3.811,3.811,0,0,1,2.2,4.915l-2.26,5.934a3.738,3.738,0,0,1-4.839,2.233l-1.236-.049Z" transform="translate(937.614 1875.223)" fill="#eac5a4"/>
    <path id="Path_17489" data-name="Path 17489" d="M996.52,157.269l10.028,4.663,2.094-17.553-6.956-2.229Z" transform="translate(809.318 1932.334)" fill="#e6e6e6"/>
    <path id="Path_17490" data-name="Path 17490" d="M996.52,189.3l10.028,4.663v-10.3l-7.523-1.693Z" transform="translate(809.318 1900.299)" opacity="0.1"/>
    <path id="Path_17491" data-name="Path 17491" d="M776.678,186.381a4.089,4.089,0,0,1-1.914-.012c-.714-.065-1.427-.141-2.141-.219-1.564-.17-3.128-.26-4.692-.373q-3.128-.227-6.231-.587a11.046,11.046,0,0,1,1.7-1.76,3.311,3.311,0,0,1,4.106.119,2.164,2.164,0,0,0,3.163-.2,17.543,17.543,0,0,0,2.08-16.855,25.731,25.731,0,0,1,7.275,1.666,28.738,28.738,0,0,1,.156,7.273,26.456,26.456,0,0,1-3.431,10.921A.667.667,0,0,0,776.678,186.381Z" transform="translate(1022.705 1902.052)" fill="#eac5a4"/>
    <path id="Path_17492" data-name="Path 17492" d="M1001.85,152.758l52.171,24.232,6.515-18.943-53.811-19.467Z" transform="translate(804.03 1936.206)" fill="#544d4a"/>
    <path id="Path_17493" data-name="Path 17493" d="M745.683,127.58a3.311,3.311,0,0,1,4.106.119,2.164,2.164,0,0,0,3.163-.2,17.567,17.567,0,0,0,1.779-17.574,2.163,2.163,0,0,0-3.06-.831,3.311,3.311,0,0,1-4.045-.706,20.254,20.254,0,0,1-2.694-5.132,3.63,3.63,0,0,1,.649-4.09,5.517,5.517,0,0,1,3.3-1.427,6.715,6.715,0,0,1,2.6.168h0l.076.029.076.027c7.666,2.678,11.883,11.238,10.833,21.623s-6.9,17.928-14.945,19.017l-.08.012-.082.012h0a6.667,6.667,0,0,1-2.579-.356,5.571,5.571,0,0,1-2.946-2.059,3.65,3.65,0,0,1,.184-4.137A20.471,20.471,0,0,1,745.683,127.58Z" transform="translate(1039.136 1957.404)" fill="#333"/>
    <path id="Path_17494" data-name="Path 17494" d="M760.83,100l4.432,10.972a3.29,3.29,0,0,1-4-.725,20.256,20.256,0,0,1-2.694-5.132,3.63,3.63,0,0,1,.649-4.09A4.076,4.076,0,0,1,760.83,100Z" transform="translate(1025.496 1955.551)" fill="#4d4d4d"/>
    <path id="Path_17495" data-name="Path 17495" d="M743.179,257.735l6.542-9.86a3.3,3.3,0,0,0-4.063-.092,19.991,19.991,0,0,0-3.668,4.5,3.627,3.627,0,0,0-.184,4.135,4.081,4.081,0,0,0,1.372,1.32Z" transform="translate(1039.161 1837.198)" fill="#4d4d4d"/>
    <path id="Path_17496" data-name="Path 17496" d="M753.456,298.824a.782.782,0,0,0,.422,1.034h0a.792.792,0,0,0,1.034-.422l.375-.9a.782.782,0,0,0-.422-1.034h0a.782.782,0,0,0-1.034.422Z" transform="translate(1029.389 1796.711)" fill="#333"/>
    <path id="Path_17499" data-name="Path 17499" d="M893.732,267.03a1.509,1.509,0,1,0,.8-.845A1.513,1.513,0,0,0,893.732,267.03Z" transform="translate(916.566 1821.963)" fill="#ccc"/>
    <path id="Path_17500" data-name="Path 17500" d="M834.771,158.8a2.311,2.311,0,0,0-.36,3.249l4.843,6.061a2.311,2.311,0,0,0,3.249.362h0a2.313,2.313,0,0,0,.362-3.249l-4.845-6.061A2.311,2.311,0,0,0,834.771,158.8Z" transform="translate(964.617 1908.651)" fill="#ffd9b3"/>
    <path id="Path_17501" data-name="Path 17501" d="M811.665,147.852c-.567,1.144.733,3,1.877,3.57l3.462,1.7a2.313,2.313,0,0,0,3.1-1.046h0a2.311,2.311,0,0,0-1.054-3.1l-4.3-2.176a2.311,2.311,0,0,0-3.1,1.044Z" transform="translate(982.619 1918.088)" fill="#ffd9b3"/>
    <path id="Path_17502" data-name="Path 17502" d="M788.461,169.534a2.129,2.129,0,0,0,1.619,2.542l4.311.985a2.129,2.129,0,0,0,2.542-1.621h0a2.129,2.129,0,0,0-1.619-2.542l-4.319-.991a2.125,2.125,0,0,0-2.542,1.619Z" transform="translate(1001.217 1900.962)" fill="#ffd9b3"/>
    <path id="Path_17503" data-name="Path 17503" d="M780.816,214.917a2.127,2.127,0,0,0,1.476,2.62l4.256,1.226a2.125,2.125,0,0,0,2.62-1.476h0a2.125,2.125,0,0,0-1.476-2.62l-4.256-1.23a2.125,2.125,0,0,0-2.62,1.476Z" transform="translate(1007.389 1864.356)" fill="#ffd9b3"/>
    <path id="Path_17504" data-name="Path 17504" d="M781.024,237.86a1.674,1.674,0,0,0,1.161,2.063l3.353.978a1.674,1.674,0,0,0,2.063-1.161h0a1.674,1.674,0,0,0-1.157-2.072l-3.351-.978a1.674,1.674,0,0,0-2.063,1.173Z" transform="translate(1007.209 1845.635)" fill="#ffd9b3"/>
    <path id="Path_17505" data-name="Path 17505" d="M780.423,191.1a2.127,2.127,0,0,0,1.638,2.53l5.519,1.4a2.127,2.127,0,0,0,2.528-1.629h0a2.127,2.127,0,0,0-1.629-2.528l-5.521-1.4a2.127,2.127,0,0,0-2.536,1.627Z" transform="translate(1007.681 1883.609)" fill="#ffd9b3"/>
    <path id="Path_17506" data-name="Path 17506" d="M819.279,177.3a1.507,1.507,0,0,1-1.795,1.146l-.366-.084a4.589,4.589,0,0,1,.708-2.933l.307.072a1.505,1.505,0,0,1,1.146,1.8Z" transform="translate(978.138 1894.868)" fill="#fff" opacity="0.2"/>
    <path id="Path_17507" data-name="Path 17507" d="M817.451,201.657a1.458,1.458,0,0,1-1.738,1.112l-.356-.082a4.383,4.383,0,0,1,.268-2.012,4.475,4.475,0,0,1,.418-.825l.3.068A1.458,1.458,0,0,1,817.451,201.657Z" transform="translate(979.556 1875.223)" fill="#fff" opacity="0.2"/>
    <path id="Path_17508" data-name="Path 17508" d="M812.1,224.719a1.525,1.525,0,0,1-1.818,1.161l-.375-.076a4.591,4.591,0,0,1,.28-2.1,4.815,4.815,0,0,1,.436-.862l.313.07A1.529,1.529,0,0,1,812.1,224.719Z" transform="translate(983.944 1856.728)" fill="#fff" opacity="0.2"/>
    <path id="Path_17509" data-name="Path 17509" d="M805.616,245.47a1.189,1.189,0,0,1-1.416.9l-.278-.066a3.538,3.538,0,0,1,.217-1.634,3.674,3.674,0,0,1,.33-.673l.242.057a1.187,1.187,0,0,1,.9,1.414Z" transform="translate(988.752 1839.704)" fill="#fff" opacity="0.2"/>
    <path id="Path_17510" data-name="Path 17510" d="M825.62,146.93s-.42.493,2.426,1.6l.248-.3A15.084,15.084,0,0,0,825.62,146.93Z" transform="translate(971.299 1917.796)" fill="#fff" opacity="0.2"/>
    <path id="Path_17511" data-name="Path 17511" stroke="#6fc9a5" d="M699.407,145.36a8.518,8.518,0,0,0-1.64,15.418" fill="none" transform="translate(1077.508 1919.059)" stroke-linecap="round" stroke-linejoin="round" stroke-width="6" opacity="0.5"/>
    <path id="Path_17512" data-name="Path 17512" stroke="#6fc9a5" d="M680.917,118.84a14.122,14.122,0,0,0-2.712,25.563" fill="none" transform="translate(1095.466 1940.395)" stroke-linecap="round" stroke-linejoin="round" stroke-width="8.29" opacity="0.5"/>
    <path id="Path_17513" data-name="Path 17513" stroke="#6fc9a5" d="M654.954,95.61a18.792,18.792,0,0,0-3.609,34.019" fill="none" transform="translate(1118.925 1959.083)" stroke-linecap="round" stroke-linejoin="round" stroke-width="11.03" opacity="0.5"/>
  </g>
</svg>
