<svg xmlns="http://www.w3.org/2000/svg" xmlns:xlink="http://www.w3.org/1999/xlink" width="86.545" height="78.384" viewBox="0 0 86.545 78.384">
  <defs>
    <clipPath id="clip-path">
      <path id="Path_17616" data-name="Path 17616" d="M5.471,19.1c5.263-6.506,25.673-6.536,31.752-11.961,3.221-2.875,6.879-5.765,11.19-5.995C50.048,1.055,70.932-5.851,76.432,15.3,79.94,28.8,66.139,55.062,59.642,64.082,52.773,73.62,40.1,81.468,29.76,77.179,18.151,72.362,13.339,66.928,7.291,58.4-1.2,46.41-2.88,29.419,5.471,19.1Z" transform="translate(0.004 0.004)" fill="none"/>
    </clipPath>
    <clipPath id="clip-path-2">
      <path id="Path_17599" data-name="Path 17599" d="M1161.97,1312.48c.118.353-.088,1.3-.293,1.235s-.146-1.235-.146-1.235Z" transform="translate(-1161.523 -1312.48)" fill="none"/>
    </clipPath>
    <clipPath id="clip-path-3">
      <path id="Path_17684" data-name="Path 17684" d="M1695.15,1332.445c.157.075.128.343-.089.541s.216.343.17.51-.8-.157-.726-.383S1694.907,1332.327,1695.15,1332.445Z" transform="translate(-1694.5 -1332.429)" fill="none"/>
    </clipPath>
  </defs>
  <g id="Layer_2" data-name="Layer 2" transform="translate(-2055.146 0.604)">
    <g id="Layer_7" data-name="Layer 7" transform="translate(2055.146 -0.604)">
      <g id="Group_13938" data-name="Group 13938" transform="translate(0)" clip-path="url(#clip-path)">
        <g id="Group_13935" data-name="Group 13935" transform="translate(-77.33 0.023)" opacity="0.52">
          <path id="Path_17514" data-name="Path 17514" d="M-2050.5,62.665c-5.077,3.493-5.832,8-3,12.455h157c-.092-2.185,1.174-4.761,4.973-8.284,13.4-12.417,3.811-21.821-10.413-18.735s22.057-23.217,23.63-35.941S-1914.43.206-1935.786.969-1989.5,13.214-2002.193,18.3s-18.212,2.538-42.771,6.354c-9.353,1.454-10.751,12.58-1.4,19.545C-2030.793,55.809-2042.592,57.229-2050.5,62.665Z" transform="translate(2055.13 -0.605)" fill="#fff"/>
          <path id="Path_17515" data-name="Path 17515" d="M-2050.5,62.665c-5.077,3.493-5.832,8-3,12.455h157c-.092-2.185,1.174-4.761,4.973-8.284,13.4-12.417,3.811-21.821-10.413-18.735s22.057-23.217,23.63-35.941S-1914.43.206-1935.786.969-1989.5,13.214-2002.193,18.3s-18.212,2.538-42.771,6.354c-9.353,1.454-10.751,12.58-1.4,19.545C-2030.793,55.809-2042.592,57.229-2050.5,62.665Z" transform="translate(2055.13 -0.605)" fill="#c2efff"/>
        </g>
        <path id="Path_17516" data-name="Path 17516" d="M1071.6,321.19c31.683,22.8,26.979,39.232,20.948,47.276a11.746,11.746,0,0,1-13.587,3.906C1069.584,368.76,1056.866,357.333,1071.6,321.19Z" transform="translate(-1024.807 -309.104)" fill="#fff"/>
        <path id="Path_17517" data-name="Path 17517" d="M1071.6,321.19c31.683,22.8,26.979,39.232,20.948,47.276a11.746,11.746,0,0,1-13.587,3.906C1069.584,368.76,1056.866,357.333,1071.6,321.19Z" transform="translate(-1024.807 -309.104)" fill="#fce683" opacity="0.44"/>
        <path id="Path_17518" data-name="Path 17518" d="M1261.45,383.15l13.663,47.519Z" transform="translate(-1213.984 -368.733)" fill="#fff"/>
        <rect id="Rectangle_25890" data-name="Rectangle 25890" width="0.038" height="49.444" transform="translate(47.44 14.209) rotate(-16.26)" fill="#fff"/>
        <path id="Path_17519" data-name="Path 17519" d="M1214.41,1252.81l13.677,8.689Z" transform="translate(-1168.714 -1205.669)" fill="#fff"/>
        <rect id="Rectangle_25891" data-name="Rectangle 25891" width="0.038" height="16.204" transform="matrix(0.536, -0.844, 0.844, 0.536, 45.687, 47.16)" fill="#fff"/>
        <path id="Path_17520" data-name="Path 17520" d="M1564.32,1111.122l7.04-12.722Z" transform="translate(-1505.458 -1057.069)" fill="#fff"/>
        <rect id="Rectangle_25892" data-name="Rectangle 25892" width="14.54" height="0.038" transform="matrix(0.484, -0.875, 0.875, 0.484, 58.845, 54.045)" fill="#fff"/>
        <path id="Path_17521" data-name="Path 17521" d="M1185.23,951.33l10.785,6.155Z" transform="translate(-1140.632 -915.533)" fill="#fff"/>
        <rect id="Rectangle_25893" data-name="Rectangle 25893" width="0.038" height="12.418" transform="translate(44.588 35.811) rotate(-60.29)" fill="#fff"/>
        <path id="Path_17522" data-name="Path 17522" d="M1448.94,838.55l5.843-7.69Z" transform="translate(-1394.419 -799.596)" fill="#fff"/>
        <rect id="Rectangle_25894" data-name="Rectangle 25894" width="9.658" height="0.038" transform="matrix(0.605, -0.796, 0.796, 0.605, 54.502, 38.937)" fill="#fff"/>
        <path id="Path_17523" data-name="Path 17523" d="M1214.1,646.16l-6.2-4.829Z" transform="translate(-1162.449 -617.198)" fill="#fff"/>
        <rect id="Rectangle_25895" data-name="Rectangle 25895" width="0.038" height="7.856" transform="translate(45.439 24.146) rotate(-52.07)" fill="#fff"/>
        <path id="Path_17524" data-name="Path 17524" d="M1363.26,599.11l2.895-5.4Z" transform="translate(-1311.963 -571.37)" fill="#fff"/>
        <rect id="Rectangle_25896" data-name="Rectangle 25896" width="6.127" height="0.038" transform="matrix(0.472, -0.881, 0.881, 0.472, 51.283, 27.734)" fill="#fff"/>
        <path id="Path_17525" data-name="Path 17525" d="M85.966,1702.68c-.779-6.578-16.97-4.666-21.719-4.666-8.09,0-30.946.145-39.112.145-18.9,0-22.261.593-24.363,4.8-3.965,7.928,8.521,10.5,11.98,10.5,5.644,0,10.955-2.853,16.582-1.2,4.466,1.314,3.029,3.264,10.383,1.256,9.965-2.721,23.055-.355,29.947-.355C73.022,1713.158,87.219,1713.257,85.966,1702.68Z" transform="translate(-0.002 -1633.872)" fill="#fce683"/>
        <g id="Group_13936" data-name="Group 13936" transform="translate(-15.684 18.209)" opacity="0.42">
          <rect id="Rectangle_25897" data-name="Rectangle 25897" width="49.143" height="36.035" fill="#c2efff"/>
        </g>
        <path id="Path_17526" data-name="Path 17526" d="M-416.82,483.92v36.035h49.142V483.92Zm48.251,18.017H-383.53V484.812h14.961Zm-31.9,0V484.812h16.447v17.126Zm16.447.5v16.632h-16.447V502.433Zm-16.942-17.621v17.126h-14.961V484.812Zm-14.961,17.621h14.961v16.632h-14.961Zm32.4,16.632V502.433h14.962v16.632Z" transform="translate(401.136 -465.711)" fill="#a1e7ff"/>
        <rect id="Rectangle_25898" data-name="Rectangle 25898" width="1.519" height="43.463" transform="translate(36.299 15.614)" fill="#7edefc"/>
        <rect id="Rectangle_25899" data-name="Rectangle 25899" width="1.519" height="43.463" transform="translate(34.384 15.614)" fill="#7edefc"/>
        <rect id="Rectangle_25900" data-name="Rectangle 25900" width="1.519" height="43.463" transform="translate(32.468 15.614)" fill="#7edefc"/>
        <rect id="Rectangle_25901" data-name="Rectangle 25901" width="1.519" height="43.463" transform="translate(30.553 15.614)" fill="#7edefc"/>
        <rect id="Rectangle_25902" data-name="Rectangle 25902" width="1.519" height="43.463" transform="translate(28.637 15.614)" fill="#7edefc"/>
        <rect id="Rectangle_25903" data-name="Rectangle 25903" width="1.519" height="43.463" transform="translate(-12.249 15.614)" fill="#7edefc"/>
        <rect id="Rectangle_25904" data-name="Rectangle 25904" width="1.519" height="43.463" transform="translate(-14.165 15.614)" fill="#7edefc"/>
        <rect id="Rectangle_25905" data-name="Rectangle 25905" width="1.519" height="43.463" transform="translate(-16.081 15.614)" fill="#7edefc"/>
        <rect id="Rectangle_25906" data-name="Rectangle 25906" width="1.519" height="43.463" transform="translate(-17.996 15.614)" fill="#7edefc"/>
        <rect id="Rectangle_25907" data-name="Rectangle 25907" width="1.519" height="43.463" transform="translate(-19.912 15.614)" fill="#7edefc"/>
        <rect id="Rectangle_25908" data-name="Rectangle 25908" width="59.447" height="0.892" transform="translate(-20.836 15.251)" fill="#7edefc"/>
        <path id="Path_17527" data-name="Path 17527" d="M2547.09,496.269h-16.78l5.188-3.369h6.4Z" transform="translate(-2512.43 -474.33)" fill="#5bbbcf"/>
        <path id="Path_17528" data-name="Path 17528" d="M2744.656,274.36h-.095l-.292,8.818h.678Z" transform="translate(-2718.34 -264.014)" fill="#5bbbcf"/>
        <rect id="Rectangle_25909" data-name="Rectangle 25909" width="0.59" height="9.024" transform="translate(16.581 64.306) rotate(180)" fill="#5bbbcf"/>
        <rect id="Rectangle_25910" data-name="Rectangle 25910" width="0.272" height="1.202" transform="translate(18.623 65.962) rotate(180)" fill="#5bbbcf"/>
        <circle id="Ellipse_523" data-name="Ellipse 523" cx="0.59" cy="0.59" r="0.59" transform="translate(18.169 65.508)" fill="#5bbbcf"/>
        <rect id="Rectangle_25911" data-name="Rectangle 25911" width="0.272" height="1.202" transform="translate(16.173 65.962) rotate(180)" fill="#5bbbcf"/>
        <circle id="Ellipse_524" data-name="Ellipse 524" cx="0.59" cy="0.59" r="0.59" transform="translate(15.719 65.508)" fill="#5bbbcf"/>
        <rect id="Rectangle_25912" data-name="Rectangle 25912" width="0.272" height="1.202" transform="translate(13.995 64.76)" fill="#5bbbcf"/>
        <circle id="Ellipse_525" data-name="Ellipse 525" cx="0.59" cy="0.59" r="0.59" transform="translate(13.269 65.508)" fill="#5bbbcf"/>
        <path id="Path_17529" data-name="Path 17529" d="M2412.6,1702.973l2.836-.613,2.835.613v.272H2412.6Z" transform="translate(-2399.15 -1638.281)" fill="#5bbbcf"/>
        <path id="Path_17530" data-name="Path 17530" d="M0,0H7.441V2.27a.5.5,0,0,1-.5.5H.5a.5.5,0,0,1-.5-.5V0Z" transform="translate(20.007 57.273) rotate(180)" fill="#5bbbcf"/>
        <path id="Path_17531" data-name="Path 17531" d="M405.024,1196.242H409.7a1.416,1.416,0,0,0,1.361-1.2l.228-1.724a1.032,1.032,0,0,0-1.043-1.2h-4.675a1.415,1.415,0,0,0-1.361,1.2l-.228,1.727A1.03,1.03,0,0,0,405.024,1196.242Z" transform="translate(-388.768 -1147.253)" fill="#5bbbcf"/>
        <rect id="Rectangle_25913" data-name="Rectangle 25913" width="5.765" height="0.249" transform="translate(9.639 48.993)" fill="#5bbbcf"/>
        <rect id="Rectangle_25914" data-name="Rectangle 25914" width="7.823" height="0.249" transform="translate(4.549 48.993)" fill="#5bbbcf"/>
        <path id="Path_17532" data-name="Path 17532" d="M2136.455,1113.32l-7.675.029-.18.083,1.774,7.009,7.675-.029Z" transform="translate(-2125.836 -1071.405)" fill="#5bbbcf"/>
        <ellipse id="Ellipse_526" data-name="Ellipse 526" cx="0.59" cy="0.739" rx="0.59" ry="0.739" transform="translate(6.239 45.055) rotate(-15.26)" fill="#5bbbcf"/>
        <path id="Path_17533" data-name="Path 17533" d="M2332.56,1113.4l.18-.083,1.775,7.009-.181.083Z" transform="translate(-2322.121 -1071.405)" fill="#5bbbcf"/>
        <path id="Path_17534" data-name="Path 17534" d="M2665.178,1337.689h.334l.258-16.97h-.851Z" transform="translate(-2641.975 -1271.001)" fill="#5bbbcf"/>
        <path id="Path_17535" data-name="Path 17535" d="M2521.388,1337.689h.335l.258-16.97h-.851Z" transform="translate(-2503.596 -1271.001)" fill="#5bbbcf"/>
        <path id="Path_17536" data-name="Path 17536" d="M2060.158,1337.689h.334l.258-16.97h-.851Z" transform="translate(-2059.721 -1271.001)" fill="#5bbbcf"/>
        <rect id="Rectangle_25915" data-name="Rectangle 25915" width="8.371" height="0.749" transform="translate(24.816 49.991) rotate(180)" fill="#5bbbcf"/>
        <rect id="Rectangle_25916" data-name="Rectangle 25916" width="18.989" height="0.749" transform="translate(18.079 49.991) rotate(180)" fill="#5bbbcf"/>
        <path id="Path_17537" data-name="Path 17537" d="M2203.958,1337.689h.334l.258-16.97h-.851Z" transform="translate(-2198.11 -1271.001)" fill="#5bbbcf"/>
        <path id="Path_17538" data-name="Path 17538" d="M2519.76,1232.409h.671l1.338-9.319h-.671Z" transform="translate(-2502.278 -1177.045)" fill="#5bbbcf"/>
        <rect id="Rectangle_25917" data-name="Rectangle 25917" width="3.374" height="3.765" transform="translate(58.264 9.691)" fill="#c2efff"/>
        <rect id="Rectangle_25918" data-name="Rectangle 25918" width="2.081" height="2.477" transform="translate(61.038 14.596)" fill="#c2efff"/>
        <rect id="Rectangle_25919" data-name="Rectangle 25919" width="3.901" height="4.31" transform="translate(64.506 11.177)" fill="#c2efff"/>
        <path id="Path_17539" data-name="Path 17539" d="M964.858,1775.423s-.113,1.125-.1,1.527h2.784v-.053a.223.223,0,0,0-.186-.222,2.03,2.03,0,0,1-1.782-1.505Z" transform="translate(-928.454 -1708.373)" fill="#052839"/>
        <path id="Path_17540" data-name="Path 17540" d="M1138.038,1774.133s-.113,1.125-.1,1.527h2.784v-.053a.223.223,0,0,0-.186-.222,2.03,2.03,0,0,1-1.782-1.505Z" transform="translate(-1095.118 -1707.132)" fill="#052839"/>
        <path id="Path_17541" data-name="Path 17541" d="M1156.915,1300.18a2.526,2.526,0,0,1-.323,2.535l-.322-2.469Z" transform="translate(-1112.762 -1251.257)" fill="#ffb884"/>
        <g id="Group_13937" data-name="Group 13937" transform="translate(43.706 49.386)" clip-path="url(#clip-path-2)">
          <path id="Path_17542" data-name="Path 17542" d="M3215.936,1311.892l-.616-.01v0h.616Z" transform="translate(-3215.371 -1311.88)" fill="#ffb985"/>
          <path id="Path_17543" data-name="Path 17543" d="M3215.936,1311.964l-.616-.01v-.023l.616.01Z" transform="translate(-3215.371 -1311.928)" fill="#ffb987"/>
          <path id="Path_17544" data-name="Path 17544" d="M3215.936,1312.584l-.616-.01v-.024l.616.01Z" transform="translate(-3215.371 -1312.525)" fill="#ffba88"/>
          <path id="Path_17545" data-name="Path 17545" d="M3215.936,1313.214l-.616-.01v-.023l.616.01Z" transform="translate(-3215.371 -1313.131)" fill="#ffbb89"/>
          <path id="Path_17546" data-name="Path 17546" d="M3215.936,1313.834l-.616-.01v-.023l.616.01Z" transform="translate(-3215.371 -1313.728)" fill="#ffbc8a"/>
          <path id="Path_17547" data-name="Path 17547" d="M3215.936,1314.453l-.616-.01v-.024l.616.01Z" transform="translate(-3215.371 -1314.324)" fill="#ffbc8b"/>
          <path id="Path_17548" data-name="Path 17548" d="M3215.936,1315.084l-.616-.01v-.024l.616.01Z" transform="translate(-3215.371 -1314.931)" fill="#ffbd8d"/>
          <path id="Path_17549" data-name="Path 17549" d="M3215.936,1315.7l-.616-.01v-.023l.616.01Z" transform="translate(-3215.371 -1315.527)" fill="#ffbe8e"/>
          <path id="Path_17550" data-name="Path 17550" d="M3215.936,1316.333l-.616-.01v-.023l.616.01Z" transform="translate(-3215.371 -1316.134)" fill="#ffbe8f"/>
          <path id="Path_17551" data-name="Path 17551" d="M3215.936,1316.953l-.616-.01v-.024l.616.01Z" transform="translate(-3215.371 -1316.73)" fill="#ffbf90"/>
          <path id="Path_17552" data-name="Path 17552" d="M3215.936,1317.583l-.616-.01v-.023l.616.01Z" transform="translate(-3215.371 -1317.337)" fill="#ffc092"/>
          <path id="Path_17553" data-name="Path 17553" d="M3215.936,1318.2l-.616-.01v-.024l.616.01Z" transform="translate(-3215.371 -1317.933)" fill="#ffc193"/>
          <path id="Path_17554" data-name="Path 17554" d="M3215.936,1318.823l-.616-.01v-.024l.616.01Z" transform="translate(-3215.371 -1318.53)" fill="#ffc194"/>
          <path id="Path_17555" data-name="Path 17555" d="M3215.936,1319.453l-.616-.01v-.023l.616.01Z" transform="translate(-3215.371 -1319.136)" fill="#ffc295"/>
          <path id="Path_17556" data-name="Path 17556" d="M3215.936,1320.073l-.616-.01v-.024l.616.01Z" transform="translate(-3215.371 -1319.733)" fill="#ffc396"/>
          <path id="Path_17557" data-name="Path 17557" d="M3215.936,1320.7l-.616-.01v-.023l.616.01Z" transform="translate(-3215.371 -1320.339)" fill="#ffc397"/>
          <path id="Path_17558" data-name="Path 17558" d="M3215.936,1321.323l-.616-.01v-.023l.616.01Z" transform="translate(-3215.371 -1320.936)" fill="#ffc499"/>
          <path id="Path_17559" data-name="Path 17559" d="M3215.936,1321.943l-.616-.01v-.024l.616.01Z" transform="translate(-3215.371 -1321.532)" fill="#ffc59a"/>
          <path id="Path_17560" data-name="Path 17560" d="M3215.936,1322.574l-.616-.01v-.023l.616.01Z" transform="translate(-3215.371 -1322.139)" fill="#ffc59b"/>
          <path id="Path_17561" data-name="Path 17561" d="M3215.936,1323.193l-.616-.01v-.024l.616.01Z" transform="translate(-3215.371 -1322.736)" fill="#ffc69c"/>
          <path id="Path_17562" data-name="Path 17562" d="M3215.936,1323.823l-.616-.01v-.023l.616.01Z" transform="translate(-3215.371 -1323.342)" fill="#ffc79d"/>
          <path id="Path_17563" data-name="Path 17563" d="M3215.936,1324.443l-.616-.01v-.024l.616.01Z" transform="translate(-3215.371 -1323.938)" fill="#ffc79e"/>
          <path id="Path_17564" data-name="Path 17564" d="M3215.936,1325.073l-.616-.01v-.023l.616.01Z" transform="translate(-3215.371 -1324.545)" fill="#ffc89f"/>
          <path id="Path_17565" data-name="Path 17565" d="M3215.936,1325.693l-.616-.01v-.023l.616.01Z" transform="translate(-3215.371 -1325.141)" fill="#ffc9a1"/>
          <path id="Path_17566" data-name="Path 17566" d="M3215.936,1326.314l-.616-.01v-.024l.616.01Z" transform="translate(-3215.371 -1325.738)" fill="#ffc9a2"/>
          <path id="Path_17567" data-name="Path 17567" d="M3215.936,1326.944l-.616-.01v-.023l.616.01Z" transform="translate(-3215.371 -1326.345)" fill="#ffcaa3"/>
          <path id="Path_17568" data-name="Path 17568" d="M3215.936,1327.563l-.616-.01v-.023l.616.01Z" transform="translate(-3215.371 -1326.941)" fill="#ffcaa4"/>
          <path id="Path_17569" data-name="Path 17569" d="M3215.936,1328.183l-.616-.01v-.024l.616.01Z" transform="translate(-3215.371 -1327.538)" fill="#ffcba5"/>
          <path id="Path_17570" data-name="Path 17570" d="M3215.936,1328.814l-.616-.01v-.023l.616.01Z" transform="translate(-3215.371 -1328.144)" fill="#ffcca6"/>
          <path id="Path_17571" data-name="Path 17571" d="M3215.936,1329.433l-.616-.01v-.024l.616.01Z" transform="translate(-3215.371 -1328.741)" fill="#ffcca7"/>
          <path id="Path_17572" data-name="Path 17572" d="M3215.936,1330.063l-.616-.01v-.023l.616.01Z" transform="translate(-3215.371 -1329.347)" fill="#ffcda8"/>
          <path id="Path_17573" data-name="Path 17573" d="M3215.936,1330.683l-.616-.01v-.023l.616.01Z" transform="translate(-3215.371 -1329.944)" fill="#ffcda9"/>
          <path id="Path_17574" data-name="Path 17574" d="M3215.936,1331.313l-.616-.01v-.023l.616.01Z" transform="translate(-3215.371 -1330.55)" fill="#ffceaa"/>
          <path id="Path_17575" data-name="Path 17575" d="M3215.936,1331.933l-.616-.01v-.023l.616.01Z" transform="translate(-3215.371 -1331.147)" fill="#ffcfab"/>
          <path id="Path_17576" data-name="Path 17576" d="M3215.936,1332.554l-.616-.01v-.024l.616.01Z" transform="translate(-3215.371 -1331.743)" fill="#ffcfac"/>
          <path id="Path_17577" data-name="Path 17577" d="M3215.936,1333.183l-.616-.01v-.023l.616.01Z" transform="translate(-3215.371 -1332.349)" fill="#ffd0ad"/>
          <path id="Path_17578" data-name="Path 17578" d="M3215.936,1333.8l-.616-.01v-.024l.616.01Z" transform="translate(-3215.371 -1332.946)" fill="#ffd0ae"/>
          <path id="Path_17579" data-name="Path 17579" d="M3215.936,1334.433l-.616-.01v-.023l.616.01Z" transform="translate(-3215.371 -1333.552)" fill="#ffd1af"/>
          <path id="Path_17580" data-name="Path 17580" d="M3215.936,1335.054l-.616-.01v-.023l.616.01Z" transform="translate(-3215.371 -1334.149)" fill="#ffd1b0"/>
          <path id="Path_17581" data-name="Path 17581" d="M3215.936,1335.673l-.616-.01v-.024l.616.01Z" transform="translate(-3215.371 -1334.746)" fill="#ffd2b1"/>
          <path id="Path_17582" data-name="Path 17582" d="M3215.936,1336.3l-.616-.01v-.023l.616.01Z" transform="translate(-3215.371 -1335.352)" fill="#ffd3b2"/>
          <path id="Path_17583" data-name="Path 17583" d="M3215.936,1336.923l-.616-.01v-.024l.616.01Z" transform="translate(-3215.371 -1335.949)" fill="#ffd3b3"/>
          <path id="Path_17584" data-name="Path 17584" d="M3215.936,1337.553l-.616-.01v-.024l.616.01Z" transform="translate(-3215.371 -1336.555)" fill="#ffd4b4"/>
          <path id="Path_17585" data-name="Path 17585" d="M3215.936,1338.173l-.616-.01v-.024l.616.01Z" transform="translate(-3215.371 -1337.152)" fill="#ffd4b5"/>
          <path id="Path_17586" data-name="Path 17586" d="M3215.936,1338.8l-.616-.01v-.023l.616.01Z" transform="translate(-3215.371 -1337.758)" fill="#ffd5b5"/>
          <path id="Path_17587" data-name="Path 17587" d="M3215.936,1339.423l-.616-.01v-.023l.616.01Z" transform="translate(-3215.371 -1338.355)" fill="#ffd5b6"/>
          <path id="Path_17588" data-name="Path 17588" d="M3215.936,1340.043l-.616-.01v-.024l.616.01Z" transform="translate(-3215.371 -1338.952)" fill="#ffd6b7"/>
          <path id="Path_17589" data-name="Path 17589" d="M3215.936,1340.674l-.616-.01v-.023l.616.01Z" transform="translate(-3215.371 -1339.558)" fill="#ffd6b8"/>
          <path id="Path_17590" data-name="Path 17590" d="M3215.936,1341.294l-.616-.01v-.024l.616.01Z" transform="translate(-3215.371 -1340.154)" fill="#ffd6b9"/>
          <path id="Path_17591" data-name="Path 17591" d="M3215.936,1341.923l-.616-.01v-.023l.616.01Z" transform="translate(-3215.371 -1340.761)" fill="#ffd7b9"/>
          <path id="Path_17592" data-name="Path 17592" d="M3215.936,1342.543l-.616-.01v-.023l.616.01Z" transform="translate(-3215.371 -1341.357)" fill="#ffd7ba"/>
          <path id="Path_17593" data-name="Path 17593" d="M3215.936,1343.163l-.616-.01v-.024l.616.01Z" transform="translate(-3215.371 -1341.954)" fill="#ffd8bb"/>
          <path id="Path_17594" data-name="Path 17594" d="M3215.936,1343.794l-.616-.01v-.023l.616.01Z" transform="translate(-3215.371 -1342.561)" fill="#ffd8bb"/>
          <path id="Path_17595" data-name="Path 17595" d="M3215.936,1344.413l-.616-.01v-.024l.616.01Z" transform="translate(-3215.371 -1343.157)" fill="#ffd8bc"/>
          <path id="Path_17596" data-name="Path 17596" d="M3215.936,1345.043l-.616-.01v-.023l.616.01Z" transform="translate(-3215.371 -1343.763)" fill="#ffd9bd"/>
          <path id="Path_17597" data-name="Path 17597" d="M3215.751,1345.66l-.431-.007v-.023l.616.01v.021Z" transform="translate(-3215.371 -1344.36)" fill="#ffd9bd"/>
          <path id="Path_17598" data-name="Path 17598" d="M3215.32,1346.25l.431.007h-.431Z" transform="translate(-3215.371 -1344.957)" fill="#ffd9bd"/>
        </g>
        <path id="Path_17600" data-name="Path 17600" d="M1110.87,962.42s2.227,8.827,2.467,13.076l-1.031.254Z" transform="translate(-1069.07 -926.206)" fill="#19969d"/>
        <path id="Path_17601" data-name="Path 17601" d="M1039.852,1265.84s.477,6.3.492,10.963c-.68.845-1.457,1.222-2.446.578,0,0-1.287-3.773-1.976-5.1s-1.265-4.44-.376-5.593Z" transform="translate(-996.145 -1218.209)" fill="#1f5f95"/>
        <path id="Path_17602" data-name="Path 17602" d="M1111.35,1546.4s-.061,5.849-.325,8.555l-1.037.4c-.4-2.968-1.285-5.891-1.083-8.376A1.477,1.477,0,0,1,1111.35,1546.4Z" transform="translate(-1067.151 -1487.808)" fill="#1f5f95"/>
        <path id="Path_17603" data-name="Path 17603" d="M978.061,1268.26s-1.846,7.271-3.371,11.676c-.921.573-1.723.665-2.443-.269,0,0,.061-4.214,0-5.712-.1-2.615-.146-4.559,1.073-5.355Z" transform="translate(-935.62 -1220.538)" fill="#1372b7"/>
        <path id="Path_17604" data-name="Path 17604" d="M967.621,1549.7s-.966,5.828-1.716,8.442l-1.091.2c.142-2.991-.35-6.113.3-8.52A1.477,1.477,0,0,1,967.621,1549.7Z" transform="translate(-928.465 -1490.776)" fill="#1372b7"/>
        <path id="Path_17605" data-name="Path 17605" d="M1012.722,901.8c-.647.16-1.926.414-2.69.548.615-11.41-.807-14.181-1.572-15.1.216-.079.64-.42.857-.4.834.071,1.036.489,1.519.876h0C1011.688,889.668,1012.911,893.345,1012.722,901.8Z" transform="translate(-970.513 -853.479)" fill="#fce683"/>
        <path id="Path_17606" data-name="Path 17606" d="M1010.36,850.828a3.971,3.971,0,0,1,.127,1.86s.116.409.71.35.7-.342.758-.446a2.333,2.333,0,0,1-.331-1.16C1011.556,850.615,1010.36,850.828,1010.36,850.828Z" transform="translate(-972.342 -818.789)" fill="#ffa361"/>
        <path id="Path_17607" data-name="Path 17607" d="M1041.475,755.8a2.039,2.039,0,0,1,.427,1.238l-1.042-1.084Z" transform="translate(-1001.694 -727.361)" fill="#522808"/>
        <path id="Path_17608" data-name="Path 17608" d="M988.038,762.577c.271.913.782,3.2-.285,3.632-.731.3-2.217-.8-2.455-1.525s-.973-1.766.747-2.512C987.429,761.572,987.889,762.075,988.038,762.577Z" transform="translate(-947.875 -733.23)" fill="#ffb884"/>
        <path id="Path_17609" data-name="Path 17609" d="M968.007,716.594a3.9,3.9,0,0,0-2.283.061c-.064.023-.128.048-.192.075,0,0,.038-.045.1-.11a2.412,2.412,0,0,1,.476-.43,6.1,6.1,0,0,0-.836.346,5.764,5.764,0,0,0-.564.319h0a2.031,2.031,0,0,0-1.149,2.327q.029.09.058.172a3.261,3.261,0,0,0,.445.938,5.821,5.821,0,0,0,.593.744,3.129,3.129,0,0,1,.426.523.7.7,0,0,1,.1.531s.391-.25.341-.55a.366.366,0,0,0-.068-.157c-.263-.366-.462-.242-.7-.555s-.176-.564-.022-.653a.221.221,0,0,1,.084-.021.765.765,0,0,1,.613.321.434.434,0,0,1,.04.091.221.221,0,0,0,.046-.053.371.371,0,0,0-.035-.428,1.076,1.076,0,0,0-.172-.2.764.764,0,0,1-.09-1.212,3.74,3.74,0,0,1,1.338-.576,2.474,2.474,0,0,0,.586-.306,3.768,3.768,0,0,0,.75-.619,1.781,1.781,0,0,1-.719.093A4.157,4.157,0,0,0,968.007,716.594Z" transform="translate(-927.214 -689.241)" fill="#522808"/>
        <path id="Path_17610" data-name="Path 17610" d="M958.927,906.427a13.468,13.468,0,0,1-3.318.238s-.7-7.728-.543-10.691a11.289,11.289,0,0,1,.285-2.767,5.856,5.856,0,0,1,1.906-2.4C958.023,891.731,959.542,895.017,958.927,906.427Z" transform="translate(-919.107 -857.29)" fill="#0a8086"/>
        <path id="Path_17611" data-name="Path 17611" d="M1066.241,916.39c.188-8.46-1.081-12.81-1.932-14.75a8.731,8.731,0,0,1,2.8,5.034c.634,3.387,1.191,9.144,1.191,9.144S1067.444,916.093,1066.241,916.39Z" transform="translate(-1024.262 -867.713)" fill="#0a8086"/>
        <path id="Path_17612" data-name="Path 17612" d="M1258.052,1213.379c-.12.05-.251-.351-.412-.26a.077.077,0,0,0-.033.033.392.392,0,0,1-.457-.242.636.636,0,0,1,.59-.133.6.6,0,0,1,.267.211h0C1258.128,1213.155,1258.132,1213.346,1258.052,1213.379Z" transform="translate(-1209.846 -1167.112)" fill="#ffa361"/>
        <path id="Path_17613" data-name="Path 17613" d="M1236.147,1218.4c-.113.2-.382-.015-.432.035s.177.107.07.2c-.161.141-.3-.08-.356-.02s.121.086-.029.188-.226-.052-.268-.056-.053.091-.08.11c-.307.211-1.342-.853-1.342-.853s0-.436.113-.436a.685.685,0,0,0,.454-.147,2.04,2.04,0,0,1,.313-.279l.457.242a.07.07,0,0,0-.008.042c.009.124.248.335.452.51l.021.017a3.721,3.721,0,0,0,.58.3C1236.156,1218.287,1236.183,1218.333,1236.147,1218.4Z" transform="translate(-1187.288 -1171.341)" fill="#ffa361"/>
        <path id="Path_17614" data-name="Path 17614" d="M955.75,946.2c-1.07.391-.779,2.156-.067,3.578a11.967,11.967,0,0,0,3.4,4.875c.633.576,1.226.123,1.982-1.06,0,0-1.479-2.571-2.779-5.076C957.1,946.221,956.118,946.065,955.75,946.2Z" transform="translate(-919.109 -910.562)" fill="#19969d"/>
        <path id="Path_17615" data-name="Path 17615" d="M1062.839,1127.75a43.251,43.251,0,0,0,5.213,3.735l-.195.689a22.37,22.37,0,0,1-6.4-2.6C1060.706,1129.1,1061.526,1127.877,1062.839,1127.75Z" transform="translate(-1021.242 -1085.315)" fill="#19969d"/>
      </g>
      <path id="Path_17617" data-name="Path 17617" d="M1570.577,955.12c-26.421,2.689-29.225,13.979-28.4,20.768a7.992,7.992,0,0,0,6.688,6.915C1555.622,983.858,1567,981.435,1570.577,955.12Z" transform="translate(-1484.032 -919.181)" fill="#fff"/>
      <path id="Path_17618" data-name="Path 17618" d="M1570.577,955.12c-26.421,2.689-29.225,13.979-28.4,20.768a7.992,7.992,0,0,0,6.688,6.915C1555.622,983.858,1567,981.435,1570.577,955.12Z" transform="translate(-1484.032 -919.181)" fill="#fce683" opacity="0.44"/>
      <path id="Path_17619" data-name="Path 17619" d="M1649.876,985.61l-24.186,23.385Z" transform="translate(-1564.518 -948.523)" fill="#fff"/>
      <rect id="Rectangle_25920" data-name="Rectangle 25920" width="33.642" height="0.038" transform="matrix(0.719, -0.695, 0.695, 0.719, 61.161, 60.458)" fill="#fff"/>
      <path id="Path_17620" data-name="Path 17620" d="M1719.285,1514.42l-11.015.482Z" transform="translate(-1643.991 -1457.435)" fill="#fff"/>
      <rect id="Rectangle_25921" data-name="Rectangle 25921" width="11.025" height="0.038" transform="translate(64.275 57.453) rotate(-2.51)" fill="#fff"/>
      <path id="Path_17621" data-name="Path 17621" d="M1732.32,1251.012l.167-9.892Z" transform="translate(-1667.136 -1194.419)" fill="#fff"/>
      <rect id="Rectangle_25922" data-name="Rectangle 25922" width="9.894" height="0.038" transform="translate(65.163 56.594) rotate(-88.99)" fill="#fff"/>
      <path id="Path_17622" data-name="Path 17622" d="M1904.469,1345.741l-8.449-.031Z" transform="translate(-1824.676 -1295.073)" fill="#fff"/>
      <rect id="Rectangle_25923" data-name="Rectangle 25923" width="0.038" height="8.449" transform="translate(71.342 50.655) rotate(-89.79)" fill="#fff"/>
      <path id="Path_17623" data-name="Path 17623" d="M1915.205,1139.808l-.836-6.518Z" transform="translate(-1842.336 -1090.646)" fill="#fff"/>
      <rect id="Rectangle_25924" data-name="Rectangle 25924" width="0.038" height="6.562" transform="translate(72.002 42.355) rotate(-7.481)" fill="#fff"/>
      <path id="Path_17624" data-name="Path 17624" d="M2071.73,1156.746l5.294-.746Z" transform="translate(-1993.774 -1112.502)" fill="#fff"/>
      <rect id="Rectangle_25925" data-name="Rectangle 25925" width="5.345" height="0.038" transform="matrix(0.99, -0.139, 0.139, 0.99, 77.95, 44.229)" fill="#fff"/>
      <path id="Path_17625" data-name="Path 17625" d="M2088.25,1053.277l.125-4.167Z" transform="translate(-2009.673 -1009.634)" fill="#fff"/>
      <rect id="Rectangle_25926" data-name="Rectangle 25926" width="4.169" height="0.038" transform="translate(78.562 43.644) rotate(-88.32)" fill="#fff"/>
      <rect id="Rectangle_25927" data-name="Rectangle 25927" width="20.507" height="44.076" transform="translate(77.014 63.953) rotate(180)" fill="#5bbbcf"/>
      <rect id="Rectangle_25928" data-name="Rectangle 25928" width="0.826" height="8.955" transform="translate(72.918 37.437)" fill="#bce6eb"/>
      <path id="Path_17626" data-name="Path 17626" d="M1345.958,1184.462c-.113.088.245.539.169.572-.274.117-1.321-.568-1.475-.353-.171.237.718.33.665.516s-.9-.154-.958.086.87.17.878.376-.855-.029-.841.236c.011.211.953.045.964.184s-.634.126-.578.3c.029.09.538.056.988-.012a4.857,4.857,0,0,0,.671-.154c.308-.093.427-.613.4-.845-.012-.094-.113.01-.137-.025C1346.316,1184.741,1346.093,1184.359,1345.958,1184.462Z" transform="translate(-1293.771 -1139.876)" fill="#ffb884"/>
      <path id="Path_17627" data-name="Path 17627" d="M1685.885,1334.77a3.672,3.672,0,0,1-.874,1.019.038.038,0,0,0,.02.073.991.991,0,0,0,.835-.457C1686.3,1334.816,1685.885,1334.77,1685.885,1334.77Z" transform="translate(-1621.581 -1284.545)" fill="#ffb884"/>
      <path id="Path_17628" data-name="Path 17628" d="M1698.565,1325.618c.361-.122.349.022.434.117.113.124-.065.079-.009.292a4.317,4.317,0,0,0,.231.4c.164.307.288.687-.2.7s-1.283.029-1.01-.608S1698.386,1325.678,1698.565,1325.618Z" transform="translate(-1634.063 -1275.692)" fill="#f8a163"/>
      <path id="Path_17629" data-name="Path 17629" d="M1685.467,1353.182h-.3v-1.736a.142.142,0,0,0-.142-.142h-1.354a.141.141,0,0,0-.141.142v1.7h-.3v-1.7a.447.447,0,0,1,.443-.447h1.355a.447.447,0,0,1,.446.446Z" transform="translate(-1619.884 -1300.164)" fill="#002942"/>
      <rect id="Rectangle_25929" data-name="Rectangle 25929" width="4.358" height="5.648" transform="translate(62.565 52.752)" fill="#002942"/>
      <rect id="Rectangle_25930" data-name="Rectangle 25930" width="4.358" height="5.648" transform="translate(61.707 52.752)" fill="#003b61"/>
      <path id="Path_17630" data-name="Path 17630" d="M1691.077,1345.682c-.053.2-.113.417.072.458s.214-.113.357.012.238.1.376.006.19.065.411-.083.345.053.376-.256-.37-.667-.459-.619.059.214-.047.25-.209-.268-.351-.214-.053.4-.155.423-.018-.333-.155-.339-.1.318-.16.317.018-.281-.089-.281S1691.113,1345.545,1691.077,1345.682Z" transform="translate(-1627.393 -1294.578)" fill="#fab582"/>
      <g id="Group_13939" data-name="Group 13939" transform="translate(63.761 50.137)" clip-path="url(#clip-path-3)">
        <path id="Path_17631" data-name="Path 17631" d="M3757.743,1329.439l-.523-.286.018-.033h.5Z" transform="translate(-3756.935 -1329.222)" fill="#ffa361"/>
        <path id="Path_17632" data-name="Path 17632" d="M3757.551,1330.3l-.531-.29.008-.014.523.286Z" transform="translate(-3756.743 -1330.069)" fill="#ffa361"/>
        <path id="Path_17633" data-name="Path 17633" d="M3757.349,1330.688l-.539-.294.008-.014.531.29Z" transform="translate(-3756.541 -1330.434)" fill="#ffa462"/>
        <path id="Path_17634" data-name="Path 17634" d="M3757.147,1331.073l-.547-.3.008-.014.539.294Z" transform="translate(-3756.338 -1330.8)" fill="#ffa464"/>
        <path id="Path_17635" data-name="Path 17635" d="M3756.944,1331.457l-.554-.3.008-.014.546.3Z" transform="translate(-3756.137 -1331.166)" fill="#ffa565"/>
        <path id="Path_17636" data-name="Path 17636" d="M3756.752,1331.841l-.562-.307.008-.014.555.3Z" transform="translate(-3755.944 -1331.532)" fill="#ffa666"/>
        <path id="Path_17637" data-name="Path 17637" d="M3756.55,1332.216l-.57-.312.008-.014.562.307Z" transform="translate(-3755.742 -1331.888)" fill="#ffa767"/>
        <path id="Path_17638" data-name="Path 17638" d="M3756.348,1332.6l-.578-.316.008-.014.57.312Z" transform="translate(-3755.539 -1332.253)" fill="#ffa768"/>
        <path id="Path_17639" data-name="Path 17639" d="M3756.156,1332.985l-.585-.32.008-.014.578.316Z" transform="translate(-3755.347 -1332.619)" fill="#ffa86a"/>
        <path id="Path_17640" data-name="Path 17640" d="M3755.953,1333.369l-.593-.324.008-.014.585.32Z" transform="translate(-3755.146 -1332.985)" fill="#ffa96b"/>
        <path id="Path_17641" data-name="Path 17641" d="M3755.75,1333.753l-.6-.329.008-.014.593.324Z" transform="translate(-3754.943 -1333.351)" fill="#ffaa6c"/>
        <path id="Path_17642" data-name="Path 17642" d="M3755.549,1334.137l-.609-.333.008-.014.6.328Z" transform="translate(-3754.741 -1333.716)" fill="#ffaa6d"/>
        <path id="Path_17643" data-name="Path 17643" d="M3755.356,1334.521l-.617-.337.008-.014.609.333Z" transform="translate(-3754.548 -1334.082)" fill="#ffab6f"/>
        <path id="Path_17644" data-name="Path 17644" d="M3755.154,1334.906l-.624-.341.008-.014.616.337Z" transform="translate(-3754.346 -1334.448)" fill="#ffac70"/>
        <path id="Path_17645" data-name="Path 17645" d="M3754.952,1335.29l-.632-.345.008-.014.624.341Z" transform="translate(-3754.144 -1334.813)" fill="#ffac71"/>
        <path id="Path_17646" data-name="Path 17646" d="M3754.75,1335.674l-.64-.349.008-.014.632.346Z" transform="translate(-3753.942 -1335.179)" fill="#ffad72"/>
        <path id="Path_17647" data-name="Path 17647" d="M3754.558,1336.058l-.648-.354.008-.014.64.35Z" transform="translate(-3753.75 -1335.545)" fill="#ffae73"/>
        <path id="Path_17648" data-name="Path 17648" d="M3754.355,1336.443l-.655-.359.008-.014.647.354Z" transform="translate(-3753.548 -1335.91)" fill="#ffae74"/>
        <path id="Path_17649" data-name="Path 17649" d="M3754.153,1336.817l-.663-.363.008-.014.656.359Z" transform="translate(-3753.345 -1336.266)" fill="#ffaf76"/>
        <path id="Path_17650" data-name="Path 17650" d="M3753.951,1337.2l-.671-.367.008-.014.663.363Z" transform="translate(-3753.144 -1336.632)" fill="#ffb077"/>
        <path id="Path_17651" data-name="Path 17651" d="M3753.759,1337.586l-.679-.371.008-.014.671.367Z" transform="translate(-3752.951 -1336.998)" fill="#ffb078"/>
        <path id="Path_17652" data-name="Path 17652" d="M3753.557,1337.97l-.687-.376.008-.014.679.371Z" transform="translate(-3752.749 -1337.364)" fill="#ffb179"/>
        <path id="Path_17653" data-name="Path 17653" d="M3753.354,1338.354l-.695-.38.008-.014.687.376Z" transform="translate(-3752.546 -1337.729)" fill="#ffb27a"/>
        <path id="Path_17654" data-name="Path 17654" d="M3753.162,1338.738l-.7-.384.007-.014.695.379Z" transform="translate(-3752.354 -1338.095)" fill="#ffb27b"/>
        <path id="Path_17655" data-name="Path 17655" d="M3752.96,1339.122l-.71-.388.008-.014.7.384Z" transform="translate(-3752.152 -1338.461)" fill="#ffb37c"/>
        <path id="Path_17656" data-name="Path 17656" d="M3752.758,1339.507l-.718-.393.008-.014.71.388Z" transform="translate(-3751.95 -1338.826)" fill="#ffb47d"/>
        <path id="Path_17657" data-name="Path 17657" d="M3752.556,1339.891l-.726-.4.008-.015.718.392Z" transform="translate(-3751.748 -1339.192)" fill="#ffb47e"/>
        <path id="Path_17658" data-name="Path 17658" d="M3752.363,1340.275l-.733-.4.008-.014.726.4Z" transform="translate(-3751.555 -1339.558)" fill="#ffb57f"/>
        <path id="Path_17659" data-name="Path 17659" d="M3752.161,1340.659l-.741-.405.008-.014.733.4Z" transform="translate(-3751.353 -1339.923)" fill="#ffb681"/>
        <path id="Path_17660" data-name="Path 17660" d="M3751.959,1341.044l-.75-.41.008-.014.741.405Z" transform="translate(-3751.151 -1340.289)" fill="#ffb682"/>
        <path id="Path_17661" data-name="Path 17661" d="M3751.766,1341.418l-.757-.414.008-.014.749.41Z" transform="translate(-3750.958 -1340.645)" fill="#ffb783"/>
        <path id="Path_17662" data-name="Path 17662" d="M3751.564,1341.8l-.765-.418.008-.014.757.414Z" transform="translate(-3750.757 -1341.011)" fill="#ffb784"/>
        <path id="Path_17663" data-name="Path 17663" d="M3751.363,1342.187l-.772-.423.007-.014.765.418Z" transform="translate(-3750.555 -1341.377)" fill="#ffb885"/>
        <path id="Path_17664" data-name="Path 17664" d="M3751.16,1342.571l-.78-.427.008-.014.772.422Z" transform="translate(-3750.352 -1341.742)" fill="#ffb986"/>
        <path id="Path_17665" data-name="Path 17665" d="M3750.968,1342.955l-.788-.431.007-.014.78.427Z" transform="translate(-3750.16 -1342.108)" fill="#ffb987"/>
        <path id="Path_17666" data-name="Path 17666" d="M3750.766,1343.34l-.8-.436.008-.014.788.431Z" transform="translate(-3749.958 -1342.474)" fill="#ffba88"/>
        <path id="Path_17667" data-name="Path 17667" d="M3750.564,1343.724l-.8-.44.008-.014.8.435Z" transform="translate(-3749.756 -1342.84)" fill="#ffba89"/>
        <path id="Path_17668" data-name="Path 17668" d="M3750.362,1344.108l-.811-.444.008-.014.8.44Z" transform="translate(-3749.554 -1343.205)" fill="#ffbb89"/>
        <path id="Path_17669" data-name="Path 17669" d="M3750.169,1344.492l-.819-.448.007-.014.812.444Z" transform="translate(-3749.361 -1343.571)" fill="#ffbb8a"/>
        <path id="Path_17670" data-name="Path 17670" d="M3749.967,1344.877l-.827-.452.008-.014.819.448Z" transform="translate(-3749.159 -1343.937)" fill="#ffbc8b"/>
        <path id="Path_17671" data-name="Path 17671" d="M3749.765,1345.261l-.835-.456.008-.014.827.453Z" transform="translate(-3748.957 -1344.302)" fill="#ffbc8c"/>
        <path id="Path_17672" data-name="Path 17672" d="M3749.563,1345.645l-.843-.46.008-.014.835.457Z" transform="translate(-3748.755 -1344.668)" fill="#ffbd8d"/>
        <path id="Path_17673" data-name="Path 17673" d="M3749.37,1346.029l-.85-.465.008-.014.843.461Z" transform="translate(-3748.563 -1345.034)" fill="#ffbd8e"/>
        <path id="Path_17674" data-name="Path 17674" d="M3749.168,1346.4l-.858-.47.008-.014.85.465Z" transform="translate(-3748.36 -1345.39)" fill="#ffbe8f"/>
        <path id="Path_17675" data-name="Path 17675" d="M3748.966,1346.788l-.866-.474.008-.014.858.469Z" transform="translate(-3748.158 -1345.755)" fill="#ffbe90"/>
        <path id="Path_17676" data-name="Path 17676" d="M3748.764,1347.172l-.874-.478.008-.014.866.474Z" transform="translate(-3747.956 -1346.121)" fill="#ffbf90"/>
        <path id="Path_17677" data-name="Path 17677" d="M3748.6,1347.556l-.88-.481v0l.006-.012.874.478Z" transform="translate(-3747.793 -1346.487)" fill="#ffbf91"/>
        <path id="Path_17678" data-name="Path 17678" d="M3748.6,1347.96l-.88-.481v-.019l.88.481Z" transform="translate(-3747.793 -1346.872)" fill="#ffc092"/>
        <path id="Path_17679" data-name="Path 17679" d="M3748.6,1348.45l-.88-.482v-.019l.88.481Z" transform="translate(-3747.793 -1347.343)" fill="#ffc092"/>
        <path id="Path_17680" data-name="Path 17680" d="M3748.6,1348.94l-.88-.481v-.019l.88.482Z" transform="translate(-3747.793 -1347.815)" fill="#ffc093"/>
        <path id="Path_17681" data-name="Path 17681" d="M3748.6,1349.44l-.88-.481v-.018l.88.481Z" transform="translate(-3747.793 -1348.296)" fill="#ffc194"/>
        <path id="Path_17682" data-name="Path 17682" d="M3748.6,1349.93l-.88-.481v-.018l.88.481Z" transform="translate(-3747.793 -1348.768)" fill="#ffc194"/>
        <path id="Path_17683" data-name="Path 17683" d="M3748.6,1350.408l-.035.065h-.845v-.553l.88.481Z" transform="translate(-3747.793 -1349.239)" fill="#ffc194"/>
      </g>
      <path id="Path_17685" data-name="Path 17685" d="M1656.149,903.763c1.062-.506,2.12.886,2.653,2.44a18.048,18.048,0,0,1,1.121,6.187c.053.773-.747.941-2.165.644,0,0-.828-2.951-1.736-5.719C1655.189,904.774,1655.783,903.938,1656.149,903.763Z" transform="translate(-1593.302 -869.654)" fill="#fff"/>
      <path id="Path_17686" data-name="Path 17686" d="M1707.43,1127.429a39.142,39.142,0,0,1,.058,6.8l.677.145a30.171,30.171,0,0,0,1.645-7.237C1709.884,1126.225,1708.343,1126.417,1707.43,1127.429Z" transform="translate(-1643.182 -1084.161)" fill="#fff"/>
      <path id="Path_17687" data-name="Path 17687" d="M1695.154,1779.021s.113,1.114.1,1.512h-1.994v-.053a.22.22,0,0,1,.184-.22c.486-.075.831-.691,1-1.49Z" transform="translate(-1629.545 -1711.839)" fill="#391105"/>
      <path id="Path_17688" data-name="Path 17688" d="M1481.658,1779.021s.111,1.114.1,1.512H1479v-.053a.22.22,0,0,1,.184-.22,2.01,2.01,0,0,0,1.764-1.49Z" transform="translate(-1423.347 -1711.839)" fill="#391105"/>
      <path id="Path_17689" data-name="Path 17689" d="M1572.953,1183.8s-.61,5.108,2.709,13.278a1.821,1.821,0,0,0,2.634-.505s-.03-4.388-.015-5.936c.026-2.7,1.208-4.44-.075-5.225l-4.666-3.129Z" transform="translate(-1513.723 -1137.793)" fill="#a13c20"/>
      <path id="Path_17690" data-name="Path 17690" d="M1644.7,1547.277s1.735,5.714,2.727,8.343l1.141.119c-.4-3.068.305-6.251-1.185-8.772C1646.437,1545.976,1645.492,1546.348,1644.7,1547.277Z" transform="translate(-1582.813 -1488.193)" fill="#a13c20"/>
      <path id="Path_17691" data-name="Path 17691" d="M1521.188,1221.523a51.506,51.506,0,0,0-.841,11.514c.781.8,1.559,1.407,2.513.649,0,0,1.016-4.3,1.6-5.732s2.127-6.472,1.1-7.575Z" transform="translate(-1463.052 -1174.459)" fill="#b54424"/>
      <path id="Path_17692" data-name="Path 17692" d="M1521.143,1546.226s-.163,5.734.053,8.535l1.062.433c.477-3.057,1.554-5.749,1.4-8.32A1.526,1.526,0,0,0,1521.143,1546.226Z" transform="translate(-1463.849 -1487.647)" fill="#b54424"/>
      <path id="Path_17693" data-name="Path 17693" d="M1557.983,736.246c.158,1.032.719,3.533,1.98,3.467.865-.045,1.782-1.815,1.681-2.642s.179-2.224-1.875-2.158C1558.119,734.965,1557.9,735.679,1557.983,736.246Z" transform="translate(-1499.344 -707.257)" fill="#ffb884"/>
      <path id="Path_17694" data-name="Path 17694" d="M1620.221,822.65a4.161,4.161,0,0,0,.231,1.942s-.04.444-.665.5-.787-.216-.868-.312a2.474,2.474,0,0,0,.116-1.26C1618.949,822.663,1620.221,822.65,1620.221,822.65Z" transform="translate(-1558.003 -791.695)" fill="#ffa361"/>
      <path id="Path_17695" data-name="Path 17695" d="M1563.44,720.2a.156.156,0,0,1-.053.255c-.4.136-1.442.243-1.323-.709.211-1.684-.987-.878-.781-.009.034.142-.166.217-.219.081,0-.011-.008-.023-.011-.035a1.331,1.331,0,0,1-.188-1c.142-.38.056-.811-.219-.926-.527-.22-1.235.087-1.339-.4s.376-.814.748-.978c.478-.213,2.747-.767,3.06,1.016C1563.411,719.17,1562.829,719.407,1563.44,720.2Z" transform="translate(-1500.62 -689.284)" fill="#522808"/>
      <path id="Path_17696" data-name="Path 17696" d="M1539.078,867.3c1.392-.119,2.916,1.987,3.035,5.753.144,4.53.3,10.431.3,10.431a33.7,33.7,0,0,1-7.794-.1s.67-5.961.68-9.492C1535.315,869.266,1537.128,867.465,1539.078,867.3Z" transform="translate(-1476.875 -834.659)" fill="#00538a"/>
      <path id="Path_17697" data-name="Path 17697" d="M1554.563,919.511c1.171-.123,1.881,1.739,2,3.377a13.809,13.809,0,0,1-1.169,6.043c-.271.727-1.1.653-2.336-.1a41.058,41.058,0,0,0,.245-5.644C1553.242,920.513,1554.159,919.553,1554.563,919.511Z" transform="translate(-1494.621 -884.906)" fill="#fff"/>
      <path id="Path_17698" data-name="Path 17698" d="M1402.345,1127a59.834,59.834,0,0,1-5.733,2.977.451.451,0,0,0,.179.668,23.438,23.438,0,0,0,7.384-1.705C1405.057,1128.5,1403.644,1127.368,1402.345,1127Z" transform="translate(-1343.984 -1084.593)" fill="#fff"/>
      <path id="Path_17699" data-name="Path 17699" d="M3674.07,855.485l.13-.627,1.085-.278.731.568Z" transform="translate(-3613.153 -822.401)" fill="#fff"/>
    </g>
  </g>
</svg>
